ply
format ascii 1.0
comment PCL generated
element vertex 192
property float x
property float y
property float z
property uchar red
property uchar green
property uchar blue
element camera 1
property float view_px
property float view_py
property float view_pz
property float x_axisx
property float x_axisy
property float x_axisz
property float y_axisx
property float y_axisy
property float y_axisz
property float z_axisx
property float z_axisy
property float z_axisz
property float focal
property float scalex
property float scaley
property float centerx
property float centery
property int viewportx
property int viewporty
property float k1
property float k2
end_header
-0.12001328 -0.14247231 -0.7268905 172 157 136
-0.11893129 -0.14079544 -0.72691619 173 156 126
-0.118811 -0.14189337 -0.72652835 175 160 130
-0.11853179 -0.1407847 -0.72675335 171 152 123
-0.1185985 -0.14252286 -0.72626626 178 164 132
-0.12069876 -0.1443727 -0.72678345 154 132 122
-0.12047672 -0.14345159 -0.72688168 162 144 129
-0.11981334 -0.14416488 -0.72643512 162 142 128
-0.1194907 -0.14641352 -0.72585589 147 117 130
-0.11994901 -0.14433292 -0.72646081 160 139 126
-0.12077707 -0.14477265 -0.72673261 151 127 118
-0.11980814 -0.14392097 -0.72648054 164 145 128
-0.11540853 -0.1453689 -0.7243669 180 157 137
-0.11606171 -0.14645934 -0.72437459 175 153 143
-0.11606769 -0.1443501 -0.72490478 174 147 128
-0.11620802 -0.14639489 -0.72445363 174 151 142
-0.11523472 -0.14561407 -0.72423089 182 160 139
-0.11569639 -0.14582339 -0.7243768 178 155 140
-0.11853413 -0.14266916 -0.72620958 178 163 132
-0.11736549 -0.14282188 -0.72574151 178 157 127
-0.11907962 -0.14495966 -0.72596616 160 137 134
-0.11902956 -0.14462352 -0.72601312 163 141 134
-0.118487 -0.14346972 -0.7260353 172 153 132
-0.11888856 -0.14591917 -0.72570682 153 124 133
-0.1123824 -0.1453675 -0.7231645 179 151 118
-0.11221691 -0.14471029 -0.7232734 175 145 115
-0.11281442 -0.14615819 -0.72312731 183 159 123
-0.11345749 -0.14585303 -0.72346723 181 156 128
-0.11254985 -0.14472716 -0.72340274 174 145 119
-0.11506113 -0.14630751 -0.7239905 182 161 144
-0.11467659 -0.14580204 -0.7239688 179 157 139
-0.11478472 -0.14603308 -0.72395265 180 158 141
-0.11472775 -0.14370425 -0.72451323 179 151 124
-0.11514558 -0.14373569 -0.72466636 181 154 126
-0.11976445 -0.14974569 -0.72534209 149 104 115
-0.11983846 -0.15019631 -0.72528839 149 102 112
-0.11830808 -0.14963521 -0.72472495 159 116 123
-0.11539235 -0.15035176 -0.72336304 168 122 136
-0.11646707 -0.15019736 -0.72384471 164 119 131
-0.11561567 -0.14911737 -0.72368586 172 134 137
-0.11594978 -0.1501473 -0.72363591 167 122 133
-0.11679965 -0.15004939 -0.72401232 164 119 129
-0.11685155 -0.14704323 -0.7245996 169 142 138
-0.11836199 -0.14956217 -0.72476161 159 116 122
-0.1178134 -0.14744696 -0.72493476 161 130 133
-0.11664074 -0.14757349 -0.72440666 172 143 136
-0.11821231 -0.14841318 -0.72491932 159 122 128
-0.11793092 -0.14815772 -0.72484785 161 126 130
-0.11517961 -0.14792399 -0.72372246 178 148 142
-0.11440434 -0.14918438 -0.72316629 175 137 136
-0.11303046 -0.14674364 -0.72307783 184 159 125
-0.11338701 -0.14657754 -0.72325277 185 161 129
-0.11423755 -0.14904551 -0.72312564 175 138 134
-0.11939806 -0.15073781 -0.72499049 153 105 115
-0.11994413 -0.15325575 -0.72480482 157 126 115
-0.11990593 -0.15223886 -0.72496009 154 116 114
-0.11838521 -0.15381336 -0.72402644 166 143 123
-0.11633317 -0.15326452 -0.723189 170 139 126
-0.11791766 -0.15422654 -0.72372115 168 145 122
-0.11676144 -0.15293065 -0.72345912 168 137 127
-0.11651634 -0.1506034 -0.72379363 164 119 130
-0.11902608 -0.15190925 -0.72463059 159 121 119
-0.11716302 -0.15132144 -0.72394472 164 124 128
-0.11786199 -0.15246624 -0.72404563 165 133 125
-0.11680146 -0.15067506 -0.72390175 163 118 129
-0.11650769 -0.15057687 -0.72379452 164 119 130
-0.11502114 -0.15051289 -0.72317082 169 124 137
-0.11939028 -0.15677772 -0.72397929 152 126 116
-0.11943705 -0.15493067 -0.72430748 160 139 118
-0.11900486 -0.15482832 -0.72412294 164 143 120
-0.11863433 -0.15668897 -0.72364026 157 131 119
-0.11819088 -0.15720077 -0.72334725 156 129 119
-0.11773154 -0.15511289 -0.72348309 165 141 121
-0.11735348 -0.1549955 -0.72332698 166 141 121
-0.11860319 -0.15521187 -0.72387183 163 141 120
-0.11191811 -0.14598364 -0.72281641 183 156 116
-0.11149658 -0.14503103 -0.7228986 178 148 111
-0.11059526 -0.14451234 -0.72267479 168 137 105
-0.10991744 -0.14494275 -0.72229147 165 134 103
-0.11064171 -0.14503215 -0.72255743 172 142 106
-0.11304241 -0.14711876 -0.72301191 183 156 125
-0.1124268 -0.14705859 -0.72277945 184 155 121
-0.1121939 -0.14889956 -0.72227478 183 151 132
-0.11360098 -0.1496944 -0.72272396 176 137 134
-0.11281346 -0.14897989 -0.72253609 180 145 130
-0.1133656 -0.14926182 -0.72271937 177 139 131
-0.11193801 -0.14733593 -0.72252721 184 153 118
-0.10999456 -0.14996651 -0.72110951 179 151 131
-0.11117612 -0.14945871 -0.72169501 185 159 138
-0.11061062 -0.14814395 -0.72179407 180 150 121
-0.1111623 -0.1490767 -0.72177976 185 158 134
-0.11049154 -0.14703229 -0.72201151 179 148 110
-0.11597481 -0.15427652 -0.72281152 172 144 124
-0.11411597 -0.15065059 -0.72273624 174 134 139
-0.11440221 -0.1509306 -0.72280461 173 133 137
-0.11350796 -0.15186867 -0.72220236 178 148 137
-0.1140475 -0.15189293 -0.72244 176 142 136
-0.11511055 -0.15416333 -0.72244149 174 144 126
-0.11428786 -0.15289883 -0.72233689 176 145 132
-0.11218464 -0.15193592 -0.72160655 180 151 139
-0.11318976 -0.15320908 -0.72179669 175 144 131
-0.11255753 -0.15178204 -0.72179621 181 154 140
-0.11176749 -0.15199263 -0.72141635 178 149 138
-0.11210582 -0.15121751 -0.72170931 184 157 143
-0.11287917 -0.15399338 -0.72151393 169 136 127
-0.10762847 -0.1524196 -0.71961367 167 144 115
-0.10843088 -0.15373693 -0.71967089 163 140 119
-0.10756344 -0.15330961 -0.71939248 164 144 117
-0.1074915 -0.15115228 -0.71983033 171 145 112
-0.10924664 -0.15300097 -0.72017986 166 136 119
-0.1101852 -0.15393652 -0.72037822 164 132 122
-0.10941493 -0.15088436 -0.72067112 177 149 126
-0.11129382 -0.15159498 -0.72128928 179 151 140
-0.10939898 -0.15042555 -0.72075206 180 153 129
-0.10931474 -0.15104575 -0.72060031 176 147 124
-0.1105148 -0.15278983 -0.72074968 170 137 125
-0.10648959 -0.15153575 -0.71935564 161 138 109
-0.10571887 -0.15068896 -0.71924067 156 132 105
-0.10620465 -0.15149046 -0.71925491 158 136 108
-0.11685489 -0.15640734 -0.72286224 162 132 121
-0.11638016 -0.15584576 -0.72273773 165 135 123
-0.11530068 -0.15811783 -0.72184002 165 140 127
-0.1158425 -0.15642266 -0.72238696 166 138 125
-0.11550687 -0.15587641 -0.72232401 169 140 125
-0.11667521 -0.15766476 -0.72256285 160 131 122
-0.11309173 -0.15799762 -0.72091359 151 121 112
-0.11184307 -0.15699962 -0.72054964 148 115 109
-0.11323671 -0.15673722 -0.72118974 161 130 122
-0.11220518 -0.1572656 -0.72065914 149 117 110
-0.11248134 -0.1566989 -0.72087353 155 123 116
-0.11287431 -0.15731718 -0.7209363 154 123 115
-0.11437876 -0.15459479 -0.72204965 171 140 125
-0.11458692 -0.15749812 -0.72163755 165 138 127
-0.11450583 -0.15724288 -0.72164673 166 138 127
-0.11301463 -0.15531996 -0.72133768 166 133 125
-0.11360355 -0.15551962 -0.72155648 167 135 126
-0.11126088 -0.15611094 -0.72045344 150 115 111
-0.11127861 -0.15715528 -0.72028309 143 109 104
-0.10862873 -0.15473767 -0.71956515 158 135 117
-0.11019742 -0.15539065 -0.72013456 154 121 114
-0.1098969 -0.15493102 -0.72007769 157 127 117
-0.1101053 -0.15454496 -0.72022706 161 130 121
-0.10975242 -0.15655053 -0.71976316 145 111 103
-0.11736789 -0.15909052 -0.72266972 153 124 116
-0.11673085 -0.15911238 -0.72236788 156 128 118
-0.11785582 -0.15863588 -0.7229625 152 122 116
-0.11592095 -0.15944201 -0.72194499 157 130 117
-0.11647584 -0.16045246 -0.72206569 150 122 109
-0.11571988 -0.16058485 -0.72169811 149 123 108
-0.11444481 -0.15823413 -0.72145265 159 133 121
-0.11455692 -0.1594073 -0.7213425 152 125 113
-0.1127117 -0.15826492 -0.72070789 146 116 107
-0.11515367 -0.15918718 -0.72162718 158 133 119
-0.12405825 -0.13836129 -0.72985506 168 137 123
-0.12157956 -0.13765632 -0.72899252 167 136 118
-0.12058336 -0.13823648 -0.72840786 171 145 119
-0.12073284 -0.13860053 -0.72836328 174 150 121
-0.12480527 -0.13873661 -0.73008138 164 132 122
-0.12349389 -0.13894743 -0.72943431 173 146 127
-0.12452306 -0.1416072 -0.72921628 152 123 124
-0.12559444 -0.14204004 -0.72957867 146 117 119
-0.12382445 -0.14163189 -0.72890282 153 124 128
-0.12345891 -0.14210789 -0.72862238 150 120 131
-0.12350783 -0.13932493 -0.72934353 171 144 128
-0.12389049 -0.13989411 -0.72936875 166 139 126
-0.11936671 -0.14070432 -0.72714174 173 157 127
-0.12197886 -0.14157045 -0.72812778 154 126 129
-0.12078214 -0.14149126 -0.72757339 164 142 130
-0.11978652 -0.14020111 -0.72750366 170 150 124
-0.12198306 -0.14155322 -0.72813535 154 126 129
-0.12140304 -0.14047319 -0.72816825 162 135 126
-0.12249871 -0.14163254 -0.72833258 154 125 131
-0.12097017 -0.13925374 -0.72829479 170 146 123
-0.12281068 -0.1416259 -0.72846401 155 125 132
-0.12227788 -0.14063925 -0.72849047 161 134 129
-0.12135715 -0.14084584 -0.72805548 159 132 126
-0.11913531 -0.14021009 -0.72718865 174 157 124
-0.11864763 -0.13899119 -0.72736686 170 147 116
-0.12240777 -0.14266334 -0.72799385 152 125 134
-0.1219724 -0.14383498 -0.7275151 148 120 125
-0.1211456 -0.14397655 -0.72708225 154 130 125
-0.12123398 -0.14303073 -0.72734123 159 137 132
-0.12099975 -0.1441433 -0.72697347 154 131 124
-0.10616098 -0.15288657 -0.71892989 153 134 111
-0.10548124 -0.15112005 -0.71905285 153 129 105
-0.10492072 -0.15106955 -0.71884161 148 123 102
-0.10587548 -0.15374008 -0.7186501 149 127 106
-0.10580552 -0.15364993 -0.71864194 148 127 106
-0.10602281 -0.15290785 -0.7188707 152 133 111
-0.10746368 -0.15495452 -0.7190333 155 137 114
-0.10685495 -0.15499467 -0.71879768 150 129 108
-0.10616783 -0.15444237 -0.71862608 149 127 106
0 0 0 1 0 0 0 1 0 0 0 1 0 0 0 0 0 192 1 0 0
