ply
format ascii 1.0
comment PCL generated
element vertex 118
property float x
property float y
property float z
property uchar red
property uchar green
property uchar blue
element camera 1
property float view_px
property float view_py
property float view_pz
property float x_axisx
property float x_axisy
property float x_axisz
property float y_axisx
property float y_axisy
property float y_axisz
property float z_axisx
property float z_axisy
property float z_axisz
property float focal
property float scalex
property float scaley
property float centerx
property float centery
property int viewportx
property int viewporty
property float k1
property float k2
end_header
-0.23760918 0.53428793 -0.8711552 155 123 115
-0.23686869 0.5334233 -0.87000555 147 105 108
-0.23642427 0.53550285 -0.8695063 155 124 114
-0.23531356 0.53398812 -0.86802453 147 104 108
-0.23502518 0.53401846 -0.86761045 144 101 106
-0.23522876 0.53615439 -0.86787641 148 121 108
-0.23736016 0.5328179 -0.87083185 148 106 109
-0.23669991 0.53156424 -0.87016517 145 93 107
-0.2369826 0.53256768 -0.87032729 147 101 108
-0.23695116 0.53287703 -0.87019801 146 102 108
-0.23659152 0.52942199 -0.87037081 152 103 112
-0.2366443 0.53091294 -0.87018943 148 96 109
-0.23660538 0.52972233 -0.87034035 151 101 112
-0.23614965 0.53200358 -0.86909217 148 103 109
-0.23510261 0.53207552 -0.86771971 146 104 107
-0.23692441 0.52798474 -0.87103808 159 117 117
-0.2368577 0.5292868 -0.87089074 150 97 111
-0.23001762 0.53756922 -0.86060566 118 72 88
-0.23058814 0.53811806 -0.86116219 129 87 98
-0.23107216 0.53725517 -0.86180097 130 88 98
-0.23229997 0.53858751 -0.86297983 155 121 120
-0.23013374 0.53732383 -0.86076373 118 72 88
-0.22975759 0.53861642 -0.86020672 113 73 84
-0.23070346 0.54002672 -0.86107224 133 100 101
-0.22991209 0.53889275 -0.86034328 116 78 87
-0.23090817 0.53919148 -0.86137861 141 101 108
-0.23053685 0.53963161 -0.86093509 130 95 98
-0.23113734 0.53990149 -0.86154985 145 110 111
-0.23152535 0.53663743 -0.86240417 134 91 102
-0.23152649 0.5358218 -0.86255765 133 85 101
-0.23186356 0.53357154 -0.86334735 135 74 103
-0.23036622 0.53709972 -0.86104721 119 74 89
-0.23007634 0.53660798 -0.86082131 115 65 85
-0.23098367 0.53542477 -0.86203676 125 72 95
-0.23154029 0.53654289 -0.8624382 134 91 102
-0.22946829 0.53494185 -0.86025894 106 61 77
-0.23004059 0.53385276 -0.86105323 113 66 83
-0.23147964 0.53342885 -0.86288363 130 72 99
-0.23100913 0.53408164 -0.86224806 125 69 94
-0.22993533 0.53510994 -0.86083096 112 62 82
-0.23017465 0.53457063 -0.86116916 115 64 85
-0.22939478 0.53538299 -0.8601352 105 59 77
-0.23026338 0.52973789 -0.86139852 114 86 90
-0.23157589 0.52936029 -0.86261779 131 115 103
-0.2323858 0.5310024 -0.86363316 143 109 111
-0.23077151 0.53081489 -0.86204451 121 82 95
-0.23124771 0.53178918 -0.86264604 127 78 98
-0.23007825 0.53073138 -0.8613618 111 70 88
-0.23117426 0.53161383 -0.8625496 126 79 98
-0.22927453 0.53163147 -0.86030847 102 64 77
-0.22929399 0.53117901 -0.86038071 102 64 78
-0.23126745 0.53293717 -0.86266267 127 72 97
-0.22958097 0.53066736 -0.86079389 105 65 82
-0.22979777 0.5328787 -0.86083066 109 67 80
-0.23197332 0.53312624 -0.86352551 136 75 104
-0.22906594 0.53002161 -0.86021817 98 63 78
-0.23149815 0.52621305 -0.86254144 139 88 104
-0.2305392 0.52691567 -0.86148024 124 84 92
-0.23198763 0.52600592 -0.86307764 147 91 110
-0.2310649 0.52709967 -0.86204159 131 92 98
-0.23193158 0.52600032 -0.86301732 146 90 110
-0.23110104 0.52707362 -0.86208159 131 92 98
-0.23222178 0.52853191 -0.86324012 142 121 110
-0.22934489 0.52603406 -0.86023664 111 60 78
-0.23040533 0.52827138 -0.86140829 119 89 91
-0.23012562 0.52687413 -0.86104739 119 78 87
-0.22960097 0.52627492 -0.86050034 113 65 81
-0.23025809 0.52722871 -0.8611986 119 82 88
-0.22940186 0.52596563 -0.86028749 112 60 79
-0.23124638 0.52827406 -0.86222374 130 105 99
-0.23145139 0.52459538 -0.86250103 143 86 107
-0.22935651 0.52425873 -0.86022949 115 64 83
-0.23135377 0.52494752 -0.86240411 141 81 105
-0.23877649 0.53461307 -0.87285316 164 123 125
-0.23949285 0.5333932 -0.87409496 170 129 123
-0.2383679 0.53051829 -0.87296534 159 108 116
-0.23844407 0.52932918 -0.87303466 159 115 118
-0.23872294 0.53074825 -0.87340385 163 115 119
-0.23920575 0.53116769 -0.87400246 168 123 122
-0.23936956 0.53141624 -0.87420762 169 126 123
-0.23906527 0.53174806 -0.87383091 166 118 120
-0.23773834 0.53132409 -0.87181801 151 103 111
-0.23773125 0.53145784 -0.87176901 150 104 110
-0.23929095 0.5324384 -0.87399954 168 124 121
-0.2382945 0.53254044 -0.87236989 156 115 114
-0.23844416 0.53298682 -0.87248492 157 118 114
-0.2381319 0.5279513 -0.87324387 155 118 114
-0.23793134 0.52852803 -0.87274522 154 110 113
-0.23814127 0.5284307 -0.87304461 156 115 115
-0.23813204 0.52727467 -0.87354136 155 122 113
-0.23730852 0.52830076 -0.87178725 153 106 113
-0.23761 0.52810609 -0.87243521 152 108 112
-0.23735289 0.52836603 -0.87188071 152 104 112
-0.23377419 0.53821552 -0.86483151 160 124 125
-0.23385501 0.53805643 -0.86505455 158 124 123
-0.23306057 0.53784388 -0.86398351 154 119 118
-0.23311706 0.53404599 -0.86483443 142 89 108
-0.23244041 0.53324735 -0.86404634 141 78 108
-0.23349713 0.53339398 -0.86547768 142 86 107
-0.23399529 0.5343976 -0.86596501 144 97 108
-0.23311955 0.5360319 -0.86442053 145 105 110
-0.23252754 0.53519183 -0.86380768 144 94 109
-0.2343663 0.53500348 -0.8664754 144 105 107
-0.23423551 0.53655851 -0.8662225 146 117 108
-0.2345259 0.53646135 -0.86671817 146 118 107
-0.23442757 0.53675205 -0.86654532 146 120 108
-0.23339808 0.53619081 -0.86480564 146 108 110
-0.23341267 0.53680599 -0.86481845 146 113 110
-0.233504 0.5358761 -0.86499196 145 106 109
-0.23243591 0.53095168 -0.86368024 144 111 112
-0.23319185 0.53287321 -0.86503911 142 87 107
-0.23359783 0.53251183 -0.86554217 142 95 108
-0.23254189 0.53279769 -0.86413038 141 84 108
-0.23433754 0.5331015 -0.86665612 142 92 106
-0.23266095 0.53115427 -0.86403471 143 109 111
-0.23272443 0.53178144 -0.86422145 143 101 110
-0.2348841 0.53296733 -0.86739874 143 97 106
-0.23229872 0.53205067 -0.86370438 141 94 109
0 0 0 1 0 0 0 1 0 0 0 1 0 0 0 0 0 118 1 0 0
