ply
format ascii 1.0
comment PCL generated
element vertex 163
property float x
property float y
property float z
property uchar red
property uchar green
property uchar blue
element camera 1
property float view_px
property float view_py
property float view_pz
property float x_axisx
property float x_axisy
property float x_axisz
property float y_axisx
property float y_axisy
property float y_axisz
property float z_axisx
property float z_axisy
property float z_axisz
property float focal
property float scalex
property float scaley
property float centerx
property float centery
property int viewportx
property int viewporty
property float k1
property float k2
end_header
-0.23680426 0.52419996 -0.87081897 171 149 126
-0.23646311 0.5246259 -0.86998391 172 147 125
-0.23647405 0.52459484 -0.8700124 172 147 125
-0.2368917 0.52165353 -0.8712849 158 141 122
-0.23642269 0.52237254 -0.87023276 152 131 115
-0.23613758 0.52459353 -0.86948061 168 140 121
-0.23656164 0.51975763 -0.87117821 131 104 102
-0.2367973 0.52072525 -0.87135422 146 126 114
-0.23634759 0.51868045 -0.87104851 116 82 90
-0.23630047 0.51982486 -0.87059563 127 98 98
-0.23590432 0.51760709 -0.87049615 112 71 88
-0.23620605 0.51748592 -0.87108058 108 67 85
-0.23596717 0.51689494 -0.87075484 114 73 90
-0.23576544 0.51072049 -0.87095821 118 76 87
-0.23600678 0.51211035 -0.87135798 122 81 93
-0.23530954 0.50740892 -0.87141675 129 99 101
-0.24055326 0.52572095 -0.87882346 159 163 114
-0.24024443 0.52683014 -0.87702751 164 159 119
-0.23960997 0.52545834 -0.87669134 159 157 115
-0.23987825 0.526559 -0.87644583 164 157 119
-0.23964068 0.52578449 -0.87651598 161 157 116
-0.24045287 0.52424705 -0.87904865 148 142 107
-0.23978688 0.52285337 -0.87783802 142 118 107
-0.23989189 0.52360809 -0.87784499 147 131 109
-0.24011207 0.52461708 -0.87801683 152 149 110
-0.24000846 0.52429265 -0.87789476 151 143 110
-0.24019814 0.5236885 -0.87844664 143 130 105
-0.23988181 0.52261311 -0.87809724 139 112 104
-0.2394924 0.52508533 -0.87658691 159 153 115
-0.23887224 0.52361608 -0.87573129 157 132 118
-0.24012168 0.52534211 -0.87783176 157 161 112
-0.23873954 0.52278012 -0.87570733 156 122 119
-0.23997948 0.51788807 -0.87805438 133 92 104
-0.23985052 0.52036399 -0.8783443 126 91 97
-0.23992522 0.51766741 -0.87793201 134 92 105
-0.23911875 0.51921326 -0.87704736 128 99 99
-0.23977381 0.51906627 -0.87798047 129 93 101
-0.23872925 0.52143306 -0.87606472 148 102 116
-0.238731 0.51994836 -0.87621921 138 102 108
-0.23870002 0.51915407 -0.87623686 133 103 104
-0.23861441 0.51982164 -0.87599462 139 104 109
-0.23825443 0.5181011 -0.87543648 133 108 105
-0.23945855 0.51460403 -0.87923139 146 104 120
-0.23840943 0.5173865 -0.8758207 132 107 104
-0.23840949 0.51677853 -0.8762368 135 109 107
-0.23912911 0.51560253 -0.87809795 142 105 115
-0.2400021 0.51689911 -0.87849218 137 93 109
-0.23913927 0.51547879 -0.87819755 143 105 116
-0.23807004 0.5157389 -0.87590194 134 104 107
-0.23851392 0.51515514 -0.87728125 141 108 115
-0.238556 0.51372784 -0.87804663 145 106 120
-0.23829409 0.5170747 -0.875844 133 109 105
-0.23824677 0.51410073 -0.87710136 141 103 115
-0.23754346 0.51387173 -0.87544972 133 95 107
-0.2380356 0.51162457 -0.87784362 141 102 114
-0.23792204 0.5113163 -0.87802434 146 109 120
-0.23737927 0.51045096 -0.87621111 124 82 92
-0.23713829 0.50999194 -0.87573558 119 77 86
-0.23716992 0.50983983 -0.87673295 135 99 107
-0.23788784 0.51209193 -0.8768819 133 92 104
-0.23808995 0.51236141 -0.87730527 136 95 108
-0.23834227 0.51328737 -0.87765497 142 102 116
-0.23738806 0.51147646 -0.8758195 125 84 95
-0.23796897 0.51243532 -0.87698048 135 94 107
-0.2382797 0.51249129 -0.87774009 139 97 111
-0.23710941 0.50874531 -0.8768183 149 121 122
-0.23699953 0.50840849 -0.87580758 138 107 107
-0.23721747 0.50859672 -0.87799424 168 147 146
-0.23701079 0.50818992 -0.87600732 144 115 113
-0.2402444 0.5233078 -0.88335663 130 102 102
-0.23907201 0.52680683 -0.87489593 164 145 120
-0.23909587 0.52668697 -0.87497777 164 146 120
-0.23828562 0.52642399 -0.87391245 159 136 116
-0.23822133 0.52577698 -0.87378818 165 147 120
-0.23859981 0.52391344 -0.87496883 159 139 119
-0.23817466 0.52335322 -0.87402481 159 141 120
-0.23882522 0.52504081 -0.87513852 161 151 118
-0.23848684 0.52385575 -0.87468165 159 141 119
-0.2383703 0.52256817 -0.87487471 156 123 120
-0.23728952 0.52180052 -0.87221318 158 139 123
-0.23854949 0.52492636 -0.87453789 163 152 119
-0.23727907 0.52347696 -0.8719517 166 149 125
-0.23711371 0.52432662 -0.87152368 172 153 128
-0.23754121 0.52341557 -0.87251711 164 148 123
-0.23785244 0.52389663 -0.87313956 163 149 122
-0.23861922 0.52532965 -0.87465131 164 153 120
-0.23786232 0.51950574 -0.87445027 136 97 107
-0.23668739 0.51761085 -0.87213999 109 74 86
-0.2380468 0.5194906 -0.87484634 138 101 109
-0.23780572 0.52006972 -0.87426901 138 95 108
-0.23813638 0.51935118 -0.87505281 139 104 109
-0.23750466 0.52126169 -0.87302363 153 124 120
-0.23675101 0.51916015 -0.87183923 126 94 99
-0.23774587 0.52036458 -0.87406361 140 96 110
-0.23732112 0.52130133 -0.87250304 155 129 121
-0.23696031 0.52132314 -0.87150317 156 139 122
-0.23774143 0.52145535 -0.8735922 155 122 122
-0.23688281 0.51443231 -0.8734892 126 86 100
-0.23737662 0.51381326 -0.87505281 131 93 105
-0.23652492 0.51582128 -0.87219423 116 77 92
-0.23686986 0.51442885 -0.87345159 126 86 100
-0.23656787 0.51606363 -0.87228113 114 76 91
-0.23634323 0.5167219 -0.87150687 110 71 87
-0.23699756 0.51568604 -0.87355566 119 82 95
-0.2365723 0.51695013 -0.87214583 109 71 87
-0.23695105 0.51655382 -0.87311274 116 80 92
-0.23705409 0.51728719 -0.87304276 115 82 91
-0.237828 0.51741707 -0.87464637 126 100 99
-0.23798418 0.51747197 -0.87495857 128 103 100
-0.23629053 0.51539415 -0.87162614 118 78 94
-0.2369789 0.51301181 -0.87413996 128 88 101
-0.23685694 0.51080418 -0.87457055 119 76 87
-0.23694806 0.51035547 -0.87500012 118 75 85
-0.23708344 0.51107085 -0.87514341 121 79 90
-0.2370187 0.51075786 -0.87506443 119 77 87
-0.23646185 0.51183754 -0.87256837 119 76 89
-0.23684464 0.5102511 -0.87453234 116 73 83
-0.2364064 0.51262045 -0.87232774 123 81 95
-0.23680669 0.50983518 -0.87429219 112 69 78
-0.23635709 0.51050425 -0.87189114 108 65 75
-0.23625945 0.50980306 -0.87152719 104 61 70
-0.23615797 0.51170564 -0.87152791 118 76 88
-0.23661092 0.50896358 -0.87337846 118 81 85
-0.23671517 0.50916517 -0.87390727 118 79 84
-0.23690902 0.50909567 -0.8749792 122 84 88
-0.23659939 0.50823551 -0.87346095 127 96 94
-0.23664297 0.50805497 -0.87373501 130 100 97
-0.23653769 0.50725609 -0.87375993 138 114 106
-0.23636572 0.50851065 -0.87256813 119 86 86
-0.23599024 0.50663203 -0.8731209 140 120 110
-0.23632081 0.50836372 -0.87256694 120 88 87
-0.23516963 0.50681347 -0.87160408 134 108 108
-0.23551822 0.52588212 -0.88100588 130 98 103
-0.24030712 0.52186137 -0.88045287 126 90 96
-0.24025016 0.52244061 -0.88268274 126 94 99
-0.24059328 0.52292538 -0.88096213 140 110 108
-0.24044493 0.52312309 -0.87934917 138 120 103
-0.24054822 0.52372718 -0.87974584 145 131 108
-0.2405242 0.52254641 -0.88029665 136 106 105
-0.23902512 0.52348775 -0.88294595 135 105 108
-0.23898263 0.52279985 -0.88093102 131 98 103
-0.23811555 0.52390712 -0.88215101 139 110 112
-0.23873942 0.52303606 -0.88105345 133 101 105
-0.23881058 0.52294004 -0.88093811 132 100 105
-0.24001996 0.52245307 -0.88236028 127 94 99
-0.23747213 0.52371836 -0.88152879 141 110 116
-0.2390766 0.52236235 -0.88063169 130 95 102
-0.23646475 0.52320731 -0.8818267 147 112 123
-0.23849186 0.52166891 -0.88072735 132 94 106
-0.23632872 0.52163684 -0.88157451 146 103 124
-0.23543051 0.52494103 -0.88114768 139 109 113
-0.23507385 0.52528155 -0.88056982 133 99 106
-0.23489779 0.52516049 -0.88035005 131 96 103
-0.23573883 0.52230579 -0.88122743 142 105 118
-0.23547174 0.52256507 -0.88106143 140 106 116
-0.23552948 0.52371204 -0.88133162 142 113 117
-0.24009125 0.52105165 -0.88017964 122 83 94
-0.23622814 0.52096862 -0.88145846 141 99 118
-0.239227 0.51526582 -0.87968373 141 94 114
-0.23988451 0.51543826 -0.87932587 140 96 114
-0.24011317 0.51595289 -0.87934411 137 92 110
-0.23872675 0.51544249 -0.88031936 138 87 111
-0.23963086 0.51600289 -0.87993836 135 86 108
0 0 0 1 0 0 0 1 0 0 0 1 0 0 0 0 0 163 1 0 0
