ply
format ascii 1.0
comment PCL generated
element vertex 145
property float x
property float y
property float z
property uchar red
property uchar green
property uchar blue
element camera 1
property float view_px
property float view_py
property float view_pz
property float x_axisx
property float x_axisy
property float x_axisz
property float y_axisx
property float y_axisy
property float y_axisz
property float z_axisx
property float z_axisy
property float z_axisz
property float focal
property float scalex
property float scaley
property float centerx
property float centery
property int viewportx
property int viewporty
property float k1
property float k2
end_header
-0.20618127 -0.19053231 -0.80868769 173 150 159
-0.20605643 -0.19163533 -0.80886757 178 157 168
-0.20554517 -0.19330521 -0.80849618 180 160 169
-0.2052287 -0.19557434 -0.80863327 182 160 161
-0.20544384 -0.19367099 -0.80841511 179 160 166
-0.20478031 -0.19563703 -0.80779707 172 146 146
-0.20504901 -0.19401872 -0.80773425 173 152 152
-0.20473838 -0.19652723 -0.80803096 174 146 146
-0.20467357 -0.1968867 -0.80803525 173 145 144
-0.20965911 -0.19156075 -0.81990731 183 166 174
-0.20985596 -0.19135736 -0.82064253 179 161 167
-0.20965646 -0.19126859 -0.81988633 182 164 171
-0.20976454 -0.19295382 -0.82035774 189 175 183
-0.20976773 -0.19150876 -0.82031524 181 164 170
-0.20903577 -0.19295695 -0.81814653 184 168 167
-0.20940571 -0.19235951 -0.81914735 186 171 176
-0.20902909 -0.19208001 -0.8179487 183 167 168
-0.20911446 -0.19284199 -0.81836188 184 169 169
-0.20888621 -0.192408 -0.8176735 181 165 164
-0.20865496 -0.19302976 -0.81731486 176 159 156
-0.20872141 -0.19056967 -0.81687564 179 162 167
-0.20918752 -0.19401604 -0.82031041 189 175 179
-0.20907751 -0.19350375 -0.81871194 185 170 169
-0.20763133 -0.19442788 -0.81687224 174 159 151
-0.20728274 -0.19498724 -0.81689376 177 163 153
-0.2067467 -0.19586451 -0.81834561 176 167 156
-0.20664488 -0.19578038 -0.8179031 174 165 152
-0.2081406 -0.19403663 -0.81772798 175 159 154
-0.20613302 -0.19638647 -0.81798393 173 167 152
-0.208095 -0.19417877 -0.81793278 176 160 156
-0.2064213 -0.19608611 -0.81803018 174 166 153
-0.20767081 -0.19457509 -0.81776226 174 160 154
-0.20658164 -0.19547115 -0.81980067 149 139 138
-0.20596394 -0.19545197 -0.82005244 126 116 120
-0.20669003 -0.19597679 -0.81891328 173 165 156
-0.20581187 -0.19644605 -0.81843764 161 155 143
-0.2056125 -0.19571701 -0.81973243 125 116 117
-0.20896104 -0.19356471 -0.8185308 184 169 168
-0.20592983 -0.19737282 -0.81690449 192 185 167
-0.20827043 -0.18783092 -0.81562775 136 104 109
-0.20797651 -0.18943004 -0.81451344 175 154 165
-0.20823663 -0.18788035 -0.81552655 137 105 110
-0.20784371 -0.18939409 -0.81416166 172 151 162
-0.20755525 -0.18914804 -0.81343114 163 139 149
-0.20766401 -0.187131 -0.81415421 146 112 120
-0.20725484 -0.18658827 -0.81319308 175 147 158
-0.20776264 -0.1877455 -0.81427997 139 106 113
-0.20715334 -0.18607579 -0.8130374 182 154 165
-0.20776291 -0.18803047 -0.81421828 139 107 114
-0.20743597 -0.19307564 -0.81398332 171 144 149
-0.20766504 -0.19234894 -0.8144055 174 148 154
-0.20812653 -0.1923885 -0.81575388 174 152 154
-0.20853858 -0.19109364 -0.81651735 178 159 164
-0.20851442 -0.19103141 -0.81642687 178 159 164
-0.20813952 -0.19213365 -0.81570709 175 153 156
-0.20738377 -0.18999031 -0.81303746 170 146 157
-0.20747989 -0.19199835 -0.81378645 173 147 155
-0.20757288 -0.19155058 -0.81392872 174 148 157
-0.2080467 -0.19057254 -0.81497133 177 155 164
-0.20770721 -0.18952169 -0.81379765 173 151 162
-0.20789601 -0.18999816 -0.81442404 175 153 163
-0.20188351 -0.19306859 -0.8154617 46 31 29
-0.20152691 -0.19243287 -0.81586766 47 35 28
-0.203169 -0.19325161 -0.81649232 57 38 42
-0.20161058 -0.1918816 -0.81660086 52 41 31
-0.20514528 -0.1970568 -0.81447059 194 181 171
-0.20651287 -0.19542389 -0.81468844 185 166 161
-0.20651178 -0.19555566 -0.81487215 186 168 162
-0.20666382 -0.19454618 -0.81377816 179 154 155
-0.20614298 -0.19708604 -0.8162294 198 187 173
-0.20645441 -0.1947567 -0.81361938 180 155 156
-0.20687872 -0.19543082 -0.81566995 186 169 162
-0.20710285 -0.19401944 -0.81413502 175 150 151
-0.20747176 -0.19396803 -0.8151229 175 153 151
-0.20669334 -0.1962449 -0.81639296 192 180 167
-0.20669156 -0.19601308 -0.81602931 190 176 166
-0.20645495 -0.19671626 -0.81643254 195 185 171
-0.2032291 -0.19396324 -0.81628275 72 56 56
-0.20232852 -0.19402884 -0.81539375 65 52 47
-0.20202598 -0.19433643 -0.81502855 70 59 51
-0.2022218 -0.19349763 -0.81541407 51 35 34
-0.20312387 -0.19339846 -0.81631231 57 38 42
-0.20333704 -0.19540226 -0.81464577 121 108 101
-0.20330428 -0.1956584 -0.81545568 120 111 99
-0.20280488 -0.19463666 -0.81384617 101 84 81
-0.20305049 -0.1954654 -0.81556195 110 101 89
-0.20353621 -0.19590272 -0.81555116 129 120 107
-0.20378914 -0.19560055 -0.81404436 139 122 118
-0.20366283 -0.19535922 -0.81368566 134 116 114
-0.20188724 -0.19528653 -0.81332159 56 44 42
-0.20256692 -0.19459018 -0.81378442 90 74 72
-0.20132047 -0.19391765 -0.81410336 40 27 24
-0.20431517 -0.19616006 -0.81296182 156 137 137
-0.20479818 -0.19700864 -0.81532025 179 169 156
-0.20508899 -0.19804183 -0.81613439 191 182 167
-0.20472118 -0.19733667 -0.81627786 177 171 153
-0.20941077 -0.19133529 -0.82260203 166 145 159
-0.20953244 -0.19096595 -0.82220435 168 147 158
-0.20921993 -0.1929805 -0.82352996 172 154 173
-0.2096362 -0.19068106 -0.82178134 169 148 157
-0.20979081 -0.19050235 -0.8211019 172 151 158
-0.20985185 -0.19062708 -0.82082498 174 154 160
-0.20951785 -0.19300634 -0.82220423 180 163 177
-0.20901391 -0.19389358 -0.82249391 180 164 177
-0.20910107 -0.19359079 -0.82320249 176 159 176
-0.20719202 -0.18759108 -0.8127414 179 153 165
-0.20700485 -0.18790701 -0.81172973 178 153 164
-0.20678058 -0.18924157 -0.81014144 173 149 159
-0.20714577 -0.1890146 -0.81196231 172 149 160
-0.20695932 -0.18726207 -0.81176752 181 155 166
-0.20689949 -0.18588303 -0.81203073 177 150 160
-0.20626585 -0.19243799 -0.81025982 180 159 171
-0.2070345 -0.19120078 -0.81231058 172 147 158
-0.20679772 -0.19159232 -0.81168181 174 151 162
-0.20679292 -0.19146176 -0.81163007 175 151 163
-0.20654149 -0.19291809 -0.81125504 176 151 161
-0.20734657 -0.18974467 -0.81287497 170 146 158
-0.20719022 -0.18956389 -0.8121056 170 147 159
-0.20601065 -0.19277793 -0.80955595 182 163 176
-0.2065814 -0.19130562 -0.81086808 177 156 168
-0.20618565 -0.1923528 -0.80998313 181 161 173
-0.20665354 -0.18953143 -0.8095302 172 149 159
-0.2051782 -0.1968793 -0.81014246 187 163 160
-0.20644422 -0.19425923 -0.81287968 176 148 153
-0.20509747 -0.19651107 -0.81216431 188 166 166
-0.2066455 -0.1941047 -0.81223971 174 144 149
-0.20524906 -0.19669425 -0.8104533 186 162 160
-0.20586784 -0.1946578 -0.8099615 182 158 164
-0.20562626 -0.19584 -0.80983084 183 158 159
-0.20641658 -0.19366498 -0.81115049 177 151 159
-0.20597501 -0.1949378 -0.81044352 180 155 159
-0.20587419 -0.19570115 -0.81053126 180 153 154
-0.20196529 -0.19710223 -0.81139678 73 47 50
-0.20482422 -0.19645976 -0.8126232 179 157 158
-0.20242491 -0.19705333 -0.81137085 90 64 67
-0.20411804 -0.19704877 -0.81055468 152 128 127
-0.20469366 -0.19679704 -0.81130368 174 151 150
-0.2017556 -0.19601879 -0.81285369 46 36 34
-0.20117612 -0.19684577 -0.81167287 36 15 18
-0.20348674 -0.19654177 -0.81241894 126 105 106
-0.20480323 -0.1976441 -0.80905259 184 160 152
-0.20450491 -0.19789718 -0.80918229 182 156 146
-0.20255965 -0.19760363 -0.81035471 104 77 74
-0.20357351 -0.19745551 -0.8098886 137 112 109
-0.20143646 -0.19814885 -0.81078422 78 49 42
0 0 0 1 0 0 0 1 0 0 0 1 0 0 0 0 0 145 1 0 0
