ply
format ascii 1.0
comment PCL generated
element vertex 527
property float x
property float y
property float z
property uchar red
property uchar green
property uchar blue
element camera 1
property float view_px
property float view_py
property float view_pz
property float x_axisx
property float x_axisy
property float x_axisz
property float y_axisx
property float y_axisy
property float y_axisz
property float z_axisx
property float z_axisy
property float z_axisz
property float focal
property float scalex
property float scaley
property float centerx
property float centery
property int viewportx
property int viewporty
property float k1
property float k2
end_header
-0.012616308 -0.37988535 -0.67778021 118 100 114
-0.008415034 -0.38055474 -0.6783753 97 64 79
-0.009457266 -0.38057587 -0.67822868 101 67 88
-0.0094315056 -0.38051865 -0.6782279 100 66 88
-0.023882367 -0.38442275 -0.67675102 135 119 128
-0.014453208 -0.38425565 -0.677764 138 124 137
-0.010819892 -0.38274744 -0.67814374 119 96 113
-0.012407511 -0.38389888 -0.6779896 134 117 131
-0.01002289 -0.38219333 -0.678222 112 86 104
-0.010757276 -0.38333231 -0.67817181 123 103 117
-0.010517575 -0.38387212 -0.67821991 125 109 120
-0.010036846 -0.38225678 -0.67822248 113 87 104
-0.012277185 -0.3812671 -0.67790639 119 97 117
-0.01246611 -0.38100383 -0.67787242 119 98 118
-0.011440458 -0.38186097 -0.67803454 117 92 112
-0.01100939 -0.38139942 -0.67807114 113 85 106
-0.011574494 -0.38158277 -0.67800701 117 92 112
-0.0071548121 -0.38415173 -0.67860687 106 82 89
-0.0075444058 -0.38380596 -0.67857116 108 86 92
-0.0079593007 -0.38307169 -0.6785363 111 89 93
-0.0064797499 -0.38192126 -0.67869252 97 68 70
-0.0080568036 -0.3840121 -0.67851865 113 93 99
-0.0093804011 -0.38403445 -0.67837238 122 106 113
-0.008849252 -0.38381585 -0.67844033 119 102 107
-0.0083285253 -0.382247 -0.67845982 107 82 90
-0.0084803579 -0.38197014 -0.67842865 106 79 89
-0.0075127208 -0.38225022 -0.67857611 104 79 83
-0.006995888 -0.38140598 -0.67862022 97 67 72
-0.021952705 -0.38820139 -0.67709905 135 115 132
-0.022711307 -0.38806036 -0.67703015 132 115 128
-0.022889337 -0.38783935 -0.67701036 130 114 125
-0.021550888 -0.38851181 -0.67714006 139 117 136
-0.02404191 -0.38541141 -0.67679709 133 118 126
-0.025158424 -0.38767374 -0.67678267 133 128 131
-0.020839127 -0.38819289 -0.67720604 138 117 135
-0.018255062 -0.38769296 -0.67748624 135 117 130
-0.019109894 -0.3876529 -0.67738605 135 116 131
-0.017919451 -0.38712755 -0.67750448 133 115 127
-0.019506624 -0.38858423 -0.67737412 140 120 136
-0.019407365 -0.38784286 -0.67735863 136 117 132
-0.021319982 -0.38777259 -0.67714787 134 110 129
-0.016389703 -0.38749233 -0.67768031 142 125 138
-0.016775008 -0.38815492 -0.67764211 140 122 134
-0.017392218 -0.3886365 -0.67760617 140 122 134
-0.014273181 -0.38852748 -0.67768747 128 107 114
-0.014791937 -0.3871479 -0.67773443 137 120 130
-0.015283287 -0.38723707 -0.67771852 139 122 133
-0.015866643 -0.38679603 -0.67771018 142 126 138
-0.015778074 -0.38556281 -0.67767453 136 121 133
-0.015829423 -0.38548884 -0.67766649 135 120 132
-0.016364729 -0.386446 -0.6776455 137 121 132
-0.015520077 -0.38558441 -0.67770219 138 123 135
-0.0099968072 -0.38786089 -0.67813981 110 89 102
-0.010604615 -0.38759899 -0.6780892 115 95 106
-0.012429031 -0.38758299 -0.67789298 125 106 112
-0.010969428 -0.38790771 -0.67803204 115 95 105
-0.011001603 -0.38833642 -0.67800379 112 91 102
-0.011360978 -0.38486263 -0.67814362 134 122 131
-0.013505507 -0.38537264 -0.67785919 141 127 139
-0.012564566 -0.38597831 -0.67794812 134 119 127
-0.011410221 -0.38627031 -0.67807674 127 112 118
-0.011395378 -0.38599965 -0.67809021 128 114 120
-0.00677014 -0.38700223 -0.67851466 107 83 88
-0.006267244 -0.38526171 -0.67866123 98 69 79
-0.0076162657 -0.3870295 -0.67842698 103 78 88
-0.0082860887 -0.38799903 -0.67830563 106 83 92
-0.0060632755 -0.38688385 -0.67859316 109 87 87
-0.0097645968 -0.38827819 -0.67814082 106 84 98
-0.0089774402 -0.38519984 -0.67839611 119 102 110
-0.008670643 -0.38484797 -0.67844677 118 102 109
-0.0090733618 -0.38720411 -0.67827111 107 85 97
-0.0092219347 -0.3868331 -0.67827785 110 90 102
-0.009344493 -0.38667616 -0.67827475 112 94 104
-0.0048142094 -0.38768697 -0.67870981 108 88 82
-0.0052656932 -0.38574415 -0.67875642 99 72 76
-0.0047363127 -0.38626048 -0.67879957 99 74 74
-0.0057600616 -0.38646585 -0.6786502 107 83 84
-0.0041216174 -0.38515353 -0.67894316 87 58 63
-0.025702151 -0.3899633 -0.67677402 133 124 134
-0.027363945 -0.3925091 -0.67667156 148 125 152
-0.027223229 -0.39208117 -0.67668408 147 126 150
-0.025689991 -0.38991892 -0.67677522 133 124 134
-0.023444872 -0.39234361 -0.67692691 137 114 142
-0.022241652 -0.39139882 -0.67705142 140 118 143
-0.023627585 -0.39209384 -0.67691153 136 113 141
-0.021731239 -0.38902909 -0.67712194 140 118 139
-0.022072196 -0.39168105 -0.67706531 140 119 143
-0.022012446 -0.38889438 -0.67709881 139 119 138
-0.024794282 -0.38986456 -0.6768384 132 120 133
-0.023846665 -0.38900465 -0.67693675 135 123 133
-0.023885522 -0.38953373 -0.67692369 135 120 135
-0.02509317 -0.38971493 -0.67681503 132 122 132
-0.018463498 -0.39072213 -0.67743498 141 122 139
-0.018562056 -0.39248618 -0.67734426 140 122 143
-0.018666478 -0.39058703 -0.67742568 141 122 139
-0.020100249 -0.39151624 -0.67727101 142 122 143
-0.019360546 -0.39049256 -0.67737645 141 122 140
-0.020181257 -0.39010084 -0.67728662 141 121 140
-0.021244865 -0.39007926 -0.67716402 141 120 141
-0.019509712 -0.3894209 -0.67737025 141 121 138
-0.018477431 -0.38925087 -0.67749095 141 122 137
-0.020493541 -0.39078167 -0.67724448 142 122 142
-0.020545306 -0.38957962 -0.67724931 141 120 139
-0.015925584 -0.39225543 -0.67754775 140 123 137
-0.01412119 -0.39219892 -0.67769456 143 126 135
-0.016790813 -0.39216977 -0.67747623 139 120 138
-0.014611796 -0.38980567 -0.6776306 129 109 118
-0.014035541 -0.39196962 -0.67769921 142 125 133
-0.014889447 -0.39161438 -0.67762595 138 121 132
-0.016916621 -0.38935027 -0.67758429 138 119 131
-0.015627062 -0.38930663 -0.67761809 132 113 123
-0.015008418 -0.38935205 -0.67763114 130 110 119
-0.015823329 -0.38894024 -0.67763048 133 114 123
-0.015314432 -0.38920325 -0.6776306 131 111 120
-0.017103435 -0.39170715 -0.67746872 138 119 137
-0.011162071 -0.39173666 -0.67796957 137 119 129
-0.011790302 -0.39198041 -0.67791057 139 122 131
-0.011692593 -0.39217862 -0.67791814 142 125 134
-0.01279331 -0.39175698 -0.67782074 137 119 129
-0.010449771 -0.39251757 -0.67802906 146 130 138
-0.013349373 -0.38937595 -0.67773789 127 106 113
-0.011414479 -0.38944009 -0.67794758 116 95 107
-0.011641916 -0.39032835 -0.67793185 122 103 114
-0.011625807 -0.38974643 -0.67792773 119 99 110
-0.012744254 -0.38894573 -0.67779893 121 100 107
-0.0070133647 -0.39162129 -0.67838764 119 97 94
-0.0067707598 -0.39119044 -0.67841434 118 97 93
-0.0065135173 -0.38938284 -0.67844468 125 110 103
-0.0066234428 -0.39165691 -0.67842948 114 90 87
-0.0063305991 -0.39016515 -0.6784631 119 100 93
-0.0090170177 -0.38919792 -0.67819065 113 92 101
-0.0090069752 -0.39086142 -0.67818016 131 114 120
-0.0093966881 -0.39201859 -0.67813247 142 126 132
-0.0096834367 -0.39145955 -0.67810714 135 117 126
-0.0091809053 -0.39017683 -0.67816722 123 104 112
-0.007365718 -0.39003208 -0.67835307 130 114 111
-0.0058360589 -0.39106113 -0.67851496 108 83 77
-0.0057617854 -0.39057565 -0.67852432 110 86 79
-0.0041269888 -0.3887009 -0.67871636 100 66 69
-0.025590466 -0.39331612 -0.67671835 134 110 139
-0.026640052 -0.39387572 -0.67667544 140 115 143
-0.025466681 -0.39463142 -0.67670035 136 116 139
-0.026988268 -0.3962805 -0.67662424 147 128 145
-0.027673943 -0.39511815 -0.67662162 148 123 147
-0.02852612 -0.39563498 -0.67658561 153 128 151
-0.02851031 -0.3956129 -0.67658651 153 128 151
-0.028306955 -0.3936474 -0.67662257 154 131 155
-0.021970514 -0.39356503 -0.67704523 141 121 143
-0.022781879 -0.39482838 -0.6769411 140 121 138
-0.02351211 -0.39464495 -0.67688346 141 124 142
-0.021622144 -0.39524081 -0.67702919 138 115 131
-0.024023581 -0.39612198 -0.67679912 139 121 135
-0.023882596 -0.39271602 -0.67688024 136 113 142
-0.024809863 -0.39299238 -0.67678618 134 110 140
-0.025198927 -0.39341724 -0.6767416 134 111 139
-0.025187077 -0.39276406 -0.67675358 132 107 139
-0.024115471 -0.39500886 -0.67681962 140 123 141
-0.020165756 -0.39626655 -0.6771456 139 119 135
-0.017816111 -0.39531833 -0.67739236 144 132 153
-0.018436711 -0.39492804 -0.67732686 141 126 145
-0.019608876 -0.39627865 -0.67720419 140 123 141
-0.020425852 -0.39645243 -0.67711836 138 118 134
-0.018984294 -0.39280972 -0.67730093 140 121 142
-0.019124482 -0.39322972 -0.67727858 140 120 140
-0.020818358 -0.39566609 -0.67708087 136 113 127
-0.020055644 -0.39367613 -0.67719436 139 119 138
-0.019781452 -0.39342973 -0.67722231 140 119 139
-0.017029978 -0.39646676 -0.6774739 148 140 160
-0.014183875 -0.39437941 -0.67772114 150 135 146
-0.014432895 -0.39355257 -0.67767781 146 132 143
-0.014008237 -0.39400226 -0.6777311 149 134 144
-0.013781094 -0.39607167 -0.67779893 157 142 152
-0.017489258 -0.3955296 -0.67742479 145 135 157
-0.014055286 -0.39293388 -0.67770386 146 130 140
-0.017460182 -0.39618799 -0.67742741 146 138 160
-0.017509572 -0.39439982 -0.67742252 143 130 151
-0.016430562 -0.39474881 -0.6775108 145 134 151
-0.016641267 -0.39435998 -0.67749339 144 132 150
-0.010857484 -0.39491656 -0.67804658 153 138 147
-0.0098805511 -0.3957139 -0.67815959 154 139 148
-0.012021527 -0.39565825 -0.67795485 155 140 150
-0.011949601 -0.39583284 -0.67796612 156 141 150
-0.012833213 -0.39639035 -0.67789632 158 143 153
-0.0098378323 -0.39518556 -0.6781503 153 138 147
-0.010763016 -0.3932282 -0.6780141 148 133 141
-0.013022789 -0.3932043 -0.67780757 148 132 140
-0.012018465 -0.39466757 -0.67793065 153 137 146
-0.012302516 -0.3929821 -0.67786849 147 131 140
-0.013280358 -0.39411271 -0.6778037 151 135 144
-0.011877613 -0.39311814 -0.67791015 148 132 140
-0.0078548063 -0.39504653 -0.67835182 132 112 110
-0.006849559 -0.39393297 -0.678433 117 92 87
-0.0084757945 -0.39624047 -0.67830747 146 130 125
-0.0095895249 -0.39309937 -0.67812318 146 129 137
-0.0069758594 -0.39267766 -0.67839277 113 87 86
-0.0086226901 -0.3943781 -0.67825925 137 118 122
-0.0073568635 -0.39398772 -0.67838514 121 97 97
-0.0096910326 -0.39636761 -0.67819506 154 140 149
-0.0092563229 -0.39549711 -0.67821962 147 131 138
-0.029806631 -0.40017584 -0.67662835 140 122 143
-0.030716039 -0.39862269 -0.67649627 161 138 158
-0.029669601 -0.39824662 -0.67657459 151 129 150
-0.029782251 -0.39884782 -0.6765852 148 128 148
-0.029781271 -0.39932543 -0.67660159 145 126 146
-0.031874783 -0.40000644 -0.6764425 165 143 164
-0.025833072 -0.39942679 -0.67672795 139 121 141
-0.026280923 -0.39908466 -0.6767115 138 121 140
-0.025424032 -0.39727646 -0.67668879 140 124 139
-0.026808145 -0.40005913 -0.67672235 138 119 140
-0.02716494 -0.39847842 -0.67668051 136 121 138
-0.026435321 -0.39936802 -0.6767146 138 121 140
-0.028846385 -0.39817783 -0.67661905 145 125 144
-0.026286608 -0.39656505 -0.67664611 143 127 142
-0.028641205 -0.39713618 -0.67659014 151 129 148
-0.027611904 -0.39695886 -0.67661709 147 128 145
-0.027392063 -0.3975814 -0.67664528 142 125 141
-0.021691103 -0.39696109 -0.67700356 138 113 126
-0.023484178 -0.3991828 -0.67690474 143 121 136
-0.022198714 -0.39886758 -0.67702168 148 125 134
-0.023898162 -0.39965752 -0.67688054 144 123 139
-0.023979131 -0.39951304 -0.67686725 142 121 138
-0.0219732 -0.40019703 -0.67709219 158 137 140
-0.021647502 -0.39650172 -0.67699337 136 111 124
-0.023993731 -0.39733422 -0.6768105 138 119 134
-0.022763764 -0.39679661 -0.67690414 137 115 129
-0.024899321 -0.39828387 -0.67675376 139 121 138
-0.025173524 -0.39675745 -0.67669666 139 124 138
-0.018731151 -0.39935163 -0.6773532 147 130 146
-0.019559616 -0.3989476 -0.67728519 153 137 148
-0.02009503 -0.40022629 -0.67725468 153 133 141
-0.018610587 -0.40016404 -0.67736971 144 125 141
-0.019729476 -0.3993662 -0.6772756 153 136 146
-0.021400912 -0.39845437 -0.67708683 149 126 133
-0.021349547 -0.39957306 -0.67713261 156 135 138
-0.019631907 -0.39717638 -0.6772269 145 130 145
-0.018776968 -0.39701205 -0.67731088 147 135 152
-0.019756379 -0.39796841 -0.6772424 150 135 147
-0.015286515 -0.40002102 -0.67771304 144 124 150
-0.015532818 -0.39937136 -0.67766863 145 126 148
-0.015041326 -0.39994264 -0.6777401 144 125 151
-0.014362885 -0.39834142 -0.67778188 151 134 153
-0.014313479 -0.39713216 -0.67775893 155 139 151
-0.015768463 -0.3980653 -0.67761755 148 132 149
-0.017509108 -0.4001478 -0.67745703 137 119 141
-0.017377526 -0.39968222 -0.67746645 139 122 143
-0.017570795 -0.39831576 -0.67743468 142 129 151
-0.015166075 -0.3966651 -0.6776672 153 141 156
-0.01039035 -0.39775729 -0.67814988 160 145 158
-0.012552475 -0.3994115 -0.67799264 150 131 158
-0.010082142 -0.39745638 -0.67817187 160 146 158
-0.013443825 -0.40031382 -0.67792922 148 128 160
-0.012582284 -0.39806965 -0.67796022 153 136 155
-0.011500927 -0.39652207 -0.67802608 157 142 152
-0.010733148 -0.39707518 -0.67811221 154 139 152
-0.010608288 -0.39717853 -0.67812651 154 139 152
-0.012878627 -0.39718369 -0.67791098 156 140 154
-0.011460915 -0.39720923 -0.67804629 155 139 153
-0.0090337852 -0.39690199 -0.67826098 155 140 140
-0.033585265 -0.40122545 -0.67633784 176 148 172
-0.033495691 -0.40096936 -0.67633659 177 150 173
-0.033449251 -0.40173745 -0.6763618 172 140 166
-0.034730058 -0.40312657 -0.6762861 178 144 170
-0.033859495 -0.40328476 -0.67637753 168 125 157
-0.031948976 -0.40363598 -0.67652988 149 109 140
-0.031590685 -0.40417367 -0.67655796 145 108 138
-0.031638198 -0.40318707 -0.67654693 147 110 140
-0.03002221 -0.40297499 -0.67665243 135 112 136
-0.031886835 -0.40392199 -0.67653626 148 108 140
-0.032908022 -0.40346125 -0.67645371 158 114 147
-0.032010339 -0.40240213 -0.67650145 153 118 147
-0.03300051 -0.40386188 -0.67645711 157 110 144
-0.031249333 -0.40051019 -0.67651349 154 134 155
-0.0319972 -0.40142441 -0.67647457 158 130 155
-0.026325556 -0.4042668 -0.6769802 141 129 144
-0.027827049 -0.40358841 -0.6767891 133 117 137
-0.026593955 -0.40363726 -0.67690575 139 125 142
-0.027606465 -0.40324119 -0.67678171 134 117 138
-0.025590166 -0.40223134 -0.67688584 142 126 144
-0.027429961 -0.40223366 -0.67673194 134 116 137
-0.026969956 -0.40163541 -0.6767363 136 117 139
-0.029143941 -0.40103367 -0.67668819 132 116 136
-0.028568914 -0.40150249 -0.67670339 133 116 136
-0.028511342 -0.40051362 -0.67669666 134 117 138
-0.028723601 -0.40275431 -0.67671025 131 113 135
-0.021894129 -0.40290472 -0.67721611 145 130 144
-0.023838457 -0.40335029 -0.67712176 148 135 146
-0.02316672 -0.40302986 -0.67714834 148 134 145
-0.022123212 -0.40394771 -0.67724103 139 126 146
-0.021820053 -0.40200526 -0.67718762 151 134 143
-0.025284261 -0.40141311 -0.67684978 142 125 144
-0.023648357 -0.40139011 -0.67701125 151 133 143
-0.024425028 -0.40300313 -0.67706174 149 135 145
-0.022575637 -0.40117112 -0.67710096 157 138 142
-0.02463069 -0.40191421 -0.67695475 147 130 144
-0.020204071 -0.40321371 -0.67735326 135 120 144
-0.019516697 -0.40339696 -0.67742682 136 116 140
-0.018148649 -0.40273294 -0.67751998 137 112 136
-0.019948991 -0.40362164 -0.67739815 136 118 142
-0.018351018 -0.40391126 -0.677562 138 109 134
-0.018891172 -0.40151972 -0.67739081 137 120 142
-0.020621428 -0.40186861 -0.67726886 146 129 143
-0.020784628 -0.40240481 -0.67727566 143 127 143
-0.020617928 -0.40336284 -0.67732346 135 122 145
-0.020756399 -0.40043968 -0.6772064 157 136 140
-0.015507204 -0.40267649 -0.6778037 139 111 142
-0.016149251 -0.40067863 -0.67763513 140 119 146
-0.015241701 -0.40172324 -0.67779607 143 118 147
-0.01607113 -0.40166992 -0.67769563 141 116 144
-0.017290734 -0.40253159 -0.67759657 138 111 135
-0.014400866 -0.40108019 -0.67786181 145 122 153
-0.011686685 -0.40287527 -0.67813891 147 127 157
-0.012945668 -0.40109155 -0.67798859 149 128 160
-0.012900718 -0.40104389 -0.67799073 150 129 161
-0.013166555 -0.40103063 -0.67796969 147 126 159
-0.034980223 -0.40450576 -0.67627704 177 143 169
-0.035172243 -0.40536794 -0.67629772 175 143 170
-0.035475418 -0.40530667 -0.67626333 179 150 175
-0.035989158 -0.4069837 -0.67628896 177 152 178
-0.034478717 -0.4065879 -0.6763925 164 131 162
-0.035790116 -0.40736923 -0.67631114 174 150 177
-0.033961128 -0.40553334 -0.67641503 162 121 154
-0.03465588 -0.40804729 -0.67639881 162 139 168
-0.035346601 -0.40743077 -0.67634284 170 145 173
-0.032199733 -0.40768659 -0.67656565 147 123 150
-0.03241685 -0.4076401 -0.67654866 146 122 150
-0.029555362 -0.40617713 -0.67673039 139 122 141
-0.02942027 -0.40558401 -0.67672825 135 119 139
-0.031492796 -0.4078126 -0.67662054 148 126 150
-0.02945213 -0.4066174 -0.67674702 141 125 143
-0.031493388 -0.40511265 -0.67657578 143 112 140
-0.032616951 -0.40744993 -0.6765312 147 120 150
-0.032964323 -0.40443626 -0.67646956 155 107 142
-0.031660616 -0.40573871 -0.67657274 143 114 143
-0.031437296 -0.40534598 -0.67658252 142 113 141
-0.027631953 -0.4065406 -0.67690915 148 136 149
-0.026467964 -0.40672931 -0.6770187 153 140 155
-0.027389213 -0.40702173 -0.6769408 152 138 152
-0.027875395 -0.40678757 -0.67689198 149 136 149
-0.027776884 -0.40742859 -0.67691368 152 138 153
-0.027301645 -0.40484458 -0.67690462 140 127 143
-0.028006451 -0.40627542 -0.67686945 145 132 147
-0.028648732 -0.40463609 -0.67677718 132 117 137
-0.02755554 -0.40431657 -0.67687058 136 122 139
-0.028778449 -0.40473607 -0.67676741 132 117 137
-0.023280265 -0.40713432 -0.6772694 153 136 154
-0.022403335 -0.40721512 -0.67734361 150 132 148
-0.022773786 -0.40590468 -0.67725641 146 131 152
-0.023921747 -0.40682918 -0.67720431 154 138 158
-0.023696618 -0.40679041 -0.67722076 153 137 157
-0.023328982 -0.40547365 -0.67720866 145 132 152
-0.02523434 -0.4055717 -0.67710239 151 139 153
-0.025206175 -0.40585449 -0.6771096 153 140 155
-0.023429176 -0.40611994 -0.67721587 149 135 155
-0.024606926 -0.40519321 -0.67713046 148 136 151
-0.039568078 -0.41009706 -0.67627364 177 160 182
-0.038788911 -0.41067523 -0.67630756 175 159 180
-0.039599925 -0.41140914 -0.67632973 170 153 174
-0.039063524 -0.41036153 -0.67629635 172 156 178
-0.03826436 -0.40982762 -0.6762808 177 162 184
-0.040497538 -0.41189533 -0.67634332 164 146 168
-0.034468953 -0.41051444 -0.67652452 162 139 163
-0.033558443 -0.40868458 -0.67649734 153 127 156
-0.033261862 -0.40938056 -0.67657316 149 123 151
-0.033963721 -0.41205224 -0.67667681 155 131 153
-0.035550158 -0.41156876 -0.67648345 173 154 173
-0.03637604 -0.40959594 -0.67632741 179 163 184
-0.034794416 -0.40866035 -0.67640644 164 142 169
-0.036602095 -0.41066915 -0.67634737 183 168 186
-0.035655763 -0.41024336 -0.67639911 174 156 176
-0.036358681 -0.40937093 -0.67632115 179 163 184
-0.031586979 -0.41098168 -0.67678946 149 128 148
-0.029604714 -0.40925333 -0.67681545 152 137 151
-0.030304849 -0.4103964 -0.67682558 152 135 150
-0.032372333 -0.4114002 -0.67676944 148 124 146
-0.030402144 -0.41172585 -0.67686951 154 138 152
-0.033092741 -0.41073313 -0.67667598 148 122 148
-0.031178961 -0.40934852 -0.67672682 149 129 149
-0.030254951 -0.40871489 -0.6767537 150 133 150
-0.031041501 -0.40826258 -0.67666584 150 130 152
-0.03167187 -0.40910462 -0.67667437 149 128 150
-0.025924385 -0.41049817 -0.67709571 162 149 167
-0.027344503 -0.41141194 -0.67702436 160 147 162
-0.026955087 -0.41192898 -0.67703468 159 148 165
-0.026123865 -0.41122198 -0.67707849 161 149 167
-0.026509089 -0.41012287 -0.67707539 162 148 164
-0.027810751 -0.40877813 -0.676947 157 142 157
-0.028544575 -0.4108257 -0.67695469 158 145 157
-0.028882546 -0.40947303 -0.67687482 154 141 154
-0.02919586 -0.40981132 -0.67685866 154 140 153
-0.028803276 -0.40930817 -0.67687607 154 140 154
-0.024684291 -0.41167757 -0.67715889 159 147 166
-0.02251314 -0.40981597 -0.6773538 154 136 149
-0.024680853 -0.41172799 -0.67715812 159 147 166
-0.024965208 -0.41188177 -0.67713439 159 149 168
-0.023306167 -0.40887609 -0.677306 157 138 153
-0.024956437 -0.41126803 -0.67714417 160 148 167
-0.023509843 -0.40862751 -0.67729259 158 139 154
-0.024414245 -0.41023192 -0.67720038 159 145 162
-0.024413651 -0.40974307 -0.67720628 160 144 162
-0.045842141 -0.41493186 -0.67647362 178 161 182
-0.045463484 -0.41549069 -0.67648828 171 154 172
-0.041515678 -0.41340217 -0.67641497 160 140 160
-0.04223254 -0.41387805 -0.67642802 161 141 161
-0.043369364 -0.41564038 -0.67650837 161 141 157
-0.041737847 -0.4146865 -0.67648625 159 138 155
-0.04185053 -0.41401666 -0.67644429 160 140 159
-0.044368252 -0.41482377 -0.67645073 166 147 168
-0.04488457 -0.41555747 -0.67647934 165 147 165
-0.038896244 -0.41497988 -0.67653304 165 146 163
-0.039479401 -0.41524041 -0.67654437 163 142 159
-0.039098963 -0.41498783 -0.67653149 165 145 162
-0.037163205 -0.41487247 -0.67654401 165 149 172
-0.037752047 -0.41470125 -0.67652643 167 150 170
-0.040847942 -0.41354322 -0.67643428 161 140 159
-0.038898982 -0.41274506 -0.67639256 176 159 175
-0.038689665 -0.41251159 -0.67637932 177 161 178
-0.039373145 -0.41211841 -0.67635417 173 156 175
-0.039432053 -0.41281024 -0.67639494 172 154 171
-0.034100536 -0.41574478 -0.67678046 164 154 167
-0.034670591 -0.41532519 -0.676741 160 146 164
-0.033837844 -0.41486534 -0.67677754 160 146 161
-0.034168921 -0.41361263 -0.67673469 152 130 153
-0.033288285 -0.41398773 -0.67679036 157 140 156
-0.035166223 -0.41393429 -0.67667991 152 130 156
-0.035644457 -0.41257536 -0.67654043 169 151 170
-0.03601107 -0.41412303 -0.67660642 160 141 164
-0.036084641 -0.41345498 -0.67655432 167 148 169
-0.036316678 -0.41494501 -0.6766302 156 137 163
-0.03680101 -0.41470265 -0.67656463 164 146 170
-0.031844988 -0.41597676 -0.6769008 160 149 162
-0.029823041 -0.41344485 -0.67693925 156 143 156
-0.029768713 -0.41410798 -0.67695791 153 139 154
-0.031189311 -0.4156245 -0.67692459 157 145 159
-0.029451368 -0.41308755 -0.67694896 155 142 155
-0.031642091 -0.41497275 -0.67688662 162 153 163
-0.030297622 -0.41302031 -0.67690611 160 149 159
-0.032595888 -0.41410026 -0.67682445 159 146 159
-0.031763744 -0.41225979 -0.67682546 151 131 150
-0.029727038 -0.41246575 -0.67692077 158 147 157
-0.030194372 -0.41263291 -0.67690307 158 145 156
-0.025755417 -0.41412652 -0.67716378 142 126 148
-0.027409548 -0.41461673 -0.6770829 147 130 153
-0.027334383 -0.41438559 -0.67707759 149 133 156
-0.028049363 -0.41511139 -0.67706484 145 128 151
-0.026830411 -0.41408941 -0.67709589 149 133 156
-0.027774837 -0.41501048 -0.67707741 145 127 151
-0.027373897 -0.4127275 -0.67702961 157 144 162
-0.029249139 -0.41234922 -0.6769408 157 144 155
-0.028133236 -0.4134191 -0.67701399 154 140 158
-0.028032193 -0.41313681 -0.67701149 155 141 159
-0.027657116 -0.41357949 -0.67703807 153 139 160
-0.024544217 -0.4129844 -0.67719817 149 136 154
-0.023988092 -0.41230005 -0.6772089 155 144 159
-0.023918269 -0.41223821 -0.67721128 155 144 159
-0.023575842 -0.41250345 -0.67724752 151 140 153
-0.046205536 -0.41857958 -0.67668772 164 154 174
-0.046412181 -0.41871601 -0.67670017 164 154 175
-0.046547629 -0.4191741 -0.67673248 164 156 177
-0.045987651 -0.41784337 -0.6766358 163 151 170
-0.047009766 -0.41988859 -0.67678714 164 159 181
-0.041410975 -0.41790363 -0.67667586 148 129 151
-0.041363545 -0.41782331 -0.67667198 148 129 151
-0.041862976 -0.41887736 -0.67672324 145 131 155
-0.04236386 -0.4190734 -0.67672944 148 136 159
-0.043881882 -0.41879156 -0.67670101 164 154 169
-0.042854391 -0.41729555 -0.67662495 161 144 159
-0.043429706 -0.41715673 -0.67660379 162 145 160
-0.043192223 -0.41735116 -0.6766215 162 145 160
-0.043589741 -0.41783845 -0.67664492 163 149 164
-0.038305853 -0.41789806 -0.67670494 147 130 161
-0.037512697 -0.41966027 -0.67679721 149 132 162
-0.037720557 -0.41937527 -0.67678171 148 131 162
-0.037421796 -0.41901556 -0.67676622 150 133 163
-0.037534177 -0.41609234 -0.67662054 155 137 164
-0.040427044 -0.4161461 -0.67659301 156 133 149
-0.039768789 -0.41645613 -0.67661619 154 132 153
-0.03971291 -0.41753894 -0.67667359 146 128 154
-0.040955082 -0.41701418 -0.676633 150 128 148
-0.035565186 -0.41935858 -0.67689526 153 135 159
-0.035105798 -0.4196285 -0.67695254 151 132 154
-0.034560621 -0.41800708 -0.67687488 159 146 163
-0.0345813 -0.41960764 -0.67699325 151 131 151
-0.034970108 -0.41870961 -0.67689455 156 140 160
-0.033780094 -0.41621405 -0.67681307 166 159 169
-0.037003294 -0.41978565 -0.67681211 151 134 164
-0.036844037 -0.41614282 -0.67664176 156 139 166
-0.035145953 -0.41716215 -0.67678487 161 149 167
-0.03543663 -0.41610634 -0.6767171 161 148 167
-0.030598054 -0.41776624 -0.6771062 144 123 143
-0.032680627 -0.4194712 -0.67712176 148 124 141
-0.03140226 -0.41897616 -0.67716813 144 122 138
-0.029479014 -0.41660148 -0.67707258 143 123 145
-0.029613309 -0.41739565 -0.67714298 141 121 141
-0.030396013 -0.41647488 -0.67700738 148 130 151
-0.030525316 -0.41625202 -0.67698431 150 133 153
-0.032829341 -0.41707316 -0.67693269 161 148 160
-0.032856863 -0.41704065 -0.67692888 161 149 160
-0.030760681 -0.41677567 -0.67701203 149 131 151
-0.031909451 -0.41818228 -0.67706108 149 129 146
-0.04977832 -0.42087856 -0.67689586 153 142 169
-0.048955936 -0.42180002 -0.67694163 152 137 160
-0.049221117 -0.4215703 -0.6769312 152 138 162
-0.049146656 -0.42344028 -0.67704833 142 120 138
-0.049041502 -0.42275169 -0.67700315 146 127 147
-0.050277345 -0.42113793 -0.67691731 150 136 164
-0.050724853 -0.42160311 -0.67695367 145 129 156
-0.049155954 -0.42024931 -0.67684662 159 151 179
-0.050449327 -0.42131692 -0.67693132 148 134 161
-0.046461418 -0.4230057 -0.67700762 148 130 142
-0.046172816 -0.42235771 -0.67695397 152 137 150
-0.045303203 -0.42230588 -0.6769529 152 139 150
-0.045516483 -0.42289349 -0.67700177 149 133 143
-0.044980925 -0.42142221 -0.67687953 158 148 160
-0.048810549 -0.42211846 -0.67695957 151 134 156
-0.048601013 -0.42093468 -0.67688107 157 146 171
-0.04873848 -0.42285082 -0.67700464 147 127 146
-0.048514426 -0.42304966 -0.67701334 146 126 143
-0.048357289 -0.42286322 -0.67699879 147 128 145
-0.044082351 -0.42063406 -0.67682004 154 146 163
-0.044834014 -0.42135191 -0.67687452 157 148 160
-0.044453088 -0.42101786 -0.67684942 156 146 162
-0.043787535 -0.42102048 -0.67685509 149 138 157
-0.044855788 -0.4219366 -0.67692375 154 142 154
-0.038109329 -0.42003322 -0.67681646 145 129 160
-0.037946217 -0.41992411 -0.67680717 146 130 161
-0.033542149 -0.42003009 -0.67711306 148 124 141
-0.033105575 -0.42009529 -0.67714965 147 122 139
0 0 0 1 0 0 0 1 0 0 0 1 0 0 0 0 0 527 1 0 0
