ply
format ascii 1.0
comment PCL generated
element vertex 171
property float x
property float y
property float z
property uchar red
property uchar green
property uchar blue
element camera 1
property float view_px
property float view_py
property float view_pz
property float x_axisx
property float x_axisy
property float x_axisz
property float y_axisx
property float y_axisy
property float y_axisz
property float z_axisx
property float z_axisy
property float z_axisz
property float focal
property float scalex
property float scaley
property float centerx
property float centery
property int viewportx
property int viewporty
property float k1
property float k2
end_header
-0.096964225 -0.31728142 -0.68099469 174 157 156
-0.097130753 -0.31737885 -0.68100458 174 157 156
-0.095926926 -0.31590083 -0.68116349 168 155 148
-0.096716687 -0.31790391 -0.6807518 181 165 163
-0.094513148 -0.31804422 -0.68024355 185 168 167
-0.09475483 -0.31665391 -0.68073869 166 148 147
-0.095390238 -0.31741878 -0.68061072 179 165 159
-0.095678292 -0.31683528 -0.68082941 177 164 157
-0.088508062 -0.31578833 -0.68017095 167 153 165
-0.089081742 -0.31569603 -0.68025923 163 145 159
-0.089879476 -0.31534413 -0.68045813 152 129 144
-0.090588465 -0.31539446 -0.68049949 145 121 136
-0.096251197 -0.3195644 -0.68020403 195 184 181
-0.097183213 -0.31937486 -0.68048781 191 174 173
-0.096812658 -0.31857622 -0.68058807 187 170 168
-0.09655261 -0.31873322 -0.68049073 189 173 170
-0.095204264 -0.31840405 -0.68026489 192 177 172
-0.092807665 -0.31811002 -0.67986792 186 167 172
-0.092544749 -0.3181912 -0.67978615 188 168 174
-0.090563953 -0.3179698 -0.67957675 186 172 179
-0.089081369 -0.31834534 -0.67929113 196 192 197
-0.089518517 -0.31697688 -0.67982697 175 162 171
-0.088073112 -0.31723899 -0.67959243 186 181 188
-0.090351097 -0.3171874 -0.67982811 173 157 167
-0.087242909 -0.31751549 -0.67945987 184 177 182
-0.087424487 -0.31618166 -0.67995775 170 158 168
-0.087709539 -0.31622061 -0.67994899 174 163 173
-0.086349539 -0.31753552 -0.67943484 175 163 167
-0.087152578 -0.31603837 -0.67999482 169 156 165
-0.086079523 -0.31684196 -0.67968011 166 150 156
-0.096554823 -0.32168058 -0.67972749 204 199 205
-0.096682474 -0.32131064 -0.67985749 202 195 199
-0.096972458 -0.32209122 -0.6797294 205 199 207
-0.09455727 -0.31898293 -0.67997652 194 181 181
-0.095430389 -0.32053205 -0.67974919 201 196 198
-0.094703928 -0.32071763 -0.67955238 202 196 202
-0.094410077 -0.31920943 -0.67988634 195 183 184
-0.094567306 -0.31917575 -0.67992723 195 183 183
-0.092803404 -0.3207998 -0.67916405 202 191 198
-0.094857246 -0.32176071 -0.67931634 207 204 213
-0.093084611 -0.32190183 -0.67894572 207 200 205
-0.0921534 -0.3214727 -0.67887509 204 195 199
-0.092585146 -0.31980559 -0.67936772 197 183 191
-0.090292841 -0.32088113 -0.67879289 204 200 202
-0.091365889 -0.32225123 -0.67856753 206 197 201
-0.0901905 -0.32069319 -0.67882878 204 200 203
-0.088209569 -0.32060251 -0.67862999 198 191 200
-0.089730524 -0.32022935 -0.67889428 203 200 203
-0.088652924 -0.31930748 -0.6790061 201 200 204
-0.091334157 -0.3191191 -0.67933846 195 180 187
-0.091747291 -0.32199389 -0.6786738 206 198 200
-0.090906151 -0.3195627 -0.67918366 198 187 192
-0.090035848 -0.3193104 -0.67915338 199 192 196
-0.089682788 -0.31939974 -0.67909384 200 195 199
-0.085987046 -0.32137904 -0.67831916 182 165 176
-0.084967457 -0.32076877 -0.67843604 175 156 164
-0.08507181 -0.32140714 -0.6782552 178 160 170
-0.085805222 -0.32065406 -0.67852074 179 161 169
-0.084117316 -0.32225809 -0.6779474 176 159 169
-0.085473076 -0.31894743 -0.67896402 175 159 162
-0.087285057 -0.32060817 -0.678581 191 180 190
-0.08484447 -0.31873402 -0.67900538 169 150 152
-0.086765185 -0.32102412 -0.6784659 185 169 180
-0.087354198 -0.31851986 -0.67910886 194 192 195
-0.085290372 -0.31836975 -0.679106 174 160 161
-0.096769661 -0.32247704 -0.67959118 206 202 211
-0.098430812 -0.32321966 -0.67988592 199 187 200
-0.097342514 -0.32305849 -0.67963195 202 196 208
-0.097657695 -0.32320803 -0.67968631 201 193 206
-0.097527675 -0.32372269 -0.67955649 200 194 208
-0.097914942 -0.32316762 -0.67976093 200 191 204
-0.097042911 -0.32417309 -0.6793583 200 195 210
-0.095945396 -0.32365876 -0.67918038 205 202 215
-0.098124288 -0.32470566 -0.67952931 196 187 206
-0.096791551 -0.32500952 -0.67916024 198 192 208
-0.097264953 -0.32556483 -0.67918199 195 187 205
-0.093215011 -0.32545328 -0.67838955 193 182 194
-0.094925627 -0.3259283 -0.67861134 196 188 203
-0.093420088 -0.32577279 -0.67837799 192 180 193
-0.093771949 -0.3248865 -0.67856669 199 190 201
-0.092662424 -0.32453948 -0.67842853 197 186 195
-0.094813444 -0.32475665 -0.67877281 201 195 208
-0.09349864 -0.3235918 -0.67871583 204 198 205
-0.095037691 -0.32294202 -0.67911452 207 205 214
-0.093865477 -0.32427216 -0.67867309 202 195 205
-0.094883502 -0.32365635 -0.67896754 205 201 211
-0.090606555 -0.32522953 -0.67804307 188 172 184
-0.089747816 -0.32474771 -0.67800975 190 176 187
-0.0891831 -0.32440192 -0.67799252 191 178 190
-0.089354284 -0.32422346 -0.67804444 191 177 189
-0.090546869 -0.3258546 -0.67793214 188 174 184
-0.088353567 -0.32421443 -0.6779145 194 182 192
-0.09157712 -0.32550713 -0.67811614 188 172 183
-0.09076269 -0.32417905 -0.67821813 193 179 189
-0.091565579 -0.32372981 -0.67837322 198 186 193
-0.091087684 -0.32522681 -0.67810208 188 172 184
-0.089506276 -0.32291606 -0.67826116 196 183 195
-0.090308622 -0.32419926 -0.67816436 191 176 189
-0.086906858 -0.32582277 -0.6774888 190 181 186
-0.086465269 -0.32533631 -0.67754495 188 177 183
-0.084564723 -0.32469606 -0.67745566 177 160 174
-0.085844517 -0.32579216 -0.67736447 184 171 181
-0.084591523 -0.32381704 -0.67765909 178 162 173
-0.084110826 -0.3249785 -0.67733532 174 156 173
-0.085280575 -0.32249838 -0.67797768 182 166 177
-0.087279089 -0.32430372 -0.67780179 192 182 189
-0.087339938 -0.32248196 -0.67810583 192 178 192
-0.087436154 -0.32460591 -0.6777615 193 183 190
-0.086435966 -0.32306528 -0.67795461 188 174 185
-0.097335838 -0.32939041 -0.67873031 179 167 193
-0.097379707 -0.32971463 -0.67870295 177 163 192
-0.093366161 -0.32886997 -0.67800266 179 164 189
-0.092638277 -0.32801875 -0.67797798 182 167 186
-0.092283018 -0.32820857 -0.6778996 183 172 187
-0.091889866 -0.32762021 -0.67790037 185 173 185
-0.09410052 -0.32971659 -0.67802888 177 161 192
-0.095578186 -0.32867619 -0.67839253 180 162 197
-0.094607234 -0.32827094 -0.67827505 179 160 192
-0.093633741 -0.32693839 -0.67826617 185 170 190
-0.094834276 -0.3288736 -0.67824286 176 155 191
-0.088414416 -0.32795858 -0.67734319 188 176 188
-0.088502213 -0.32721654 -0.67747593 192 184 190
-0.088927172 -0.32939053 -0.67720938 182 166 187
-0.089906469 -0.32976851 -0.67732555 182 171 189
-0.090153597 -0.32973927 -0.67737448 183 173 190
-0.08893358 -0.32964119 -0.67717099 180 163 186
-0.089384675 -0.32701838 -0.67763442 192 185 190
-0.090997018 -0.32667905 -0.67788339 187 174 184
-0.089406163 -0.32642061 -0.67770278 191 182 187
-0.091490112 -0.32825923 -0.67777497 186 178 188
-0.091715157 -0.32871947 -0.6777541 185 179 190
-0.091475256 -0.32748362 -0.67785805 186 175 185
-0.085328765 -0.32939392 -0.67660278 172 147 182
-0.086651683 -0.33006155 -0.67669713 174 148 182
-0.084939167 -0.32850775 -0.67672175 172 149 179
-0.08549948 -0.32836339 -0.67685252 173 150 179
-0.085529275 -0.3278628 -0.67696434 174 151 177
-0.086084917 -0.32920352 -0.67677838 173 149 180
-0.085377052 -0.3273772 -0.67703015 175 153 177
-0.087478086 -0.32828581 -0.67714661 182 164 184
-0.086037263 -0.32629552 -0.67728239 184 171 182
-0.085912816 -0.32624358 -0.67727518 183 170 182
-0.085778154 -0.32749116 -0.6770618 176 156 178
-0.083877996 -0.32812256 -0.67661917 171 148 179
-0.083334029 -0.32764545 -0.67664969 172 149 175
-0.083216891 -0.32792559 -0.67657483 172 149 175
-0.083738685 -0.32906559 -0.67640036 171 146 181
-0.096233688 -0.33112338 -0.67831588 174 150 189
-0.096273728 -0.33355722 -0.67819673 177 157 177
-0.095959783 -0.33386672 -0.67810822 175 158 174
-0.098067686 -0.3307552 -0.67878288 179 162 190
-0.097234517 -0.33110216 -0.67855489 178 154 191
-0.096673936 -0.33061442 -0.67845058 175 151 191
-0.093527555 -0.33245221 -0.67774189 183 174 187
-0.092120051 -0.33065322 -0.67762649 186 183 194
-0.094074465 -0.33237559 -0.677863 179 169 182
-0.094127052 -0.33073145 -0.67795914 177 164 190
-0.094401762 -0.33194685 -0.67793953 177 165 184
-0.095022939 -0.33252305 -0.67800987 175 161 180
-0.094196089 -0.33234754 -0.67788512 178 168 182
-0.093877114 -0.33154839 -0.67787552 179 169 186
-0.094445892 -0.33244854 -0.67792022 177 166 181
-0.091685884 -0.33069605 -0.6775353 188 185 197
-0.089817457 -0.33024913 -0.67724389 181 167 189
-0.09168791 -0.33068883 -0.67753637 188 185 197
-0.096043259 -0.33569372 -0.67805994 191 171 186
-0.096105449 -0.33469191 -0.6781128 181 166 178
-0.093885653 -0.3343302 -0.6776526 191 177 193
-0.093979411 -0.33402368 -0.67768365 187 174 190
-0.093704417 -0.33457449 -0.67760569 195 180 196
-0.094990678 -0.33496857 -0.67785782 189 171 187
0 0 0 1 0 0 0 1 0 0 0 1 0 0 0 0 0 171 1 0 0
