ply
format ascii 1.0
comment PCL generated
element vertex 400
property float x
property float y
property float z
property uchar red
property uchar green
property uchar blue
element camera 1
property float view_px
property float view_py
property float view_pz
property float x_axisx
property float x_axisy
property float x_axisz
property float y_axisx
property float y_axisy
property float y_axisz
property float z_axisx
property float z_axisy
property float z_axisz
property float focal
property float scalex
property float scaley
property float centerx
property float centery
property int viewportx
property int viewporty
property float k1
property float k2
end_header
-0.21316314 0.43674964 -0.83870238 158 118 130
-0.21368089 0.43673474 -0.83915937 165 128 138
-0.2140082 0.43602914 -0.83927494 175 145 147
-0.21431789 0.43619472 -0.83959168 178 149 151
-0.21135081 0.43602642 -0.83709365 142 111 116
-0.21236381 0.43602586 -0.837874 153 119 125
-0.21059549 0.43680912 -0.83668631 126 94 101
-0.21048154 0.43720365 -0.83668631 120 87 96
-0.21369882 0.43499938 -0.83883107 170 142 141
-0.21416306 0.43449476 -0.83919924 173 148 144
-0.21300317 0.43343708 -0.83783287 174 147 141
-0.21352094 0.43384582 -0.83847207 170 143 139
-0.21426922 0.43271139 -0.83902961 174 151 142
-0.21317899 0.43401194 -0.83814245 170 142 138
-0.21319985 0.43360928 -0.83807927 172 145 140
-0.21213813 0.43241075 -0.83686227 172 143 139
-0.21245101 0.43173239 -0.83698148 180 154 144
-0.21235077 0.43499538 -0.83761585 159 129 130
-0.21068534 0.43527624 -0.8363983 140 114 114
-0.21200818 0.43393919 -0.83710498 162 132 132
-0.21099928 0.43460187 -0.83648252 147 121 120
-0.21306296 0.4315249 -0.83748239 184 161 147
-0.21425746 0.43079978 -0.83855009 178 155 141
-0.21619903 0.42896682 -0.84009898 165 142 126
-0.21572855 0.43114963 -0.84021932 174 155 142
-0.21502504 0.43154076 -0.83958024 178 158 145
-0.21454105 0.430978 -0.83890343 178 155 142
-0.21392958 0.43044204 -0.83811438 178 155 140
-0.21520464 0.42784235 -0.83890373 171 150 134
-0.21304925 0.42930725 -0.83712471 188 169 155
-0.21357349 0.43023002 -0.83775157 182 159 145
-0.21438442 0.42776954 -0.83813113 178 160 145
-0.21389268 0.42997259 -0.83800882 179 157 142
-0.21436986 0.4287976 -0.83827358 177 156 141
-0.21232192 0.42999968 -0.8365854 183 161 150
-0.21272036 0.43041718 -0.83698863 186 165 151
-0.21771944 0.42490515 -0.84017539 167 147 134
-0.21739878 0.42412513 -0.83961034 170 154 141
-0.21804206 0.42398292 -0.84012347 171 151 140
-0.21307483 0.42638242 -0.83637953 194 178 169
-0.21531512 0.42471498 -0.83786613 180 167 157
-0.21526618 0.42432389 -0.83764589 182 168 160
-0.21504185 0.42402342 -0.8372882 185 171 165
-0.21504328 0.42404279 -0.8372981 185 171 165
-0.21443108 0.42611778 -0.83758694 183 170 156
-0.2142342 0.42699262 -0.83772206 182 166 152
-0.21363658 0.42748871 -0.83734393 186 170 155
-0.21484827 0.42715666 -0.83835065 176 158 143
-0.21400848 0.42684603 -0.83746022 185 170 156
-0.21546936 0.42613944 -0.83856487 174 158 144
-0.21626619 0.42441121 -0.83868891 173 161 147
-0.21576215 0.42682987 -0.83908278 169 150 135
-0.21672404 0.42648202 -0.83985651 162 142 126
-0.21867232 0.42246726 -0.84019727 172 154 143
-0.21843149 0.42167386 -0.83973897 172 158 146
-0.21914196 0.42061293 -0.8400327 172 158 146
-0.21716955 0.42263097 -0.838866 168 154 143
-0.21808055 0.42180881 -0.8394506 170 157 145
-0.21703614 0.42198017 -0.83846945 164 149 139
-0.21821386 0.4210794 -0.83929062 168 153 143
-0.2175744 0.42167339 -0.83888704 167 151 141
-0.21760552 0.4202581 -0.83834767 161 143 136
-0.2165795 0.42007262 -0.83717567 158 137 133
-0.2164854 0.4210459 -0.8374452 164 145 138
-0.21579726 0.42060304 -0.83646369 170 149 144
-0.21480638 0.42333353 -0.83673495 187 170 168
-0.21541512 0.42256805 -0.83699292 179 162 157
-0.2162603 0.42382699 -0.83843189 175 162 152
-0.21593708 0.42335904 -0.83788788 177 162 154
-0.21598044 0.42142904 -0.83703315 171 152 146
-0.2169438 0.41738775 -0.83646184 157 130 127
-0.21717437 0.41880172 -0.83733207 158 135 132
-0.21777299 0.41608587 -0.83683562 164 136 134
-0.22052138 0.41602603 -0.83971429 192 166 165
-0.21802971 0.41748723 -0.83768934 167 142 139
-0.21820465 0.41656905 -0.83749247 168 141 140
-0.21713737 0.41803628 -0.8369748 158 133 130
-0.21809769 0.41610956 -0.83718848 167 139 138
-0.21938947 0.41900927 -0.83967316 174 156 149
-0.21841449 0.41986859 -0.83900613 165 147 139
-0.22044127 0.41683796 -0.8399387 189 165 163
-0.21909241 0.41984284 -0.83967853 169 153 144
-0.21930303 0.41913584 -0.83963239 173 155 148
-0.21662736 0.41881353 -0.83668667 158 134 130
-0.2213904 0.41239092 -0.83859479 194 182 172
-0.22077258 0.41435695 -0.83905005 198 179 173
-0.22113028 0.41216302 -0.83819854 199 189 177
-0.22129565 0.41371194 -0.83923244 191 174 168
-0.22161013 0.41220376 -0.83871806 191 179 169
-0.21951099 0.41229793 -0.83667564 191 179 170
-0.22049727 0.41286209 -0.837946 201 189 178
-0.2197229 0.4123297 -0.8368988 194 182 172
-0.21996649 0.41512439 -0.83865595 188 165 163
-0.2188202 0.41461855 -0.83717948 178 156 152
-0.22017395 0.41474336 -0.83867514 191 170 167
-0.22016881 0.41532263 -0.8389737 190 166 164
-0.21821144 0.41570276 -0.83710539 169 142 140
-0.21859027 0.41488266 -0.83707517 175 152 148
-0.21891698 0.41300538 -0.83643508 183 167 160
-0.21935779 0.41543642 -0.83817667 181 156 154
-0.22092697 0.41088691 -0.8371917 189 171 168
-0.22165716 0.41011024 -0.83760774 178 157 157
-0.2216315 0.40993777 -0.83746111 175 153 155
-0.22129788 0.40991041 -0.83702147 174 150 154
-0.22109562 0.41061237 -0.83723092 184 165 164
-0.22250715 0.40979344 -0.83847183 175 156 154
-0.22141998 0.41196379 -0.83840537 195 184 173
-0.22190523 0.41133973 -0.83863676 189 177 167
-0.22220682 0.41080651 -0.8387174 186 173 164
-0.22044881 0.41179866 -0.83726561 199 187 177
-0.22034648 0.41152582 -0.83697838 194 180 173
-0.22110622 0.43187538 -0.84565902 165 152 148
-0.22108503 0.42795685 -0.84434402 171 150 151
-0.22104597 0.42774382 -0.84423703 171 151 151
-0.22108705 0.43100849 -0.84536999 163 149 147
-0.22189616 0.43032482 -0.8458764 157 138 140
-0.22096092 0.42900571 -0.84458315 169 152 151
-0.22145185 0.429986 -0.84535861 162 144 145
-0.22060846 0.43038386 -0.84469974 173 159 156
-0.22311477 0.42392787 -0.84546953 156 134 129
-0.22202858 0.42467445 -0.84429175 160 137 139
-0.22197053 0.42578688 -0.8445428 161 138 141
-0.22258118 0.42370185 -0.84472668 158 136 134
-0.22263551 0.42188007 -0.84433401 171 148 144
-0.22276394 0.42089006 -0.84425223 177 155 149
-0.22473855 0.41846135 -0.84578049 176 163 149
-0.2235883 0.41912943 -0.84464478 177 160 149
-0.22378686 0.41917181 -0.84486932 180 164 151
-0.2243644 0.41855177 -0.84527665 175 163 148
-0.20449373 0.43258166 -0.83211845 112 76 77
-0.20383327 0.43186054 -0.83158189 108 70 75
-0.20381477 0.43257284 -0.83181012 108 71 74
-0.20534432 0.43148312 -0.83216709 122 86 85
-0.20549987 0.42871487 -0.83101201 130 98 105
-0.2068295 0.42774096 -0.83155173 130 99 108
-0.20536026 0.43012944 -0.83157676 126 91 94
-0.20715974 0.42777407 -0.83181596 129 98 106
-0.20542702 0.42805779 -0.83064604 132 101 111
-0.20372418 0.42860144 -0.8300513 115 82 97
-0.20276475 0.42799315 -0.82942504 104 71 88
-0.20453741 0.42781144 -0.8300488 127 96 108
-0.20416461 0.43139857 -0.83154619 112 75 79
-0.20312929 0.42975411 -0.83029246 106 71 87
-0.20497377 0.42966661 -0.8310973 126 93 98
-0.20288102 0.43039796 -0.8304835 102 65 80
-0.2042426 0.42953995 -0.83070189 119 85 95
-0.20394605 0.43013456 -0.83084738 114 78 88
-0.2094893 0.42494676 -0.8322798 164 138 135
-0.20901215 0.42611951 -0.83234286 153 125 127
-0.20509852 0.42508712 -0.82899362 129 89 111
-0.20525739 0.42453668 -0.82886434 131 91 112
-0.20605879 0.42480168 -0.82957697 146 112 124
-0.20618568 0.42518318 -0.82984883 149 117 126
-0.20582247 0.42395106 -0.82900506 140 101 119
-0.20572063 0.42433044 -0.82910794 139 101 118
-0.20677052 0.42458564 -0.82999843 158 128 134
-0.2051537 0.42734209 -0.83010203 134 103 115
-0.20851251 0.42539212 -0.83167541 168 145 140
-0.20757964 0.42694953 -0.83173126 142 114 118
-0.20817612 0.42553544 -0.83149201 167 143 139
-0.20611162 0.42672774 -0.83051831 149 122 127
-0.20774078 0.42555374 -0.83117318 167 143 141
-0.20828223 0.42728606 -0.83240271 135 104 110
-0.20480345 0.4265722 -0.82957137 128 93 110
-0.20408 0.42624184 -0.82912993 118 81 101
-0.20453988 0.42657956 -0.82947105 125 90 107
-0.2043726 0.42596734 -0.82911509 121 84 104
-0.20351668 0.42680296 -0.82917404 112 77 96
-0.2037566 0.42751113 -0.82960409 116 84 99
-0.21013053 0.42232776 -0.83180314 190 170 161
-0.21052755 0.42172354 -0.83195418 189 169 161
-0.21087764 0.42166007 -0.83227527 182 160 155
-0.20976283 0.4208827 -0.83086383 186 161 159
-0.20951045 0.4207626 -0.83056682 185 158 159
-0.21116292 0.42030576 -0.83201617 187 164 161
-0.20930313 0.42201141 -0.83085996 190 166 161
-0.20943514 0.42038476 -0.83034182 184 155 158
-0.20869875 0.42026499 -0.82962787 178 147 152
-0.20889995 0.42309061 -0.83091003 191 171 162
-0.20818955 0.42053041 -0.82933956 170 139 146
-0.2074386 0.42076954 -0.8288669 158 126 135
-0.20810264 0.42171705 -0.82974714 173 146 147
-0.20718685 0.42309952 -0.82964748 161 130 137
-0.20648028 0.42172822 -0.82856041 145 107 124
-0.20803759 0.42180949 -0.82973766 172 145 146
-0.20695715 0.42252737 -0.82924169 156 122 132
-0.20729811 0.42055142 -0.82867336 155 121 133
-0.20918764 0.41817626 -0.82890469 136 104 116
-0.20928457 0.41938946 -0.82971644 169 137 145
-0.20987479 0.41798279 -0.82950699 135 103 115
-0.21152568 0.41866845 -0.83158702 161 134 138
-0.21137996 0.41827834 -0.83124584 153 125 131
-0.21198897 0.41771156 -0.83156031 142 115 122
-0.21116535 0.41963637 -0.83172101 180 155 155
-0.21007061 0.41898981 -0.83031309 165 134 141
-0.21179768 0.41800597 -0.83152044 148 121 127
-0.2123183 0.41865069 -0.83238083 164 142 142
-0.20876989 0.41849139 -0.82871968 141 109 120
-0.20882513 0.41960961 -0.82940853 171 139 146
-0.21483864 0.41391963 -0.83235902 144 108 122
-0.21527764 0.41235954 -0.83194113 145 104 121
-0.21465528 0.41343325 -0.83191258 135 98 114
-0.21702573 0.40968475 -0.83224672 166 138 139
-0.21479018 0.41166458 -0.83112329 135 102 114
-0.21534662 0.41136232 -0.83148879 143 108 120
-0.21599875 0.41016588 -0.83148021 149 121 124
-0.21512215 0.41151094 -0.83135521 140 106 118
-0.21630156 0.41052571 -0.83195424 155 122 130
-0.21779352 0.4069342 -0.83164513 163 144 136
-0.21811086 0.40703097 -0.83198917 164 142 137
-0.21714942 0.4071992 -0.83105201 162 141 136
-0.20986703 0.43706706 -0.83615959 113 85 89
-0.21000904 0.43626469 -0.83607703 123 96 98
-0.20953779 0.43692547 -0.83583897 110 82 86
-0.21123075 0.43280309 -0.8362298 160 131 129
-0.21063986 0.43373847 -0.8359645 147 119 119
-0.20969306 0.43470833 -0.83540076 130 101 105
-0.21084574 0.43211296 -0.83568347 155 125 127
-0.21000105 0.43170998 -0.83477759 138 106 117
-0.21069166 0.43251982 -0.83566505 151 122 123
-0.20976561 0.43422955 -0.83532953 132 103 107
-0.20994098 0.43407878 -0.835446 136 107 110
-0.20551036 0.43268344 -0.83262116 115 78 81
-0.20780644 0.4318018 -0.83335263 119 84 98
-0.20595297 0.43316233 -0.83296305 109 73 80
-0.20841588 0.43207172 -0.83369881 115 81 99
-0.20654756 0.43268988 -0.83307707 113 77 86
-0.20684873 0.43176857 -0.83292741 121 85 93
-0.20854823 0.43323579 -0.83411199 114 82 96
-0.20889866 0.43312991 -0.83423203 117 85 100
-0.20770717 0.43297267 -0.83366567 108 74 90
-0.21139738 0.42990661 -0.83573818 167 144 140
-0.21028337 0.43107021 -0.83491534 144 115 123
-0.21123813 0.43133521 -0.8358478 163 134 134
-0.2111105 0.4296332 -0.83542311 162 139 138
-0.21094896 0.4313834 -0.83558846 157 128 130
-0.21080297 0.42928475 -0.83506978 157 133 134
-0.2119883 0.42813957 -0.83596545 180 164 153
-0.2094468 0.42931825 -0.83379215 133 104 114
-0.20939288 0.42905191 -0.83368826 133 104 113
-0.20902009 0.4279235 -0.8331117 131 101 109
-0.21009184 0.42987269 -0.83451289 143 116 123
-0.20886704 0.42831066 -0.83308154 128 98 107
-0.20898239 0.42792484 -0.83307678 130 100 108
-0.20733058 0.43123284 -0.83299702 122 87 97
-0.20732144 0.43041408 -0.83279163 124 89 97
-0.20602387 0.43141696 -0.83247608 124 88 90
-0.20823888 0.4294045 -0.83294088 124 91 103
-0.208276 0.43036485 -0.83319324 122 88 102
-0.21337728 0.42547131 -0.8362841 193 177 171
-0.20969848 0.42492077 -0.83247393 160 134 131
-0.20996264 0.4245038 -0.83254439 163 138 133
-0.21015269 0.42433941 -0.83266163 165 140 135
-0.21061899 0.4260093 -0.83390528 149 122 128
-0.2113833 0.42398813 -0.83374953 169 145 144
-0.21101886 0.42417881 -0.83346725 167 143 141
-0.21237797 0.42582509 -0.83550495 176 156 153
-0.21101755 0.42598829 -0.83428067 154 128 133
-0.2114585 0.42636085 -0.83484447 164 141 141
-0.21269768 0.42509744 -0.83552212 176 156 155
-0.21192603 0.42536399 -0.83489597 165 142 144
-0.2097701 0.4272306 -0.83358687 141 113 119
-0.21220736 0.42723688 -0.83589751 182 165 155
-0.21285655 0.42546687 -0.83582371 184 165 161
-0.20897253 0.42712903 -0.83276194 139 109 115
-0.21390581 0.42364424 -0.83601898 186 168 169
-0.2143916 0.42208651 -0.83581567 171 150 150
-0.21481907 0.42041349 -0.83548647 172 150 146
-0.21351123 0.42155838 -0.83479071 177 155 153
-0.21296285 0.42036709 -0.83377671 185 164 158
-0.213687 0.4219377 -0.83511466 174 152 151
-0.21303259 0.42108399 -0.83415002 182 160 157
-0.21354331 0.42155209 -0.83481723 176 154 153
-0.21269624 0.42028934 -0.83349389 186 164 159
-0.2122844 0.42106986 -0.83344233 182 160 159
-0.21214961 0.42112228 -0.83333778 182 160 159
-0.21183395 0.42349675 -0.83399731 172 149 149
-0.21096566 0.42374972 -0.83321929 170 147 143
-0.21180744 0.4225693 -0.83358932 176 153 152
-0.21251123 0.42267296 -0.83434671 176 153 156
-0.21103346 0.42299601 -0.83297849 174 150 146
-0.2132549 0.41695249 -0.83245599 143 120 123
-0.21478149 0.41756147 -0.83436608 168 142 139
-0.2139041 0.4169184 -0.83308887 151 127 129
-0.21447805 0.4169772 -0.83374035 157 131 131
-0.21394628 0.41794148 -0.83365476 167 143 140
-0.21485354 0.41736078 -0.834342 165 139 137
-0.2143653 0.41811684 -0.83419776 172 148 144
-0.2156522 0.41611928 -0.83457571 153 125 126
-0.21605772 0.41902715 -0.83610106 166 142 138
-0.21513389 0.41778034 -0.83484155 172 146 142
-0.21563342 0.41815856 -0.83542317 169 143 139
-0.2132757 0.41978431 -0.83382297 185 163 157
-0.21411619 0.41923392 -0.83440322 179 156 151
-0.21584594 0.41881165 -0.83583599 167 143 139
-0.21216512 0.41966939 -0.83271605 182 161 157
-0.21824197 0.41409448 -0.83629274 174 153 148
-0.21683788 0.41508779 -0.83525771 161 129 130
-0.21725571 0.41263539 -0.83428657 166 132 140
-0.21685687 0.41490522 -0.83517116 161 129 131
-0.21709871 0.41414183 -0.8350001 164 133 135
-0.21794707 0.4136945 -0.83572996 174 151 147
-0.21703157 0.41464952 -0.83522391 163 132 134
-0.21672463 0.41380411 -0.83436018 160 124 131
-0.21640165 0.41412359 -0.83417451 158 121 129
-0.21601236 0.41438404 -0.83391082 155 119 127
-0.2154188 0.41589901 -0.83419859 150 122 124
-0.21643046 0.41574994 -0.83520257 158 127 127
-0.21603046 0.41273254 -0.83291596 155 113 129
-0.21483596 0.41582549 -0.8335222 145 118 122
-0.21556635 0.41374603 -0.83303589 151 114 126
-0.22078244 0.4085601 -0.83529425 146 102 129
-0.21768405 0.40921879 -0.83263624 162 131 134
-0.21734068 0.41021216 -0.83287072 162 128 135
-0.21784562 0.41004655 -0.83325797 158 121 132
-0.21856306 0.40849346 -0.83305764 155 122 131
-0.21821307 0.40960911 -0.8333568 156 118 131
-0.21852913 0.40832722 -0.83293223 156 124 131
-0.22011186 0.40854588 -0.83454102 142 96 123
-0.2190174 0.41111812 -0.83525074 169 140 147
-0.21888672 0.41158238 -0.83546799 175 152 154
-0.21791206 0.41202477 -0.83467638 172 143 148
-0.21942522 0.40997499 -0.83481699 154 114 133
-0.21780895 0.41178986 -0.83436775 167 134 143
-0.21917126 0.41045901 -0.83490515 159 123 138
-0.22051197 0.40972143 -0.83585131 166 134 148
-0.21933822 0.41193554 -0.83627886 187 173 166
-0.21625219 0.41197842 -0.83272219 158 115 132
-0.21920159 0.40797687 -0.83340263 153 117 129
-0.2198614 0.40738866 -0.83378536 152 113 130
-0.21911877 0.40781775 -0.83326089 155 120 131
-0.21851289 0.40815708 -0.83282864 157 126 132
-0.20427817 0.42391935 -0.8280803 122 79 104
-0.20548616 0.42245585 -0.82807899 126 88 108
-0.20698477 0.42019346 -0.82826144 147 113 126
-0.20640135 0.42065343 -0.82798797 136 103 117
-0.2054802 0.42263871 -0.82816195 127 88 109
-0.20772205 0.41926759 -0.82834184 142 110 122
-0.20671201 0.41958508 -0.82768631 128 98 110
-0.20797823 0.4186095 -0.82814258 127 97 109
-0.21662416 0.43177354 -0.8412568 184 167 151
-0.21802263 0.43095854 -0.84235555 184 168 155
-0.21800968 0.43090409 -0.84232992 184 168 155
-0.21989574 0.42857268 -0.84342736 174 156 152
-0.21680276 0.43043315 -0.84110069 176 158 140
-0.2175778 0.42847666 -0.84129274 165 144 130
-0.21831116 0.42970666 -0.84228194 177 159 148
-0.21785517 0.42852405 -0.84155732 167 146 133
-0.21751313 0.430132 -0.84166771 177 158 144
-0.22033691 0.42781129 -0.84362739 171 151 150
-0.21692757 0.42777434 -0.84051728 158 134 117
-0.2188517 0.42951524 -0.84272337 177 159 151
-0.21654773 0.43058848 -0.84088504 176 157 141
-0.21627738 0.42957938 -0.84034866 168 146 131
-0.22074215 0.4276897 -0.8439616 171 152 152
-0.22141832 0.424586 -0.84366477 162 139 142
-0.22098219 0.42415386 -0.84307641 162 138 142
-0.22168766 0.42389867 -0.84372133 160 136 139
-0.21792224 0.42461783 -0.84024853 169 148 135
-0.21833359 0.42593125 -0.84118372 161 137 127
-0.21832348 0.42519203 -0.84087533 164 142 132
-0.21872996 0.42415661 -0.84086031 168 146 139
-0.21921435 0.42454135 -0.84149593 164 141 136
-0.21727674 0.4267213 -0.84045488 161 138 122
-0.21925537 0.42698267 -0.84238201 165 143 137
-0.2204621 0.42464426 -0.84272736 164 139 142
-0.21872945 0.42604068 -0.84160078 161 136 129
-0.21883677 0.42604333 -0.84169924 161 137 130
-0.21770181 0.42752892 -0.84114486 160 137 123
-0.21971478 0.42584363 -0.84243345 164 140 138
-0.22067158 0.4246237 -0.84291124 164 140 143
-0.22150458 0.42361382 -0.84346765 162 138 140
-0.2211626 0.42313376 -0.84302038 166 142 143
-0.22093573 0.42353514 -0.84286588 164 139 142
-0.22119814 0.42046523 -0.84222686 178 158 151
-0.22085941 0.42271525 -0.8425234 168 144 144
-0.22110263 0.42061549 -0.8421554 177 157 150
-0.2214009 0.42025307 -0.84241277 179 159 151
-0.22212146 0.42009798 -0.84326524 181 160 152
-0.22022651 0.4220823 -0.84159929 167 146 144
-0.22000025 0.42004961 -0.84069872 174 158 148
-0.22040644 0.42045972 -0.84127808 175 157 149
-0.21928039 0.42283285 -0.84092385 169 149 142
-0.21861061 0.42358443 -0.84052378 170 150 141
-0.21955428 0.42249864 -0.84107798 169 149 143
-0.21958189 0.42115995 -0.84063506 171 153 145
-0.22009943 0.42331293 -0.84190458 165 143 142
-0.22129324 0.41714934 -0.84106135 189 164 161
-0.2214361 0.4179405 -0.84155709 187 164 159
-0.22266576 0.41984215 -0.8438583 183 162 154
-0.22096986 0.41982606 -0.84172863 180 162 152
-0.22171871 0.41775048 -0.84183484 188 164 160
-0.22205402 0.41813806 -0.84241039 186 163 158
-0.22284307 0.41915339 -0.84380889 178 157 149
-0.22275755 0.41917774 -0.8437103 180 159 151
-0.22187336 0.41764718 -0.84198827 186 162 158
-0.21992138 0.41979241 -0.84051663 175 159 148
-0.22048582 0.41928005 -0.84092504 181 162 153
-0.22123519 0.41573653 -0.84034508 188 163 162
-0.22141781 0.41556334 -0.84045666 185 161 159
0 0 0 1 0 0 0 1 0 0 0 1 0 0 0 0 0 400 1 0 0
