ply
format ascii 1.0
comment PCL generated
element vertex 135
property float x
property float y
property float z
property uchar red
property uchar green
property uchar blue
element camera 1
property float view_px
property float view_py
property float view_pz
property float x_axisx
property float x_axisy
property float x_axisz
property float y_axisx
property float y_axisy
property float y_axisz
property float z_axisx
property float z_axisy
property float z_axisz
property float focal
property float scalex
property float scaley
property float centerx
property float centery
property int viewportx
property int viewporty
property float k1
property float k2
end_header
-0.20137224 -0.23877317 -0.80829126 159 129 145
-0.20121822 -0.23871671 -0.80789143 162 131 147
-0.20096245 -0.23963338 -0.80748284 172 142 157
-0.2009725 -0.23943582 -0.80743802 169 140 155
-0.2003545 -0.23995407 -0.80577624 168 143 156
-0.20061664 -0.23958035 -0.80642271 166 139 153
-0.20007029 -0.23928261 -0.80515587 161 137 150
-0.20134647 -0.24065389 -0.80875313 177 148 162
-0.20152147 -0.24408802 -0.80880433 158 131 150
-0.20113833 -0.24361038 -0.80817354 180 152 171
-0.2002092 -0.24303558 -0.80662209 172 149 156
-0.20065171 -0.24256852 -0.80738521 176 151 162
-0.2004265 -0.24255605 -0.80700505 174 150 159
-0.20069778 -0.24328721 -0.80743957 176 151 164
-0.20038387 -0.24028987 -0.80600393 172 147 159
-0.19943666 -0.24357548 -0.80510277 163 145 146
-0.20039827 -0.2412205 -0.80659884 173 148 158
-0.20056102 -0.24138665 -0.80718678 176 150 159
-0.19983858 -0.24250577 -0.80567747 167 147 151
-0.20085518 -0.2452458 -0.80862415 131 107 123
-0.19995643 -0.24449395 -0.80645055 155 135 141
-0.20031655 -0.24526745 -0.80769873 129 108 118
-0.19999012 -0.24532375 -0.8071937 124 105 111
-0.20010813 -0.24650384 -0.80836892 80 62 69
-0.19954389 -0.24492921 -0.80611324 134 118 119
-0.19986676 -0.24657144 -0.80801696 75 59 63
-0.19920427 -0.24694695 -0.8063857 85 71 69
-0.19937553 -0.24716818 -0.80716348 66 53 52
-0.19937183 -0.24699277 -0.80704141 72 58 57
-0.19907916 -0.24620175 -0.80545777 116 101 98
-0.19953705 -0.24655694 -0.80739152 74 60 60
-0.19801229 -0.24377219 -0.79857296 149 129 141
-0.19841611 -0.24361649 -0.80069053 134 107 110
-0.19793566 -0.24379542 -0.79816669 152 133 148
-0.19784345 -0.24301004 -0.79754072 147 130 142
-0.19730312 -0.24688435 -0.79860979 149 138 134
-0.19729559 -0.2463744 -0.79821008 151 141 139
-0.19769172 -0.24643739 -0.798994 149 133 138
-0.19782396 -0.24663116 -0.79938155 147 129 136
-0.19795078 -0.24514683 -0.79881549 149 129 140
-0.19807196 -0.24665944 -0.79997593 144 122 132
-0.19817029 -0.24711879 -0.80066735 141 116 124
-0.19797184 -0.24519375 -0.7989468 148 128 139
-0.1981729 -0.24612385 -0.80035752 140 116 122
-0.19686863 -0.24642788 -0.79760712 146 136 135
-0.19717151 -0.24566215 -0.79747641 153 145 145
-0.19764517 -0.2499073 -0.80062521 152 132 118
-0.19777843 -0.24946681 -0.80075508 149 127 119
-0.19748926 -0.24872804 -0.80001849 147 130 121
-0.19742602 -0.25046048 -0.80037725 157 140 119
-0.2015857 -0.23544808 -0.81422323 132 114 137
-0.20144507 -0.23570025 -0.81457567 136 117 143
-0.20182995 -0.23663814 -0.81377298 129 112 132
-0.20172572 -0.23816261 -0.81323785 151 140 148
-0.2013485 -0.2384804 -0.81386495 166 154 165
-0.2015893 -0.23850219 -0.81335384 159 149 156
-0.20211795 -0.23759994 -0.81290996 144 132 142
-0.20127842 -0.24261418 -0.81494367 111 96 117
-0.2021267 -0.2435168 -0.81376392 106 91 105
-0.20216361 -0.24201643 -0.81292683 163 152 157
-0.20213276 -0.24312139 -0.81355107 121 107 119
-0.20223825 -0.24383254 -0.81368786 98 83 96
-0.2022412 -0.24399334 -0.81376296 92 77 90
-0.20157132 -0.2442504 -0.81541651 60 42 69
-0.20264152 -0.24457809 -0.81352788 89 77 84
-0.20189992 -0.24566746 -0.81648457 35 23 46
-0.20184167 -0.24481827 -0.81557804 52 37 60
-0.20136698 -0.24494591 -0.81677657 30 14 46
-0.20264378 -0.24431828 -0.81320637 96 82 89
-0.20188189 -0.24446495 -0.81505919 62 46 68
-0.20272855 -0.2449851 -0.8135969 87 76 81
-0.19535163 -0.24127053 -0.79300737 159 133 140
-0.19512561 -0.24220142 -0.79287785 159 134 136
-0.19979215 -0.23967645 -0.80424017 158 133 148
-0.1998859 -0.23991396 -0.80448997 161 137 151
-0.19883074 -0.24406999 -0.80285507 143 120 118
-0.1996963 -0.24210179 -0.80497766 164 144 150
-0.1989239 -0.24354888 -0.80281264 144 120 119
-0.19970745 -0.24183346 -0.80479217 163 142 148
-0.19922206 -0.24316205 -0.80379879 153 131 132
-0.19861178 -0.24389121 -0.80172545 134 108 105
-0.19848415 -0.24746016 -0.8026821 131 109 112
-0.19859806 -0.24695095 -0.80293381 137 116 119
-0.19866535 -0.24657694 -0.80298162 144 122 126
-0.19900484 -0.24597584 -0.80499357 128 113 110
-0.19888841 -0.24642146 -0.8046332 125 108 106
-0.19845766 -0.24625397 -0.80181468 140 115 118
-0.19849733 -0.24453686 -0.8015396 133 107 104
-0.19829708 -0.24714132 -0.80133432 138 113 118
-0.19890855 -0.24488924 -0.8034597 151 130 130
-0.19842075 -0.24517195 -0.80136627 133 107 106
-0.19812699 -0.24887386 -0.80149972 140 116 115
-0.19820784 -0.24827211 -0.80145043 137 112 117
-0.19773959 -0.24353109 -0.79724032 151 135 149
-0.19733807 -0.24237341 -0.79637545 157 137 146
-0.1971198 -0.24251355 -0.79610628 160 141 148
-0.19687934 -0.24207051 -0.79569805 156 134 139
-0.19711137 -0.2437039 -0.79632688 169 156 162
-0.19710954 -0.24364078 -0.79631209 168 155 161
-0.19673757 -0.24259536 -0.79561049 160 140 144
-0.19569045 -0.24232034 -0.7940973 159 135 135
-0.19539607 -0.2420285 -0.79354656 162 138 141
-0.19623899 -0.24549374 -0.7961427 155 142 142
-0.19667985 -0.24450052 -0.79607314 167 155 158
-0.19648927 -0.24509734 -0.79621446 160 148 149
-0.19662189 -0.24487977 -0.79624748 163 151 153
-0.19613409 -0.24637476 -0.79658759 145 133 131
-0.20183998 -0.23948541 -0.81262058 193 182 189
-0.20158906 -0.23963599 -0.81004453 172 148 160
-0.20145625 -0.24009587 -0.80930996 178 150 163
-0.20162755 -0.23934421 -0.80999506 164 139 152
-0.20162593 -0.24007292 -0.81118244 195 178 186
-0.20235369 -0.24286617 -0.81277955 140 128 133
-0.20206252 -0.2415719 -0.81284797 177 167 172
-0.20211202 -0.24253207 -0.81218356 157 144 151
-0.2017094 -0.24248645 -0.81073976 177 159 171
-0.20184991 -0.24196447 -0.81171805 180 165 174
-0.20202003 -0.24293239 -0.81149131 155 138 148
-0.20146064 -0.24033502 -0.8095234 183 157 169
-0.20155832 -0.24079257 -0.81033033 187 166 177
-0.2014755 -0.24132876 -0.80905497 172 144 158
-0.20155758 -0.24070379 -0.81037891 188 167 178
-0.20171258 -0.24130698 -0.81173819 197 184 192
-0.20125932 -0.24690963 -0.81092423 92 80 88
-0.20134857 -0.24716456 -0.81130362 87 77 84
-0.20162383 -0.2444135 -0.80922598 146 121 139
-0.20176759 -0.24422427 -0.80956274 143 119 136
-0.2020272 -0.24459851 -0.81082469 125 105 117
-0.20244171 -0.24491312 -0.81260902 100 86 93
-0.20191552 -0.24717763 -0.81251591 85 76 82
-0.20169625 -0.24527627 -0.81015748 128 108 122
-0.20112549 -0.24660572 -0.81041229 96 82 92
-0.20105615 -0.24641296 -0.8101005 99 83 93
-0.20070462 -0.24712534 -0.810067 70 57 64
-0.20093751 -0.24677712 -0.81020254 86 72 81
0 0 0 1 0 0 0 1 0 0 0 1 0 0 0 0 0 135 1 0 0
