ply
format ascii 1.0
comment PCL generated
element vertex 101
property float x
property float y
property float z
property uchar red
property uchar green
property uchar blue
element camera 1
property float view_px
property float view_py
property float view_pz
property float x_axisx
property float x_axisy
property float x_axisz
property float y_axisx
property float y_axisy
property float y_axisz
property float z_axisx
property float z_axisy
property float z_axisz
property float focal
property float scalex
property float scaley
property float centerx
property float centery
property int viewportx
property int viewporty
property float k1
property float k2
end_header
-0.23932935 0.55283159 -0.88633084 128 82 89
-0.23818538 0.55390495 -0.88666248 113 73 79
-0.23676665 0.5530014 -0.88513207 87 45 54
-0.23868753 0.55402911 -0.88700598 122 81 86
-0.23640651 0.55350882 -0.88548946 84 43 52
-0.23842598 0.55370438 -0.88656384 116 75 81
-0.23626128 0.55449003 -0.88660204 88 48 57
-0.23552719 0.55325037 -0.88703221 77 34 44
-0.24055582 0.55038178 -0.8870225 148 113 106
-0.24032077 0.5488863 -0.88692814 147 121 104
-0.23793331 0.55029202 -0.88561326 113 77 77
-0.23681839 0.55071998 -0.88500917 98 57 66
-0.23799305 0.54982978 -0.88566309 117 81 81
-0.23912823 0.54933184 -0.88628072 132 101 92
-0.23723018 0.55022627 -0.88524562 106 67 73
-0.23679247 0.54909933 -0.88505983 110 68 80
-0.23812452 0.55146545 -0.88567346 109 72 72
-0.23892459 0.5513258 -0.88610798 122 84 83
-0.24007043 0.54993939 -0.88676369 143 111 100
-0.23931283 0.5497492 -0.88636136 130 101 89
-0.23791638 0.551494 -0.88556069 106 68 69
-0.23931509 0.55081975 -0.88633239 129 94 89
-0.23526128 0.55142546 -0.88707703 82 41 53
-0.23558401 0.55050415 -0.8863917 91 48 62
-0.23527217 0.54942632 -0.88699144 97 59 73
-0.23533227 0.55196404 -0.88694978 79 35 47
-0.23554248 0.55271077 -0.88647515 74 31 42
-0.23615579 0.55114007 -0.88512957 89 46 59
-0.23598629 0.55131888 -0.88551158 87 43 56
-0.23598923 0.55039555 -0.8855415 94 50 64
-0.24072972 0.54749376 -0.88657904 152 121 111
-0.23650625 0.54833287 -0.88456929 111 69 83
-0.23654328 0.54752469 -0.8837775 110 74 82
-0.23818029 0.54552013 -0.88380486 137 112 111
-0.24011423 0.54811376 -0.88648182 148 120 108
-0.23771533 0.54802567 -0.88517684 124 84 94
-0.23877214 0.54779315 -0.88562328 136 100 103
-0.23950446 0.54826409 -0.88623184 141 110 103
-0.2396145 0.54848731 -0.88639545 142 112 102
-0.23978767 0.54839575 -0.88644332 144 114 104
-0.23807457 0.54754972 -0.88514072 130 90 101
-0.23628175 0.54757166 -0.88360453 106 70 77
-0.2360395 0.54818499 -0.88473922 105 67 78
-0.23540016 0.54831141 -0.88605249 102 65 77
-0.23545384 0.54793417 -0.88540256 102 65 75
-0.23563521 0.54814208 -0.88547188 103 67 77
-0.24010843 0.54220027 -0.88441724 140 108 108
-0.23935556 0.54245269 -0.88404977 137 100 104
-0.23851861 0.54277438 -0.88346791 131 98 98
-0.24102648 0.56096363 -0.88753629 152 79 107
-0.24145494 0.56117249 -0.88778788 151 82 107
-0.24149257 0.56074214 -0.88779736 155 83 110
-0.24068782 0.56057453 -0.88733107 155 77 108
-0.24150416 0.562518 -0.88765407 139 84 98
-0.24095227 0.56143856 -0.88744557 148 78 104
-0.24184117 0.56309128 -0.88780189 135 87 96
-0.2406251 0.55871171 -0.88769531 137 93 103
-0.24259785 0.55934399 -0.88868695 146 104 110
-0.24203819 0.55902541 -0.88843542 142 102 108
-0.24287356 0.56044477 -0.88860887 158 97 115
-0.24286696 0.56040758 -0.8886131 158 97 115
-0.24126399 0.55780673 -0.88825393 128 105 102
-0.24152641 0.55675626 -0.8882674 124 110 97
-0.24267215 0.55723703 -0.88861507 134 112 100
-0.24269474 0.55860287 -0.88874799 141 108 107
-0.24381855 0.55997205 -0.88917238 156 107 115
-0.24236795 0.5583607 -0.88863909 138 108 106
-0.24005334 0.55752397 -0.88787323 121 95 95
-0.24003196 0.5586881 -0.88763422 132 85 98
-0.24003223 0.55952018 -0.88745016 140 78 101
-0.24460697 0.55286598 -0.88802642 137 112 114
-0.24041565 0.55372775 -0.88724339 139 101 104
-0.24333455 0.55345547 -0.88816285 130 108 108
-0.2428031 0.5535782 -0.88801509 131 107 107
-0.24080023 0.55352378 -0.8873294 139 101 105
-0.24160787 0.55466813 -0.88788515 126 106 103
-0.24086407 0.55568606 -0.88788885 120 106 99
-0.24262062 0.5562259 -0.88847232 130 113 98
-0.2430618 0.5550133 -0.88837355 130 111 103
-0.24275628 0.55458307 -0.88821632 127 109 104
-0.2408893 0.55657232 -0.88807607 119 108 96
-0.2428638 0.5553208 -0.88837582 129 111 102
-0.23663139 0.55561066 -0.88829917 91 48 58
-0.23976511 0.55371493 -0.88720042 135 94 98
-0.23720217 0.55535859 -0.88828439 98 55 65
-0.23868765 0.55448699 -0.88781732 119 76 83
-0.23793501 0.55570495 -0.88895679 101 59 68
-0.23926675 0.55556363 -0.88817966 115 85 86
-0.23977686 0.55586755 -0.88797301 117 96 92
-0.23982187 0.55416828 -0.88751626 132 94 96
-0.24019267 0.55530465 -0.88759857 125 103 98
-0.24540105 0.55254686 -0.88753748 143 118 116
-0.24208671 0.55020642 -0.88758552 148 123 113
-0.24116871 0.54924083 -0.88728255 151 126 111
-0.24200813 0.55004001 -0.8875618 150 125 115
-0.24135801 0.549743 -0.88733959 147 120 108
-0.24258856 0.55146098 -0.88774133 140 113 110
-0.24077462 0.55230623 -0.8871271 147 102 108
-0.24077928 0.55114424 -0.88713622 148 110 108
-0.24172916 0.55089313 -0.88745666 144 114 109
-0.24141861 0.54802775 -0.88718337 157 127 114
0 0 0 1 0 0 0 1 0 0 0 1 0 0 0 0 0 101 1 0 0
