ply
format ascii 1.0
comment PCL generated
element vertex 270
property float x
property float y
property float z
property uchar red
property uchar green
property uchar blue
element camera 1
property float view_px
property float view_py
property float view_pz
property float x_axisx
property float x_axisy
property float x_axisz
property float y_axisx
property float y_axisy
property float y_axisz
property float z_axisx
property float z_axisy
property float z_axisz
property float focal
property float scalex
property float scaley
property float centerx
property float centery
property int viewportx
property int viewporty
property float k1
property float k2
end_header
-0.33768892 -0.15058671 -0.8447535 19 16 14
-0.33433166 -0.15559021 -0.84463209 102 84 76
-0.33505154 -0.15667072 -0.84576935 85 71 65
-0.33535272 -0.15812589 -0.8467176 83 72 66
-0.33573183 -0.15610918 -0.84598643 79 65 59
-0.33759817 -0.15712702 -0.84797972 44 37 34
-0.33614415 -0.15711415 -0.84688848 59 50 46
-0.33654255 -0.15723234 -0.84725529 53 45 42
-0.33531621 -0.15533602 -0.84450692 78 64 57
-0.33783659 -0.15567479 -0.84534848 15 13 11
-0.33755273 -0.15568069 -0.84535295 23 19 18
-0.33683005 -0.15572751 -0.84543586 45 37 34
-0.33469737 -0.15542661 -0.84469169 97 80 72
-0.33758083 -0.15585954 -0.84575665 27 23 21
-0.33641574 -0.15928015 -0.84768599 46 38 37
-0.33525065 -0.15858214 -0.84666622 86 73 68
-0.33580631 -0.15842544 -0.84715068 68 58 55
-0.33604315 -0.16093108 -0.84736699 53 41 42
-0.33571541 -0.15830061 -0.84707087 72 61 57
-0.33651087 -0.16207543 -0.8478241 34 22 27
-0.33574489 -0.16114967 -0.84716678 62 47 48
-0.33506292 -0.1612749 -0.84669393 83 63 63
-0.3369917 -0.16237228 -0.84798992 21 13 17
-0.33717114 -0.16334647 -0.84747499 21 15 15
-0.33668283 -0.16426986 -0.84658426 35 25 25
-0.33785078 -0.16341119 -0.84790456 1 0 0
-0.33533075 -0.16258143 -0.84666568 74 54 55
-0.33711815 -0.16442367 -0.84679198 22 16 16
-0.33559677 -0.16508847 -0.84619898 46 35 35
-0.33580637 -0.16568503 -0.84622729 34 27 26
-0.33640796 -0.16464497 -0.84623975 41 30 30
-0.33488023 -0.16568382 -0.84616804 47 38 37
-0.33420065 -0.16281796 -0.84605265 100 73 74
-0.33290789 -0.16501333 -0.84532785 84 67 69
-0.3323499 -0.16562213 -0.84494603 82 68 70
-0.33302233 -0.16555434 -0.84542292 74 61 62
-0.333547 -0.16397376 -0.84575671 91 70 71
-0.33342287 -0.16303121 -0.84564471 107 80 82
-0.3314141 -0.16430119 -0.84423369 118 99 102
-0.3321633 -0.16443734 -0.84478134 103 83 86
-0.33170742 -0.16523413 -0.84447831 97 80 84
-0.33573195 -0.16899137 -0.84485054 58 48 44
-0.33529627 -0.16939682 -0.84474528 73 60 55
-0.33779052 -0.16633707 -0.84604388 2 2 1
-0.33650136 -0.16815419 -0.84511912 36 29 27
-0.33708498 -0.16798216 -0.84462035 21 17 15
-0.33708736 -0.1671918 -0.84573179 20 17 15
-0.3358143 -0.16851819 -0.84547859 54 44 40
-0.33419782 -0.16937937 -0.84587866 92 76 70
-0.33557349 -0.16684265 -0.84615827 42 35 33
-0.33610311 -0.16761345 -0.84613395 44 36 33
-0.33645719 -0.16656098 -0.84623611 26 22 20
-0.33499494 -0.16626309 -0.84616506 43 36 34
-0.33389422 -0.16621503 -0.8460409 58 49 47
-0.33369988 -0.1670725 -0.84583974 71 60 57
-0.33343247 -0.16943385 -0.84547359 104 87 81
-0.33324194 -0.16629633 -0.84557128 68 57 57
-0.33270484 -0.16777132 -0.84508634 94 81 78
-0.33171552 -0.16672604 -0.84445494 94 80 82
-0.33150735 -0.16619208 -0.84434396 90 76 80
-0.33396336 -0.17264095 -0.84452701 32 26 23
-0.33334929 -0.17098461 -0.84487712 84 70 65
-0.33326003 -0.1707413 -0.84492922 91 77 72
-0.33387044 -0.1720182 -0.84475547 49 41 37
-0.33368248 -0.18153833 -0.84414452 10 9 9
-0.33826891 -0.18310586 -0.84800404 0 0 0
-0.33803329 -0.18391562 -0.8477146 0 0 0
-0.3365826 -0.18464844 -0.84665889 10 8 7
-0.33457646 -0.18273525 -0.8450442 13 11 10
-0.33467838 -0.18529457 -0.84686792 75 62 56
-0.33697358 -0.1854317 -0.84726393 20 16 15
-0.33434835 -0.18530616 -0.84683311 84 69 62
-0.33492446 -0.18267694 -0.84504825 3 2 2
-0.33544296 -0.18303542 -0.84541905 0 0 0
-0.33767635 -0.18290605 -0.84744489 0 0 0
-0.33641663 -0.18383707 -0.84624577 0 0 0
-0.33695516 -0.18196899 -0.8468551 0 0 0
-0.33720756 -0.18366271 -0.84697163 0 0 0
-0.33654726 -0.18353796 -0.84638345 0 0 0
-0.33762527 -0.18392858 -0.8473314 0 0 0
-0.33337143 -0.18183725 -0.84414542 22 20 20
-0.33836606 -0.18671638 -0.84799904 0 0 0
-0.33817607 -0.18919738 -0.84793401 0 0 0
-0.33609536 -0.18910028 -0.84711063 61 51 49
-0.33594999 -0.1887559 -0.84711564 63 52 50
-0.33698997 -0.18912829 -0.847408 29 24 23
-0.33603445 -0.18870129 -0.84715265 59 49 47
-0.33420256 -0.1865069 -0.84687907 102 84 77
-0.33533505 -0.18842737 -0.84695977 81 68 64
-0.33720824 -0.18759906 -0.84747905 17 14 12
-0.33657897 -0.18633035 -0.84733337 33 27 24
-0.33589339 -0.18652794 -0.84725398 51 41 37
-0.33594084 -0.18605892 -0.84723663 49 40 36
-0.33500618 -0.18568902 -0.84709632 73 60 54
-0.33827212 -0.19208163 -0.84799862 0 0 0
-0.33657303 -0.1931901 -0.84713453 39 32 32
-0.33588967 -0.19257753 -0.84691298 63 53 51
-0.33573321 -0.19319022 -0.84683681 63 52 51
-0.33735856 -0.19222662 -0.84743524 19 16 15
-0.33675709 -0.18990292 -0.84727103 41 34 33
-0.33754703 -0.19014958 -0.84753335 12 10 10
-0.33735609 -0.19000366 -0.84747142 19 16 15
-0.3376449 -0.19062054 -0.84755856 8 7 7
-0.33727321 -0.19237716 -0.84740394 22 18 18
-0.34328029 -0.20037673 -0.85731727 3 2 2
-0.34294197 -0.20111701 -0.85609353 0 0 0
-0.34353578 -0.19951946 -0.85843688 6 4 4
-0.3431128 -0.20054814 -0.8568393 2 1 1
-0.34358028 -0.20056567 -0.85784823 2 1 2
-0.34357229 -0.19842333 -0.85923499 10 6 7
-0.34332997 -0.19774406 -0.85879523 10 6 7
-0.34313112 -0.19802552 -0.85729766 5 3 3
-0.34294656 -0.19999467 -0.85632426 1 1 1
-0.34325618 -0.19779566 -0.8582266 8 5 6
-0.34300268 -0.19966827 -0.85668671 2 1 2
-0.34294358 -0.20039417 -0.85639828 1 1 1
-0.34733203 -0.18979576 -0.86357439 0 0 0
-0.34668195 -0.19081315 -0.86289847 0 0 0
-0.34691921 -0.19120003 -0.86312592 0 0 0
-0.34608179 -0.18947706 -0.86233217 0 0 0
-0.34604299 -0.1903962 -0.86227006 0 0 0
-0.34717095 -0.19301207 -0.86333179 0 0 0
-0.34683579 -0.19324499 -0.86299062 0 0 0
-0.3459416 -0.19313751 -0.86209917 0 0 0
-0.34517047 -0.19040446 -0.86143011 0 0 0
-0.3442215 -0.19216713 -0.86049485 0 0 0
-0.34506971 -0.19310139 -0.86126721 0 0 0
-0.34434444 -0.19332008 -0.86058104 0 0 0
-0.34495008 -0.19324362 -0.86115134 0 0 0
-0.3448455 -0.19047762 -0.8611421 0 0 0
-0.34334436 -0.19132523 -0.85978198 0 0 0
-0.34408215 -0.1908723 -0.86045283 0 0 0
-0.3433947 -0.19029899 -0.85989195 0 0 0
-0.34375739 -0.18976878 -0.86024165 0 0 0
-0.34672162 -0.19488329 -0.86293405 0 0 0
-0.3468844 -0.19401762 -0.86306256 0 0 0
-0.34709528 -0.19557354 -0.86333513 0 0 0
-0.34721041 -0.19519177 -0.86343515 0 0 0
-0.34611166 -0.19462909 -0.86231405 0 0 0
-0.34669423 -0.19573729 -0.86294055 0 0 0
-0.34605438 -0.19583057 -0.86230439 0 0 0
-0.34500384 -0.19513564 -0.86122346 4 2 3
-0.34486264 -0.19584934 -0.86111003 5 3 3
-0.34561974 -0.19526595 -0.86184704 0 0 0
-0.34458512 -0.19642894 -0.86085445 7 4 5
-0.34506768 -0.1952111 -0.86129057 3 2 2
-0.34468377 -0.19471036 -0.86090136 4 3 3
-0.34399056 -0.19560148 -0.8602528 8 5 5
-0.34449682 -0.19423236 -0.86072493 3 2 2
-0.34427002 -0.19414192 -0.8605119 2 1 2
-0.34733865 -0.20008752 -0.86357635 0 0 0
-0.34661552 -0.19888164 -0.86288279 0 0 0
-0.34646127 -0.1982864 -0.8627432 0 0 0
-0.34735715 -0.19756129 -0.86365694 0 0 0
-0.34656128 -0.19966097 -0.86265904 0 0 0
-0.34581077 -0.19994906 -0.86129862 0 0 0
-0.34602994 -0.19861409 -0.86211222 0 0 0
-0.34580645 -0.19834736 -0.86182439 0 0 0
-0.34705767 -0.20080481 -0.86311466 0 0 0
-0.34553781 -0.19880079 -0.86135232 0 0 0
-0.34568128 -0.19834127 -0.86163282 0 0 0
-0.34468719 -0.19986878 -0.86020535 2 1 3
-0.34444726 -0.20024154 -0.85985202 3 2 4
-0.34416109 -0.19956608 -0.85976839 6 4 5
-0.34468916 -0.19924335 -0.86039585 3 2 3
-0.33736354 -0.16186295 -0.84852302 28 20 21
-0.33737135 -0.16152084 -0.84851259 27 19 20
-0.33695319 -0.16049305 -0.84814 27 19 22
-0.33788848 -0.16286525 -0.8483513 10 8 7
-0.33739859 -0.17345805 -0.84821254 18 15 14
-0.33837771 -0.18777178 -0.85084921 31 26 24
-0.33841994 -0.18697894 -0.85189927 39 32 30
-0.33834991 -0.18826593 -0.85012347 25 20 19
-0.33831093 -0.18918794 -0.84937745 30 25 23
-0.33832389 -0.18883376 -0.84957027 25 21 20
-0.33840853 -0.18679687 -0.84839725 0 0 0
-0.33844835 -0.18584296 -0.8504234 0 0 0
-0.33843794 -0.18602191 -0.85076076 0 0 0
-0.33830178 -0.1889417 -0.84804881 0 0 0
-0.33834326 -0.18810666 -0.84820288 0 0 0
-0.33844987 -0.18592411 -0.84905285 0 0 0
-0.33867818 -0.19297189 -0.85101628 79 68 65
-0.33847407 -0.19111615 -0.85123396 88 74 70
-0.33867532 -0.19226412 -0.85167807 98 84 80
-0.33865869 -0.19190766 -0.85189438 105 89 85
-0.33844331 -0.19037992 -0.85170811 102 85 81
-0.3383249 -0.19129831 -0.84888005 23 19 18
-0.33830139 -0.18954907 -0.84916508 31 26 24
-0.33834255 -0.19301537 -0.84834599 8 7 6
-0.33832243 -0.19035695 -0.84951335 41 34 32
-0.33832479 -0.1916132 -0.84862506 16 13 12
-0.33383292 -0.15378685 -0.84361321 93 77 71
-0.33395138 -0.15489183 -0.84397537 105 86 78
-0.33122993 -0.16476987 -0.84409916 112 95 98
-0.33055362 -0.16475938 -0.84332824 117 99 103
-0.33250713 -0.17147079 -0.84404385 83 71 68
-0.33274874 -0.17182198 -0.84404844 70 60 57
-0.33179805 -0.17129509 -0.84356678 93 79 77
-0.33134374 -0.17225385 -0.84305793 98 82 81
-0.33141962 -0.17222203 -0.84309477 95 80 79
-0.33299822 -0.17333239 -0.84356451 36 30 30
-0.33192629 -0.17370726 -0.84305626 74 62 60
-0.33246261 -0.17314066 -0.84337413 56 47 46
-0.33121681 -0.17530748 -0.8427363 100 83 81
-0.33204645 -0.17396417 -0.84307718 70 58 57
-0.33275017 -0.1759478 -0.84324217 44 37 36
-0.33305025 -0.17521174 -0.84341413 33 28 27
-0.33286506 -0.17587741 -0.84329438 40 33 32
-0.33304098 -0.17456618 -0.8434518 34 28 27
-0.33345023 -0.17702864 -0.84346354 19 16 15
-0.33284932 -0.18055712 -0.84392422 39 34 34
-0.33296373 -0.178808 -0.84368932 36 30 31
-0.33357546 -0.18048052 -0.84398603 14 12 12
-0.33206868 -0.18100654 -0.84390956 67 57 58
-0.33290753 -0.17879973 -0.84368205 38 32 32
-0.34212595 -0.18561603 -0.85493219 0 0 0
-0.34244591 -0.18713589 -0.85521889 0 0 0
-0.34266883 -0.18859307 -0.8554098 0 0 0
-0.34259608 -0.18937169 -0.85531986 0 0 0
-0.34251058 -0.18792589 -0.85526621 0 0 0
-0.33887103 -0.18891449 -0.85234708 94 78 74
-0.34112206 -0.18775794 -0.85405254 21 18 17
-0.34074265 -0.18728632 -0.85377979 34 28 26
-0.34104216 -0.1870213 -0.85400915 24 20 19
-0.34074256 -0.18909666 -0.85373986 34 28 26
-0.34099409 -0.1892841 -0.85392344 25 21 20
-0.33956674 -0.18650015 -0.85285318 27 22 21
-0.33997625 -0.18741234 -0.8531965 53 43 41
-0.33864295 -0.18825106 -0.85215455 76 63 60
-0.34151402 -0.18564987 -0.8543824 2 2 2
-0.33879456 -0.18621297 -0.85223436 18 15 14
-0.34201494 -0.19937389 -0.853203 0 0 0
-0.34251896 -0.19900624 -0.85400128 0 0 0
-0.3425014 -0.19791062 -0.85486835 0 0 0
-0.34220284 -0.20008418 -0.85281521 0 0 0
-0.34289286 -0.19925255 -0.85575014 0 0 0
-0.34257448 -0.19989575 -0.85390562 0 0 0
-0.34282815 -0.20115741 -0.85571498 0 0 0
-0.34262216 -0.20094688 -0.85440147 0 0 0
-0.34265032 -0.19973513 -0.85434377 0 0 0
-0.34263477 -0.20029628 -0.8543548 0 0 0
-0.34091008 -0.19929945 -0.85226935 28 24 24
-0.34110427 -0.19823436 -0.8532843 22 19 19
-0.3414897 -0.19741051 -0.85428721 9 8 8
-0.34133178 -0.19872889 -0.85310715 15 13 13
-0.34104168 -0.19898398 -0.85263854 24 21 21
-0.341364 -0.19863021 -0.85321444 14 12 12
-0.34764212 -0.19715208 -0.86433345 0 0 0
-0.34745517 -0.19620031 -0.86487043 0 0 0
-0.3478224 -0.19657229 -0.86524713 0 0 0
-0.34806743 -0.19478346 -0.86744553 0 0 0
-0.34759793 -0.19664536 -0.8647297 0 0 0
-0.34820133 -0.197087 -0.8655107 0 0 0
-0.34748998 -0.19379133 -0.86440009 0 0 0
-0.34746796 -0.19437039 -0.86434704 0 0 0
-0.34744135 -0.19417626 -0.86628777 0 0 0
-0.34750819 -0.1933928 -0.86426395 0 0 0
-0.34743154 -0.19465125 -0.86577588 0 0 0
-0.34769186 -0.20078808 -0.86551392 0 0 0
-0.34841532 -0.19923158 -0.86649239 0 0 0
-0.34817263 -0.19985694 -0.86756301 0 0 0
-0.34808475 -0.19994676 -0.86609852 0 0 0
-0.34819826 -0.19975966 -0.86702675 0 0 0
-0.34888545 -0.19823471 -0.86732578 0 0 0
-0.34818158 -0.1992956 -0.86520076 0 0 0
-0.34799129 -0.1990024 -0.86483568 0 0 0
-0.34779114 -0.19776349 -0.8644973 0 0 0
-0.34757137 -0.1994018 -0.8639788 0 0 0
-0.3474884 -0.19739832 -0.86391163 0 0 0
-0.34743387 -0.19996129 -0.86367726 0 0 0
0 0 0 1 0 0 0 1 0 0 0 1 0 0 0 0 0 270 1 0 0
