ply
format ascii 1.0
comment PCL generated
element vertex 119
property float x
property float y
property float z
property uchar red
property uchar green
property uchar blue
element camera 1
property float view_px
property float view_py
property float view_pz
property float x_axisx
property float x_axisy
property float x_axisz
property float y_axisx
property float y_axisy
property float y_axisz
property float z_axisx
property float z_axisy
property float z_axisz
property float focal
property float scalex
property float scaley
property float centerx
property float centery
property int viewportx
property int viewporty
property float k1
property float k2
end_header
-0.20385067 -0.1971492 -0.80657822 151 113 119
-0.20400891 -0.19673124 -0.80672932 154 118 123
-0.2040792 -0.19777901 -0.80766743 163 128 129
-0.20335586 -0.19928171 -0.80811536 157 119 116
-0.20302579 -0.20019786 -0.80859733 157 118 111
-0.2035435 -0.19843347 -0.80744708 154 116 116
-0.20296253 -0.19967911 -0.80785352 150 109 106
-0.20305638 -0.20046115 -0.808972 160 122 113
-0.20372812 -0.19902137 -0.80850267 165 130 126
-0.20265441 -0.20032853 -0.8059085 147 117 122
-0.20262326 -0.20059331 -0.80605417 149 119 124
-0.20260634 -0.20105369 -0.80814838 153 116 110
-0.2026514 -0.20053199 -0.80705422 149 114 114
-0.20294215 -0.20418836 -0.80622959 181 160 139
-0.20394474 -0.20420721 -0.80771589 186 168 145
-0.20474321 -0.20447791 -0.80862349 191 177 153
-0.20365813 -0.20383629 -0.80768561 181 160 139
-0.20370983 -0.20485973 -0.80665839 190 176 151
-0.20273277 -0.20135464 -0.80897427 157 117 106
-0.20332713 -0.20449138 -0.80648094 186 167 144
-0.2025601 -0.20150955 -0.80539417 155 134 138
-0.20270033 -0.20317507 -0.80629694 171 147 133
-0.20261936 -0.2019258 -0.80681676 160 131 125
-0.20278673 -0.204687 -0.80509603 185 168 147
-0.20262903 -0.20216455 -0.80643028 162 136 129
-0.20259693 -0.20145512 -0.80741179 156 124 119
-0.20326301 -0.20626819 -0.80645239 135 122 105
-0.20498177 -0.20527054 -0.80861992 186 173 153
-0.20397809 -0.20671707 -0.80783629 116 105 92
-0.20353544 -0.20555292 -0.806485 169 155 134
-0.20398346 -0.2054503 -0.80713785 175 161 140
-0.20339383 -0.20541762 -0.80618501 175 160 138
-0.20330484 -0.20698243 -0.80687815 103 91 79
-0.20364518 -0.2083679 -0.80814713 41 33 29
-0.20327944 -0.20696244 -0.80680788 104 92 80
-0.20335737 -0.20777623 -0.80724382 69 59 51
-0.20252548 -0.20791666 -0.80517501 75 60 53
-0.20366591 -0.20927149 -0.80840939 26 18 19
-0.20197251 -0.19564262 -0.80109179 117 100 100
-0.20145597 -0.20092277 -0.79949564 115 97 102
-0.20134285 -0.20280221 -0.79843825 121 106 101
-0.20124164 -0.20375723 -0.79762298 123 111 96
-0.2014114 -0.20202792 -0.79901344 118 102 102
-0.20144953 -0.20328027 -0.79902911 135 123 116
-0.20143794 -0.20153296 -0.79927135 115 97 101
-0.20164208 -0.20345646 -0.80032057 136 123 112
-0.20158792 -0.20253673 -0.80006003 135 121 121
-0.20162551 -0.20198566 -0.80038226 135 120 126
-0.20151885 -0.20401481 -0.79941261 136 124 109
-0.20140822 -0.20400962 -0.79865783 136 125 111
-0.20211495 -0.20859745 -0.80045754 152 146 125
-0.20173825 -0.2073749 -0.79925358 143 136 114
-0.20130247 -0.20551451 -0.7976284 138 129 107
-0.20162752 -0.20533456 -0.79973459 139 128 101
-0.20192787 -0.20710689 -0.79975605 154 146 122
-0.20158069 -0.20509778 -0.79968596 137 126 98
-0.20175824 -0.20511511 -0.80087852 137 125 95
-0.20234717 -0.20856996 -0.80094397 167 160 137
-0.20206915 -0.20773648 -0.79999983 160 152 129
-0.20198892 -0.20962057 -0.80061281 122 118 101
-0.20224103 -0.2097908 -0.80104345 136 130 113
-0.2024526 -0.19973588 -0.80380523 138 109 120
-0.20243935 -0.20090379 -0.80447322 147 126 136
-0.20228605 -0.20029968 -0.80334765 139 114 126
-0.20215757 -0.20114376 -0.80325133 143 125 136
-0.20199428 -0.20112844 -0.80244648 140 122 134
-0.20194387 -0.20042072 -0.8017332 134 113 125
-0.20266831 -0.20367211 -0.80491048 173 156 143
-0.20219631 -0.20439039 -0.80290169 153 139 116
-0.20256244 -0.20350894 -0.80455083 167 150 137
-0.20279093 -0.20506467 -0.80498964 187 171 146
-0.20232642 -0.20359141 -0.80362391 155 139 125
-0.20237386 -0.20319693 -0.80391622 155 138 128
-0.20207335 -0.20239641 -0.80275506 142 126 123
-0.20182177 -0.20331734 -0.80145174 137 123 111
-0.20242175 -0.20145208 -0.80453199 149 130 137
-0.20207974 -0.20209478 -0.80281174 142 125 126
-0.2019424 -0.20422453 -0.80196226 140 126 104
-0.20248289 -0.20849727 -0.8022303 153 143 124
-0.20246445 -0.20835938 -0.8037914 103 90 80
-0.20257229 -0.20749189 -0.80344296 150 138 119
-0.20252338 -0.2080752 -0.80260509 156 146 126
-0.20253675 -0.20803416 -0.80221343 172 162 140
-0.20252167 -0.20661008 -0.80297095 174 162 137
-0.20236728 -0.20643915 -0.80248946 166 154 128
-0.20267545 -0.20625858 -0.8037855 182 168 144
-0.20196675 -0.20567 -0.80144954 145 134 105
-0.20250721 -0.20629247 -0.80311954 173 161 135
-0.20235556 -0.20949349 -0.80185437 128 120 105
-0.20013493 -0.20489804 -0.79569769 129 111 102
-0.2005941 -0.20446284 -0.79638094 126 110 98
-0.20100595 -0.20496382 -0.79695714 137 125 106
-0.20282745 -0.19962631 -0.80965561 167 134 109
-0.20299703 -0.19974343 -0.80944377 166 133 113
-0.20184329 -0.20002556 -0.81015551 146 111 82
-0.20267136 -0.19882342 -0.8100214 143 112 95
-0.20303738 -0.19877185 -0.80985272 155 124 107
-0.20459628 -0.20398399 -0.80902594 186 168 146
-0.20418277 -0.20409977 -0.80955362 186 166 136
-0.20322365 -0.2029594 -0.80963057 173 146 116
-0.20349599 -0.20292795 -0.80937445 173 145 122
-0.20234981 -0.20453335 -0.81142771 136 93 82
-0.20167112 -0.20295654 -0.81097281 141 99 74
-0.20187178 -0.20262796 -0.81058168 151 112 82
-0.20323688 -0.20336302 -0.8098855 174 149 115
-0.20446503 -0.20495182 -0.80987245 183 163 138
-0.20395313 -0.20429933 -0.80988431 179 157 129
-0.20240204 -0.20438032 -0.81128126 140 98 84
-0.2031502 -0.20320384 -0.80985528 175 148 114
-0.20254406 -0.20515473 -0.81159103 131 87 81
-0.20176549 -0.20533282 -0.81219882 104 53 54
-0.20405674 -0.20618746 -0.8098954 127 108 93
-0.20350322 -0.20524476 -0.81072664 151 120 105
-0.2050622 -0.20516646 -0.80939066 192 179 151
-0.20230921 -0.20562921 -0.81277037 114 72 60
-0.20139739 -0.20545404 -0.81264275 93 39 42
-0.20271307 -0.20622584 -0.81214416 99 65 53
-0.20233306 -0.20613346 -0.8121165 92 52 46
-0.20216067 -0.20573951 -0.81256694 104 61 53
0 0 0 1 0 0 0 1 0 0 0 1 0 0 0 0 0 119 1 0 0
