ply
format ascii 1.0
comment PCL generated
element vertex 495
property float x
property float y
property float z
property uchar red
property uchar green
property uchar blue
element camera 1
property float view_px
property float view_py
property float view_pz
property float x_axisx
property float x_axisy
property float x_axisz
property float y_axisx
property float y_axisy
property float y_axisz
property float z_axisx
property float z_axisy
property float z_axisz
property float focal
property float scalex
property float scaley
property float centerx
property float centery
property int viewportx
property int viewporty
property float k1
property float k2
end_header
-0.034214452 -0.36857083 -0.67543209 175 158 176
-0.033459902 -0.36862439 -0.67553329 173 154 177
-0.031064173 -0.36848575 -0.67568487 167 147 167
-0.029931651 -0.36866394 -0.67574281 163 142 156
-0.030701729 -0.36898461 -0.6757161 166 144 160
-0.026484642 -0.36894712 -0.67612672 126 102 119
-0.026582558 -0.36847791 -0.67607599 129 106 124
-0.028405327 -0.36873856 -0.67586607 151 129 141
-0.025821514 -0.36574465 -0.67594743 129 114 135
-0.02881402 -0.36827859 -0.67579663 157 136 149
-0.025066409 -0.36531416 -0.67601699 124 108 132
-0.025238033 -0.36747137 -0.67616832 116 95 118
-0.032288197 -0.37224829 -0.67565471 170 166 179
-0.029788705 -0.3722479 -0.67586017 141 117 131
-0.030963393 -0.37258264 -0.67577595 152 137 151
-0.029456751 -0.37018079 -0.67581123 155 131 142
-0.030002836 -0.3713645 -0.67580998 151 130 143
-0.030175332 -0.37118495 -0.67578918 154 135 147
-0.030817855 -0.37044048 -0.67571682 166 152 163
-0.0313478 -0.36960176 -0.67569107 168 149 165
-0.032497548 -0.37049851 -0.67563856 172 159 177
-0.03143093 -0.37097982 -0.67568892 168 158 170
-0.03219026 -0.37155187 -0.67565429 171 164 177
-0.026987152 -0.37225172 -0.67615044 120 93 103
-0.027206242 -0.37287211 -0.67613882 120 93 102
-0.027375294 -0.37063041 -0.67608356 125 98 115
-0.027526513 -0.3727257 -0.67610389 122 94 105
-0.027120816 -0.369876 -0.67608899 127 102 119
-0.028412998 -0.36945125 -0.67590952 148 123 136
-0.027761126 -0.36994889 -0.67601049 135 110 125
-0.027059788 -0.369636 -0.67608786 129 103 120
-0.034827504 -0.37682211 -0.67565262 151 129 154
-0.033560079 -0.3757745 -0.67569482 147 129 153
-0.029595656 -0.37478423 -0.67599994 126 98 116
-0.029322926 -0.37344128 -0.67595005 128 98 115
-0.029343126 -0.37435445 -0.67600042 127 98 115
-0.030967116 -0.37558493 -0.67590964 128 98 122
-0.030624392 -0.37487766 -0.67590314 128 99 121
-0.029723788 -0.3762407 -0.67607081 124 97 116
-0.030060299 -0.37352917 -0.67588663 132 104 123
-0.032079801 -0.37399867 -0.67573953 150 135 154
-0.031222489 -0.37454322 -0.67583191 134 107 130
-0.032831524 -0.37593615 -0.67575568 137 112 140
-0.032769602 -0.37532383 -0.67573613 143 123 147
-0.031486344 -0.37445086 -0.67580646 138 115 136
-0.02849194 -0.37615228 -0.67616969 121 95 110
-0.027813653 -0.37330776 -0.67609525 122 94 105
-0.028799126 -0.37423736 -0.6760487 125 96 111
-0.027975449 -0.37448049 -0.67614609 121 94 105
-0.027530296 -0.37365574 -0.67614388 120 93 103
-0.034580179 -0.37917084 -0.67571944 142 118 141
-0.03495758 -0.37871027 -0.67565471 144 122 144
-0.034192253 -0.37841853 -0.67572635 138 112 138
-0.035545867 -0.38063285 -0.67568225 151 130 147
-0.034709197 -0.38079473 -0.67578399 145 120 141
-0.034789082 -0.37824303 -0.67566437 144 121 144
-0.030264162 -0.37984577 -0.67608821 137 118 127
-0.032360353 -0.38005671 -0.67599833 133 101 125
-0.031030746 -0.37989682 -0.67605561 135 112 126
-0.030488653 -0.38010317 -0.67607653 138 119 128
-0.02961321 -0.38065174 -0.67610848 143 133 131
-0.032447074 -0.37920856 -0.67595083 132 100 126
-0.033066835 -0.37711114 -0.67578721 129 99 131
-0.0331305 -0.37990063 -0.67591661 134 101 129
-0.031928927 -0.37734541 -0.67591166 128 99 125
-0.032368887 -0.37888867 -0.67594302 131 100 126
-0.028860126 -0.38067263 -0.67615426 143 133 131
-0.035712808 -0.38121364 -0.67570978 154 133 150
-0.029665381 -0.38168401 -0.67611963 151 142 141
-0.030680934 -0.38102368 -0.67606157 144 128 133
-0.031824056 -0.38148934 -0.67601275 146 124 138
-0.032275487 -0.38130087 -0.67599416 143 117 135
-0.0311788 -0.38147423 -0.67603987 148 130 138
-0.015799414 -0.34939948 -0.67820257 132 107 125
-0.015301462 -0.34933609 -0.67830783 127 98 117
-0.019514509 -0.35319439 -0.67736214 148 137 148
-0.019080766 -0.3526811 -0.67746526 147 135 147
-0.018485209 -0.35308942 -0.67760235 137 123 136
-0.013768603 -0.35063183 -0.67856991 112 79 94
-0.015259909 -0.35163373 -0.6782763 116 88 103
-0.014681346 -0.35189182 -0.67837465 117 92 102
-0.015040967 -0.3533287 -0.67827511 121 107 110
-0.014482623 -0.35219717 -0.6784032 117 95 103
-0.015286786 -0.35143837 -0.67827612 116 86 103
-0.016836504 -0.35065475 -0.67797256 135 115 133
-0.01749507 -0.35301024 -0.6778307 127 108 123
-0.015791478 -0.35127646 -0.67817974 120 92 110
-0.016809613 -0.35156867 -0.67797416 129 108 124
-0.015415013 -0.35080424 -0.67825729 119 89 108
-0.009913167 -0.35124144 -0.67913884 71 29 23
-0.011161078 -0.35340881 -0.67885143 96 69 56
-0.010299368 -0.35234785 -0.67902482 81 45 35
-0.012783282 -0.35344154 -0.6786381 112 95 88
-0.011048036 -0.35108301 -0.67900008 81 46 44
-0.011666399 -0.3529655 -0.67881107 98 73 64
-0.012808686 -0.35075459 -0.6787259 101 68 77
-0.013221493 -0.35236859 -0.67861938 111 92 92
-0.012318785 -0.35140356 -0.67879051 97 68 71
-0.012521058 -0.35151157 -0.67875481 100 72 75
-0.012005889 -0.35161459 -0.67883676 94 66 65
-0.0183035 -0.35444066 -0.67759633 129 110 124
-0.020242915 -0.35685107 -0.67702401 142 121 138
-0.019404484 -0.35684061 -0.67720008 134 110 126
-0.019315716 -0.35692579 -0.67721277 133 108 124
-0.019084124 -0.35550907 -0.67735922 134 113 129
-0.019204957 -0.35391304 -0.67741495 141 127 139
-0.019172207 -0.35378096 -0.6774286 141 127 139
-0.019702911 -0.35545814 -0.67722893 141 122 138
-0.013971303 -0.35606611 -0.67827612 108 93 94
-0.013846957 -0.35376048 -0.67846912 120 109 105
-0.014385875 -0.35664773 -0.67816007 107 89 92
-0.01402095 -0.35504505 -0.67834324 114 100 99
-0.014413907 -0.35575688 -0.67822134 111 95 96
-0.01755446 -0.35543177 -0.67768383 119 94 108
-0.017527886 -0.35364071 -0.6778124 124 105 119
-0.017517271 -0.35597634 -0.6776529 118 91 104
-0.015686968 -0.35538843 -0.67802435 117 97 101
-0.016441138 -0.35576683 -0.67786187 117 94 102
-0.016309369 -0.35408464 -0.67800194 122 104 111
-0.012482177 -0.35624906 -0.67847073 95 73 69
-0.011588535 -0.3567625 -0.67859697 90 65 68
-0.010848106 -0.35708633 -0.67870563 86 59 66
-0.010504504 -0.35663566 -0.67878026 85 56 60
-0.010440623 -0.35651678 -0.67879552 85 55 58
-0.011138251 -0.35476899 -0.67875522 90 61 50
-0.010671205 -0.35380834 -0.67888731 91 60 46
-0.013075407 -0.35377938 -0.67857617 114 99 93
-0.012412868 -0.35433608 -0.67862117 104 85 77
-0.012719274 -0.35601869 -0.67845637 99 78 75
-0.011825345 -0.35427159 -0.67870259 99 75 66
-0.0094334735 -0.35620067 -0.67895639 79 47 52
-0.0096579138 -0.35499474 -0.67897969 82 48 42
-0.021826908 -0.36108083 -0.67662382 131 100 131
-0.019074446 -0.3606551 -0.67713267 131 107 131
-0.017934399 -0.35790849 -0.67745733 116 85 100
-0.020170363 -0.36084977 -0.67693144 128 99 128
-0.018181192 -0.36103562 -0.67727232 138 120 142
-0.018776661 -0.36058828 -0.67718798 132 109 132
-0.018959649 -0.35756892 -0.67725128 127 99 115
-0.020688249 -0.35855621 -0.67687809 138 111 133
-0.020605458 -0.35990974 -0.67687947 127 96 123
-0.020396261 -0.35907066 -0.67693311 131 102 126
-0.015834311 -0.36034065 -0.67771465 125 110 124
-0.015795309 -0.36123967 -0.67767906 126 110 126
-0.014153291 -0.35890129 -0.67807466 107 90 97
-0.015404807 -0.35941681 -0.67783278 120 104 115
-0.014069946 -0.36101985 -0.67798936 111 91 103
-0.014823745 -0.36009008 -0.6779021 116 98 110
-0.016482638 -0.35754123 -0.67772895 111 84 95
-0.016714264 -0.35962239 -0.67759401 127 109 124
-0.017330606 -0.35987186 -0.67747444 131 112 129
-0.017113021 -0.36013496 -0.67750072 132 115 132
-0.0166145 -0.35863584 -0.67765623 119 97 110
-0.015029201 -0.35763064 -0.67798018 107 86 93
-0.010732046 -0.3605116 -0.67859775 90 56 59
-0.012669439 -0.36040187 -0.67825353 101 77 89
-0.010721575 -0.3609508 -0.67858559 90 55 57
-0.011884274 -0.36044294 -0.67839313 96 68 77
-0.011753002 -0.35988367 -0.67843467 95 68 78
-0.012600446 -0.36014813 -0.67827576 100 76 88
-0.010961434 -0.35820422 -0.67863673 88 61 72
-0.01328533 -0.35800853 -0.67826396 100 81 86
-0.010745991 -0.35815114 -0.67867458 87 59 70
-0.011015773 -0.3578718 -0.67864341 88 61 71
-0.0096599795 -0.36004212 -0.67880023 83 46 47
-0.0092020733 -0.35934126 -0.67888349 80 45 47
-0.021955434 -0.36367738 -0.67653579 124 92 124
-0.022403196 -0.36365485 -0.67646104 130 100 129
-0.022239299 -0.36243552 -0.67652172 133 102 132
-0.021714726 -0.36499578 -0.67654109 115 81 116
-0.021651948 -0.36508074 -0.67654938 114 80 115
-0.023535524 -0.36440259 -0.67626494 129 105 131
-0.022414209 -0.36484045 -0.67643362 119 90 121
-0.01842913 -0.36448532 -0.67705834 127 110 130
-0.019549482 -0.36449224 -0.67689592 123 99 125
-0.017862914 -0.36443126 -0.67714345 130 116 133
-0.01892289 -0.36498922 -0.67695767 124 104 125
-0.01815811 -0.36197177 -0.67724365 138 121 144
-0.020724434 -0.36347619 -0.67675412 121 91 123
-0.020851498 -0.36355385 -0.67672968 121 89 122
-0.019567227 -0.36272043 -0.67697787 129 105 133
-0.021307163 -0.36351585 -0.6766507 119 85 120
-0.021423183 -0.36412102 -0.67661387 116 82 117
-0.019228352 -0.36201072 -0.67705667 133 111 137
-0.014398463 -0.36308223 -0.67780972 114 96 110
-0.014788073 -0.36485645 -0.67763066 120 104 120
-0.013773097 -0.36229587 -0.6779651 110 90 104
-0.014258463 -0.36489412 -0.67771727 118 102 119
-0.015486533 -0.36474782 -0.67752033 121 106 122
-0.015996978 -0.36242181 -0.6775763 124 108 124
-0.017382747 -0.36387312 -0.67725104 132 119 135
-0.017350182 -0.3637751 -0.67726243 132 119 135
-0.015387589 -0.36260697 -0.67767143 118 101 115
-0.016840961 -0.36150634 -0.67748272 135 121 139
-0.011584591 -0.36484703 -0.67826778 111 93 103
-0.010565518 -0.36393589 -0.67851371 104 80 85
-0.010611296 -0.36510226 -0.67847997 111 95 103
-0.012069416 -0.36419496 -0.67817277 108 85 95
-0.01032077 -0.36277533 -0.67859185 96 64 66
-0.013316239 -0.36449403 -0.6779052 114 94 109
-0.013204403 -0.36188984 -0.67809194 106 83 94
-0.012951371 -0.36381713 -0.67801404 110 88 101
-0.010798186 -0.36235264 -0.67849416 94 59 61
-0.010604047 -0.36149961 -0.67858362 91 54 54
-0.0083014118 -0.36385158 -0.67885524 91 69 76
-0.0082390439 -0.36493483 -0.67883146 93 68 74
-0.0094920443 -0.36304909 -0.67874044 95 65 67
-0.0085402159 -0.36367533 -0.67883307 92 69 75
-0.0091370735 -0.36428738 -0.67875469 100 80 86
-0.025450211 -0.36899495 -0.67626154 113 88 108
-0.024448594 -0.367479 -0.67629158 114 89 113
-0.023453165 -0.36564046 -0.67629588 117 92 120
-0.023639323 -0.36664885 -0.67635036 114 87 114
-0.022044279 -0.36766443 -0.67655218 110 81 98
-0.021799425 -0.36746597 -0.67657101 110 80 98
-0.022173064 -0.36840323 -0.67654943 110 82 94
-0.022181837 -0.36671969 -0.67652971 111 79 106
-0.022861306 -0.36855447 -0.67649198 110 83 96
-0.021616908 -0.36729696 -0.67658478 110 80 98
-0.018704645 -0.36856028 -0.67689317 114 96 104
-0.019147001 -0.36880672 -0.67684257 113 93 100
-0.017875671 -0.36835134 -0.6769771 116 100 110
-0.017619582 -0.36855003 -0.67699164 116 100 110
-0.019187286 -0.36720759 -0.67690772 119 101 109
-0.017799126 -0.36719179 -0.67703384 121 106 117
-0.020911217 -0.36747605 -0.6766811 112 86 99
-0.021323562 -0.36646342 -0.67661005 111 80 104
-0.018392485 -0.36578119 -0.67702633 125 109 123
-0.018664379 -0.36527717 -0.67698133 124 105 125
-0.018711809 -0.36525285 -0.67697418 124 105 125
-0.014882652 -0.36765715 -0.67746878 109 89 109
-0.014544616 -0.36767378 -0.67751968 107 87 108
-0.014580663 -0.36746806 -0.67752594 108 89 109
-0.014171187 -0.36745375 -0.6775896 106 86 109
-0.014075025 -0.36826688 -0.67755753 100 78 104
-0.017510297 -0.3687506 -0.6769982 115 99 109
-0.016029157 -0.36703825 -0.67732054 117 101 115
-0.016144713 -0.36564854 -0.67736089 123 109 124
-0.017263103 -0.36816332 -0.6770649 116 101 112
-0.016148407 -0.36729875 -0.67728931 117 101 113
-0.011769735 -0.36911836 -0.67793149 100 87 101
-0.010156479 -0.36766842 -0.67836958 108 100 102
-0.01047127 -0.36849043 -0.67823482 106 99 102
-0.010869412 -0.36732215 -0.67826617 105 91 101
-0.01137187 -0.36782864 -0.67812467 103 87 101
-0.010474421 -0.36890796 -0.67819607 106 100 103
-0.013569442 -0.3688179 -0.67761046 94 70 101
-0.011905411 -0.367109 -0.67808038 102 82 102
-0.011670544 -0.36580458 -0.67820793 110 93 107
-0.012822147 -0.36557013 -0.67796433 114 97 113
-0.013527067 -0.36897805 -0.6776107 93 69 100
-0.0080033746 -0.36912656 -0.67854899 93 79 78
-0.0078330422 -0.3679381 -0.67864174 89 70 70
-0.0077104415 -0.36833575 -0.67863506 89 70 70
-0.0075376411 -0.3658691 -0.6788373 86 57 61
-0.0076349853 -0.36595219 -0.67881966 87 59 63
-0.0088556847 -0.36731434 -0.67856961 99 86 86
-0.025480153 -0.37126234 -0.67629468 113 89 97
-0.026296003 -0.37232962 -0.67622221 117 92 98
-0.026442153 -0.37081733 -0.67618138 120 95 108
-0.021734068 -0.37060213 -0.67661333 111 88 96
-0.022436459 -0.37196109 -0.67656928 113 91 102
-0.022606421 -0.37043199 -0.67653579 110 85 87
-0.021658026 -0.37173265 -0.67663378 114 92 106
-0.024173535 -0.37220788 -0.676422 111 88 90
-0.022260381 -0.37126049 -0.6765759 112 89 97
-0.024347404 -0.36978471 -0.67637831 111 86 97
-0.02333943 -0.36987105 -0.67646605 110 85 91
-0.022277638 -0.36982116 -0.67655683 109 84 86
-0.024836576 -0.37144166 -0.67635578 111 87 92
-0.024850078 -0.37199423 -0.67636114 111 87 90
-0.024077389 -0.37052405 -0.67641026 110 86 92
-0.018443717 -0.37062058 -0.67691642 114 98 110
-0.019447431 -0.37272957 -0.67686319 116 98 113
-0.018492213 -0.37184209 -0.67693931 115 98 110
-0.021119991 -0.37275773 -0.67669511 116 98 118
-0.017732223 -0.37209138 -0.67702168 115 99 108
-0.018398702 -0.37066397 -0.6769219 114 98 109
-0.021011066 -0.37240064 -0.67669982 116 97 116
-0.020173721 -0.3698023 -0.67674357 112 90 98
-0.021372532 -0.37233087 -0.67666626 115 95 114
-0.020238031 -0.37079373 -0.67674989 113 94 106
-0.021450961 -0.36965495 -0.67662632 110 85 89
-0.013726113 -0.37291551 -0.67775434 90 62 82
-0.014473274 -0.37049317 -0.67749286 97 73 98
-0.013723038 -0.3721109 -0.67771327 91 63 85
-0.014112848 -0.36968222 -0.67751664 95 71 100
-0.013676519 -0.3720004 -0.67771602 90 63 86
-0.013700691 -0.37215868 -0.67771977 90 63 85
-0.015422666 -0.37081313 -0.6773386 103 82 103
-0.014221635 -0.36929643 -0.67748821 96 72 101
-0.015828094 -0.3708896 -0.67727816 105 85 104
-0.017238624 -0.36934447 -0.67702663 112 95 106
-0.016526202 -0.36995646 -0.67714989 108 90 105
-0.010069174 -0.3703056 -0.67826658 102 96 92
-0.010478207 -0.37178576 -0.67820936 94 80 78
-0.011185946 -0.37114403 -0.67811298 98 85 89
-0.012275334 -0.37240684 -0.67796278 92 71 80
-0.010239793 -0.37149337 -0.67824227 96 84 80
-0.011941032 -0.37212917 -0.67800879 93 74 82
-0.010729708 -0.36983144 -0.67816216 104 97 99
-0.012375371 -0.36991715 -0.67785478 97 80 97
-0.011379559 -0.37004068 -0.67804986 101 90 97
-0.012459711 -0.37170467 -0.67793125 95 76 88
-0.011898024 -0.36988303 -0.67794347 99 85 98
-0.0087291785 -0.3718462 -0.67844754 84 64 58
-0.0070544491 -0.36924538 -0.67867678 84 62 63
-0.0093413359 -0.36944073 -0.67836642 103 98 94
-0.0088322731 -0.37143183 -0.6784339 87 70 64
-0.0081121307 -0.36936492 -0.6785332 92 79 77
-0.026332526 -0.37441415 -0.67622203 118 91 101
-0.026337238 -0.37414709 -0.67622334 118 91 100
-0.02697031 -0.37534386 -0.67621231 119 93 105
-0.026566122 -0.37465039 -0.67621475 118 92 102
-0.027228978 -0.37433663 -0.67618382 119 92 103
-0.028297508 -0.37645593 -0.67618269 121 95 111
-0.024586692 -0.37649003 -0.67636204 118 94 110
-0.021514511 -0.37630495 -0.67652333 126 111 124
-0.023557251 -0.37535232 -0.67646235 118 95 113
-0.022279311 -0.37477964 -0.67655081 120 100 118
-0.021770433 -0.37397191 -0.67661089 119 100 120
-0.022596985 -0.37551755 -0.67650318 121 101 118
-0.024920112 -0.37580761 -0.67635006 116 92 105
-0.024247658 -0.37569046 -0.67640901 117 93 110
-0.023947012 -0.37405527 -0.67644548 115 93 104
-0.025094744 -0.37452775 -0.67634314 114 90 97
-0.024698054 -0.37319601 -0.676386 113 90 94
-0.024911141 -0.37474734 -0.67635763 115 91 100
-0.017621618 -0.37629342 -0.67702568 110 87 93
-0.018779824 -0.37472531 -0.67688203 119 102 111
-0.01781065 -0.37561774 -0.67700571 112 91 98
-0.01778429 -0.37513906 -0.67701334 113 93 100
-0.018265452 -0.37534848 -0.67694646 115 96 103
-0.019586369 -0.37597558 -0.67676228 121 103 113
-0.020980559 -0.37604037 -0.67658699 126 110 123
-0.018697727 -0.37352815 -0.67692536 117 101 112
-0.021438699 -0.37668774 -0.67651296 128 112 125
-0.020270718 -0.3754746 -0.67668295 124 108 120
-0.020846769 -0.37385932 -0.67669433 119 101 119
-0.020940742 -0.37422636 -0.67666906 120 103 120
-0.016645806 -0.37686908 -0.67714733 107 83 90
-0.013714783 -0.37607446 -0.67756414 99 77 88
-0.017026581 -0.37653434 -0.67712235 106 82 89
-0.013776174 -0.37620682 -0.67754769 99 78 89
-0.013731333 -0.37409198 -0.67769402 93 67 83
-0.015562733 -0.37591019 -0.67734563 102 78 87
-0.015359968 -0.37360856 -0.67745858 100 76 90
-0.016287208 -0.37453094 -0.67728168 104 81 92
-0.016466593 -0.37569019 -0.67723918 103 79 88
-0.016020464 -0.37473223 -0.67732865 102 78 89
-0.017325081 -0.37414825 -0.67709577 112 93 101
-0.017428804 -0.37469566 -0.67707223 112 92 99
-0.010928512 -0.37635159 -0.67786592 96 76 76
-0.01320493 -0.37685537 -0.677571 101 81 88
-0.01105956 -0.37509957 -0.67797059 93 74 72
-0.0099835843 -0.3736859 -0.6782217 88 70 63
-0.010803938 -0.37592748 -0.67791975 95 75 74
-0.01062527 -0.37313524 -0.67818242 87 67 64
-0.013620309 -0.37491569 -0.67765367 95 71 85
-0.011943912 -0.37474787 -0.67789447 93 73 76
-0.012519181 -0.37452343 -0.67783064 93 71 78
-0.013490564 -0.37357756 -0.67776054 91 65 81
-0.01247479 -0.3743526 -0.67784804 93 70 77
-0.00935564 -0.37554613 -0.67808282 92 70 67
-0.009461984 -0.37385872 -0.67823941 88 68 61
-0.0093654413 -0.37640369 -0.67800099 94 71 70
-0.027592937 -0.37787533 -0.67624789 125 98 116
-0.026403621 -0.37849599 -0.67631263 127 99 116
-0.027177954 -0.37752753 -0.67625254 123 96 113
-0.027002446 -0.37771797 -0.67626524 123 97 114
-0.025919721 -0.37723508 -0.67629099 120 93 109
-0.026699556 -0.38007194 -0.67632627 136 110 125
-0.026634039 -0.38082981 -0.6763283 140 117 128
-0.028378161 -0.37840813 -0.67620105 129 107 120
-0.028574387 -0.37968343 -0.67618036 137 121 126
-0.021872031 -0.37943909 -0.67661136 121 103 112
-0.02172865 -0.37959996 -0.67663157 119 101 110
-0.022454379 -0.37844691 -0.67650962 129 109 122
-0.022224363 -0.37896302 -0.676557 125 106 117
-0.022301776 -0.38062665 -0.67664737 119 98 107
-0.024250232 -0.37706468 -0.67636251 121 98 113
-0.023175389 -0.37717816 -0.67641968 125 105 118
-0.025151346 -0.37964955 -0.67639959 133 104 121
-0.022874158 -0.37767717 -0.67645061 128 109 122
-0.025365138 -0.37791356 -0.67633379 123 96 112
-0.025153277 -0.38018584 -0.67641646 136 106 124
-0.019618191 -0.38041502 -0.67696309 112 92 100
-0.018620348 -0.37808892 -0.67695135 110 87 93
-0.01772943 -0.37739116 -0.67703348 109 85 91
-0.019710902 -0.38080612 -0.67697591 112 93 101
-0.019661907 -0.37911525 -0.67686963 111 90 95
-0.018485099 -0.37832177 -0.67698658 110 88 93
-0.01887515 -0.37753224 -0.67688382 113 91 98
-0.018752053 -0.37785208 -0.67691898 111 89 94
-0.019471331 -0.37786132 -0.67682213 114 94 101
-0.021349976 -0.38057774 -0.67672485 113 95 100
-0.021385727 -0.38069034 -0.67672658 113 95 100
-0.014314407 -0.37779924 -0.67748499 105 85 95
-0.015663814 -0.38030222 -0.67746818 115 96 110
-0.016957423 -0.38065255 -0.67734504 113 93 105
-0.016130524 -0.37998697 -0.67740071 112 92 104
-0.013998034 -0.37773505 -0.67751616 105 86 96
-0.015285503 -0.37855566 -0.67741817 106 86 96
-0.017447071 -0.37901556 -0.67718059 110 88 97
-0.015592908 -0.37734038 -0.67729843 105 84 91
-0.016049784 -0.37720156 -0.67723244 106 84 91
-0.017230898 -0.3790895 -0.67721236 110 88 97
-0.010923963 -0.37915549 -0.67794251 107 83 94
-0.011120952 -0.37974963 -0.67795908 109 84 99
-0.011012576 -0.3799184 -0.67798448 108 83 99
-0.010386161 -0.37835217 -0.67795438 102 79 85
-0.010162204 -0.37850693 -0.6779933 101 76 84
-0.013445446 -0.37803894 -0.67759228 108 89 100
-0.01233196 -0.37776199 -0.67769867 105 85 92
-0.012927675 -0.37862727 -0.67767924 111 92 103
-0.013148884 -0.37699059 -0.67756969 101 81 88
-0.010476122 -0.37733492 -0.67787784 100 79 79
-0.0076166294 -0.37915832 -0.67837924 90 56 69
-0.0079834303 -0.37866846 -0.67829216 90 58 70
-0.0083744433 -0.3780731 -0.67819858 91 62 70
-0.0079609929 -0.37822336 -0.67826414 90 58 68
-0.0092607159 -0.37743533 -0.67803597 95 70 72
-0.029225148 -0.38390955 -0.67623162 159 147 164
-0.028049137 -0.38166359 -0.67624515 147 131 139
-0.028816106 -0.38263896 -0.67621911 152 140 150
-0.028460139 -0.38254201 -0.67624366 151 137 148
-0.028108764 -0.38116714 -0.67622298 144 130 134
-0.026211688 -0.38228267 -0.67641681 146 122 140
-0.026215944 -0.38314185 -0.67645431 148 129 145
-0.025510324 -0.38266042 -0.67649484 144 124 138
-0.025877444 -0.38212845 -0.67643929 144 120 137
-0.025733469 -0.38278067 -0.67648059 146 125 140
-0.022648608 -0.38327491 -0.67679816 123 104 112
-0.021992339 -0.38338974 -0.67688847 115 92 102
-0.022797657 -0.3836664 -0.67681521 124 105 114
-0.022642966 -0.38336506 -0.67680693 122 103 112
-0.024595523 -0.38404736 -0.67663038 143 132 140
-0.025273127 -0.38323492 -0.67653954 145 128 140
-0.02473652 -0.38282228 -0.67656219 140 123 134
-0.024829656 -0.38105738 -0.67647737 135 107 124
-0.024881851 -0.38387254 -0.67659736 144 133 141
-0.023885859 -0.38146636 -0.67656714 130 108 120
-0.025188833 -0.38374949 -0.67656863 146 133 143
-0.020609621 -0.38435361 -0.67714202 110 83 95
-0.01779159 -0.38109696 -0.67727739 112 91 103
-0.017828718 -0.38157335 -0.67729443 113 92 104
-0.018763952 -0.3836672 -0.6772936 115 93 104
-0.018614369 -0.3843689 -0.67733884 117 96 107
-0.020920608 -0.38201806 -0.67690861 111 89 98
-0.021183843 -0.38281199 -0.67694187 111 86 96
-0.019660451 -0.38099527 -0.67699903 112 93 101
-0.018896509 -0.38162833 -0.6771664 112 89 101
-0.021124121 -0.38137433 -0.67682135 112 92 99
-0.014392878 -0.38219929 -0.67769134 128 112 128
-0.016904199 -0.38436934 -0.67751294 123 107 117
-0.015710011 -0.38339889 -0.67760015 125 110 123
-0.016603017 -0.38442183 -0.67754638 125 109 120
-0.017403198 -0.38155031 -0.67733717 114 95 106
-0.014247747 -0.38132927 -0.67767251 125 108 126
-0.017109305 -0.38422948 -0.67748588 121 105 115
-0.014544094 -0.38114217 -0.67763197 123 106 124
-0.016653553 -0.38277224 -0.67747235 119 102 114
-0.01338067 -0.38178691 -0.67778736 129 112 130
-0.027668729 -0.38715425 -0.67653573 167 164 174
-0.02712808 -0.38845342 -0.67665082 154 152 158
-0.026565541 -0.3886719 -0.67670965 146 144 148
-0.027702559 -0.3877089 -0.67656267 165 163 172
-0.02701409 -0.3877919 -0.67662477 156 153 160
-0.02614975 -0.38477936 -0.67653239 153 144 155
-0.026921896 -0.38592243 -0.6765306 161 154 165
-0.027977774 -0.38646272 -0.67646927 166 161 174
-0.027246324 -0.38545159 -0.67647505 160 151 164
-0.021505993 -0.38495377 -0.67707568 110 80 94
-0.022211002 -0.38592488 -0.67703277 116 92 104
-0.025194027 -0.38654548 -0.6767177 139 133 138
-0.023715923 -0.38644868 -0.67689252 124 109 116
-0.022496508 -0.3850103 -0.67696375 118 94 105
-0.024740359 -0.38485938 -0.67668229 143 132 140
-0.01974049 -0.3852551 -0.6772548 118 95 107
-0.021285193 -0.38676727 -0.67713201 126 100 117
-0.021360153 -0.38699073 -0.67712885 127 102 119
-0.019464238 -0.3856332 -0.67728925 122 101 113
-0.028464943 -0.39197758 -0.67664403 157 139 158
-0.028226594 -0.39172071 -0.67665672 155 138 156
-0.026010089 -0.38887978 -0.67676276 138 135 137
-0.028745247 -0.39027217 -0.67657799 167 158 172
-0.028271139 -0.39117715 -0.67664641 157 143 158
-0.028929643 -0.3908104 -0.67657959 167 155 172
-0.025895722 -0.38872364 -0.67676741 137 135 136
-0.030306982 -0.39635259 -0.67648327 165 145 166
-0.030144606 -0.39536363 -0.67650849 166 145 167
-0.030388996 -0.3960605 -0.67648226 166 146 168
-0.029350273 -0.39347947 -0.67658812 163 142 163
-0.028940549 -0.39303851 -0.67661017 161 139 162
-0.029282551 -0.39411643 -0.67658263 162 139 161
0 0 0 1 0 0 0 1 0 0 0 1 0 0 0 0 0 495 1 0 0
