ply
format ascii 1.0
comment PCL generated
element vertex 206
property float x
property float y
property float z
property uchar red
property uchar green
property uchar blue
element camera 1
property float view_px
property float view_py
property float view_pz
property float x_axisx
property float x_axisy
property float x_axisz
property float y_axisx
property float y_axisy
property float y_axisz
property float z_axisx
property float z_axisy
property float z_axisz
property float focal
property float scalex
property float scaley
property float centerx
property float centery
property int viewportx
property int viewporty
property float k1
property float k2
end_header
-0.26316771 -0.0018708296 -0.83868581 175 105 161
-0.26159817 -0.0018198639 -0.83910012 185 140 173
-0.26323041 -0.00062205805 -0.8395378 181 120 166
-0.26235941 -0.001227483 -0.83932769 183 131 170
-0.26155713 -0.00046424789 -0.84002453 188 152 176
-0.26373011 -0.0028861118 -0.83793759 165 94 145
-0.26379246 -0.0053061433 -0.8364771 149 98 115
-0.26431176 -0.0040805652 -0.83711576 154 93 121
-0.26463553 -0.0045132535 -0.8367973 149 92 111
-0.26485005 -0.0046372497 -0.83668375 146 91 106
-0.26091418 -0.0053806514 -0.83756298 153 119 147
-0.26313266 -0.0028210422 -0.83820397 167 98 152
-0.26114815 -0.004514474 -0.8379876 158 115 155
-0.26173991 -0.0053195152 -0.8372677 153 113 139
-0.26334709 -0.00288437 -0.83807993 166 97 149
-0.26297426 -0.0038789352 -0.83763421 160 101 142
-0.26154464 -0.0036596833 -0.83827257 165 117 159
-0.26234114 -0.0019996208 -0.83880788 179 121 166
-0.26098007 -0.0038694344 -0.83831692 166 127 161
-0.26147944 -0.0025651765 -0.83876801 178 133 168
-0.25634211 -0.0050847409 -0.84011906 160 189 170
-0.25748387 -0.0055909366 -0.83904064 155 168 163
-0.2610155 -0.0068214368 -0.83686703 146 107 133
-0.26223457 -0.0062827934 -0.83657318 147 106 125
-0.26187998 -0.0073181568 -0.83632809 143 96 120
-0.26054737 -0.0070472262 -0.83697277 146 108 136
-0.26225969 -0.0059369639 -0.83669305 148 111 127
-0.25712103 -0.0080959089 -0.83771753 159 153 161
-0.25686607 -0.0078546992 -0.83793885 160 161 164
-0.25770485 -0.0093505541 -0.83656836 165 136 161
-0.2577669 -0.0080545815 -0.83775353 148 136 148
-0.25789142 -0.0095884334 -0.83635026 164 130 160
-0.25663722 -0.0075309202 -0.83823562 159 167 165
-0.25638497 -0.007495936 -0.83826834 163 174 170
-0.25661886 -0.0063249827 -0.83919704 150 172 159
-0.25925827 -0.0068119774 -0.83764315 147 124 148
-0.25802925 -0.0077179163 -0.83794063 144 132 144
-0.25778988 -0.0061036223 -0.83867222 150 156 158
-0.25811824 -0.0077174683 -0.83789462 144 131 143
-0.25904334 -0.0062578022 -0.83796328 150 134 153
-0.25961497 -0.0089775203 -0.83664328 138 91 129
-0.25707558 -0.01173888 -0.83840287 146 109 140
-0.25691009 -0.011197621 -0.8371774 167 138 163
-0.2571387 -0.011553496 -0.83752525 158 125 152
-0.25619566 -0.011089164 -0.83953494 144 113 143
-0.25758967 -0.01206123 -0.83754492 150 112 141
-0.25758222 -0.011863198 -0.83689362 160 125 151
-0.25778452 -0.011949016 -0.83641517 164 128 154
-0.25633141 -0.011369363 -0.83997548 135 99 132
-0.25847241 -0.013293864 -0.8383925 120 65 105
-0.25830236 -0.01324156 -0.83886009 115 59 102
-0.2579996 -0.012907305 -0.83887279 121 69 109
-0.25773272 -0.012561103 -0.83870858 129 82 119
-0.259882 -0.028737947 -0.83782232 90 88 90
-0.26018587 -0.027908782 -0.84015554 232 225 229
-0.26027155 -0.029175339 -0.83886701 150 145 147
-0.25988859 -0.028413668 -0.83827013 118 115 118
-0.26550898 -0.015217368 -0.83228976 163 116 121
-0.2656619 -0.015430225 -0.83216858 165 119 124
-0.26567641 -0.016579805 -0.83192092 167 122 128
-0.26434621 -0.017100932 -0.83226061 184 146 165
-0.26551494 -0.016933089 -0.83190393 169 125 133
-0.26498398 -0.016918223 -0.8320843 176 134 147
-0.26619828 -0.016439753 -0.83177477 160 112 114
-0.25640401 -0.017537931 -0.83171099 225 213 219
-0.2648313 -0.018924408 -0.83198935 177 135 153
-0.26429281 -0.021309182 -0.83200818 200 172 180
-0.26429737 -0.020515228 -0.83205104 196 165 176
-0.26488513 -0.018887458 -0.83197623 176 134 151
-0.26511693 -0.0196801 -0.8318671 176 134 147
-0.26588085 -0.018143635 -0.83165061 164 117 125
-0.26594749 -0.019120947 -0.83162588 162 112 123
-0.26323363 -0.021112842 -0.83233935 204 178 189
-0.25671139 -0.017623013 -0.83191252 217 203 209
-0.26521537 -0.024434065 -0.83154279 171 132 138
-0.26425302 -0.024833042 -0.83133757 178 150 156
-0.26547816 -0.024594909 -0.8315267 166 125 130
-0.26407751 -0.02216333 -0.83203304 202 178 184
-0.26495746 -0.022311293 -0.83190775 187 153 159
-0.2601077 -0.023293464 -0.83180672 171 125 146
-0.25997862 -0.025073113 -0.82998049 180 143 152
-0.26120842 -0.022296822 -0.83235353 181 141 159
-0.25995255 -0.023928897 -0.83120513 172 129 147
-0.26183277 -0.02265374 -0.83168644 192 160 171
-0.26158348 -0.023145519 -0.83128113 191 160 170
-0.26341465 -0.024151741 -0.8313688 190 168 175
-0.26189259 -0.023695111 -0.83095032 193 165 173
-0.26060244 -0.025193604 -0.83009177 180 147 155
-0.26261964 -0.025176791 -0.83081257 181 155 163
-0.2630747 -0.023055751 -0.83154088 199 176 183
-0.26256791 -0.024544295 -0.83096325 186 161 168
-0.25981113 -0.025719775 -0.82919818 170 129 139
-0.25991198 -0.025677495 -0.82959217 176 137 149
-0.2605018 -0.026163373 -0.82992965 179 138 154
-0.26119679 -0.025702391 -0.83023709 179 145 156
-0.26338181 -0.026324723 -0.83098698 180 149 164
-0.26255247 -0.026781062 -0.83067346 181 142 162
-0.26279056 -0.026094336 -0.83078665 180 148 162
-0.26228407 -0.026885793 -0.83057374 181 140 161
-0.26208079 -0.027189804 -0.83048886 181 137 160
-0.25505438 -0.020898584 -0.82403511 210 194 201
-0.25590912 -0.023652898 -0.82316029 213 195 205
-0.25607425 -0.023550045 -0.82389063 213 196 207
-0.25577211 -0.022875901 -0.82398748 215 200 209
-0.25581962 -0.023504836 -0.8231042 212 194 203
-0.25584939 -0.022783877 -0.82452083 219 206 216
-0.25580567 -0.023587584 -0.82289124 211 192 201
-0.26436982 -0.0057251733 -0.8361122 143 96 103
-0.26381424 -0.0085497918 -0.83534384 173 130 141
-0.26367363 -0.0059982608 -0.83612788 148 102 112
-0.26433563 -0.0073029511 -0.83546495 152 106 112
-0.26478851 -0.0059591327 -0.83588493 141 93 98
-0.26178598 -0.0074807946 -0.83630592 143 94 120
-0.2629272 -0.0064210542 -0.83624858 145 99 115
-0.26313138 -0.0086684022 -0.83554047 169 125 141
-0.26179051 -0.0084262518 -0.83602327 148 98 125
-0.26311186 -0.0073344698 -0.83592373 155 108 124
-0.26232633 -0.0082916198 -0.83589578 154 106 129
-0.26173136 -0.0079525383 -0.83617556 143 91 118
-0.2618812 -0.0093790144 -0.83572578 160 111 138
-0.25919047 -0.0096459361 -0.83631426 145 96 135
-0.26460141 -0.012682321 -0.83350956 163 112 120
-0.26368105 -0.012093761 -0.83414841 178 132 147
-0.26010635 -0.010243716 -0.83596563 139 83 124
-0.26128027 -0.011825891 -0.83494735 151 97 128
-0.26302284 -0.013422163 -0.83379757 167 116 135
-0.2622596 -0.01312098 -0.83410984 161 109 131
-0.26318955 -0.013211358 -0.83386236 168 116 136
-0.26286113 -0.013442439 -0.83382332 166 115 134
-0.26263773 -0.010406328 -0.83513212 171 125 147
-0.26028329 -0.0097662434 -0.83611 142 88 128
-0.26304075 -0.011750454 -0.83448178 171 123 143
-0.26193359 -0.011278385 -0.8350085 159 107 135
-0.26082116 -0.010431486 -0.83568358 147 93 129
-0.26266387 -0.010630995 -0.83503616 171 124 146
-0.25765476 -0.011606699 -0.83559823 173 142 162
-0.25860384 -0.012559157 -0.83515769 159 119 142
-0.25881505 -0.012892093 -0.83557153 152 109 135
-0.25757471 -0.011485319 -0.83546287 175 145 164
-0.25783968 -0.010747424 -0.83579963 169 135 160
-0.25877067 -0.011498128 -0.83543801 156 113 141
-0.25766057 -0.010184962 -0.83607018 170 137 164
-0.25698337 -0.010201634 -0.83606267 181 156 178
-0.25900695 -0.012103535 -0.83514667 153 109 135
-0.25871024 -0.0099222958 -0.83619565 153 108 143
-0.26397455 -0.014374752 -0.83319712 173 124 140
-0.26472944 -0.014538203 -0.83282036 166 116 126
-0.26422414 -0.015943641 -0.83262825 179 136 153
-0.2644746 -0.015576529 -0.83262682 174 130 144
-0.26348034 -0.017481452 -0.83248246 191 156 180
-0.26333335 -0.014255842 -0.8334778 172 124 140
-0.26290175 -0.017307317 -0.83272803 184 150 170
-0.26267415 -0.016685884 -0.83298695 179 142 160
-0.26320222 -0.016924173 -0.83273935 185 149 170
-0.26220632 -0.016574968 -0.83317691 174 138 153
-0.2613776 -0.016461644 -0.83348906 165 130 140
-0.25984579 -0.016831329 -0.83381802 154 123 130
-0.26079389 -0.016303457 -0.83370298 159 125 133
-0.26151818 -0.013892561 -0.8339687 158 109 128
-0.26057321 -0.016745279 -0.8336736 159 127 133
-0.26197064 -0.014242711 -0.83380777 162 115 131
-0.26164266 -0.014102787 -0.83390439 159 111 129
-0.25966302 -0.014933797 -0.83465493 146 103 123
-0.25964358 -0.014084999 -0.83489597 144 95 120
-0.25964978 -0.015940022 -0.83454007 149 111 127
-0.25837395 -0.015618635 -0.83612651 176 144 163
-0.25943419 -0.0160276 -0.83490288 152 116 132
-0.25841597 -0.016750323 -0.83543813 183 159 169
-0.2588717 -0.015228291 -0.83588612 161 123 145
-0.25912982 -0.016171964 -0.83510399 161 128 143
-0.25688857 -0.017371694 -0.8325786 214 199 205
-0.26089543 -0.01951354 -0.83308923 167 125 144
-0.26186755 -0.018059557 -0.83293945 176 141 159
-0.26226336 -0.018032329 -0.83280981 180 145 165
-0.26172385 -0.019078745 -0.83286381 175 134 156
-0.26084217 -0.019881217 -0.83306241 167 122 143
-0.26090682 -0.019037936 -0.83314317 167 128 145
-0.26098734 -0.020856025 -0.83294386 171 126 146
-0.26182011 -0.020671535 -0.83273888 182 143 161
-0.26247329 -0.021373719 -0.83254153 194 163 175
-0.26050708 -0.021350583 -0.8330453 166 119 139
-0.26111957 -0.021524899 -0.83285892 176 134 151
-0.25690681 -0.025027085 -0.82479531 202 181 194
-0.2569001 -0.025189457 -0.82490855 203 183 195
-0.26018515 -0.028093796 -0.827443 154 96 131
-0.2566987 -0.02556837 -0.82694262 216 199 208
-0.25972137 -0.025977496 -0.82849479 159 115 124
-0.2579073 -0.025744444 -0.82760251 193 165 174
-0.25959679 -0.026380632 -0.82797402 161 115 128
-0.25872293 -0.027207354 -0.82646912 175 132 156
-0.25847703 -0.026192857 -0.82736117 182 147 160
-0.25851017 -0.026612511 -0.8269425 180 142 160
-0.25718358 -0.026636576 -0.8259564 205 178 199
-0.25599018 -0.02551681 -0.82627326 230 219 230
-0.25690532 -0.026339272 -0.8256098 209 185 204
-0.25702989 -0.025744004 -0.82509524 202 179 195
-0.25754607 -0.02711433 -0.82529879 195 162 188
-0.25968716 -0.028485045 -0.826509 152 91 130
-0.25961694 -0.02698257 -0.82739753 159 109 129
-0.25927967 -0.029369174 -0.82514364 158 98 143
-0.25948277 -0.029470002 -0.82613033 151 88 134
-0.26467088 0.0016152315 -0.84075028 170 118 145
-0.26425284 0.0010295867 -0.84043634 176 120 155
-0.26387143 0.0010689724 -0.84057164 181 128 164
-0.26271164 0.00035669716 -0.84031415 184 135 170
-0.25635859 -0.0048738043 -0.84033483 162 188 172
0 0 0 1 0 0 0 1 0 0 0 1 0 0 0 0 0 206 1 0 0
