ply
format ascii 1.0
comment PCL generated
element vertex 111
property float x
property float y
property float z
property uchar red
property uchar green
property uchar blue
element camera 1
property float view_px
property float view_py
property float view_pz
property float x_axisx
property float x_axisy
property float x_axisz
property float y_axisx
property float y_axisy
property float y_axisz
property float z_axisx
property float z_axisy
property float z_axisz
property float focal
property float scalex
property float scaley
property float centerx
property float centery
property int viewportx
property int viewporty
property float k1
property float k2
end_header
-0.20303638 -0.20862786 -0.80667907 39 27 25
-0.20269264 -0.21205951 -0.80669355 131 121 125
-0.20331065 -0.21090668 -0.80858493 66 59 60
-0.20345125 -0.21051145 -0.80878425 52 46 47
-0.20304678 -0.21114251 -0.8073321 96 87 90
-0.20310782 -0.21180096 -0.80886006 82 75 76
-0.20279445 -0.21188568 -0.807033 120 110 114
-0.20303129 -0.2097424 -0.80684775 53 42 43
-0.20273598 -0.21108294 -0.80623537 108 96 100
-0.20239237 -0.21122484 -0.80537838 118 104 108
-0.20274258 -0.21071811 -0.80621493 94 81 85
-0.20296592 -0.20953324 -0.80666071 46 34 35
-0.20269726 -0.21405526 -0.80848825 134 126 126
-0.20266511 -0.21433401 -0.80836052 141 133 133
-0.20256776 -0.21311842 -0.80738306 139 129 133
-0.20126446 -0.20697445 -0.79831761 116 111 89
-0.20048063 -0.20657368 -0.79727119 116 109 97
-0.19989029 -0.208956 -0.7978856 83 81 79
-0.20048483 -0.20720056 -0.79759431 107 102 90
-0.20169604 -0.21190442 -0.80071032 45 43 39
-0.20182604 -0.21209984 -0.80095828 49 46 44
-0.20145221 -0.21191981 -0.80030227 33 32 28
-0.20127249 -0.20997691 -0.79958057 65 65 51
-0.19955933 -0.21236464 -0.79775107 86 78 75
-0.20048837 -0.21070525 -0.79864573 77 74 63
-0.20049168 -0.21209085 -0.79894662 48 45 41
-0.20068978 -0.21067329 -0.79890978 68 66 55
-0.20011398 -0.21276543 -0.79858291 51 46 45
-0.19974211 -0.2116607 -0.79785323 91 84 78
-0.19921018 -0.21242729 -0.79734445 94 85 84
-0.19990106 -0.21050099 -0.79796928 87 83 77
-0.20151798 -0.21339479 -0.80078524 39 34 37
-0.20128444 -0.21450937 -0.80074871 81 70 76
-0.20072716 -0.21372342 -0.79972667 58 50 53
-0.19846439 -0.21706031 -0.79738224 108 83 83
-0.19853643 -0.21721134 -0.79748935 112 88 88
-0.20569876 -0.204879 -0.81644583 174 163 110
-0.20484096 -0.20457646 -0.81611949 192 180 125
-0.19764848 -0.21251486 -0.79290152 104 79 90
-0.19727102 -0.21358867 -0.79275465 99 73 82
-0.1968251 -0.21412262 -0.79232013 102 76 83
-0.20230456 -0.2094321 -0.80463576 33 19 20
-0.20232794 -0.20942293 -0.80488151 43 27 29
-0.20192364 -0.21242325 -0.80185342 39 34 36
-0.20216267 -0.21224447 -0.80432755 129 117 122
-0.20196804 -0.2125854 -0.80239683 67 60 63
-0.20211577 -0.21212573 -0.8037762 103 92 97
-0.20214349 -0.2106376 -0.80338609 34 23 24
-0.2023582 -0.20913477 -0.80427444 56 42 39
-0.20220272 -0.21030265 -0.80306751 57 47 44
-0.20208827 -0.21115588 -0.80222499 56 49 46
-0.20199537 -0.21344699 -0.80295324 103 95 100
-0.20198892 -0.21325594 -0.80283844 98 90 95
-0.20007253 -0.20690078 -0.79692411 112 104 97
-0.19926161 -0.20796658 -0.79652339 94 86 90
-0.19983855 -0.20725633 -0.79684335 106 98 95
-0.19908829 -0.20756359 -0.7959795 97 86 91
-0.19904743 -0.20863836 -0.79614872 108 100 108
-0.19896616 -0.20749103 -0.79569227 100 87 93
-0.19923195 -0.20886531 -0.79709822 86 82 88
-0.19869184 -0.21088499 -0.79594254 88 76 83
-0.19878528 -0.2117587 -0.79627824 91 79 83
-0.19882746 -0.21067351 -0.79628032 88 78 84
-0.19863757 -0.21281151 -0.79599339 94 79 82
-0.19908282 -0.21046208 -0.79693538 88 81 85
-0.19885831 -0.21010813 -0.79630494 86 77 84
-0.19892055 -0.20923437 -0.79579461 118 110 118
-0.19888774 -0.20901303 -0.7953794 135 126 135
-0.19793439 -0.21157102 -0.79338199 125 102 114
-0.19798529 -0.21661483 -0.79589635 99 72 71
-0.19733101 -0.21584043 -0.79348761 92 64 65
-0.19744837 -0.21573509 -0.79382694 93 65 67
-0.19752368 -0.21542871 -0.7939533 93 66 68
-0.19808887 -0.21550648 -0.7958113 98 72 75
-0.19831863 -0.21654911 -0.79695326 102 76 75
-0.19808961 -0.21517578 -0.79567939 98 72 76
-0.19811329 -0.21376614 -0.79504526 95 72 78
-0.19886765 -0.21360138 -0.79696196 96 82 82
-0.19808026 -0.21393345 -0.79504049 95 72 78
-0.19823092 -0.21562916 -0.79627794 99 74 76
-0.19845858 -0.21376093 -0.79595733 96 77 80
-0.19737166 -0.21689214 -0.79395336 95 67 65
-0.20633706 -0.20852281 -0.81245679 61 60 42
-0.20512974 -0.20686087 -0.81243062 140 136 90
-0.20508236 -0.20735109 -0.81182724 113 109 73
-0.20526257 -0.20828649 -0.81108588 62 61 41
-0.20297465 -0.20712772 -0.81048167 62 35 34
-0.20402546 -0.20814052 -0.80919361 48 39 34
-0.2028053 -0.20705575 -0.81065524 61 32 32
-0.20455953 -0.20752189 -0.81116462 99 93 62
-0.20439161 -0.20874119 -0.80969 29 25 18
-0.2045726 -0.20635691 -0.81270188 152 141 95
-0.2042257 -0.20769194 -0.81080973 80 72 49
-0.20689707 -0.20905206 -0.81284249 45 44 33
-0.20642386 -0.20906395 -0.81213248 40 39 30
-0.20583169 -0.21028993 -0.81191522 84 81 77
-0.20554529 -0.21020465 -0.81143427 78 75 71
-0.20586807 -0.21062955 -0.81215858 99 95 92
-0.20521562 -0.21200378 -0.81180984 139 133 135
-0.20470063 -0.21172725 -0.81088793 111 106 107
-0.203595 -0.21161389 -0.80937487 79 75 74
-0.20455126 -0.21092078 -0.81029832 78 75 73
-0.2034943 -0.21240723 -0.80962831 105 100 100
-0.20440587 -0.21174254 -0.8105067 104 99 100
-0.20432743 -0.21206917 -0.81056225 114 109 110
-0.20352098 -0.21142861 -0.80924809 73 68 67
-0.20369491 -0.21069516 -0.80922246 55 50 49
-0.20381048 -0.21374455 -0.81053954 143 135 139
-0.20347171 -0.21360175 -0.81004953 132 125 128
-0.20314649 -0.21387924 -0.80962735 132 124 126
-0.20280784 -0.21332462 -0.80899537 116 110 109
0 0 0 1 0 0 0 1 0 0 0 1 0 0 0 0 0 111 1 0 0
