ply
format ascii 1.0
comment PCL generated
element vertex 132
property float x
property float y
property float z
property uchar red
property uchar green
property uchar blue
element camera 1
property float view_px
property float view_py
property float view_pz
property float x_axisx
property float x_axisy
property float x_axisz
property float y_axisx
property float y_axisy
property float y_axisz
property float z_axisx
property float z_axisy
property float z_axisz
property float focal
property float scalex
property float scaley
property float centerx
property float centery
property int viewportx
property int viewporty
property float k1
property float k2
end_header
-0.23407927 0.54578841 -0.88400608 90 52 55
-0.23433925 0.54638386 -0.88455999 93 55 60
-0.23461142 0.54509068 -0.88653904 100 42 76
-0.2343654 0.54497057 -0.88567251 97 43 68
-0.23460673 0.54509115 -0.88652128 100 42 75
-0.2344169 0.54593271 -0.88544053 95 50 66
-0.23469011 0.54492778 -0.88690501 102 40 79
-0.2347938 0.5460605 -0.88679284 101 48 77
-0.23912893 0.54118258 -0.8836686 127 89 89
-0.23287702 0.54103667 -0.88698745 62 32 45
-0.23325405 0.54380262 -0.88379419 80 41 46
-0.23276459 0.54232556 -0.88481063 71 31 43
-0.23322654 0.54397696 -0.88346785 81 40 45
-0.23329231 0.5420875 -0.8866629 71 35 51
-0.23368278 0.54360127 -0.88546288 82 41 54
-0.23339772 0.54207367 -0.88708121 72 34 54
-0.23330772 0.54225433 -0.88642734 72 36 50
-0.2337283 0.54362381 -0.88559347 83 40 56
-0.23364878 0.54456562 -0.88364142 85 47 48
-0.23951893 0.53901821 -0.88414633 138 115 102
-0.23838268 0.53797781 -0.88366032 125 103 93
-0.23861441 0.53753752 -0.88385808 135 115 100
-0.23927753 0.53924716 -0.88397497 131 106 97
-0.23817265 0.53727496 -0.88364774 128 108 95
-0.23848449 0.54094738 -0.88328701 121 81 82
-0.23947789 0.54024261 -0.8839398 127 98 93
-0.23897034 0.54027039 -0.88365388 124 91 89
-0.23268019 0.53988785 -0.88458019 77 38 52
-0.23270404 0.53883547 -0.88334066 80 40 54
-0.23355049 0.53860563 -0.88406813 80 46 56
-0.23296165 0.54053664 -0.88625872 67 35 48
-0.2331049 0.54037637 -0.8863551 66 35 48
-0.23410515 0.53775609 -0.88388455 80 51 58
-0.23344249 0.53959715 -0.88601607 72 42 52
-0.23392269 0.53836799 -0.88546538 83 54 59
-0.23310167 0.54051602 -0.88684714 66 36 48
-0.23376429 0.53884459 -0.88632184 83 53 59
-0.23367986 0.53900123 -0.88585472 78 48 56
-0.23871292 0.53674477 -0.88395059 142 121 105
-0.23780766 0.53676826 -0.88343984 122 100 92
-0.23819131 0.53649539 -0.88363594 131 107 98
-0.23860481 0.53705627 -0.88391346 139 120 103
-0.23320973 0.53485864 -0.88705808 93 53 68
-0.23440346 0.53569657 -0.88593853 102 64 73
-0.23413394 0.53618109 -0.88681906 103 70 73
-0.23367369 0.53553116 -0.88692415 99 62 71
-0.23433125 0.53361225 -0.88407838 94 40 68
-0.23409526 0.53592968 -0.88664162 102 67 73
-0.23376359 0.53458899 -0.88589144 95 51 69
-0.23449247 0.53550446 -0.88383645 92 51 66
-0.23445204 0.53583431 -0.88349181 89 50 64
-0.23442054 0.53616124 -0.88334769 87 51 63
-0.23448044 0.53654563 -0.88541883 99 67 71
-0.23447822 0.53572947 -0.88390934 92 52 66
-0.2344975 0.53581709 -0.88451129 95 57 68
-0.23305729 0.5324077 -0.88632977 88 41 66
-0.23353291 0.53276867 -0.88531196 89 38 66
-0.23401646 0.53247595 -0.88470805 92 43 68
-0.2329938 0.53216267 -0.88659418 88 44 67
-0.23304382 0.53177059 -0.88676804 89 49 68
-0.23434258 0.53580338 -0.88823271 87 61 60
-0.23347424 0.53459179 -0.88794369 82 47 58
-0.23325233 0.53456712 -0.88755637 86 48 62
-0.2335812 0.5345614 -0.88817692 79 45 56
-0.23444994 0.53616285 -0.88803774 92 66 63
-0.23348476 0.53402215 -0.8885901 71 37 49
-0.23523656 0.5359391 -0.8901754 75 45 54
-0.23461261 0.53594029 -0.88867486 85 59 59
-0.23476876 0.53568399 -0.88933933 78 51 54
-0.23552313 0.53684372 -0.88984287 88 54 65
-0.23581192 0.53700781 -0.89035159 87 51 65
-0.23532911 0.53567201 -0.89069933 69 39 49
-0.2353884 0.53617287 -0.89027637 77 46 56
-0.23272333 0.53235304 -0.88725668 87 45 66
-0.23363891 0.53211701 -0.88888597 68 40 49
-0.23290685 0.53213477 -0.88745236 85 46 65
-0.23401313 0.53292584 -0.89023739 49 26 31
-0.23391046 0.53199881 -0.88933331 63 40 44
-0.23437996 0.52849275 -0.88995397 59 39 41
-0.23659967 0.54528421 -0.88230348 121 89 90
-0.23663601 0.54570198 -0.8825649 119 87 89
-0.23522049 0.54501599 -0.88249499 106 69 71
-0.2346991 0.54551524 -0.88303405 96 59 60
-0.23767669 0.54481208 -0.88293636 134 111 105
-0.23755835 0.5432775 -0.88273835 124 90 90
-0.23684497 0.54488498 -0.88229078 126 96 95
-0.23677112 0.54137534 -0.88206387 98 58 65
-0.23764509 0.54187644 -0.88272339 116 76 79
-0.2365604 0.54318929 -0.88198608 110 73 77
-0.23682757 0.54195124 -0.88212925 104 65 71
-0.23303202 0.543212 -0.88278151 81 39 47
-0.23380162 0.54327917 -0.88236517 90 50 58
-0.23370604 0.54456973 -0.88303083 87 49 50
-0.23359138 0.5440343 -0.88283175 86 47 51
-0.23453052 0.5437901 -0.88224542 99 60 67
-0.23437174 0.54275411 -0.88192117 96 56 67
-0.23550354 0.54264092 -0.88184512 99 60 69
-0.23621759 0.54165471 -0.88175881 93 54 62
-0.23553596 0.54341531 -0.88187563 106 68 75
-0.23427221 0.54105163 -0.88185596 82 39 54
-0.2322937 0.54232955 -0.88309717 76 29 43
-0.23774312 0.53988969 -0.88297123 113 78 78
-0.23720656 0.5408662 -0.88239515 103 63 68
-0.23741582 0.53757131 -0.88316911 112 89 83
-0.23806193 0.54041827 -0.8831045 117 78 80
-0.23681824 0.53711259 -0.882779 102 80 78
-0.23411728 0.53761077 -0.88308525 84 52 60
-0.23406774 0.53922617 -0.88223273 83 47 59
-0.23415364 0.53830439 -0.88275242 85 51 61
-0.23400627 0.53915602 -0.88230669 83 47 59
-0.23554963 0.53766799 -0.88243586 90 62 68
-0.23575354 0.54054421 -0.88184077 87 48 58
-0.23562269 0.54086083 -0.88179559 86 46 57
-0.23555511 0.53957129 -0.88201737 88 52 61
-0.23459405 0.539406 -0.88210577 85 49 60
-0.23494741 0.5406571 -0.88187248 84 44 56
-0.23324007 0.54024839 -0.8820489 79 38 54
-0.23219252 0.54083228 -0.88251752 76 32 49
-0.23730901 0.53679657 -0.88314122 112 89 85
-0.23745468 0.53503346 -0.88306463 118 80 91
-0.23653272 0.53456938 -0.88221782 106 59 80
-0.23671971 0.53326887 -0.88220429 113 56 85
-0.23697977 0.53478497 -0.88263661 111 68 86
-0.2351401 0.53379893 -0.88276815 96 43 71
-0.2348696 0.53485471 -0.88291937 92 46 67
-0.2351478 0.53550094 -0.88265663 93 52 69
-0.23477924 0.53646529 -0.88293505 88 54 64
-0.23557456 0.53548443 -0.88247412 96 55 71
-0.23530115 0.5361225 -0.88267338 92 56 68
-0.2361092 0.53274506 -0.88193011 102 47 76
-0.23544605 0.53241605 -0.88238984 94 42 68
-0.23627995 0.5331468 -0.88188028 107 48 80
0 0 0 1 0 0 0 1 0 0 0 1 0 0 0 0 0 132 1 0 0
