ply
format ascii 1.0
comment PCL generated
element vertex 108
property float x
property float y
property float z
property uchar red
property uchar green
property uchar blue
element camera 1
property float view_px
property float view_py
property float view_pz
property float x_axisx
property float x_axisy
property float x_axisz
property float y_axisx
property float y_axisy
property float y_axisz
property float z_axisx
property float z_axisy
property float z_axisz
property float focal
property float scalex
property float scaley
property float centerx
property float centery
property int viewportx
property int viewporty
property float k1
property float k2
end_header
-0.17686509 -0.12316744 -0.77186453 115 96 111
-0.17523116 -0.12480163 -0.77185321 143 122 134
-0.17591816 -0.12462614 -0.77236933 133 112 125
-0.17703791 -0.1236206 -0.77261025 118 98 113
-0.17553121 -0.12524733 -0.7725144 138 116 129
-0.17532651 -0.12524115 -0.77231187 141 119 132
-0.17590545 -0.12490845 -0.77264309 135 113 126
-0.17694055 -0.12405685 -0.77321202 131 110 124
-0.17571025 -0.12576848 -0.77340961 151 130 141
-0.17578703 -0.12543233 -0.77323389 148 127 138
-0.17614596 -0.12519321 -0.77343625 146 125 137
-0.1860382 -0.12621212 -0.78631943 124 99 127
-0.18564646 -0.12657741 -0.78598517 129 103 131
-0.18603516 -0.12656076 -0.78642583 128 103 131
-0.18769883 -0.12616666 -0.78849465 116 97 120
-0.18632035 -0.12623498 -0.78665143 124 99 127
-0.18773201 -0.12548994 -0.78820157 111 90 116
-0.18706372 -0.12576082 -0.78742683 117 94 121
-0.18637908 -0.12660314 -0.78691536 126 103 129
-0.18541922 -0.12587303 -0.78559184 120 95 123
-0.18733239 -0.12792577 -0.78854561 119 100 119
-0.1870636 -0.12903419 -0.78835845 117 93 113
-0.1872059 -0.12811142 -0.78840327 119 99 118
-0.18720645 -0.1283384 -0.78844064 119 97 117
-0.18628483 -0.12714891 -0.78699344 128 105 130
-0.18632451 -0.12702012 -0.7870267 129 106 131
-0.1866897 -0.12924266 -0.78787267 120 95 114
-0.18595029 -0.12907164 -0.78676498 134 112 129
-0.18688025 -0.12988923 -0.78821874 118 94 111
-0.18712056 -0.13023984 -0.78860843 115 91 107
-0.18589234 -0.12826025 -0.78659785 132 108 129
-0.18538049 -0.12922151 -0.78602064 144 124 137
-0.18523449 -0.12756352 -0.78567672 137 113 136
-0.18752021 -0.13306612 -0.78930509 120 101 106
-0.18717712 -0.13194513 -0.78877628 122 101 109
-0.18533227 -0.12602317 -0.78550094 122 97 125
-0.18526523 -0.12533219 -0.78515786 114 90 117
-0.18509425 -0.12672229 -0.78531784 132 107 133
-0.18290794 -0.12546389 -0.78214413 134 102 132
-0.18347955 -0.12644489 -0.78328842 141 110 140
-0.18292464 -0.12466247 -0.78177696 124 94 123
-0.18329705 -0.12536344 -0.78255236 129 99 129
-0.1850033 -0.12659112 -0.78514737 131 106 133
-0.18312299 -0.12588595 -0.78260022 137 105 136
-0.18434376 -0.12722042 -0.78458488 141 114 141
-0.18468221 -0.12758012 -0.7850318 140 115 139
-0.18447591 -0.12775391 -0.78481376 143 117 140
-0.19285378 -0.13468538 -0.79731154 104 80 82
-0.19322512 -0.1347952 -0.79773641 109 88 88
-0.17780891 -0.12485238 -0.77519381 150 135 141
-0.17798069 -0.12460166 -0.77514946 145 129 136
-0.17909335 -0.12368229 -0.77610457 121 98 117
-0.17960696 -0.12393634 -0.77737319 122 97 118
-0.17834803 -0.12331852 -0.77426845 120 101 116
-0.17890711 -0.12449073 -0.77654099 134 115 128
-0.17927462 -0.12328583 -0.77606845 114 89 111
-0.17697263 -0.12485433 -0.7741133 145 126 137
-0.1906492 -0.12652119 -0.79277748 111 88 109
-0.19038406 -0.12662297 -0.79245687 112 92 112
-0.19064792 -0.12680674 -0.79292154 113 91 112
-0.19106247 -0.12588254 -0.79299319 105 83 103
-0.19027878 -0.12955199 -0.79295439 108 87 100
-0.18969457 -0.12710854 -0.79168499 116 102 120
-0.18998864 -0.12729341 -0.7921322 115 98 116
-0.19018984 -0.12949421 -0.79281884 108 88 101
-0.18956755 -0.12893647 -0.79166931 111 92 108
-0.18964213 -0.12976687 -0.7918669 108 86 101
-0.1898948 -0.1304673 -0.79239011 105 82 95
-0.18825765 -0.12972109 -0.79009277 110 88 104
-0.18896791 -0.12887435 -0.79087538 112 93 109
-0.18872495 -0.12932953 -0.79061908 110 90 106
-0.18929815 -0.12804459 -0.7912091 114 97 115
-0.18800929 -0.12831783 -0.78953248 114 96 113
-0.18798853 -0.12953383 -0.7897042 110 89 105
-0.18876328 -0.12715581 -0.79039031 117 103 121
-0.18992987 -0.13258316 -0.79246068 111 91 96
-0.19016246 -0.1319371 -0.79290617 108 87 94
-0.19024238 -0.13254443 -0.79304844 111 92 95
-0.18948376 -0.13329735 -0.79160225 123 107 106
-0.18950023 -0.13286722 -0.79164118 119 102 103
-0.18929306 -0.13300826 -0.79137111 120 103 104
-0.18889633 -0.1334817 -0.79092133 123 106 106
-0.18883404 -0.13255323 -0.7908684 115 94 101
-0.18792428 -0.13245969 -0.78980285 115 93 102
-0.18897699 -0.13185194 -0.79103953 110 87 98
-0.18843663 -0.13108119 -0.79038703 107 82 96
-0.18813576 -0.13301732 -0.79006243 118 97 103
-0.18216808 -0.12492748 -0.78102684 127 93 127
-0.18199371 -0.12485522 -0.7807911 125 91 125
-0.18169057 -0.12407043 -0.78006864 111 77 113
-0.18066688 -0.12433641 -0.77908373 120 94 119
-0.1804444 -0.12464335 -0.77898896 126 102 124
-0.17985511 -0.12523745 -0.77863336 139 118 134
-0.18001491 -0.12437908 -0.77830595 125 101 122
-0.17941013 -0.12479097 -0.77779895 136 114 129
-0.18028723 -0.1243426 -0.7786299 123 98 120
-0.17970565 -0.12473774 -0.77814174 133 111 127
-0.19090854 -0.12942547 -0.79388666 100 79 94
-0.19126675 -0.12758532 -0.79407799 103 82 101
-0.19148561 -0.12727401 -0.79436702 100 80 100
-0.19114545 -0.1282873 -0.79402989 101 81 98
-0.19152303 -0.13473298 -0.79515046 112 95 91
-0.19149327 -0.13399279 -0.79525095 106 92 90
-0.19059841 -0.1323176 -0.79374409 107 89 93
-0.19058046 -0.1325305 -0.79370528 108 91 93
-0.19263881 -0.13561979 -0.79677367 112 86 91
-0.19103003 -0.13526827 -0.79429531 119 104 100
-0.19072399 -0.13489319 -0.79383498 119 105 98
0 0 0 1 0 0 0 1 0 0 0 1 0 0 0 0 0 108 1 0 0
