ply
format ascii 1.0
comment PCL generated
element vertex 154
property float x
property float y
property float z
property uchar red
property uchar green
property uchar blue
element camera 1
property float view_px
property float view_py
property float view_pz
property float x_axisx
property float x_axisy
property float x_axisz
property float y_axisx
property float y_axisy
property float y_axisz
property float z_axisx
property float z_axisy
property float z_axisz
property float focal
property float scalex
property float scaley
property float centerx
property float centery
property int viewportx
property int viewporty
property float k1
property float k2
end_header
-0.2233897 0.40915719 -0.83916545 167 147 146
-0.22234221 0.40831557 -0.83728468 152 119 134
-0.22343335 0.41108766 -0.84010965 164 146 145
-0.22372968 0.4103564 -0.84009886 162 143 142
-0.22534226 0.40476921 -0.84020191 168 109 143
-0.22500116 0.40549314 -0.83978349 162 111 140
-0.22497468 0.40634826 -0.84007931 162 120 139
-0.22428893 0.40707067 -0.83914906 160 129 140
-0.2235477 0.4047786 -0.83714294 171 124 151
-0.22457838 0.40661651 -0.83937812 157 117 136
-0.22271612 0.40765375 -0.8374207 155 120 136
-0.22289115 0.40785041 -0.83773553 154 121 135
-0.22372405 0.40669441 -0.83823669 163 130 143
-0.22307089 0.40734059 -0.83771962 158 124 138
-0.22334456 0.40595552 -0.83740503 167 128 147
-0.22272471 0.4070226 -0.83713061 159 122 140
-0.22312841 0.40491918 -0.83663779 173 128 154
-0.22504221 0.40304089 -0.83868229 161 112 137
-0.22520088 0.40321431 -0.83911127 164 113 139
-0.22373243 0.40384051 -0.8369574 168 118 148
-0.22395393 0.40422183 -0.83748668 166 108 146
-0.22361735 0.40320709 -0.83644116 169 128 148
-0.22451159 0.41675821 -0.84493113 143 130 118
-0.22510268 0.41367391 -0.84436888 135 118 115
-0.22521634 0.41554534 -0.84561342 143 126 120
-0.22541392 0.41582033 -0.84610057 149 130 125
-0.22559975 0.41505373 -0.84599161 151 132 129
-0.22530265 0.41349187 -0.84462386 140 122 121
-0.22540058 0.41516164 -0.84571362 147 128 124
-0.22664894 0.41231355 -0.84696364 181 164 158
-0.22669262 0.41241002 -0.84710258 183 165 159
-0.22661583 0.41249242 -0.84695596 180 162 157
-0.22854066 0.40885249 -0.84768695 168 160 146
-0.2275075 0.40838745 -0.84560156 162 144 141
-0.22839528 0.40901944 -0.84750998 168 158 146
-0.22776581 0.40980127 -0.84709734 174 158 151
-0.22723366 0.40978092 -0.84625286 174 155 151
-0.22794671 0.40952206 -0.84714764 171 156 148
-0.22763859 0.4102692 -0.84728652 179 163 155
-0.22604372 0.41162419 -0.84511775 157 138 137
-0.22587679 0.41130784 -0.84449494 149 129 131
-0.22654255 0.40952751 -0.84472245 161 138 140
-0.226422 0.41012734 -0.84488702 161 139 140
-0.22643924 0.40937868 -0.84437186 157 133 136
-0.22658309 0.4092347 -0.84459949 161 137 140
-0.22855523 0.40809441 -0.84743446 165 157 144
-0.2284451 0.40757826 -0.84778112 162 149 141
-0.22680987 0.40572014 -0.84792107 174 147 155
-0.22673778 0.40648264 -0.84675127 172 146 152
-0.22722454 0.40713361 -0.8466028 169 148 148
-0.22794549 0.40808693 -0.84639901 164 152 143
-0.22732951 0.40786448 -0.84568805 163 144 143
-0.22622448 0.40611029 -0.84643841 172 141 153
-0.22687304 0.40692884 -0.84631342 169 145 149
-0.22589533 0.40479088 -0.84666073 179 141 159
-0.22625664 0.40520942 -0.8450374 175 135 152
-0.22636355 0.40454793 -0.84418613 177 133 152
-0.22612724 0.40597126 -0.84604937 172 139 152
-0.22624016 0.40628868 -0.84563017 170 137 150
-0.22612336 0.4042275 -0.84500974 180 137 156
-0.22607893 0.40423498 -0.84526253 180 137 157
-0.2256642 0.40334955 -0.8461042 185 152 163
-0.22576207 0.40366429 -0.84565461 184 147 161
-0.22613774 0.40299731 -0.84569603 181 150 159
-0.2265678 0.40310621 -0.84492123 178 143 154
-0.2259758 0.40368 -0.84530574 182 144 159
-0.22156115 0.40748301 -0.83579111 150 106 132
-0.2221754 0.40678805 -0.83632416 159 118 141
-0.2216166 0.40674624 -0.83545399 153 104 134
-0.2221722 0.40500659 -0.83547848 173 132 152
-0.22156331 0.40670308 -0.83537215 153 106 135
-0.22141103 0.40609041 -0.83497703 162 122 142
-0.22117095 0.40568188 -0.83455217 169 136 148
-0.22363833 0.40276963 -0.83624834 167 132 146
-0.22705656 0.41306356 -0.84921396 186 161 163
-0.22714132 0.41273463 -0.8497386 185 157 162
-0.22692738 0.41382372 -0.84916997 182 155 159
-0.22710675 0.4125897 -0.84870994 192 171 167
-0.2270246 0.41291255 -0.84821337 193 174 168
-0.22851782 0.40911281 -0.84842259 167 156 145
-0.22544125 0.41093442 -0.85074776 160 128 139
-0.22675693 0.41182664 -0.84901911 187 166 163
-0.2255663 0.41101077 -0.8508172 161 129 140
-0.22742063 0.41078666 -0.84865874 183 167 159
-0.22692132 0.40977293 -0.84988451 162 141 141
-0.22811319 0.40935248 -0.84889656 171 158 149
-0.22594872 0.41014984 -0.8506676 155 127 135
-0.22683524 0.40923405 -0.85034424 153 131 133
-0.22760567 0.40967911 -0.84921652 169 153 147
-0.22656886 0.40860847 -0.85004091 141 113 121
-0.22743095 0.4087193 -0.84993088 153 134 133
-0.22834434 0.40934908 -0.84850866 170 158 147
-0.22858228 0.40772966 -0.84823668 161 148 140
-0.2257705 0.40510944 -0.84858161 180 152 161
-0.2272194 0.40674627 -0.84890783 169 150 149
-0.22802909 0.40714222 -0.84834713 163 146 142
-0.22527151 0.40489715 -0.8489055 183 155 164
-0.22527935 0.40558299 -0.84919155 171 140 152
-0.22083253 0.40631086 -0.85125929 185 146 155
-0.22103591 0.40535083 -0.8504076 195 159 167
-0.22205196 0.40618327 -0.85057086 165 129 140
-0.22203419 0.40592828 -0.85024738 172 135 147
-0.22141482 0.40518376 -0.8500002 193 157 166
-0.22241066 0.40484777 -0.84952807 194 158 169
-0.22207768 0.40502593 -0.84964538 193 156 167
-0.22410062 0.40446091 -0.8490935 188 156 169
-0.22270682 0.40542355 -0.84965223 180 143 157
-0.22323392 0.41641012 -0.84322125 152 135 126
-0.2240068 0.41621438 -0.84412158 135 122 110
-0.22265308 0.41630569 -0.84244537 162 143 136
-0.22476001 0.41365096 -0.8435297 131 115 112
-0.22526248 0.41257203 -0.84397262 138 120 120
-0.22434361 0.41405419 -0.84311926 133 119 113
-0.22440958 0.41250619 -0.84212065 139 122 124
-0.22416568 0.4157429 -0.84405762 131 118 107
-0.22404878 0.415198 -0.84353417 136 122 112
-0.22248024 0.41362223 -0.84046191 172 152 150
-0.22235397 0.41585496 -0.84184176 166 146 140
-0.22293374 0.41359684 -0.84101802 164 146 142
-0.22272623 0.41518614 -0.84185141 162 143 137
-0.2229909 0.41292232 -0.84062523 165 147 145
-0.22278965 0.41438803 -0.84138131 163 145 140
-0.22500403 0.4119359 -0.8429426 140 121 124
-0.22522174 0.41122854 -0.84308863 144 124 126
-0.22521855 0.4118377 -0.84340173 141 122 124
-0.22655162 0.40833837 -0.84390885 158 132 137
-0.22508116 0.40838805 -0.84109956 155 133 135
-0.22600129 0.40877071 -0.84311235 155 131 135
-0.2252389 0.41089445 -0.84294838 145 125 127
-0.22643657 0.40832204 -0.84367663 158 132 137
-0.22519264 0.41063643 -0.84270006 146 126 128
-0.22423822 0.41124615 -0.84117138 149 130 132
-0.22450396 0.41148263 -0.84162956 143 124 127
-0.22424808 0.41005155 -0.8405509 154 134 136
-0.22608232 0.40571558 -0.84240431 167 120 143
-0.22604485 0.40525547 -0.84242886 170 121 145
-0.22633511 0.40542927 -0.84361959 172 129 147
-0.22574051 0.4045096 -0.84140998 171 114 146
-0.22621846 0.40485066 -0.84334821 174 127 149
-0.22575541 0.40537202 -0.84122676 166 113 143
-0.22608635 0.40775648 -0.84275949 159 130 138
-0.22520965 0.40772623 -0.8410551 158 130 136
-0.22518706 0.40584219 -0.84030533 164 117 141
-0.22636762 0.40780765 -0.84332192 159 130 138
-0.22541605 0.40538645 -0.84057677 166 113 142
-0.22674933 0.40212455 -0.84252733 169 136 143
-0.22670354 0.40231615 -0.84265059 170 136 144
-0.22643481 0.40279996 -0.84268326 172 134 145
-0.22604932 0.40390038 -0.84236819 174 123 148
-0.22642805 0.40222725 -0.84202969 169 134 142
-0.22566654 0.40385514 -0.84065098 169 112 144
-0.22591181 0.40423283 -0.84216493 174 119 148
-0.22621186 0.40249303 -0.84140533 168 127 141
-0.22607826 0.40274152 -0.84111953 168 124 142
0 0 0 1 0 0 0 1 0 0 0 1 0 0 0 0 0 154 1 0 0
