ply
format ascii 1.0
comment PCL generated
element vertex 154
property float x
property float y
property float z
property uchar red
property uchar green
property uchar blue
element camera 1
property float view_px
property float view_py
property float view_pz
property float x_axisx
property float x_axisy
property float x_axisz
property float y_axisx
property float y_axisy
property float y_axisz
property float z_axisx
property float z_axisy
property float z_axisz
property float focal
property float scalex
property float scaley
property float centerx
property float centery
property int viewportx
property int viewporty
property float k1
property float k2
end_header
-0.24486707 0.0014335832 -0.80722743 153 121 131
-0.24497652 7.7011297e-05 -0.80622888 147 98 128
-0.24496934 -0.00098923268 -0.80510944 140 75 122
-0.24475634 0.00039894669 -0.80576879 143 95 119
-0.24516927 0.00066452706 -0.80752337 157 118 141
-0.24599998 -0.00082302472 -0.80834985 151 114 136
-0.24570623 -0.00042281277 -0.80794305 153 113 138
-0.24571019 -0.0014988091 -0.80685675 146 91 132
-0.2461863 -0.0013924388 -0.80828595 148 108 133
-0.24602956 -0.0012508238 -0.80799562 148 106 134
-0.24673541 -0.0039731991 -0.80886906 142 110 119
-0.24674264 -0.0040804911 -0.80887151 142 109 119
-0.24658303 -0.0031464263 -0.80849916 145 113 126
-0.24685182 -0.0054714363 -0.8089602 139 107 110
-0.24628782 -0.0055373851 -0.80690014 146 119 122
-0.24580659 -0.0051822951 -0.80535591 150 122 130
-0.24602669 -0.0042058965 -0.80636114 149 118 130
-0.24615848 -0.0030031195 -0.80721271 146 108 130
-0.2464091 -0.002799869 -0.80799013 147 114 130
-0.2458418 -0.0027948134 -0.80641842 145 96 130
-0.24667335 -0.0075295698 -0.80773759 159 131 135
-0.24659374 -0.0075198207 -0.80751002 157 128 132
-0.24674273 -0.006031462 -0.8084392 142 111 112
-0.24637978 -0.007358463 -0.80681741 156 128 132
-0.24594428 -0.0058794459 -0.80557847 150 127 128
-0.24589266 -0.0060870349 -0.80534345 152 129 131
-0.24629673 -0.0062584197 -0.80676949 149 122 124
-0.24660863 -0.006360841 -0.80787706 146 116 118
-0.24907835 -0.0013890401 -0.81744331 171 159 163
-0.24865419 -0.0010100475 -0.8186546 157 147 152
-0.24899516 -0.0011717612 -0.81772262 166 155 158
-0.24837478 -0.0010113271 -0.81937927 151 143 149
-0.24886848 -0.0003908177 -0.81772894 157 141 147
-0.24892682 -0.00066557236 -0.81779474 160 146 150
-0.24899679 -0.0027268331 -0.81903565 177 167 176
-0.24959019 -0.0037306475 -0.81938791 189 174 185
-0.24908763 -0.0034191948 -0.8201431 179 168 180
-0.24940465 -0.0030303563 -0.81852204 185 171 181
-0.24910289 -0.0024970341 -0.81829828 179 168 176
-0.24975583 -0.0040553627 -0.81957328 192 176 188
-0.25000337 -0.0041242936 -0.81881452 197 178 189
-0.25062242 -0.0058410303 -0.82062191 210 186 203
-0.24971586 -0.0035914327 -0.81766587 189 173 180
-0.24994993 -0.0054015042 -0.81699246 188 170 173
-0.25033316 -0.0054733488 -0.81926948 201 180 192
-0.25041109 -0.005479008 -0.81974298 204 182 196
-0.2502071 -0.0096140383 -0.81846642 192 172 181
-0.25060257 -0.0061948905 -0.82051808 209 186 202
-0.25030059 -0.0082132211 -0.81883997 192 168 180
-0.25026941 -0.0090005212 -0.81877577 194 173 183
-0.2501688 -0.0091906525 -0.81812567 185 161 172
-0.25035986 -0.0089050755 -0.81937414 203 185 194
-0.25004509 -0.0075682942 -0.81717074 181 157 165
-0.25021645 -0.0066644768 -0.81815946 191 169 178
-0.2502383 -0.0068619656 -0.81830871 191 168 178
-0.25032374 -0.0075689298 -0.81888753 191 165 179
-0.25065708 -0.011860297 -0.81954247 180 165 168
-0.25078958 -0.011584681 -0.81909674 192 174 176
-0.25079766 -0.01150653 -0.81874824 192 172 174
-0.25077367 -0.011335346 -0.81895566 196 177 180
-0.2504721 -0.010362831 -0.81900793 199 182 188
-0.25051504 -0.010368425 -0.81928867 204 188 193
-0.24327184 -0.0017669053 -0.80098236 142 114 112
-0.24291255 -0.0018449604 -0.8001709 146 126 123
-0.24274401 -0.0013998626 -0.8000679 150 131 127
-0.24279143 -0.0038013901 -0.79952204 146 114 123
-0.24259588 -0.0046892422 -0.79894364 148 116 129
-0.24341053 -0.0056106867 -0.80047917 139 114 122
-0.2429238 -0.0054328186 -0.79949123 144 116 128
-0.24341115 -0.0050786599 -0.80058116 139 114 120
-0.24310017 -0.004545988 -0.80002916 142 114 122
-0.24243154 -0.0038207315 -0.79875416 150 123 132
-0.24290158 -0.0025367378 -0.79998261 145 120 122
-0.24351904 -0.0062522474 -0.80065727 142 122 127
-0.2436211 -0.0059295194 -0.8008737 138 115 121
-0.24294837 -0.0058765025 -0.79946208 144 116 129
-0.24870695 -0.0013620229 -0.8140139 136 105 111
-0.24883389 -0.0016757451 -0.81438524 145 118 123
-0.24885814 -0.0008165742 -0.81580549 154 129 139
-0.24884897 -0.0011567791 -0.81524605 150 125 133
-0.24922422 -0.0033380678 -0.81571776 175 164 167
-0.24918187 -0.0034957493 -0.81546003 173 162 165
-0.24920054 -0.0036748424 -0.81540543 173 162 164
-0.2495192 -0.0042099142 -0.81618005 180 166 169
-0.24972418 -0.005394958 -0.8161093 181 166 167
-0.24919109 -0.0037464506 -0.81532323 173 162 164
-0.24895582 -0.0024338537 -0.81458205 154 134 137
-0.2488852 -0.0030935728 -0.8138513 149 129 131
-0.24904007 -0.003694501 -0.81462228 164 152 153
-0.24910109 -0.0031216303 -0.81525487 169 156 159
-0.24921447 -0.0023696716 -0.81630319 178 166 170
-0.24988425 -0.0065095462 -0.81628591 186 169 171
-0.24971591 -0.0077553717 -0.81559175 183 165 169
-0.24965967 -0.007733522 -0.81533611 185 168 171
-0.24959104 -0.0087030651 -0.81507826 181 162 167
-0.24921979 -0.0063084532 -0.81392008 168 157 157
-0.24904114 -0.0073966458 -0.81309909 170 159 160
-0.24941596 -0.007932405 -0.81434566 183 170 172
-0.24938539 -0.0080715939 -0.81421304 183 170 172
-0.24913019 -0.0081476076 -0.81328988 177 165 167
-0.24969569 -0.0062338668 -0.81563038 181 166 167
-0.23948285 -0.0029368538 -0.79329264 153 116 135
-0.24304341 0.002244849 -0.80285919 149 123 120
-0.24263044 0.0026957309 -0.80218118 153 129 127
-0.24263935 0.0038074902 -0.80280542 147 122 124
-0.2442632 -0.0017841781 -0.80274916 133 76 104
-0.24472333 -0.0015498374 -0.80407655 137 74 116
-0.24363163 -0.0018238897 -0.80161178 137 100 106
-0.24405721 -0.0013043825 -0.80265445 133 84 101
-0.24289009 0.0010614834 -0.80182517 153 127 124
-0.24283528 0.00033098506 -0.80126375 152 127 124
-0.24331744 0.0005343277 -0.80245984 145 116 113
-0.24314262 -0.00065271719 -0.80135643 146 118 116
-0.24273792 0.001558705 -0.80178535 156 132 128
-0.2449308 -0.0028967997 -0.80396307 140 86 118
-0.24528676 -0.0038198195 -0.80452096 144 99 124
-0.24492191 -0.0036771046 -0.80365431 141 99 115
-0.24466987 -0.002218182 -0.80355483 137 76 114
-0.24425858 -0.003062411 -0.80236769 133 87 106
-0.24426 -0.0032085499 -0.8023448 133 89 107
-0.24440728 -0.003779761 -0.80254906 135 95 110
-0.24516372 -0.0054477206 -0.80382192 144 119 123
-0.24458411 -0.0033529082 -0.80299091 137 94 110
-0.24398752 -0.0054584756 -0.8015148 134 108 115
-0.24363096 -0.0029167235 -0.80138135 137 104 110
-0.24371673 -0.0027821842 -0.80153525 136 100 108
-0.24471918 -0.0066755568 -0.80263621 147 127 131
-0.24444637 -0.0060437513 -0.80221939 138 116 120
-0.24424104 -0.0059969905 -0.80180496 135 113 117
-0.24482305 -0.006610068 -0.80286682 148 128 131
-0.24411577 -0.0062072547 -0.80152673 136 115 120
-0.23965943 -0.0024605312 -0.79371083 151 124 132
-0.23981155 -0.0038058448 -0.79342037 156 104 144
-0.24648975 -0.001175364 -0.8092221 147 115 131
-0.2482781 -0.0026592168 -0.81203973 133 106 111
-0.24862361 -0.0055337776 -0.81237859 151 138 137
-0.24871072 -0.0053283703 -0.81256825 151 139 139
-0.24833345 -0.0057479958 -0.81179905 147 131 131
-0.24729209 -0.0057119112 -0.80979371 139 111 113
-0.24725965 -0.0054554539 -0.80975944 138 109 111
-0.24771689 -0.0041940273 -0.81078434 135 107 111
-0.24699752 -0.0045862868 -0.80935389 138 106 111
-0.24691421 -0.0030696495 -0.80937129 141 108 120
-0.24678327 -0.0035647321 -0.8090626 142 109 120
-0.24670351 -0.0027927184 -0.80899996 144 110 125
-0.24681816 -0.0031290511 -0.80918032 142 109 122
-0.24863778 -0.0072418703 -0.81224418 161 148 149
-0.24833845 -0.0061839414 -0.81176674 149 134 134
-0.24813916 -0.007068336 -0.81117952 160 144 146
-0.24874775 -0.0086343223 -0.81230497 174 160 162
-0.24784434 -0.0072441678 -0.81049591 165 149 152
-0.24789134 -0.0076677008 -0.81049263 171 157 160
-0.24723876 -0.0066526551 -0.80947179 153 128 130
-0.24786565 -0.0066415742 -0.81068754 155 137 139
0 0 0 1 0 0 0 1 0 0 0 1 0 0 0 0 0 154 1 0 0
