ply
format ascii 1.0
comment PCL generated
element vertex 142
property float x
property float y
property float z
property uchar red
property uchar green
property uchar blue
element camera 1
property float view_px
property float view_py
property float view_pz
property float x_axisx
property float x_axisy
property float x_axisz
property float y_axisx
property float y_axisy
property float y_axisz
property float z_axisx
property float z_axisy
property float z_axisz
property float focal
property float scalex
property float scaley
property float centerx
property float centery
property int viewportx
property int viewporty
property float k1
property float k2
end_header
-0.19371986 -0.23981948 -0.788836 121 88 88
-0.19385257 -0.24022457 -0.78929311 122 85 89
-0.19274013 -0.2393669 -0.78670502 130 106 103
-0.19255032 -0.2393418 -0.78641629 132 110 107
-0.19300336 -0.2391776 -0.78708911 126 101 97
-0.1925187 -0.23898046 -0.78634208 131 110 107
-0.19207701 -0.23839328 -0.78573078 128 112 103
-0.19384176 -0.24153338 -0.78924608 124 89 88
-0.19374505 -0.24112204 -0.78893864 124 90 89
-0.19346212 -0.24171522 -0.78804249 126 95 87
-0.19342496 -0.24175119 -0.78793073 126 96 85
-0.19338453 -0.24326678 -0.7878356 126 97 77
-0.19231208 -0.2430055 -0.78626865 138 118 101
-0.19332607 -0.24182366 -0.78768575 126 97 84
-0.19314583 -0.24104881 -0.78741622 128 100 92
-0.19276619 -0.24036168 -0.78681499 133 106 104
-0.19232248 -0.24278963 -0.78627861 138 118 102
-0.19275838 -0.24148159 -0.78686512 133 108 99
-0.19195597 -0.24283993 -0.78572738 143 125 109
-0.19362016 -0.24436085 -0.78865057 128 98 80
-0.19366248 -0.24462096 -0.788881 130 99 83
-0.19344729 -0.24690442 -0.78912842 141 108 96
-0.19336075 -0.24710046 -0.78898489 143 111 96
-0.1929163 -0.24679506 -0.78819942 136 109 93
-0.19328015 -0.24434307 -0.78773934 126 99 73
-0.19326942 -0.24684207 -0.7887432 140 110 94
-0.19286628 -0.24493083 -0.78736436 125 100 77
-0.19335762 -0.2473924 -0.7890988 145 113 99
-0.19302131 -0.24606252 -0.78805643 133 106 87
-0.19167888 -0.245092 -0.78573686 137 122 102
-0.19207403 -0.2450328 -0.78627586 133 114 93
-0.19185957 -0.2443905 -0.78573787 141 125 103
-0.19338688 -0.25058714 -0.78934354 146 114 99
-0.1932836 -0.25028935 -0.78921348 145 114 99
-0.1930666 -0.24886137 -0.78896242 141 110 100
-0.19268449 -0.2493788 -0.78844583 133 104 96
-0.1930003 -0.25043762 -0.7888363 139 109 97
-0.19300041 -0.25190622 -0.78880036 138 108 94
-0.19346415 -0.25220662 -0.78945041 144 112 96
-0.19239751 -0.25224912 -0.7880587 126 100 91
-0.19291109 -0.25332221 -0.78893346 143 114 102
-0.19250499 -0.25364751 -0.78845787 136 109 101
-0.19042608 -0.23556338 -0.78336424 130 114 112
-0.19090994 -0.23620395 -0.78396183 129 117 107
-0.18981978 -0.23687336 -0.78220165 147 132 130
-0.18952784 -0.23685716 -0.78174669 152 137 139
-0.19018739 -0.23769398 -0.78273338 135 121 107
-0.19065416 -0.23686901 -0.78350425 132 119 107
-0.18981531 -0.23788615 -0.7821427 140 125 114
-0.19085099 -0.23692556 -0.78380865 128 116 101
-0.19114909 -0.23974416 -0.78424907 135 117 104
-0.19157366 -0.23879564 -0.78494626 129 114 101
-0.19001609 -0.24018498 -0.78237712 131 115 89
-0.19016767 -0.239549 -0.78262436 127 112 85
-0.19171092 -0.23744509 -0.78516591 119 107 89
-0.19070534 -0.24016632 -0.7835173 135 117 101
-0.19008255 -0.24390641 -0.78206164 155 147 127
-0.19187197 -0.24071105 -0.78546053 144 124 122
-0.19178633 -0.24235404 -0.78540868 144 127 115
-0.19126602 -0.24394307 -0.78446943 148 135 113
-0.19086529 -0.24303073 -0.78358722 150 138 122
-0.19135877 -0.24217062 -0.78452617 147 131 121
-0.19028799 -0.24135242 -0.78268707 141 126 106
-0.19039452 -0.2407362 -0.78294051 137 121 102
-0.18992999 -0.24108364 -0.78212845 136 122 97
-0.19021472 -0.24142431 -0.78255677 141 127 106
-0.19022015 -0.24198288 -0.78249574 144 132 112
-0.19067387 -0.24211456 -0.78322989 148 134 121
-0.19158617 -0.24450628 -0.78532523 143 129 107
-0.19058283 -0.24482696 -0.7834534 147 136 117
-0.19154195 -0.24449418 -0.78522903 143 129 108
-0.19060478 -0.24453309 -0.78334475 149 139 118
-0.19122545 -0.2450958 -0.78489953 140 127 108
-0.19647625 -0.24760965 -0.79792005 137 124 120
-0.19599229 -0.25127697 -0.79772478 155 151 138
-0.19643874 -0.25066978 -0.79846793 155 148 132
-0.19657044 -0.25060725 -0.79872018 155 147 131
-0.1965697 -0.251757 -0.79904479 163 154 131
-0.19599311 -0.25182599 -0.79788214 158 155 138
-0.19601196 -0.24905992 -0.79761571 137 127 120
-0.19569969 -0.25130469 -0.79726917 152 149 136
-0.19578013 -0.24959415 -0.79730004 139 130 122
-0.19628917 -0.25275278 -0.79872423 158 148 134
-0.19606654 -0.25375056 -0.7984398 148 135 131
-0.19416644 -0.24245155 -0.7900281 131 98 95
-0.19427003 -0.24258327 -0.79025835 134 101 99
-0.1942496 -0.24588291 -0.79178774 156 130 122
-0.19466276 -0.2457504 -0.79307127 139 117 115
-0.19368459 -0.24744482 -0.79024106 148 116 108
-0.19408627 -0.24636459 -0.79134518 153 125 117
-0.19408894 -0.24682644 -0.79142338 142 114 109
-0.19457877 -0.24576987 -0.79280919 143 120 117
-0.1940549 -0.24455158 -0.79028064 139 108 99
-0.19423634 -0.24425687 -0.79089022 143 115 106
-0.1938919 -0.24519511 -0.78994286 138 107 97
-0.19389945 -0.24439387 -0.78953123 130 98 88
-0.19388765 -0.24560557 -0.79015219 142 111 102
-0.19380024 -0.25114632 -0.79048991 132 102 94
-0.1946318 -0.2491267 -0.79328197 104 80 95
-0.19461989 -0.24955946 -0.79322809 110 87 101
-0.19449675 -0.25133333 -0.79276389 133 111 126
-0.19439654 -0.25167426 -0.79242408 137 115 127
-0.19431947 -0.24953677 -0.79224527 110 83 89
-0.19398548 -0.24918495 -0.79120225 121 90 89
-0.19406813 -0.24912484 -0.79146719 117 87 88
-0.1937815 -0.2487921 -0.79058594 130 98 94
-0.19385794 -0.25056604 -0.79070395 126 96 89
-0.19393337 -0.24872723 -0.79106969 123 92 91
-0.19353813 -0.24918319 -0.78979099 141 108 99
-0.19349259 -0.2541464 -0.79008591 146 115 105
-0.1935924 -0.2543723 -0.79045069 142 111 104
-0.19350402 -0.25218889 -0.78955996 142 110 95
-0.19375756 -0.25266075 -0.79048389 135 105 98
-0.19389001 -0.25219619 -0.7908116 140 112 108
-0.19355232 -0.2521539 -0.78969634 140 109 95
-0.18872121 -0.23591606 -0.78079838 130 107 123
-0.18954401 -0.23983279 -0.78160864 132 117 89
-0.18936372 -0.23914434 -0.78132433 138 123 105
-0.188463 -0.23652419 -0.78033376 128 105 121
-0.18963566 -0.24254341 -0.78140998 145 134 110
-0.18931688 -0.2429965 -0.7808674 141 122 106
-0.19490509 -0.24587512 -0.79388499 138 117 116
-0.19492555 -0.24632108 -0.79402494 130 110 110
-0.19527876 -0.24625669 -0.79519713 142 126 121
-0.19499195 -0.24745516 -0.79442906 112 90 96
-0.19499317 -0.24734013 -0.79441464 114 93 97
-0.19576542 -0.24872702 -0.79717952 131 120 115
-0.19551727 -0.25119907 -0.7965399 148 141 136
-0.19502404 -0.25190318 -0.79469019 146 133 142
-0.19565994 -0.25175619 -0.79717952 155 153 140
-0.19526312 -0.25068557 -0.79546636 139 127 132
-0.1956486 -0.2498282 -0.79686981 139 129 124
-0.19485109 -0.24955331 -0.79399937 116 95 108
-0.19492264 -0.25054979 -0.79420394 130 112 127
-0.19471443 -0.24909626 -0.79355788 106 83 97
-0.19472855 -0.24873386 -0.7936179 102 78 91
-0.19509363 -0.24811186 -0.79486203 105 84 91
-0.19534461 -0.24850139 -0.79568863 118 100 104
-0.19554405 -0.25290966 -0.79699075 146 140 133
-0.19551754 -0.25208101 -0.79667979 153 149 140
-0.19486812 -0.2520071 -0.79409653 143 128 142
-0.19509496 -0.25197789 -0.79498374 147 136 142
0 0 0 1 0 0 0 1 0 0 0 1 0 0 0 0 0 142 1 0 0
