ply
format ascii 1.0
comment PCL generated
element vertex 222
property float x
property float y
property float z
property uchar red
property uchar green
property uchar blue
element camera 1
property float view_px
property float view_py
property float view_pz
property float x_axisx
property float x_axisy
property float x_axisz
property float y_axisx
property float y_axisy
property float y_axisz
property float z_axisx
property float z_axisy
property float z_axisz
property float focal
property float scalex
property float scaley
property float centerx
property float centery
property int viewportx
property int viewporty
property float k1
property float k2
end_header
-0.19279851 -0.25538048 -0.78916389 152 122 116
-0.1924798 -0.25577462 -0.78869432 150 121 116
-0.19220547 -0.25584877 -0.78825313 146 118 115
-0.19182126 -0.2555823 -0.78763372 137 111 110
-0.19237182 -0.25776899 -0.78933382 153 120 122
-0.19187158 -0.25893188 -0.78867829 143 109 114
-0.19196786 -0.25926274 -0.78943413 150 117 125
-0.19223191 -0.25747493 -0.78844744 144 110 109
-0.19129851 -0.25606486 -0.78676683 130 105 106
-0.19217852 -0.25586775 -0.78820866 146 118 115
-0.19084445 -0.25630724 -0.7860046 122 98 101
-0.19259576 -0.25613394 -0.78884566 152 121 116
-0.19183365 -0.25702098 -0.78750402 136 104 102
-0.19942172 -0.25105184 -0.8078081 71 63 70
-0.199487 -0.24948679 -0.80762404 57 45 52
-0.19950287 -0.25182489 -0.80891967 59 57 60
-0.19933191 -0.25161546 -0.8072778 87 79 89
-0.1995066 -0.25128952 -0.80868918 58 53 57
-0.19962503 -0.24961387 -0.80892885 35 27 29
-0.19941719 -0.24969718 -0.80723625 66 54 62
-0.19914678 -0.25034523 -0.80597824 96 83 93
-0.19934021 -0.2489914 -0.80721527 59 46 50
-0.19930705 -0.250058 -0.80668718 80 68 77
-0.19886832 -0.24987507 -0.80511349 107 93 99
-0.19899134 -0.25584716 -0.80616599 105 70 94
-0.19915573 -0.25584123 -0.80759662 100 75 96
-0.1993362 -0.25394645 -0.80837065 80 67 79
-0.19905627 -0.25541243 -0.8065486 99 69 90
-0.19923721 -0.25569215 -0.80824417 96 76 95
-0.19903307 -0.25266996 -0.80509001 126 108 127
-0.19928123 -0.2531957 -0.80756944 78 63 74
-0.19945811 -0.25200358 -0.80860358 66 63 67
-0.19928418 -0.25295189 -0.80748188 81 68 78
-0.19911045 -0.25385883 -0.80634242 97 73 90
-0.19735664 -0.25868842 -0.80588186 140 120 118
-0.1985286 -0.25697169 -0.8086403 109 93 103
-0.19819048 -0.25745413 -0.808357 116 99 106
-0.19829437 -0.2573092 -0.80831158 115 98 105
-0.19823377 -0.25741872 -0.80734277 120 102 108
-0.19866049 -0.25678691 -0.80763441 112 93 104
-0.19921586 -0.25595325 -0.80857003 98 80 98
-0.19896714 -0.25624153 -0.80775249 104 83 100
-0.19858123 -0.25666758 -0.80638415 114 87 102
-0.19839838 -0.2567313 -0.80508864 119 84 101
-0.1973692 -0.25268841 -0.8008703 165 144 121
-0.19705889 -0.25246572 -0.80023092 166 150 125
-0.19688055 -0.25454572 -0.80038291 154 130 126
-0.19715318 -0.25421551 -0.80085975 158 133 123
-0.19705676 -0.25491241 -0.80083543 154 126 124
-0.19646646 -0.25563836 -0.79964614 140 113 121
-0.19637357 -0.25536519 -0.79938978 140 116 122
-0.1963447 -0.25530359 -0.79931349 140 117 122
-0.19665234 -0.25491792 -0.79997653 149 125 127
-0.19616687 -0.2579664 -0.79949868 131 103 107
-0.19598268 -0.25863573 -0.79938799 131 105 108
-0.19677791 -0.25698486 -0.80091852 149 119 125
-0.19556159 -0.25920689 -0.79832017 118 92 94
-0.1970229 -0.25620252 -0.80115741 150 118 125
-0.19692743 -0.25588748 -0.80075967 146 115 122
-0.19670402 -0.25593981 -0.80024678 142 112 120
-0.19560331 -0.25808135 -0.79804295 117 92 96
-0.195648 -0.25763136 -0.79807007 119 94 100
-0.19624721 -0.25741488 -0.79943275 130 101 106
-0.19683351 -0.25608417 -0.80057406 144 113 120
-0.19529867 -0.26337621 -0.79923642 117 104 102
-0.19573921 -0.26250941 -0.80092621 119 107 104
-0.19499415 -0.263522 -0.79768455 125 109 110
-0.19605435 -0.26045793 -0.80092347 150 130 133
-0.19585365 -0.26180327 -0.80095816 130 114 114
-0.1952582 -0.26271364 -0.79845285 132 115 117
-0.19516008 -0.26053602 -0.79749745 112 89 90
-0.1951873 -0.26141226 -0.79780638 121 100 102
-0.19579062 -0.26063496 -0.79984671 145 124 127
-0.19550529 -0.26143894 -0.7989856 137 117 120
-0.19557311 -0.26012626 -0.79892331 129 106 109
-0.19547085 -0.26081097 -0.79870915 130 109 111
-0.1937127 -0.26756629 -0.79844928 121 116 99
-0.19369014 -0.26737508 -0.7982887 124 120 103
-0.19493189 -0.26730266 -0.80031115 59 44 39
-0.19517615 -0.26702526 -0.8004722 52 34 33
-0.19474527 -0.26643267 -0.79929811 84 70 65
-0.19341998 -0.26665816 -0.79737151 146 146 125
-0.19500801 -0.26686311 -0.80007088 63 47 44
-0.19476831 -0.26446867 -0.79771942 118 103 101
-0.19531049 -0.26591247 -0.80041963 67 52 50
-0.19548458 -0.26508132 -0.80105543 77 65 61
-0.19525519 -0.26631564 -0.80027163 62 44 43
-0.19512072 -0.26525816 -0.79912221 87 70 70
-0.19543765 -0.2652196 -0.80085087 76 63 59
-0.19429997 -0.26811197 -0.80039269 60 45 39
-0.19485146 -0.26760009 -0.80040789 59 44 38
-0.19468375 -0.26796067 -0.80076784 48 31 27
-0.20262127 -0.24725643 -0.81482959 55 52 56
-0.20284149 -0.24777551 -0.81587487 39 38 42
-0.20236345 -0.24713355 -0.81394053 67 62 66
-0.20295355 -0.2476256 -0.81612104 37 37 40
-0.20271626 -0.24779776 -0.8154996 43 42 46
-0.20203991 -0.24965376 -0.81601363 20 21 23
-0.20150542 -0.25048122 -0.81558549 17 18 19
-0.20188949 -0.24988198 -0.81571543 19 20 22
-0.20142354 -0.25057071 -0.81409413 21 20 21
-0.20253909 -0.24886964 -0.81597942 24 25 27
-0.20190394 -0.24919221 -0.81394541 40 38 41
-0.20245726 -0.24856603 -0.81522983 36 35 38
-0.20177598 -0.24856173 -0.81310129 62 58 61
-0.20288073 -0.24821238 -0.81630135 29 30 33
-0.19393468 -0.25499162 -0.79166359 126 96 98
-0.19436932 -0.25580299 -0.79320985 106 78 91
-0.19449104 -0.25405556 -0.79320335 121 97 113
-0.19432941 -0.25432366 -0.79273528 118 93 104
-0.19437437 -0.25381064 -0.7927655 123 99 111
-0.19323328 -0.25538248 -0.78977776 156 124 116
-0.193938 -0.25749752 -0.79212028 140 106 116
-0.19397238 -0.25855213 -0.79237753 147 109 124
-0.19424571 -0.25796771 -0.79314154 129 94 112
-0.19386405 -0.25772858 -0.79192394 145 110 120
-0.19416074 -0.25705543 -0.79274774 125 94 107
-0.19378915 -0.25933582 -0.79239899 152 112 132
-0.19384103 -0.25817412 -0.79196554 149 112 124
-0.19299021 -0.25937796 -0.79109788 158 120 135
-0.19325073 -0.25717932 -0.7905159 157 122 124
-0.19332978 -0.2561419 -0.79017264 156 123 119
-0.19279942 -0.25730211 -0.7898646 153 121 121
-0.1925787 -0.25735557 -0.78954351 155 122 122
-0.19355232 -0.259951 -0.79228181 155 115 135
-0.19415091 -0.2599538 -0.79331678 142 103 126
-0.19281007 -0.26117763 -0.79175991 136 107 118
-0.1923622 -0.26147434 -0.79122055 127 103 110
-0.19314644 -0.26140866 -0.79241252 135 106 118
-0.1931221 -0.26019439 -0.79171258 153 116 133
-0.19222623 -0.26137945 -0.79088348 129 104 111
-0.19259422 -0.26517767 -0.79293799 106 94 99
-0.19867098 -0.25133592 -0.80415809 131 116 120
-0.19861688 -0.25165471 -0.8039214 136 121 124
-0.19870892 -0.24881402 -0.80496114 97 83 81
-0.19865215 -0.25045985 -0.8043493 120 105 106
-0.19819756 -0.25145665 -0.802827 143 125 114
-0.19844335 -0.25063187 -0.8037293 127 110 105
-0.19796608 -0.2504282 -0.80202764 142 121 105
-0.19845986 -0.24845271 -0.8037762 107 90 85
-0.19795217 -0.25071195 -0.80225343 140 120 101
-0.19796906 -0.25552601 -0.80294341 135 98 110
-0.19777042 -0.25344217 -0.80189955 151 123 113
-0.19812572 -0.25457585 -0.80303466 135 102 106
-0.19730203 -0.25464398 -0.80120695 158 129 124
-0.19845711 -0.25520515 -0.80396575 123 86 100
-0.19795679 -0.25291732 -0.80216682 148 121 108
-0.19813763 -0.25319681 -0.80270231 142 115 108
-0.19885147 -0.25492084 -0.80490452 115 80 102
-0.19851267 -0.25406826 -0.80385447 128 97 105
-0.19865339 -0.25418729 -0.80425709 124 93 106
-0.19855268 -0.25364581 -0.80390394 130 102 110
-0.19787127 -0.25687358 -0.80404347 133 100 111
-0.19790301 -0.25629178 -0.80339676 133 97 111
-0.1979786 -0.25617009 -0.80342025 131 95 110
-0.19794165 -0.25660124 -0.80386853 132 97 110
-0.19706921 -0.25748029 -0.80306542 149 122 124
-0.19693357 -0.2572937 -0.80262965 149 123 125
-0.19656654 -0.25849456 -0.80185831 154 129 133
-0.19700448 -0.25651231 -0.80166888 150 119 125
-0.19634785 -0.25957102 -0.80215544 155 135 137
-0.19654521 -0.25916865 -0.80321735 151 132 131
-0.19694377 -0.25668088 -0.80144691 151 120 126
-0.19689158 -0.25731376 -0.80239654 149 123 125
-0.19616292 -0.26135796 -0.80501437 124 110 107
-0.19600937 -0.26200557 -0.80378789 118 106 102
-0.19635767 -0.26067463 -0.80440146 136 123 117
-0.19567591 -0.26332241 -0.8025313 102 92 88
-0.19630098 -0.26085955 -0.8047992 132 118 114
-0.19606212 -0.26137722 -0.80222744 132 118 114
-0.19618443 -0.2603313 -0.80183548 148 130 131
-0.19595084 -0.26227376 -0.8024981 118 107 100
-0.19594935 -0.26225856 -0.80245912 118 107 101
-0.1957698 -0.26274806 -0.80140167 114 103 98
-0.19635603 -0.260524 -0.80387735 140 126 120
-0.19519015 -0.25541192 -0.79622728 119 100 109
-0.19487479 -0.25456402 -0.79482031 122 104 108
-0.19518098 -0.2537275 -0.79579455 134 121 120
-0.19521236 -0.25376368 -0.79592317 134 122 120
-0.19474292 -0.25450253 -0.79428816 120 100 108
-0.19460109 -0.25362894 -0.79348838 125 104 121
-0.19451734 -0.25547409 -0.79366493 108 84 96
-0.19493356 -0.25806087 -0.79581821 125 98 111
-0.19509158 -0.25839958 -0.79660004 116 91 99
-0.19448242 -0.25945464 -0.79432738 135 99 118
-0.19519633 -0.25789091 -0.79688805 115 92 100
-0.19517706 -0.25828046 -0.79692805 114 90 96
-0.19496152 -0.25709265 -0.79567546 126 99 115
-0.19451594 -0.25687116 -0.79393131 116 87 103
-0.19464438 -0.25708407 -0.7944603 121 92 108
-0.19483852 -0.25640434 -0.7950834 116 91 105
-0.19459218 -0.2564387 -0.79414678 113 85 100
-0.19457035 -0.25613523 -0.79400975 109 82 97
-0.19410022 -0.26340571 -0.79540247 118 102 103
-0.1936435 -0.26341841 -0.79442453 113 98 98
-0.19400464 -0.26057711 -0.79340249 136 101 120
-0.19435774 -0.26145771 -0.79471117 134 105 119
-0.19421545 -0.26064178 -0.7938866 138 103 122
-0.1943846 -0.26230207 -0.79531181 129 105 114
-0.19439813 -0.26264569 -0.79556167 127 105 112
-0.19480166 -0.26185584 -0.79636621 125 101 107
-0.19486172 -0.26230454 -0.79674667 123 102 106
-0.19460633 -0.26084805 -0.79525322 130 100 113
-0.19470699 -0.26030427 -0.7955336 125 94 105
-0.19458237 -0.26038325 -0.79502261 130 98 112
-0.19328541 -0.26322582 -0.79359257 109 94 95
-0.19366489 -0.26589251 -0.79708475 142 139 123
-0.19381461 -0.26440454 -0.79575115 123 113 107
-0.19369642 -0.26404718 -0.79509842 117 105 101
-0.19425124 -0.26424757 -0.79651821 126 114 110
-0.20119037 -0.25051236 -0.81276506 29 26 28
-0.20088208 -0.24871232 -0.81152928 45 40 42
-0.20002684 -0.24845657 -0.80975598 21 11 12
-0.2006083 -0.2484611 -0.8108924 40 33 35
-0.20077999 -0.24859476 -0.81128204 44 38 40
-0.20092407 -0.24952996 -0.8119455 35 31 33
-0.19958095 -0.25067717 -0.80900645 45 40 42
-0.20033354 -0.25029761 -0.81105167 10 4 5
-0.20000233 -0.25134587 -0.81028652 33 30 32
-0.19987762 -0.24863525 -0.80952293 15 4 5
-0.19970241 -0.24887772 -0.80907041 24 14 16
-0.20075366 -0.25180605 -0.81245673 5 4 4
0 0 0 1 0 0 0 1 0 0 0 1 0 0 0 0 0 222 1 0 0
