ply
format ascii 1.0
comment PCL generated
element vertex 200
property float x
property float y
property float z
property uchar red
property uchar green
property uchar blue
element camera 1
property float view_px
property float view_py
property float view_pz
property float x_axisx
property float x_axisy
property float x_axisz
property float y_axisx
property float y_axisy
property float y_axisz
property float z_axisx
property float z_axisy
property float z_axisz
property float focal
property float scalex
property float scaley
property float centerx
property float centery
property int viewportx
property int viewporty
property float k1
property float k2
end_header
-0.015860036 0.33826062 -0.87760395 77 53 63
-0.015738623 0.33911982 -0.87867016 74 49 56
-0.015724447 0.3356427 -0.87781018 71 49 61
-0.015676934 0.33493489 -0.87801564 70 47 61
-0.015572479 0.33452246 -0.87871087 65 41 59
-0.015754459 0.33484846 -0.87741601 74 52 64
-0.015626652 0.33497679 -0.87840152 67 44 59
-0.015715886 0.33448988 -0.8776288 73 51 64
-0.015819466 0.33716482 -0.87754774 73 51 62
-0.015846305 0.33756459 -0.87748808 74 52 63
-0.015824897 0.33744109 -0.87759411 73 51 62
-0.015807036 0.33143583 -0.87759084 77 53 59
-0.01585749 0.33106554 -0.8771553 81 57 61
-0.015747467 0.33194774 -0.87750709 78 53 62
-0.015777316 0.33154345 -0.87873143 64 42 50
-0.015620287 0.3328481 -0.87886912 64 41 55
-0.015927527 0.33157986 -0.87593895 92 68 70
-0.015839739 0.33130613 -0.87659764 88 62 67
-0.015623481 0.33364055 -0.87821448 70 46 62
-0.015901828 0.33211136 -0.87613058 89 66 69
-0.015912075 0.33279791 -0.8760525 88 66 70
-0.016090659 0.32681933 -0.87689626 93 77 65
-0.016093688 0.32644323 -0.87733936 87 71 62
-0.016046539 0.32678893 -0.8792122 61 44 46
-0.016077746 0.32619038 -0.8785612 71 54 53
-0.016090937 0.32701313 -0.8765735 97 81 68
-0.016095936 0.32726309 -0.87574363 106 89 74
-0.015978966 0.32982627 -0.87747824 76 55 54
-0.016064866 0.32770553 -0.8767758 93 76 65
-0.016061535 0.32773855 -0.876921 91 75 63
-0.015986474 0.32932827 -0.87816596 70 52 49
-0.016245941 0.32415932 -0.87856388 90 71 68
-0.016233176 0.32429498 -0.87861997 88 69 66
-0.016237579 0.32394776 -0.87885201 89 69 65
-0.016135825 0.32571313 -0.87840718 77 60 59
-0.016147824 0.31900162 -0.87904251 104 87 85
-0.016122749 0.31876397 -0.87871546 107 91 89
-0.016191902 0.32072434 -0.8782118 111 91 83
-0.016100826 0.31543377 -0.87900937 96 81 78
-0.015966842 0.31328264 -0.87885571 101 85 81
-0.015972812 0.31334567 -0.87871885 101 85 81
-0.014072337 0.3433446 -0.88404518 115 102 98
-0.014318424 0.34239787 -0.88368791 94 83 82
-0.014604366 0.34268841 -0.88346106 112 101 96
-0.013989458 0.34050852 -0.88383687 92 77 73
-0.013966207 0.34167323 -0.88394809 68 58 61
-0.014567538 0.3388097 -0.88327348 135 110 96
-0.014596179 0.33925757 -0.88327563 130 107 95
-0.013845382 0.33491009 -0.88381797 92 70 60
-0.014554637 0.33401224 -0.88323158 92 67 59
-0.014159169 0.33330059 -0.88427925 84 63 52
-0.014156064 0.3306663 -0.88699126 93 78 59
-0.014180012 0.33246624 -0.88513416 84 65 52
-0.014773038 0.33198819 -0.88461453 97 75 64
-0.015120068 0.33035553 -0.88496727 89 71 59
-0.014902977 0.33261031 -0.88341004 85 63 54
-0.01488657 0.33197966 -0.8841604 90 69 59
-0.014713666 0.33274251 -0.88403946 95 72 62
-0.014334508 0.32889017 -0.88669825 122 106 88
-0.014755066 0.32816216 -0.88554919 111 95 84
-0.014076834 0.32634291 -0.88516349 123 111 100
-0.014021584 0.32618093 -0.88512176 124 112 101
-0.014322612 0.32686406 -0.88519973 119 105 95
-0.01507083 0.32912615 -0.88519245 98 81 70
-0.015121079 0.32772365 -0.88457996 100 85 79
-0.01530515 0.32996663 -0.88448018 81 64 53
-0.0155716 0.32972616 -0.88332283 67 50 44
-0.015329416 0.32668617 -0.88342822 93 78 78
-0.015398609 0.32869363 -0.88372898 81 65 59
-0.012216685 0.32909214 -0.88627034 110 99 75
-0.012280303 0.32895136 -0.88625574 115 104 80
-0.011929958 0.32846677 -0.88557446 114 104 82
-0.013087794 0.32800144 -0.88637477 127 114 92
-0.010869921 0.32939792 -0.88520908 103 94 69
-0.011799706 0.32846519 -0.8854453 113 103 81
-0.011161469 0.32732433 -0.88692045 75 67 60
-0.010566824 0.32769537 -0.88698959 46 40 38
-0.010496341 0.32834765 -0.88620156 70 63 51
-0.012097536 0.32747397 -0.88565582 118 108 90
-0.010886232 0.32880741 -0.88514805 104 96 73
-0.01213188 0.32767084 -0.88529098 116 106 88
-0.012577282 0.32662219 -0.88637984 127 116 101
-0.014086061 0.32554674 -0.88493729 125 113 100
-0.013864798 0.32387912 -0.88502991 136 124 101
-0.014358342 0.32486853 -0.88445276 121 108 95
-0.014001128 0.32488504 -0.88496989 129 117 100
-0.01472996 0.32344601 -0.88388097 121 110 88
-0.014144083 0.32228798 -0.88454306 138 128 95
-0.014053902 0.32305667 -0.88465786 134 123 97
-0.014029447 0.32033798 -0.88453972 101 76 71
-0.013736132 0.32202756 -0.88499802 140 127 97
-0.013889514 0.32145962 -0.88478053 126 109 88
-0.013773807 0.3193104 -0.88476318 84 51 60
-0.014460642 0.31849235 -0.8839649 84 48 63
-0.015103469 0.32008842 -0.88333178 105 82 76
-0.014911312 0.32004765 -0.88353831 101 77 72
-0.014243787 0.31824186 -0.88419449 79 42 60
-0.014386293 0.31699011 -0.88403946 94 64 68
-0.014081281 0.31818235 -0.88437051 77 39 57
-0.01445913 0.31634411 -0.88395816 100 73 70
-0.014299433 0.31460202 -0.88411474 99 79 63
-0.014797914 0.31392333 -0.88346428 100 80 62
-0.013829615 0.31399569 -0.88455594 105 84 67
-0.013793151 0.33040398 -0.93509358 91 65 79
-0.014134017 0.3300373 -0.93464333 89 52 82
-0.016095327 0.32706445 -0.87453586 111 94 81
-0.016058046 0.32823437 -0.87482399 107 86 77
-0.013843345 0.33060098 -0.88955694 89 85 53
-0.014394108 0.33024904 -0.88795573 107 94 71
-0.014284044 0.33013707 -0.88979053 109 102 70
-0.013819554 0.32936504 -0.88999885 106 103 68
-0.014276896 0.32937726 -0.88723886 123 107 85
-0.014008643 0.32892245 -0.88743562 126 112 89
-0.014305588 0.330024 -0.88984245 112 105 72
-0.015339642 0.345734 -0.88165587 152 134 119
-0.015080821 0.34300417 -0.8825376 131 116 106
-0.015058323 0.3418887 -0.88240606 100 87 80
-0.015103323 0.34295955 -0.8824299 129 114 104
-0.015445455 0.34563127 -0.88110036 134 115 101
-0.015561637 0.34426272 -0.88044327 118 95 84
-0.015454886 0.34467527 -0.88102835 136 115 102
-0.015591783 0.34472647 -0.88029093 111 89 78
-0.015361798 0.34456262 -0.88152802 154 132 119
-0.015087698 0.33860081 -0.88146943 100 76 75
-0.015130288 0.3385371 -0.88128424 96 72 73
-0.014914466 0.33922443 -0.88232356 112 90 84
-0.014967366 0.33822227 -0.8818379 113 86 82
-0.014974896 0.33820608 -0.88180381 112 86 82
-0.015168437 0.34065938 -0.88168305 87 72 71
-0.015617504 0.3391667 -0.87942547 69 44 52
-0.015157948 0.3405039 -0.88169861 85 71 71
-0.015211635 0.34141347 -0.88164097 93 77 72
-0.014742146 0.33509189 -0.88254088 103 76 71
-0.014768536 0.33698028 -0.882442 129 100 91
-0.014727649 0.33447769 -0.88259894 95 69 64
-0.015164765 0.33418176 -0.88067788 75 50 60
-0.014771181 0.33685154 -0.88242924 127 98 90
-0.015046916 0.33708799 -0.88134354 106 78 78
-0.015167796 0.3353993 -0.88067931 92 65 73
-0.014720598 0.3375423 -0.88267791 137 107 95
-0.014995222 0.33632612 -0.88146168 110 81 82
-0.015009474 0.33734843 -0.88151991 110 82 80
-0.015455681 0.3312076 -0.8816064 68 48 45
-0.014628491 0.33384234 -0.88317984 91 67 59
-0.015659191 0.33047518 -0.88149476 62 44 41
-0.015257669 0.33170289 -0.88242602 73 53 47
-0.015196275 0.33180013 -0.88286436 75 54 48
-0.015552607 0.33094946 -0.88125652 65 46 43
-0.015095447 0.33334744 -0.88131219 76 52 55
-0.015682753 0.33223608 -0.87931412 59 37 49
-0.014895778 0.33397886 -0.8818593 82 57 59
-0.015261269 0.33245516 -0.88104963 73 50 51
-0.015459384 0.33252349 -0.88014454 66 43 51
-0.015614314 0.32920831 -0.88292909 67 51 46
-0.015687939 0.32828385 -0.88216853 68 52 49
-0.015879797 0.3274596 -0.88080186 63 46 46
-0.015565106 0.3274157 -0.88250154 78 62 62
-0.015593208 0.32763657 -0.88243401 75 60 58
-0.016051987 0.32652739 -0.87930936 60 43 46
-0.015794829 0.32911077 -0.88149202 60 43 40
-0.015954698 0.32745883 -0.88015258 60 43 44
-0.015883023 0.32929289 -0.88033575 58 40 40
-0.015804185 0.32932842 -0.88129359 60 42 40
-0.016054662 0.32319006 -0.88032866 99 78 71
-0.015585667 0.32440662 -0.88220149 101 85 78
-0.01535362 0.32345334 -0.88305718 112 100 80
-0.015884338 0.32338756 -0.88099766 101 83 73
-0.015413053 0.32508615 -0.88290137 99 86 80
-0.015911192 0.32367119 -0.88090652 99 79 73
-0.016011186 0.32605895 -0.87962395 64 47 50
-0.015956705 0.32458463 -0.88042772 86 67 65
-0.016000416 0.32576403 -0.87978405 69 51 53
-0.015892006 0.32465479 -0.88075656 88 70 68
-0.016040817 0.3241879 -0.88010514 88 68 64
-0.015868606 0.32539552 -0.88062972 80 62 63
-0.015424097 0.3215344 -0.88260353 117 106 80
-0.015309334 0.32154992 -0.88306797 116 104 79
-0.015815409 0.31920233 -0.88068408 105 88 84
-0.015233788 0.31884983 -0.88297421 101 72 77
-0.015844867 0.31964716 -0.88063103 108 94 84
-0.016206484 0.32076988 -0.87942958 102 81 75
-0.016039625 0.32166091 -0.88023615 105 86 73
-0.016260985 0.32124302 -0.87930328 101 79 72
-0.015823277 0.3211711 -0.88098651 109 94 78
-0.015817968 0.32059464 -0.8809036 109 95 81
-0.016044732 0.32216924 -0.88030756 106 86 71
-0.015518109 0.31557342 -0.88164949 93 72 68
-0.015604665 0.31451559 -0.88125807 91 74 64
-0.015338717 0.31449431 -0.88231713 92 74 61
-0.015148523 0.31651914 -0.88316405 96 69 68
-0.015380084 0.3156409 -0.88220257 93 71 67
-0.015967961 0.31618237 -0.87987143 94 76 76
-0.01608664 0.31782225 -0.87944931 100 83 84
-0.015438521 0.31752339 -0.88204902 96 68 76
-0.015642105 0.31747106 -0.88122743 97 73 78
-0.015896957 0.3154631 -0.88013291 91 73 72
-0.015913429 0.31419745 -0.87991464 92 77 71
-0.015964074 0.31386119 -0.87956798 95 79 75
-0.015590903 0.31437728 -0.88127756 92 75 65
-0.015743364 0.31419292 -0.8805905 93 77 69
0 0 0 1 0 0 0 1 0 0 0 1 0 0 0 0 0 200 1 0 0
