ply
format ascii 1.0
comment PCL generated
element vertex 185
property float x
property float y
property float z
property uchar red
property uchar green
property uchar blue
element camera 1
property float view_px
property float view_py
property float view_pz
property float x_axisx
property float x_axisy
property float x_axisz
property float y_axisx
property float y_axisy
property float y_axisz
property float z_axisx
property float z_axisy
property float z_axisz
property float focal
property float scalex
property float scaley
property float centerx
property float centery
property int viewportx
property int viewporty
property float k1
property float k2
end_header
-0.24759886 -0.013572904 -0.80868745 157 118 119
-0.24719828 -0.013111454 -0.80770952 165 133 133
-0.24843016 -0.016600819 -0.80870587 169 143 149
-0.24857363 -0.016809264 -0.80887461 174 151 157
-0.24779561 -0.017297888 -0.80716407 156 123 137
-0.24783203 -0.017191304 -0.80728364 156 123 136
-0.24787408 -0.015480532 -0.80823749 155 118 126
-0.24765918 -0.01514739 -0.80804569 155 116 124
-0.24746345 -0.014742251 -0.80795389 155 115 122
-0.24654871 -0.015542087 -0.80527335 158 124 134
-0.24696188 -0.013902912 -0.80687916 159 124 124
-0.24674878 -0.016720472 -0.8054589 155 117 135
-0.24711098 -0.014439771 -0.80711991 157 120 124
-0.2466557 -0.016450658 -0.80528891 156 119 135
-0.24845889 -0.018314663 -0.80805004 163 133 143
-0.24863979 -0.018248528 -0.80841666 170 143 152
-0.24885076 -0.021333013 -0.80783278 160 117 124
-0.24821053 -0.018178571 -0.80760062 157 124 136
-0.24848621 -0.019353742 -0.80776697 159 122 132
-0.24842353 -0.020914247 -0.80706662 158 115 124
-0.24772803 -0.019823294 -0.80619258 159 122 131
-0.24763413 -0.020153433 -0.80593735 160 122 130
-0.24741375 -0.019450702 -0.8057704 158 121 133
-0.24743149 -0.017648 -0.80635154 155 120 138
-0.24695209 -0.018184043 -0.805336 155 117 136
-0.24885941 -0.022848874 -0.80713463 171 136 145
-0.24825428 -0.022917515 -0.80580127 168 132 142
-0.24828863 -0.021742677 -0.80644476 159 116 124
-0.24850188 -0.022590959 -0.80649161 167 129 139
-0.24970306 -0.023647379 -0.80874646 177 145 153
-0.24974483 -0.023625851 -0.80885506 177 144 152
-0.24936146 -0.024635412 -0.80750912 183 157 167
-0.24897754 -0.023971036 -0.80688143 179 151 161
-0.24931541 -0.024115855 -0.80762291 180 151 161
-0.24947695 -0.024725467 -0.80774516 183 158 168
-0.24792257 -0.022050494 -0.80561686 160 120 128
-0.2499862 -0.008235327 -0.81685734 175 150 159
-0.25000951 -0.0090342518 -0.81706017 172 145 156
-0.25071618 -0.013103255 -0.81891698 151 132 135
-0.25090319 -0.012759879 -0.81827354 167 143 145
-0.2507042 -0.013437457 -0.81886065 142 122 125
-0.25009167 -0.010094434 -0.81699622 169 140 151
-0.2509104 -0.01217825 -0.81806076 179 154 156
-0.25156027 -0.017222071 -0.81902701 190 170 178
-0.25120145 -0.016191255 -0.81961006 170 155 163
-0.25086352 -0.015022934 -0.82050472 153 145 151
-0.25073472 -0.015370563 -0.81945807 144 128 135
-0.25083619 -0.015887845 -0.8180024 146 119 126
-0.25103763 -0.015255675 -0.81726646 153 121 125
-0.25058374 -0.014478588 -0.81917816 133 116 121
-0.25099027 -0.015600058 -0.81741709 151 121 126
-0.25086111 -0.015537204 -0.81794274 146 119 125
-0.25120348 -0.017852154 -0.81682587 163 129 137
-0.25164509 -0.01830679 -0.81768167 180 153 162
-0.24462089 -0.017465843 -0.80087668 166 120 151
-0.24436741 -0.018038291 -0.79996783 166 121 145
-0.24483421 -0.018341096 -0.80093336 167 124 151
-0.24418527 -0.019064346 -0.79908317 161 117 140
-0.24510498 -0.021148264 -0.80010051 168 137 149
-0.24474557 -0.020901037 -0.79943866 163 128 144
-0.24418849 -0.021028506 -0.79817498 155 114 136
-0.24450997 -0.020563938 -0.79908633 161 123 142
-0.24413671 -0.020133022 -0.79848468 157 114 137
-0.24363512 -0.018852774 -0.79830813 166 126 145
-0.24351624 -0.018729823 -0.79814714 168 130 147
-0.24353571 -0.018490799 -0.79827249 169 131 147
-0.24437203 -0.02185094 -0.7983219 156 119 140
-0.2443424 -0.023408754 -0.79810512 161 121 143
-0.24456729 -0.023471894 -0.79858279 164 127 148
-0.24410598 -0.022491921 -0.79772222 156 115 137
-0.24365495 -0.02177784 -0.79728353 155 115 138
-0.24997213 -0.0084170057 -0.8167876 174 149 157
-0.25007474 -0.012997098 -0.81445843 168 138 144
-0.25053456 -0.013245123 -0.81543678 163 131 135
-0.25040022 -0.011644641 -0.81639862 163 132 139
-0.25042066 -0.013330584 -0.81507444 164 133 137
-0.25067085 -0.01278278 -0.8161642 161 128 133
-0.24995944 -0.011325758 -0.81552708 168 139 148
-0.24984995 -0.011130646 -0.81538451 169 141 150
-0.24962354 -0.011027892 -0.81442934 174 150 157
-0.24974431 -0.011280936 -0.81480473 171 145 153
-0.24966803 -0.010737748 -0.81482702 173 149 157
-0.24954762 -0.012750629 -0.81291986 175 152 156
-0.2506794 -0.017340332 -0.81455892 159 122 120
-0.25060341 -0.016748201 -0.81405818 158 121 116
-0.25091466 -0.015036564 -0.81547058 157 121 119
-0.25100988 -0.01616887 -0.81615847 158 122 125
-0.25108349 -0.017455118 -0.81675392 159 123 131
-0.25038901 -0.014301926 -0.81443107 164 132 133
-0.25056526 -0.016506769 -0.81389219 158 122 115
-0.24991901 -0.014255659 -0.81324494 169 140 142
-0.25076357 -0.015626755 -0.81479722 157 121 117
-0.25059783 -0.013982129 -0.81511116 162 129 131
-0.2504459 -0.015420631 -0.8140741 161 127 125
-0.25160837 -0.021384489 -0.81386197 182 155 163
-0.25148043 -0.020696178 -0.81435764 177 148 156
-0.25156194 -0.018858558 -0.81672651 175 145 154
-0.25084955 -0.019567199 -0.81295806 166 133 133
-0.25107986 -0.019818313 -0.81387651 167 135 140
-0.25108001 -0.018020377 -0.81618589 161 126 133
-0.25109151 -0.018143056 -0.81609035 161 126 134
-0.25098598 -0.018044248 -0.81564867 161 126 131
-0.25072041 -0.018097388 -0.81414974 161 125 124
-0.25196952 -0.02335576 -0.81327289 173 124 151
-0.25216946 -0.022529811 -0.81440192 186 150 169
-0.25281182 -0.024256658 -0.81480867 181 133 160
-0.2528967 -0.024573803 -0.81486177 180 130 157
-0.25283769 -0.024544092 -0.81470448 179 128 156
-0.25272438 -0.023611516 -0.81495476 186 141 167
-0.25187331 -0.02209685 -0.81397802 183 150 165
-0.25156412 -0.021775074 -0.81339383 178 147 158
-0.25312442 -0.02554951 -0.81493926 176 125 148
-0.2455207 -0.017372988 -0.80275667 161 117 146
-0.24608421 -0.016957739 -0.80397749 158 119 140
-0.24535841 -0.017161246 -0.80247903 162 119 146
-0.24593632 -0.017432049 -0.80357563 158 116 143
-0.24641481 -0.015859591 -0.8048842 158 123 136
-0.24544802 -0.017257301 -0.80263698 162 118 146
-0.24476239 -0.017437987 -0.80121648 166 119 152
-0.24576539 -0.014645983 -0.80383325 166 134 141
-0.2465871 -0.019281624 -0.80414027 160 124 140
-0.24650095 -0.020570703 -0.80343431 166 132 142
-0.2466802 -0.020713303 -0.80378997 165 129 139
-0.24649824 -0.01841902 -0.80427611 158 122 141
-0.24671078 -0.019201662 -0.804456 159 122 138
-0.24672471 -0.01865001 -0.80470538 157 119 137
-0.24531254 -0.017712697 -0.80223066 163 118 148
-0.24534066 -0.017784463 -0.80225307 163 118 148
-0.24622019 -0.018162409 -0.80383551 159 120 143
-0.24567944 -0.019220099 -0.8022536 166 131 150
-0.24639738 -0.018564239 -0.80400062 159 124 143
-0.24565722 -0.019599909 -0.80202985 168 134 151
-0.24734932 -0.021648394 -0.80497098 162 122 129
-0.24778482 -0.023345204 -0.80483836 168 137 146
-0.24771908 -0.02288416 -0.80494958 166 133 141
-0.24688016 -0.022644954 -0.80381936 168 135 143
-0.24714509 -0.022011414 -0.804497 165 127 134
-0.24348591 -0.021370523 -0.79708922 156 118 139
-0.24307875 -0.021084212 -0.79649943 162 127 145
-0.2430978 -0.02061018 -0.79670918 165 130 147
-0.24330021 -0.021013718 -0.79690474 160 123 143
-0.2431619 -0.022153545 -0.79650491 163 130 148
-0.24806207 -0.012700934 -0.80972797 169 137 140
-0.24915074 -0.012736314 -0.81198859 179 155 160
-0.24924843 -0.013628071 -0.81200331 169 139 143
-0.2477909 -0.012500008 -0.80933273 170 139 141
-0.24830861 -0.015290882 -0.80915082 165 134 137
-0.24879889 -0.01657947 -0.80945647 178 157 162
-0.24911323 -0.013694377 -0.81169999 167 136 140
-0.24848463 -0.015193867 -0.80956471 168 139 143
-0.24906616 -0.014807481 -0.81098902 172 145 150
-0.24893372 -0.015164052 -0.81051677 172 146 151
-0.24887902 -0.017010625 -0.80938607 180 162 168
-0.24999097 -0.015808955 -0.8127318 166 134 132
-0.24988601 -0.015787905 -0.81247258 167 137 136
-0.2499591 -0.017370798 -0.81195045 165 134 129
-0.24985908 -0.01514678 -0.81269103 168 139 139
-0.25012925 -0.016312314 -0.81286007 163 130 125
-0.25044709 -0.020478752 -0.81163025 166 131 133
-0.25046393 -0.019194998 -0.81230044 163 127 125
-0.25024956 -0.020201815 -0.81135726 165 128 129
-0.25058359 -0.0206079 -0.81184971 167 133 136
-0.25094494 -0.020987974 -0.81241179 170 139 143
-0.25026163 -0.020117169 -0.81142408 164 127 128
-0.24897048 -0.018159725 -0.80910856 179 158 164
-0.24921381 -0.018180409 -0.80972338 175 151 154
-0.24936287 -0.020937847 -0.80906427 166 126 132
-0.24925885 -0.019599883 -0.80930299 171 139 144
-0.24990112 -0.018716674 -0.81127954 163 127 124
-0.25020152 -0.017714242 -0.81242651 161 125 118
-0.25223652 -0.025240039 -0.81268537 167 99 143
-0.25136974 -0.024694847 -0.81147122 175 127 153
-0.25163758 -0.024260139 -0.81213337 172 121 149
-0.25107521 -0.02339207 -0.81158972 177 142 156
-0.25154704 -0.023409272 -0.81238669 172 127 149
-0.25055975 -0.024801906 -0.81002438 183 152 165
-0.25097537 -0.022596374 -0.81180626 177 149 157
-0.2501539 -0.022071725 -0.81030375 170 135 142
-0.2508992 -0.021511503 -0.81206113 172 140 147
-0.25045791 -0.022809468 -0.81065804 176 145 153
-0.25010341 -0.024663415 -0.80922675 184 157 165
-0.25024402 -0.022280602 -0.81041247 172 138 145
-0.25090322 -0.022282494 -0.81178021 176 146 154
-0.25217906 -0.027297147 -0.81200266 177 128 150
-0.25150135 -0.025549013 -0.81137711 175 121 154
0 0 0 1 0 0 0 1 0 0 0 1 0 0 0 0 0 185 1 0 0
