ply
format ascii 1.0
comment PCL generated
element vertex 716
property float x
property float y
property float z
property uchar red
property uchar green
property uchar blue
element camera 1
property float view_px
property float view_py
property float view_pz
property float x_axisx
property float x_axisy
property float x_axisz
property float y_axisx
property float y_axisy
property float y_axisz
property float z_axisx
property float z_axisy
property float z_axisz
property float focal
property float scalex
property float scaley
property float centerx
property float centery
property int viewportx
property int viewporty
property float k1
property float k2
end_header
-0.18182343 -0.23222607 -0.77211136 136 94 106
-0.18298113 -0.23219483 -0.77356815 135 81 103
-0.18326584 -0.23397303 -0.77382118 137 73 107
-0.18310042 -0.23298922 -0.77366936 136 77 105
-0.18283333 -0.23374298 -0.77329087 137 78 108
-0.18272969 -0.23506624 -0.77309799 138 75 111
-0.18332137 -0.2363068 -0.77376491 139 66 114
-0.18220775 -0.2362818 -0.77252734 128 59 108
-0.18154117 -0.23326349 -0.77176994 132 87 104
-0.18066682 -0.23496051 -0.77086735 111 76 88
-0.18088453 -0.23464741 -0.77109295 116 78 92
-0.18122108 -0.2339904 -0.77144033 124 82 98
-0.18012872 -0.23533584 -0.77030194 102 76 79
-0.18259247 -0.23782369 -0.7731024 111 56 91
-0.18243815 -0.23737237 -0.77288651 116 56 96
-0.18287097 -0.23872808 -0.77350086 102 55 81
-0.18267956 -0.2395262 -0.7733795 88 50 70
-0.18266477 -0.23969014 -0.77338856 86 49 68
-0.18118368 -0.23774268 -0.77155536 101 50 87
-0.18151428 -0.23971759 -0.77223432 71 39 60
-0.18136601 -0.23947495 -0.77202231 75 40 63
-0.1805529 -0.23883857 -0.77095962 84 47 74
-0.18025044 -0.23753783 -0.77051902 92 58 77
-0.18111163 -0.23729923 -0.77140564 108 52 93
-0.18001118 -0.23663864 -0.77021116 94 65 75
-0.18019813 -0.23735532 -0.77045262 92 59 76
-0.18248041 -0.24143751 -0.7732513 83 46 69
-0.18208508 -0.24035563 -0.77289325 70 40 57
-0.18274777 -0.24058461 -0.77353853 81 48 64
-0.19339986 -0.22047444 -0.78684413 176 169 149
-0.19334026 -0.2207022 -0.78672171 182 177 155
-0.1934794 -0.22137834 -0.78721428 181 175 160
-0.19336948 -0.22306961 -0.78725559 176 168 157
-0.19338773 -0.22319433 -0.78733212 176 168 158
-0.19292158 -0.22380194 -0.78675675 173 162 150
-0.19285367 -0.22373645 -0.78664708 173 161 149
-0.192762 -0.22433446 -0.78663981 171 158 148
-0.19250305 -0.22394781 -0.78619361 171 158 143
-0.19249092 -0.22150806 -0.78589702 185 180 157
-0.19222593 -0.22299142 -0.78572261 177 166 146
-0.194032 -0.22748968 -0.78912771 138 111 126
-0.19397204 -0.22732145 -0.78897738 140 114 127
-0.19399054 -0.22829734 -0.78908807 128 98 114
-0.19357988 -0.22819689 -0.78836566 132 102 115
-0.19389628 -0.22837079 -0.78893417 128 97 113
-0.19221808 -0.22843987 -0.78640038 161 134 126
-0.1919529 -0.22831813 -0.78601038 170 143 131
-0.19226307 -0.22748575 -0.78634644 170 148 138
-0.19175589 -0.22711653 -0.78558248 173 151 134
-0.19313233 -0.22479771 -0.78724432 172 161 155
-0.19218856 -0.22721325 -0.78620756 175 154 142
-0.19387653 -0.22966273 -0.78911537 129 101 119
-0.19373997 -0.23123147 -0.7891494 133 110 129
-0.19349691 -0.2307103 -0.78845727 131 104 121
-0.19338687 -0.22939405 -0.78810346 130 99 114
-0.1923627 -0.23179325 -0.786524 128 98 113
-0.19256513 -0.23231693 -0.78680885 127 98 115
-0.19312064 -0.23188987 -0.78762132 126 97 118
-0.19274282 -0.23099695 -0.78708839 128 98 113
-0.19245198 -0.22912341 -0.78672111 147 118 119
-0.19207452 -0.22953577 -0.78617418 152 124 122
-0.19198582 -0.22880535 -0.78607202 163 136 127
-0.19209267 -0.23108183 -0.78615063 133 104 113
-0.19407718 -0.23580933 -0.78934968 143 120 128
-0.19362824 -0.23368794 -0.788481 132 105 124
-0.19375141 -0.233312 -0.78901899 134 112 130
-0.1939636 -0.23564219 -0.78905857 140 116 124
-0.19402006 -0.23569587 -0.78919548 142 118 127
-0.19351365 -0.23456447 -0.78805721 124 100 108
-0.19252531 -0.23524676 -0.78646439 115 99 92
-0.19238582 -0.23561361 -0.78622907 114 100 88
-0.19334874 -0.23261125 -0.78791833 125 96 119
-0.1930387 -0.23279969 -0.78745872 124 97 116
-0.19244246 -0.23245639 -0.78662604 126 98 115
-0.19293058 -0.23276524 -0.78730518 125 97 115
-0.19194499 -0.2359328 -0.78558356 113 102 84
-0.19412145 -0.23650737 -0.789397 143 120 125
-0.19395626 -0.23854712 -0.78931242 129 99 103
-0.19371848 -0.23776039 -0.78857422 122 95 94
-0.19349632 -0.23771934 -0.78796214 115 90 84
-0.19224644 -0.2366685 -0.78594738 114 102 84
-0.19291215 -0.23718183 -0.78683048 118 99 91
-0.20252137 -0.21529046 -0.80764771 165 155 156
-0.20249237 -0.21493311 -0.80723399 157 147 151
-0.20241132 -0.21554518 -0.80686784 172 161 166
-0.20223385 -0.21393885 -0.8053959 183 169 177
-0.20234844 -0.21517453 -0.80629325 171 159 167
-0.20227256 -0.21380566 -0.80562091 177 164 172
-0.20221074 -0.21531327 -0.80544537 189 175 185
-0.20118359 -0.22009341 -0.80547148 136 107 109
-0.20224637 -0.21972053 -0.80756432 177 159 167
-0.20181528 -0.21955656 -0.80648619 164 142 148
-0.20233722 -0.2201478 -0.80808759 176 157 166
-0.20144722 -0.21937035 -0.80553085 153 129 133
-0.20240115 -0.21761744 -0.80746901 197 184 185
-0.20249684 -0.21947715 -0.80841637 185 169 175
-0.20242552 -0.21818706 -0.80771858 194 179 182
-0.20249917 -0.21756651 -0.80827063 197 184 179
-0.20256703 -0.2176975 -0.80883992 196 183 176
-0.20148742 -0.22334041 -0.80539489 123 84 108
-0.20147651 -0.22303797 -0.8055073 124 86 108
-0.20128021 -0.22160143 -0.80571645 126 93 102
-0.20189318 -0.22313008 -0.80640209 139 104 129
-0.20192391 -0.22390658 -0.8071385 130 97 120
-0.20191814 -0.22430207 -0.8075577 124 93 113
-0.20222992 -0.22215739 -0.80780876 156 130 147
-0.20211424 -0.22266756 -0.80737543 148 119 139
-0.20203948 -0.22295567 -0.80704576 144 113 135
-0.20109238 -0.22196651 -0.80519134 117 81 92
-0.20189804 -0.22775258 -0.80640888 129 110 122
-0.20194662 -0.22638191 -0.80741757 126 104 117
-0.20194134 -0.22627799 -0.80740571 126 104 117
-0.20204014 -0.22837025 -0.80757195 118 101 115
-0.20192677 -0.22639132 -0.80721819 127 105 118
-0.20186014 -0.225538 -0.80699259 124 95 114
-0.20164815 -0.22520164 -0.8052327 122 83 113
-0.20179823 -0.22818361 -0.80527145 135 116 129
-0.20178115 -0.22520657 -0.80642748 122 89 113
-0.20192589 -0.22606479 -0.80735254 126 103 116
-0.20119709 -0.23145315 -0.80630159 117 72 97
-0.20131876 -0.23099793 -0.80619174 117 76 99
-0.20172915 -0.23094201 -0.80737293 108 75 98
-0.20165625 -0.22909631 -0.80525988 132 109 123
-0.20165621 -0.23142335 -0.80764616 103 66 92
-0.20179637 -0.22888185 -0.80550748 132 111 125
-0.20203352 -0.22987629 -0.80892408 101 77 96
-0.20207843 -0.22901338 -0.80843234 108 90 105
-0.20187192 -0.23015726 -0.80763459 109 82 102
-0.20189239 -0.22880131 -0.80636758 125 106 120
-0.20182195 -0.22860408 -0.80545902 133 115 127
-0.20081946 -0.2316483 -0.8058309 120 74 99
-0.20062968 -0.23203696 -0.80591196 119 71 97
-0.20194282 -0.23446006 -0.80872804 94 59 84
-0.20155175 -0.23293185 -0.80816323 99 55 83
-0.20216747 -0.23589268 -0.80883461 95 66 87
-0.2011814 -0.23493916 -0.8070091 123 83 107
-0.20138121 -0.23514397 -0.8073746 117 80 103
-0.20150086 -0.23450355 -0.8076666 109 70 95
-0.20078644 -0.23614578 -0.80638731 134 101 121
-0.20085819 -0.23463525 -0.8066228 124 85 108
-0.20116358 -0.2333395 -0.80713356 114 67 95
-0.20091681 -0.23246273 -0.80680132 112 62 90
-0.20004219 -0.2353131 -0.80548644 136 104 121
-0.20003691 -0.23551711 -0.8054896 136 106 123
-0.20138791 -0.23742153 -0.80774254 139 108 127
-0.20134288 -0.23643863 -0.80723476 127 95 115
-0.20079206 -0.23776986 -0.80626285 145 115 133
-0.20055483 -0.23640533 -0.80606866 137 107 125
-0.20072384 -0.23665267 -0.80625689 138 107 125
-0.20524725 -0.21597664 -0.81691122 177 161 172
-0.20534825 -0.21517648 -0.82055241 14 7 6
-0.20518599 -0.21547259 -0.82063484 13 6 5
-0.20513538 -0.21398185 -0.81861877 30 15 14
-0.20559391 -0.21331476 -0.81860465 33 16 16
-0.20524418 -0.21303508 -0.81759852 40 20 20
-0.20507814 -0.21765482 -0.81728697 173 156 168
-0.17934342 -0.23642957 -0.76949477 83 63 65
-0.19143629 -0.220505 -0.78449625 175 169 151
-0.19185482 -0.22026844 -0.78495502 180 175 155
-0.19168244 -0.21901222 -0.78454107 155 143 132
-0.1917282 -0.21909949 -0.78462785 157 146 134
-0.18955922 -0.22390112 -0.7818467 103 88 83
-0.19027728 -0.22101536 -0.78308928 153 140 132
-0.19101161 -0.22238089 -0.78385019 150 143 126
-0.19049948 -0.22124624 -0.78334105 154 143 133
-0.19043487 -0.22075744 -0.78331769 159 147 138
-0.1895436 -0.22425811 -0.78178489 98 84 78
-0.19083424 -0.22458673 -0.7837922 134 118 107
-0.19185904 -0.22206111 -0.78514266 177 171 150
-0.19035654 -0.22388297 -0.78297073 123 110 100
-0.19118918 -0.22305766 -0.78419316 152 142 126
-0.19076844 -0.2236498 -0.7835933 136 125 112
-0.19154234 -0.22459048 -0.78490382 155 139 124
-0.18975149 -0.22756238 -0.78218448 179 166 153
-0.19006363 -0.22850999 -0.78275353 204 188 173
-0.18987212 -0.22791509 -0.7824043 188 174 160
-0.18966927 -0.22684963 -0.78203213 158 145 134
-0.19008687 -0.22638786 -0.78278309 137 119 109
-0.19051671 -0.22672041 -0.78356212 140 120 108
-0.18971489 -0.22544436 -0.78210407 114 98 91
-0.19150782 -0.22572124 -0.78500479 160 140 126
-0.19173977 -0.22470041 -0.78522813 162 145 129
-0.19087824 -0.22711332 -0.78420854 148 125 113
-0.19055453 -0.22547755 -0.78347516 130 112 101
-0.19163367 -0.2276154 -0.78546321 173 149 132
-0.19189538 -0.22508249 -0.78552496 168 150 134
-0.190806 -0.22919506 -0.78406864 182 162 150
-0.19161019 -0.23219849 -0.78540093 132 103 114
-0.19113311 -0.22908761 -0.78466475 178 155 143
-0.19059341 -0.23026951 -0.78364033 173 153 150
-0.19052656 -0.23011374 -0.78352576 176 157 153
-0.19100071 -0.22869959 -0.78444105 185 163 148
-0.1897839 -0.23154318 -0.78283268 135 110 119
-0.1902236 -0.23127483 -0.78334004 146 122 128
-0.19060422 -0.23193452 -0.78400075 131 104 115
-0.19134861 -0.23209052 -0.78501123 134 106 116
-0.1907956 -0.23087326 -0.78398699 162 140 141
-0.18913305 -0.23085427 -0.78180456 145 120 125
-0.18878542 -0.23208287 -0.78164768 104 72 86
-0.19168389 -0.2343334 -0.78537214 119 99 95
-0.19004451 -0.23251662 -0.78338331 113 84 99
-0.19111343 -0.23295693 -0.784742 120 94 102
-0.19122812 -0.23455299 -0.78475893 114 95 90
-0.19074547 -0.23335131 -0.78422886 115 90 97
-0.19001849 -0.23473096 -0.78293306 127 107 112
-0.1895283 -0.23335469 -0.78250682 119 92 106
-0.19053017 -0.23459154 -0.78376609 116 97 96
-0.18948787 -0.23343773 -0.78242326 121 94 109
-0.18937801 -0.23372222 -0.7822004 123 97 112
-0.19979441 -0.21423467 -0.79865134 124 109 112
-0.20031764 -0.21512976 -0.79966921 140 121 128
-0.19958241 -0.21362144 -0.79815102 106 94 96
-0.19926348 -0.21592954 -0.79833531 123 100 103
-0.20004988 -0.21645759 -0.79965764 151 126 134
-0.19969822 -0.21479461 -0.79866838 128 110 114
-0.20014873 -0.21551883 -0.79954356 147 126 133
-0.19931032 -0.21464562 -0.79804718 115 97 99
-0.19946098 -0.21611607 -0.79868245 130 107 111
-0.19989251 -0.2154063 -0.79912931 138 118 124
-0.1996997 -0.21958126 -0.80002111 149 130 132
-0.19920917 -0.22044925 -0.79941243 140 124 123
-0.20001695 -0.21874498 -0.80015165 161 140 146
-0.20031181 -0.21817896 -0.80047518 167 145 152
-0.20002393 -0.21908697 -0.8004995 153 132 135
-0.19997171 -0.21970034 -0.80093336 141 120 119
-0.1994763 -0.2181693 -0.79889053 153 132 138
-0.19864243 -0.2195849 -0.79763961 145 130 133
-0.20011085 -0.21796672 -0.79983938 170 148 158
-0.19989567 -0.21811938 -0.79951727 165 144 153
-0.1997833 -0.21744017 -0.79935169 153 130 137
-0.19892284 -0.22443771 -0.79992884 147 129 138
-0.19941816 -0.22170325 -0.80034882 128 109 106
-0.19893506 -0.22326791 -0.79905313 133 116 119
-0.19893607 -0.22420575 -0.79981238 144 126 135
-0.19901051 -0.22293727 -0.79918611 131 114 116
-0.19889757 -0.22154492 -0.79874218 137 122 123
-0.19888367 -0.22253768 -0.79870278 133 117 119
-0.19843383 -0.22113548 -0.79738063 149 137 140
-0.19888504 -0.22208145 -0.79870617 135 119 121
-0.1984937 -0.22141513 -0.7975567 146 134 137
-0.19873148 -0.22813308 -0.80047011 123 94 117
-0.19881067 -0.22757724 -0.80063146 128 100 121
-0.1988821 -0.22609493 -0.80061984 141 118 134
-0.19865467 -0.22597553 -0.79988134 142 120 134
-0.19859436 -0.22636078 -0.79975241 138 116 130
-0.19815518 -0.22625677 -0.79755598 129 109 121
-0.19804388 -0.22741497 -0.79805523 127 103 118
-0.19881681 -0.22493997 -0.79981685 146 127 138
-0.19819109 -0.22642799 -0.79790658 130 109 122
-0.19843452 -0.22646663 -0.79922956 137 115 128
-0.19836625 -0.22519985 -0.79767942 133 116 127
-0.19816808 -0.23228879 -0.79753542 104 86 107
-0.19860306 -0.23229736 -0.80093873 136 113 128
-0.19846833 -0.23151444 -0.79939932 118 95 115
-0.19878499 -0.2303042 -0.80112028 128 100 121
-0.19843702 -0.23227108 -0.79962528 124 102 119
-0.19843447 -0.22871207 -0.79952478 118 90 112
-0.19830631 -0.22888716 -0.79905939 117 90 111
-0.19819318 -0.23147947 -0.79781157 107 86 107
-0.198717 -0.22879243 -0.80039078 118 89 113
-0.19864009 -0.22950199 -0.79990399 115 88 112
-0.19831544 -0.2308825 -0.79840326 109 86 109
-0.19847392 -0.23544993 -0.79861045 144 111 125
-0.19868183 -0.23619473 -0.79984981 153 126 142
-0.19845171 -0.23536131 -0.79848224 143 109 123
-0.19875745 -0.23509637 -0.80094373 152 129 146
-0.19865149 -0.23509982 -0.8001321 148 122 138
-0.19872825 -0.23493177 -0.80079776 150 126 143
-0.19827197 -0.2334711 -0.79794937 120 95 113
-0.19849226 -0.23423646 -0.79931957 140 110 124
-0.19827949 -0.23412323 -0.79770929 124 97 113
-0.19818255 -0.23308222 -0.79742885 111 89 109
-0.19827117 -0.23477578 -0.79734558 127 97 113
-0.19877839 -0.23938859 -0.8006779 141 112 133
-0.19853891 -0.23778544 -0.79988992 144 122 135
-0.19821264 -0.23975621 -0.79856926 126 103 109
-0.19887918 -0.2388019 -0.80108452 146 118 140
-0.19888178 -0.23775399 -0.8011564 152 126 148
-0.19883208 -0.23953523 -0.80086714 141 111 134
-0.19840427 -0.23801875 -0.79927021 140 118 127
-0.19844075 -0.23703127 -0.79861176 143 114 127
-0.19832291 -0.23758259 -0.79823434 138 110 119
-0.19853802 -0.2371067 -0.79942703 147 121 134
-0.1985281 -0.23700036 -0.79925013 146 120 133
-0.19830292 -0.23702201 -0.79754961 139 105 116
-0.19842227 -0.24263263 -0.8000474 141 115 129
-0.19881327 -0.24104664 -0.80111021 138 106 126
-0.19804242 -0.24085128 -0.79799342 127 105 111
-0.1981504 -0.24168642 -0.79850048 139 116 130
-0.19794114 -0.24053359 -0.79757851 121 100 102
-0.19854768 -0.24067131 -0.7998336 136 108 126
-0.19868961 -0.24098775 -0.80039835 143 113 137
-0.20525679 -0.21617459 -0.81609684 192 177 188
-0.20511189 -0.21596465 -0.81525439 183 167 178
-0.20511393 -0.21421036 -0.81410199 161 146 153
-0.20522493 -0.21456979 -0.8132605 193 180 188
-0.2049862 -0.21310028 -0.81553316 100 81 84
-0.20502289 -0.21585929 -0.81465393 178 162 172
-0.20489074 -0.2137976 -0.81660813 86 65 69
-0.20490937 -0.2149768 -0.81506944 138 120 127
-0.20478457 -0.2133069 -0.81643999 64 42 43
-0.20512979 -0.21707404 -0.81446844 214 198 211
-0.20510831 -0.21834271 -0.81581962 184 162 174
-0.20207454 -0.21990849 -0.813703 122 107 111
-0.20257579 -0.22061282 -0.81324846 119 98 98
-0.20241886 -0.2205354 -0.81335551 118 98 99
-0.20386314 -0.21848561 -0.81407547 169 152 160
-0.2041467 -0.21779451 -0.81342465 186 172 181
-0.20420779 -0.21797167 -0.81375301 183 167 176
-0.20265979 -0.21964884 -0.81429422 132 115 121
-0.20240822 -0.2194761 -0.81374234 133 119 124
-0.20326565 -0.21900956 -0.81410706 151 135 142
-0.20472756 -0.21809499 -0.81455767 185 166 176
-0.20154178 -0.21993299 -0.81495571 96 74 79
-0.20308386 -0.21951167 -0.81593937 123 97 105
-0.20252094 -0.21986723 -0.8153671 114 92 99
-0.2017038 -0.21908954 -0.81590343 92 63 70
-0.20375484 -0.21921681 -0.81648523 133 104 115
-0.20506501 -0.21790144 -0.81498903 194 174 187
-0.20194866 -0.2222293 -0.81342494 100 78 87
-0.20144971 -0.22165954 -0.81376165 94 77 84
-0.20174168 -0.22289871 -0.81347394 93 71 83
-0.20206927 -0.22375701 -0.81310284 104 81 92
-0.20219284 -0.22378497 -0.81300038 109 86 96
-0.20153201 -0.23255654 -0.81327176 122 113 124
-0.20199297 -0.23443581 -0.81313521 119 107 120
-0.20197286 -0.23386152 -0.81303984 119 108 120
-0.18601352 -0.22618183 -0.77740556 146 116 129
-0.18599252 -0.2275636 -0.77722138 154 124 131
-0.18625179 -0.22796507 -0.77757502 149 118 128
-0.18566632 -0.22699104 -0.77678484 159 132 135
-0.18437043 -0.22749816 -0.7751826 153 132 124
-0.18459222 -0.22680813 -0.77552372 151 128 126
-0.18466292 -0.22847319 -0.77539754 163 142 130
-0.18529303 -0.22593534 -0.77643859 153 126 132
-0.18392515 -0.22803381 -0.77460372 151 133 120
-0.18406864 -0.22698595 -0.77490062 145 124 119
-0.18577565 -0.22931793 -0.77680683 156 123 120
-0.1859441 -0.23012866 -0.77711147 141 101 100
-0.18562022 -0.23168546 -0.77675879 132 83 79
-0.18561162 -0.23240539 -0.77680242 124 69 65
-0.18515611 -0.23072165 -0.77609956 148 106 105
-0.18508342 -0.23230806 -0.77613324 129 75 76
-0.18495847 -0.23110361 -0.77588624 144 99 101
-0.18451998 -0.23129559 -0.77536207 144 96 104
-0.18360272 -0.23194857 -0.77428514 140 85 105
-0.18490466 -0.22905105 -0.77568626 165 136 131
-0.18481734 -0.22865884 -0.77557403 165 141 131
-0.18350998 -0.23073372 -0.77413267 144 103 110
-0.18370551 -0.2309496 -0.77436405 145 101 112
-0.18392225 -0.229982 -0.77458429 151 116 117
-0.18620513 -0.23336798 -0.7775774 96 42 54
-0.18575177 -0.23348816 -0.77691686 110 61 66
-0.18597654 -0.2346741 -0.7771399 93 49 66
-0.183726 -0.23603824 -0.774252 134 66 108
-0.18485397 -0.23528694 -0.77560472 115 62 88
-0.18465629 -0.23481688 -0.77543676 124 66 89
-0.18501313 -0.23591286 -0.77571142 106 59 87
-0.18332411 -0.23354118 -0.77391702 136 73 105
-0.18343186 -0.23257653 -0.77410322 135 76 100
-0.18424796 -0.2344961 -0.77499956 134 69 94
-0.18380579 -0.23438726 -0.77446204 135 70 101
-0.18325809 -0.2328164 -0.77387625 136 75 103
-0.18649499 -0.23820427 -0.77748686 86 59 71
-0.18622304 -0.23788868 -0.77710116 90 61 75
-0.18653764 -0.23706183 -0.77773273 71 37 64
-0.18629201 -0.2401112 -0.77712774 96 76 70
-0.18578887 -0.23983848 -0.77657592 92 69 67
-0.1855536 -0.23713818 -0.7762816 90 56 77
-0.18405686 -0.24003166 -0.77483982 85 56 64
-0.18537496 -0.23807804 -0.77611732 89 58 73
-0.18432416 -0.23996408 -0.77510351 86 58 64
-0.18365736 -0.23934612 -0.77443469 84 52 67
-0.18463586 -0.24003452 -0.7754131 87 60 64
-0.18376042 -0.23695537 -0.77431971 120 61 99
-0.18408328 -0.23670189 -0.77465701 117 61 98
-0.18387581 -0.23815487 -0.77456856 98 55 80
-0.18491489 -0.23727305 -0.77564734 88 53 77
-0.18613093 -0.24071395 -0.77702963 92 68 64
-0.18543072 -0.24089332 -0.77623528 91 64 64
-0.18380563 -0.24176688 -0.77455008 96 57 77
-0.18434429 -0.24099711 -0.77510542 92 60 70
-0.18393248 -0.24161369 -0.77468002 95 58 75
-0.18381813 -0.24094835 -0.7745859 90 56 69
-0.18456161 -0.24057953 -0.77533251 89 61 66
-0.19631624 -0.21844177 -0.79218978 109 81 87
-0.19639954 -0.21896042 -0.79247224 111 84 93
-0.19640714 -0.22011064 -0.79274666 118 91 107
-0.19684826 -0.21852052 -0.79326504 104 78 84
-0.19642308 -0.21754484 -0.79215336 104 78 77
-0.19637015 -0.22415257 -0.79266137 128 98 121
-0.19667098 -0.227337 -0.7933138 140 112 127
-0.19643259 -0.22842219 -0.79306716 148 123 134
-0.19499309 -0.22775772 -0.79065919 126 94 113
-0.1958432 -0.22630671 -0.79184669 121 87 110
-0.19596019 -0.2259849 -0.79199457 119 85 108
-0.19639422 -0.22690357 -0.79281199 133 103 121
-0.19550848 -0.22582154 -0.79138643 132 101 123
-0.19455566 -0.22741109 -0.79001093 131 101 121
-0.19590488 -0.22566883 -0.7919333 125 92 115
-0.19519126 -0.23175675 -0.79176223 138 114 134
-0.19556537 -0.23101866 -0.79221904 141 116 134
-0.19459976 -0.23203339 -0.79078096 137 115 135
-0.19605897 -0.22976473 -0.79274035 146 122 135
-0.19596781 -0.23017 -0.79269457 144 119 135
-0.19470918 -0.23192002 -0.7909444 137 115 135
-0.19455619 -0.23036163 -0.79034722 135 112 129
-0.19444822 -0.23048098 -0.79019213 134 111 129
-0.1943499 -0.22880286 -0.78976369 127 97 115
-0.19500551 -0.23014034 -0.79103684 139 116 132
-0.19422469 -0.22970511 -0.78970659 129 102 121
-0.19593009 -0.2293442 -0.79240113 146 123 136
-0.1949836 -0.23476206 -0.79121447 143 115 129
-0.19539113 -0.23520297 -0.79197448 145 116 131
-0.19566205 -0.23614645 -0.79242253 149 119 134
-0.19587198 -0.23490456 -0.79294306 146 114 133
-0.19510308 -0.23604579 -0.79133594 147 120 131
-0.19480655 -0.23554039 -0.79079914 145 119 130
-0.19517803 -0.2337684 -0.7917105 140 112 130
-0.19480515 -0.23408042 -0.79098988 140 115 130
-0.19498943 -0.23252507 -0.7915765 136 111 132
-0.19429561 -0.23465002 -0.78998154 141 118 131
-0.19459824 -0.23447606 -0.79055333 141 117 130
-0.19518164 -0.23381595 -0.79170918 140 112 130
-0.19587369 -0.23799753 -0.79321992 154 123 139
-0.19448169 -0.24009599 -0.79070777 134 100 107
-0.19472706 -0.2400417 -0.79124004 139 106 115
-0.19573241 -0.237865 -0.79286706 150 118 133
-0.19593054 -0.23757449 -0.7932269 153 122 137
-0.19534996 -0.23883374 -0.79228795 147 115 127
-0.19486313 -0.2372773 -0.79096133 142 112 121
-0.19418062 -0.23720393 -0.78961444 140 114 120
-0.19538833 -0.23636863 -0.7918753 149 120 132
-0.1943153 -0.23925117 -0.79013824 129 93 100
-0.19413815 -0.23908116 -0.78976953 129 95 101
-0.19486046 -0.24303405 -0.7924937 156 132 129
-0.19484606 -0.24218583 -0.79167312 147 118 120
-0.19479004 -0.24278456 -0.79197043 151 124 123
-0.19473381 -0.24085119 -0.79130536 141 109 116
-0.19485064 -0.24166653 -0.79156059 145 115 119
-0.19436291 -0.24036106 -0.79048091 132 98 104
-0.19494215 -0.24130961 -0.79176724 147 117 123
-0.20131016 -0.21659608 -0.80183882 178 155 168
-0.20144513 -0.21604896 -0.80195618 156 137 148
-0.20182866 -0.21555808 -0.8030659 144 131 140
-0.20200142 -0.21650758 -0.80441773 188 174 186
-0.20164791 -0.21623722 -0.80286878 169 151 163
-0.20171838 -0.21626173 -0.80315614 172 155 166
-0.20218161 -0.21389139 -0.80504769 187 174 182
-0.20216385 -0.21336544 -0.80473167 172 159 167
-0.20211266 -0.21587007 -0.80478752 187 174 185
-0.2014516 -0.21753475 -0.80348718 179 156 167
-0.20191683 -0.21734042 -0.80501264 191 174 184
-0.20175613 -0.21763186 -0.80477768 183 164 174
-0.20122872 -0.21938539 -0.80504417 146 119 122
-0.20096382 -0.21929264 -0.80403215 145 117 120
-0.20108846 -0.21833824 -0.80319357 161 134 141
-0.2007129 -0.21826248 -0.8019222 160 134 141
-0.20016989 -0.22037865 -0.80250067 128 104 100
-0.20072767 -0.21808371 -0.80175102 163 137 144
-0.20026061 -0.22026588 -0.80271256 129 105 102
-0.20042613 -0.21930492 -0.80213135 144 120 121
-0.20029493 -0.22036663 -0.80297655 128 103 99
-0.20131795 -0.22427027 -0.80465221 116 73 103
-0.20097813 -0.22314197 -0.80454266 118 80 99
-0.20024332 -0.22406326 -0.80306005 132 101 120
-0.20040312 -0.22236717 -0.80396658 128 99 106
-0.20044112 -0.22237809 -0.80402088 128 98 105
-0.20096394 -0.22177014 -0.80505246 117 83 91
-0.19999704 -0.22165057 -0.8028034 130 107 105
-0.19961731 -0.22290544 -0.80206108 141 119 123
-0.19983269 -0.22171579 -0.8021965 131 109 108
-0.19975843 -0.22095037 -0.80144727 126 106 100
-0.20011127 -0.22076374 -0.80272228 123 100 94
-0.19997127 -0.22089279 -0.80224925 125 102 97
-0.20151509 -0.22577977 -0.80479008 123 87 113
-0.20143121 -0.22850965 -0.80457526 135 114 128
-0.20066325 -0.22675285 -0.80352503 122 88 112
-0.19925265 -0.22805725 -0.8016057 119 87 113
-0.20078941 -0.22750573 -0.80369586 127 97 118
-0.20027313 -0.22804832 -0.8029933 126 97 119
-0.19996081 -0.22798114 -0.80256867 124 93 117
-0.20010257 -0.22588579 -0.80271834 122 87 113
-0.19930466 -0.22528848 -0.80148137 144 121 136
-0.2001538 -0.22585075 -0.80279219 122 86 112
-0.19999689 -0.22482024 -0.8024798 135 105 125
-0.19991086 -0.22679968 -0.8025012 117 81 109
-0.20043662 -0.23132575 -0.80497277 127 84 105
-0.20003034 -0.23061337 -0.80405265 126 88 110
-0.19932716 -0.22954988 -0.80239171 122 87 111
-0.20003328 -0.22899413 -0.80298352 127 97 118
-0.19990353 -0.22907509 -0.80286086 126 95 117
-0.19996101 -0.22946115 -0.80319482 126 94 115
-0.19899336 -0.23130393 -0.8020305 130 99 119
-0.19932599 -0.23084621 -0.80293441 125 87 110
-0.19963665 -0.23214252 -0.80419737 126 83 105
-0.19889957 -0.23038241 -0.80152041 127 98 119
-0.19909957 -0.23077272 -0.80222559 127 94 115
-0.1988862 -0.23192944 -0.8018555 134 105 122
-0.19977862 -0.23358755 -0.80471683 132 91 111
-0.19938606 -0.23597275 -0.80338067 149 123 139
-0.19976133 -0.23484494 -0.80483282 137 104 121
-0.19949359 -0.23479655 -0.80366737 142 109 128
-0.19974053 -0.2360536 -0.80492628 143 116 130
-0.19961827 -0.23399425 -0.80408496 136 98 119
-0.19962308 -0.23263125 -0.80418456 129 87 108
-0.19945869 -0.23256519 -0.80369532 130 91 111
-0.19895788 -0.23466101 -0.80177414 148 122 140
-0.19964199 -0.23334241 -0.80410898 133 91 113
-0.19935463 -0.23419112 -0.80307293 141 106 127
-0.19909434 -0.23483667 -0.80215764 148 119 139
-0.19945988 -0.23873056 -0.80338389 146 118 136
-0.19941896 -0.237973 -0.80345565 142 114 132
-0.19971681 -0.23779373 -0.80450726 148 123 137
-0.19933003 -0.23825361 -0.80305785 142 113 133
-0.19957903 -0.23659463 -0.80425072 146 120 135
-0.1992982 -0.23705587 -0.80300373 148 123 140
-0.19895928 -0.23934498 -0.80137795 143 113 137
-0.19921072 -0.23762235 -0.80258578 147 120 139
-0.19896349 -0.23954415 -0.80138236 142 111 135
-0.19891571 -0.24206968 -0.80190879 140 111 121
-0.1990782 -0.24117522 -0.80207956 143 114 130
-0.19944142 -0.24077156 -0.803132 152 125 140
-0.19944298 -0.24041441 -0.80298716 152 124 142
-0.19916509 -0.2410157 -0.80230492 145 117 132
-0.19888154 -0.24224798 -0.80186874 139 111 119
-0.18891734 -0.22610715 -0.78100556 147 131 126
-0.18843667 -0.22609614 -0.78043848 154 136 134
-0.18804117 -0.22590092 -0.779971 154 134 135
-0.18824127 -0.22608142 -0.78020799 157 138 137
-0.18730901 -0.22621141 -0.77908927 168 144 149
-0.18866447 -0.22836545 -0.78065145 198 181 173
-0.18820444 -0.22709948 -0.78016478 187 169 166
-0.18860313 -0.22781375 -0.78061771 196 180 173
-0.18683784 -0.22697233 -0.77842337 158 130 138
-0.18716832 -0.22689122 -0.7788536 165 140 145
-0.18640536 -0.22588816 -0.77795726 148 119 131
-0.187427 -0.23120943 -0.77922291 136 93 93
-0.18853249 -0.23079738 -0.78086323 145 116 117
-0.18862405 -0.23054668 -0.78093463 153 125 125
-0.18763719 -0.2309856 -0.77949154 142 103 102
-0.18864807 -0.23094703 -0.78109211 140 111 115
-0.18798918 -0.23096386 -0.78004634 142 106 106
-0.18809639 -0.23062828 -0.78011745 152 119 117
-0.18864907 -0.22898465 -0.78063959 192 172 163
-0.18714827 -0.22908631 -0.7787202 158 128 131
-0.18639997 -0.22878864 -0.77774829 145 112 121
-0.18666001 -0.22937715 -0.77810681 144 108 115
-0.18756652 -0.22968726 -0.77928215 161 128 127
-0.18887389 -0.22905025 -0.78093058 196 177 166
-0.18783772 -0.22859497 -0.77958286 179 156 154
-0.18863475 -0.23260707 -0.78148794 93 59 77
-0.1877351 -0.23439282 -0.77987134 84 49 73
-0.18821029 -0.23442148 -0.78048927 99 67 88
-0.18711467 -0.23578933 -0.77871644 79 44 74
-0.18713747 -0.23630777 -0.7786206 85 52 81
-0.18746178 -0.23463811 -0.77945238 78 42 69
-0.18778369 -0.23334613 -0.78007722 88 49 68
-0.18669188 -0.23255888 -0.77840036 99 44 53
-0.18792184 -0.23261605 -0.78035712 94 53 68
-0.18682963 -0.23447435 -0.7784636 81 37 60
-0.18676627 -0.23399715 -0.77840149 85 39 58
-0.18714568 -0.23322454 -0.77906966 91 45 60
-0.1873115 -0.23767127 -0.7786727 99 74 87
-0.18691798 -0.23741052 -0.77818853 85 56 75
-0.18769863 -0.23765205 -0.77918422 111 88 99
-0.1869947 -0.23866385 -0.7781291 96 73 78
-0.18673569 -0.23742341 -0.77794719 80 49 70
-0.18732655 -0.23639207 -0.77885616 92 60 87
-0.19820762 -0.21966022 -0.79666197 137 121 123
-0.19812562 -0.21903788 -0.79639894 128 110 111
-0.19838364 -0.22065777 -0.79722929 151 140 143
-0.1980489 -0.21825644 -0.79615438 118 97 97
-0.19751878 -0.21885477 -0.79464352 113 91 95
-0.19769278 -0.21978281 -0.79526657 124 105 112
-0.19804166 -0.22032635 -0.79627562 138 123 129
-0.19757621 -0.22000097 -0.79500222 122 102 111
-0.19668782 -0.22057751 -0.79339808 118 93 111
-0.19719189 -0.21929634 -0.79394925 109 84 93
-0.19681154 -0.21928994 -0.79336363 109 83 94
-0.19793025 -0.22261636 -0.79605627 129 111 122
-0.19792511 -0.22177458 -0.79604167 132 116 125
-0.19785443 -0.22224946 -0.79585797 128 110 121
-0.19800067 -0.22099234 -0.79623777 138 123 131
-0.19741379 -0.22186147 -0.79463702 118 95 111
-0.19757999 -0.22223279 -0.7950936 121 99 114
-0.19728895 -0.22178893 -0.79427171 116 90 108
-0.19751938 -0.22379784 -0.79474247 116 88 109
-0.19795103 -0.22392929 -0.7960186 125 104 119
-0.19700544 -0.22449768 -0.79351085 115 79 105
-0.19712433 -0.22175303 -0.79398918 117 91 110
-0.19708394 -0.22244491 -0.79385293 117 89 109
-0.1979937 -0.22561133 -0.79660457 125 103 118
-0.1976562 -0.22643332 -0.79603213 117 90 109
-0.1982398 -0.22488688 -0.79695559 130 112 124
-0.19786255 -0.22681768 -0.79685313 122 98 114
-0.19765203 -0.22700287 -0.79632211 117 90 109
-0.19730324 -0.22717635 -0.79489833 125 94 115
-0.19736506 -0.22771817 -0.79537421 126 96 116
-0.19731882 -0.22625408 -0.79468066 118 85 109
-0.19718409 -0.22629435 -0.79421306 122 90 112
-0.19722979 -0.22839272 -0.79500586 135 107 124
-0.19724004 -0.22516271 -0.79400343 113 78 104
-0.19791919 -0.23072621 -0.79716933 110 89 108
-0.19776626 -0.23071492 -0.79642552 116 94 113
-0.19781111 -0.23044862 -0.79678708 114 92 111
-0.19727637 -0.22878313 -0.79516041 135 106 125
-0.19760233 -0.23078069 -0.79594862 123 98 118
-0.19740067 -0.23102276 -0.79540539 130 103 124
-0.19750895 -0.23032781 -0.79571831 126 100 120
-0.1972598 -0.22925916 -0.79510719 136 106 126
-0.19691294 -0.23079503 -0.79461026 136 106 128
-0.19688611 -0.23148698 -0.79455024 136 106 129
-0.19673015 -0.22890286 -0.79386401 145 119 132
-0.19656464 -0.22911373 -0.79350907 147 122 134
-0.19680177 -0.22958955 -0.79435843 139 110 128
-0.19803798 -0.23245911 -0.7970351 106 87 108
-0.198073 -0.23269577 -0.79709107 108 88 108
-0.19801825 -0.23294415 -0.79690748 113 91 111
-0.1974972 -0.23449825 -0.79535693 142 108 129
-0.19763722 -0.23394305 -0.79575366 139 106 126
-0.19768275 -0.23569992 -0.79569221 145 108 128
-0.19740579 -0.2344649 -0.79513681 142 109 131
-0.19712602 -0.23580165 -0.79450685 149 112 135
-0.19640209 -0.23598126 -0.79367787 150 117 135
-0.19640754 -0.23340534 -0.79385334 140 109 131
-0.196288 -0.23491724 -0.79361629 146 114 133
-0.19715607 -0.23269856 -0.79484117 137 107 131
-0.19747764 -0.23689003 -0.79529977 145 109 127
-0.19775893 -0.23758551 -0.79619825 137 105 117
-0.1977922 -0.23774822 -0.7963289 136 104 115
-0.19778226 -0.23834917 -0.79648697 131 102 110
-0.19740176 -0.23743083 -0.79528183 142 109 125
-0.19762664 -0.23888205 -0.79627156 129 102 110
-0.19692701 -0.23890381 -0.79490882 149 117 132
-0.19711366 -0.23785248 -0.79486245 149 115 132
-0.19675486 -0.23961106 -0.79486793 150 120 132
-0.19657069 -0.23933627 -0.79449511 152 122 136
-0.19593115 -0.23836833 -0.79340631 156 126 142
-0.1966577 -0.23661397 -0.79397094 152 117 136
-0.19579157 -0.23973411 -0.79344428 159 131 146
-0.19774874 -0.24150103 -0.79709375 133 113 118
-0.19502409 -0.24390768 -0.79357207 165 146 138
-0.19631711 -0.24153733 -0.79481286 153 127 129
-0.19714023 -0.24025255 -0.79566932 145 115 123
-0.1954041 -0.24437815 -0.79428381 165 149 143
-0.20522596 -0.21455967 -0.81274241 201 190 198
-0.20511812 -0.21378221 -0.81229222 180 171 178
-0.20389371 -0.21473417 -0.81094927 160 150 156
-0.20475286 -0.2163115 -0.81256038 205 193 202
-0.20444943 -0.21573612 -0.81198585 189 177 185
-0.20418778 -0.21679452 -0.81169343 211 199 201
-0.20325491 -0.21540783 -0.80996674 171 161 159
-0.20431539 -0.21621172 -0.81185132 197 186 192
-0.2035799 -0.21672434 -0.81065285 206 194 190
-0.20292717 -0.22069609 -0.81131899 148 126 129
-0.20381904 -0.21876392 -0.81158328 188 171 179
-0.20311823 -0.22047995 -0.81192291 145 123 124
-0.20301984 -0.22008203 -0.81020278 176 158 165
-0.20362744 -0.21966295 -0.81286585 151 130 131
-0.2041567 -0.21807173 -0.81179231 201 186 195
-0.20434386 -0.21769136 -0.811975 207 193 202
-0.203062 -0.2184744 -0.80980957 194 180 181
-0.20379643 -0.21786162 -0.81104732 202 188 193
-0.20397337 -0.21721521 -0.8113367 207 194 197
-0.20450939 -0.21713577 -0.81224656 211 198 206
-0.20328772 -0.21777257 -0.81018078 200 186 186
-0.20275292 -0.22219004 -0.81206352 123 99 102
-0.20209964 -0.22447503 -0.81045294 117 93 105
-0.20220421 -0.22411025 -0.81072527 118 94 104
-0.20212606 -0.22437182 -0.81035876 117 93 105
-0.20237127 -0.22360636 -0.8123287 116 93 101
-0.2022125 -0.22405812 -0.81040382 119 94 105
-0.20267428 -0.22093596 -0.80994105 162 142 148
-0.20239498 -0.22201958 -0.8090862 157 136 146
-0.20282294 -0.221147 -0.81105202 144 122 126
-0.20300527 -0.22075225 -0.81187052 140 117 118
-0.20249569 -0.22195531 -0.80966622 150 129 137
-0.20238645 -0.22710411 -0.81141526 111 90 108
-0.2022498 -0.22679175 -0.81114233 109 90 105
-0.20229106 -0.22735496 -0.8107121 109 91 106
-0.20287359 -0.22845973 -0.81212336 115 91 120
-0.2023105 -0.22832175 -0.80974263 108 91 108
-0.20204888 -0.22463925 -0.80961943 118 94 106
-0.20208694 -0.22577827 -0.80926341 115 93 106
-0.20209242 -0.22535169 -0.8104682 114 92 104
-0.20212542 -0.22563586 -0.81165361 110 90 102
-0.20212878 -0.22627491 -0.81047899 111 91 104
-0.20215568 -0.22722562 -0.80991781 109 91 104
-0.20195843 -0.23192541 -0.81057805 101 71 96
-0.20226979 -0.23090915 -0.81072921 102 68 98
-0.20200965 -0.23198272 -0.81282741 120 109 121
-0.2020582 -0.2317749 -0.81236184 116 100 116
-0.20216164 -0.23142618 -0.81230193 115 97 116
-0.20253997 -0.23010835 -0.81166291 109 80 109
-0.202208 -0.23078264 -0.81018871 99 66 95
-0.20256144 -0.22949979 -0.81114423 108 80 109
-0.20272382 -0.22943515 -0.81184232 110 81 113
-0.20235994 -0.2299653 -0.8104682 104 75 102
-0.20224072 -0.22910124 -0.80950558 105 85 104
-0.20226918 -0.23618561 -0.80976212 97 74 92
-0.20200679 -0.23354888 -0.81276292 117 107 118
-0.2021935 -0.23518208 -0.81268615 113 100 113
-0.20224342 -0.23565187 -0.81238621 110 96 109
-0.20221266 -0.23553787 -0.81108451 105 86 102
-0.20223832 -0.23600195 -0.80919135 95 69 89
-0.20193094 -0.23338097 -0.81044537 102 77 96
-0.20190802 -0.23304816 -0.8111335 107 86 103
-0.20193417 -0.23367041 -0.80929852 93 59 84
-0.20202172 -0.23400442 -0.81072682 105 85 101
-0.2019885 -0.23368661 -0.81101227 107 88 104
-0.20216781 -0.23684056 -0.80947977 107 82 100
-0.2020065 -0.2375374 -0.80900306 120 93 111
-0.20216386 -0.23687796 -0.80980074 109 85 103
-0.20219345 -0.23686571 -0.81178123 117 100 114
-0.20201203 -0.23758732 -0.81022906 126 103 119
0 0 0 1 0 0 0 1 0 0 0 1 0 0 0 0 0 716 1 0 0
