ply
format ascii 1.0
comment PCL generated
element vertex 237
property float x
property float y
property float z
property uchar red
property uchar green
property uchar blue
element camera 1
property float view_px
property float view_py
property float view_pz
property float x_axisx
property float x_axisy
property float x_axisz
property float y_axisx
property float y_axisy
property float y_axisz
property float z_axisx
property float z_axisy
property float z_axisz
property float focal
property float scalex
property float scaley
property float centerx
property float centery
property int viewportx
property int viewporty
property float k1
property float k2
end_header
-0.20534386 0.40870294 -0.82003349 116 90 97
-0.2051513 0.40895569 -0.82000893 113 87 94
-0.20445359 0.41014695 -0.82045013 103 74 84
-0.20326555 0.4101963 -0.81984437 96 72 75
-0.20372987 0.41029704 -0.82016742 98 71 78
-0.20432748 0.41018376 -0.82040852 102 73 83
-0.20215185 0.40995833 -0.81916595 88 68 69
-0.20267774 0.41035581 -0.81966162 91 68 71
-0.20395742 0.40885526 -0.81929082 106 84 86
-0.20454678 0.40865088 -0.81943107 112 88 91
-0.20662987 0.40734518 -0.82059705 126 99 107
-0.20708163 0.40630326 -0.82052833 127 97 109
-0.20763856 0.40477309 -0.8203243 129 93 111
-0.20546238 0.40452787 -0.81798488 116 87 97
-0.20515877 0.40547934 -0.81814027 115 88 96
-0.20602603 0.40521169 -0.81889397 120 90 101
-0.20518744 0.40530831 -0.81808591 115 88 96
-0.20705435 0.40544239 -0.8200556 126 93 108
-0.20507258 0.40810624 -0.81933922 117 93 96
-0.20493628 0.40647042 -0.81847709 115 89 95
-0.20432687 0.40686226 -0.81838858 110 87 91
-0.20922768 0.40195611 -0.82039386 130 93 112
-0.20706218 0.40097547 -0.81782305 119 82 98
-0.20724809 0.4018679 -0.81841832 121 86 103
-0.20579949 0.40344855 -0.81777292 116 85 97
-0.20596391 0.40281746 -0.81763482 116 84 96
-0.20740074 0.40139467 -0.81834286 121 85 102
-0.20759244 0.40134293 -0.81850195 122 85 103
-0.20817046 0.4018299 -0.81932229 127 88 109
-0.20786151 0.40181696 -0.81900036 125 88 107
-0.2081389 0.40133518 -0.81902707 125 87 107
-0.20663002 0.40317473 -0.81846625 120 87 102
-0.20868626 0.4010303 -0.81942326 128 88 110
-0.2077705 0.40280044 -0.81943047 126 89 108
-0.20809601 0.4036001 -0.82018769 129 92 112
-0.20887116 0.40171957 -0.81995064 128 89 111
-0.21016349 0.39973572 -0.82026225 140 105 121
-0.2101649 0.40036711 -0.82050878 140 104 119
-0.21092813 0.39803508 -0.82033426 147 118 130
-0.20902814 0.40005371 -0.81924778 131 93 113
-0.20928487 0.39828938 -0.81855035 147 119 128
-0.2096357 0.39743125 -0.81848162 153 131 135
-0.21033433 0.39714858 -0.81915694 154 132 137
-0.21041982 0.39657721 -0.8189339 159 140 141
-0.2102651 0.39731425 -0.81916845 153 129 135
-0.20874427 0.39742559 -0.81751668 153 132 133
-0.2086468 0.39917806 -0.8184036 137 105 117
-0.20791493 0.39933556 -0.81778973 131 99 111
-0.20755528 0.40003753 -0.81782842 124 88 103
-0.20749618 0.39989418 -0.81769377 124 89 103
-0.20777804 0.40023348 -0.8181482 123 85 103
-0.20712014 0.40012634 -0.81746078 120 85 99
-0.21087524 0.39624891 -0.81935644 158 136 140
-0.20992458 0.39640096 -0.81826335 161 143 142
-0.21187566 0.39637846 -0.8205924 156 133 140
-0.20926869 0.3964349 -0.81748825 163 146 143
-0.21193559 0.3956961 -0.82051188 159 134 142
-0.21197808 0.39585105 -0.82060325 159 135 142
-0.21201116 0.39605504 -0.82069379 159 135 142
-0.21303891 0.41615015 -0.83181405 118 90 100
-0.21030492 0.4170092 -0.82938552 111 79 94
-0.21057178 0.41667804 -0.82947505 104 72 89
-0.21140437 0.41676214 -0.83042991 115 85 98
-0.21172281 0.41696534 -0.83089846 125 95 106
-0.21311542 0.41515446 -0.83135784 113 83 95
-0.21294992 0.41476151 -0.83099908 110 82 93
-0.21356352 0.41441813 -0.83139735 119 87 101
-0.21326953 0.4144257 -0.83112532 115 85 97
-0.21253966 0.41382167 -0.8299998 111 86 93
-0.21233647 0.41259462 -0.82910007 113 90 94
-0.21172041 0.4138093 -0.82908088 105 79 87
-0.21088259 0.41601163 -0.8294099 88 56 75
-0.21088631 0.41532782 -0.82902932 91 60 76
-0.21107671 0.41564184 -0.8294127 92 61 77
-0.21031347 0.41597515 -0.82877147 82 50 70
-0.21216835 0.41416255 -0.82976586 108 83 90
-0.21308391 0.41114882 -0.82918459 110 86 93
-0.21592662 0.40858683 -0.83053678 142 124 119
-0.21608926 0.40834048 -0.83055204 144 126 120
-0.2137484 0.410294 -0.82932341 114 91 96
-0.21383104 0.41009304 -0.829283 115 92 97
-0.21517318 0.40861228 -0.82975858 131 111 109
-0.21538809 0.40904373 -0.83025891 135 116 113
-0.21386723 0.41124943 -0.83004147 120 96 101
-0.21650875 0.40889287 -0.83129835 152 132 127
-0.21251449 0.41127342 -0.82859087 113 92 94
-0.2150767 0.40733394 -0.82888973 137 112 115
-0.21559066 0.40796801 -0.82980186 138 118 115
-0.21500021 0.40807688 -0.82924283 128 107 107
-0.21561186 0.4062278 -0.82880813 157 127 132
-0.21567574 0.40793476 -0.82987213 140 120 117
-0.20118156 0.42002517 -0.82436872 90 49 76
-0.20303592 0.41722342 -0.82404506 100 70 83
-0.20173751 0.4182632 -0.82380068 89 55 73
-0.20199683 0.41780519 -0.82372373 90 58 74
-0.20282024 0.41616476 -0.82338601 92 69 75
-0.20258182 0.41760677 -0.82396954 96 65 80
-0.20547849 0.4122369 -0.82251018 107 70 92
-0.20559011 0.41380265 -0.82361209 114 83 98
-0.20597154 0.41257417 -0.82311565 112 77 97
-0.20634139 0.4135538 -0.82404059 119 88 103
-0.2076382 0.4121092 -0.82412267 124 90 108
-0.20666364 0.41376689 -0.82443154 122 93 106
-0.20366627 0.41236931 -0.82154673 90 57 73
-0.20502357 0.41219282 -0.82213515 103 66 88
-0.20363985 0.41367382 -0.82227767 93 61 76
-0.20456806 0.41308272 -0.82244277 101 67 85
-0.20408444 0.41376242 -0.82259756 98 67 82
-0.20337142 0.41534248 -0.82320029 96 70 78
-0.20461294 0.41561621 -0.82411081 111 86 94
-0.20899421 0.41065198 -0.82442296 120 90 102
-0.2101444 0.40825635 -0.82438833 94 71 80
-0.20556274 0.40979931 -0.82103646 113 83 96
-0.20541093 0.41100231 -0.8216989 110 75 93
-0.20728192 0.40957206 -0.82250822 111 82 93
-0.20654957 0.41038373 -0.8223564 109 77 91
-0.20591946 0.41058618 -0.8219018 110 78 93
-0.2060497 0.40909737 -0.82105047 120 93 101
-0.20649096 0.41022229 -0.82219636 110 79 93
-0.20770276 0.41082394 -0.82352179 117 86 100
-0.20783724 0.40955475 -0.82298404 111 82 93
-0.20817788 0.41190398 -0.82444221 127 94 111
-0.20831576 0.4100154 -0.82359314 117 89 99
-0.20732449 0.41019684 -0.82290703 111 80 93
-0.20829742 0.40920436 -0.82316768 113 86 94
-0.2088138 0.41086867 -0.82439685 122 91 104
-0.20380685 0.41200978 -0.82140398 91 58 74
-0.20460752 0.41102141 -0.82113785 101 68 84
-0.20452702 0.41099858 -0.82108176 100 67 83
-0.21063913 0.40761277 -0.82454401 101 77 88
-0.2102778 0.4074274 -0.82408345 112 87 96
-0.21177535 0.40535 -0.82448041 144 112 128
-0.21046273 0.40536612 -0.82320255 141 108 123
-0.20942752 0.40711394 -0.82307941 123 95 103
-0.21029113 0.40516692 -0.82293439 141 107 124
-0.20919243 0.40490961 -0.82173342 136 100 118
-0.20906259 0.40432808 -0.82131231 139 101 121
-0.20955178 0.40582353 -0.82254666 132 100 114
-0.2103654 0.40657619 -0.82372081 132 103 114
-0.20889565 0.40736711 -0.82271427 117 90 98
-0.20783924 0.4055596 -0.82091385 128 95 110
-0.20852394 0.40614969 -0.82182366 123 91 104
-0.20768519 0.4079389 -0.82186759 120 95 100
-0.20788813 0.4081746 -0.82216525 118 94 98
-0.20858732 0.40615445 -0.82188487 122 91 104
-0.20905492 0.4032619 -0.82084668 131 94 113
-0.20978631 0.4041993 -0.82195675 145 107 127
-0.21173462 0.39700517 -0.8207069 155 131 138
-0.21209072 0.39589348 -0.82074672 160 137 143
-0.21208291 0.39638901 -0.82082677 159 138 143
-0.20163859 0.42387795 -0.82690382 107 67 89
-0.20324583 0.42541975 -0.82839781 109 69 93
-0.20197828 0.42439768 -0.82731998 106 66 89
-0.20255654 0.42475834 -0.827757 108 68 91
-0.20217466 0.42474785 -0.82758629 106 66 89
-0.20529927 0.42109448 -0.82726568 113 82 97
-0.20122479 0.42048931 -0.82467747 93 52 79
-0.20301718 0.42026857 -0.82556134 95 61 81
-0.20350248 0.42042568 -0.82593024 97 66 83
-0.20327704 0.42154792 -0.82648271 101 70 86
-0.20258589 0.42086175 -0.82567722 96 60 81
-0.20195889 0.4213061 -0.8255927 96 58 81
-0.20201679 0.42118406 -0.82555139 96 58 81
-0.20341848 0.42208958 -0.82682723 105 72 89
-0.20361447 0.4215039 -0.82663161 102 72 87
-0.20221484 0.4234294 -0.82694262 107 69 90
-0.20328954 0.42202941 -0.82674164 104 71 88
-0.20407031 0.4218908 -0.82701814 107 74 92
-0.20191322 0.42336944 -0.82678121 105 67 88
-0.20453604 0.42090565 -0.82674897 103 75 89
-0.20112716 0.42346683 -0.82643348 103 63 85
-0.20080456 0.42128626 -0.82494271 92 53 77
-0.20899945 0.41699049 -0.82806432 103 75 88
-0.20850028 0.41688451 -0.82760614 89 63 77
-0.2070125 0.41862044 -0.82735604 106 79 91
-0.2069975 0.41888556 -0.82748747 113 85 97
-0.20578595 0.41838911 -0.82630235 99 75 86
-0.20726758 0.41615137 -0.82632345 94 69 80
-0.20593892 0.4184005 -0.82642049 97 73 84
-0.2082843 0.41646138 -0.82722062 81 56 70
-0.20782313 0.41712937 -0.82720041 83 58 72
-0.20553067 0.41805288 -0.82595348 104 79 89
-0.20662685 0.41658667 -0.82605976 99 74 85
-0.20407994 0.41968817 -0.82583898 98 69 84
-0.20470518 0.41846403 -0.82560527 105 79 90
-0.20215131 0.41976303 -0.82478684 92 53 78
-0.20363787 0.41875258 -0.82514143 101 70 86
-0.20305277 0.41867223 -0.82477283 99 65 84
-0.20321509 0.41902584 -0.82503378 98 65 83
-0.20941854 0.41567215 -0.82776028 80 54 68
-0.21080646 0.41455072 -0.82850713 93 64 78
-0.2097735 0.41308859 -0.82657689 112 84 96
-0.2101897 0.41241369 -0.82661724 119 91 101
-0.20942239 0.41354591 -0.82647324 107 79 92
-0.20978668 0.41338581 -0.82677597 108 80 92
-0.20925936 0.41415507 -0.82667148 99 72 86
-0.20906483 0.41430587 -0.82655036 98 70 85
-0.21106651 0.41260567 -0.82770443 112 88 94
-0.20793912 0.41293433 -0.82485402 126 95 109
-0.20890993 0.41353437 -0.8259275 110 80 95
-0.20560107 0.41594249 -0.82498556 114 89 97
-0.20743026 0.41510624 -0.82581365 105 78 90
-0.20635729 0.41556665 -0.82530922 111 85 94
-0.20727524 0.41382617 -0.82490468 124 95 107
-0.20809761 0.414933 -0.82619768 100 73 86
-0.20818809 0.41595018 -0.82689589 85 60 73
-0.21307828 0.40855682 -0.82767504 104 82 90
-0.21353549 0.40916917 -0.82843858 113 91 95
-0.20989028 0.40938574 -0.8246873 102 76 87
-0.2111167 0.40871036 -0.82565135 99 75 85
-0.21086001 0.40928531 -0.82566971 104 79 90
-0.20913835 0.41185158 -0.8251313 126 94 109
-0.20950244 0.41141692 -0.82530063 123 92 106
-0.21095061 0.40929919 -0.82577449 105 79 91
-0.21253297 0.40875244 -0.82720417 104 80 90
-0.2118689 0.4095141 -0.82688195 109 83 94
-0.21206217 0.41094238 -0.82786584 111 89 94
-0.21241005 0.40941313 -0.82742488 106 83 91
-0.21214832 0.41095385 -0.82796717 111 89 93
-0.21252215 0.40912908 -0.82739538 105 81 90
-0.20915468 0.41197589 -0.82521367 127 95 110
-0.21286745 0.40978828 -0.82818592 109 88 93
-0.20892112 0.41147882 -0.82476491 124 93 107
-0.21492931 0.40655664 -0.82831526 144 114 122
-0.21521862 0.40626958 -0.82843238 151 120 128
-0.21421407 0.40534931 -0.8269645 156 122 136
-0.2148044 0.40582499 -0.82781953 153 120 132
-0.21464483 0.40624428 -0.82790363 145 114 125
-0.21383795 0.40549621 -0.82667851 150 117 132
-0.21425621 0.40636861 -0.82759237 140 110 121
-0.21278107 0.40718395 -0.82660222 116 90 103
-0.2117383 0.40608546 -0.82485098 130 100 115
-0.21159306 0.40598139 -0.82463503 131 101 116
-0.21076849 0.40787536 -0.82482857 96 73 83
-0.21124272 0.4066298 -0.82462794 119 91 104
-0.21238753 0.40553528 -0.82523626 141 109 126
-0.21143234 0.40705115 -0.825073 113 86 99
0 0 0 1 0 0 0 1 0 0 0 1 0 0 0 0 0 237 1 0 0
