ply
format ascii 1.0
comment PCL generated
element vertex 246
property float x
property float y
property float z
property uchar red
property uchar green
property uchar blue
element camera 1
property float view_px
property float view_py
property float view_pz
property float x_axisx
property float x_axisy
property float x_axisz
property float y_axisx
property float y_axisy
property float y_axisz
property float z_axisx
property float z_axisy
property float z_axisz
property float focal
property float scalex
property float scaley
property float centerx
property float centery
property int viewportx
property int viewporty
property float k1
property float k2
end_header
-0.1820735 -0.2244046 -0.77288967 88 54 68
-0.1828244 -0.22560145 -0.77365893 111 78 86
-0.18282363 -0.22483264 -0.77376205 104 64 81
-0.18217963 -0.22597852 -0.77285624 104 79 81
-0.182575 -0.227593 -0.77315205 128 111 100
-0.18216784 -0.22664331 -0.77280176 112 91 88
-0.18240777 -0.22762661 -0.77298105 127 110 100
-0.19587572 -0.20394777 -0.78928602 112 95 90
-0.19526234 -0.20430639 -0.7883684 108 83 87
-0.19485365 -0.20500334 -0.78801614 96 68 76
-0.19785626 -0.20854586 -0.78936404 190 177 185
-0.19693244 -0.20781739 -0.78853893 177 165 168
-0.19708925 -0.2075168 -0.78885418 170 158 160
-0.19638595 -0.20856754 -0.78763044 192 181 188
-0.19723421 -0.20889667 -0.78808588 205 194 204
-0.19622506 -0.20610045 -0.78917795 124 110 108
-0.19538122 -0.20783801 -0.7873252 166 155 159
-0.1958026 -0.20606451 -0.78889161 119 106 104
-0.19487862 -0.20699927 -0.78754807 138 125 128
-0.19564734 -0.2055034 -0.78917426 102 87 84
-0.19400373 -0.2069696 -0.78598189 143 116 132
-0.19505644 -0.20628421 -0.78809494 120 105 106
-0.19410281 -0.20755331 -0.78600127 155 135 148
-0.19514978 -0.20508826 -0.78859657 93 70 73
-0.19764078 -0.20935972 -0.78904331 200 187 198
-0.19516332 -0.20901784 -0.7864117 194 184 194
-0.19469263 -0.21035701 -0.78632957 185 173 185
-0.19494924 -0.20978273 -0.78640777 189 178 189
-0.19561259 -0.20915379 -0.78679359 196 186 196
-0.19370238 -0.21211344 -0.7861684 163 149 162
-0.1958496 -0.21029425 -0.78734052 189 177 188
-0.19559701 -0.21114609 -0.78771931 179 165 177
-0.19659059 -0.21095215 -0.78889388 187 170 184
-0.19705738 -0.20921184 -0.78797525 204 193 203
-0.19376272 -0.21252333 -0.78645968 157 142 155
-0.19518918 -0.21251415 -0.7893365 133 114 123
-0.19450276 -0.2122096 -0.78718793 164 148 162
-0.19463846 -0.21255055 -0.78823423 143 125 136
-0.19629887 -0.21147498 -0.78941923 165 147 159
-0.19467515 -0.21458802 -0.78862721 127 114 109
-0.19460315 -0.21296054 -0.78889406 125 107 115
-0.19461331 -0.21360274 -0.78874964 126 110 113
-0.19468674 -0.21306337 -0.789047 123 105 113
-0.19433986 -0.21464427 -0.78789258 134 122 119
-0.19402114 -0.21445748 -0.78737521 137 125 124
-0.19374725 -0.21603113 -0.78737944 115 101 92
-0.19416565 -0.21531916 -0.78773385 127 115 108
-0.19380543 -0.21620952 -0.78748786 113 99 89
-0.19287989 -0.21638209 -0.78632587 115 98 91
-0.19268526 -0.21678893 -0.78614503 113 96 87
-0.19254144 -0.2148844 -0.78554982 142 123 127
-0.19460513 -0.21700329 -0.7886219 113 102 85
-0.19394852 -0.21813245 -0.78805232 116 95 94
-0.19451289 -0.21772769 -0.78865457 117 102 93
-0.19518021 -0.21685414 -0.78928798 117 109 86
-0.19376405 -0.21867456 -0.78774315 127 109 105
-0.19392423 -0.21992683 -0.78796476 147 129 127
-0.19422635 -0.21952359 -0.78861791 129 104 113
-0.1931064 -0.21911617 -0.78661454 152 144 125
-0.19255526 -0.21824841 -0.78599054 142 131 116
-0.1925541 -0.21811521 -0.7859869 140 128 113
-0.19289601 -0.217124 -0.78644156 116 100 89
-0.19412781 -0.22292969 -0.78906316 169 152 164
-0.1942679 -0.22236434 -0.78916037 161 140 155
-0.19395569 -0.22292125 -0.78870773 175 161 167
-0.19424152 -0.22072214 -0.78855515 153 131 137
-0.19399492 -0.22436012 -0.78926772 181 168 182
-0.19380251 -0.22593369 -0.78864563 158 140 149
-0.19333091 -0.22650285 -0.7877354 153 132 136
-0.19312723 -0.22622827 -0.7874136 161 143 142
-0.19349015 -0.20768127 -0.78487861 153 129 145
-0.19375873 -0.20769672 -0.78533161 158 135 151
-0.19181553 -0.2088173 -0.7825157 157 126 150
-0.19307998 -0.20853664 -0.78410929 164 145 159
-0.19328152 -0.20714001 -0.78469479 140 109 129
-0.19377275 -0.20946141 -0.78526169 182 171 181
-0.19306301 -0.21202339 -0.78540242 169 152 166
-0.19174105 -0.20994566 -0.78283656 159 128 152
-0.19258961 -0.21053891 -0.78413832 166 145 162
-0.19299315 -0.20901142 -0.78390771 171 156 168
-0.19243966 -0.21187319 -0.78458399 164 140 159
-0.19274676 -0.21046215 -0.78429174 168 148 164
-0.19142428 -0.21047929 -0.78266817 162 135 152
-0.19106872 -0.21243946 -0.78303361 179 173 160
-0.19157323 -0.21011762 -0.78270984 158 126 150
-0.19128121 -0.21020749 -0.78236556 161 133 151
-0.19035058 -0.21182066 -0.78183091 181 176 157
-0.19122317 -0.2103159 -0.78233552 162 136 151
-0.19119644 -0.21154852 -0.78282309 171 156 156
-0.19162872 -0.21633531 -0.78426474 117 94 97
-0.19205865 -0.21654664 -0.78512287 120 100 97
-0.19188154 -0.21596758 -0.78463066 124 102 105
-0.19198632 -0.21420091 -0.78432709 143 119 135
-0.19075103 -0.21606338 -0.7825579 109 79 97
-0.19187655 -0.21541728 -0.78446615 129 106 114
-0.19171862 -0.21408401 -0.78396124 147 126 137
-0.19065924 -0.21573681 -0.78241503 116 89 103
-0.19139707 -0.21357545 -0.78358918 162 150 148
-0.19115803 -0.21503502 -0.78313565 129 104 117
-0.1917087 -0.21312682 -0.78404039 171 160 157
-0.19054641 -0.21425207 -0.78241014 153 142 133
-0.1924011 -0.21302666 -0.78495663 167 150 160
-0.19069077 -0.21838698 -0.78284961 129 107 110
-0.18976113 -0.21894331 -0.78181607 117 92 99
-0.19085898 -0.21828005 -0.78303462 131 110 112
-0.19039293 -0.21746665 -0.78217274 109 81 93
-0.19100432 -0.21739867 -0.78324783 116 92 97
-0.19162726 -0.21746145 -0.78440619 125 105 102
-0.1911668 -0.21837474 -0.78356999 137 118 117
-0.19101885 -0.21714875 -0.78326952 112 86 93
-0.18733002 -0.2110159 -0.77726597 147 118 126
-0.18790489 -0.20983829 -0.77753329 164 148 142
-0.18744276 -0.21159589 -0.77751052 148 118 129
-0.18633007 -0.21986692 -0.77743834 89 60 79
-0.18559568 -0.21987996 -0.77642351 103 82 89
-0.18611304 -0.22236395 -0.77741617 107 83 97
-0.18602408 -0.22090302 -0.77711976 85 66 78
-0.18596171 -0.22441237 -0.77744919 141 112 127
-0.1855876 -0.22172986 -0.77661413 105 88 94
-0.1845589 -0.22330411 -0.775617 112 83 96
-0.18339999 -0.22398174 -0.77437633 102 66 82
-0.18520786 -0.22357215 -0.77638781 126 100 112
-0.18504405 -0.22408637 -0.77626157 131 102 116
-0.18550441 -0.22249895 -0.77659953 116 95 104
-0.18412164 -0.22235829 -0.77502882 96 71 79
-0.18391974 -0.22288676 -0.77484882 97 68 79
-0.18355253 -0.22328013 -0.77448386 99 67 79
-0.18424372 -0.22184671 -0.77512491 94 74 78
-0.1845111 -0.22193344 -0.77541536 94 73 79
-0.18452337 -0.22493979 -0.77568656 133 101 114
-0.18302216 -0.22515862 -0.77394766 111 73 86
-0.18372372 -0.2254048 -0.77471465 124 92 102
-0.18366277 -0.22536765 -0.7746501 123 90 100
-0.19643714 -0.20470922 -0.79009962 103 85 80
-0.19748563 -0.20724797 -0.78957891 162 148 149
-0.19817002 -0.20675823 -0.79137063 151 131 138
-0.1979029 -0.2062283 -0.79126215 137 116 119
-0.19798371 -0.20816518 -0.7899223 180 165 172
-0.19839612 -0.20770067 -0.79234987 170 151 161
-0.1983477 -0.20852955 -0.79196411 186 170 181
-0.19836684 -0.20880996 -0.79215628 191 175 187
-0.19687998 -0.20517254 -0.79049307 103 84 79
-0.19717035 -0.20524055 -0.79069281 107 88 83
-0.19734295 -0.21129175 -0.79060113 163 143 156
-0.19768684 -0.21142538 -0.79161096 139 118 129
-0.19786042 -0.21092963 -0.79144853 145 126 136
-0.19822048 -0.20922737 -0.79132354 189 174 186
-0.19799949 -0.21028097 -0.79141802 162 144 155
-0.19807495 -0.21003489 -0.79161263 168 151 162
-0.19831818 -0.20931883 -0.79239351 185 169 181
-0.19648583 -0.21209556 -0.79050136 139 118 130
-0.19610505 -0.21185134 -0.78968364 152 133 144
-0.19713995 -0.21215762 -0.79142976 132 109 121
-0.19549237 -0.21255456 -0.78982866 128 109 118
-0.19708128 -0.21109664 -0.78994 174 156 169
-0.19516757 -0.21307364 -0.78990459 117 97 104
-0.19566786 -0.21414985 -0.79083109 110 88 93
-0.19524871 -0.21305509 -0.79000467 116 96 104
-0.19632551 -0.21328604 -0.79145682 107 84 93
-0.19573191 -0.21478935 -0.79088706 109 88 89
-0.19527568 -0.21445136 -0.7899676 115 98 96
-0.19542474 -0.21485245 -0.79019046 114 97 93
-0.19496556 -0.2134019 -0.78956133 119 101 105
-0.19553947 -0.21594584 -0.79015255 113 100 87
-0.19540179 -0.21394493 -0.79038179 113 92 97
-0.19543195 -0.22045775 -0.79088646 130 101 119
-0.19526251 -0.22045678 -0.7905494 131 102 120
-0.19508262 -0.21880715 -0.78964674 127 107 106
-0.1955265 -0.21857128 -0.79054314 120 96 98
-0.19498789 -0.22004077 -0.78988647 132 103 118
-0.19543473 -0.21769163 -0.79001957 119 103 92
-0.19527766 -0.2194069 -0.79029685 126 99 108
-0.19617321 -0.22175419 -0.79261565 130 107 126
-0.19563472 -0.22229956 -0.79183251 143 122 141
-0.19579366 -0.22307344 -0.79197705 140 116 136
-0.19585976 -0.2231323 -0.79206151 139 114 135
-0.19505504 -0.2243032 -0.79085827 158 137 157
-0.19601646 -0.22208543 -0.79237169 134 111 130
-0.19539775 -0.22098431 -0.79096544 134 106 126
-0.19521838 -0.22119136 -0.7906763 138 111 130
-0.19464581 -0.22281002 -0.79006535 159 138 156
-0.1947111 -0.22328414 -0.79034954 162 144 162
-0.19575745 -0.22079487 -0.7916187 128 101 121
-0.19476619 -0.22247896 -0.79019684 154 132 151
-0.19486941 -0.22595333 -0.79051042 144 118 138
-0.19502519 -0.22581312 -0.79072934 143 116 137
-0.194305 -0.22468653 -0.78980565 175 158 176
-0.18963701 -0.20814736 -0.77930117 161 135 139
-0.18943442 -0.20778899 -0.77902889 155 128 130
-0.18950015 -0.20914716 -0.77904326 187 169 165
-0.19048458 -0.21084714 -0.78158122 173 159 154
-0.19000907 -0.21220677 -0.78152281 187 190 160
-0.18980616 -0.211941 -0.78104502 190 193 162
-0.19015199 -0.20969358 -0.78041363 176 155 157
-0.18974747 -0.21255974 -0.78129566 192 200 162
-0.18919313 -0.21041614 -0.77926487 184 169 160
-0.18804812 -0.21194355 -0.77830333 159 129 139
-0.18897933 -0.2108167 -0.77914965 179 163 156
-0.18925744 -0.21229964 -0.78041667 189 190 160
-0.18880865 -0.21130751 -0.77915299 176 159 153
-0.18802013 -0.21092497 -0.77791208 162 137 142
-0.18813655 -0.21044482 -0.7779088 166 146 145
-0.18987632 -0.21511009 -0.78143102 138 123 116
-0.18978834 -0.21620119 -0.78113872 101 76 84
-0.18981183 -0.21643901 -0.78114372 95 66 78
-0.18880464 -0.21404508 -0.78023338 168 162 138
-0.18917222 -0.2143632 -0.78056258 152 145 125
-0.18832943 -0.21598597 -0.77947605 114 85 90
-0.18766293 -0.21585487 -0.77881628 127 97 101
-0.18887059 -0.21579243 -0.78005403 112 88 89
-0.18827184 -0.21382421 -0.77942216 162 146 135
-0.18883228 -0.21340196 -0.78020257 177 174 148
-0.18785229 -0.21346983 -0.77866805 153 127 131
-0.18807226 -0.21426143 -0.77921695 155 136 128
-0.18983573 -0.21688029 -0.78116542 86 54 70
-0.189761 -0.21784896 -0.78142726 100 70 83
-0.18929988 -0.21940957 -0.78137398 113 89 94
-0.1878823 -0.21830988 -0.7794956 115 81 92
-0.18854304 -0.21818414 -0.780119 103 73 83
-0.18891495 -0.21941017 -0.78097486 114 90 95
-0.18869257 -0.21963163 -0.78083473 121 96 100
-0.18875989 -0.21934235 -0.78079063 116 90 95
-0.18919097 -0.21695726 -0.78030074 78 46 60
-0.18805894 -0.22018254 -0.78005862 112 88 95
-0.18745223 -0.21894856 -0.77902675 109 77 90
-0.18806301 -0.21912298 -0.77996492 121 91 99
-0.18655621 -0.22002745 -0.77777624 80 52 73
-0.18717642 -0.21770903 -0.77849364 113 74 90
-0.18727751 -0.22048891 -0.77890825 92 68 82
-0.18876034 -0.22126167 -0.78120458 130 110 110
-0.18790519 -0.2233821 -0.77994823 126 103 108
-0.18728849 -0.2239379 -0.77915567 131 105 114
-0.18730123 -0.22407861 -0.7791543 129 104 113
-0.18625639 -0.22453383 -0.77786827 141 112 127
-0.18814015 -0.22388829 -0.78016645 118 96 100
-0.18673307 -0.22443499 -0.77844232 135 108 120
-0.18699849 -0.22210988 -0.77868998 112 87 101
-0.1869541 -0.22222938 -0.77863854 113 88 102
-0.18855616 -0.22129007 -0.78093421 130 109 111
-0.18649919 -0.22298735 -0.77805042 118 91 107
-0.18652724 -0.22155242 -0.77790648 90 65 84
-0.1882448 -0.22072522 -0.78039104 112 91 97
-0.18647306 -0.22465533 -0.77811527 139 110 124
-0.18625164 -0.22461316 -0.77785385 141 112 127
-0.19855715 -0.20966737 -0.79442614 145 131 142
-0.198292 -0.21037717 -0.79386878 142 124 136
0 0 0 1 0 0 0 1 0 0 0 1 0 0 0 0 0 246 1 0 0
