ply
format ascii 1.0
comment PCL generated
element vertex 109
property float x
property float y
property float z
property uchar red
property uchar green
property uchar blue
element camera 1
property float view_px
property float view_py
property float view_pz
property float x_axisx
property float x_axisy
property float x_axisz
property float y_axisx
property float y_axisy
property float y_axisz
property float z_axisx
property float z_axisy
property float z_axisz
property float focal
property float scalex
property float scaley
property float centerx
property float centery
property int viewportx
property int viewporty
property float k1
property float k2
end_header
-0.2453897 0.010444861 -0.81702024 186 176 181
-0.24601948 0.010367418 -0.81986845 190 179 179
-0.24642618 0.0099923136 -0.82017934 193 184 187
-0.24597637 0.010460556 -0.82010776 189 178 178
-0.24809529 0.0068246648 -0.81949282 155 132 141
-0.24840878 0.006040419 -0.81810808 136 103 114
-0.24848454 0.0059792241 -0.81920737 143 113 124
-0.24669193 0.0090983184 -0.81871372 185 175 180
-0.24694702 0.0085806455 -0.8187412 179 168 174
-0.24733056 0.0083267931 -0.82016855 180 167 173
-0.24676371 0.0092649609 -0.81954688 188 179 184
-0.24739091 0.0077937967 -0.81815213 160 141 149
-0.24793799 0.0069272979 -0.81791282 141 113 124
-0.2477711 0.0070875376 -0.81697178 137 106 117
-0.24692887 0.0085298158 -0.81839514 177 165 171
-0.24771163 0.0072595156 -0.81775552 147 121 131
-0.24824411 0.0021465486 -0.82017243 116 100 101
-0.24841659 0.0026453238 -0.81770802 135 102 121
-0.24850981 0.0045241634 -0.81980526 143 117 128
-0.24837299 0.0023064786 -0.81787801 130 100 117
-0.24852321 0.0047518858 -0.82001638 145 119 129
-0.24853736 0.0049495185 -0.82014811 146 121 130
-0.24843554 0.0053776931 -0.81688076 126 87 101
-0.24848701 0.0049761841 -0.81820232 136 103 117
-0.24848953 0.0055063115 -0.81810588 135 100 113
-0.24847507 0.0058589149 -0.81766397 131 94 106
-0.24852547 0.0053087054 -0.81900424 141 110 123
-0.24817434 0.00097198412 -0.82047814 123 113 112
-0.24830134 0.0015846979 -0.82027698 118 106 103
-0.24830939 0.0018338006 -0.81897122 122 100 108
-0.24832606 0.0016351904 -0.8195402 122 105 107
-0.24593616 0.0072191507 -0.81383413 143 113 126
-0.24587682 0.0068836277 -0.81339186 142 115 125
-0.24729639 0.0059323949 -0.81486183 124 88 97
-0.24615225 0.0074189599 -0.81440759 142 108 124
-0.24652267 0.0085223597 -0.81630599 164 144 152
-0.24629928 0.0079274476 -0.81521606 149 117 132
-0.24631035 0.0076099671 -0.81487441 142 105 123
-0.24612513 0.0078377919 -0.81479323 145 110 128
-0.24661 0.0086800372 -0.81663495 167 151 157
-0.24675041 0.0084498255 -0.81662196 163 144 151
-0.24828456 0.0041865287 -0.81655246 125 86 103
-0.24813452 0.0036399022 -0.81580496 122 85 98
-0.24819474 0.0025770627 -0.81579214 125 91 105
-0.24827249 0.0028023792 -0.81637156 127 91 109
-0.24794456 0.0028600239 -0.81469578 120 88 94
-0.24768019 0.0021348034 -0.81375283 121 94 94
-0.24665909 0.0052263611 -0.81336701 130 103 106
-0.24684156 0.0038285584 -0.81295741 127 103 102
-0.24701336 0.0051009245 -0.81390995 126 96 100
-0.24708566 0.0057950681 -0.81439275 125 93 99
-0.2473015 0.0043504885 -0.81401634 123 92 95
-0.24821828 0.00048507116 -0.81352007 121 92 93
-0.24814186 0.00047248992 -0.81294739 118 90 87
-0.24846688 -2.3052329e-05 -0.81441784 128 95 104
-0.24844928 0.00053221639 -0.81511366 129 95 109
-0.24840167 0.00043124484 -0.81466353 127 94 105
-0.24845853 0.0011003532 -0.81600094 132 97 116
-0.24784847 0.0019190237 -0.81405902 121 93 96
-0.24840143 0.0059701912 -0.82920903 147 131 138
-0.24571966 0.010544691 -0.82137156 158 148 147
-0.24615656 0.010157299 -0.8211956 169 161 162
-0.24549805 0.010394852 -0.82221323 118 112 113
-0.24554616 0.010724845 -0.82138437 156 145 144
-0.24512418 0.011064661 -0.82162893 141 130 126
-0.2452883 0.01067322 -0.82209706 122 114 113
-0.24558428 0.0099681811 -0.82405341 86 82 85
-0.24598581 0.0098430496 -0.8232615 119 114 117
-0.24806161 0.0069524101 -0.82131326 170 156 162
-0.24854009 0.0059717968 -0.82277238 165 151 153
-0.24626862 0.0096292906 -0.82303613 137 131 134
-0.24615666 0.0092811761 -0.824543 106 103 105
-0.24745402 0.0079904366 -0.82303667 188 183 185
-0.24721879 0.0084840162 -0.82253212 186 180 183
-0.24713713 0.0086288732 -0.82243633 184 178 181
-0.24726409 0.0086185625 -0.82117236 187 177 181
-0.2475991 0.0078192698 -0.82220566 185 176 180
-0.24722959 0.0087115597 -0.82096165 187 176 181
-0.24790321 0.0071352343 -0.82273793 181 173 176
-0.24771886 0.0074791596 -0.82310623 186 181 183
-0.24818033 0.002911506 -0.82209384 136 129 124
-0.24810165 0.0026155412 -0.82194799 135 128 124
-0.24839704 0.0042210855 -0.82317555 151 145 139
-0.24823785 0.0023111461 -0.82095617 116 105 101
-0.24829943 0.0028960463 -0.82102007 123 110 107
-0.24842153 0.004096861 -0.82071733 134 115 118
-0.24862123 0.0056935269 -0.82405537 167 161 155
-0.24836746 0.003542159 -0.82109064 130 115 115
-0.2456461 0.0067432085 -0.81278384 144 118 127
-0.24639803 0.0019843054 -0.81115359 142 119 118
-0.24629034 0.002505488 -0.81124288 143 120 120
-0.24693349 0.0019571998 -0.81210738 131 107 104
-0.24634539 0.0020313654 -0.81108403 143 120 120
-0.24805944 -0.0014657821 -0.81190693 126 95 100
-0.24787517 -0.0016532943 -0.8114723 129 98 105
-0.24797903 -0.00060102018 -0.81212598 123 94 96
-0.24777424 -0.00033064949 -0.81185049 125 95 98
-0.24731874 0.0014180494 -0.81241745 124 99 97
-0.24711311 0.00050503487 -0.8114593 130 103 106
-0.24714254 0.0017089749 -0.81232095 127 102 100
-0.24689637 0.0017935929 -0.81193197 132 108 106
-0.24654008 0.0019319651 -0.81137949 139 116 115
-0.24629566 0.0017940829 -0.81084567 145 122 122
-0.24706201 0.001940568 -0.81232929 128 104 101
-0.2486307 -0.0021425267 -0.81279474 129 97 100
-0.24817778 0.0066560684 -0.82677609 153 144 147
-0.24813461 0.0065510059 -0.82485253 181 178 177
-0.24880067 0.0059935004 -0.82704306 173 160 161
-0.24868129 0.0062746052 -0.82829326 164 148 153
0 0 0 1 0 0 0 1 0 0 0 1 0 0 0 0 0 109 1 0 0
