ply
format ascii 1.0
comment PCL generated
element vertex 102
property float x
property float y
property float z
property uchar red
property uchar green
property uchar blue
element camera 1
property float view_px
property float view_py
property float view_pz
property float x_axisx
property float x_axisy
property float x_axisz
property float y_axisx
property float y_axisy
property float y_axisz
property float z_axisx
property float z_axisy
property float z_axisz
property float focal
property float scalex
property float scaley
property float centerx
property float centery
property int viewportx
property int viewporty
property float k1
property float k2
end_header
-0.23845503 0.55390036 -0.86909473 174 133 134
-0.23828308 0.5528844 -0.86913103 174 131 138
-0.237128 0.55422509 -0.86777705 156 115 117
-0.23753157 0.55480331 -0.86812383 159 124 119
-0.23800585 0.5545435 -0.86854666 166 128 126
-0.23893417 0.55156559 -0.87006193 184 143 148
-0.23947968 0.5502553 -0.87085956 192 152 156
-0.23778057 0.55211812 -0.86868459 169 121 133
-0.23845695 0.55184877 -0.86948454 178 133 142
-0.23828574 0.55176818 -0.86930281 176 130 140
-0.23897962 0.55088401 -0.8702082 185 143 149
-0.23859094 0.54923904 -0.86991817 184 148 148
-0.2378878 0.54981214 -0.86902303 176 139 140
-0.23784655 0.5509845 -0.86888599 172 126 136
-0.23811096 0.55048561 -0.86924368 176 133 140
-0.23711491 0.54975837 -0.86808974 168 136 132
-0.23725519 0.55003768 -0.86823916 169 134 133
-0.23729773 0.54995763 -0.86829668 170 135 134
-0.23740606 0.5483796 -0.86848766 176 149 141
-0.23837963 0.5480231 -0.86964899 186 154 153
-0.23747504 0.54804945 -0.86855346 177 150 144
-0.23801182 0.54822737 -0.869214 182 152 148
-0.2384838 0.5478248 -0.86976457 188 155 155
-0.23744173 0.54738545 -0.86847717 180 152 148
-0.23614687 0.53739387 -0.86908972 162 141 120
-0.23555766 0.53760791 -0.8681125 157 135 117
-0.23542061 0.53725636 -0.86807549 152 132 112
-0.23692225 0.53595376 -0.8702631 161 135 118
-0.23708834 0.53539968 -0.87048018 158 130 116
-0.23635888 0.53634036 -0.86947691 159 133 116
-0.23596418 0.53666472 -0.86896086 158 134 115
-0.23242499 0.54957235 -0.8630839 115 63 85
-0.23267353 0.54879087 -0.86329538 126 72 95
-0.23293331 0.54733121 -0.86350399 139 95 103
-0.23289277 0.54632604 -0.86344033 144 106 105
-0.23178793 0.54503804 -0.8623597 129 102 90
-0.23208161 0.54824883 -0.86270738 116 64 85
-0.23190479 0.54588395 -0.86249083 127 93 89
-0.23218109 0.54717106 -0.86278903 125 83 90
-0.23302974 0.54355299 -0.86357027 163 134 120
-0.23279288 0.54376608 -0.8633523 157 131 115
-0.23248936 0.54426801 -0.8630504 149 126 107
-0.23253275 0.54111707 -0.86295885 174 144 136
-0.23190774 0.54240435 -0.86232376 150 124 113
-0.23238309 0.54211485 -0.86281914 165 136 126
-0.23217471 0.54480857 -0.8627342 139 116 98
-0.23271942 0.54081571 -0.86322129 175 144 135
-0.23206894 0.54024458 -0.86251879 164 131 128
-0.23212694 0.54055369 -0.86254352 167 134 130
-0.23669395 0.55279541 -0.867374 154 102 118
-0.23579225 0.55463856 -0.86639905 136 101 100
-0.23512401 0.55327368 -0.86577994 130 88 95
-0.23606063 0.55299115 -0.8666994 143 97 107
-0.23584919 0.55380511 -0.86647415 139 98 102
-0.23487177 0.55292284 -0.86554235 127 83 93
-0.23478507 0.55286813 -0.86545914 126 82 92
-0.23637864 0.55264175 -0.86702901 149 101 112
-0.23633061 0.55040962 -0.86702865 156 122 120
-0.23575324 0.55017453 -0.86643177 152 114 117
-0.23578022 0.5510661 -0.86643755 149 106 113
-0.23412535 0.5500229 -0.86474079 139 87 105
-0.23414204 0.54961741 -0.86476839 141 92 107
-0.23626743 0.55062795 -0.86695582 155 119 119
-0.2360169 0.54978222 -0.86671615 156 123 120
-0.23424095 0.55163521 -0.86489862 128 80 94
-0.23386461 0.55248821 -0.8645578 116 72 83
-0.23538408 0.55255127 -0.86604053 136 89 101
-0.23460612 0.5524289 -0.86527866 127 81 93
-0.23502323 0.5518223 -0.86566669 137 89 102
-0.23327376 0.551983 -0.86396664 112 67 80
-0.23638089 0.54595906 -0.8669098 173 139 144
-0.23462018 0.54528379 -0.86510295 165 132 128
-0.23585759 0.54707825 -0.8664571 166 136 131
-0.23507574 0.54682612 -0.8656776 162 134 124
-0.23457743 0.54602522 -0.86512548 162 132 123
-0.23445064 0.54621798 -0.8650192 160 132 120
-0.2344836 0.54554182 -0.86499286 163 132 125
-0.23361903 0.54638857 -0.86417472 153 119 113
-0.23323461 0.54581356 -0.86375827 153 119 112
-0.23367605 0.54717839 -0.86425638 149 111 111
-0.23503707 0.54767722 -0.86568743 158 129 120
-0.23390067 0.54879248 -0.86453581 142 95 109
-0.23350267 0.5455128 -0.86402881 157 127 114
-0.23362687 0.54573238 -0.86416435 157 127 115
-0.23528524 0.54281259 -0.86620319 179 145 144
-0.23441027 0.54353791 -0.8651877 171 139 132
-0.23453566 0.54377007 -0.86525571 170 138 132
-0.23338637 0.544734 -0.86391926 160 130 116
-0.23348351 0.542871 -0.86410892 170 139 128
-0.23366557 0.54358822 -0.8643102 167 136 125
-0.23461612 0.54202294 -0.86551881 180 147 142
-0.2333439 0.54171914 -0.86397249 176 145 134
-0.23316275 0.54420483 -0.86367714 161 132 118
-0.23379755 0.54119694 -0.86454266 181 149 141
-0.23375943 0.54295522 -0.86444378 171 140 130
-0.23503155 0.53800458 -0.86708319 157 131 120
-0.23485613 0.53894609 -0.86627799 168 136 134
-0.23556112 0.53911877 -0.86738384 170 141 135
-0.23479584 0.53834277 -0.86650026 161 132 125
-0.23477337 0.53890616 -0.86615872 168 135 133
-0.23302969 0.53999507 -0.86371756 170 138 130
-0.23490509 0.54000986 -0.86600876 179 144 144
0 0 0 1 0 0 0 1 0 0 0 1 0 0 0 0 0 102 1 0 0
