ply
format ascii 1.0
comment PCL generated
element vertex 468
property float x
property float y
property float z
property uchar red
property uchar green
property uchar blue
element camera 1
property float view_px
property float view_py
property float view_pz
property float x_axisx
property float x_axisy
property float x_axisz
property float y_axisx
property float y_axisy
property float y_axisz
property float z_axisx
property float z_axisy
property float z_axisz
property float focal
property float scalex
property float scaley
property float centerx
property float centery
property int viewportx
property int viewporty
property float k1
property float k2
end_header
-0.060472611 -0.37667862 -0.67554468 154 149 149
-0.060047705 -0.37639248 -0.67550927 153 147 148
-0.064709671 -0.37816894 -0.67601508 159 143 157
-0.065567717 -0.37771714 -0.676094 155 139 155
-0.064548224 -0.37765154 -0.67595631 157 140 154
-0.063704431 -0.3793453 -0.67601067 165 150 161
-0.063735753 -0.37916166 -0.67599964 164 149 160
-0.062194701 -0.38084054 -0.67600536 172 158 166
-0.062624022 -0.3803398 -0.67600137 170 156 164
-0.063582636 -0.3805871 -0.67609191 171 159 168
-0.062825494 -0.3798914 -0.67598391 168 153 162
-0.061738171 -0.3781327 -0.67576587 160 148 153
-0.062249895 -0.37843892 -0.67583102 161 146 154
-0.060767557 -0.3770754 -0.6756053 156 151 150
-0.062015291 -0.3785257 -0.67581886 162 147 154
-0.060907774 -0.37919101 -0.67578125 165 152 156
-0.062418137 -0.37881789 -0.67587405 163 145 155
-0.057030115 -0.37915781 -0.67560446 170 149 144
-0.05696182 -0.38002649 -0.67562401 172 148 152
-0.057416808 -0.37845996 -0.67561048 168 150 139
-0.056696828 -0.38024318 -0.67561257 173 147 153
-0.058611222 -0.37983921 -0.67572689 171 152 151
-0.0580252 -0.37978813 -0.67568707 171 151 151
-0.060096201 -0.37906715 -0.67573559 166 153 153
-0.060195245 -0.37889054 -0.67572337 165 153 153
-0.060046542 -0.37973338 -0.67578673 169 154 155
-0.059799649 -0.37756681 -0.6756143 160 152 147
-0.055891693 -0.3798362 -0.67556661 166 141 153
-0.055741947 -0.37893373 -0.6755355 162 140 145
-0.062300317 -0.38087997 -0.67601615 173 159 166
-0.062039226 -0.38106143 -0.676009 175 160 168
-0.05957995 -0.38122872 -0.67584461 177 157 165
-0.057919282 -0.3814263 -0.67574972 180 155 166
-0.054881938 -0.38136667 -0.67570549 159 135 156
-0.055320244 -0.38129464 -0.67569166 163 138 157
-0.054746438 -0.38125721 -0.67569548 158 134 156
-0.089270361 -0.37789032 -0.6802718 153 139 142
-0.089082845 -0.37962729 -0.68040955 169 156 163
-0.088793129 -0.37986985 -0.68036085 172 159 165
-0.088231616 -0.38164711 -0.68040365 179 167 173
-0.089661092 -0.38095954 -0.68071461 172 160 167
-0.086757906 -0.38387096 -0.68031222 183 166 186
-0.086977564 -0.38261232 -0.68022764 184 171 181
-0.087461419 -0.38247111 -0.68031204 181 168 180
-0.087771095 -0.38165438 -0.68029135 181 169 176
-0.087735914 -0.38092855 -0.68021059 182 172 172
-0.088615887 -0.38550749 -0.68087274 171 154 186
-0.086008579 -0.38735545 -0.68039536 175 164 193
-0.086567059 -0.38680944 -0.68048543 173 159 190
-0.086952999 -0.38735864 -0.68062544 167 148 184
-0.086728252 -0.38740748 -0.68057489 169 151 186
-0.086009756 -0.38834143 -0.68047845 170 156 188
-0.086324826 -0.38596743 -0.68037313 179 165 193
-0.087512583 -0.38514143 -0.68057656 174 156 190
-0.085257083 -0.38633311 -0.68017226 185 174 195
-0.08588279 -0.38874432 -0.68047929 169 155 187
-0.084294654 -0.38959122 -0.68013901 179 174 193
-0.084430479 -0.39018378 -0.68020642 175 165 186
-0.084010556 -0.39042586 -0.68011791 178 170 188
-0.083943777 -0.39110476 -0.6801427 175 164 182
-0.085909143 -0.37680945 -0.6793555 139 121 118
-0.088078678 -0.37765136 -0.67993975 154 142 131
-0.087234326 -0.38030979 -0.68004805 175 164 163
-0.085604437 -0.38026237 -0.67971581 170 158 155
-0.086865544 -0.38022271 -0.67996478 173 162 160
-0.087110117 -0.3796654 -0.67995358 169 158 154
-0.087274134 -0.37881434 -0.67989451 163 151 143
-0.085781015 -0.37776285 -0.67944682 147 131 127
-0.084466785 -0.38020965 -0.67947733 165 152 150
-0.085304551 -0.37918103 -0.67952925 159 145 140
-0.086266756 -0.37838876 -0.67964125 155 143 133
-0.086060897 -0.37875742 -0.67964405 158 146 137
-0.084971458 -0.37966943 -0.6795193 162 149 145
-0.072320655 -0.38008237 -0.67727458 189 181 196
-0.072561413 -0.37931195 -0.67723 177 166 181
-0.072939657 -0.37889823 -0.67724651 168 154 170
-0.068834066 -0.37856233 -0.67658859 166 157 171
-0.070258692 -0.38024789 -0.67695922 188 183 193
-0.068968371 -0.37895688 -0.67664111 171 163 175
-0.068512835 -0.38010859 -0.67664856 183 180 184
-0.069028467 -0.38051301 -0.67676741 188 186 190
-0.070049144 -0.37740454 -0.67666918 154 139 158
-0.071060821 -0.37851691 -0.67692947 169 157 173
-0.071929723 -0.38048726 -0.6772632 195 189 203
-0.066692553 -0.37768108 -0.67623365 153 138 156
-0.066013336 -0.37875637 -0.67622417 159 147 161
-0.065408804 -0.38035411 -0.67626196 171 162 171
-0.068324707 -0.3794218 -0.67656654 175 169 177
-0.067481272 -0.37871575 -0.67640573 163 152 166
-0.066598311 -0.38070288 -0.67644054 181 176 180
-0.064901978 -0.38071084 -0.67622358 173 164 172
-0.067260042 -0.37931553 -0.67642206 168 160 171
-0.084962316 -0.38106462 -0.67967176 174 161 162
-0.085842855 -0.38159025 -0.67990059 179 166 170
-0.084856279 -0.38310385 -0.67985219 183 167 177
-0.085606381 -0.38093314 -0.67978805 175 163 163
-0.084801026 -0.3834033 -0.67987072 184 168 179
-0.083993688 -0.38173732 -0.67954129 176 163 164
-0.081042819 -0.38470763 -0.67916596 177 156 175
-0.083428703 -0.3847481 -0.67970413 196 179 190
-0.083745711 -0.38462949 -0.67976618 197 181 191
-0.08265771 -0.38359708 -0.67944372 180 162 176
-0.08085449 -0.38459855 -0.67911541 174 153 173
-0.083333969 -0.38224623 -0.67945534 175 159 166
-0.082362913 -0.38313383 -0.67934215 173 155 171
-0.083922304 -0.38239533 -0.67958987 181 167 170
-0.082641937 -0.38158128 -0.67925012 163 147 157
-0.082634516 -0.38146767 -0.67923772 162 146 156
-0.076276287 -0.38348874 -0.67816633 172 160 180
-0.077515811 -0.38355091 -0.67840117 169 154 174
-0.077470347 -0.38325202 -0.67837423 168 153 172
-0.078279167 -0.38424948 -0.67858672 171 154 175
-0.075098075 -0.38402361 -0.67800969 183 174 193
-0.074709639 -0.38360685 -0.67792046 186 177 195
-0.073496252 -0.38378492 -0.6777513 191 184 199
-0.072934702 -0.38286677 -0.67759901 195 189 203
-0.07310386 -0.3840681 -0.67771327 193 187 200
-0.074207306 -0.38342693 -0.67783171 188 180 197
-0.075941227 -0.38313669 -0.67808765 173 161 181
-0.073928349 -0.38213906 -0.67769909 188 181 198
-0.074955046 -0.38186511 -0.67784876 177 167 184
-0.075133286 -0.38337824 -0.67797148 182 172 192
-0.075453617 -0.3832916 -0.67801809 178 168 187
-0.069943465 -0.38470504 -0.67722225 203 198 201
-0.068713777 -0.3843658 -0.67698061 206 200 200
-0.069139697 -0.38212922 -0.67690349 194 192 194
-0.068541646 -0.38413292 -0.67693412 205 200 199
-0.071237892 -0.38447872 -0.67743677 198 194 201
-0.06918586 -0.38236564 -0.6769278 195 193 195
-0.071528107 -0.38336164 -0.67740822 196 192 201
-0.068792567 -0.38101819 -0.67676437 191 191 192
-0.071808808 -0.3811256 -0.67729104 198 194 206
-0.071239248 -0.38304847 -0.67733538 195 192 200
-0.071438484 -0.38232791 -0.67731631 196 193 202
-0.065962754 -0.38243145 -0.67647719 187 179 184
-0.064662099 -0.38372484 -0.67636025 209 207 209
-0.066439725 -0.38409358 -0.67663437 207 203 203
-0.065863959 -0.38318205 -0.67650324 197 192 194
-0.066694506 -0.38446125 -0.67669052 211 207 207
-0.067946211 -0.38115185 -0.67664504 190 188 189
-0.067045189 -0.38237488 -0.67661303 191 186 188
-0.068045631 -0.38368666 -0.67683101 202 197 196
-0.068170376 -0.38357967 -0.67683971 202 198 197
-0.067574672 -0.38306376 -0.67672807 197 192 192
-0.063876338 -0.38427791 -0.67632622 216 213 216
-0.063509271 -0.38394758 -0.67628706 211 205 210
-0.063327998 -0.3837733 -0.67626715 209 201 206
-0.063233383 -0.38328224 -0.67623538 202 192 199
-0.063515663 -0.38440689 -0.67631197 217 212 216
-0.084409244 -0.38582316 -0.67997152 193 181 195
-0.084306598 -0.38744491 -0.68002963 187 183 199
-0.082428627 -0.38763076 -0.67964429 181 175 192
-0.08038047 -0.38839796 -0.67938703 184 174 182
-0.080394484 -0.38835016 -0.67938429 184 174 182
-0.081185929 -0.38796809 -0.67947465 182 174 185
-0.08099062 -0.38801098 -0.67944694 183 174 184
-0.080268666 -0.3868762 -0.67920804 178 163 177
-0.081774831 -0.38485509 -0.67933869 183 164 180
-0.081688613 -0.38613191 -0.67937851 177 164 183
-0.081798613 -0.38533926 -0.67936641 181 164 182
-0.083742283 -0.38782573 -0.67991757 186 185 201
-0.082297042 -0.38514021 -0.67946899 186 169 184
-0.08084289 -0.38520995 -0.67914617 174 155 175
-0.076524295 -0.38589865 -0.67838156 181 170 188
-0.077831134 -0.3873364 -0.67877185 184 173 185
-0.077062525 -0.38650995 -0.67854357 182 171 187
-0.078413174 -0.388026 -0.678949 185 175 184
-0.077568606 -0.38769567 -0.67873722 185 174 186
-0.078365043 -0.3859033 -0.67875469 178 164 181
-0.079087436 -0.38543019 -0.67883945 174 157 176
-0.078130044 -0.38543567 -0.67866158 176 162 181
-0.079787113 -0.38683221 -0.67911774 179 164 177
-0.078285247 -0.38656482 -0.67880964 181 169 183
-0.0747196 -0.38741925 -0.67818636 193 184 195
-0.073452249 -0.387371 -0.67798823 203 193 208
-0.073604345 -0.38619694 -0.67793649 195 187 198
-0.073259227 -0.38741177 -0.67796117 205 195 211
-0.073791526 -0.38772398 -0.67806304 203 192 207
-0.072681785 -0.38712829 -0.67785412 208 198 215
-0.07447955 -0.38492942 -0.67798269 186 178 194
-0.075869657 -0.38774011 -0.67838156 188 177 190
-0.073675252 -0.38535276 -0.67789042 191 184 197
-0.074919306 -0.38480625 -0.67804044 184 175 193
-0.075866401 -0.38486505 -0.67818677 179 169 190
-0.069433227 -0.38718784 -0.67720968 218 207 218
-0.070033967 -0.38669959 -0.6773507 215 205 215
-0.069245532 -0.38751718 -0.67716634 220 208 221
-0.069530755 -0.38802251 -0.67723608 222 209 224
-0.06875138 -0.38802311 -0.67705077 223 210 224
-0.06957417 -0.38555112 -0.67721111 210 202 207
-0.071432553 -0.38743573 -0.67766178 216 205 221
-0.070354335 -0.38567948 -0.67735791 208 201 208
-0.072185419 -0.3866381 -0.67774451 209 199 215
-0.07168638 -0.38510045 -0.67755741 200 195 204
-0.066894352 -0.38782662 -0.67676759 224 215 227
-0.065604553 -0.38727367 -0.67660522 221 216 227
-0.064666077 -0.38813475 -0.6765337 216 211 227
-0.067820042 -0.38817689 -0.67688245 226 214 228
-0.065120459 -0.38597986 -0.67650425 223 221 226
-0.064999104 -0.38850811 -0.67658412 217 210 228
-0.066512376 -0.38562441 -0.67668402 220 216 218
-0.068091266 -0.38524827 -0.67690849 212 205 206
-0.067694172 -0.38567102 -0.6768533 215 209 211
-0.068114661 -0.38686222 -0.67691809 219 209 217
-0.067268729 -0.38625902 -0.67679471 220 213 218
-0.067363463 -0.38594836 -0.67680711 218 211 215
-0.062794879 -0.38494709 -0.67629921 221 214 219
-0.061589461 -0.38665888 -0.6763258 221 223 228
-0.060856041 -0.3854706 -0.67621547 219 205 215
-0.062225375 -0.38648149 -0.67635298 222 226 229
-0.060927842 -0.38627371 -0.67626524 220 214 222
-0.062001646 -0.38778025 -0.67640239 222 229 235
-0.061606303 -0.3876633 -0.67638278 223 233 236
-0.063789412 -0.3863422 -0.67641848 221 223 228
-0.063578844 -0.38803768 -0.67647284 218 217 230
-0.062890328 -0.38643622 -0.67638719 223 229 231
-0.06231799 -0.38790199 -0.67641908 221 227 234
-0.060209207 -0.38636509 -0.67623723 216 208 218
-0.060093313 -0.38619247 -0.6762237 215 205 216
-0.059782874 -0.38765538 -0.67629671 214 217 225
-0.059709582 -0.38751268 -0.67628628 213 215 223
-0.082374327 -0.39160785 -0.679847 177 169 189
-0.081930049 -0.39170969 -0.67976213 177 171 191
-0.082470886 -0.3913922 -0.67985457 177 171 190
-0.083013207 -0.3908377 -0.6799342 178 173 191
-0.081685871 -0.39174888 -0.6797145 178 172 192
-0.080642425 -0.38962948 -0.67947561 183 177 188
-0.080557689 -0.3911652 -0.67948794 180 176 193
-0.080780588 -0.39096582 -0.67952132 181 177 194
-0.080134921 -0.39033452 -0.6794039 182 175 187
-0.080618232 -0.38970673 -0.67947292 183 177 188
-0.076731764 -0.38959536 -0.67863697 189 179 194
-0.077795796 -0.39197409 -0.6789366 191 184 211
-0.079369254 -0.39227849 -0.67927521 181 177 199
-0.078510426 -0.39214233 -0.67909133 186 181 206
-0.076338664 -0.3921361 -0.67863744 201 192 227
-0.07750833 -0.39167997 -0.67886698 191 184 210
-0.078507997 -0.38959354 -0.6790297 185 176 188
-0.079635419 -0.39127582 -0.67931139 181 175 192
-0.079881176 -0.38967738 -0.67933911 184 175 185
-0.07732325 -0.38899276 -0.67875367 188 177 188
-0.078681692 -0.38954297 -0.67906773 185 176 187
-0.079488121 -0.39130411 -0.67927885 181 175 192
-0.074486047 -0.39195129 -0.67826533 218 210 237
-0.073771328 -0.39179713 -0.67811233 225 217 239
-0.073937051 -0.39113402 -0.67817253 219 209 235
-0.073262423 -0.39236623 -0.67797941 233 228 243
-0.073465794 -0.39112678 -0.67806828 224 215 237
-0.075704537 -0.39210552 -0.67852968 206 196 233
-0.076097108 -0.38891375 -0.67848635 191 179 193
-0.072939962 -0.38887057 -0.67799914 217 203 226
-0.076129861 -0.39209056 -0.67859465 202 193 228
-0.073573202 -0.38966063 -0.67812228 214 202 228
-0.069703318 -0.39223453 -0.67736733 245 242 245
-0.071030878 -0.39189142 -0.67753434 242 238 244
-0.068574399 -0.39156023 -0.67716652 242 237 241
-0.070125774 -0.39230374 -0.6774314 245 242 245
-0.069703527 -0.39135629 -0.67731386 240 234 241
-0.070033476 -0.39240277 -0.67742431 246 243 246
-0.071939178 -0.38944772 -0.67778391 227 215 234
-0.072110385 -0.39131114 -0.67775875 238 231 242
-0.071001247 -0.39055189 -0.67752182 235 226 238
-0.069629535 -0.38897863 -0.67725128 227 214 230
-0.071174599 -0.38931975 -0.67760658 227 215 233
-0.069408022 -0.38966224 -0.67717445 231 220 233
-0.064581744 -0.389135 -0.67657053 215 209 227
-0.066873983 -0.39246607 -0.67701995 232 228 234
-0.06503468 -0.3913092 -0.67674315 216 208 223
-0.065632008 -0.39206755 -0.67685419 220 213 226
-0.065280713 -0.39054942 -0.67672962 220 213 228
-0.064680517 -0.38877571 -0.67656136 216 210 228
-0.068082251 -0.39115116 -0.67708057 239 234 239
-0.0667364 -0.39000952 -0.67686284 229 222 234
-0.067034498 -0.38907892 -0.67683899 225 215 230
-0.066311151 -0.3900815 -0.6768204 228 223 234
-0.067435466 -0.39130163 -0.67701852 238 234 240
-0.061012946 -0.38943112 -0.67643571 221 230 237
-0.063643679 -0.3918201 -0.67667222 211 204 220
-0.061476637 -0.38975936 -0.67647332 219 226 234
-0.060973667 -0.38935608 -0.6764304 221 231 237
-0.061709214 -0.39184585 -0.67657679 222 220 230
-0.063573509 -0.39038938 -0.67659098 213 209 225
-0.063282639 -0.38966289 -0.67653954 215 214 228
-0.06311772 -0.38999763 -0.6765517 215 214 228
-0.063211903 -0.39029923 -0.67657202 214 212 226
-0.063750111 -0.39037862 -0.67659724 213 208 224
-0.05985485 -0.39202765 -0.67650175 223 221 229
-0.05945304 -0.39228961 -0.67649508 221 213 227
-0.06006293 -0.392304 -0.67652071 225 223 231
-0.059893213 -0.39027569 -0.67642683 220 225 232
-0.059399877 -0.39103031 -0.67644292 218 218 227
-0.058909252 -0.39009705 -0.67638475 212 214 224
-0.058645491 -0.38893718 -0.67632449 208 213 223
-0.059725046 -0.38992292 -0.67640549 218 224 231
-0.060247134 -0.3916789 -0.67650092 226 227 233
-0.080413014 -0.39284742 -0.67951781 175 170 191
-0.076903954 -0.3941775 -0.67883146 190 173 211
-0.076252259 -0.39390561 -0.67866671 193 176 219
-0.078148872 -0.39316577 -0.67906356 189 180 209
-0.07785625 -0.39422756 -0.67906308 188 174 203
-0.078853317 -0.39437976 -0.67927998 181 168 192
-0.078553222 -0.39382857 -0.67918587 184 174 199
-0.073919959 -0.39594981 -0.67821604 201 189 221
-0.072605588 -0.39469603 -0.67789686 225 223 239
-0.072271213 -0.39550978 -0.67785567 222 226 242
-0.073184311 -0.39509451 -0.67803198 216 209 231
-0.074832924 -0.39527819 -0.67838329 197 173 210
-0.073298573 -0.39426327 -0.67802656 221 211 232
-0.075067356 -0.39302415 -0.67838228 212 202 233
-0.07533028 -0.39354843 -0.67845249 205 191 226
-0.07541319 -0.39446938 -0.67849183 197 177 216
-0.074707791 -0.39487636 -0.67834473 202 180 214
-0.074465998 -0.39267963 -0.67824107 221 214 239
-0.075374097 -0.39315844 -0.67845333 208 196 230
-0.068487003 -0.39410621 -0.67725289 247 245 245
-0.070439897 -0.39491618 -0.67757195 230 233 243
-0.069144145 -0.39596725 -0.67739683 242 241 244
-0.069206469 -0.39533722 -0.67739195 241 240 244
-0.069014147 -0.39407361 -0.67733324 242 242 245
-0.069224656 -0.39487991 -0.6773842 241 240 244
-0.072223112 -0.396274 -0.67787552 216 222 241
-0.069445707 -0.39282906 -0.67736071 245 244 246
-0.069842689 -0.39326906 -0.67743236 241 241 245
-0.070668362 -0.39381856 -0.67756867 236 237 244
-0.072101459 -0.39460176 -0.67779922 230 231 244
-0.067196622 -0.39573094 -0.67714393 239 234 238
-0.065090686 -0.39501786 -0.6769101 228 216 229
-0.064878099 -0.39426205 -0.67685783 222 210 224
-0.065802485 -0.39524904 -0.67698872 232 222 232
-0.064695172 -0.39399043 -0.67682874 219 207 222
-0.0664583 -0.39347512 -0.67699873 228 222 230
-0.064752705 -0.39284167 -0.67678678 211 200 217
-0.067313962 -0.39533028 -0.67714047 238 232 237
-0.067725934 -0.39380875 -0.67715311 241 238 240
-0.067780331 -0.39350823 -0.67715245 242 239 241
-0.061517965 -0.39357251 -0.67664117 232 227 235
-0.061949875 -0.39574045 -0.67674929 240 234 241
-0.060815301 -0.39288706 -0.67657721 230 228 235
-0.063157082 -0.39607862 -0.676826 239 229 238
-0.063651882 -0.39599568 -0.67684871 237 225 236
-0.060557969 -0.39569634 -0.67667454 243 243 246
-0.064306229 -0.39610383 -0.67688674 235 221 233
-0.061968088 -0.39282748 -0.6766324 223 219 229
-0.062682308 -0.39333481 -0.67668939 223 216 227
-0.063604809 -0.39526218 -0.67681634 233 221 233
-0.063692555 -0.39286789 -0.6767202 214 205 220
-0.058231886 -0.39629814 -0.67653632 235 233 237
-0.058664281 -0.39493197 -0.67655599 227 214 231
-0.057291392 -0.39569941 -0.67646337 226 219 229
-0.05737552 -0.3937479 -0.67645293 213 189 217
-0.057413951 -0.39524579 -0.67646831 224 213 227
-0.059449006 -0.39580229 -0.67661995 237 231 240
-0.05953712 -0.39433309 -0.67657858 230 221 234
-0.060398437 -0.39598107 -0.67667907 243 242 247
-0.059662454 -0.39408904 -0.67657411 230 222 234
-0.059592556 -0.39423573 -0.67657703 230 221 234
-0.059240874 -0.3929635 -0.67651236 222 210 227
-0.056118451 -0.39642268 -0.67639649 224 223 227
-0.073625833 -0.40018159 -0.67845351 189 174 206
-0.072551623 -0.39960149 -0.67818731 197 184 218
-0.074323028 -0.39921364 -0.67852306 191 182 206
-0.074277624 -0.39866284 -0.67847139 194 189 210
-0.073776111 -0.39923146 -0.67841154 193 184 211
-0.074273355 -0.39653629 -0.67831272 193 179 215
-0.07514675 -0.39913547 -0.67868769 186 176 199
-0.074363962 -0.39667648 -0.67834204 193 178 214
-0.07577531 -0.39754418 -0.6787014 178 153 194
-0.07508526 -0.39737841 -0.67854482 186 167 203
-0.068724521 -0.39768609 -0.67742282 237 233 241
-0.069869943 -0.39888382 -0.67769015 221 213 232
-0.068712197 -0.39961755 -0.67753738 224 220 236
-0.069029555 -0.39993173 -0.6776104 219 214 233
-0.071714088 -0.40036154 -0.67809325 198 183 218
-0.070947878 -0.39932242 -0.67790008 210 198 225
-0.071651265 -0.39716062 -0.67784643 216 217 237
-0.070610516 -0.39854872 -0.67779285 218 208 229
-0.071093 -0.39779499 -0.67780924 218 213 234
-0.072247177 -0.39670673 -0.67790318 213 218 239
-0.070167743 -0.39722472 -0.67762309 229 226 238
-0.071017861 -0.39655507 -0.67770243 225 228 242
-0.066747136 -0.39984462 -0.67728996 226 221 236
-0.064993076 -0.39992222 -0.67704755 230 225 238
-0.066361301 -0.3984918 -0.67721176 229 221 235
-0.067443296 -0.40011653 -0.67739165 223 220 236
-0.066674784 -0.40012947 -0.67728508 225 222 237
-0.068261132 -0.39664114 -0.677288 247 244 245
-0.066212796 -0.39800754 -0.6771723 232 222 236
-0.06725657 -0.39670998 -0.67719495 244 237 242
-0.066597834 -0.39824837 -0.6772241 231 223 236
-0.067968957 -0.39747167 -0.67730987 240 236 242
-0.061942857 -0.39999324 -0.67683011 233 227 240
-0.061475847 -0.39897195 -0.67679018 237 233 242
-0.06353502 -0.39952788 -0.67691678 234 231 241
-0.060657945 -0.40001413 -0.67675573 234 227 240
-0.061078142 -0.40011004 -0.67678136 233 226 239
-0.062503465 -0.39765972 -0.67682904 240 236 243
-0.062296569 -0.39812213 -0.6768266 240 237 244
-0.064014241 -0.39901084 -0.67693287 234 228 239
-0.062754065 -0.3970243 -0.67683065 240 233 242
-0.063473269 -0.39735928 -0.67687452 238 229 239
-0.056979544 -0.39728352 -0.67645615 225 224 230
-0.058237448 -0.39964104 -0.67657346 219 214 229
-0.059025563 -0.40009782 -0.67663699 222 216 232
-0.058104184 -0.39797896 -0.67654735 230 227 233
-0.058227502 -0.39884141 -0.67656493 224 220 231
-0.057335284 -0.39997077 -0.67650896 208 204 223
-0.057827197 -0.39705381 -0.67651576 232 231 235
-0.060165845 -0.39764753 -0.67669207 241 238 244
-0.057823867 -0.3968088 -0.67651248 233 232 235
-0.059281264 -0.39799383 -0.67663258 235 232 239
-0.060384665 -0.40010288 -0.67673868 233 225 239
-0.060217816 -0.39753264 -0.67669439 241 239 245
-0.056285087 -0.39901999 -0.67642802 207 203 220
-0.05566011 -0.39760175 -0.67637962 212 208 220
-0.055704623 -0.3967213 -0.67637354 219 216 223
-0.07395146 -0.40300989 -0.6785965 182 170 194
-0.073654205 -0.40369225 -0.67856973 182 171 193
-0.072820537 -0.40187067 -0.67834741 189 174 206
-0.072861195 -0.40375733 -0.67842913 186 174 198
-0.07304766 -0.40091327 -0.67835736 189 174 208
-0.075186707 -0.40047258 -0.67879283 181 166 191
-0.073881462 -0.40184918 -0.67854214 184 170 199
-0.06899672 -0.4025301 -0.67768455 193 185 209
-0.068787999 -0.40288499 -0.67765093 187 177 204
-0.069202103 -0.40135947 -0.67770296 212 207 226
-0.070315436 -0.40305176 -0.67794669 194 185 208
-0.068537742 -0.40385056 -0.67762029 171 158 189
-0.071650416 -0.40297809 -0.67818624 194 183 208
-0.070476927 -0.40112841 -0.67791355 205 196 222
-0.070489429 -0.40195724 -0.67794836 203 196 218
-0.070155166 -0.40183407 -0.67788661 206 199 220
-0.071665831 -0.40329057 -0.67820114 193 183 207
-0.065407336 -0.40175426 -0.67715985 210 202 220
-0.067377388 -0.40338403 -0.67744488 180 167 196
-0.06524381 -0.40240112 -0.67719191 204 195 213
-0.064744011 -0.40157107 -0.67708993 216 209 224
-0.065928333 -0.40232298 -0.67724502 200 191 212
-0.067148238 -0.40376911 -0.67745262 177 164 192
-0.0664948 -0.40040913 -0.67726511 225 222 237
-0.068106882 -0.40393162 -0.6775524 169 156 188
-0.067763828 -0.40183973 -0.67746723 201 194 216
-0.065493032 -0.40106133 -0.67713761 218 212 229
-0.068010025 -0.40053353 -0.67747802 219 217 234
-0.061302558 -0.40210837 -0.67686445 219 207 225
-0.06120633 -0.40194219 -0.67685109 220 208 227
-0.060587075 -0.40258339 -0.67678779 220 205 229
-0.062768489 -0.40319905 -0.67704904 204 192 210
-0.061099652 -0.40081435 -0.67681628 228 219 234
-0.063854277 -0.40039191 -0.67694622 231 226 238
-0.063136928 -0.4026852 -0.67706782 207 196 211
-0.064198099 -0.40273181 -0.67713279 205 196 211
-0.064362705 -0.40318379 -0.67717451 201 190 206
-0.060466647 -0.40042973 -0.67674851 232 224 238
-0.058775838 -0.40125 -0.67663252 213 204 226
-0.05965155 -0.40071306 -0.67669111 223 215 233
-0.059801191 -0.40161878 -0.67671442 219 208 229
-0.060083617 -0.40080556 -0.67672473 226 217 234
-0.073105402 -0.40544817 -0.67854124 179 166 189
-0.07294222 -0.40448645 -0.6784718 183 172 194
-0.073229894 -0.40510628 -0.67854595 178 165 190
-0.069692999 -0.40593615 -0.67793453 175 161 185
-0.071880609 -0.40491888 -0.67830241 186 175 196
-0.071096979 -0.40564069 -0.67819077 182 170 191
-0.070155248 -0.40587834 -0.67802298 176 164 186
-0.071787186 -0.40522677 -0.67830092 186 174 195
-0.069342807 -0.40456921 -0.67779714 170 156 186
-0.067989789 -0.40547797 -0.67761433 174 155 185
-0.06773819 -0.4049311 -0.67756867 172 155 185
0 0 0 1 0 0 0 1 0 0 0 1 0 0 0 0 0 468 1 0 0
