ply
format ascii 1.0
comment PCL generated
element vertex 531
property float x
property float y
property float z
property uchar red
property uchar green
property uchar blue
element camera 1
property float view_px
property float view_py
property float view_pz
property float x_axisx
property float x_axisy
property float x_axisz
property float y_axisx
property float y_axisy
property float y_axisz
property float z_axisx
property float z_axisy
property float z_axisz
property float focal
property float scalex
property float scaley
property float centerx
property float centery
property int viewportx
property int viewporty
property float k1
property float k2
end_header
-0.19611675 -0.17728312 -0.78922063 131 97 122
-0.19613369 -0.18042846 -0.78914446 150 123 133
-0.19622628 -0.17814243 -0.78931588 144 111 135
-0.19606221 -0.17859951 -0.78906971 145 114 133
-0.19608776 -0.17919213 -0.78909737 146 117 133
-0.19477944 -0.18088554 -0.78716558 145 134 115
-0.1956073 -0.17881343 -0.78840399 143 118 127
-0.19542536 -0.18089727 -0.78810573 148 130 124
-0.19527818 -0.17833297 -0.78793079 124 96 108
-0.19469367 -0.17805769 -0.7870822 101 71 83
-0.1954648 -0.17818917 -0.78820503 127 97 113
-0.19460461 -0.17982146 -0.78692728 133 119 106
-0.19516982 -0.17821774 -0.78777438 118 89 103
-0.19429231 -0.17896402 -0.78648394 107 85 82
-0.19449955 -0.1853008 -0.7871539 88 52 61
-0.1946404 -0.18516465 -0.78733009 89 56 62
-0.19521037 -0.18523428 -0.78812569 84 55 60
-0.19533466 -0.18506366 -0.78827536 86 60 61
-0.19435531 -0.18557894 -0.78699005 85 45 58
-0.19561668 -0.18626942 -0.78870475 75 45 54
-0.19599792 -0.18663308 -0.78921801 72 44 52
-0.19527151 -0.1862933 -0.78822863 77 44 55
-0.19608624 -0.18811131 -0.78929168 67 38 48
-0.19598301 -0.1863907 -0.78920531 73 45 53
-0.1950513 -0.1874574 -0.78788763 75 39 52
-0.19513373 -0.18852106 -0.78806007 70 36 48
-0.1954443 -0.18873382 -0.78844625 68 35 47
-0.19465566 -0.18816392 -0.78746176 73 37 49
-0.19396132 -0.18939433 -0.78682607 68 34 42
-0.19356541 -0.18715099 -0.7860707 81 40 53
-0.19413039 -0.18733315 -0.78674585 79 39 52
-0.19312458 -0.18910225 -0.78582585 74 36 42
-0.19375856 -0.19119784 -0.78625822 79 49 51
-0.19548374 -0.18978797 -0.78852195 66 37 45
-0.19425024 -0.18993852 -0.78707147 70 38 44
-0.1942004 -0.19080624 -0.78684396 76 45 49
-0.19419305 -0.19178668 -0.78664327 82 53 55
-0.19430161 -0.18970995 -0.78717554 69 36 43
-0.19488393 -0.19324766 -0.78743809 115 92 87
-0.1960358 -0.19298041 -0.78902984 130 109 104
-0.19528197 -0.1927947 -0.7880035 113 89 86
-0.19574502 -0.19317994 -0.78862238 129 107 102
-0.19550671 -0.1908882 -0.78839284 79 51 56
-0.19327298 -0.19012238 -0.78591532 75 40 44
-0.19608216 -0.19593005 -0.78881651 116 95 89
-0.19603124 -0.19498283 -0.78874707 126 104 99
-0.1959417 -0.19603358 -0.78853172 115 93 88
-0.19574361 -0.19542317 -0.78815615 120 96 93
-0.19605891 -0.19390376 -0.78886122 136 115 109
-0.19462988 -0.20069906 -0.7867136 148 131 125
-0.19521193 -0.19961613 -0.78759867 134 117 110
-0.19581579 -0.19960485 -0.78837025 136 119 111
-0.19634129 -0.20000409 -0.7889877 145 127 118
-0.19486575 -0.2007549 -0.78700703 150 133 127
-0.195943 -0.19965756 -0.78852546 138 120 112
-0.19525072 -0.19819728 -0.78744406 113 91 88
-0.19466853 -0.19947371 -0.78674161 130 110 106
-0.19427131 -0.19845848 -0.78557795 114 86 89
-0.19551475 -0.19835925 -0.7880314 116 97 91
-0.19410731 -0.20041242 -0.78595877 142 123 119
-0.19636762 -0.20237736 -0.78929597 142 124 117
-0.19470029 -0.20411707 -0.78723437 116 81 94
-0.19451889 -0.20432617 -0.78702134 113 75 91
-0.19636331 -0.20175251 -0.78893447 155 134 129
-0.19457655 -0.20355874 -0.78680527 127 89 104
-0.19562623 -0.20179871 -0.78798008 152 130 127
-0.19407599 -0.2022367 -0.78604394 140 114 119
-0.19455107 -0.20345315 -0.78676295 128 91 105
-0.19490097 -0.20183063 -0.78705817 149 126 125
-0.19555801 -0.20155679 -0.78787059 155 134 130
-0.19492351 -0.20277609 -0.78717494 138 107 114
-0.19457379 -0.20578018 -0.78735274 112 85 96
-0.19429983 -0.20561641 -0.78689754 111 78 93
-0.20521821 -0.17722155 -0.8063038 145 117 120
-0.20554672 -0.17760888 -0.80713558 148 119 122
-0.20497909 -0.17703834 -0.80578744 145 116 120
-0.20620836 -0.18088888 -0.80853605 115 98 100
-0.20634499 -0.18106139 -0.80892313 116 100 102
-0.20549968 -0.17866352 -0.80676806 130 102 105
-0.20514405 -0.18134554 -0.80532229 155 131 132
-0.20517819 -0.18088828 -0.80548859 150 125 127
-0.20543674 -0.18052803 -0.80630332 138 114 116
-0.20582692 -0.1813629 -0.80733538 129 110 111
-0.20565671 -0.17956664 -0.8070904 123 98 101
-0.20500959 -0.17793126 -0.80549973 134 101 105
-0.20584351 -0.18208188 -0.80740309 129 110 112
-0.20624383 -0.18384762 -0.80881947 111 92 94
-0.20624249 -0.18376182 -0.80880409 111 93 94
-0.20576186 -0.18244646 -0.80721062 132 112 113
-0.20546284 -0.18226525 -0.80630386 144 122 123
-0.20584632 -0.18370636 -0.80762744 127 105 106
-0.20584498 -0.18508419 -0.80813491 121 96 94
-0.20541419 -0.18374389 -0.80673641 139 113 111
-0.20599492 -0.18537158 -0.80852669 116 92 91
-0.20448411 -0.18474792 -0.80605567 132 92 92
-0.20466664 -0.18402854 -0.80588216 139 103 103
-0.20484413 -0.18486291 -0.8065263 136 101 95
-0.20490615 -0.18496904 -0.80665314 136 102 94
-0.20616442 -0.18818353 -0.80853349 158 132 136
-0.2063172 -0.18789721 -0.80881631 150 126 131
-0.2063923 -0.1883973 -0.80886859 157 133 140
-0.20515357 -0.18778235 -0.80675203 141 111 106
-0.20564364 -0.18732677 -0.80778694 150 121 117
-0.20585217 -0.18853654 -0.80788475 156 130 131
-0.20529334 -0.18745613 -0.80709505 143 113 108
-0.20574512 -0.18918987 -0.80752355 156 129 133
-0.20441137 -0.18922295 -0.80563784 138 109 111
-0.20457609 -0.18938465 -0.80575168 139 111 112
-0.20438759 -0.18641001 -0.80621415 129 91 89
-0.20378408 -0.18855311 -0.80514205 130 95 102
-0.20403607 -0.18590389 -0.80590504 123 75 81
-0.2052245 -0.18950844 -0.806499 146 118 119
-0.20527168 -0.18998915 -0.80676883 150 124 126
-0.20521085 -0.19088343 -0.80697054 156 131 133
-0.20418604 -0.19265297 -0.80592144 157 136 123
-0.20445143 -0.19271943 -0.80635822 160 139 130
-0.2048182 -0.19197108 -0.80667049 159 136 132
-0.2040588 -0.19330899 -0.80595058 161 141 127
-0.20404886 -0.19121331 -0.8054046 146 122 113
-0.20373118 -0.19158842 -0.80514318 146 123 112
-0.20433214 -0.19023384 -0.80557907 142 116 113
-0.20343332 -0.19630319 -0.80552852 139 97 105
-0.20309269 -0.19689822 -0.80510575 132 86 96
-0.2042007 -0.19347085 -0.80620956 162 141 130
-0.20369901 -0.1951482 -0.80573261 148 115 114
-0.20328698 -0.19541663 -0.80513901 142 107 104
-0.20287898 -0.19848531 -0.80527568 137 96 106
-0.20900027 -0.17872722 -0.81839389 40 31 34
-0.20927291 -0.17980213 -0.81816733 95 75 83
-0.20939305 -0.17867926 -0.81904167 60 50 54
-0.20969382 -0.17915235 -0.8192302 95 81 86
-0.21003136 -0.179113 -0.8199625 90 81 85
-0.21000545 -0.18106005 -0.81900388 126 108 118
-0.20965028 -0.17971513 -0.81885427 109 91 98
-0.20933431 -0.18493316 -0.8183046 101 57 56
-0.20939918 -0.1854336 -0.8185969 92 47 44
-0.20919846 -0.18330675 -0.81753618 132 91 98
-0.20920251 -0.18437539 -0.81783497 108 64 66
-0.20941988 -0.18287881 -0.81790709 144 108 117
-0.21013264 -0.1825878 -0.81935591 132 109 117
-0.21016146 -0.18397041 -0.81992155 127 99 103
-0.21007393 -0.1837649 -0.81965637 130 101 106
-0.20968455 -0.18195306 -0.81814992 143 115 126
-0.21013847 -0.18498316 -0.82023996 125 92 94
-0.20960793 -0.18763235 -0.81960535 129 96 96
-0.2099189 -0.18620436 -0.82003403 119 83 83
-0.2096058 -0.18649295 -0.8193419 112 73 72
-0.20959929 -0.18596691 -0.81920689 103 63 60
-0.20924613 -0.18852976 -0.81835032 152 125 129
-0.20902503 -0.18654403 -0.81769031 100 58 56
-0.20945439 -0.18920133 -0.81907731 167 145 150
-0.20914118 -0.18717346 -0.81807339 116 79 78
-0.19286712 -0.18427271 -0.78483284 98 56 67
-0.19256362 -0.18475112 -0.78446561 87 39 59
-0.1925229 -0.18515129 -0.78437972 84 41 58
-0.19270556 -0.18492284 -0.78466976 87 39 59
-0.19242367 -0.18881916 -0.78470021 82 49 49
-0.19264919 -0.18885614 -0.78509611 79 44 46
-0.19261232 -0.18807746 -0.78487068 84 48 52
-0.19257526 -0.18730721 -0.78464663 88 52 57
-0.19209677 -0.18937595 -0.78425324 82 55 49
-0.1919228 -0.18617134 -0.78348649 82 51 58
-0.19304202 -0.18577486 -0.78515428 89 45 60
-0.19268052 -0.18558529 -0.78459632 84 43 58
-0.19127533 -0.18667389 -0.78253835 80 58 58
-0.19252053 -0.1908021 -0.78471678 87 56 52
-0.19258916 -0.19037522 -0.78493029 83 50 49
-0.19243811 -0.1900456 -0.78476131 83 50 48
-0.19391006 -0.19928668 -0.78522122 127 103 103
-0.19338389 -0.19884378 -0.78419864 122 96 96
-0.19244723 -0.20062271 -0.78358424 119 92 99
-0.19293839 -0.19911307 -0.78373057 116 87 91
-0.19331488 -0.20004362 -0.78445262 131 109 107
-0.19356781 -0.20335864 -0.78548259 124 88 103
-0.19299518 -0.202683 -0.78451586 125 94 101
-0.19294971 -0.20261376 -0.7844457 126 95 101
-0.19328144 -0.20406663 -0.78506929 113 70 90
-0.19252513 -0.20303084 -0.7839151 120 85 92
-0.19245851 -0.2017497 -0.78375906 124 97 101
-0.19257712 -0.20153643 -0.78390056 126 101 104
-0.192407 -0.20141423 -0.78369695 123 97 102
-0.2021067 -0.17734422 -0.80057263 117 97 106
-0.2012061 -0.17767856 -0.79770309 140 105 116
-0.201012 -0.17734824 -0.79750013 137 104 113
-0.20141287 -0.1801181 -0.79768556 148 121 135
-0.20157199 -0.18049851 -0.79807097 146 122 136
-0.20157915 -0.18004987 -0.79821116 143 118 132
-0.2016453 -0.17883143 -0.79873437 135 108 121
-0.2015253 -0.17783682 -0.79863042 132 102 113
-0.20141739 -0.18161876 -0.79731756 156 132 148
-0.20163071 -0.18156813 -0.79854059 147 121 137
-0.20172611 -0.18155447 -0.79909128 143 116 133
-0.20187189 -0.18088691 -0.79967022 136 110 126
-0.20166245 -0.18127276 -0.7986058 145 120 136
-0.20216542 -0.18549998 -0.80076271 109 68 69
-0.20123035 -0.1851956 -0.79779625 128 92 106
-0.20137298 -0.18309735 -0.79761761 147 118 132
-0.20173442 -0.18432923 -0.79909694 129 94 102
-0.20118731 -0.18393902 -0.79731804 145 114 129
-0.20180875 -0.18227977 -0.79940128 138 108 122
-0.20216639 -0.18474209 -0.80068874 114 76 78
-0.2020952 -0.18393005 -0.80053675 120 84 90
-0.20210604 -0.18231238 -0.8011238 125 93 107
-0.20175582 -0.18242174 -0.7990467 139 110 123
-0.20214318 -0.18757993 -0.8002947 118 85 91
-0.20175482 -0.18622288 -0.79937267 118 81 89
-0.20208418 -0.18591298 -0.80045092 112 72 75
-0.20156923 -0.18643935 -0.7987566 122 87 98
-0.20141073 -0.18586358 -0.79838473 122 85 97
-0.20180658 -0.18770626 -0.7992906 123 90 100
-0.20120625 -0.18807858 -0.79770416 126 91 107
-0.20166552 -0.18711168 -0.79894447 123 90 100
-0.20138881 -0.18647996 -0.79824442 124 89 102
-0.20132484 -0.18810456 -0.79801363 126 91 106
-0.2011757 -0.18782732 -0.79763395 126 90 107
-0.20084471 -0.18609083 -0.79731327 127 92 107
-0.20207004 -0.18970412 -0.80007356 121 91 101
-0.20195214 -0.19115119 -0.80069226 112 81 93
-0.20224334 -0.18998957 -0.80071032 118 89 97
-0.20183674 -0.19216159 -0.80103761 106 74 88
-0.20150456 -0.19024172 -0.79893732 120 87 103
-0.20122796 -0.19314319 -0.80044931 102 67 87
-0.20075573 -0.1924226 -0.79917711 115 80 95
-0.20055416 -0.19064872 -0.79751998 131 97 108
-0.20102154 -0.19000117 -0.79774618 126 92 108
-0.20059508 -0.191579 -0.79828948 123 89 102
-0.20047186 -0.19150972 -0.79804754 126 92 103
-0.20050788 -0.19048098 -0.79736 129 95 106
-0.20196934 -0.19715215 -0.800354 129 121 105
-0.20120817 -0.19618493 -0.79903871 122 105 92
-0.20130447 -0.19656321 -0.79906219 125 110 94
-0.20181933 -0.19666944 -0.80025786 125 114 102
-0.20100538 -0.19706175 -0.79820913 126 112 90
-0.20099811 -0.19691442 -0.79828036 125 110 90
-0.19915375 -0.19352114 -0.79733717 138 107 101
-0.20029163 -0.19562787 -0.79791898 120 95 87
-0.20002964 -0.19371298 -0.79857677 122 90 94
-0.20094906 -0.19364299 -0.8000282 105 72 87
-0.19971275 -0.19446661 -0.79767257 129 101 95
-0.1999739 -0.19509153 -0.79772776 125 99 91
-0.20196572 -0.19861926 -0.80079168 131 122 115
-0.20210508 -0.19762184 -0.80075544 130 123 110
-0.20213602 -0.19805098 -0.80099267 131 123 114
-0.20228256 -0.19748624 -0.80113697 130 124 111
-0.20123765 -0.19799152 -0.79863399 128 116 96
-0.20130423 -0.19993679 -0.79870862 113 96 91
-0.20135686 -0.19893402 -0.79922229 128 114 104
-0.20120502 -0.20083317 -0.79791832 95 75 74
-0.20080906 -0.19949122 -0.79732198 101 81 72
-0.20076236 -0.19912894 -0.79732889 104 84 74
-0.20113988 -0.2014368 -0.79752475 91 71 70
-0.20676048 -0.17729357 -0.81292057 89 74 78
-0.20683271 -0.17728344 -0.81328654 91 77 80
-0.20889409 -0.18136641 -0.81661326 145 111 124
-0.20874391 -0.18074507 -0.81674635 126 97 107
-0.20834748 -0.18112603 -0.81573671 115 88 98
-0.20799319 -0.18096322 -0.81517339 96 72 81
-0.20772527 -0.18078116 -0.81478703 80 60 67
-0.20714007 -0.18113405 -0.81343776 59 43 50
-0.20838983 -0.1810158 -0.81589139 115 88 98
-0.20731246 -0.17930856 -0.81474018 46 34 35
-0.20696285 -0.17914431 -0.81338608 66 52 55
-0.20712081 -0.18002331 -0.81374872 57 43 47
-0.20734012 -0.17873839 -0.81502783 44 33 32
-0.20727159 -0.17816333 -0.8149305 48 36 36
-0.20864467 -0.18340069 -0.81643063 113 73 79
-0.20853531 -0.1828056 -0.81606275 116 80 88
-0.20810021 -0.18324396 -0.81535321 91 56 61
-0.20785895 -0.1833301 -0.81491756 79 46 50
-0.20856749 -0.18501213 -0.81671691 88 41 41
-0.20821683 -0.18408413 -0.81580073 85 45 47
-0.20736519 -0.18341652 -0.81374395 97 70 76
-0.20726502 -0.18446822 -0.81346399 138 110 119
-0.20732638 -0.18268235 -0.81365246 76 51 58
-0.20801072 -0.18438074 -0.81543326 80 41 43
-0.20799892 -0.18457858 -0.81539923 88 48 50
-0.20779656 -0.18396917 -0.81487423 83 48 51
-0.20806862 -0.18617576 -0.81543112 115 73 76
-0.19739026 -0.1764805 -0.79148376 136 113 121
-0.19730742 -0.17637727 -0.79133636 138 116 124
-0.19669572 -0.17727789 -0.79014957 141 111 132
-0.19725017 -0.1754974 -0.79144579 145 122 131
-0.19645956 -0.17713995 -0.78982162 145 112 137
-0.19626114 -0.17704821 -0.78946406 133 99 123
-0.19664581 -0.17618002 -0.7903313 145 115 135
-0.1964094 -0.17505214 -0.79007488 119 89 104
-0.19833973 -0.18014365 -0.7926293 134 107 110
-0.19853957 -0.17927773 -0.79323632 119 93 94
-0.1978202 -0.17876312 -0.79184425 130 105 112
-0.1983754 -0.18040092 -0.79264772 137 109 111
-0.19800234 -0.18025301 -0.79204094 139 111 116
-0.19766524 -0.18087019 -0.79149514 143 113 122
-0.19766745 -0.17901705 -0.79152805 134 109 117
-0.19777942 -0.17965785 -0.79169595 137 110 117
-0.19705653 -0.18086366 -0.79053819 147 117 129
-0.19676515 -0.18161604 -0.7900781 152 123 133
-0.19636317 -0.17928031 -0.78949928 147 116 136
-0.19641213 -0.18104675 -0.78954452 152 125 135
-0.19647181 -0.17853285 -0.78967851 144 112 134
-0.19864134 -0.18176056 -0.79307264 141 110 111
-0.19868106 -0.18173514 -0.79312783 141 110 111
-0.19866174 -0.18255988 -0.793356 133 104 105
-0.19813307 -0.18251106 -0.79249996 137 107 112
-0.19781286 -0.185176 -0.79274803 107 81 89
-0.19745298 -0.18541804 -0.79207563 90 64 73
-0.19785132 -0.18499954 -0.792786 111 85 93
-0.19705775 -0.18533756 -0.79125822 84 57 66
-0.19706751 -0.18240774 -0.7906186 135 103 115
-0.19699684 -0.18502207 -0.7910639 89 62 71
-0.19708788 -0.18214796 -0.79061717 140 108 120
-0.19623597 -0.18480435 -0.78953284 89 63 70
-0.19786838 -0.18713871 -0.79295516 105 78 88
-0.19781198 -0.18739527 -0.7928431 103 76 87
-0.19760598 -0.18712044 -0.7924251 95 68 79
-0.19769616 -0.18822074 -0.79256189 100 72 85
-0.19746454 -0.18915427 -0.79190278 92 66 79
-0.19777076 -0.1891159 -0.79266864 104 76 89
-0.19712967 -0.18910936 -0.79115731 82 56 68
-0.19680846 -0.18743221 -0.79070443 73 46 56
-0.19724213 -0.18672475 -0.79157829 82 56 66
-0.19632839 -0.18861437 -0.78968215 66 37 48
-0.19684446 -0.18645836 -0.79082996 76 49 58
-0.19622821 -0.18771367 -0.78952223 68 40 49
-0.19775499 -0.19023474 -0.79248393 100 73 80
-0.19751039 -0.19014412 -0.7918883 91 65 73
-0.19725524 -0.19291434 -0.79071826 122 104 91
-0.19645163 -0.19104248 -0.78976625 99 74 78
-0.19635189 -0.19308083 -0.78946143 138 117 111
-0.19633529 -0.19045004 -0.78958285 85 58 65
-0.19725123 -0.1935907 -0.79062921 125 108 91
-0.19721916 -0.19337499 -0.79058713 127 110 94
-0.19666819 -0.1945678 -0.78983611 126 107 96
-0.1983927 -0.19909444 -0.79281324 125 100 88
-0.1981564 -0.19888684 -0.7923466 122 97 87
-0.19787964 -0.20114426 -0.79141557 159 141 131
-0.19808355 -0.20039737 -0.79198354 144 123 114
-0.19783686 -0.20040125 -0.79143894 147 127 118
-0.1985192 -0.20054096 -0.79292142 140 119 109
-0.19725917 -0.19965819 -0.79028851 143 122 114
-0.19675756 -0.19971362 -0.78957123 142 123 114
-0.19695535 -0.19834842 -0.79006344 120 98 90
-0.19840604 -0.20195732 -0.79267693 146 125 118
-0.19833325 -0.20328927 -0.79269463 137 113 112
-0.19811399 -0.20130986 -0.79194635 155 137 127
-0.19781543 -0.2012302 -0.79127735 160 142 132
-0.1984041 -0.20263168 -0.79276294 141 118 114
-0.19762902 -0.20253022 -0.79106027 151 130 125
-0.19761226 -0.20346145 -0.79123223 135 114 110
-0.19728126 -0.20300628 -0.79049051 138 119 112
-0.19768944 -0.20425551 -0.79155636 123 100 98
-0.19702235 -0.20218666 -0.79006469 150 132 124
-0.19704296 -0.20366111 -0.79040688 125 106 100
-0.19642028 -0.20270129 -0.78954542 136 120 111
-0.19820291 -0.2053666 -0.7925095 122 96 101
-0.19844866 -0.20628333 -0.79273504 143 119 128
-0.1984451 -0.20661703 -0.79272431 149 126 135
-0.2034529 -0.17701405 -0.80334777 128 105 112
-0.20450057 -0.17751825 -0.80478978 134 102 107
-0.20424321 -0.17723492 -0.80451924 134 105 110
-0.20286544 -0.17726426 -0.80225962 120 99 109
-0.20342405 -0.17690004 -0.80336064 129 106 114
-0.20404024 -0.17993154 -0.80391788 139 109 116
-0.20369382 -0.18112393 -0.80333674 142 114 122
-0.20485573 -0.18136622 -0.80482578 155 130 132
-0.20429918 -0.18039849 -0.80420494 144 116 121
-0.20289065 -0.18132153 -0.80226779 135 106 119
-0.20405905 -0.17969501 -0.80396807 138 107 114
-0.20398007 -0.18029371 -0.80380011 140 111 118
-0.20321001 -0.17914432 -0.80273443 127 98 108
-0.20250322 -0.18022072 -0.80170518 125 97 111
-0.20305799 -0.17879072 -0.80244672 123 96 107
-0.20231371 -0.17854881 -0.80120689 114 93 105
-0.20231266 -0.18061246 -0.80143929 125 97 112
-0.20323007 -0.17890611 -0.80274004 126 97 107
-0.20421351 -0.17784646 -0.80422181 130 99 104
-0.20416827 -0.18351693 -0.80495536 136 94 104
-0.20396042 -0.18371853 -0.80449116 133 91 100
-0.20301045 -0.18497424 -0.80300373 116 70 76
-0.20425083 -0.18328895 -0.80485916 139 99 108
-0.2032873 -0.18497682 -0.80413628 118 65 78
-0.2030815 -0.18510695 -0.80354488 115 64 75
-0.20230088 -0.18518306 -0.80120736 109 68 69
-0.20273849 -0.18390958 -0.80187035 121 85 89
-0.2033747 -0.18214995 -0.80282754 138 109 117
-0.20307413 -0.18206574 -0.80244166 136 107 116
-0.20426293 -0.18222071 -0.80398089 147 119 122
-0.20334923 -0.18393356 -0.80266511 127 92 93
-0.2034149 -0.18813419 -0.80434722 124 84 95
-0.20354089 -0.18851577 -0.80454183 127 91 99
-0.20369682 -0.18913391 -0.80471444 131 100 106
-0.20351937 -0.1884058 -0.80452961 127 89 98
-0.20306462 -0.1884703 -0.80315268 122 85 94
-0.2036768 -0.18927032 -0.80459136 132 102 107
-0.20248735 -0.18728322 -0.80149418 113 76 79
-0.20259559 -0.18609625 -0.80225313 110 64 70
-0.20257944 -0.18915306 -0.80136812 120 90 95
-0.20256798 -0.18841912 -0.8015182 117 84 89
-0.20252323 -0.1874367 -0.80159926 114 76 81
-0.20264153 -0.19231333 -0.80312043 121 93 98
-0.20251279 -0.19333935 -0.80306178 126 99 98
-0.20304665 -0.1915672 -0.80380577 127 99 102
-0.20350266 -0.19134824 -0.80470252 139 114 109
-0.20303749 -0.19295646 -0.80406719 139 114 105
-0.20330775 -0.19310009 -0.80465388 148 126 110
-0.2020456 -0.19188064 -0.80143493 108 77 90
-0.20162363 -0.19325055 -0.80117822 99 66 84
-0.20215714 -0.1912972 -0.80134231 111 80 91
-0.20337626 -0.18977639 -0.80385023 128 100 105
-0.20252202 -0.1908388 -0.80209064 116 86 96
-0.20292519 -0.19012536 -0.80276746 122 94 100
-0.2031796 -0.19522521 -0.80457324 143 115 106
-0.20273374 -0.19598085 -0.80258036 138 127 111
-0.20273481 -0.19678958 -0.80311221 133 109 104
-0.20304765 -0.1961989 -0.80447125 137 102 102
-0.20311935 -0.19567882 -0.80453253 140 109 104
-0.20246907 -0.19666497 -0.80169052 132 125 110
-0.20263095 -0.19596115 -0.80229813 136 125 110
-0.20318516 -0.19388114 -0.80425018 148 129 111
-0.20222811 -0.19406353 -0.80220455 119 95 96
-0.20252039 -0.19408311 -0.8028 128 106 101
-0.20248356 -0.19461288 -0.80251813 128 109 103
-0.20280597 -0.19867815 -0.80486286 137 98 110
-0.20233573 -0.19897842 -0.80267388 132 105 113
-0.20286764 -0.19767062 -0.80451083 130 86 98
-0.20297413 -0.19742399 -0.80489165 130 82 95
-0.20221983 -0.19861716 -0.8017168 131 116 115
-0.20214641 -0.19896112 -0.80160397 132 117 118
-0.20044062 -0.17685665 -0.79674292 129 100 105
-0.20046625 -0.17676079 -0.79681116 129 100 106
-0.20050254 -0.18084162 -0.79581892 152 123 132
-0.20102949 -0.18067271 -0.79657578 157 128 141
-0.20111361 -0.18127151 -0.79651117 162 134 147
-0.20022984 -0.17994641 -0.7957136 144 112 120
-0.20106156 -0.17853767 -0.79722738 142 109 121
-0.19979361 -0.17980823 -0.79513705 137 105 110
-0.19901206 -0.18103467 -0.79371834 138 108 108
-0.20028594 -0.17887954 -0.79605621 136 102 110
-0.19879416 -0.17924751 -0.79366952 120 93 94
-0.20135427 -0.18191516 -0.79718417 156 131 147
-0.20114526 -0.18212901 -0.79660952 160 132 146
-0.19963613 -0.18318823 -0.79493707 136 104 109
-0.20030026 -0.18251058 -0.79560137 148 119 128
-0.19975229 -0.18203422 -0.79470724 147 117 122
-0.20073327 -0.18514995 -0.79706401 130 97 110
-0.20071736 -0.1843702 -0.79678214 137 105 117
-0.19958517 -0.18478785 -0.79532087 125 94 103
-0.19868846 -0.18401229 -0.79380798 124 96 100
-0.20000577 -0.18462531 -0.79588079 128 96 106
-0.19883199 -0.18480945 -0.79424155 119 91 99
-0.19930547 -0.18272363 -0.7943306 136 106 108
-0.19896382 -0.18230917 -0.7937203 137 107 108
-0.20005137 -0.18551204 -0.79619879 123 91 103
-0.19921328 -0.18855059 -0.79497707 119 88 102
-0.20033133 -0.18686171 -0.79658419 125 91 106
-0.19952287 -0.18809947 -0.7954213 121 89 103
-0.20064023 -0.18684824 -0.79700679 126 92 106
-0.20024543 -0.18891039 -0.79637009 123 89 104
-0.19948158 -0.18783097 -0.79537755 121 89 103
-0.19979827 -0.18874176 -0.79576719 121 88 104
-0.19888113 -0.18685645 -0.79452896 117 88 99
-0.19888945 -0.18705262 -0.79454195 117 88 99
-0.19844727 -0.18737482 -0.79390633 114 86 97
-0.1984643 -0.18877847 -0.79393816 116 87 100
-0.19815789 -0.18859138 -0.79349566 114 86 98
-0.19896446 -0.18642563 -0.79464686 117 88 99
-0.19815485 -0.18903993 -0.79349357 115 86 99
-0.19946706 -0.19207312 -0.79624468 125 94 93
-0.19963364 -0.19196995 -0.79684937 130 98 99
-0.20013678 -0.19103648 -0.79713839 129 96 103
-0.19972537 -0.19160034 -0.79640901 125 93 95
-0.19856398 -0.1907966 -0.7939384 113 84 87
-0.19863747 -0.18981518 -0.79411846 116 86 97
-0.19989336 -0.19086342 -0.79574907 117 85 89
-0.19839481 -0.19082236 -0.79370522 112 84 87
-0.19841664 -0.18948598 -0.79384351 116 86 100
-0.1991612 -0.19017108 -0.79480505 116 86 95
-0.19984013 -0.1956773 -0.79717451 127 103 90
-0.19950755 -0.19561082 -0.79653794 125 100 86
-0.19900046 -0.1946312 -0.79622012 129 100 90
-0.19895296 -0.19466381 -0.79609793 129 99 89
-0.19940281 -0.20059904 -0.79461253 133 113 102
-0.19968694 -0.19956653 -0.79536074 130 110 97
-0.19942765 -0.1998733 -0.79483438 135 116 103
-0.20083532 -0.20030577 -0.79717553 95 74 69
-0.20050077 -0.1993707 -0.79682398 109 88 78
-0.20031759 -0.19866922 -0.79667819 117 97 83
-0.1996848 -0.19846873 -0.79554605 126 106 89
-0.1992943 -0.19944325 -0.79463756 133 113 98
-0.19912049 -0.19945194 -0.79427809 132 111 97
-0.19955362 -0.19805725 -0.79531884 121 99 82
-0.19951458 -0.20370516 -0.79489452 109 83 87
-0.19950122 -0.20427136 -0.79481524 115 92 93
-0.20052606 -0.2031194 -0.79637808 107 88 83
-0.20038714 -0.20288637 -0.79620779 104 82 80
-0.19913037 -0.20306198 -0.79419714 121 97 97
-0.19956282 -0.20323071 -0.79496688 108 83 86
-0.19944765 -0.20215768 -0.79465342 120 98 95
-0.2008653 -0.20121223 -0.79701865 90 68 68
-0.19921175 -0.2012074 -0.79414296 135 115 106
-0.20059995 -0.20123532 -0.79655969 97 75 74
-0.19901928 -0.20559223 -0.7944473 118 96 98
-0.19885689 -0.20662403 -0.79496163 106 88 94
-0.19926091 -0.20630093 -0.79531235 112 95 96
-0.19858508 -0.20679283 -0.79372305 141 120 129
-0.19861883 -0.20620239 -0.79387355 126 103 111
-0.20672588 -0.17757714 -0.81279671 84 70 73
-0.20662624 -0.17766863 -0.81213826 96 80 83
-0.20672567 -0.17869367 -0.81240183 80 66 70
-0.20670916 -0.17892562 -0.81218952 82 68 71
-0.20679568 -0.18024221 -0.81209755 78 63 68
-0.20667201 -0.17878018 -0.81202942 84 70 73
-0.20662777 -0.1791849 -0.81156397 88 74 77
-0.20632215 -0.1800359 -0.80910665 128 110 113
-0.20641516 -0.17803474 -0.81057221 125 105 108
-0.20646524 -0.17901812 -0.81051797 112 95 98
-0.20641953 -0.17907672 -0.81017607 119 100 103
-0.20683956 -0.18314165 -0.81194657 92 73 80
-0.20699182 -0.184634 -0.81262279 154 129 139
-0.20684941 -0.18357913 -0.8119812 107 86 93
-0.20693423 -0.18414608 -0.812365 133 110 119
-0.2066071 -0.18539564 -0.81079388 141 117 123
-0.20652844 -0.18326999 -0.81023598 94 76 80
-0.20684983 -0.1818435 -0.81182301 76 59 66
-0.20643765 -0.18316489 -0.80964637 101 84 86
-0.20629703 -0.18466759 -0.80919635 107 86 88
-0.20654345 -0.18345274 -0.81037939 93 74 78
-0.20665818 -0.18730223 -0.81033069 165 140 149
-0.20654665 -0.18583968 -0.81038898 143 118 124
-0.20661081 -0.18592198 -0.81065792 149 125 131
-0.20659636 -0.18799314 -0.8097648 165 140 149
-0.20639972 -0.18669321 -0.80935824 136 112 117
0 0 0 1 0 0 0 1 0 0 0 1 0 0 0 0 0 531 1 0 0
