ply
format ascii 1.0
comment PCL generated
element vertex 636
property float x
property float y
property float z
property uchar red
property uchar green
property uchar blue
element camera 1
property float view_px
property float view_py
property float view_pz
property float x_axisx
property float x_axisy
property float x_axisz
property float y_axisx
property float y_axisy
property float y_axisz
property float z_axisx
property float z_axisy
property float z_axisz
property float focal
property float scalex
property float scaley
property float centerx
property float centery
property int viewportx
property int viewporty
property float k1
property float k2
end_header
-0.085978776 -0.34929255 -0.67615098 186 174 199
-0.085267387 -0.34916478 -0.67598075 186 178 201
-0.085354678 -0.34924343 -0.67600656 186 178 200
-0.084861591 -0.34826869 -0.6758126 188 181 205
-0.084152646 -0.35170892 -0.67602915 181 172 206
-0.084704921 -0.35066089 -0.67602426 184 176 202
-0.083369918 -0.35108361 -0.67577791 186 184 207
-0.083849691 -0.35279599 -0.67608923 179 167 209
-0.083104864 -0.35353205 -0.6760034 178 168 212
-0.11988827 -0.31417584 -0.6893726 105 59 104
-0.1205484 -0.31412777 -0.68977273 99 57 98
-0.11937728 -0.31445038 -0.6890111 107 58 105
-0.11682788 -0.31285965 -0.68811953 137 112 122
-0.1176421 -0.31338674 -0.68839276 127 93 117
-0.11756183 -0.31392309 -0.68821365 128 93 116
-0.11872917 -0.31345189 -0.68889874 119 77 118
-0.11858124 -0.31375891 -0.68876344 117 74 113
-0.11981771 -0.31595027 -0.68902004 101 53 96
-0.11947054 -0.31751886 -0.68854457 97 44 92
-0.12076363 -0.31644827 -0.68950069 95 54 88
-0.12038474 -0.31518939 -0.68948519 99 55 94
-0.12005106 -0.31514019 -0.68929625 101 56 98
-0.11886093 -0.31652248 -0.68837178 108 58 105
-0.11827207 -0.31724557 -0.68794942 114 69 106
-0.11870372 -0.31451976 -0.68863946 114 67 109
-0.11818562 -0.31634441 -0.68806225 117 73 108
-0.11962732 -0.31852558 -0.68848681 93 40 87
-0.10340281 -0.31399238 -0.68316549 172 162 147
-0.103357 -0.31389895 -0.68318629 171 161 146
-0.10757337 -0.31714797 -0.68336636 189 167 164
-0.10884669 -0.31685054 -0.68385398 188 170 170
-0.1080357 -0.31752747 -0.68342924 191 171 169
-0.10827168 -0.31787723 -0.68342477 194 173 173
-0.10494134 -0.31601465 -0.68300664 183 168 158
-0.10398003 -0.31543845 -0.68291521 177 166 155
-0.10497598 -0.31703398 -0.68276578 182 166 165
-0.10580726 -0.31804612 -0.68271923 186 167 171
-0.10371163 -0.31627354 -0.68264616 175 163 161
-0.10662296 -0.31663886 -0.68325102 186 166 160
-0.10549856 -0.3155317 -0.68325013 181 165 153
-0.10552473 -0.31593108 -0.68316269 183 167 156
-0.10635583 -0.31697443 -0.68311054 188 169 163
-0.10629408 -0.31504482 -0.68354827 177 159 149
-0.10143933 -0.31818148 -0.68171084 169 150 165
-0.10263328 -0.31803554 -0.68199247 170 154 171
-0.10305234 -0.31533334 -0.68274081 172 161 155
-0.10298972 -0.31631649 -0.68248856 171 158 162
-0.10264456 -0.3149803 -0.68274981 170 158 153
-0.10243227 -0.31460285 -0.68280184 170 157 150
-0.10881104 -0.31894189 -0.68342829 195 172 178
-0.11030536 -0.31853655 -0.68396103 198 183 190
-0.10953311 -0.31913468 -0.68364525 195 173 183
-0.1104385 -0.32101306 -0.68374711 189 157 181
-0.10752868 -0.31987023 -0.68285096 196 177 179
-0.10999334 -0.32122895 -0.68356597 188 157 180
-0.10826121 -0.32093355 -0.68296677 194 174 183
-0.10921982 -0.32168156 -0.68321264 191 167 185
-0.1089221 -0.3221314 -0.68303627 192 172 188
-0.10922949 -0.32164207 -0.68322206 191 167 185
-0.1036748 -0.32099205 -0.68162215 176 155 188
-0.10378066 -0.32199529 -0.68145746 178 154 192
-0.10690745 -0.32209006 -0.68234515 195 183 192
-0.10430507 -0.32091561 -0.68181974 179 161 187
-0.10522462 -0.32129633 -0.68201208 185 169 189
-0.10547068 -0.32018226 -0.68229401 184 172 184
-0.10685937 -0.32009402 -0.68264252 193 177 182
-0.10450805 -0.31919718 -0.6822058 178 165 180
-0.10526872 -0.31996244 -0.68227738 183 170 183
-0.10611572 -0.31958863 -0.68253696 188 172 180
-0.099972211 -0.32112923 -0.68073201 188 166 179
-0.10110354 -0.32217211 -0.68076336 190 167 189
-0.10015404 -0.32216707 -0.68053365 195 174 188
-0.10055475 -0.32215548 -0.68063378 193 171 188
-0.10087154 -0.31869891 -0.68148267 170 148 164
-0.10306595 -0.31904578 -0.68186325 172 155 177
-0.10279708 -0.32091534 -0.68144423 175 151 184
-0.10314012 -0.31948829 -0.6817922 173 154 179
-0.10293896 -0.32054639 -0.68154508 174 152 183
-0.098816089 -0.32153279 -0.68036246 197 179 185
-0.11142384 -0.32522279 -0.68364257 179 163 184
-0.10815264 -0.32336688 -0.68262279 194 183 191
-0.10844148 -0.32368958 -0.68269652 192 182 191
-0.10767001 -0.32424778 -0.68238145 195 182 193
-0.10993841 -0.32561311 -0.68305767 185 174 188
-0.10827228 -0.32364866 -0.68264103 193 182 191
-0.11033984 -0.3233957 -0.68342268 186 164 186
-0.11045287 -0.32443067 -0.68335491 184 169 186
-0.11067844 -0.32441106 -0.68344063 183 166 186
-0.11062143 -0.32376921 -0.68348753 185 163 185
-0.11000415 -0.32242483 -0.68340105 189 162 186
-0.10967338 -0.32443795 -0.68306494 187 177 188
-0.105757 -0.32551107 -0.68165708 191 173 192
-0.10556793 -0.3248415 -0.68168205 188 169 193
-0.10385466 -0.32414803 -0.6811921 185 163 190
-0.1043294 -0.32514539 -0.68122047 188 170 189
-0.10573868 -0.32449815 -0.68178594 187 167 194
-0.10371208 -0.32368562 -0.68120527 183 160 191
-0.1069598 -0.32315946 -0.68225169 194 181 193
-0.10440627 -0.32296488 -0.68152785 182 158 194
-0.10650142 -0.32245311 -0.68217766 193 179 193
-0.10596009 -0.32312554 -0.68196481 189 172 193
-0.10530081 -0.32228577 -0.68184364 187 168 193
-0.10054089 -0.32381734 -0.6803633 195 177 189
-0.10116524 -0.32470173 -0.68038273 193 176 189
-0.1020338 -0.32556522 -0.68047899 192 176 188
-0.10293146 -0.32262576 -0.68113786 182 158 192
-0.10180757 -0.32404223 -0.68067569 193 174 187
-0.10040235 -0.32229748 -0.68056667 194 173 189
-0.10175643 -0.32343194 -0.68074465 191 171 188
-0.10256661 -0.32281154 -0.68102437 185 161 191
-0.10116987 -0.32335672 -0.68061203 194 174 187
-0.11235619 -0.32719907 -0.68395638 162 140 170
-0.11174711 -0.32708311 -0.68366271 169 150 178
-0.11228503 -0.32998109 -0.68381387 149 102 167
-0.1116442 -0.32722801 -0.68360722 170 150 180
-0.11096917 -0.32988188 -0.68323809 162 129 182
-0.10822466 -0.32922861 -0.6822319 191 174 193
-0.10997642 -0.32924208 -0.68290192 172 144 186
-0.10923883 -0.32925755 -0.68261832 180 157 189
-0.10893983 -0.32787508 -0.68259901 181 158 189
-0.10949767 -0.32918859 -0.68272227 177 152 188
-0.10873018 -0.32704177 -0.68256086 185 165 190
-0.1109985 -0.32619664 -0.68337941 180 170 186
-0.110939 -0.32736301 -0.68331903 174 156 185
-0.10811938 -0.32644343 -0.68236852 190 174 193
-0.10814642 -0.32679731 -0.68236595 188 169 192
-0.11012294 -0.32711166 -0.68304342 179 161 187
-0.10608298 -0.3289502 -0.68148392 198 186 194
-0.1054121 -0.32932365 -0.68120819 198 185 194
-0.10489348 -0.32955062 -0.68100059 198 184 194
-0.10406854 -0.32871908 -0.68077755 195 181 191
-0.10466588 -0.3300173 -0.68087655 198 184 195
-0.10403695 -0.32856157 -0.68078029 195 180 191
-0.105379 -0.32654929 -0.68141443 194 178 190
-0.10369914 -0.32618189 -0.68086857 192 176 185
-0.10675693 -0.32627776 -0.68190157 194 178 193
-0.10709917 -0.32911021 -0.6818229 200 187 196
-0.10682037 -0.32715547 -0.68186271 196 181 194
-0.10661837 -0.32701713 -0.68180358 195 180 193
-0.10336352 -0.32812428 -0.68058276 193 178 189
-0.10327554 -0.32778332 -0.68058527 193 178 188
-0.1023133 -0.32868007 -0.68020624 192 179 191
-0.10206534 -0.32871193 -0.68012911 191 178 192
-0.10224167 -0.32705346 -0.68034154 190 176 190
-0.10223201 -0.32666814 -0.68037575 190 176 190
-0.11199266 -0.33217591 -0.68373042 141 103 158
-0.11169254 -0.33129016 -0.68356574 148 112 168
-0.11149021 -0.33194399 -0.68346888 146 107 166
-0.1116121 -0.33350053 -0.68355089 135 93 154
-0.10784419 -0.3318896 -0.68199492 190 177 195
-0.10784861 -0.33130825 -0.68201262 192 178 194
-0.10969397 -0.33271942 -0.68275291 161 131 173
-0.10827687 -0.33273688 -0.68215454 182 165 190
-0.10927831 -0.33222353 -0.68259096 168 142 177
-0.10857267 -0.33168942 -0.68230772 180 160 185
-0.10863739 -0.33103615 -0.68234277 182 161 186
-0.10939557 -0.33028698 -0.68262434 178 155 188
-0.10977676 -0.33064801 -0.68277454 172 145 183
-0.11066198 -0.33236399 -0.68313384 151 114 168
-0.11084384 -0.33044404 -0.68318087 161 129 180
-0.1035925 -0.33094016 -0.68044657 198 184 197
-0.10387792 -0.33362228 -0.68043506 202 191 204
-0.10368147 -0.33028281 -0.68050945 196 182 195
-0.1051291 -0.3336941 -0.68090534 198 188 203
-0.10427268 -0.33256423 -0.68063158 199 187 201
-0.10454772 -0.3337124 -0.68068451 200 189 204
-0.10641651 -0.33218661 -0.68144578 194 184 199
-0.1061806 -0.33272803 -0.681346 192 183 200
-0.10582103 -0.3311491 -0.68125904 196 185 198
-0.10435625 -0.33042163 -0.68074995 197 183 196
-0.105367 -0.33063966 -0.68110895 197 185 197
-0.10332689 -0.33188343 -0.68031257 200 184 198
-0.10304163 -0.33248681 -0.68019187 200 183 199
-0.10259125 -0.33095527 -0.68011916 195 182 195
-0.11202814 -0.33438161 -0.68379962 131 90 144
-0.11197811 -0.33409426 -0.68375516 130 89 146
-0.11153995 -0.3376897 -0.6837526 145 98 138
-0.10798021 -0.33629078 -0.68208873 183 160 196
-0.10850631 -0.33699983 -0.6823498 177 148 188
-0.10882989 -0.3365466 -0.68248075 174 145 181
-0.10964477 -0.33628735 -0.68283993 165 134 166
-0.10810991 -0.33569843 -0.68212754 182 162 193
-0.10756563 -0.33588135 -0.68188798 188 170 203
-0.11060539 -0.33648571 -0.68326002 152 112 153
-0.10939001 -0.33577037 -0.68270236 168 140 171
-0.10838626 -0.33463827 -0.68220788 179 162 188
-0.10915188 -0.33534712 -0.68257535 170 145 176
-0.10829417 -0.33410674 -0.6821357 178 163 191
-0.11087144 -0.33566573 -0.68332088 146 103 153
-0.104553 -0.33633628 -0.68069774 201 188 210
-0.10393944 -0.33518437 -0.68044978 203 192 208
-0.10356238 -0.33617213 -0.68028301 205 200 210
-0.10563821 -0.33665004 -0.68115109 196 177 209
-0.10372235 -0.33675745 -0.68034524 204 200 212
-0.10453822 -0.33547327 -0.68069887 200 186 208
-0.10612471 -0.33632493 -0.68134701 194 172 208
-0.10647617 -0.33465907 -0.68142456 194 182 204
-0.10600916 -0.33573237 -0.68128359 195 176 207
-0.1067388 -0.33519325 -0.68154174 192 178 205
-0.1067026 -0.33466581 -0.68151045 193 181 204
-0.10308943 -0.33437681 -0.68013501 204 189 204
-0.11148468 -0.34133795 -0.6839748 178 155 182
-0.1074925 -0.33945963 -0.68201876 184 158 201
-0.10945418 -0.34117672 -0.68302423 182 159 192
-0.10962288 -0.34159911 -0.68312752 180 159 190
-0.1079412 -0.34039876 -0.68228227 182 157 196
-0.10811417 -0.34124824 -0.68241382 179 157 191
-0.10865803 -0.33990267 -0.68258065 184 159 199
-0.10953785 -0.33979014 -0.68297583 183 158 196
-0.11066317 -0.33818814 -0.68337333 156 113 154
-0.11006784 -0.3389582 -0.68315774 170 135 175
-0.10966872 -0.33979318 -0.68303508 182 155 193
-0.11001769 -0.34045544 -0.68323821 184 161 196
-0.10893746 -0.33846062 -0.68261325 177 145 189
-0.10409865 -0.34039906 -0.68063408 193 180 205
-0.10424896 -0.34108251 -0.68073535 189 172 202
-0.10507503 -0.33993515 -0.6810261 192 181 202
-0.10559806 -0.34021977 -0.68126506 189 176 199
-0.10519011 -0.33990431 -0.68107355 192 181 202
-0.10730145 -0.34179097 -0.68207818 177 155 188
-0.10685394 -0.33955148 -0.68175334 186 164 201
-0.10698409 -0.33831671 -0.68173218 189 164 208
-0.10696825 -0.34014213 -0.68183768 184 162 197
-0.10454182 -0.33880168 -0.68073589 198 193 208
-0.1060204 -0.33892345 -0.6813646 191 175 205
-0.10698722 -0.3388758 -0.68176782 187 163 205
-0.10297191 -0.3412649 -0.68023098 197 182 209
-0.10276232 -0.34027913 -0.68010062 203 193 212
-0.10917299 -0.34473425 -0.68323851 184 168 189
-0.10999211 -0.34500846 -0.68364555 188 174 194
-0.1096084 -0.34554887 -0.68352574 189 175 194
-0.10895901 -0.34530807 -0.68320054 185 170 190
-0.11031616 -0.34382001 -0.68366927 185 169 192
-0.11079469 -0.34210789 -0.68370938 182 162 189
-0.10876185 -0.34385833 -0.68295735 180 162 186
-0.10995632 -0.34299493 -0.68341631 181 162 188
-0.11000143 -0.34302855 -0.68344051 181 163 188
-0.11003758 -0.34243378 -0.68339562 181 161 188
-0.10981191 -0.34272787 -0.68332249 181 162 188
-0.10529684 -0.34480077 -0.68146449 181 163 189
-0.10371348 -0.34440777 -0.68068188 182 161 192
-0.10493673 -0.34379417 -0.68124241 184 165 193
-0.10483395 -0.34550941 -0.68127537 179 160 187
-0.10416286 -0.34358451 -0.68085903 184 164 195
-0.10542858 -0.34453583 -0.68151534 182 163 190
-0.10561457 -0.34328023 -0.68151075 183 164 193
-0.10730762 -0.34288588 -0.68219346 178 157 187
-0.10606024 -0.34326366 -0.68169945 182 162 191
-0.10414944 -0.34222662 -0.680776 187 166 200
-0.10574006 -0.34210795 -0.68144339 182 161 194
-0.10736834 -0.34297681 -0.68222874 178 157 186
-0.10295138 -0.34337914 -0.68033803 187 167 201
-0.10226762 -0.34549296 -0.68019861 184 166 199
-0.10291296 -0.34232891 -0.68026739 193 174 206
-0.10219295 -0.34403744 -0.68009555 191 174 205
-0.10855558 -0.34705445 -0.68319142 176 162 179
-0.10935237 -0.34850615 -0.68370444 171 159 172
-0.10837663 -0.34607103 -0.6830104 181 167 186
-0.10956869 -0.34643009 -0.68359649 185 172 189
-0.10767178 -0.34868598 -0.68293375 174 160 174
-0.10895905 -0.34880912 -0.68355066 169 157 170
-0.10825325 -0.34712532 -0.68305892 174 160 177
-0.10600408 -0.34880406 -0.68218148 174 158 176
-0.10505393 -0.34885061 -0.68178904 173 157 177
-0.10490376 -0.34870803 -0.68170363 173 157 178
-0.10510769 -0.34932515 -0.68188608 172 156 176
-0.10606825 -0.34942001 -0.68230492 173 158 174
-0.1044815 -0.34923887 -0.68160915 171 155 177
-0.10725559 -0.34941068 -0.68280488 174 159 173
-0.10675026 -0.34796023 -0.68242341 176 160 178
-0.10736099 -0.34879568 -0.68279731 175 160 175
-0.10668086 -0.34611595 -0.68221474 179 162 183
-0.10696018 -0.3460359 -0.68234187 179 162 183
-0.1054368 -0.34723356 -0.68172085 177 159 181
-0.10209876 -0.34888861 -0.68062341 173 159 182
-0.10217507 -0.34882694 -0.68064201 173 158 182
-0.10249548 -0.34805188 -0.68063915 175 158 183
-0.10178626 -0.34879658 -0.68049324 174 160 183
-0.10176895 -0.3464058 -0.68013287 183 166 197
-0.10225672 -0.3459157 -0.68023515 183 165 197
-0.10866844 -0.35174233 -0.68379325 166 159 175
-0.10824797 -0.3506757 -0.68344396 169 159 173
-0.10830329 -0.35231882 -0.68370348 167 160 178
-0.10784455 -0.3522718 -0.68349463 173 165 182
-0.10850704 -0.35341385 -0.68395501 165 160 180
-0.10390229 -0.35045516 -0.68154472 170 154 175
-0.10707925 -0.35323387 -0.68331534 180 174 191
-0.10567175 -0.35336185 -0.68271387 174 160 174
-0.10390751 -0.35224 -0.68178731 168 147 162
-0.10476134 -0.35333329 -0.68230981 170 151 164
-0.10463499 -0.3529475 -0.68220234 170 151 165
-0.10618703 -0.35111326 -0.68261552 175 164 181
-0.1058889 -0.35089502 -0.68245661 175 163 181
-0.10675587 -0.35114732 -0.68286002 176 165 181
-0.10678909 -0.351796 -0.68297362 177 168 184
-0.10666306 -0.35051623 -0.68272406 175 162 178
-0.10732102 -0.35200241 -0.68322909 178 170 185
-0.10012636 -0.35101536 -0.68017834 169 157 176
-0.10087617 -0.35096973 -0.68045038 168 155 174
-0.10093897 -0.35036647 -0.68039966 170 158 178
-0.09991879 -0.35177591 -0.68019539 166 154 172
-0.10225145 -0.35031906 -0.68087983 168 154 175
-0.10206941 -0.35085362 -0.68087971 167 152 172
-0.10135363 -0.35278794 -0.680866 163 145 161
-0.1034001 -0.35050127 -0.68133706 168 150 171
-0.10186084 -0.35219139 -0.68097872 164 147 164
-0.1015249 -0.35162416 -0.68077451 164 150 169
-0.10229485 -0.35254821 -0.68119198 164 144 160
-0.10752803 -0.35360065 -0.68355876 179 174 191
-0.10583223 -0.35602549 -0.68307823 151 128 159
-0.10368765 -0.35602105 -0.68217069 152 134 150
-0.10513497 -0.35605022 -0.68278641 151 130 156
-0.10469414 -0.35688072 -0.68270308 147 130 155
-0.10452364 -0.35630849 -0.68255991 150 131 154
-0.10486449 -0.35559094 -0.68261504 154 131 155
-0.10416425 -0.35400072 -0.68212408 163 137 152
-0.10666025 -0.35390148 -0.68321061 174 164 181
-0.10490527 -0.3546648 -0.68252122 159 135 156
-0.1003366 -0.35733962 -0.68098271 146 133 149
-0.099646688 -0.35629457 -0.68059832 150 137 153
-0.1013539 -0.35675502 -0.68133301 148 135 152
-0.099856012 -0.35671511 -0.68072551 149 135 151
-0.10013554 -0.35461751 -0.68062437 156 143 159
-0.10048548 -0.35596183 -0.6809023 151 138 154
-0.1019695 -0.35439518 -0.68130755 158 140 154
-0.1032886 -0.35575813 -0.68197882 153 135 150
-0.10244913 -0.35600421 -0.68168992 150 137 154
-0.10030306 -0.35408261 -0.6806345 157 144 160
-0.10063414 -0.35353291 -0.68069226 161 144 159
-0.1035045 -0.35643089 -0.68214458 150 134 150
-0.098923929 -0.35561931 -0.68028271 150 136 150
-0.09892606 -0.35527277 -0.68024814 151 137 152
-0.099084444 -0.35669723 -0.6804468 147 133 148
-0.098600969 -0.35478234 -0.68008488 153 139 156
-0.1042438 -0.35793471 -0.68263584 142 126 150
-0.10377099 -0.3594695 -0.68260372 136 114 139
-0.10418996 -0.35812095 -0.68263346 141 125 149
-0.10434394 -0.35869259 -0.68276107 139 119 146
-0.10005778 -0.35949779 -0.6811499 133 116 136
-0.10032466 -0.35887861 -0.68116564 138 120 140
-0.10271564 -0.35806227 -0.68201959 142 127 146
-0.10231515 -0.35979074 -0.68204713 135 112 136
-0.10235574 -0.35765773 -0.68183035 144 130 149
-0.10312887 -0.35751885 -0.68212664 144 132 150
-0.10052671 -0.35810634 -0.68114251 143 127 145
-0.099713065 -0.35744697 -0.68074262 146 132 148
-0.099431925 -0.35930404 -0.6809001 133 117 136
-0.098606378 -0.35791412 -0.68043989 141 125 140
-0.098092757 -0.35814774 -0.68030465 139 122 136
-0.10010919 -0.32546741 -0.6799227 190 175 194
-0.098411478 -0.32583797 -0.67941135 192 180 202
-0.10100338 -0.32693842 -0.67998338 189 175 194
-0.10155021 -0.32768834 -0.68007392 190 177 193
-0.10114866 -0.32973054 -0.67973775 188 178 192
-0.10046612 -0.32942083 -0.67955428 185 177 191
-0.10025395 -0.32711935 -0.67974329 189 175 196
-0.10013586 -0.32717282 -0.6796996 188 175 196
-0.096546054 -0.32793763 -0.6787073 187 177 200
-0.096075103 -0.32774764 -0.67861408 187 176 201
-0.095707715 -0.32798335 -0.6784963 185 170 201
-0.09756843 -0.32854173 -0.67888707 185 178 196
-0.097916707 -0.32771921 -0.67906523 189 182 198
-0.098584764 -0.32810408 -0.67918217 186 179 196
-0.098453522 -0.32637089 -0.67934418 190 179 200
-0.097708642 -0.32807663 -0.67897552 188 183 198
-0.098373726 -0.32815927 -0.67912549 187 180 196
-0.095507212 -0.32712737 -0.67856246 190 179 202
-0.094754227 -0.32703727 -0.67844504 188 175 197
-0.10106859 -0.33033866 -0.67966127 187 179 191
-0.10068616 -0.3306815 -0.67952311 186 179 191
-0.10159335 -0.33084562 -0.67980534 191 180 193
-0.10067295 -0.33075458 -0.67951548 186 179 191
-0.10090122 -0.33366618 -0.67940855 198 170 193
-0.10193387 -0.33329004 -0.67979056 198 180 198
-0.10024608 -0.33256063 -0.67925775 192 170 191
-0.099878661 -0.33080807 -0.67925036 183 175 189
-0.10145984 -0.33348346 -0.67961377 198 175 195
-0.097865142 -0.33386761 -0.67854625 186 158 181
-0.097867765 -0.33365571 -0.67855799 186 157 182
-0.097916581 -0.33217019 -0.67864949 185 154 190
-0.098930813 -0.33204973 -0.67890638 187 162 189
-0.099584192 -0.33107096 -0.6791333 184 172 188
-0.10261259 -0.33719769 -0.67993689 205 199 209
-0.10278651 -0.33574116 -0.68001527 204 193 206
-0.10259756 -0.33675101 -0.67993736 205 197 208
-0.10202906 -0.33563173 -0.67975527 203 186 202
-0.10280295 -0.33644083 -0.68001211 205 197 208
-0.10057297 -0.33558226 -0.67924595 202 179 197
-0.10127869 -0.33621272 -0.67948401 203 186 201
-0.10039944 -0.33490872 -0.67920166 199 170 193
-0.099203393 -0.33546355 -0.6788069 202 179 194
-0.097813889 -0.33531821 -0.67849141 193 177 187
-0.098142184 -0.33426869 -0.67859596 189 163 183
-0.097668596 -0.33441761 -0.67848295 188 165 182
-0.1018706 -0.34006321 -0.67976618 206 196 211
-0.10263293 -0.34041899 -0.68006098 203 192 212
-0.1020343 -0.34401166 -0.68003553 193 177 207
-0.10203829 -0.34451702 -0.68006486 190 173 205
-0.10197166 -0.34288684 -0.67995054 200 186 212
-0.1020279 -0.34374928 -0.68001872 195 179 208
-0.10224646 -0.34323871 -0.68007123 195 179 208
-0.10065276 -0.34490868 -0.6795879 198 185 215
-0.10135002 -0.34500709 -0.67984021 194 180 209
-0.10029042 -0.34563696 -0.67950708 193 177 214
-0.10084611 -0.34700504 -0.67989266 184 169 199
-0.10033328 -0.34709433 -0.67972445 186 171 203
-0.10059199 -0.34652355 -0.67973447 187 172 205
-0.10041226 -0.34613153 -0.67961532 190 174 209
-0.099729404 -0.34939212 -0.67982233 176 164 186
-0.096304797 -0.34751812 -0.67845833 194 186 207
-0.096705332 -0.34860903 -0.67870343 183 170 196
-0.098845154 -0.34950522 -0.67953146 175 163 186
-0.098050021 -0.34874007 -0.67918164 183 172 194
-0.096565656 -0.3488082 -0.67867452 181 167 194
-0.099596217 -0.34845829 -0.67964447 181 168 195
-0.098102205 -0.34793583 -0.6791147 190 183 201
-0.099490732 -0.34831035 -0.67959183 182 170 196
-0.097112335 -0.34705466 -0.67869037 199 195 211
-0.09747576 -0.34728363 -0.67883319 196 191 208
-0.098943256 -0.34691107 -0.67923224 192 180 209
-0.094564006 -0.34849754 -0.67806512 186 172 197
-0.092201315 -0.34941033 -0.6774388 179 155 194
-0.094178408 -0.34844103 -0.67795134 187 173 198
-0.093806833 -0.34855929 -0.67785144 186 171 197
-0.09293925 -0.3480908 -0.67757642 192 180 202
-0.093574673 -0.34766677 -0.67773485 196 188 204
-0.09567783 -0.34940758 -0.67842817 175 155 188
-0.094712004 -0.34731191 -0.67798692 198 190 208
-0.088126205 -0.34884018 -0.67658526 188 163 199
-0.089658536 -0.34935507 -0.6769082 182 156 196
-0.089475013 -0.34868014 -0.67683667 188 163 200
-0.091272056 -0.34859866 -0.67717749 188 166 200
-0.091338813 -0.34868264 -0.67719495 187 165 200
-0.087355904 -0.34932134 -0.6764515 185 163 197
-0.099927716 -0.35061961 -0.68005556 171 160 178
-0.096471801 -0.35279393 -0.67910844 163 147 183
-0.096725665 -0.35330069 -0.67926216 161 145 178
-0.098869734 -0.35065037 -0.67967868 171 158 182
-0.096412592 -0.3533825 -0.6791625 161 145 180
-0.09597531 -0.35150674 -0.67877948 167 148 184
-0.096631005 -0.3513822 -0.67899126 168 151 184
-0.095947228 -0.3516255 -0.67878419 166 148 184
-0.096150681 -0.35234216 -0.67894191 164 147 183
-0.096124537 -0.34986189 -0.67863071 172 152 186
-0.092574418 -0.35051379 -0.67766738 174 151 190
-0.091829911 -0.35221994 -0.67766678 184 167 177
-0.095058106 -0.35313171 -0.67869878 164 146 183
-0.094401985 -0.35246333 -0.67842919 167 148 185
-0.09223903 -0.35079369 -0.67760658 177 155 188
-0.091936439 -0.35128286 -0.67758107 181 160 183
-0.094618142 -0.35099578 -0.67831188 170 149 187
-0.093910858 -0.35020277 -0.67801249 173 150 189
-0.092886426 -0.34996945 -0.67769027 175 151 191
-0.093384691 -0.35048491 -0.67789596 173 150 190
-0.093038954 -0.35024059 -0.6777671 174 150 191
-0.087963507 -0.35285154 -0.67689848 182 171 189
-0.088505581 -0.35212973 -0.67695272 183 168 187
-0.089597158 -0.35295749 -0.67727387 185 172 181
-0.089485131 -0.35347658 -0.67729706 185 174 180
-0.08888375 -0.35216534 -0.6770407 183 168 185
-0.089576058 -0.35215062 -0.67719424 184 168 182
-0.091278821 -0.35128218 -0.67744142 182 162 183
-0.091205738 -0.35023841 -0.67729801 180 156 190
-0.0892298 -0.35065734 -0.67696899 183 161 187
-0.090758085 -0.3500995 -0.67719448 180 156 191
-0.088254265 -0.34980574 -0.67667544 182 157 193
-0.089729778 -0.35108194 -0.677118 183 163 185
-0.085024118 -0.35143265 -0.67618287 180 167 203
-0.084237032 -0.35285503 -0.6761815 177 163 208
-0.087614447 -0.34987223 -0.67655283 181 157 196
-0.085356213 -0.35350412 -0.67646283 179 165 203
-0.086671315 -0.35298181 -0.6766634 180 167 196
-0.085689858 -0.35307381 -0.67648602 179 164 202
-0.086599454 -0.35228482 -0.67658502 180 164 198
-0.086651884 -0.35262653 -0.67662668 180 166 197
-0.097270548 -0.35611311 -0.6797601 146 131 151
-0.098518401 -0.35448995 -0.68002456 155 141 159
-0.098531961 -0.35361874 -0.67993575 159 146 167
-0.097284295 -0.35384887 -0.67952174 158 143 171
-0.097291321 -0.3550387 -0.67965198 152 137 161
-0.095906653 -0.35403469 -0.67905813 158 141 176
-0.096039839 -0.35544819 -0.67926377 148 133 156
-0.097634718 -0.35723901 -0.68000954 140 125 138
-0.093946919 -0.35593942 -0.6787101 154 141 143
-0.091840446 -0.35530603 -0.67806649 161 147 153
-0.092291191 -0.35464218 -0.67809838 171 158 158
-0.093333803 -0.35637099 -0.6786043 147 133 141
-0.093435287 -0.35563815 -0.67853427 158 144 147
-0.092466123 -0.35412109 -0.6780771 179 166 162
-0.094538741 -0.35361943 -0.67861027 168 152 177
-0.095610037 -0.3537007 -0.67892444 160 143 180
-0.095289364 -0.35581365 -0.6790728 147 133 148
-0.094820663 -0.35500428 -0.67884761 156 142 158
-0.09461084 -0.35492155 -0.67877847 158 144 158
-0.090532579 -0.35555843 -0.67780542 156 143 158
-0.091789007 -0.35435256 -0.6779269 175 162 161
-0.090799056 -0.35444179 -0.67771727 172 160 166
-0.091071211 -0.35422322 -0.67774922 176 163 166
-0.090453558 -0.35399458 -0.67758071 179 167 171
-0.087422267 -0.35358024 -0.67686331 181 171 190
-0.086892828 -0.35422683 -0.6768443 172 158 184
-0.10908648 -0.31399232 -0.68462366 164 135 141
-0.10864285 -0.3141166 -0.68444377 167 140 142
-0.10714321 -0.31405988 -0.68400103 170 148 142
-0.10678229 -0.31354484 -0.68407166 166 144 140
-0.11739933 -0.31654459 -0.68762892 127 91 114
-0.11704709 -0.31630194 -0.68749225 132 100 117
-0.11712233 -0.3156676 -0.68764186 132 99 117
-0.11684615 -0.31697047 -0.68725264 139 108 126
-0.11578651 -0.31756642 -0.68654847 167 144 158
-0.11559917 -0.31647307 -0.68667346 165 145 149
-0.1166084 -0.31802288 -0.68690342 151 120 144
-0.11338061 -0.3168768 -0.68558908 178 155 168
-0.11229818 -0.31695408 -0.68508047 183 163 174
-0.11185904 -0.31607938 -0.68508679 176 152 164
-0.11247057 -0.31805712 -0.68489963 193 179 188
-0.11458451 -0.31804183 -0.68586111 184 165 178
-0.11220353 -0.31779432 -0.68484026 191 177 186
-0.11518794 -0.3175236 -0.68623519 179 161 170
-0.11311486 -0.31582922 -0.68570369 170 145 155
-0.11520463 -0.31751677 -0.68624377 179 161 170
-0.11510576 -0.31705609 -0.68629748 177 159 165
-0.11234917 -0.31504142 -0.68554103 166 138 148
-0.1145146 -0.31723645 -0.6860078 178 157 168
-0.11121309 -0.31536588 -0.6849764 171 144 155
-0.11102766 -0.31738979 -0.68444121 190 174 182
-0.11053428 -0.31696445 -0.68438071 186 166 174
-0.11011525 -0.31761232 -0.68409204 193 176 181
-0.11041497 -0.31640351 -0.68447292 182 160 167
-0.10792556 -0.31495485 -0.68399757 177 156 149
-0.11064069 -0.31533793 -0.68479609 172 145 154
-0.10852941 -0.31487045 -0.68421489 174 151 148
-0.11759651 -0.31932393 -0.68724257 127 90 117
-0.11691389 -0.3185491 -0.6869747 145 112 139
-0.11754058 -0.31878129 -0.68728608 130 92 123
-0.11550698 -0.31941107 -0.68608832 166 134 164
-0.11628725 -0.32098129 -0.68630445 135 87 133
-0.11587198 -0.32035103 -0.68616152 149 106 148
-0.11548527 -0.32150075 -0.68579233 137 75 147
-0.11537389 -0.32196859 -0.6856674 132 62 146
-0.11157713 -0.32161981 -0.68408298 184 150 183
-0.11274 -0.32079846 -0.68465418 171 130 175
-0.11147179 -0.32131597 -0.68406981 187 156 185
-0.11165033 -0.32115972 -0.68416059 185 153 184
-0.11174928 -0.32032418 -0.68428725 187 160 186
-0.11213981 -0.32195246 -0.68428493 175 132 177
-0.1124496 -0.31873095 -0.68476868 191 173 189
-0.11226602 -0.31917036 -0.68462574 185 162 186
-0.11216581 -0.31910956 -0.68458861 187 164 187
-0.11401136 -0.31862327 -0.68549103 186 166 183
-0.11394998 -0.31990504 -0.68528903 168 130 172
-0.11496638 -0.31930125 -0.68583167 172 140 173
-0.11111043 -0.31963241 -0.68410963 195 176 191
-0.11541252 -0.32469988 -0.68553495 127 78 138
-0.11540117 -0.32393017 -0.68556517 127 70 140
-0.11669508 -0.32508275 -0.68624121 114 75 113
-0.11619616 -0.3243767 -0.68599296 119 70 124
-0.11723106 -0.32474044 -0.68656021 108 69 103
-0.11573072 -0.32229263 -0.68582255 124 52 135
-0.11717389 -0.32391623 -0.68656301 109 61 105
-0.11518393 -0.32440412 -0.68542445 130 76 142
-0.11431661 -0.32394132 -0.68503487 141 91 154
-0.11471926 -0.325964 -0.68512958 135 103 144
-0.11503609 -0.32541317 -0.68530619 131 90 142
-0.11458899 -0.32406983 -0.68515795 138 86 150
-0.11272337 -0.32530433 -0.68422765 163 140 169
-0.11331818 -0.32365227 -0.68462378 156 112 164
-0.11395704 -0.32265747 -0.68497992 147 88 158
-0.11215957 -0.32418132 -0.68409109 172 144 175
-0.11254655 -0.32279992 -0.68437606 167 123 172
-0.11312215 -0.32331583 -0.6845715 159 114 166
-0.1149212 -0.32945696 -0.68505991 123 52 133
-0.11488335 -0.32733646 -0.68514556 129 84 139
-0.11476562 -0.32755071 -0.68508083 130 83 140
-0.11389195 -0.32919005 -0.68459797 134 78 147
-0.11453743 -0.3262676 -0.68502963 137 107 146
-0.11451691 -0.32638329 -0.68501526 137 106 146
-0.1146388 -0.32703838 -0.68504691 132 94 143
-0.1133251 -0.32800552 -0.68438482 145 108 157
-0.11283474 -0.32628164 -0.68422103 160 144 166
-0.11542483 -0.3305029 -0.68532044 115 40 123
-0.11537603 -0.33090511 -0.6853174 115 47 121
-0.11573037 -0.33106667 -0.68554711 112 46 116
-0.11580099 -0.33086544 -0.68557721 112 43 116
-0.11508664 -0.33077407 -0.68514454 117 46 125
-0.11508532 -0.33030003 -0.68511194 118 39 128
-0.11347021 -0.33125767 -0.68439162 130 72 144
-0.11266244 -0.33248487 -0.68405169 132 87 147
-0.11356007 -0.33103007 -0.68442702 130 70 144
-0.1127303 -0.33313173 -0.68410027 128 84 142
-0.11263573 -0.33535275 -0.68417746 131 93 133
-0.11308661 -0.33609629 -0.68445796 131 97 125
-0.11287317 -0.33562106 -0.68431741 130 95 129
-0.11251593 -0.33601406 -0.68415713 134 95 132
-0.11183585 -0.34027582 -0.68408608 167 139 166
-0.11609423 -0.34189504 -0.68660915 164 147 157
-0.11221705 -0.34426945 -0.68465346 192 181 196
-0.11210556 -0.34239849 -0.684403 185 169 189
-0.1126072 -0.34394383 -0.6848315 192 180 193
-0.11361469 -0.34333593 -0.68531501 191 181 187
-0.11277153 -0.34408912 -0.68493527 193 182 193
-0.11505286 -0.3435663 -0.68607247 193 182 181
-0.11416668 -0.34529448 -0.685745 198 185 190
-0.11446143 -0.34290341 -0.68571997 190 181 182
-0.11332214 -0.34398648 -0.68521506 193 182 190
-0.11435747 -0.34340063 -0.68570334 192 182 184
-0.11510362 -0.34222665 -0.68599969 189 179 177
-0.11112488 -0.34561443 -0.68421996 195 184 203
-0.11293219 -0.34746525 -0.68533301 178 165 186
-0.11332463 -0.34806496 -0.68559986 172 158 179
-0.11151128 -0.34660065 -0.68451065 187 176 194
-0.11368299 -0.34943435 -0.68593401 159 143 163
-0.11234653 -0.34927699 -0.6852327 161 147 162
-0.11335797 -0.3480916 -0.68561989 172 158 179
-0.11502074 -0.34663957 -0.68631518 190 175 182
-0.11454163 -0.34692037 -0.68609971 186 172 182
-0.11402553 -0.34802651 -0.68595493 173 158 179
-0.11372524 -0.34593087 -0.68557328 196 183 192
-0.11321922 -0.34718102 -0.68544918 182 168 187
-0.11406834 -0.34659284 -0.68582124 189 175 186
-0.1108427 -0.34927237 -0.68448049 163 151 163
-0.11074678 -0.34886625 -0.68439025 168 156 168
-0.11027303 -0.34839416 -0.68411332 175 164 177
-0.11050548 -0.34699965 -0.68408072 185 174 190
-0.11069559 -0.34610054 -0.68407857 191 180 197
-0.11176511 -0.35068026 -0.68510473 146 133 148
-0.1123469 -0.35134998 -0.68549156 136 122 139
-0.11172692 -0.35149273 -0.68517888 142 129 148
-0.11314636 -0.34992528 -0.68572146 152 137 154
-0.11348068 -0.35051423 -0.68597251 142 126 145
-0.10999688 -0.35204124 -0.68444949 157 149 167
-0.11061389 -0.35063177 -0.68455505 159 148 162
-0.1104831 -0.35079843 -0.68451732 160 149 163
-0.1098193 -0.35013652 -0.6841073 164 154 166
-0.1093559 -0.35145214 -0.68407613 164 156 171
-0.10950909 -0.35155869 -0.68416417 163 155 171
0 0 0 1 0 0 0 1 0 0 0 1 0 0 0 0 0 636 1 0 0
