ply
format ascii 1.0
comment PCL generated
element vertex 196
property float x
property float y
property float z
property uchar red
property uchar green
property uchar blue
element camera 1
property float view_px
property float view_py
property float view_pz
property float x_axisx
property float x_axisy
property float x_axisz
property float y_axisx
property float y_axisy
property float y_axisz
property float z_axisx
property float z_axisy
property float z_axisz
property float focal
property float scalex
property float scaley
property float centerx
property float centery
property int viewportx
property int viewporty
property float k1
property float k2
end_header
-0.074718915 -0.45111001 -0.68077821 125 114 125
-0.075855933 -0.4505043 -0.68083125 126 116 122
-0.075345017 -0.45114329 -0.68085396 125 116 126
-0.071233526 -0.45051327 -0.68027848 128 106 120
-0.070872024 -0.45002529 -0.6801706 128 103 117
-0.072916165 -0.45398852 -0.68078041 117 96 124
-0.072810471 -0.45479992 -0.68082261 118 98 130
-0.072731882 -0.45424482 -0.68077469 119 99 129
-0.072304316 -0.45187426 -0.6805588 124 105 124
-0.073439799 -0.45324191 -0.68079531 112 88 112
-0.072765693 -0.45166302 -0.68060237 119 98 116
-0.074267216 -0.45151225 -0.68076175 121 106 120
-0.073740661 -0.4515284 -0.68070298 121 104 119
-0.070351139 -0.4512817 -0.68023282 141 122 130
-0.069233619 -0.45175019 -0.68012762 152 132 136
-0.071727842 -0.45157626 -0.68047965 131 111 124
-0.071165815 -0.45190412 -0.68043929 137 116 127
-0.069087379 -0.45218506 -0.68016404 156 134 137
-0.071429513 -0.4550651 -0.68070209 134 114 141
-0.071488947 -0.45348305 -0.68059897 134 113 134
-0.069939062 -0.45458078 -0.68054426 153 128 140
-0.072195612 -0.45361057 -0.6806668 125 107 133
-0.071947828 -0.4532977 -0.68062472 128 109 132
-0.066322215 -0.45431671 -0.6802879 146 110 128
-0.065082394 -0.45408908 -0.68023461 128 88 118
-0.068331018 -0.45416871 -0.68032199 170 142 143
-0.06809476 -0.45250174 -0.68008882 160 137 139
-0.067771927 -0.4529002 -0.68013269 158 132 137
-0.068017066 -0.45461321 -0.68037236 168 138 141
-0.072410151 -0.45824271 -0.68132055 125 99 131
-0.072488241 -0.45592254 -0.6809302 123 104 137
-0.074713729 -0.4586505 -0.6815291 120 89 114
-0.073165588 -0.45849061 -0.68140841 123 96 125
-0.074248351 -0.45843914 -0.68146503 121 91 118
-0.073519327 -0.45607361 -0.6810351 119 96 126
-0.073393941 -0.45595059 -0.68100643 120 97 128
-0.068590887 -0.45853832 -0.68094128 153 131 153
-0.070822217 -0.45833343 -0.68117863 139 113 138
-0.07084167 -0.45836729 -0.68118548 139 112 138
-0.069776513 -0.45814142 -0.68102849 147 122 144
-0.069075301 -0.45705265 -0.68079799 158 131 145
-0.071990609 -0.45857176 -0.68134481 129 102 132
-0.070813231 -0.45636767 -0.68087101 143 118 139
-0.071525849 -0.45600137 -0.68086827 133 112 139
-0.070759453 -0.45727962 -0.68102175 144 116 136
-0.072106332 -0.45832175 -0.68131191 127 101 132
-0.070461728 -0.45619068 -0.68081146 147 121 139
-0.065694749 -0.45776126 -0.68081337 143 117 133
-0.064511932 -0.45667306 -0.68065703 131 100 120
-0.066327885 -0.45701742 -0.68069029 132 100 133
-0.066262648 -0.45749217 -0.68076503 138 110 135
-0.066149279 -0.4579235 -0.68083358 144 119 136
-0.067361064 -0.45546553 -0.68048894 155 123 137
-0.066962905 -0.45662475 -0.68064189 143 112 137
-0.065277554 -0.45552319 -0.68047702 121 82 121
-0.067268945 -0.45740056 -0.68074965 143 115 142
-0.067616567 -0.45611125 -0.68057865 156 126 141
-0.066361114 -0.45585626 -0.68053234 137 102 130
-0.06375581 -0.45839843 -0.68089509 158 146 135
-0.076522656 -0.46259144 -0.68234622 153 142 151
-0.072645701 -0.4595052 -0.68154454 130 105 134
-0.072712518 -0.46150142 -0.68180454 142 121 144
-0.07262364 -0.46004379 -0.68161035 133 109 137
-0.07401339 -0.46215075 -0.68202537 150 135 152
-0.072812863 -0.46233374 -0.68192065 147 128 148
-0.074434757 -0.46107295 -0.68192995 145 130 148
-0.075720422 -0.45992601 -0.68180948 129 102 120
-0.074999273 -0.46028608 -0.68182814 135 112 131
-0.075162567 -0.46164337 -0.68207246 150 138 151
-0.0757678 -0.46051598 -0.68191427 136 114 129
-0.07394924 -0.45945963 -0.68162185 128 101 126
-0.069355614 -0.46068212 -0.68133336 159 139 159
-0.070869192 -0.46182996 -0.68164504 153 133 153
-0.068409532 -0.46169159 -0.68142098 180 165 174
-0.07146579 -0.46232814 -0.68177539 152 131 152
-0.069266587 -0.46200696 -0.68154275 174 158 169
-0.069892451 -0.45976105 -0.68125457 146 124 149
-0.07224568 -0.46252111 -0.68188369 146 125 147
-0.070074327 -0.45918095 -0.68120271 142 118 145
-0.071234852 -0.45997247 -0.68144083 138 115 142
-0.07042852 -0.46042284 -0.68140209 147 125 149
-0.072044104 -0.46014088 -0.68155825 134 109 137
-0.066440262 -0.46255195 -0.68156505 160 139 153
-0.068157211 -0.46282119 -0.68160272 190 178 180
-0.064593919 -0.4601483 -0.6811977 151 132 130
-0.064865477 -0.46204746 -0.68149066 135 108 129
-0.065368548 -0.46044207 -0.68124133 163 147 142
-0.068090402 -0.45937073 -0.68104029 157 138 157
-0.066763289 -0.45943168 -0.6810652 161 144 148
-0.067256518 -0.45902774 -0.68099356 155 137 149
-0.067350447 -0.45962015 -0.6810894 161 144 154
-0.065721534 -0.45997429 -0.6811657 169 155 146
-0.06285385 -0.4620699 -0.68151736 119 88 122
-0.060640071 -0.46053132 -0.68130225 118 90 125
-0.064268969 -0.46275407 -0.68160254 117 84 121
-0.060953435 -0.46244195 -0.68162858 130 107 124
-0.061734594 -0.46100944 -0.68135923 117 86 124
-0.063367397 -0.46276847 -0.68162704 122 91 122
-0.063232511 -0.4614186 -0.68139941 117 85 123
-0.063548468 -0.46116003 -0.68135816 124 95 124
-0.064367004 -0.46073207 -0.6812886 141 117 126
-0.062917888 -0.46122384 -0.68137062 115 82 123
-0.063650176 -0.45928499 -0.68106782 147 128 129
-0.06413798 -0.45960712 -0.68111563 150 131 129
-0.060303666 -0.46237323 -0.68163049 135 114 127
-0.060486361 -0.46022391 -0.68125176 117 88 126
-0.076280728 -0.46385741 -0.68256873 159 151 162
-0.076413222 -0.46530831 -0.68289512 155 143 161
-0.076405972 -0.46576625 -0.68299282 154 141 162
-0.076348104 -0.4639208 -0.68258965 158 150 161
-0.076647848 -0.46349064 -0.68252987 155 147 155
-0.077348612 -0.46342179 -0.68261117 143 129 140
-0.076570764 -0.46289301 -0.68240499 156 147 155
-0.07273531 -0.46639493 -0.68271166 170 153 171
-0.074231818 -0.46632192 -0.68286818 162 146 168
-0.072543889 -0.46412575 -0.68222028 155 136 156
-0.072774641 -0.4665789 -0.68275422 171 154 172
-0.074919716 -0.46606866 -0.68289465 157 140 165
-0.073649831 -0.4636535 -0.6822443 152 135 155
-0.07367789 -0.46397567 -0.6823166 152 134 155
-0.074547634 -0.46368185 -0.68234605 155 142 158
-0.075916663 -0.46401346 -0.68256319 160 151 164
-0.075766243 -0.46385536 -0.68251318 159 150 163
-0.069471925 -0.46425274 -0.68199354 188 175 182
-0.068734869 -0.46564016 -0.68228543 186 182 189
-0.068632133 -0.46631491 -0.68244046 185 183 191
-0.069560841 -0.4650802 -0.68219465 185 175 183
-0.070986331 -0.46647868 -0.68259984 179 167 180
-0.069968224 -0.46672466 -0.68260622 181 174 185
-0.071849622 -0.46291387 -0.6819036 153 133 152
-0.06987635 -0.4640573 -0.68197852 184 170 178
-0.071085356 -0.46366039 -0.68199545 167 150 164
-0.071913928 -0.46501181 -0.68234289 167 149 166
-0.07022953 -0.46399519 -0.68199462 179 164 174
-0.072047986 -0.46402031 -0.68214875 159 139 158
-0.067045085 -0.46558124 -0.68225187 163 152 170
-0.067085035 -0.46658489 -0.68245739 169 164 178
-0.067505471 -0.46602324 -0.68235642 170 164 178
-0.06811785 -0.46586433 -0.68232 182 178 187
-0.067934111 -0.46583605 -0.68231368 178 174 184
-0.067914158 -0.46629155 -0.68242192 177 174 185
-0.066995107 -0.46502393 -0.68212289 162 149 167
-0.067916177 -0.46331868 -0.68171567 184 171 177
-0.064074822 -0.46481729 -0.68202323 131 108 135
-0.063713886 -0.4633829 -0.68174011 124 95 125
-0.06201975 -0.46302947 -0.68170935 130 104 124
-0.062127244 -0.46305498 -0.68171191 129 104 124
-0.076504707 -0.46770552 -0.68340921 153 135 160
-0.076684028 -0.4694151 -0.68377501 154 133 155
-0.076178446 -0.47054335 -0.68394834 163 141 163
-0.073181912 -0.46846905 -0.6832338 168 147 166
-0.075783327 -0.4705947 -0.68393171 163 140 162
-0.072805569 -0.46950695 -0.68349278 161 135 157
-0.075156644 -0.47040305 -0.68384933 163 139 160
-0.074446104 -0.46967465 -0.68361914 165 142 163
-0.075925887 -0.46887296 -0.68358111 161 142 165
-0.074359745 -0.46768671 -0.68316132 166 149 170
-0.074958533 -0.46691605 -0.68307388 162 146 170
-0.073304407 -0.46770483 -0.6830439 171 154 171
-0.073288769 -0.46715847 -0.68293148 170 154 172
-0.075563319 -0.46811262 -0.68338561 161 144 167
-0.068734132 -0.46924713 -0.68316203 181 168 188
-0.069535449 -0.46908873 -0.68318552 175 160 179
-0.071049295 -0.46999928 -0.68352216 163 138 161
-0.069352247 -0.47065356 -0.68354958 176 153 180
-0.070661366 -0.47058687 -0.68363428 166 139 165
-0.06881021 -0.46822888 -0.68292183 181 172 188
-0.071414456 -0.46935993 -0.68338311 163 139 160
-0.070132554 -0.46787405 -0.68291998 174 163 177
-0.071807332 -0.468043 -0.68305087 169 150 168
-0.072016515 -0.46767429 -0.68296289 170 152 169
-0.069942906 -0.4674041 -0.6827845 177 169 181
-0.070287965 -0.46707177 -0.68271321 178 169 182
-0.065787926 -0.46843854 -0.68284744 156 139 165
-0.065809473 -0.46938244 -0.68305027 157 139 167
-0.066110454 -0.47059289 -0.68332678 162 141 172
-0.066575773 -0.47068778 -0.68337488 166 146 176
-0.065421999 -0.46926907 -0.68300289 153 135 163
-0.065619625 -0.47068942 -0.68331796 157 136 168
-0.067135312 -0.46784163 -0.68275464 171 161 179
-0.066740155 -0.4683497 -0.68286484 166 152 174
-0.068025552 -0.46794325 -0.68280745 181 174 189
-0.065482393 -0.46717313 -0.68254054 153 140 161
-0.065983586 -0.46704167 -0.68252468 158 148 167
-0.069777168 -0.47132596 -0.68376082 170 150 170
-0.068939298 -0.47194508 -0.68386185 173 161 175
-0.06918928 -0.47210053 -0.68392265 170 159 171
-0.067599244 -0.47158515 -0.68369484 172 155 180
-0.068326421 -0.47130078 -0.6836437 180 165 186
-0.067536943 -0.47108972 -0.68355548 174 153 183
-0.065757111 -0.47094318 -0.68340349 157 136 168
-0.070691533 -0.44928771 -0.68006223 125 95 110
-0.069563329 -0.44988379 -0.67995846 138 113 122
-0.06953869 -0.44939253 -0.67990941 135 109 122
-0.070136189 -0.47421113 -0.6845274 157 135 157
-0.070221059 -0.47278661 -0.68416637 161 137 161
0 0 0 1 0 0 0 1 0 0 0 1 0 0 0 0 0 196 1 0 0
