ply
format ascii 1.0
comment PCL generated
element vertex 315
property float x
property float y
property float z
property uchar red
property uchar green
property uchar blue
element camera 1
property float view_px
property float view_py
property float view_pz
property float x_axisx
property float x_axisy
property float x_axisz
property float y_axisx
property float y_axisy
property float y_axisz
property float z_axisx
property float z_axisy
property float z_axisz
property float focal
property float scalex
property float scaley
property float centerx
property float centery
property int viewportx
property int viewporty
property float k1
property float k2
end_header
-0.23262754 -0.13081375 -0.89816707 105 80 66
-0.23656343 -0.11560272 -0.91089922 0 0 0
-0.24111752 -0.11862588 -0.90230691 126 116 124
-0.24094841 -0.11848703 -0.90230018 123 114 121
-0.24166864 -0.11785665 -0.90205675 97 88 96
-0.24131273 -0.12278941 -0.90231079 155 134 145
-0.24094824 -0.12028449 -0.90247434 151 138 147
-0.24148716 -0.12198656 -0.90236378 154 135 146
-0.24170952 -0.12222095 -0.90234876 154 135 146
-0.24282713 -0.12174845 -0.90238178 154 135 148
-0.24172792 -0.12297347 -0.90229952 155 134 145
-0.24293394 -0.12158609 -0.90235579 152 133 146
-0.2428043 -0.12169167 -0.90238267 154 135 148
-0.24360678 -0.12246441 -0.90232915 155 133 148
-0.2433268 -0.12185297 -0.90232074 151 131 145
-0.23927838 -0.12276629 -0.9025051 138 117 121
-0.23850243 -0.12224174 -0.90270334 123 103 103
-0.23929438 -0.12055591 -0.90269029 129 116 119
-0.23988736 -0.11969911 -0.90262842 138 128 133
-0.24639212 -0.12515184 -0.90258807 176 155 166
-0.24799751 -0.12537985 -0.90268087 176 156 162
-0.24730967 -0.12565844 -0.90268576 182 162 169
-0.24545163 -0.12580664 -0.90262741 188 167 178
-0.24452591 -0.12525252 -0.90254158 184 163 175
-0.24593225 -0.12347901 -0.90239352 155 132 147
-0.24482882 -0.12509926 -0.90253383 181 159 172
-0.24478546 -0.12464707 -0.90248501 175 153 166
-0.24566795 -0.12490983 -0.90253687 175 153 166
-0.2409285 -0.12574759 -0.9026767 187 170 174
-0.24147221 -0.12476108 -0.90249819 177 158 166
-0.2415653 -0.12581553 -0.90265685 189 172 177
-0.2418052 -0.12589954 -0.9026584 191 173 179
-0.24158609 -0.12417433 -0.90241307 170 150 159
-0.24349277 -0.12507643 -0.90251142 183 162 173
-0.24174306 -0.12407845 -0.90240324 169 149 158
-0.24253623 -0.12497013 -0.90249848 181 161 171
-0.24314138 -0.12554371 -0.90255994 189 169 179
-0.23939183 -0.1268958 -0.90268821 178 162 156
-0.23808205 -0.1263859 -0.9024412 148 130 119
-0.23926058 -0.12682956 -0.90266955 175 158 152
-0.23777951 -0.12597673 -0.90250242 138 119 107
-0.23994514 -0.12321455 -0.9023751 152 131 139
-0.24022859 -0.12404004 -0.90244669 166 147 154
-0.23350029 -0.12681229 -0.90043014 105 80 56
-0.2361441 -0.12463735 -0.90246302 96 72 55
-0.23624457 -0.12543204 -0.90218413 105 83 66
-0.23616804 -0.12545104 -0.90214312 104 82 65
-0.2358095 -0.12550239 -0.90196633 103 80 63
-0.23398487 -0.12516251 -0.9016605 97 71 49
-0.2336681 -0.12575996 -0.90108782 98 71 48
-0.23436166 -0.12432941 -0.90245473 96 70 49
-0.23281114 -0.12608296 -0.90073317 100 73 48
-0.23265056 -0.12409546 -0.90255833 100 72 48
-0.2683574 -0.13055968 -0.90200597 162 145 158
-0.26560515 -0.13047566 -0.90224081 175 156 169
-0.26536709 -0.1298099 -0.90220737 167 148 164
-0.25998619 -0.13076313 -0.90266508 198 181 193
-0.2592909 -0.13059747 -0.90271789 199 181 193
-0.2367602 -0.12839206 -0.9026373 145 128 122
-0.23780803 -0.12745115 -0.90242219 155 137 129
-0.23521911 -0.13060689 -0.90154952 160 144 151
-0.23527764 -0.13030756 -0.9015075 154 137 141
-0.23585087 -0.1293976 -0.902134 145 128 126
-0.23314619 -0.1288195 -0.8994928 116 92 76
-0.23437145 -0.12916447 -0.90052295 128 106 96
-0.23433624 -0.12843524 -0.9009347 124 102 89
-0.23396192 -0.12776533 -0.90096641 117 94 77
-0.23577872 -0.12918864 -0.90193444 139 121 116
-0.2326258 -0.1274849 -0.89978421 105 79 56
-0.23353226 -0.12822594 -0.90024829 116 92 75
-0.23453268 -0.12762551 -0.90123546 119 97 81
-0.23600639 -0.12715009 -0.90158427 122 102 87
-0.23469126 -0.12705404 -0.90095317 114 92 72
-0.23318446 -0.1292972 -0.89924771 119 95 81
-0.23307329 -0.12996006 -0.89888573 116 92 79
-0.27198923 -0.13201199 -0.9018178 153 142 155
-0.27217844 -0.13466458 -0.90198117 171 156 175
-0.27242583 -0.13328525 -0.90189195 160 147 163
-0.27406341 -0.13374385 -0.90190047 154 140 158
-0.27299201 -0.13469186 -0.90197283 166 151 171
-0.27524292 -0.13433002 -0.90189475 151 135 156
-0.27506557 -0.13427427 -0.90190524 152 136 157
-0.26809576 -0.13414933 -0.9022544 185 169 185
-0.26962134 -0.13461524 -0.90215051 182 166 184
-0.26760954 -0.13089645 -0.90208173 171 151 164
-0.26803333 -0.13373849 -0.90223265 183 167 182
-0.27011135 -0.13127355 -0.90189385 159 145 157
-0.27036008 -0.13321628 -0.90199417 171 155 172
-0.26924619 -0.13224244 -0.90202749 171 153 168
-0.26984915 -0.1319754 -0.90195984 165 150 164
-0.27072996 -0.13319504 -0.90196162 169 154 170
-0.27078784 -0.13333769 -0.90196562 169 155 171
-0.2652652 -0.13300188 -0.90244478 190 174 188
-0.26494506 -0.13224539 -0.90242863 189 173 186
-0.26608869 -0.13365725 -0.90240949 191 174 189
-0.26415277 -0.13459435 -0.90264028 195 180 198
-0.26491621 -0.13329574 -0.90249389 192 176 190
-0.26704106 -0.13383622 -0.90233147 188 172 187
-0.26602393 -0.13245003 -0.90233827 186 169 182
-0.26504385 -0.13212946 -0.90241212 189 172 185
-0.26562959 -0.13233744 -0.90236908 187 170 183
-0.2661466 -0.13294558 -0.90235925 188 171 185
-0.26329499 -0.13466406 -0.90270668 197 182 200
-0.2611576 -0.13238287 -0.90269065 199 182 197
-0.26253626 -0.13239004 -0.90261537 195 179 193
-0.26224002 -0.13130315 -0.90256703 193 177 189
-0.26250547 -0.13140374 -0.90255827 193 176 188
-0.26136312 -0.13189153 -0.90265083 197 181 194
-0.26249987 -0.13193113 -0.9025901 194 178 191
-0.23523046 -0.1316739 -0.90175474 169 154 165
-0.28055689 -0.136674 -0.90216845 119 103 129
-0.27752414 -0.13729948 -0.90228468 141 120 151
-0.27764463 -0.13845938 -0.90239584 139 119 151
-0.27651307 -0.13824636 -0.90231979 146 129 155
-0.27718911 -0.13835065 -0.90236312 142 123 153
-0.27602017 -0.13750772 -0.90222806 149 133 157
-0.27686626 -0.13548325 -0.9020375 144 126 152
-0.27815163 -0.13624156 -0.90213639 137 116 146
-0.27717969 -0.13565736 -0.90205997 143 124 150
-0.27441883 -0.13779967 -0.90223312 157 145 165
-0.27219808 -0.13565043 -0.90206444 171 157 176
-0.27165645 -0.13578685 -0.90207148 174 159 179
-0.27170262 -0.1372837 -0.90218091 174 159 179
-0.27405763 -0.13828096 -0.90226632 160 146 167
-0.27498761 -0.13866813 -0.90229958 154 142 162
-0.27424192 -0.13577308 -0.90205336 159 145 165
-0.27381492 -0.13520065 -0.90200675 162 147 167
-0.27412966 -0.13510752 -0.90199447 160 145 165
-0.27358976 -0.13575539 -0.90205979 163 149 168
-0.27402663 -0.13522422 -0.90200627 161 146 166
-0.26891521 -0.13684523 -0.90236682 185 169 187
-0.26972321 -0.13764811 -0.90235406 182 166 185
-0.26775348 -0.13661027 -0.90244257 189 173 189
-0.26987383 -0.13502473 -0.90215713 182 166 184
-0.27026397 -0.13507311 -0.90212619 180 165 183
-0.26941603 -0.13600872 -0.9022693 183 168 186
-0.26989558 -0.13594025 -0.90222204 182 166 184
-0.27094591 -0.13748364 -0.90224183 178 162 182
-0.26440477 -0.13615398 -0.90272182 195 181 198
-0.26430088 -0.13548896 -0.90268326 195 180 198
-0.26677033 -0.13699599 -0.90255326 191 174 191
-0.26622167 -0.1351407 -0.90248698 192 177 193
-0.26734602 -0.13737524 -0.90252501 190 173 190
-0.26681727 -0.13688764 -0.90254229 191 174 191
-0.26496831 -0.13505857 -0.9025951 194 179 196
-0.27993309 -0.14194506 -0.90262145 117 103 132
-0.27961019 -0.14219536 -0.90263605 119 104 135
-0.28091264 -0.13987811 -0.90252364 113 98 128
-0.27981639 -0.14064057 -0.90257019 121 103 136
-0.28013122 -0.14003481 -0.90254116 120 101 134
-0.27562377 -0.140451 -0.90241927 147 137 159
-0.27620173 -0.13982899 -0.90239704 145 132 155
-0.27629769 -0.1397346 -0.90239388 144 132 154
-0.27543575 -0.13976488 -0.90237123 150 139 160
-0.27772349 -0.13930055 -0.90244454 137 119 149
-0.27807197 -0.14003058 -0.90249151 134 116 146
-0.27823478 -0.14144699 -0.90255696 129 115 143
-0.27706233 -0.13919002 -0.90240681 141 125 152
-0.27857396 -0.14182292 -0.9025892 126 112 141
-0.27288705 -0.13993287 -0.902367 165 152 173
-0.27341023 -0.13985211 -0.90236479 162 149 170
-0.27415243 -0.13923986 -0.9023307 158 146 166
-0.27350807 -0.13871966 -0.90229481 163 149 170
-0.27071771 -0.13927051 -0.90240467 177 162 182
-0.23709729 -0.12190454 -0.90336633 94 75 65
-0.23920673 -0.11927041 -0.9028936 114 106 110
-0.23698986 -0.1195607 -0.90367204 35 31 30
-0.23637116 -0.12137611 -0.90369219 53 39 31
-0.23815502 -0.12184862 -0.90290362 116 97 94
-0.23718147 -0.12252706 -0.90322298 103 81 71
-0.23396018 -0.12153216 -0.90482181 57 42 30
-0.23374355 -0.1228535 -0.90422904 92 67 46
-0.23459427 -0.12144734 -0.90471184 54 39 30
-0.23540381 -0.1223199 -0.90409321 74 54 42
-0.23564288 -0.1224006 -0.90399677 76 55 43
-0.23375642 -0.12077261 -0.90524083 38 28 21
-0.23559378 -0.11934143 -0.90438908 4 3 2
-0.2360622 -0.12053016 -0.90396696 32 23 18
-0.23603079 -0.12112667 -0.90391839 46 34 26
-0.23510058 -0.12022424 -0.90459085 25 18 14
-0.23505671 -0.12150499 -0.90447211 55 40 31
-0.23586121 -0.11920178 -0.90424109 1 1 0
-0.24944812 -0.12533365 -0.90279937 170 152 156
-0.24859197 -0.12560081 -0.90275645 177 159 163
-0.25148109 -0.1264628 -0.90296346 180 165 164
-0.25022388 -0.12584886 -0.90287513 175 158 160
-0.25185379 -0.12595902 -0.90294099 171 155 156
-0.25047803 -0.12511805 -0.90283239 163 146 149
-0.2502948 -0.12657548 -0.90292925 186 170 169
-0.24711131 -0.12643811 -0.90277195 194 175 179
-0.2423438 -0.1266834 -0.9027552 201 184 189
-0.23982082 -0.12588008 -0.90281725 181 164 164
-0.23669626 -0.12309816 -0.90336144 97 73 61
-0.23948516 -0.12567639 -0.90285939 173 155 154
-0.23681694 -0.12456239 -0.90274096 105 82 67
-0.23716657 -0.12388685 -0.90338594 114 92 80
-0.2366924 -0.12381341 -0.90317959 101 78 64
-0.25593567 -0.12932706 -0.90298003 194 176 186
-0.25637725 -0.13016297 -0.90301466 201 185 194
-0.25769266 -0.12979454 -0.90285057 194 177 188
-0.25688112 -0.13081503 -0.90299457 207 191 199
-0.25309393 -0.12828755 -0.90305489 195 179 180
-0.25314975 -0.13070698 -0.90320748 212 194 205
-0.25208759 -0.12997319 -0.90320295 208 190 199
-0.25253856 -0.1298124 -0.90317464 206 189 197
-0.25351608 -0.13011746 -0.90315515 207 191 198
-0.25343204 -0.1284778 -0.90305352 196 180 181
-0.25555512 -0.13022636 -0.90307456 204 189 196
-0.2526567 -0.12740891 -0.9030115 188 173 172
-0.2523807 -0.12695876 -0.90299052 185 169 168
-0.25475398 -0.12927012 -0.90304255 198 182 187
-0.25567001 -0.1291206 -0.90297675 193 175 184
-0.24832925 -0.12732676 -0.90290618 201 184 184
-0.24991088 -0.12961097 -0.90307951 210 193 200
-0.25011712 -0.13009095 -0.90310621 212 195 204
-0.24828053 -0.13000108 -0.90296268 213 198 205
-0.24833405 -0.12744413 -0.90290922 201 185 185
-0.24894281 -0.12734771 -0.90293318 199 182 183
-0.25016326 -0.12826192 -0.9030351 202 185 188
-0.25022796 -0.12762693 -0.90299678 197 180 181
-0.24964996 -0.12743312 -0.90296376 198 181 181
-0.25061268 -0.12778948 -0.90302086 197 180 182
-0.24669193 -0.12813938 -0.9029811 205 189 192
-0.24572584 -0.12746061 -0.9028458 206 188 193
-0.2442252 -0.12775674 -0.90282184 210 192 200
-0.24555349 -0.12909405 -0.9030636 210 195 200
-0.24467923 -0.12841554 -0.90293229 210 194 201
-0.24642964 -0.12728418 -0.90285182 204 186 189
-0.24803549 -0.12737866 -0.90288639 201 185 185
-0.24707153 -0.12813957 -0.90297318 205 189 191
-0.24470834 -0.13083808 -0.90320456 216 204 212
-0.24753478 -0.12767962 -0.90292937 203 187 187
-0.24693242 -0.12897405 -0.90300202 208 194 197
-0.24410428 -0.12875479 -0.90295774 212 196 204
-0.24285391 -0.12807912 -0.90292877 207 192 198
-0.2433849 -0.1280601 -0.90289915 209 193 200
-0.24210937 -0.12792237 -0.90294504 206 191 195
-0.24278529 -0.12816821 -0.90294451 208 193 198
-0.24234794 -0.12864451 -0.90303236 208 194 198
-0.24070056 -0.12851155 -0.90297991 204 190 194
-0.24351382 -0.13061078 -0.90320283 215 202 210
-0.2406542 -0.12977266 -0.90301472 207 193 202
-0.24043177 -0.12933166 -0.90298897 206 191 199
-0.24240589 -0.13044401 -0.90313458 212 199 208
-0.23695417 -0.12864961 -0.90283197 155 139 136
-0.23661239 -0.12967925 -0.90321964 171 158 164
-0.23912916 -0.12786636 -0.90304029 193 179 181
-0.23820172 -0.12850386 -0.90309221 184 170 174
-0.23896319 -0.13069198 -0.90323573 204 190 204
-0.23942022 -0.12936269 -0.90311795 202 189 197
-0.24004704 -0.12766424 -0.90296018 201 187 188
-0.23682109 -0.13069193 -0.9036026 194 184 200
-0.24021681 -0.12842549 -0.90295368 203 189 193
-0.2609773 -0.13413958 -0.9027952 202 186 203
-0.260043 -0.13466103 -0.9028728 205 188 206
-0.26069769 -0.13310748 -0.90275204 201 185 200
-0.25623298 -0.13086882 -0.90306854 209 193 201
-0.25940296 -0.13410671 -0.902897 205 189 205
-0.25900733 -0.13336086 -0.9028998 205 189 204
-0.259076 -0.13139145 -0.9027853 203 186 197
-0.25812849 -0.13271175 -0.9029609 207 190 203
-0.25753763 -0.13460572 -0.90310884 207 191 208
-0.25870991 -0.13375673 -0.90295351 207 190 205
-0.25873244 -0.13410456 -0.90296686 206 190 206
-0.25653306 -0.13236862 -0.90310919 209 193 204
-0.25882465 -0.13432747 -0.90296757 206 190 206
-0.25355655 -0.13278043 -0.90327662 212 195 210
-0.25426504 -0.13338174 -0.90327877 211 195 210
-0.25522801 -0.13421793 -0.90328193 209 194 210
-0.25394309 -0.13370402 -0.90328503 211 196 211
-0.25402203 -0.13339283 -0.90328068 211 195 210
-0.25480381 -0.13262323 -0.90323019 210 194 207
-0.25572908 -0.13128623 -0.90313333 210 194 203
-0.25413364 -0.13299187 -0.90327346 211 194 210
-0.25300568 -0.13176073 -0.90326333 213 195 209
-0.25510892 -0.13145074 -0.90316546 210 195 204
-0.25569233 -0.13293767 -0.90320873 209 194 207
-0.24840875 -0.13221315 -0.90308589 216 203 212
-0.25047722 -0.13405028 -0.9032492 215 202 213
-0.24885961 -0.13263093 -0.90312308 216 202 212
-0.24978015 -0.13394316 -0.90324044 215 202 213
-0.24968891 -0.13429411 -0.90327227 215 201 213
-0.25056884 -0.13141562 -0.90316504 215 199 210
-0.25079721 -0.13158229 -0.90318465 215 199 210
-0.24902652 -0.13108501 -0.9030422 216 202 211
-0.25158292 -0.13135725 -0.90324247 215 197 209
-0.25189963 -0.13234477 -0.90327877 215 198 210
-0.24539997 -0.13334674 -0.90345281 214 199 212
-0.24588433 -0.13345054 -0.90340459 214 200 212
-0.24511686 -0.13305534 -0.90344644 214 200 212
-0.24670446 -0.13154858 -0.90312326 216 203 212
-0.24697998 -0.13118714 -0.90307069 216 204 212
-0.24762014 -0.1316129 -0.90306294 216 203 212
-0.24795833 -0.13237911 -0.90310776 216 202 212
-0.24739677 -0.1314937 -0.9030683 216 203 212
-0.24794367 -0.13293336 -0.90315884 216 202 212
-0.2407203 -0.13211498 -0.90321773 208 193 207
-0.24129559 -0.13182639 -0.9032284 209 194 208
-0.2423532 -0.13270688 -0.90342063 210 194 209
-0.24307139 -0.13154174 -0.90328717 213 200 211
-0.24101949 -0.13088645 -0.90307194 211 196 208
-0.24144258 -0.13124229 -0.90314937 211 196 209
-0.23642108 -0.13159181 -0.90356779 192 182 199
-0.23947591 -0.1309907 -0.90316898 206 192 206
-0.23924409 -0.13222381 -0.90335953 203 190 204
-0.23843105 -0.13093767 -0.90334141 202 189 204
-0.26362619 -0.13555215 -0.90275306 197 183 201
-0.26178083 -0.13591114 -0.9028722 201 186 203
-0.26201835 -0.13494445 -0.90278918 200 185 203
-0.26019567 -0.13551207 -0.90294492 205 189 206
-0.25597242 -0.13520421 -0.90331435 209 194 210
-0.25930613 -0.13487914 -0.90295434 206 189 207
-0.25915542 -0.1359577 -0.90311521 207 192 208
-0.25482035 -0.13491862 -0.90330386 210 196 211
-0.23652199 -0.11629041 -0.91052783 0 0 0
0 0 0 1 0 0 0 1 0 0 0 1 0 0 0 0 0 315 1 0 0
