ply
format ascii 1.0
comment PCL generated
element vertex 146
property float x
property float y
property float z
property uchar red
property uchar green
property uchar blue
element camera 1
property float view_px
property float view_py
property float view_pz
property float x_axisx
property float x_axisy
property float x_axisz
property float y_axisx
property float y_axisy
property float y_axisz
property float z_axisx
property float z_axisy
property float z_axisz
property float focal
property float scalex
property float scaley
property float centerx
property float centery
property int viewportx
property int viewporty
property float k1
property float k2
end_header
-0.23731455 0.53363883 -0.87069726 150 112 110
-0.23582819 0.53458285 -0.86868799 150 112 110
-0.23560645 0.53497565 -0.86845595 152 116 111
-0.23580156 0.52943784 -0.86898249 154 116 113
-0.23595956 0.52966231 -0.86920875 154 113 113
-0.23544943 0.53008544 -0.86826295 152 118 111
-0.23514199 0.53123415 -0.86777568 148 111 109
-0.23526968 0.53108656 -0.86792964 149 113 109
-0.23640731 0.52781957 -0.86997157 163 125 119
-0.23641801 0.52698755 -0.86993098 168 133 121
-0.23651864 0.52783179 -0.87023169 163 126 120
-0.23521629 0.52578616 -0.8680926 147 112 104
-0.23605517 0.52686769 -0.86933547 161 126 116
-0.23593926 0.5255909 -0.86907512 165 135 118
-0.23496431 0.52623975 -0.86771071 143 109 101
-0.23527564 0.5292244 -0.8681187 154 123 112
-0.23527469 0.52716887 -0.86820024 147 111 105
-0.23535283 0.52700871 -0.86833942 147 109 105
-0.23558746 0.52376652 -0.86892903 157 127 115
-0.23471245 0.5223484 -0.86806691 139 105 104
-0.23520857 0.52317673 -0.86855209 149 118 110
-0.23482242 0.52431971 -0.86776656 140 106 101
-0.23453215 0.52305776 -0.86765879 135 99 99
-0.2348583 0.52327263 -0.8680591 142 109 104
-0.2353697 0.52502543 -0.86835814 153 121 109
-0.23517655 0.51826245 -0.86896306 128 88 102
-0.23554653 0.51852679 -0.86957186 125 88 99
-0.23453636 0.51797038 -0.86786246 134 91 108
-0.23500609 0.51950407 -0.86848402 136 100 107
-0.23425297 0.52074951 -0.86760587 130 92 100
-0.23494451 0.51952237 -0.86840928 135 99 107
-0.23436776 0.5190568 -0.86768645 132 91 105
-0.23531152 0.52099115 -0.86891073 136 107 105
-0.234751 0.51740372 -0.8684057 128 84 104
-0.23561832 0.51553464 -0.870377 127 85 102
-0.2351265 0.51751846 -0.86907756 123 79 98
-0.23588777 0.51398653 -0.87117946 132 91 106
-0.23487481 0.51521301 -0.86915505 137 95 110
-0.23563239 0.51379704 -0.87080735 135 95 108
-0.23526204 0.51513487 -0.86981958 133 91 108
-0.23454802 0.51603508 -0.86838335 137 94 111
-0.23536366 0.51493287 -0.87004459 133 91 107
-0.2343602 0.51433575 -0.86854535 144 105 116
-0.23495093 0.51029623 -0.86991167 128 87 99
-0.23534724 0.51237798 -0.87055391 134 94 108
-0.23426954 0.51010597 -0.86904794 138 97 110
-0.23538317 0.5115425 -0.87053949 129 88 100
-0.23433679 0.51309329 -0.868828 146 108 118
-0.23462859 0.51180851 -0.86961544 143 103 116
-0.23395668 0.51107484 -0.86867315 148 108 122
-0.23487279 0.51328778 -0.86967194 141 103 114
-0.23503272 0.51281536 -0.87004882 140 100 113
-0.23485218 0.51294667 -0.86971819 141 102 114
-0.23448429 0.50716347 -0.8694275 150 118 125
-0.23462842 0.50669783 -0.87030733 146 119 122
-0.23367311 0.50615096 -0.86827976 170 142 150
-0.23427688 0.50669849 -0.86934978 155 125 132
-0.2337959 0.50647551 -0.86827415 167 137 145
-0.2341516 0.50703329 -0.86870903 158 125 134
-0.23398961 0.50873363 -0.86861116 148 110 122
-0.23370291 0.5094552 -0.86829764 147 108 120
-0.23396607 0.50912964 -0.86860609 145 107 118
-0.23375039 0.50921893 -0.8683424 148 109 122
-0.2345265 0.50755334 -0.86920875 148 113 122
-0.23376091 0.50800741 -0.86828125 157 122 132
-0.23243639 0.52365923 -0.86353534 157 109 119
-0.23231912 0.52505141 -0.86344653 154 92 116
-0.23189232 0.52223104 -0.86288458 151 118 115
-0.23174904 0.52145195 -0.86270911 150 124 115
-0.23122846 0.52044612 -0.86233944 147 119 116
-0.23125544 0.52037406 -0.86238664 148 120 116
-0.23240341 0.5209887 -0.86351413 158 135 122
-0.23126973 0.51893991 -0.86278844 146 124 115
-0.23077291 0.51768333 -0.86260724 138 119 111
-0.23040229 0.51775932 -0.86215031 136 114 110
-0.23149672 0.51911783 -0.862997 148 127 117
-0.23096339 0.51775086 -0.86280829 139 122 112
-0.23894934 0.52867085 -0.87392682 164 130 121
-0.23737504 0.52675045 -0.8719607 165 132 121
-0.23536937 0.50585997 -0.87256026 147 130 120
-0.23507778 0.50552148 -0.87216693 145 125 119
-0.23478323 0.50575393 -0.8715933 145 123 120
-0.23527575 0.5058282 -0.87241066 146 129 120
-0.23477894 0.53108358 -0.86725187 148 113 109
-0.23469779 0.52968514 -0.86713773 152 125 111
-0.23441644 0.52975589 -0.86666858 150 126 111
-0.23484805 0.52991474 -0.86738425 151 123 111
-0.23466238 0.52956986 -0.86708051 152 126 111
-0.23452608 0.52596051 -0.86699224 145 106 103
-0.23349096 0.52617729 -0.86526829 152 101 112
-0.23318972 0.52574426 -0.86478615 152 97 113
-0.2348558 0.52799541 -0.86745834 150 120 108
-0.23387958 0.52584875 -0.86592525 148 102 108
-0.23479435 0.5268333 -0.86740237 146 113 104
-0.23338246 0.52784944 -0.86501819 152 116 114
-0.23351826 0.52819538 -0.86522919 152 120 114
-0.23295054 0.5274229 -0.86431819 152 113 115
-0.23294142 0.52847892 -0.86425728 149 126 114
-0.23315522 0.52660924 -0.86469412 154 102 116
-0.23315389 0.52921438 -0.86457878 148 133 113
-0.23380154 0.5230155 -0.8660273 146 114 108
-0.23377997 0.52164185 -0.86651564 138 104 104
-0.23367983 0.52208114 -0.86610991 142 110 107
-0.23421006 0.52332145 -0.86685997 140 106 103
-0.23434545 0.52333552 -0.86717021 138 103 101
-0.23395681 0.5244441 -0.86606127 148 110 107
-0.23318644 0.52339035 -0.86477345 154 117 115
-0.23266742 0.52258444 -0.86390477 158 123 120
-0.23262303 0.524427 -0.86385077 156 102 118
-0.23326586 0.52278328 -0.86489862 154 125 115
-0.23256096 0.52179718 -0.86372 160 131 122
-0.23250957 0.51917624 -0.86413962 154 136 121
-0.23394395 0.51765168 -0.86692941 137 98 111
-0.23245341 0.5176388 -0.86445224 150 138 120
-0.23253734 0.52019793 -0.86391604 157 134 122
-0.2330938 0.51947427 -0.86503929 150 120 118
-0.23300558 0.51997256 -0.86479056 152 122 118
-0.23395889 0.51889032 -0.8668198 138 97 110
-0.23311995 0.52107179 -0.86501062 150 120 115
-0.23399718 0.51920694 -0.86693048 137 97 108
-0.23362474 0.52049637 -0.86614889 141 107 109
-0.2335587 0.52000523 -0.86596179 144 108 112
-0.23360182 0.5213908 -0.8661558 140 108 107
-0.23217075 0.51908594 -0.8637737 152 136 119
-0.23385651 0.51604056 -0.8672331 143 104 115
-0.23356216 0.51519096 -0.86698067 148 114 119
-0.23307829 0.51649302 -0.86581147 148 124 119
-0.23361349 0.51441187 -0.86728382 150 115 121
-0.23305354 0.51635003 -0.86581022 149 125 120
-0.23286524 0.51493615 -0.86586851 144 113 115
-0.23269442 0.5160988 -0.86527103 147 125 118
-0.23343036 0.51417702 -0.86704028 151 117 121
-0.23221485 0.51463318 -0.86495113 131 97 105
-0.23189992 0.51742965 -0.86393863 145 132 115
-0.2331029 0.51212436 -0.86698651 146 107 119
-0.23357385 0.51302665 -0.86757725 153 115 123
-0.2335635 0.51308048 -0.86754626 152 115 123
-0.23283044 0.51012528 -0.86693352 148 105 122
-0.23263039 0.51135868 -0.8662926 140 96 114
-0.23280877 0.51068681 -0.86678463 145 103 120
-0.23309062 0.50723702 -0.86728013 168 134 146
-0.23268506 0.50884718 -0.86660779 151 107 126
-0.23252846 0.50863677 -0.86625129 147 103 122
-0.23251796 0.50824565 -0.86618161 147 106 122
-0.23266926 0.5081498 -0.86649466 153 112 129
-0.23203614 0.50865024 -0.86563241 139 94 111
0 0 0 1 0 0 0 1 0 0 0 1 0 0 0 0 0 146 1 0 0
