ply
format ascii 1.0
comment PCL generated
element vertex 101
property float x
property float y
property float z
property uchar red
property uchar green
property uchar blue
element camera 1
property float view_px
property float view_py
property float view_pz
property float x_axisx
property float x_axisy
property float x_axisz
property float y_axisx
property float y_axisy
property float y_axisz
property float z_axisx
property float z_axisy
property float z_axisz
property float focal
property float scalex
property float scaley
property float centerx
property float centery
property int viewportx
property int viewporty
property float k1
property float k2
end_header
-0.11721013 -0.4579668 -0.69175822 160 116 177
-0.11700165 -0.45685932 -0.69164723 173 141 186
-0.11622786 -0.45868355 -0.69145215 149 90 169
-0.11526395 -0.45834523 -0.69110483 151 88 170
-0.11279422 -0.45769635 -0.69022024 164 125 182
-0.11352707 -0.45885155 -0.69050455 159 110 176
-0.1145805 -0.4585982 -0.69086552 148 85 169
-0.11354215 -0.45853293 -0.69050187 158 109 176
-0.1129264 -0.45699188 -0.69024891 162 120 182
-0.11420916 -0.4576315 -0.69071567 155 101 175
-0.11586291 -0.46190739 -0.69179481 146 113 161
-0.11614212 -0.45985746 -0.69156575 145 91 165
-0.11619959 -0.46093407 -0.69175863 146 105 163
-0.11490925 -0.46143666 -0.6913721 148 109 163
-0.11257608 -0.45989373 -0.69031799 169 145 181
-0.11203263 -0.45911047 -0.69000638 174 147 186
-0.11309644 -0.46517023 -0.69132304 123 105 138
-0.11381903 -0.46502078 -0.69159669 124 105 139
-0.11318731 -0.4661375 -0.69158316 113 97 129
-0.11292117 -0.46436864 -0.6911239 136 119 151
-0.11172339 -0.46587491 -0.69093663 119 106 135
-0.11185383 -0.46573636 -0.690961 120 107 137
-0.1098584 -0.46661538 -0.69042122 112 99 122
-0.11027975 -0.46586356 -0.69041395 119 106 135
-0.10921523 -0.46610796 -0.69011003 119 105 128
-0.11011788 -0.46485627 -0.69019097 134 121 150
-0.11031743 -0.46490163 -0.69027132 134 121 150
-0.1120631 -0.46820271 -0.69162124 94 73 100
-0.1117247 -0.46776232 -0.69136238 98 80 107
-0.11138544 -0.4672623 -0.69108766 102 88 116
-0.11022235 -0.46795335 -0.69084233 104 91 113
-0.10975772 -0.4683536 -0.69077849 103 91 110
-0.11001924 -0.46807751 -0.69080186 104 92 112
-0.10947908 -0.4674353 -0.69047695 108 95 114
-0.12380449 -0.46451923 -0.69619542 149 131 163
-0.12344208 -0.46607569 -0.69664627 129 111 143
-0.12422328 -0.46522745 -0.69671464 140 118 153
-0.12306898 -0.46512866 -0.69605255 140 127 156
-0.12385365 -0.46633741 -0.69699532 129 109 140
-0.12434123 -0.46621749 -0.69722795 134 112 143
-0.12294611 -0.46583253 -0.69627863 132 117 147
-0.1228203 -0.46578488 -0.69619149 133 118 147
-0.12373972 -0.46761832 -0.69739002 122 101 127
-0.12452149 -0.46693274 -0.69764763 132 110 138
-0.12121712 -0.46694225 -0.69579524 123 104 131
-0.121216 -0.46730918 -0.69590425 117 97 124
-0.12097719 -0.46710479 -0.69571519 121 101 128
-0.12276979 -0.46826187 -0.69702369 111 90 114
-0.11960943 -0.45855916 -0.692635 161 130 180
-0.11950137 -0.45770752 -0.69252765 170 145 186
-0.11894254 -0.45878735 -0.69240439 152 112 174
-0.11764516 -0.45763239 -0.6918692 164 125 180
-0.12000035 -0.45995981 -0.69309235 154 121 175
-0.11915485 -0.46267822 -0.69333488 149 133 156
-0.11942638 -0.46118617 -0.69311643 150 125 165
-0.11961938 -0.4620741 -0.69340354 151 132 162
-0.12060905 -0.46188122 -0.69379836 156 137 172
-0.11958572 -0.45913655 -0.69270331 155 119 176
-0.1155445 -0.46288875 -0.69184691 146 121 158
-0.11774683 -0.46047708 -0.69223601 148 114 167
-0.11734758 -0.46151477 -0.69230187 147 119 163
-0.11597923 -0.46236089 -0.69191194 146 119 160
-0.11615519 -0.46262786 -0.69204742 146 122 159
-0.11791459 -0.46209046 -0.69267368 148 125 160
-0.11828906 -0.45983696 -0.69232422 149 112 169
-0.11733293 -0.46011913 -0.69203037 148 106 167
-0.11799311 -0.45998019 -0.69224215 148 111 169
-0.12317456 -0.46393833 -0.69561774 156 144 173
-0.12255756 -0.46401203 -0.6953122 156 143 173
-0.12153096 -0.46491447 -0.69512868 148 134 161
-0.12224084 -0.46437594 -0.69529229 152 139 168
-0.12079962 -0.46647206 -0.6953851 130 113 139
-0.12184531 -0.46449071 -0.6951226 152 139 167
-0.12135289 -0.46448079 -0.6948579 152 140 166
-0.12069358 -0.46383488 -0.69436228 152 139 164
-0.12176678 -0.46349573 -0.69473106 159 148 175
-0.12005936 -0.46526009 -0.69453001 142 128 152
-0.1210008 -0.46349803 -0.69439238 155 143 168
-0.12047508 -0.46400291 -0.69431841 150 137 161
-0.11794439 -0.4634231 -0.69298953 142 125 151
-0.11794798 -0.4630678 -0.69290918 145 128 154
-0.11607854 -0.46463862 -0.69247431 128 108 141
-0.11611672 -0.46392819 -0.69232678 135 114 148
-0.11619779 -0.46353152 -0.69226986 139 117 152
-0.1187984 -0.4650979 -0.69389701 136 121 143
-0.11738652 -0.46587569 -0.69342101 124 107 134
-0.1181683 -0.46390474 -0.69319957 138 123 146
-0.11654422 -0.46601525 -0.69303489 117 101 130
-0.11799295 -0.4647592 -0.6933791 133 117 141
-0.11845259 -0.46522862 -0.69376165 133 118 141
-0.11436515 -0.46625215 -0.69211346 111 94 127
-0.1144825 -0.4647589 -0.69181949 126 105 142
-0.12001938 -0.4676789 -0.69536328 115 94 118
-0.12041769 -0.46795034 -0.69566673 110 87 113
-0.11758487 -0.46717972 -0.69392258 117 99 124
-0.11800294 -0.46741033 -0.69420236 117 100 122
-0.11803126 -0.46728069 -0.69417953 119 101 124
-0.11596504 -0.46689534 -0.69301355 109 91 123
-0.11484312 -0.46705389 -0.69251162 103 84 117
-0.1136421 -0.46768999 -0.69216311 98 77 107
-0.11252879 -0.46832347 -0.6918515 93 70 97
0 0 0 1 0 0 0 1 0 0 0 1 0 0 0 0 0 101 1 0 0
