ply
format ascii 1.0
comment PCL generated
element vertex 134
property float x
property float y
property float z
property uchar red
property uchar green
property uchar blue
element camera 1
property float view_px
property float view_py
property float view_pz
property float x_axisx
property float x_axisy
property float x_axisz
property float y_axisx
property float y_axisy
property float y_axisz
property float z_axisx
property float z_axisy
property float z_axisz
property float focal
property float scalex
property float scaley
property float centerx
property float centery
property int viewportx
property int viewporty
property float k1
property float k2
end_header
-0.22574268 0.20170662 -0.83996946 93 66 76
-0.22686666 0.20149425 -0.83819848 122 97 104
-0.22657488 0.20287882 -0.84000599 109 84 87
-0.22581282 0.20121369 -0.83937269 98 70 81
-0.22673622 0.2016962 -0.83858377 118 93 100
-0.22865914 0.19764398 -0.83946925 113 90 88
-0.22695926 0.20084488 -0.8381936 120 94 102
-0.22771661 0.19880886 -0.83994585 98 74 76
-0.22788228 0.19919777 -0.8391816 110 86 88
-0.22774804 0.19939384 -0.83909768 110 86 89
-0.22760586 0.20008089 -0.83834946 120 96 101
-0.22607927 0.20058002 -0.83977586 93 65 75
-0.22702521 0.20097969 -0.83791685 124 99 106
-0.2271892 0.1994807 -0.83975172 98 73 78
-0.22839648 0.19904408 -0.83830696 127 103 104
-0.228457 0.19861107 -0.838857 119 95 96
-0.22902718 0.19558819 -0.83999109 110 89 87
-0.22931446 0.19395161 -0.83952904 124 105 103
-0.22923793 0.19431098 -0.84000337 118 99 97
-0.22928421 0.19416854 -0.83937311 124 104 102
-0.22933282 0.19370313 -0.84015894 121 102 101
-0.22913739 0.19502005 -0.83954042 117 96 94
-0.22913125 0.19571173 -0.83793223 135 113 109
-0.22972003 0.19225749 -0.8395099 128 108 109
-0.22960925 0.19254379 -0.84013015 120 100 101
-0.23043904 0.18984127 -0.83812732 136 111 117
-0.2295081 0.19304383 -0.83937132 130 111 110
-0.23137553 0.1868754 -0.83842665 120 101 105
-0.23153523 0.18634444 -0.83783567 124 108 110
-0.23099189 0.18793459 -0.83921361 113 91 97
-0.23101978 0.18766482 -0.83859289 114 96 99
-0.23197474 0.18555713 -0.83817959 130 110 116
-0.23061131 0.1891441 -0.83834469 128 104 110
-0.23090762 0.18800949 -0.83839113 118 99 102
-0.23079082 0.18853666 -0.83799696 128 107 111
-0.23229358 0.18190788 -0.83952385 145 133 127
-0.23220907 0.18359187 -0.8393898 130 108 114
-0.2323453 0.18248169 -0.83977562 145 130 128
-0.23218955 0.18474756 -0.83960116 126 97 110
-0.23171099 0.18268 -0.83749974 102 85 87
-0.23210289 0.18502852 -0.83910984 125 99 110
-0.23157315 0.18322505 -0.83657742 105 94 91
-0.23192629 0.18521802 -0.83797807 127 108 112
-0.23190808 0.18477722 -0.83802879 122 102 108
-0.23163646 0.18394715 -0.83669591 113 101 99
-0.23201068 0.18537828 -0.83842766 129 107 114
-0.23140503 0.18138489 -0.8380385 103 92 87
-0.23098381 0.18118495 -0.83874166 98 86 81
-0.2299283 0.18091705 -0.83890212 69 58 53
-0.23038061 0.18107037 -0.83856869 79 68 63
-0.23078915 0.18098247 -0.83982319 102 90 85
-0.23220845 0.18133099 -0.83968788 141 129 123
-0.23164622 0.18157822 -0.83715326 102 91 86
-0.22942103 0.17899458 -0.83752745 53 40 40
-0.22890152 0.17850386 -0.83799708 45 31 32
-0.2293158 0.18045895 -0.83893138 54 43 38
-0.22873434 0.17951867 -0.83912975 44 31 29
-0.22876425 0.1784143 -0.83815473 42 28 29
-0.23128736 0.18157186 -0.83652204 86 75 71
-0.23109189 0.17822839 -0.83696955 63 38 47
-0.23162919 0.18085968 -0.83637333 85 70 69
-0.2311015 0.17800145 -0.83700007 61 36 46
-0.23140673 0.18089812 -0.83645064 83 69 68
-0.23119684 0.18082179 -0.83654052 81 67 66
-0.23012589 0.1798199 -0.83709115 65 52 51
-0.23257773 0.17641091 -0.83681566 74 42 57
-0.23270643 0.17689064 -0.83637178 79 48 62
-0.23275441 0.17564833 -0.83690631 79 49 62
-0.23252149 0.17687096 -0.83667976 73 41 56
-0.23291858 0.17382005 -0.83753794 81 54 65
-0.23156069 0.18392092 -0.83593518 117 106 103
-0.2315366 0.18386027 -0.83532166 124 110 109
-0.2315208 0.18384352 -0.83487743 129 113 113
-0.23144001 0.18191133 -0.83595788 96 83 80
-0.23151998 0.18381697 -0.83490103 128 112 113
-0.23189019 0.17920496 -0.83451343 105 89 86
-0.23204386 0.17875385 -0.83484679 98 78 80
-0.23213699 0.1785486 -0.83522201 91 68 74
-0.23166452 0.18040492 -0.8353886 97 83 80
-0.23211892 0.1785408 -0.83502823 94 72 76
-0.23262544 0.17675889 -0.83463001 96 70 79
-0.23282541 0.176098 -0.83466923 95 68 78
-0.23299302 0.17592603 -0.83594 91 63 74
-0.2327936 0.17649631 -0.83566147 87 58 70
-0.23260872 0.17712528 -0.8357411 81 50 64
-0.23293689 0.1758506 -0.83506632 95 68 79
-0.22517328 0.20189296 -0.84301293 31 23 24
-0.22517233 0.20198756 -0.8429634 32 23 25
-0.22600476 0.20252804 -0.84114403 80 61 64
-0.22491516 0.20141996 -0.84284776 29 19 23
-0.22696435 0.20371535 -0.84059292 108 88 86
-0.22619763 0.20259674 -0.84027028 100 75 80
-0.22527993 0.20161526 -0.84148884 61 42 49
-0.22855829 0.19740857 -0.84045643 96 73 71
-0.22819546 0.19797525 -0.84034425 95 72 72
-0.22750296 0.19841301 -0.8406924 88 64 66
-0.22566096 0.20022143 -0.84226894 44 30 33
-0.22487652 0.20108294 -0.84244972 35 22 28
-0.22628696 0.19981658 -0.84060669 81 56 63
-0.22568677 0.20049706 -0.84063047 77 51 61
-0.22602946 0.20012446 -0.84053135 81 55 64
-0.22501785 0.19810964 -0.84193432 61 54 50
-0.22650884 0.19906594 -0.84206182 55 40 41
-0.22681096 0.19727065 -0.84106356 85 69 66
-0.22615843 0.19954419 -0.84239382 45 32 34
-0.22536403 0.19764492 -0.84161031 70 61 57
-0.22466652 0.20041429 -0.84320682 22 17 18
-0.22854683 0.19477336 -0.8407799 97 78 80
-0.22873959 0.19666155 -0.84031671 98 76 74
-0.22724968 0.19376686 -0.84117377 86 72 74
-0.22607584 0.19472118 -0.84137475 78 67 66
-0.22825687 0.19343381 -0.84099197 95 79 83
-0.22611886 0.19558857 -0.84135008 81 71 70
-0.22499052 0.19433731 -0.84158492 66 56 54
-0.22763403 0.19523086 -0.84101665 91 75 76
-0.2264993 0.19542935 -0.84127897 84 73 72
-0.22736491 0.1961785 -0.84100944 89 73 72
-0.22635385 0.19704609 -0.84118998 82 69 66
-0.22747689 0.19606881 -0.84099054 90 73 72
-0.22865151 0.19020005 -0.84122336 57 39 49
-0.22871128 0.19100943 -0.84107494 70 52 61
-0.22925314 0.19061768 -0.84077227 81 61 69
-0.22915757 0.18950263 -0.84101695 63 43 54
-0.22949636 0.18976177 -0.84076232 77 56 65
-0.22913809 0.18826024 -0.84099615 72 54 61
-0.2291197 0.18727234 -0.8409735 80 64 67
-0.22851725 0.18805648 -0.84137696 54 39 47
-0.22887403 0.18683299 -0.84111178 76 62 64
-0.22907479 0.18661341 -0.84099191 83 69 70
-0.23037225 0.18588641 -0.84072953 103 81 89
-0.22959949 0.18709013 -0.84078181 91 73 77
-0.23057093 0.18670124 -0.84056443 105 81 90
-0.23048756 0.18908226 -0.84026635 103 78 86
-0.23182113 0.18650499 -0.84024358 124 92 107
0 0 0 1 0 0 0 1 0 0 0 1 0 0 0 0 0 134 1 0 0
