ply
format ascii 1.0
comment PCL generated
element vertex 663
property float x
property float y
property float z
property uchar red
property uchar green
property uchar blue
element camera 1
property float view_px
property float view_py
property float view_pz
property float x_axisx
property float x_axisy
property float x_axisz
property float y_axisx
property float y_axisy
property float y_axisz
property float z_axisx
property float z_axisy
property float z_axisz
property float focal
property float scalex
property float scaley
property float centerx
property float centery
property int viewportx
property int viewporty
property float k1
property float k2
end_header
-0.061080463 -0.38170004 -0.67598081 182 165 173
-0.060791917 -0.38356492 -0.67608857 204 184 195
-0.062812515 -0.38175192 -0.67611551 183 169 178
-0.060995337 -0.38150293 -0.67596066 180 163 170
-0.060558364 -0.38189653 -0.67595571 184 166 174
-0.05834163 -0.38461515 -0.67608076 194 178 185
-0.059879061 -0.38453639 -0.6761139 210 189 201
-0.057517421 -0.38453904 -0.67605013 185 171 176
-0.056860987 -0.38470393 -0.67605025 178 167 170
-0.058533564 -0.38418153 -0.67603874 196 177 186
-0.058958981 -0.38472199 -0.67610914 200 183 192
-0.059569478 -0.38278687 -0.67595357 195 173 184
-0.060247205 -0.38249242 -0.67597729 191 172 181
-0.059955422 -0.38279569 -0.67597955 195 174 184
-0.055104911 -0.38332132 -0.67591256 162 147 161
-0.056502949 -0.38416427 -0.67598748 174 162 166
-0.055768345 -0.38306692 -0.67587829 167 151 162
-0.05730835 -0.38624185 -0.67614126 189 180 189
-0.058282644 -0.38605815 -0.67615873 198 186 197
-0.05900738 -0.38479567 -0.67611665 201 184 193
-0.056471325 -0.38536832 -0.67607427 178 169 173
-0.054490842 -0.38750461 -0.67610621 188 179 190
-0.055512577 -0.3870621 -0.67612201 185 178 188
-0.054643579 -0.38862252 -0.67616653 192 187 202
-0.054683514 -0.38654917 -0.67607051 184 173 182
-0.053389519 -0.38552353 -0.67602587 175 162 179
-0.053053357 -0.38522762 -0.67601347 173 159 178
-0.053456157 -0.38497266 -0.6760124 172 158 176
-0.05441457 -0.38668168 -0.67607027 184 173 183
-0.048944768 -0.3869465 -0.67595965 179 169 172
-0.050919563 -0.38714439 -0.67598075 188 177 180
-0.051603407 -0.38859403 -0.67608953 189 179 193
-0.049815226 -0.3865287 -0.67593181 184 172 172
-0.049766976 -0.3865723 -0.67593485 184 172 172
-0.050420761 -0.3867209 -0.67594796 187 175 175
-0.050795279 -0.38617754 -0.67593563 185 172 174
-0.051748924 -0.38716814 -0.67600983 188 176 184
-0.052625716 -0.38519159 -0.67600262 173 158 178
-0.051088147 -0.38553697 -0.67593372 180 166 172
-0.05254446 -0.38626045 -0.67602646 180 166 184
-0.047448799 -0.38797036 -0.67603594 168 161 177
-0.047898076 -0.38809255 -0.67604184 170 163 179
-0.048200443 -0.38719979 -0.67597091 173 163 174
-0.048626348 -0.38647142 -0.6759221 177 167 168
-0.048396904 -0.38657546 -0.67592722 175 165 169
-0.041613068 -0.38826585 -0.67604816 192 182 199
-0.037776478 -0.38818279 -0.67604047 205 201 214
-0.037826199 -0.3880091 -0.67603403 203 198 212
-0.038591962 -0.38717553 -0.67600578 195 182 201
-0.038037218 -0.38776857 -0.67602587 201 194 209
-0.040723976 -0.38742438 -0.67597622 190 176 196
-0.038956139 -0.38646886 -0.67597294 188 170 192
-0.035617311 -0.38826168 -0.67606306 201 200 208
-0.034874171 -0.38647214 -0.6759963 194 183 197
-0.035341818 -0.38730496 -0.67602533 198 192 203
-0.035435431 -0.38771322 -0.67604178 199 195 205
-0.034507345 -0.38609511 -0.67598581 191 178 193
-0.035600405 -0.38653684 -0.67599058 194 183 198
-0.032483783 -0.38830248 -0.67616886 186 185 189
-0.033086687 -0.38850668 -0.67612386 188 188 190
-0.032050326 -0.38693088 -0.67613608 180 173 184
-0.053960796 -0.38879004 -0.67615199 193 186 201
-0.051641885 -0.38989618 -0.67616296 189 180 194
-0.049495254 -0.38930279 -0.67611426 178 171 186
-0.04936536 -0.3895013 -0.67612201 178 170 185
-0.052232247 -0.3888739 -0.67610568 192 181 196
-0.048333094 -0.38933238 -0.67611665 175 169 184
-0.048266206 -0.3895151 -0.67612463 175 169 184
-0.04659009 -0.38956532 -0.6761381 176 171 186
-0.045852896 -0.38887241 -0.67613095 166 162 176
-0.045120969 -0.3895542 -0.67615652 171 167 181
-0.044494409 -0.38945225 -0.67615551 171 166 181
-0.044573866 -0.38953006 -0.67615753 172 167 181
-0.041385382 -0.39017707 -0.67615479 198 183 205
-0.042152457 -0.38887748 -0.67610365 191 182 199
-0.041777715 -0.38984841 -0.67614508 194 181 202
-0.039383221 -0.39140561 -0.67616779 193 184 207
-0.040102523 -0.38992301 -0.67611325 198 190 210
-0.040945485 -0.38961792 -0.67611957 203 189 210
-0.038140539 -0.38980561 -0.67609322 200 199 214
-0.039095629 -0.38880405 -0.67606944 206 201 216
-0.038089927 -0.39120132 -0.67613262 189 189 208
-0.037906975 -0.38986415 -0.67609382 200 199 214
-0.03867624 -0.38978803 -0.67609537 199 196 213
-0.039059665 -0.38899675 -0.67607468 205 200 215
-0.033253308 -0.38920811 -0.67616224 189 189 191
-0.036176555 -0.39126742 -0.67614555 185 188 203
-0.036873296 -0.38940352 -0.67608076 203 205 216
-0.035964467 -0.39079887 -0.67613578 188 190 203
-0.034264922 -0.38947138 -0.67612684 188 190 195
-0.036517374 -0.38912693 -0.67607898 203 205 215
-0.042027775 -0.39611328 -0.67607939 194 182 200
-0.043103702 -0.3955349 -0.67616218 195 184 205
-0.041561529 -0.39477199 -0.67614865 196 180 202
-0.038101841 -0.3933863 -0.67614001 184 183 203
-0.039549433 -0.39400357 -0.67613775 190 180 201
-0.04027598 -0.39381093 -0.67616981 193 179 202
-0.040688559 -0.3956545 -0.67605907 192 180 198
-0.039309721 -0.39542121 -0.67604518 186 177 195
-0.038163498 -0.39617965 -0.67598647 178 163 184
-0.039515171 -0.39611438 -0.67601049 185 173 191
-0.039172009 -0.39589113 -0.67601746 184 172 191
-0.037511732 -0.39497519 -0.67604232 177 168 190
-0.038369965 -0.3950021 -0.67605382 182 174 194
-0.035072379 -0.39580503 -0.67616892 180 171 194
-0.036939379 -0.39496386 -0.67605156 176 166 189
-0.036299542 -0.3955262 -0.67607689 176 166 189
-0.043895535 -0.3972857 -0.67613119 191 181 200
-0.043086231 -0.39723164 -0.67609769 191 179 197
-0.044851512 -0.39781752 -0.67616999 189 178 199
-0.042709727 -0.39766714 -0.67608142 188 175 193
-0.04266578 -0.39758316 -0.67607975 189 175 194
-0.041159209 -0.39715007 -0.67603505 191 179 194
-0.04265777 -0.40012756 -0.67614108 182 167 185
-0.043011118 -0.39967528 -0.67613006 182 166 186
-0.043239888 -0.3997694 -0.67613494 182 165 185
-0.043633088 -0.40025663 -0.6761536 180 163 184
-0.038433053 -0.39890626 -0.67604911 185 171 189
-0.038995843 -0.39897093 -0.67605984 183 169 186
-0.038690038 -0.39812931 -0.67602921 177 163 181
-0.039305095 -0.40032992 -0.67610639 193 181 195
-0.038533811 -0.39864877 -0.67604274 183 168 186
-0.038880337 -0.39720351 -0.67600322 180 165 184
-0.038487617 -0.39768741 -0.6760124 176 161 181
-0.038104769 -0.39703718 -0.67598629 176 160 181
-0.0388612 -0.39796403 -0.67602664 178 163 182
-0.03850152 -0.39780995 -0.67601639 176 161 181
-0.036204822 -0.39944902 -0.6761182 197 182 201
-0.035761114 -0.39843178 -0.67612976 192 178 199
-0.03500903 -0.3965295 -0.67613888 179 167 190
-0.035369869 -0.39763257 -0.67614126 187 175 197
-0.035719417 -0.39809757 -0.67612499 190 177 198
-0.041161448 -0.40102994 -0.67616004 187 176 189
-0.043175891 -0.40068039 -0.67616457 182 166 185
-0.039558947 -0.40336925 -0.6761601 197 186 201
-0.038995713 -0.40291625 -0.67611027 196 184 197
-0.040615045 -0.40123683 -0.67614287 188 178 190
-0.038043059 -0.40255079 -0.67607588 199 186 199
-0.037816793 -0.40172896 -0.67607719 201 187 202
-0.038945161 -0.40214962 -0.67609233 194 182 195
-0.039116222 -0.40070966 -0.67610347 194 182 196
-0.038315386 -0.40159729 -0.67608577 198 185 199
-0.036506575 -0.40331 -0.67610532 198 181 197
-0.036165595 -0.40201563 -0.67613178 197 180 197
-0.036823805 -0.40203008 -0.67608374 202 187 203
-0.036811464 -0.40146753 -0.67608792 203 187 204
-0.043769401 -0.40768018 -0.67616802 202 184 197
-0.037125185 -0.40655515 -0.67615485 191 178 197
-0.038341004 -0.40449357 -0.67613214 200 189 204
-0.036582701 -0.40546137 -0.67615658 191 173 191
-0.043928873 -0.40824831 -0.67614943 202 183 195
-0.05753753 -0.38855118 -0.67626822 198 200 212
-0.05737149 -0.38797933 -0.67623407 194 195 205
-0.058460794 -0.38747257 -0.67624378 202 202 211
-0.055950396 -0.3879841 -0.67618322 189 185 198
-0.030352324 -0.3883808 -0.67636859 182 181 191
-0.032161057 -0.38812929 -0.67618924 184 183 188
-0.030328508 -0.38746074 -0.67632151 178 173 187
-0.056675058 -0.3896316 -0.67628056 194 185 206
-0.056688048 -0.38967928 -0.67628288 194 185 206
-0.055646595 -0.38876626 -0.67621261 192 189 204
-0.053011946 -0.38968015 -0.67617762 194 186 200
-0.055379484 -0.38960055 -0.67625844 193 190 204
-0.052960731 -0.38999054 -0.67619622 194 186 200
-0.05459816 -0.39117345 -0.67632091 195 187 204
-0.056594219 -0.39194182 -0.67636567 200 171 206
-0.055080093 -0.39244521 -0.67637265 199 177 204
-0.056533482 -0.39161795 -0.67635304 199 174 206
-0.055701975 -0.39097577 -0.67632228 196 182 205
-0.050026886 -0.39171439 -0.67624611 182 172 187
-0.050252609 -0.39181712 -0.67625678 183 173 189
-0.051155981 -0.3925252 -0.67631197 188 178 193
-0.052097224 -0.39064926 -0.67622066 192 183 197
-0.051787455 -0.39178044 -0.67629015 191 183 196
-0.052529003 -0.39217997 -0.6763292 194 187 200
-0.051947784 -0.39210737 -0.67631453 191 184 197
-0.048234399 -0.39231157 -0.67623889 179 165 183
-0.045935165 -0.39087594 -0.67619449 178 171 187
-0.046180137 -0.39132607 -0.67620581 181 174 190
-0.045848168 -0.39133781 -0.67620432 184 177 194
-0.045689832 -0.39036179 -0.67617714 176 171 186
-0.047533114 -0.39065704 -0.67617679 176 168 183
-0.048053585 -0.39196897 -0.67622793 177 165 182
-0.041599434 -0.39158365 -0.67621297 201 184 209
-0.042273965 -0.39144877 -0.67619866 202 188 211
-0.044205036 -0.39251876 -0.67623186 203 195 215
-0.042565838 -0.39090994 -0.67618251 197 185 206
-0.044655878 -0.39115965 -0.67619455 189 184 201
-0.043303393 -0.39093217 -0.67618531 193 184 203
-0.044633482 -0.39087576 -0.67618811 186 181 198
-0.040596139 -0.39243308 -0.67625165 197 178 206
-0.040808108 -0.39176542 -0.67622322 199 180 207
-0.035154924 -0.39097354 -0.67617339 185 186 198
-0.033965524 -0.39101347 -0.67625922 189 185 196
-0.033576198 -0.39090812 -0.6762777 190 185 195
-0.033669896 -0.39182079 -0.67634517 191 183 196
-0.033006899 -0.38966027 -0.6762206 189 187 192
-0.031578638 -0.38995448 -0.67637557 187 183 193
-0.032035425 -0.38940942 -0.67628956 187 185 192
-0.032104071 -0.39063248 -0.67638224 189 183 194
-0.032123886 -0.39075214 -0.67639011 189 183 194
-0.030083727 -0.39006671 -0.67649186 181 175 189
-0.029757425 -0.39035174 -0.67651474 177 169 185
-0.029759722 -0.38914338 -0.6764763 182 181 193
-0.032490212 -0.392241 -0.6764586 190 178 193
-0.031786181 -0.39234766 -0.67649192 184 170 187
-0.053256046 -0.39318004 -0.67636442 200 194 205
-0.053206969 -0.39588782 -0.67625636 200 190 206
-0.053814925 -0.39498425 -0.67632514 205 198 210
-0.054040655 -0.39460933 -0.6763522 207 201 212
-0.054769281 -0.39384532 -0.67638582 207 197 212
-0.055763252 -0.39361677 -0.67639184 207 188 212
-0.055879552 -0.3936764 -0.67639327 208 189 212
-0.054958694 -0.39326787 -0.67638248 204 187 209
-0.053592134 -0.39282638 -0.67636794 199 188 204
-0.054828189 -0.39259756 -0.67637581 199 178 204
-0.051087189 -0.3954114 -0.67624676 190 177 196
-0.049641892 -0.39478102 -0.67629391 185 173 191
-0.04884794 -0.39629576 -0.67639261 188 178 195
-0.048956137 -0.39436471 -0.67631161 183 170 188
-0.049668465 -0.39444584 -0.67627949 184 171 189
-0.051607836 -0.39542913 -0.67622161 191 178 197
-0.051497467 -0.39519742 -0.67622197 190 177 196
-0.049990252 -0.39315864 -0.67625844 183 169 187
-0.051466051 -0.39421564 -0.67625922 190 178 196
-0.052272841 -0.39338595 -0.67631441 194 184 199
-0.050377231 -0.39291573 -0.67627889 185 172 189
-0.050352506 -0.39300081 -0.67627484 185 172 189
-0.045167614 -0.39540687 -0.67620349 197 192 210
-0.045415476 -0.39482617 -0.6762256 198 192 211
-0.045050517 -0.39327484 -0.67622513 202 197 215
-0.047403812 -0.39517856 -0.67633593 194 186 203
-0.046585273 -0.39627373 -0.67627406 193 186 203
-0.045112733 -0.39327443 -0.67622876 202 196 215
-0.04799417 -0.39271611 -0.67624897 183 171 189
-0.047074798 -0.39407399 -0.67629713 193 185 203
-0.046627946 -0.39312136 -0.67625743 194 185 203
-0.046401575 -0.39359349 -0.67627472 197 189 207
-0.045388762 -0.39287716 -0.67624122 201 195 214
-0.04767156 -0.39444679 -0.67631495 190 181 199
-0.043880548 -0.39560288 -0.67618972 195 186 207
-0.042425059 -0.39401668 -0.67623377 197 181 207
-0.043577682 -0.39389879 -0.67622423 199 188 210
-0.043964889 -0.39504147 -0.67620474 197 188 209
-0.043807678 -0.39395675 -0.67622089 199 189 211
-0.044433542 -0.39494279 -0.67620087 198 191 211
-0.042002145 -0.39294037 -0.67625433 199 181 208
-0.040895458 -0.39260098 -0.67626536 198 177 205
-0.038588341 -0.3929823 -0.67618001 187 181 204
-0.033787847 -0.39511845 -0.67630345 186 178 200
-0.034253638 -0.39444128 -0.67629641 186 179 200
-0.033274826 -0.39637813 -0.676292 185 176 200
-0.034174051 -0.39343059 -0.67633969 189 181 199
-0.033426549 -0.39353868 -0.67638755 191 180 198
-0.034876827 -0.39598081 -0.67617637 180 171 194
-0.03334469 -0.39635563 -0.67628771 184 176 200
-0.031244028 -0.39555603 -0.67643416 173 157 179
-0.032139551 -0.39563647 -0.67637473 179 166 190
-0.031109076 -0.39307442 -0.67650944 177 160 180
-0.031162046 -0.39432916 -0.67646027 174 159 182
-0.032721255 -0.39435938 -0.67639291 186 174 194
-0.030847138 -0.39277962 -0.67653161 176 158 178
-0.032564029 -0.39494699 -0.67637759 183 172 193
-0.05310192 -0.39905205 -0.67626524 198 184 204
-0.053177428 -0.39899379 -0.67626804 198 184 205
-0.054764558 -0.39881352 -0.67634368 198 190 211
-0.055237912 -0.39901116 -0.67637014 198 191 213
-0.052754149 -0.39802629 -0.6762321 197 183 203
-0.053301997 -0.39649838 -0.67623854 201 190 207
-0.056300003 -0.40003195 -0.67643863 199 195 217
-0.051440433 -0.39980164 -0.67629635 195 180 200
-0.05059186 -0.3991563 -0.67632067 193 179 199
-0.051786773 -0.40035418 -0.67627996 196 180 201
-0.049748149 -0.39743501 -0.67636901 191 179 197
-0.049931232 -0.39969257 -0.67631656 191 176 197
-0.052569792 -0.39860204 -0.67624825 197 183 203
-0.050764684 -0.3973169 -0.67631781 193 181 199
-0.051425103 -0.39774135 -0.67629164 194 182 200
-0.051016591 -0.39824954 -0.67631984 194 181 200
-0.0495864 -0.39700273 -0.67637146 190 179 197
-0.047075499 -0.39912078 -0.67625087 189 176 198
-0.048244424 -0.39993361 -0.67629308 189 174 197
-0.045792907 -0.39939317 -0.67620295 184 169 192
-0.046008669 -0.3999255 -0.67621017 183 165 189
-0.045975558 -0.39852569 -0.67621106 189 177 198
-0.048335653 -0.39844033 -0.67632896 189 177 197
-0.047770184 -0.39893082 -0.67628527 190 178 199
-0.046907552 -0.39723757 -0.67627311 192 183 202
-0.048826452 -0.39749336 -0.67637843 189 177 196
-0.048015952 -0.39725792 -0.67633677 190 180 198
-0.047746263 -0.39827803 -0.67629844 190 179 199
-0.033876304 -0.39813817 -0.67625517 179 163 186
-0.033520103 -0.39984334 -0.67630833 179 158 179
-0.034102675 -0.3989636 -0.67625242 181 163 185
-0.035118967 -0.39885139 -0.67618108 188 172 193
-0.034612693 -0.40020996 -0.67624056 187 167 187
-0.031937823 -0.39770171 -0.67638993 174 155 177
-0.032769483 -0.39911154 -0.67635274 177 157 178
-0.031679165 -0.3978343 -0.67640835 172 152 173
-0.033112299 -0.39694053 -0.6763044 183 172 196
-0.03311995 -0.39697313 -0.67630428 183 172 196
-0.061184667 -0.40304318 -0.67686325 214 199 222
-0.057662629 -0.40171376 -0.67656231 201 192 218
-0.057782315 -0.40258932 -0.67660075 199 187 215
-0.056897961 -0.40349194 -0.67658854 189 177 206
-0.060339648 -0.40413347 -0.67678928 210 190 221
-0.057176843 -0.40310267 -0.67658854 193 181 209
-0.060161728 -0.40306202 -0.67676061 214 198 225
-0.055462494 -0.40404519 -0.67654598 186 171 199
-0.055030048 -0.40347236 -0.67650223 188 173 199
-0.053085487 -0.40118879 -0.67631888 196 180 201
-0.052740384 -0.40321663 -0.67639846 191 174 195
-0.053974334 -0.40380725 -0.67647523 188 172 196
-0.055190742 -0.402661 -0.67647302 190 176 202
-0.056329615 -0.40368041 -0.67656684 187 173 202
-0.05568298 -0.40201172 -0.67647344 193 182 207
-0.053844899 -0.40095007 -0.6763435 197 183 204
-0.055108372 -0.40201646 -0.67644519 193 180 205
-0.051885035 -0.40389568 -0.67640173 188 170 192
-0.050167549 -0.40356934 -0.67628956 186 167 191
-0.05254747 -0.40426245 -0.67643577 188 170 192
-0.051182926 -0.40419388 -0.67633933 186 168 191
-0.049340747 -0.40243796 -0.67627287 186 169 192
-0.052647766 -0.40370747 -0.67642182 190 172 194
-0.050594334 -0.40209115 -0.67637157 189 172 194
-0.051818285 -0.40303341 -0.67640054 189 172 194
-0.051705524 -0.40222195 -0.67636448 191 174 196
-0.050481863 -0.40175408 -0.67635733 189 173 195
-0.047380045 -0.40418205 -0.67622417 185 169 191
-0.046542149 -0.40401685 -0.67626262 186 173 193
-0.046646778 -0.40264174 -0.67631131 188 176 195
-0.046773538 -0.40254751 -0.67631006 188 176 195
-0.048601516 -0.40291396 -0.6762259 185 167 191
-0.048070092 -0.40411547 -0.67620021 184 167 190
-0.047081463 -0.40181142 -0.6763019 188 174 194
-0.04605573 -0.40229329 -0.67628175 186 172 193
-0.04729161 -0.40058723 -0.67626435 185 167 191
-0.045850679 -0.40312168 -0.67630482 188 176 195
-0.045002822 -0.40381899 -0.67629921 187 177 194
-0.041937862 -0.40350839 -0.67625833 193 184 201
-0.04417228 -0.40402231 -0.67629719 189 180 196
-0.042645827 -0.40368751 -0.6762712 192 183 199
-0.042469606 -0.4028706 -0.67623961 190 180 195
-0.044668838 -0.40406719 -0.67630327 188 179 195
-0.044796918 -0.4025318 -0.67624748 184 169 190
-0.044169232 -0.40373236 -0.67628652 188 179 195
-0.04482739 -0.4009254 -0.67618823 179 160 184
-0.044235904 -0.40265501 -0.67624718 185 173 191
-0.039671462 -0.40367824 -0.6761781 198 187 202
-0.035379089 -0.4010154 -0.67620575 191 168 189
-0.035783943 -0.40295637 -0.67617548 191 167 187
-0.072540678 -0.40740442 -0.67855394 187 177 188
-0.072577588 -0.4080584 -0.67859495 188 178 186
-0.072390981 -0.40679875 -0.6784972 189 178 191
-0.07128863 -0.40766817 -0.67833179 188 176 188
-0.07188417 -0.40799057 -0.67846578 190 180 188
-0.070817359 -0.40799579 -0.67825145 190 174 188
-0.069416292 -0.40732944 -0.67794025 185 165 187
-0.072063208 -0.40669778 -0.67843258 189 179 192
-0.065325767 -0.4069075 -0.67739898 195 177 202
-0.067636564 -0.40808341 -0.67768151 193 166 192
-0.065901712 -0.40735132 -0.67747176 195 175 201
-0.064794935 -0.40471369 -0.67730457 189 175 193
-0.064521953 -0.40814027 -0.6773259 200 185 216
-0.065312669 -0.40732303 -0.67740387 196 178 205
-0.065652832 -0.40490803 -0.67738885 185 169 190
-0.067531385 -0.40724698 -0.67765296 190 165 188
-0.06583783 -0.40520915 -0.67741799 186 169 190
-0.061484005 -0.4068827 -0.67698181 215 205 222
-0.062626012 -0.40641525 -0.67708027 205 188 219
-0.062184751 -0.40708688 -0.67705792 211 199 220
-0.062694609 -0.40710533 -0.67710918 208 194 219
-0.060683452 -0.40454605 -0.67682749 211 191 221
-0.063882016 -0.40670723 -0.67722982 199 184 212
-0.063699946 -0.40728599 -0.6772176 202 186 216
-0.062899351 -0.40572363 -0.67710072 202 185 213
-0.063306458 -0.40699738 -0.67716753 203 187 218
-0.062909514 -0.40530461 -0.67709547 200 184 210
-0.06298437 -0.40665323 -0.67712486 204 187 218
-0.058750074 -0.40727478 -0.67681044 208 199 212
-0.057128061 -0.40714458 -0.67672545 193 170 199
-0.057426348 -0.40671936 -0.67672586 195 177 202
-0.056824733 -0.40708837 -0.67670846 190 165 197
-0.060342249 -0.40814582 -0.67691892 224 224 223
-0.058966979 -0.40750888 -0.67682904 211 202 213
-0.060503762 -0.40594894 -0.67685664 217 206 223
-0.05824551 -0.40475029 -0.67670208 197 183 209
-0.059641376 -0.40667754 -0.6768356 214 208 218
-0.059127104 -0.40479913 -0.67674899 203 188 214
-0.060298976 -0.40512735 -0.6768198 212 197 221
-0.05321449 -0.40593955 -0.67650318 186 165 192
-0.054521047 -0.40684274 -0.67659301 187 162 193
-0.054564878 -0.40643659 -0.67658865 188 164 193
-0.053524703 -0.40595996 -0.67652124 187 165 192
-0.053291917 -0.4057118 -0.67650372 187 166 192
-0.054906297 -0.40622282 -0.6766004 189 165 193
-0.055052236 -0.40578791 -0.67659152 188 166 195
-0.05468905 -0.40468478 -0.67653966 187 169 196
-0.054628156 -0.40509272 -0.67655098 188 168 195
-0.054361366 -0.40527266 -0.67654639 188 168 194
-0.052302022 -0.40431595 -0.67641693 188 170 192
-0.049679793 -0.40592802 -0.67625266 187 172 189
-0.048894197 -0.40801555 -0.67622972 189 180 188
-0.049509443 -0.40471947 -0.67622042 184 166 189
-0.050814312 -0.40457952 -0.67631298 186 168 191
-0.049793132 -0.4050858 -0.67624706 185 169 189
-0.049809624 -0.408077 -0.67629772 187 175 189
-0.051815167 -0.40614364 -0.67641193 187 170 191
-0.050227292 -0.40688327 -0.67630816 189 177 189
-0.05120118 -0.4061431 -0.67636698 188 173 190
-0.049364123 -0.40773311 -0.67625928 189 179 188
-0.048799355 -0.40749928 -0.67621762 188 177 188
-0.048113015 -0.40470937 -0.67619848 184 168 189
-0.048355915 -0.40735638 -0.67623228 189 179 189
-0.047025155 -0.40531972 -0.6762501 187 175 191
-0.046767026 -0.40603167 -0.67627156 189 179 192
-0.04818118 -0.40670738 -0.6762284 188 176 189
-0.046536729 -0.40797889 -0.6761933 194 180 189
-0.045636691 -0.40676737 -0.67622602 193 180 191
-0.045077994 -0.40607673 -0.67624378 193 180 192
-0.046183765 -0.40703201 -0.6762256 193 180 190
-0.047915794 -0.4078564 -0.67622483 191 180 188
-0.04591966 -0.40633041 -0.67624944 191 180 192
-0.041772604 -0.40572995 -0.67622977 202 189 206
-0.041348197 -0.40584263 -0.67622322 204 190 209
-0.043509144 -0.40693364 -0.67619455 200 184 197
-0.041728392 -0.40527475 -0.67624652 200 188 206
-0.044834279 -0.40536585 -0.67626923 192 180 194
-0.043789867 -0.40533951 -0.67626095 194 182 197
-0.04485964 -0.40580907 -0.67625123 193 180 193
-0.044058897 -0.40627658 -0.67622483 196 182 195
-0.043874927 -0.40558583 -0.67625159 195 182 197
-0.039453633 -0.40769908 -0.67619067 200 184 205
-0.039729655 -0.4072144 -0.676202 200 185 206
-0.040992025 -0.40447745 -0.67627287 199 190 209
-0.04095928 -0.40610486 -0.67621297 206 192 211
-0.039891951 -0.40561637 -0.67625761 195 184 204
-0.038324732 -0.40572849 -0.67618775 194 182 201
-0.038484253 -0.40571809 -0.67619663 194 182 201
-0.039292034 -0.40582868 -0.67624867 193 182 202
-0.038617242 -0.40574592 -0.67620564 194 182 201
-0.036331702 -0.40526277 -0.67617255 189 168 188
-0.072903246 -0.40991539 -0.67872757 184 176 185
-0.073270239 -0.4102796 -0.67880058 178 170 181
-0.072804101 -0.41183135 -0.67879856 189 184 192
-0.073088996 -0.40990409 -0.6787557 181 172 182
-0.074635625 -0.41086295 -0.67903769 156 145 164
-0.074146137 -0.40982464 -0.67891747 164 152 169
-0.073628165 -0.40859851 -0.67878824 174 161 176
-0.073991597 -0.4092457 -0.67887115 168 155 172
-0.074450716 -0.40990904 -0.67897016 160 147 166
-0.071149975 -0.4112986 -0.67847234 197 187 198
-0.069685593 -0.41133171 -0.67820567 195 178 199
-0.068920612 -0.41107747 -0.67804939 194 173 198
-0.069705978 -0.40990138 -0.67811972 194 175 193
-0.070944071 -0.4119305 -0.67847419 197 187 200
-0.071367025 -0.40894026 -0.67840439 193 180 191
-0.071572401 -0.41038662 -0.67851084 195 186 195
-0.071972251 -0.40930691 -0.67854267 193 185 192
-0.070039622 -0.40918157 -0.67814821 193 174 191
-0.071378514 -0.41057909 -0.67848051 196 186 196
-0.065369613 -0.41059443 -0.67747307 200 185 212
-0.067526713 -0.41152 -0.67786223 195 175 205
-0.06598489 -0.40991431 -0.67758936 198 180 211
-0.067675829 -0.41184741 -0.67788762 195 175 205
-0.064700879 -0.40987313 -0.67735487 201 188 215
-0.066825047 -0.41024452 -0.67771852 196 176 207
-0.065294586 -0.40863514 -0.67744237 199 182 212
-0.067303196 -0.40877712 -0.67768121 194 170 198
-0.065589786 -0.40831399 -0.67745608 198 179 208
-0.066073313 -0.40927935 -0.67757195 197 178 209
-0.067759633 -0.40859127 -0.67772174 193 167 193
-0.062331755 -0.41048723 -0.677082 212 208 219
-0.061558537 -0.40969896 -0.67701006 217 215 221
-0.062913969 -0.41167217 -0.67711693 205 198 217
-0.060796559 -0.41188312 -0.67684281 202 197 221
-0.061556377 -0.40922529 -0.67702514 220 219 222
-0.062211957 -0.40993398 -0.67708492 216 212 220
-0.062917441 -0.40858072 -0.67716432 211 203 219
-0.063793592 -0.40921 -0.67724782 205 195 217
-0.060798109 -0.40840587 -0.67695487 225 225 224
-0.064373128 -0.41033927 -0.67729902 202 191 215
-0.063989155 -0.41029972 -0.67726111 205 195 216
-0.06388323 -0.41047612 -0.67724955 205 196 216
-0.057538029 -0.4103744 -0.67675006 195 176 207
-0.058006097 -0.40993139 -0.67675978 194 174 205
-0.05723023 -0.40912452 -0.67674649 192 166 200
-0.056783784 -0.4108094 -0.67673498 196 177 208
-0.05784015 -0.41178578 -0.67675328 199 186 215
-0.058564734 -0.41030526 -0.67676967 195 178 208
-0.058268018 -0.40924525 -0.67678392 198 179 206
-0.059937056 -0.40997729 -0.67684299 209 202 218
-0.057857089 -0.40837011 -0.67679197 200 179 203
-0.05853907 -0.40893847 -0.67680734 203 186 208
-0.060395669 -0.41069832 -0.67684233 208 204 221
-0.05374356 -0.41095173 -0.67657071 196 182 210
-0.052855741 -0.40985268 -0.67652154 190 173 204
-0.05427457 -0.40985563 -0.67659926 189 170 201
-0.052976042 -0.40946159 -0.67652792 188 169 200
-0.055113174 -0.41144559 -0.67664593 197 183 212
-0.053484038 -0.40865752 -0.67655605 183 161 194
-0.053737279 -0.40851054 -0.67657071 184 160 194
-0.0549675 -0.4093678 -0.67663938 189 166 199
-0.056334615 -0.41067457 -0.67671508 195 176 207
-0.05500723 -0.41035184 -0.67663991 191 173 204
-0.055471059 -0.40853831 -0.67666966 188 161 195
-0.050562352 -0.41093874 -0.67639816 202 194 212
-0.051013391 -0.41052321 -0.67639482 198 190 207
-0.04936051 -0.41044742 -0.67633957 203 194 208
-0.050403614 -0.4099991 -0.67635351 197 188 203
-0.048955008 -0.41137499 -0.67636597 210 200 217
-0.052641727 -0.40976104 -0.67650807 190 173 203
-0.049898025 -0.4092328 -0.6763069 193 184 196
-0.051166575 -0.40944159 -0.67639989 191 179 199
-0.05114489 -0.40855569 -0.6763978 186 170 192
-0.051899534 -0.41036761 -0.67645401 195 183 207
-0.046257492 -0.40979126 -0.67625386 190 174 194
-0.044978019 -0.41018173 -0.67624772 192 172 195
-0.047217205 -0.40892276 -0.67623115 191 177 190
-0.044994626 -0.41131428 -0.67630172 188 168 199
-0.048122812 -0.41070038 -0.67632353 201 189 207
-0.047454644 -0.4101966 -0.67629284 192 179 198
-0.046402823 -0.41163659 -0.67633891 194 177 206
-0.045990158 -0.41128477 -0.67631823 188 170 200
-0.046691295 -0.41168419 -0.67634493 196 180 208
-0.042600937 -0.41138062 -0.6763041 181 161 189
-0.043945771 -0.41177216 -0.6763221 184 163 197
-0.04169257 -0.40994763 -0.67622709 195 175 199
-0.041716833 -0.40962756 -0.67620933 199 180 203
-0.044865619 -0.41189286 -0.67632759 186 165 201
-0.044872135 -0.4108209 -0.6762768 190 170 198
-0.041444246 -0.40902048 -0.6761784 203 184 204
-0.043833774 -0.41079172 -0.67627144 192 172 201
-0.044295482 -0.40896767 -0.6761868 198 178 194
-0.040208548 -0.40934166 -0.67621565 192 174 196
-0.040227536 -0.40878096 -0.67618406 200 182 203
-0.037761722 -0.40831679 -0.67622 187 172 195
-0.038158577 -0.40836447 -0.67621273 189 174 197
-0.069226749 -0.41442451 -0.67818594 177 159 190
-0.068403579 -0.41426986 -0.67802209 187 169 194
-0.068732359 -0.41451305 -0.67808771 183 165 192
-0.068592094 -0.41292843 -0.67805821 189 168 198
-0.070802562 -0.41380647 -0.67848724 170 153 189
-0.069198735 -0.41237906 -0.67816949 190 171 200
-0.069477037 -0.41300175 -0.67823082 181 161 196
-0.07059136 -0.41231209 -0.678424 193 181 200
-0.0715532 -0.41350085 -0.67861998 176 164 191
-0.064581953 -0.41225588 -0.67732131 202 193 213
-0.065750249 -0.41563153 -0.67761689 184 170 188
-0.06741707 -0.41592994 -0.67787319 183 169 187
-0.066520371 -0.41594747 -0.67774183 182 168 186
-0.065331489 -0.4148829 -0.67752784 188 175 193
-0.066154331 -0.41547769 -0.67767072 185 171 189
-0.068305433 -0.41232395 -0.67800146 193 172 202
-0.065820642 -0.41247645 -0.6775474 198 186 208
-0.067276686 -0.41279685 -0.67781383 194 177 203
-0.066560417 -0.41245905 -0.67768258 197 181 206
-0.067915067 -0.41425288 -0.67793202 189 172 196
-0.062643915 -0.4144468 -0.67715496 189 179 199
-0.060670454 -0.41273877 -0.67684418 198 192 216
-0.061188955 -0.41393816 -0.67695558 194 184 206
-0.060955323 -0.41313866 -0.67689514 197 189 213
-0.061575927 -0.41366422 -0.67699242 194 185 207
-0.063394994 -0.41468862 -0.6772579 187 176 196
-0.063139185 -0.41390532 -0.67719692 192 182 202
-0.062483184 -0.41271985 -0.67707074 198 190 213
-0.061771784 -0.41218567 -0.67696142 201 194 218
-0.062576443 -0.4140754 -0.67713213 190 181 202
-0.058150508 -0.41476759 -0.67684901 191 180 201
-0.056844655 -0.41297433 -0.67675948 196 184 211
-0.057975192 -0.41508296 -0.67685181 189 180 200
-0.057175081 -0.41503084 -0.67682487 189 182 201
-0.057554185 -0.41307729 -0.67678493 197 183 209
-0.057040486 -0.41426927 -0.67680025 192 183 205
-0.060381483 -0.41267833 -0.67682344 199 192 217
-0.060486563 -0.41566789 -0.67694408 190 176 193
-0.058680177 -0.41400343 -0.67684376 194 181 203
-0.059218373 -0.41444108 -0.6768713 193 180 201
-0.057996321 -0.41303787 -0.6767925 197 184 210
-0.05396045 -0.41353181 -0.67662472 196 189 212
-0.053748231 -0.41338977 -0.67661065 197 189 212
-0.053662315 -0.41552657 -0.67670435 181 161 191
-0.054545142 -0.41573682 -0.67674571 181 167 193
-0.053819563 -0.41347444 -0.67661703 196 188 212
-0.054550942 -0.41314584 -0.67664313 198 190 213
-0.055127311 -0.41353855 -0.67668515 196 188 211
-0.053873967 -0.41257611 -0.67659086 201 192 217
-0.054784462 -0.41381738 -0.67667377 195 189 210
-0.055229925 -0.41238752 -0.67666012 200 189 216
-0.056023691 -0.41366979 -0.67673773 194 186 209
-0.051104974 -0.41549999 -0.67662203 187 167 194
-0.049530491 -0.41600537 -0.67660224 196 183 201
-0.048828587 -0.41418755 -0.67649406 208 198 214
-0.050288629 -0.41595945 -0.67662138 191 174 197
-0.051564842 -0.41528279 -0.67662442 185 162 193
-0.052114062 -0.41269073 -0.67652285 201 190 215
-0.052408699 -0.41550258 -0.67665952 179 154 188
-0.052330282 -0.41502571 -0.67663544 183 160 193
-0.052434146 -0.41467604 -0.67662287 185 164 196
-0.050971635 -0.41378868 -0.67653662 196 179 206
-0.047247149 -0.41496393 -0.67650551 191 177 198
-0.045569755 -0.41334623 -0.67640275 185 166 196
-0.045283549 -0.4132098 -0.67639095 183 163 194
-0.048723429 -0.41534233 -0.67654878 202 192 207
-0.048733074 -0.41365013 -0.67646658 209 199 216
-0.047149118 -0.41259557 -0.67639297 201 186 212
-0.04845003 -0.41256937 -0.67641002 211 200 220
-0.048334964 -0.41383499 -0.67646998 205 194 213
-0.044791915 -0.41337991 -0.67639041 177 157 187
-0.044482734 -0.41275832 -0.67636585 179 159 191
-0.0432023 -0.4124108 -0.67635518 173 153 182
-0.044559769 -0.41279104 -0.67636693 179 159 191
-0.068458594 -0.41724193 -0.67809129 173 156 178
-0.068910018 -0.41663101 -0.67814648 178 162 181
-0.069784485 -0.41660535 -0.67831868 168 152 178
-0.066455781 -0.4162733 -0.67774689 180 165 184
-0.060619339 -0.41938236 -0.67710793 173 169 180
-0.061164778 -0.41800043 -0.6771279 177 166 185
-0.061790943 -0.41742706 -0.67719263 177 160 186
-0.062837102 -0.4186894 -0.67739224 166 148 183
-0.063131899 -0.41935486 -0.67746127 162 144 181
-0.063107952 -0.41756123 -0.67736572 173 155 184
-0.06410262 -0.41735137 -0.67747581 172 155 183
-0.063525692 -0.41679269 -0.67737174 177 161 184
-0.063997425 -0.41731134 -0.67746049 172 155 183
-0.064001277 -0.41841877 -0.67752647 165 145 182
-0.058148548 -0.41794273 -0.67696244 176 173 187
-0.057495601 -0.41725165 -0.67691296 179 176 191
-0.058571868 -0.41813716 -0.67698354 176 174 187
-0.057627127 -0.41890413 -0.67698801 169 159 176
-0.059557512 -0.4161481 -0.67693281 187 176 192
-0.058566932 -0.41633925 -0.67690897 185 178 194
-0.056818549 -0.41617087 -0.67684603 184 182 198
-0.060261775 -0.41887572 -0.67706776 175 171 182
-0.059172418 -0.41845202 -0.67701542 176 174 186
-0.052871868 -0.41807589 -0.67677581 164 137 175
-0.052938271 -0.41688144 -0.67673391 170 143 179
-0.052778751 -0.41755298 -0.67675233 166 139 177
-0.053149559 -0.41840976 -0.67679983 162 136 173
-0.0531528 -0.41848186 -0.67680264 162 136 173
-0.053194325 -0.417676 -0.67677426 166 140 176
-0.056545589 -0.41649151 -0.67685097 181 177 194
-0.055265203 -0.41641116 -0.67680138 178 166 189
-0.056600045 -0.41613594 -0.67683768 184 181 197
-0.056191035 -0.41721994 -0.67686957 176 165 186
-0.053894293 -0.41702148 -0.67677814 171 146 178
-0.048912622 -0.41647714 -0.67661148 196 186 202
-0.048896246 -0.41904807 -0.67676806 171 163 189
-0.050423458 -0.41872829 -0.67675561 170 155 184
-0.048967738 -0.41859517 -0.67674083 175 166 191
-0.049809612 -0.41810918 -0.67671508 178 165 190
-0.051069405 -0.41753817 -0.67670304 177 158 186
-0.051262956 -0.41658637 -0.67667288 181 160 189
-0.052272703 -0.41830456 -0.67676556 165 141 177
-0.052087087 -0.4172655 -0.67672151 172 148 182
-0.052245233 -0.41830924 -0.67676497 165 141 177
-0.048129857 -0.41689754 -0.6766215 185 174 192
-0.048527312 -0.41778705 -0.67668438 180 171 192
-0.047998875 -0.4161419 -0.67657262 191 180 195
-0.048484806 -0.41669932 -0.67661715 191 180 197
-0.04770162 -0.41690227 -0.67661244 181 169 187
-0.048328292 -0.41773984 -0.67667717 179 169 190
-0.052579597 -0.42005464 -0.67684805 153 128 168
0 0 0 1 0 0 0 1 0 0 0 1 0 0 0 0 0 663 1 0 0
