ply
format ascii 1.0
comment PCL generated
element vertex 257
property float x
property float y
property float z
property uchar red
property uchar green
property uchar blue
element camera 1
property float view_px
property float view_py
property float view_pz
property float x_axisx
property float x_axisy
property float x_axisz
property float y_axisx
property float y_axisy
property float y_axisz
property float z_axisx
property float z_axisy
property float z_axisz
property float focal
property float scalex
property float scaley
property float centerx
property float centery
property int viewportx
property int viewporty
property float k1
property float k2
end_header
-0.1945022 -0.16534442 -0.78909093 166 129 146
-0.19391343 -0.16526067 -0.78821409 168 133 150
-0.19385105 -0.16526484 -0.78811508 169 134 151
-0.19379136 -0.1656789 -0.78782946 176 145 158
-0.1942849 -0.16483502 -0.78899008 159 118 140
-0.19324605 -0.16503614 -0.78726453 166 132 150
-0.19331297 -0.16436777 -0.78768927 157 117 141
-0.19325447 -0.16469121 -0.78743935 161 124 145
-0.19253674 -0.16458797 -0.78628606 152 122 136
-0.19243948 -0.16397856 -0.78641868 145 114 128
-0.19415878 -0.1662087 -0.7882179 177 149 158
-0.19436541 -0.16711476 -0.78841627 167 143 148
-0.19487306 -0.16881049 -0.78897566 149 131 129
-0.19420986 -0.16654384 -0.78825182 173 147 155
-0.19390394 -0.1674908 -0.78760809 171 150 153
-0.19371213 -0.16857979 -0.78700256 178 159 159
-0.19398428 -0.16901508 -0.78737956 171 154 151
-0.19429098 -0.1697221 -0.78775173 163 148 143
-0.19362524 -0.1669438 -0.78724664 178 155 160
-0.19321118 -0.16888894 -0.7860797 187 168 168
-0.19300732 -0.16856143 -0.78582788 184 164 165
-0.19304767 -0.16656876 -0.78634667 179 156 163
-0.19337663 -0.1712456 -0.78585225 154 136 133
-0.19355604 -0.17344153 -0.78579926 89 68 67
-0.19351622 -0.1723074 -0.78592175 121 102 99
-0.19419427 -0.17164199 -0.78723842 120 102 99
-0.19385059 -0.17166923 -0.7866239 129 111 108
-0.19453686 -0.1700922 -0.78811044 152 138 132
-0.19424795 -0.17202608 -0.78726828 108 90 87
-0.19525754 -0.17025442 -0.78933138 132 117 111
-0.19419573 -0.17319524 -0.7868759 90 68 69
-0.19500925 -0.17077006 -0.78880453 124 108 103
-0.19417398 -0.17299126 -0.78689826 93 72 71
-0.19429901 -0.17343375 -0.78697044 87 63 65
-0.19573158 -0.17255436 -0.78943372 98 73 78
-0.19312491 -0.17003094 -0.78568017 186 168 165
-0.19494651 -0.17570557 -0.78771764 74 43 54
-0.19527459 -0.17665631 -0.78807336 97 65 81
-0.19578049 -0.17483881 -0.78904599 88 57 69
-0.19563746 -0.17497252 -0.78882015 85 54 67
-0.19444196 -0.17698421 -0.78681648 77 45 57
-0.19448847 -0.17533296 -0.78704405 73 44 52
-0.19450669 -0.17500058 -0.78709692 75 47 54
-0.1950203 -0.17470178 -0.78791553 76 47 55
-0.19464441 -0.17437814 -0.78735667 78 51 57
-0.19513252 -0.17406499 -0.78813684 79 51 58
-0.19539827 -0.17456196 -0.78851199 76 46 56
-0.19377659 -0.18274803 -0.78582788 126 116 89
-0.19367956 -0.18263416 -0.78567934 128 119 90
-0.19397515 -0.18308076 -0.78614461 121 108 85
-0.1959506 -0.18303825 -0.78897095 124 101 102
-0.19432545 -0.18217528 -0.78653556 134 129 98
-0.19450933 -0.18207744 -0.78679532 137 130 103
-0.19599637 -0.18274537 -0.78901398 130 107 109
-0.19527154 -0.18312882 -0.78798968 119 104 92
-0.19483386 -0.18294938 -0.78733802 121 110 89
-0.19063175 -0.16543587 -0.78297693 124 98 110
-0.19098251 -0.16545613 -0.78349781 132 107 118
-0.19090562 -0.16521673 -0.78348744 129 105 115
-0.19024609 -0.16584232 -0.78221482 118 89 104
-0.19269967 -0.1680849 -0.78542709 177 157 160
-0.19224645 -0.1672671 -0.78490269 166 147 150
-0.19061127 -0.16973436 -0.78191245 143 127 119
-0.19218317 -0.16682145 -0.78489667 164 144 149
-0.19255407 -0.16791892 -0.78523898 174 154 157
-0.19282396 -0.16852041 -0.78552806 181 161 163
-0.19080134 -0.16848639 -0.78245997 142 123 122
-0.19124216 -0.16771905 -0.78328627 148 128 130
-0.19148964 -0.16656904 -0.78390074 148 125 133
-0.19121116 -0.16603492 -0.78359181 140 114 127
-0.19109961 -0.16643628 -0.78333938 139 114 125
-0.19055679 -0.16859059 -0.78206873 137 118 116
-0.19085965 -0.16783284 -0.78268468 140 119 122
-0.19295572 -0.17317326 -0.78483087 104 82 80
-0.19247867 -0.17365156 -0.78397822 92 67 66
-0.19319786 -0.17153504 -0.78552485 146 127 125
-0.19294827 -0.17275791 -0.78489906 115 94 92
-0.19272031 -0.17291038 -0.78450733 112 89 87
-0.19250797 -0.17234981 -0.78427351 127 104 102
-0.19110532 -0.1706267 -0.78246987 142 123 117
-0.19194667 -0.17087354 -0.78369617 154 133 130
-0.19121714 -0.17299873 -0.78211212 108 80 79
-0.19288267 -0.16994458 -0.78532833 186 167 164
-0.19135277 -0.17124498 -0.78270906 137 116 111
-0.1916187 -0.17267203 -0.78279632 121 93 92
-0.19338605 -0.17441921 -0.78535134 81 59 59
-0.19282603 -0.17557681 -0.78450012 93 69 75
-0.19289581 -0.17660867 -0.78455275 91 64 72
-0.19190638 -0.17727527 -0.78310925 109 84 99
-0.19110243 -0.17752494 -0.78194964 124 101 120
-0.19334036 -0.17598037 -0.78521633 83 56 61
-0.19301885 -0.17691436 -0.78471452 88 60 69
-0.19167963 -0.17503965 -0.78274119 101 75 81
-0.19176456 -0.17478147 -0.78286177 98 73 77
-0.19163911 -0.17522053 -0.78268683 102 77 84
-0.1919038 -0.17443968 -0.78306401 95 69 71
-0.19216341 -0.1746664 -0.78348881 96 71 75
-0.19145185 -0.1747569 -0.78236383 99 72 76
-0.19358505 -0.17874214 -0.78546065 87 64 60
-0.19344927 -0.18068208 -0.78524745 130 122 92
-0.19330704 -0.17996618 -0.78506809 118 102 84
-0.19119346 -0.18131188 -0.78242093 92 44 67
-0.19254027 -0.1797079 -0.78411788 96 63 69
-0.19286853 -0.18045288 -0.7845161 116 95 83
-0.19224043 -0.18057117 -0.78373325 104 71 75
-0.19288376 -0.17953406 -0.78454745 101 73 73
-0.19292495 -0.17828669 -0.7846083 83 47 61
-0.19143154 -0.17907877 -0.78256893 100 63 86
-0.19144231 -0.17891015 -0.7825644 102 67 89
-0.19266702 -0.17824753 -0.7842353 88 54 68
-0.19103912 -0.18040663 -0.78216529 91 42 71
-0.19115892 -0.17806298 -0.78205961 118 92 112
-0.19359758 -0.18205197 -0.78549159 137 134 97
-0.19271009 -0.18185575 -0.78433019 129 112 92
-0.1927955 -0.18301886 -0.78458428 114 85 80
-0.19313757 -0.18305461 -0.78501439 122 99 85
-0.19279915 -0.18193792 -0.78445137 130 114 92
-0.19204256 -0.1816743 -0.78347683 117 88 83
-0.19067457 -0.18188523 -0.78178424 83 27 60
-0.19069345 -0.18201222 -0.78180504 83 27 60
-0.20119487 -0.17328182 -0.79916501 151 137 127
-0.20037217 -0.17324571 -0.79767865 138 124 116
-0.20085667 -0.17340995 -0.79850644 144 129 120
-0.20112678 -0.17322861 -0.79902065 150 137 127
-0.20185554 -0.17439759 -0.8009699 150 135 132
-0.20181228 -0.17515813 -0.8005091 137 121 121
-0.20178531 -0.17419462 -0.80082673 151 136 133
-0.20118842 -0.17547153 -0.79844356 141 119 117
-0.2013551 -0.1760499 -0.7987442 137 113 115
-0.2012043 -0.17430438 -0.79891217 141 125 118
-0.20057505 -0.17449708 -0.79770148 132 114 109
-0.20031832 -0.17419718 -0.79734671 129 112 106
-0.18810929 -0.17672274 -0.77741987 115 87 100
-0.18813825 -0.17479593 -0.77730572 109 80 99
-0.18842766 -0.17432931 -0.77771592 109 79 101
-0.19551492 -0.15957882 -0.79212487 159 126 142
-0.19548513 -0.16055995 -0.79207957 156 121 139
-0.19555348 -0.16068928 -0.79218942 157 123 140
-0.19581081 -0.15943186 -0.79259878 164 137 148
-0.19594269 -0.16001926 -0.79281157 166 140 148
-0.19728898 -0.16529065 -0.79284883 169 142 144
-0.19625019 -0.16574958 -0.79124296 170 141 147
-0.19652954 -0.16520089 -0.79194278 172 144 148
-0.19599168 -0.16583312 -0.79087073 171 141 148
-0.19577207 -0.16471647 -0.79125595 172 143 150
-0.19704548 -0.16451906 -0.7930156 173 147 148
-0.1961135 -0.16445898 -0.79184097 172 144 149
-0.19613211 -0.16387556 -0.79218811 171 143 149
-0.19582111 -0.16489345 -0.79122156 172 143 150
-0.19557093 -0.16321774 -0.79172421 164 130 143
-0.19547074 -0.16371253 -0.79134196 166 133 145
-0.19489138 -0.16298044 -0.79074138 149 104 130
-0.19523941 -0.1630777 -0.79125559 156 117 137
-0.19515885 -0.16430147 -0.79057825 164 128 144
-0.19493891 -0.16277021 -0.79091173 148 103 130
-0.19756791 -0.16642271 -0.79313588 167 143 140
-0.19735578 -0.16705999 -0.79268211 173 155 147
-0.19656435 -0.16904774 -0.79153264 167 159 142
-0.19635367 -0.1680133 -0.79103279 154 134 131
-0.19638307 -0.16802387 -0.79108441 155 136 132
-0.19581889 -0.16980818 -0.79036278 151 142 128
-0.19650327 -0.16803496 -0.79129118 158 141 135
-0.19684441 -0.16794115 -0.79186094 167 152 142
-0.1956027 -0.16816454 -0.79004258 152 130 130
-0.19559789 -0.16767743 -0.79008895 156 132 134
-0.19664362 -0.16614193 -0.79154068 166 138 143
-0.19689114 -0.16661143 -0.79179478 161 136 138
-0.19572273 -0.16846029 -0.79015851 148 129 127
-0.19676059 -0.17340696 -0.79104203 130 108 111
-0.19624867 -0.17344418 -0.79007107 99 74 79
-0.19645506 -0.1727224 -0.79063642 118 100 97
-0.19710399 -0.1730749 -0.79176891 153 136 134
-0.19631523 -0.17218399 -0.79054046 121 105 99
-0.19547042 -0.17018332 -0.78970408 137 123 115
-0.19554944 -0.17051098 -0.78973979 133 118 111
-0.19608028 -0.17228964 -0.79010731 113 93 91
-0.19792645 -0.17630823 -0.7926482 124 101 105
-0.19802141 -0.17662635 -0.79276717 120 97 100
-0.20214359 -0.17445841 -0.8016898 151 135 135
-0.20286445 -0.17522839 -0.80316508 142 126 132
-0.20214073 -0.17527901 -0.80143112 141 124 127
-0.20215665 -0.17575368 -0.80132318 135 118 122
-0.2026698 -0.17578532 -0.80253196 135 118 125
-0.18911961 -0.16550216 -0.7805804 111 79 96
-0.18985359 -0.16650185 -0.78141481 117 87 102
-0.19013625 -0.16965649 -0.78125834 137 118 113
-0.19018483 -0.16946164 -0.78134608 137 118 113
-0.18887365 -0.16750699 -0.77994734 117 82 100
-0.18809125 -0.16963464 -0.77872986 117 82 98
-0.18873049 -0.16844693 -0.77965432 119 85 101
-0.18809284 -0.1695763 -0.77873927 116 81 98
-0.18814951 -0.16807528 -0.7789939 111 74 95
-0.19047166 -0.17049579 -0.78155011 133 115 108
-0.18980324 -0.17021331 -0.78073829 132 108 106
-0.19024023 -0.17141449 -0.78107667 119 93 91
-0.18945885 -0.173565 -0.77927649 112 77 93
-0.19022888 -0.17257562 -0.78076535 109 79 82
-0.19002762 -0.17172022 -0.78070426 116 88 89
-0.19004394 -0.17301577 -0.78034818 109 76 84
-0.18900982 -0.17268863 -0.77887172 116 85 101
-0.18925083 -0.17076346 -0.77979404 128 101 106
-0.18860389 -0.17036459 -0.77915317 122 91 102
-0.18811835 -0.17265068 -0.77773935 108 75 99
-0.18815109 -0.17251654 -0.77782744 109 76 99
-0.18787917 -0.17007606 -0.77838105 115 79 97
-0.18829066 -0.1727269 -0.77792013 110 78 100
-0.19070916 -0.1744605 -0.78117788 102 71 77
-0.19045784 -0.17513439 -0.78082347 110 81 93
-0.190595 -0.17504872 -0.78103215 108 78 89
-0.19073334 -0.17455029 -0.78122032 102 72 78
-0.18953769 -0.17465577 -0.7793346 112 78 97
-0.18997541 -0.17552736 -0.78007942 117 87 106
-0.18952428 -0.17434591 -0.7793116 112 77 95
-0.18953939 -0.17709744 -0.77933937 113 87 107
-0.18920562 -0.17685537 -0.77889025 113 86 103
-0.18897632 -0.17753519 -0.77861089 115 89 105
-0.1884038 -0.17608947 -0.77781987 115 85 101
-0.18867411 -0.17459534 -0.77810127 111 79 99
-0.19015986 -0.18011908 -0.78072989 95 50 79
-0.19019526 -0.18012312 -0.78079063 95 51 80
-0.18997283 -0.17925148 -0.78028995 102 65 91
-0.19006631 -0.18116046 -0.78072733 93 44 73
-0.18996857 -0.18087772 -0.78052193 95 49 76
-0.18991259 -0.18134008 -0.78049695 94 47 74
-0.18934663 -0.17881559 -0.77919441 110 82 101
-0.18919322 -0.17880347 -0.77896309 111 85 101
-0.18828702 -0.17781189 -0.7777735 119 91 101
-0.18903476 -0.17796868 -0.77869469 114 89 105
-0.18832423 -0.17871615 -0.77786642 116 89 97
-0.18980059 -0.18175401 -0.78034669 95 48 73
-0.18963042 -0.18181486 -0.78005803 97 54 76
-0.19666129 -0.16205628 -0.79383707 172 149 149
-0.19727239 -0.16394125 -0.79362649 173 150 148
-0.19738968 -0.16219462 -0.79473627 177 160 152
-0.1975037 -0.16249423 -0.7947619 177 159 152
-0.19816606 -0.16345313 -0.79527795 177 159 155
-0.19823276 -0.16465691 -0.7948572 174 152 150
-0.19856176 -0.16503784 -0.79551649 179 158 157
-0.19858931 -0.16461816 -0.79565841 180 160 158
-0.19864704 -0.16514297 -0.79568619 180 160 159
-0.19673328 -0.16264464 -0.79363966 171 148 148
-0.19976319 -0.17256124 -0.79682553 159 145 137
-0.19917004 -0.17366816 -0.79539704 158 142 137
-0.19911049 -0.17329477 -0.79539722 165 150 144
-0.19987719 -0.17485437 -0.79645497 123 105 100
-0.1997828 -0.17588098 -0.79600483 121 99 98
-0.20004857 -0.17424572 -0.79690188 125 109 102
-0.20002276 -0.17474391 -0.7967146 125 107 102
-0.19933356 -0.17741768 -0.79485071 114 88 91
-0.19888246 -0.17584829 -0.79448986 126 106 104
-0.19849393 -0.17503895 -0.79389977 151 132 131
-0.19880743 -0.17603932 -0.79431981 124 104 102
-0.19876055 -0.17677157 -0.79411465 112 90 90
-0.19923562 -0.17557085 -0.79518986 121 102 99
-0.19894832 -0.17429504 -0.79486293 153 135 132
-0.19971135 -0.17845848 -0.79522854 125 95 100
-0.19890237 -0.17800321 -0.79404098 111 85 88
0 0 0 1 0 0 0 1 0 0 0 1 0 0 0 0 0 257 1 0 0
