ply
format ascii 1.0
comment PCL generated
element vertex 194
property float x
property float y
property float z
property uchar red
property uchar green
property uchar blue
element camera 1
property float view_px
property float view_py
property float view_pz
property float x_axisx
property float x_axisy
property float x_axisz
property float y_axisx
property float y_axisy
property float y_axisz
property float z_axisx
property float z_axisy
property float z_axisz
property float focal
property float scalex
property float scaley
property float centerx
property float centery
property int viewportx
property int viewporty
property float k1
property float k2
end_header
0.18123215 -0.5320397 -0.74012256 107 94 71
0.18140341 -0.52985197 -0.73972148 95 76 52
0.18092048 -0.53039241 -0.73956555 96 80 58
0.18032591 -0.53136474 -0.73941982 96 82 64
0.18000089 -0.53117728 -0.73917633 92 78 61
0.1793018 -0.53291595 -0.73908901 87 74 66
0.17961523 -0.53183943 -0.73906767 89 75 62
0.18390135 -0.53256005 -0.74190879 104 83 71
0.1851106 -0.53150797 -0.74246305 89 62 59
0.18310551 -0.53257036 -0.74141634 105 88 72
0.18438253 -0.53260338 -0.74221581 104 81 70
0.18260626 -0.53255409 -0.74110335 105 90 73
0.18408598 -0.53114492 -0.74176264 86 64 58
0.18508457 -0.53085214 -0.74232519 81 54 53
0.18257727 -0.53144217 -0.74084568 97 80 63
0.18378061 -0.5303182 -0.74138969 82 58 51
0.18208931 -0.53117865 -0.74046063 100 83 62
0.18208544 -0.53234524 -0.74072474 106 93 72
0.18203713 -0.53202957 -0.74062043 105 91 69
0.17921799 -0.53491729 -0.73945659 88 72 66
0.17866187 -0.53373992 -0.73885667 81 66 63
0.1788734 -0.53530282 -0.73932034 84 68 64
0.17972593 -0.53412175 -0.73960936 93 79 69
0.17911926 -0.53488392 -0.73938715 86 71 66
0.17893979 -0.53620797 -0.73955923 84 66 65
0.18160111 -0.53382903 -0.74074334 112 101 80
0.18060081 -0.53493637 -0.74034739 101 87 74
0.18104374 -0.53482771 -0.7406106 105 91 77
0.18154065 -0.53540653 -0.74106741 106 92 79
0.17979176 -0.53573537 -0.7400049 92 76 69
0.18103537 -0.53604162 -0.74088484 100 84 76
0.18437929 -0.53439021 -0.74257737 112 90 82
0.18444298 -0.53376567 -0.74249071 110 87 77
0.18358879 -0.53520936 -0.7422803 109 88 82
0.18268569 -0.53347617 -0.74133688 112 97 79
0.18274677 -0.53461981 -0.74163836 108 91 78
0.18262063 -0.53576952 -0.74182487 105 85 78
0.18244484 -0.5333814 -0.74116552 113 99 79
0.18187137 -0.53373057 -0.74088967 112 100 80
0.18089806 -0.53912532 -0.74149543 105 81 77
0.18058746 -0.53720522 -0.74086303 94 75 74
0.18058535 -0.53721654 -0.74086446 94 75 74
0.18209903 -0.54062611 -0.7425099 123 93 80
0.18304411 -0.53787524 -0.74250275 118 97 93
0.18275829 -0.53828931 -0.74242473 118 95 90
0.18205638 -0.5375424 -0.74185836 107 88 84
0.18022665 -0.54118377 -0.74153227 109 79 73
0.18919159 -0.52833617 -0.74485254 78 59 50
0.18829259 -0.52850145 -0.74423724 76 55 48
0.18895034 -0.52922487 -0.74482304 84 63 53
0.19044587 -0.5289793 -0.74580806 86 66 51
0.18951234 -0.52834332 -0.74507505 78 59 50
0.18993941 -0.528054 -0.74534601 74 55 47
0.18530586 -0.53186536 -0.74265504 93 65 62
0.18573844 -0.53050584 -0.74268639 78 48 50
0.18670547 -0.5320431 -0.74370748 101 77 67
0.18843088 -0.52960467 -0.74450767 85 63 54
0.18780811 -0.530604 -0.74424237 92 69 59
0.18574849 -0.532085 -0.7430051 95 68 63
0.18630816 -0.53094226 -0.7431953 86 59 56
0.18808013 -0.53064871 -0.74445319 94 72 61
0.18768297 -0.53153336 -0.74428636 105 82 68
0.18824017 -0.53127462 -0.74461943 107 86 69
0.18927966 -0.53132552 -0.7452929 123 103 78
0.18758196 -0.53163832 -0.7442317 105 83 69
0.18668154 -0.53270292 -0.74375677 113 89 74
0.18580636 -0.53310949 -0.74323368 108 83 72
0.19002381 -0.53218377 -0.74585634 142 121 87
0.19049636 -0.53231299 -0.74620283 138 114 84
0.18974584 -0.52951723 -0.74541479 92 73 57
0.19012634 -0.53111732 -0.74581474 123 103 75
0.19034499 -0.52979606 -0.74582535 99 79 59
0.18521568 -0.53399748 -0.74298847 114 90 82
0.18523495 -0.53593439 -0.74332476 127 104 103
0.18376833 -0.53625566 -0.74259079 115 96 93
0.18514794 -0.535927 -0.7432763 126 104 102
0.18902926 -0.5338003 -0.74540502 157 138 104
0.1881559 -0.53524029 -0.74505287 154 135 113
0.18793452 -0.53551465 -0.74495274 152 134 114
0.18693414 -0.53586602 -0.74439418 144 123 112
0.18694186 -0.53601944 -0.74441713 144 124 113
0.18628736 -0.53690279 -0.74412978 141 121 118
0.18815681 -0.53566408 -0.74510407 155 138 117
0.18612827 -0.5340569 -0.74358845 121 96 85
0.18571937 -0.53466403 -0.743424 119 95 89
0.18632598 -0.5332976 -0.74359238 118 93 78
0.18842268 -0.53375834 -0.74501556 150 128 99
0.18798153 -0.53440744 -0.74483716 148 127 103
0.1867508 -0.53575933 -0.74426514 141 120 109
0.18718749 -0.53432149 -0.74431258 137 114 96
0.18980314 -0.53629857 -0.74619657 166 155 129
0.18966793 -0.53406686 -0.74584138 160 142 107
0.18953016 -0.53441185 -0.74578643 163 146 112
0.18455814 -0.53831559 -0.74334627 120 98 95
0.18543078 -0.54063964 -0.74414778 116 88 80
0.18509229 -0.53883469 -0.74370879 122 98 95
0.18381666 -0.54028016 -0.74329162 118 91 82
0.18381663 -0.53857678 -0.74300379 117 95 90
0.1854414 -0.54085499 -0.74418503 116 87 78
0.18370691 -0.53929228 -0.7430709 118 93 87
0.18337411 -0.53846747 -0.74276841 118 96 91
0.18882366 -0.54061693 -0.74604863 126 101 87
0.18718722 -0.53939468 -0.74501795 139 119 103
0.18869786 -0.53979051 -0.74589759 137 116 99
0.18783507 -0.53929925 -0.7453692 142 123 105
0.18865815 -0.53830057 -0.74572945 156 142 121
0.18932585 -0.54086214 -0.7463522 124 98 84
0.18825145 -0.53738773 -0.74537319 159 147 129
0.18676066 -0.5384177 -0.7446242 140 120 110
0.18577579 -0.5400703 -0.74426728 122 96 88
0.18792953 -0.53776717 -0.74523365 154 140 124
0.18770412 -0.53855497 -0.74521005 148 132 115
0.18726836 -0.53756428 -0.74480796 149 133 122
0.18945712 -0.5403561 -0.74637592 131 107 91
0.18145452 -0.54334307 -0.74276263 118 92 84
0.18179227 -0.54231006 -0.74270821 121 93 83
0.18395108 -0.54118574 -0.74351829 118 89 79
0.18426038 -0.54164404 -0.74376827 117 89 80
0.18398766 -0.5417248 -0.74365187 117 89 80
0.18278387 -0.54295278 -0.74332553 118 92 85
0.18219674 -0.54406929 -0.74327737 117 93 89
0.1843776 -0.54180628 -0.74386054 116 89 80
0.18439613 -0.54347026 -0.74411815 118 98 85
0.18486109 -0.54420096 -0.7444033 120 105 86
0.18321171 -0.54341578 -0.74362916 116 92 86
0.18445089 -0.54398423 -0.74420792 119 102 86
0.18498144 -0.54298222 -0.74429214 118 97 83
0.18480647 -0.54396826 -0.74435055 119 103 85
0.18809067 -0.5430463 -0.74590665 125 105 83
0.18813665 -0.54388392 -0.74599296 128 109 83
0.18896089 -0.54284221 -0.74632621 128 105 82
0.1876777 -0.54392266 -0.74576646 127 109 83
0.18929526 -0.5415011 -0.7463938 124 98 82
0.18703674 -0.54196584 -0.74521792 120 96 81
0.18584843 -0.54174894 -0.74452806 117 92 79
0.18644764 -0.54201454 -0.74489641 119 95 81
0.18830816 -0.54102767 -0.74580234 120 93 80
0.18835963 -0.54143322 -0.74588424 121 96 81
0.18579173 -0.54454762 -0.74486405 121 111 86
0.18477549 -0.54582691 -0.74462187 110 98 79
0.18720011 -0.54519188 -0.74565268 124 110 82
0.18742597 -0.54537129 -0.74579835 123 107 80
0.18587582 -0.54506785 -0.74496806 121 111 85
0.19298093 -0.52883357 -0.74743706 93 71 44
0.19249505 -0.52854043 -0.74708754 88 66 44
0.19196348 -0.52885258 -0.74677247 90 68 47
0.19396789 -0.52819413 -0.74820757 85 63 40
0.19290039 -0.5295772 -0.74746329 100 76 49
0.19323951 -0.53128934 -0.74786693 110 77 60
0.19236894 -0.53006727 -0.74716699 101 75 54
0.1924978 -0.53107506 -0.74735826 106 75 61
0.19265844 -0.53215718 -0.74758214 115 79 68
0.19121367 -0.53264326 -0.74672198 134 105 82
0.19109321 -0.53228968 -0.7466045 131 104 79
0.19182603 -0.53024864 -0.74683243 101 75 57
0.19479956 -0.53162974 -0.74915117 100 60 53
0.19414972 -0.53295857 -0.74867666 117 77 69
0.19432066 -0.53300679 -0.74878734 117 78 69
0.19377138 -0.53133637 -0.74829257 107 72 57
0.19450703 -0.53152722 -0.7489236 101 62 54
0.19344117 -0.53232813 -0.74812347 115 76 67
0.19257823 -0.53578919 -0.74785727 149 126 101
0.19201359 -0.53374869 -0.74733764 137 106 87
0.19319922 -0.53424579 -0.74812913 131 95 84
0.19105668 -0.53339332 -0.74670249 143 115 89
0.19080563 -0.53554934 -0.74674666 157 140 113
0.1920584 -0.53601354 -0.74755758 153 134 108
0.19149755 -0.53696764 -0.74730349 162 148 122
0.19088769 -0.53589284 -0.74682915 159 143 116
0.19064872 -0.53484207 -0.74658424 154 135 107
0.19299096 -0.53703356 -0.7482245 154 136 111
0.19414571 -0.53657693 -0.7489143 147 126 101
0.19398724 -0.53401268 -0.74862522 126 91 79
0.19404984 -0.53350812 -0.74862641 122 84 74
0.19339536 -0.53660387 -0.74844098 148 126 104
0.19177523 -0.53836191 -0.74759042 141 123 107
0.19108739 -0.53762949 -0.74710858 156 143 121
0.19287373 -0.53768581 -0.74820739 146 126 106
0.19267853 -0.5391292 -0.74820721 125 100 91
0.19177587 -0.53914899 -0.74765646 129 108 98
0.19181263 -0.54024744 -0.74778062 114 87 82
0.19041431 -0.54004073 -0.74692225 128 105 91
0.18972763 -0.54051536 -0.74655426 128 103 88
0.19132258 -0.53950536 -0.74741757 128 106 95
0.19075756 -0.53940618 -0.74706924 134 113 99
0.18926549 -0.54331499 -0.74651241 131 107 81
0.19002467 -0.54368788 -0.74696988 128 102 78
0.18973491 -0.54295701 -0.7467438 128 102 79
0.18954618 -0.54304081 -0.74663651 130 104 80
0.18973795 -0.54456651 -0.74686056 134 109 78
0.19016412 -0.54470623 -0.74711287 131 106 74
0.19111229 -0.54436958 -0.74764121 123 97 68
0.18965402 -0.54503393 -0.74684453 135 110 78
0.19010234 -0.54545736 -0.74715555 126 101 74
0 0 0 1 0 0 0 1 0 0 0 1 0 0 0 0 0 194 1 0 0
