ply
format ascii 1.0
comment PCL generated
element vertex 656
property float x
property float y
property float z
property uchar red
property uchar green
property uchar blue
element camera 1
property float view_px
property float view_py
property float view_pz
property float x_axisx
property float x_axisy
property float x_axisz
property float y_axisx
property float y_axisy
property float y_axisz
property float z_axisx
property float z_axisy
property float z_axisz
property float focal
property float scalex
property float scaley
property float centerx
property float centery
property int viewportx
property int viewporty
property float k1
property float k2
end_header
-0.1313711 -0.37685576 -0.7016601 202 188 209
-0.13342765 -0.37689885 -0.70346373 197 183 208
-0.1297363 -0.37625521 -0.70022595 194 180 195
-0.1328162 -0.37860894 -0.70317203 202 190 208
-0.13323867 -0.3781513 -0.70347673 200 188 208
-0.13191745 -0.37780502 -0.70227456 203 190 209
-0.13157244 -0.37738115 -0.70191395 203 190 210
-0.13170886 -0.37756789 -0.70205921 203 190 209
-0.13221879 -0.37984842 -0.7028293 206 196 208
-0.13097699 -0.37865773 -0.70160669 206 197 209
-0.13255292 -0.38036615 -0.70319045 206 197 207
-0.13122025 -0.38022813 -0.70206428 207 202 207
-0.13052398 -0.37822536 -0.70117551 205 195 209
-0.12942554 -0.37902352 -0.70044351 203 195 208
-0.13049579 -0.37787268 -0.70109594 205 193 209
-0.13061535 -0.37807491 -0.70122272 205 194 209
-0.12892875 -0.38063443 -0.70031625 204 201 206
-0.12891319 -0.37831658 -0.69993085 200 192 203
-0.12958999 -0.37705332 -0.70025736 200 189 203
-0.12899244 -0.37723222 -0.69981992 199 189 200
-0.13123339 -0.38165206 -0.70230263 205 200 202
-0.13257949 -0.3809233 -0.70330292 207 198 206
-0.13117003 -0.38163781 -0.70224792 205 200 202
-0.13231944 -0.38104618 -0.70310682 206 199 205
-0.1309163 -0.3824999 -0.70217103 203 200 198
-0.13143496 -0.38396925 -0.70283163 196 190 190
-0.13049212 -0.38401917 -0.70205736 198 194 192
-0.13063695 -0.3844384 -0.70224196 197 194 190
-0.12822671 -0.38424516 -0.70022511 196 178 198
-0.12781319 -0.3847551 -0.69996357 195 174 196
-0.12765129 -0.38448834 -0.69978857 196 173 198
-0.12948328 -0.38262776 -0.70100921 202 191 202
-0.12813096 -0.38102204 -0.69974631 202 199 205
-0.12882499 -0.38169888 -0.7003727 202 195 204
-0.12892893 -0.38250256 -0.70055115 201 190 203
-0.12979729 -0.38192302 -0.70116287 204 196 204
-0.12804441 -0.38231277 -0.69983399 200 189 203
-0.1319582 -0.38531387 -0.70346063 193 182 186
-0.13143153 -0.38528693 -0.70301872 194 188 187
-0.13150972 -0.38485584 -0.70302922 194 187 186
-0.13101652 -0.38861793 -0.70306766 202 190 189
-0.1274289 -0.38677251 -0.69992942 191 164 196
-0.1280002 -0.38479912 -0.70012403 195 175 196
-0.12892598 -0.38506991 -0.70092511 194 180 193
-0.12846096 -0.38615513 -0.70069373 192 173 193
-0.12743595 -0.38759905 -0.70005542 189 162 195
-0.12810525 -0.38686064 -0.70050156 191 168 194
-0.12849075 -0.38727102 -0.70087743 191 171 193
-0.13007355 -0.388405 -0.7022751 200 184 192
-0.12880178 -0.38770133 -0.7011764 193 173 193
-0.12896626 -0.38772395 -0.70131052 194 175 193
-0.13062377 -0.38784292 -0.70264888 201 190 190
-0.12803878 -0.38825482 -0.70063168 191 166 195
-0.13132694 -0.38934478 -0.70342296 200 185 190
-0.12711644 -0.39152807 -0.70021987 196 176 200
-0.12749958 -0.39187559 -0.70056432 198 179 200
-0.12866376 -0.39160556 -0.70148349 199 178 200
-0.12886146 -0.39073956 -0.70156085 197 172 200
-0.12881364 -0.39218876 -0.70166111 201 183 201
-0.12860201 -0.391664 -0.70143896 199 179 200
-0.12860423 -0.39080235 -0.70135802 196 172 200
-0.12981069 -0.3898398 -0.70222342 200 181 196
-0.12942554 -0.38924637 -0.70185113 198 178 194
-0.12830862 -0.3887462 -0.70090425 193 168 195
-0.13056497 -0.39199448 -0.70306063 204 185 201
-0.12944807 -0.38979256 -0.70192856 198 177 196
-0.12927309 -0.39001667 -0.70181316 198 176 197
-0.12646195 -0.39254355 -0.69984335 201 187 203
-0.12694205 -0.38981596 -0.69991523 191 164 198
-0.12999727 -0.39489269 -0.70288432 210 197 208
-0.12945408 -0.39489177 -0.70245665 207 193 205
-0.13014066 -0.3956373 -0.70306265 214 204 213
-0.13059355 -0.39526972 -0.70338678 215 205 214
-0.1299447 -0.39584294 -0.70292652 213 203 212
-0.12968931 -0.39587411 -0.70272821 212 202 211
-0.12714931 -0.39603743 -0.70073706 201 184 198
-0.12781067 -0.39467207 -0.7011202 201 184 199
-0.13065892 -0.39260855 -0.70320004 205 187 202
-0.12763348 -0.39578006 -0.70110112 201 184 198
-0.1271524 -0.3951256 -0.70063686 200 184 199
-0.12794994 -0.39441887 -0.70120466 201 185 200
-0.12970655 -0.39340943 -0.70251703 204 186 201
-0.12649953 -0.39475855 -0.70008695 199 183 200
-0.12681641 -0.39333448 -0.70016879 199 183 200
-0.1261892 -0.39340937 -0.69973105 201 187 203
-0.12788187 -0.39653063 -0.70136017 205 191 203
-0.12991308 -0.39736485 -0.70297718 211 202 212
-0.12965606 -0.39796078 -0.70278782 207 196 209
-0.13017467 -0.39675352 -0.70316976 216 208 216
-0.1304187 -0.39998472 -0.70343214 201 189 206
-0.12956516 -0.39703345 -0.70269608 211 201 211
-0.12996046 -0.39825073 -0.70303375 207 197 209
-0.12820974 -0.39995456 -0.70166761 204 192 198
-0.12698062 -0.39735341 -0.70065856 202 186 197
-0.1274018 -0.39955112 -0.70101702 206 193 196
-0.12883168 -0.39929965 -0.70215899 202 188 201
-0.12771793 -0.3988184 -0.70126289 203 189 198
-0.12915219 -0.39918897 -0.70241439 200 187 202
-0.12904878 -0.40030661 -0.70234251 203 191 201
-0.12683491 -0.39966336 -0.70057416 206 192 193
-0.12611529 -0.39930138 -0.70005423 197 176 183
-0.12666027 -0.40036997 -0.70045573 205 190 189
-0.1259903 -0.39793351 -0.69993174 197 177 189
-0.12570421 -0.39653599 -0.69967479 199 182 200
-0.12925185 -0.40192321 -0.70258027 203 194 199
-0.13013968 -0.40244403 -0.70331609 201 192 202
-0.12846327 -0.40196884 -0.70195132 205 196 196
-0.12793522 -0.40061051 -0.70146275 206 194 197
-0.12880163 -0.4007819 -0.70216453 204 193 199
-0.12840402 -0.40197384 -0.70190418 205 196 196
-0.12894918 -0.40345949 -0.70243067 199 188 195
-0.12848748 -0.40383241 -0.70210201 194 177 191
-0.12736796 -0.4034768 -0.7012127 190 166 186
-0.12702256 -0.40378112 -0.70096874 186 158 183
-0.1279901 -0.40198615 -0.70158285 203 192 194
-0.12663963 -0.40335509 -0.70063865 187 161 183
-0.12652194 -0.40248364 -0.70048249 192 171 185
-0.12662783 -0.4032653 -0.7006228 187 162 183
-0.12609573 -0.40050074 -0.70005578 198 179 181
-0.12656437 -0.40080094 -0.7004056 202 187 189
-0.12867448 -0.40580502 -0.70237386 192 176 190
-0.1282042 -0.40491289 -0.70195591 189 169 187
-0.1300094 -0.40586218 -0.70340669 199 194 197
-0.12990458 -0.40555164 -0.70330662 198 192 197
-0.13010189 -0.40522033 -0.70343822 199 194 198
-0.12885483 -0.40543315 -0.70248985 193 178 191
-0.12827262 -0.40638056 -0.70207542 190 172 186
-0.12735993 -0.40815622 -0.70128846 191 171 172
-0.12938927 -0.40806034 -0.70302546 197 190 191
-0.12772955 -0.40531614 -0.7016142 187 163 185
-0.12742859 -0.40511879 -0.70135725 185 159 182
-0.12648025 -0.40671223 -0.70059907 186 161 171
-0.1268712 -0.40794888 -0.700881 190 166 168
-0.12641989 -0.40664682 -0.70055509 186 160 171
-0.12682861 -0.40696612 -0.70085311 188 162 171
-0.1259526 -0.40479437 -0.70018041 178 150 176
-0.12643839 -0.40512645 -0.70056719 182 154 176
-0.12657148 -0.40509969 -0.70067078 183 154 177
-0.12939095 -0.40888369 -0.70300466 193 181 186
-0.12882467 -0.40955254 -0.70249861 188 168 175
-0.12893899 -0.40825573 -0.70263797 195 185 186
-0.12914044 -0.4097876 -0.70276135 188 167 176
-0.12760991 -0.40889519 -0.70148003 188 165 168
-0.12968203 -0.40896925 -0.70325106 194 183 188
-0.12752996 -0.40986717 -0.70140266 189 161 165
-0.12862657 -0.41185671 -0.7022922 184 152 163
-0.12753941 -0.4119902 -0.70139194 190 154 159
-0.12927951 -0.4115707 -0.70283473 181 151 165
-0.12878099 -0.41047186 -0.70243198 183 155 167
-0.12585673 -0.41191611 -0.70008481 191 162 164
-0.12567236 -0.41148183 -0.69995022 191 164 166
-0.12557767 -0.41181245 -0.69987631 191 164 166
-0.12528703 -0.41035822 -0.6996842 189 165 165
-0.1263262 -0.40867919 -0.70047325 189 166 166
-0.12644027 -0.40868241 -0.70055664 190 167 167
-0.12799764 -0.41328931 -0.7017017 173 132 143
-0.12758282 -0.41231856 -0.7014147 187 150 155
-0.12844685 -0.41292551 -0.7020942 175 137 150
-0.12931156 -0.41283056 -0.70281482 172 136 154
-0.12991065 -0.41264787 -0.7033208 172 138 158
-0.12715739 -0.41520709 -0.7009567 172 156 153
-0.12739718 -0.41530237 -0.70114571 168 150 150
-0.128521 -0.41453812 -0.70207596 159 121 136
-0.12795514 -0.41456726 -0.70162064 166 135 143
-0.12874317 -0.41574323 -0.70221019 150 117 133
-0.12812075 -0.41345018 -0.70179439 171 129 141
-0.12638026 -0.41373268 -0.70043397 188 163 164
-0.1258913 -0.4159767 -0.69999963 178 170 171
-0.12614337 -0.41519737 -0.70020974 181 167 167
-0.12551282 -0.41428 -0.69977248 186 169 172
-0.125974 -0.41361076 -0.70013481 188 165 167
-0.12588595 -0.41263458 -0.70009232 190 162 165
-0.12833028 -0.41631818 -0.7018646 155 132 138
-0.1265993 -0.41705459 -0.70048106 161 148 150
-0.12623397 -0.41698506 -0.70022053 165 151 156
-0.12595907 -0.41633108 -0.70003903 174 164 167
-0.14033104 -0.39121258 -0.71163064 165 142 156
-0.14292344 -0.3950471 -0.71469969 167 139 157
-0.14189537 -0.39545503 -0.71371138 176 154 166
-0.14151871 -0.39605537 -0.71338606 185 165 174
-0.1408249 -0.39618576 -0.71271294 187 168 178
-0.14244087 -0.39506331 -0.71421874 170 146 160
-0.14213258 -0.39484081 -0.71389848 168 142 158
-0.14076787 -0.39532501 -0.71259177 175 153 168
-0.14131361 -0.39344609 -0.71296149 159 130 151
-0.14031903 -0.39404789 -0.7120049 176 153 166
-0.14153121 -0.39291877 -0.71312612 155 125 146
-0.14026082 -0.39281917 -0.71180624 178 154 163
-0.1407593 -0.39343998 -0.71238983 169 143 158
-0.14308855 -0.39846882 -0.71521217 180 158 168
-0.142805 -0.40033725 -0.71514893 177 161 166
-0.14147563 -0.39856479 -0.71358693 188 170 178
-0.1418059 -0.39916393 -0.71399242 186 169 175
-0.14167136 -0.3995977 -0.71390682 185 169 175
-0.13963458 -0.40010235 -0.71189946 189 169 185
-0.14030699 -0.39974719 -0.71253997 188 169 182
-0.14072983 -0.40026829 -0.71303028 186 169 179
-0.14128691 -0.39973101 -0.71353239 186 169 177
-0.14099972 -0.39749032 -0.71299803 190 172 181
-0.13951607 -0.39700615 -0.71149415 192 174 186
-0.14082968 -0.39681017 -0.71276951 191 173 182
-0.14227468 -0.39677018 -0.71418822 190 171 177
-0.14090389 -0.39732531 -0.7128889 191 172 181
-0.14102776 -0.3981303 -0.71308321 190 170 181
-0.14273891 -0.40177813 -0.71513051 178 163 174
-0.14250812 -0.40139255 -0.71487707 181 168 174
-0.14216317 -0.40337437 -0.71457571 184 169 184
-0.14240187 -0.40247801 -0.71479857 182 167 179
-0.14246605 -0.40310276 -0.7148847 181 166 182
-0.14193055 -0.40181205 -0.71428502 186 173 178
-0.1393356 -0.40417904 -0.71163923 207 194 195
-0.14113162 -0.40166789 -0.71345335 191 178 180
-0.14026237 -0.40057695 -0.71257049 188 170 182
-0.13975754 -0.40274149 -0.71205997 200 185 189
-0.14115569 -0.40188205 -0.71347797 192 179 180
-0.14004709 -0.40085351 -0.71235228 190 172 183
-0.14072977 -0.40229848 -0.71304613 195 182 183
-0.14115259 -0.40115914 -0.71347427 188 174 179
-0.13940035 -0.40585756 -0.71160811 195 163 192
-0.14003415 -0.4052141 -0.71231407 195 169 191
-0.14005755 -0.40550485 -0.71231943 192 164 191
-0.13931808 -0.40543154 -0.71154994 199 172 193
-0.12780333 -0.37958279 -0.69923371 201 197 201
-0.12860979 -0.37737089 -0.69953722 198 189 198
-0.12846997 -0.37834996 -0.69958878 199 192 200
-0.12746067 -0.38031602 -0.69908404 201 196 203
-0.12701571 -0.37975815 -0.69861782 200 193 200
-0.1267893 -0.38030788 -0.6985538 199 190 200
-0.12645148 -0.37942111 -0.69815207 198 185 193
-0.12741658 -0.38216546 -0.69931245 198 187 202
-0.1271629 -0.38089195 -0.69894624 200 194 204
-0.12708654 -0.38268709 -0.69910711 197 182 201
-0.12396078 -0.38453379 -0.69728488 209 199 196
-0.12647341 -0.38169521 -0.69853687 195 180 196
-0.12671755 -0.38139215 -0.69867104 197 186 200
-0.1273009 -0.38502544 -0.69957876 194 169 197
-0.12694198 -0.38639686 -0.69947487 191 162 197
-0.12607111 -0.38714293 -0.69896376 199 175 204
-0.12610348 -0.38855654 -0.69919264 197 170 203
-0.12597688 -0.38595563 -0.6987235 202 181 205
-0.12510134 -0.38846707 -0.69846141 208 189 212
-0.12572514 -0.38814208 -0.69886118 202 179 206
-0.12546188 -0.38642654 -0.69842297 207 189 209
-0.12377764 -0.38563403 -0.69727147 216 208 205
-0.12517044 -0.38653591 -0.69823092 210 194 212
-0.12390449 -0.3876 -0.69749343 222 213 220
-0.12368074 -0.3865889 -0.69727743 220 212 212
-0.12456262 -0.38569731 -0.69778043 211 199 205
-0.12334002 -0.38768899 -0.69713706 225 220 221
-0.12188526 -0.38823581 -0.69626397 215 209 212
-0.12243176 -0.3873612 -0.69654202 219 214 211
-0.12209617 -0.38695982 -0.69630426 214 208 205
-0.12129126 -0.388116 -0.6958853 208 200 204
-0.1237298 -0.38891461 -0.69753242 223 215 223
-0.12622291 -0.38932842 -0.69936019 196 171 202
-0.12538315 -0.39148802 -0.6989727 209 198 210
-0.12440592 -0.38876551 -0.69800216 216 202 217
-0.12465765 -0.39035806 -0.69834059 215 205 216
-0.12596282 -0.38929948 -0.69917089 199 176 205
-0.12611397 -0.39242899 -0.69958985 202 189 204
-0.12453515 -0.39143977 -0.69834322 214 204 214
-0.12456129 -0.3922551 -0.69842774 211 200 211
-0.12467775 -0.3913641 -0.69844288 213 204 214
-0.12419307 -0.39243546 -0.69816917 212 201 212
-0.12316809 -0.38980025 -0.69719887 226 220 224
-0.1223827 -0.39231619 -0.69685644 212 201 211
-0.12173033 -0.39171278 -0.69636273 209 196 208
-0.12231766 -0.39254931 -0.69683069 211 199 210
-0.12241842 -0.39129555 -0.69679934 216 206 215
-0.12177555 -0.38908729 -0.69624478 215 207 214
-0.12281206 -0.38889828 -0.69688243 227 222 226
-0.12201594 -0.3898555 -0.69642788 217 208 216
-0.12565508 -0.39481309 -0.69947642 202 187 203
-0.12498683 -0.39417991 -0.69892097 205 192 206
-0.12545489 -0.39385098 -0.69923675 204 190 205
-0.12463453 -0.39341095 -0.69858688 208 196 209
-0.12475905 -0.39499357 -0.69882935 205 191 206
-0.12370874 -0.39544421 -0.69797647 197 180 200
-0.12485596 -0.39562723 -0.69894224 202 187 203
-0.12533782 -0.39608636 -0.69936019 201 185 202
-0.12336025 -0.3942081 -0.69764525 205 191 206
-0.12291573 -0.39572659 -0.69735026 192 174 195
-0.12160549 -0.39261848 -0.69634974 205 190 205
-0.12448687 -0.39761221 -0.69869465 191 170 188
-0.12417492 -0.39667067 -0.69840539 191 171 194
-0.12501223 -0.39896202 -0.69917476 191 169 181
-0.12474994 -0.39851117 -0.69894177 191 168 183
-0.12425256 -0.39958099 -0.69865268 180 152 166
-0.12436007 -0.39981729 -0.69875491 180 151 164
-0.12402403 -0.40015358 -0.69855553 173 141 155
-0.12439837 -0.39936671 -0.69873154 183 157 171
-0.12171716 -0.39969662 -0.69690889 177 149 165
-0.12222717 -0.40009859 -0.69730151 168 136 152
-0.12216467 -0.39853206 -0.69708371 180 155 175
-0.12262169 -0.39884642 -0.69743037 173 144 164
-0.12354225 -0.40096009 -0.69826752 162 127 146
-0.12452771 -0.40274838 -0.6990416 168 138 163
-0.12492546 -0.4015713 -0.69927007 178 151 166
-0.12445865 -0.40245667 -0.69898003 168 138 161
-0.12397695 -0.40358278 -0.69862151 160 132 163
-0.12306332 -0.40192187 -0.69790506 155 121 147
-0.12329417 -0.40105203 -0.69808674 159 123 143
-0.12275486 -0.40191412 -0.69770139 158 126 148
-0.12151109 -0.40401912 -0.69688767 168 147 167
-0.12281202 -0.40253103 -0.69773841 156 125 152
-0.12301923 -0.40204227 -0.69787401 155 122 148
-0.12303793 -0.40334597 -0.69788551 152 123 156
-0.12139024 -0.40132701 -0.69678599 174 147 159
-0.12506054 -0.40793875 -0.69954592 184 162 162
-0.1244275 -0.40574268 -0.69900429 169 145 165
-0.12505148 -0.40697533 -0.69951928 180 157 165
-0.12500131 -0.40778914 -0.69949639 183 161 162
-0.12371207 -0.40591344 -0.69845027 164 140 162
-0.12406228 -0.40668276 -0.69874215 171 148 162
-0.12353931 -0.40612182 -0.69832492 165 142 162
-0.12223745 -0.40801561 -0.69746935 173 154 165
-0.12118091 -0.40749556 -0.6967485 167 140 166
-0.12169438 -0.4076328 -0.69709516 170 146 165
-0.12260157 -0.40717405 -0.69768536 169 149 164
-0.12273923 -0.40560097 -0.6977272 158 134 163
-0.12274803 -0.405013 -0.69771439 155 128 162
-0.12046245 -0.40548572 -0.69622612 173 150 171
-0.12116111 -0.40437835 -0.69666052 171 151 170
-0.12224276 -0.40504175 -0.69738036 156 127 164
-0.12129388 -0.40597713 -0.69677907 161 131 166
-0.12007423 -0.40624014 -0.69598752 174 147 171
-0.12200985 -0.40463129 -0.69722009 160 136 166
-0.12511863 -0.4109107 -0.69954908 189 164 166
-0.12389631 -0.40852636 -0.69865793 181 164 163
-0.12457983 -0.40938547 -0.69916469 185 164 164
-0.1247084 -0.41166767 -0.6992268 188 165 169
-0.1235147 -0.41131923 -0.69833809 184 167 174
-0.12356661 -0.4111214 -0.6983785 184 167 173
-0.12138057 -0.41067642 -0.69693798 189 170 185
-0.12156556 -0.41071561 -0.69705486 188 170 184
-0.12167604 -0.41140103 -0.69711912 189 171 186
-0.12221012 -0.41186002 -0.69745374 188 171 184
-0.12135968 -0.41121539 -0.69692022 190 171 187
-0.12188434 -0.40854853 -0.69724745 177 157 168
-0.11976942 -0.40954459 -0.69585925 180 149 180
-0.11982282 -0.41095975 -0.69592577 192 166 193
-0.12088211 -0.41014341 -0.69661415 188 166 184
-0.12128966 -0.40843391 -0.69684851 174 150 168
-0.12014084 -0.40835392 -0.69608086 171 139 169
-0.12472861 -0.41217151 -0.69923669 189 166 170
-0.12519614 -0.41261518 -0.69957525 189 166 169
-0.12492328 -0.41425309 -0.69933194 185 171 176
-0.12465369 -0.41537347 -0.69909698 184 175 182
-0.12344406 -0.41327256 -0.69824457 185 172 182
-0.12368132 -0.41411608 -0.69839609 186 174 185
-0.12387343 -0.41369271 -0.69855899 184 172 180
-0.12240058 -0.4132331 -0.69752681 192 180 190
-0.12183452 -0.41316074 -0.69716889 195 183 193
-0.12018032 -0.41217974 -0.69616222 198 175 199
-0.11996627 -0.41260943 -0.69600832 201 180 203
-0.12200136 -0.41312316 -0.69727623 194 182 192
-0.12492009 -0.41613108 -0.69927502 183 174 182
-0.13891478 -0.38074332 -0.70871526 191 182 199
-0.13957074 -0.38038361 -0.70930117 182 171 188
-0.13880245 -0.37944004 -0.70842242 186 177 192
-0.13849011 -0.37930608 -0.70812672 188 179 194
-0.1386154 -0.37953624 -0.70826262 188 179 195
-0.13793729 -0.3782962 -0.70752203 186 177 191
-0.13907187 -0.38104206 -0.70891917 188 178 196
-0.13870957 -0.38315722 -0.70890343 178 160 185
-0.1389178 -0.38141015 -0.70883697 187 176 195
-0.13900185 -0.3822248 -0.70905411 181 166 187
-0.1387434 -0.38371065 -0.70902699 174 153 180
-0.13780315 -0.38288039 -0.70810819 184 170 191
-0.13866407 -0.38102999 -0.7085169 192 184 202
-0.13861282 -0.38126469 -0.70851254 191 181 201
-0.13829367 -0.3825742 -0.70846111 184 169 191
-0.13737215 -0.38154233 -0.70753473 196 190 202
-0.13741563 -0.38174021 -0.70760298 194 187 201
-0.13812116 -0.38107792 -0.70807707 195 188 204
-0.13783464 -0.38778847 -0.70888531 165 143 163
-0.13740927 -0.38666657 -0.70832032 173 151 169
-0.13732958 -0.38759163 -0.7084043 170 149 165
-0.13861583 -0.38502651 -0.70911676 167 142 172
-0.13672768 -0.38809058 -0.70795363 174 155 165
-0.13744453 -0.38605583 -0.70827323 173 151 172
-0.13791707 -0.38525274 -0.70856321 171 148 173
-0.13684496 -0.38659975 -0.70784771 175 156 171
-0.13657753 -0.38747042 -0.70773411 176 158 169
-0.13923794 -0.39031255 -0.7105034 167 143 160
-0.13900104 -0.39153534 -0.71038067 178 158 165
-0.13877946 -0.39169067 -0.7101655 179 161 165
-0.13726568 -0.39157623 -0.70886678 180 155 169
-0.13758154 -0.39156953 -0.70913053 179 156 168
-0.13661191 -0.39155751 -0.70831788 180 152 171
-0.13664758 -0.39129612 -0.70832366 178 150 170
-0.13757072 -0.39219946 -0.70917952 184 162 170
-0.13786568 -0.39221898 -0.70942813 184 164 169
-0.13606438 -0.39095029 -0.70776761 181 155 171
-0.13687414 -0.38995785 -0.7083531 173 148 165
-0.13594747 -0.39006859 -0.7075457 181 159 169
-0.13621952 -0.38909057 -0.70765603 177 158 166
-0.13691382 -0.39066312 -0.70848286 173 146 167
-0.13929191 -0.39540583 -0.71109891 191 174 181
-0.13934949 -0.39449912 -0.71105564 189 171 177
-0.13892363 -0.39357653 -0.7105099 188 171 172
-0.13918588 -0.39570692 -0.7110256 191 175 183
-0.13641435 -0.39578304 -0.70842761 201 189 197
-0.13590282 -0.39599481 -0.70797873 204 192 201
-0.13803746 -0.39332932 -0.70963788 190 175 175
-0.13786431 -0.39387399 -0.70954275 192 177 179
-0.13777371 -0.39560544 -0.70966667 195 181 189
-0.13817038 -0.39527997 -0.70999539 193 178 185
-0.13572426 -0.39297262 -0.70768517 191 164 180
-0.13606858 -0.3926087 -0.70795852 189 161 176
-0.13676219 -0.39281413 -0.70854735 189 166 175
-0.13540472 -0.39627632 -0.70755225 206 195 205
-0.1353371 -0.39457682 -0.70742649 199 178 193
-0.13569753 -0.39322606 -0.70767313 192 166 182
-0.13905267 -0.40011075 -0.71131712 191 169 187
-0.13871914 -0.39744216 -0.71073866 192 175 188
-0.13749924 -0.39830703 -0.70963132 193 175 191
-0.13719468 -0.40035424 -0.70951861 192 171 192
-0.13687368 -0.39925769 -0.70910996 193 174 193
-0.13697948 -0.39873606 -0.70916599 193 175 192
-0.13820852 -0.39890265 -0.71037149 192 173 190
-0.13558169 -0.40003869 -0.70792794 193 174 195
-0.13821581 -0.3975102 -0.71025455 192 176 190
-0.1364512 -0.39797679 -0.70862103 197 181 196
-0.13551076 -0.39876634 -0.70778883 198 181 199
-0.13569485 -0.39873612 -0.70795798 197 181 198
-0.13551807 -0.39707097 -0.70771027 204 191 204
-0.1355045 -0.39830986 -0.70776004 199 184 200
-0.13587455 -0.39667073 -0.70802069 204 192 203
-0.1389764 -0.40231135 -0.7112664 200 182 192
-0.13873608 -0.40254986 -0.71102256 202 186 194
-0.13767602 -0.40239489 -0.70999426 203 185 197
-0.138668 -0.40328398 -0.7109558 206 193 195
-0.13737026 -0.40397882 -0.70970219 211 198 201
-0.13688813 -0.40414712 -0.70923632 212 200 203
-0.13548487 -0.40408185 -0.70787889 213 199 208
-0.13623054 -0.40323812 -0.70859814 208 192 203
-0.13864532 -0.40353552 -0.7109344 208 195 196
-0.13791713 -0.4009324 -0.71022379 195 173 193
-0.13635786 -0.40240085 -0.70871872 204 186 201
-0.13538633 -0.40383098 -0.70778292 212 197 207
-0.13511053 -0.40350381 -0.70751452 210 195 207
-0.13573341 -0.40330136 -0.70811713 209 193 205
-0.13580845 -0.40166646 -0.70818377 200 182 199
-0.13743511 -0.40052009 -0.7097553 193 171 192
-0.13895106 -0.40517867 -0.7111876 203 181 195
-0.1387344 -0.40599552 -0.71090353 198 168 195
-0.13748007 -0.4062427 -0.70976359 197 174 197
-0.13826439 -0.40712452 -0.71039224 189 151 195
-0.13757136 -0.40627259 -0.70984221 197 173 197
-0.1378298 -0.40678543 -0.71003282 192 161 196
-0.13790268 -0.40746555 -0.71004701 187 148 195
-0.13713047 -0.40780908 -0.70933849 185 148 196
-0.13697977 -0.40684667 -0.70927638 193 167 197
-0.1355311 -0.40446562 -0.70792472 213 199 207
-0.13549829 -0.40737966 -0.7079038 190 167 198
-0.13541813 -0.40674064 -0.70782393 195 174 201
-0.1357757 -0.40476099 -0.70816243 210 196 206
-0.13512324 -0.40685686 -0.70753914 194 172 201
-0.13591665 -0.40542811 -0.70830125 205 188 203
-0.13535689 -0.40700817 -0.70776564 193 171 200
-0.13575701 -0.40844437 -0.70810336 181 149 194
-0.13585663 -0.40877685 -0.70820391 179 145 190
-0.1372364 -0.40840471 -0.70941055 180 137 193
-0.1202977 -0.39014834 -0.69536364 199 186 197
-0.12065062 -0.38975081 -0.69557017 202 190 201
-0.12086555 -0.38962787 -0.69570118 204 192 203
-0.11771982 -0.40745956 -0.69452286 172 141 166
-0.11776638 -0.40779728 -0.69455963 171 140 166
-0.11868824 -0.4081443 -0.69513512 168 132 166
-0.11836358 -0.40684411 -0.69490534 174 144 169
-0.11883585 -0.40716627 -0.69520402 173 141 169
-0.11860222 -0.40679312 -0.69505161 175 145 170
-0.11947693 -0.41041628 -0.6956836 187 157 188
-0.11933184 -0.41097793 -0.69559956 191 162 193
-0.11848854 -0.41177335 -0.69508702 201 177 199
-0.11801951 -0.40960917 -0.69475263 182 155 180
-0.11836394 -0.40931857 -0.69495881 179 148 177
-0.11785206 -0.40842009 -0.69462645 172 141 168
-0.11647378 -0.41299552 -0.69384724 217 204 190
-0.11705059 -0.41304338 -0.69419312 215 201 194
-0.1189352 -0.41310662 -0.6953271 208 190 210
-0.11821108 -0.41266134 -0.6949082 209 189 201
-0.11794785 -0.41335937 -0.69472164 213 199 203
-0.13553864 -0.37664208 -0.70526767 187 171 199
-0.13498618 -0.37602946 -0.70470452 184 166 194
-0.13578114 -0.3766925 -0.70547867 187 171 198
-0.1373482 -0.37857693 -0.70706934 190 181 197
-0.13639437 -0.37793878 -0.70617855 191 179 201
-0.13642338 -0.37697753 -0.70606226 187 172 197
-0.13731988 -0.38074496 -0.70736259 200 198 207
-0.13595562 -0.3786265 -0.70591229 196 186 208
-0.1356218 -0.37968093 -0.70574254 201 192 209
-0.13559894 -0.38019764 -0.70578194 203 195 209
-0.13479194 -0.37934545 -0.70497149 202 191 209
-0.13508463 -0.37904721 -0.70519549 200 189 209
-0.1361625 -0.38018745 -0.70627809 201 195 208
-0.13452721 -0.37967139 -0.704786 203 192 209
-0.13392118 -0.3804315 -0.70436555 206 196 208
-0.13395427 -0.38081911 -0.70443797 207 198 208
-0.13468504 -0.37797984 -0.70472342 197 182 209
-0.13343485 -0.37808901 -0.70364267 200 187 208
-0.13321154 -0.37983033 -0.70369309 204 193 207
-0.13627818 -0.38186648 -0.70663369 197 188 201
-0.13695869 -0.38135195 -0.70714432 198 193 204
-0.13566582 -0.38276786 -0.70625085 193 179 195
-0.13688995 -0.38161314 -0.7071293 197 191 203
-0.13528645 -0.38428476 -0.70620966 185 166 187
-0.13504235 -0.38350886 -0.70585549 191 174 192
-0.13580543 -0.38358992 -0.70652407 187 171 190
-0.13409939 -0.38190389 -0.70473212 203 194 203
-0.13420989 -0.38256532 -0.70495307 199 187 199
-0.13395871 -0.3834846 -0.70490414 194 180 193
-0.13334326 -0.38458744 -0.70456916 189 174 187
-0.1344019 -0.3815096 -0.70492446 205 196 206
-0.13278857 -0.38259107 -0.70374072 200 190 198
-0.13287522 -0.38356552 -0.70396829 196 186 193
-0.13262641 -0.3824507 -0.70358247 200 191 198
-0.13543177 -0.38527262 -0.70648837 182 162 182
-0.13528985 -0.38517281 -0.70635414 182 162 182
-0.13546766 -0.38549954 -0.70654786 182 162 180
-0.13490202 -0.38581407 -0.70609164 184 163 181
-0.13534842 -0.38833892 -0.70677269 181 163 169
-0.13218853 -0.38808241 -0.70402479 195 179 185
-0.1327319 -0.387422 -0.70441461 193 176 185
-0.13237864 -0.38771096 -0.70414597 194 178 186
-0.13259836 -0.38763022 -0.70432371 193 177 185
-0.13428825 -0.38562483 -0.70554137 186 166 184
-0.13343194 -0.38693196 -0.70495582 190 172 184
-0.13220738 -0.38665947 -0.70385671 193 179 186
-0.13357444 -0.38484129 -0.70481598 188 171 186
-0.13307513 -0.38508233 -0.704409 189 174 186
-0.13357978 -0.38575661 -0.70494312 189 171 186
-0.13202912 -0.38790426 -0.70386642 195 180 186
-0.13535435 -0.38929358 -0.7069 182 162 169
-0.13526134 -0.38886687 -0.706756 181 163 168
-0.13508862 -0.39215901 -0.70704931 188 158 177
-0.13479692 -0.38907948 -0.70636004 183 163 170
-0.13434492 -0.39003506 -0.70608979 186 164 175
-0.13236725 -0.39257029 -0.7046895 199 176 193
-0.13399342 -0.38997668 -0.70577168 188 167 177
-0.13293999 -0.39103621 -0.70498633 194 174 186
-0.13371535 -0.38980913 -0.70550358 189 170 179
-0.13388747 -0.38960859 -0.70562822 188 169 177
-0.13436475 -0.39250129 -0.70644259 190 160 181
-0.13249145 -0.38999197 -0.70448267 195 178 186
-0.13373904 -0.38886058 -0.70542401 187 170 175
-0.13218412 -0.39048517 -0.70427305 197 179 189
-0.13129042 -0.39207974 -0.70368022 203 185 199
-0.13453749 -0.38872522 -0.70608759 184 165 171
-0.13137744 -0.39094642 -0.70363635 201 184 194
-0.13501729 -0.39372465 -0.70709187 194 169 187
-0.1349536 -0.39564726 -0.70711207 204 189 202
-0.13314246 -0.39323568 -0.70543253 198 174 192
-0.13359377 -0.39286935 -0.70579845 195 168 187
-0.1331442 -0.39319369 -0.70543039 198 174 192
-0.13132182 -0.39414707 -0.70390654 210 195 208
-0.13346052 -0.39346883 -0.70573246 198 173 191
-0.13111761 -0.3959446 -0.70387745 217 210 217
-0.1324296 -0.3938722 -0.70485872 204 184 199
-0.13383006 -0.39368913 -0.70606858 197 173 190
-0.13462669 -0.39291877 -0.70670414 191 161 182
-0.13299587 -0.39503488 -0.70542467 207 191 203
-0.13279548 -0.39532506 -0.70526868 209 195 206
-0.13281167 -0.39491802 -0.70526588 206 190 203
-0.1344966 -0.39586583 -0.7067138 206 193 205
-0.13468301 -0.39400867 -0.7067951 196 172 190
-0.13080467 -0.39545134 -0.70356739 216 208 216
-0.13502254 -0.3975836 -0.70727021 204 191 205
-0.13307212 -0.40019885 -0.70569366 198 183 203
-0.13098553 -0.3990716 -0.70386523 207 198 212
-0.13207576 -0.39978829 -0.70482361 201 190 207
-0.1309796 -0.40004563 -0.70388305 202 192 209
-0.13307716 -0.39917031 -0.70567381 203 190 206
-0.13161521 -0.39784634 -0.7043801 212 204 214
-0.13259792 -0.39920294 -0.70526069 203 191 207
-0.13167074 -0.39713055 -0.7044068 216 208 216
-0.13235082 -0.39710352 -0.70497447 214 205 214
-0.13273533 -0.39713463 -0.70529771 212 204 213
-0.13382605 -0.39652127 -0.70617944 211 202 212
-0.13246623 -0.39681625 -0.70505649 214 207 215
-0.13395323 -0.39669678 -0.70629472 210 201 211
-0.13425776 -0.39836517 -0.70663363 203 190 205
-0.13490187 -0.40131515 -0.70730042 198 181 200
-0.13480963 -0.40332296 -0.70721477 210 195 208
-0.13209134 -0.40318158 -0.70492953 207 199 208
-0.13164957 -0.40195739 -0.70450932 205 195 208
-0.13178034 -0.40311617 -0.70467162 206 198 207
-0.13239932 -0.40395382 -0.70521867 209 201 208
-0.1324995 -0.40410984 -0.7053082 209 201 208
-0.13322322 -0.40289399 -0.70584321 210 198 210
-0.13088328 -0.40081379 -0.70382708 201 192 208
-0.13169956 -0.40094808 -0.70451474 202 191 208
-0.13320802 -0.40266982 -0.70582318 210 197 210
-0.13240206 -0.40089095 -0.70512128 201 188 206
-0.13475148 -0.40152118 -0.70715225 200 183 202
-0.13383922 -0.40045562 -0.70636088 196 180 200
-0.13362677 -0.4030554 -0.70618606 211 198 210
-0.13432187 -0.40087104 -0.70677906 197 181 200
-0.13044064 -0.40356857 -0.70360976 201 195 202
-0.13043931 -0.40286994 -0.70357549 200 193 202
-0.13499564 -0.40780321 -0.7074191 187 162 199
-0.13483943 -0.4064343 -0.70726156 199 178 204
-0.13298549 -0.40697616 -0.70577383 194 177 201
-0.13431558 -0.40819412 -0.70686889 187 162 200
-0.13157508 -0.40515587 -0.70457649 201 193 203
-0.13205364 -0.40600955 -0.70499891 198 188 202
-0.13215113 -0.40698344 -0.70513988 198 187 201
-0.13101718 -0.40637276 -0.70423567 204 201 202
-0.1312838 -0.40707946 -0.70448697 202 198 202
-0.13299529 -0.40581235 -0.70573801 199 184 204
-0.13157935 -0.40440238 -0.70456421 206 200 205
-0.13368447 -0.40645465 -0.70630884 196 177 203
-0.13330977 -0.4064514 -0.70600188 194 177 202
-0.13429953 -0.40705007 -0.70681858 193 170 202
-0.13445169 -0.40705806 -0.70694333 193 170 202
-0.13242434 -0.40480483 -0.70526046 205 196 206
-0.13068753 -0.40804705 -0.70409155 203 202 200
-0.13026908 -0.40710831 -0.70368856 201 198 199
-0.13037881 -0.40465054 -0.70361829 201 197 200
-0.13087754 -0.40978765 -0.7042169 194 182 187
-0.13203782 -0.41144881 -0.7051301 177 151 169
-0.13088739 -0.40961513 -0.7042293 195 184 188
-0.13193749 -0.41007674 -0.7050817 186 170 181
-0.13194384 -0.41018179 -0.70508426 185 169 180
-0.131612 -0.41025341 -0.70480955 187 170 181
-0.13107821 -0.41208684 -0.70432484 177 150 167
-0.13324107 -0.4089883 -0.70608175 187 168 191
-0.13259703 -0.40821105 -0.70556295 196 183 200
-0.1323054 -0.40958944 -0.70539272 188 173 184
-0.1330255 -0.40879363 -0.70591056 189 172 193
-0.13059656 -0.40991309 -0.70397878 193 179 186
-0.13018771 -0.40954641 -0.70365721 192 180 187
-0.13022982 -0.40857732 -0.70372057 198 193 195
-0.13254212 -0.41234145 -0.70552737 168 136 159
-0.1323445 -0.41218349 -0.7053656 170 139 162
-0.14373076 -0.39635798 -0.71558744 181 155 170
-0.14342485 -0.39572382 -0.71523821 174 146 165
-0.14508414 -0.39874083 -0.71720374 156 124 151
-0.14436132 -0.39958969 -0.71661633 158 128 152
-0.14564401 -0.39948151 -0.71792644 136 89 133
-0.14432608 -0.39905134 -0.71647668 166 141 159
-0.14466421 -0.39908287 -0.71683353 159 130 153
-0.14539884 -0.3979384 -0.71737659 161 131 156
-0.14606006 -0.39780638 -0.71803737 150 113 147
-0.14434786 -0.39793479 -0.71635288 172 147 163
-0.14503337 -0.39750293 -0.71695715 168 141 161
-0.14415751 -0.39873213 -0.7162621 171 148 162
-0.14443077 -0.39869249 -0.71651804 169 146 161
-0.14497235 -0.39810649 -0.71696764 166 141 160
-0.14368801 -0.39676797 -0.71559131 180 153 169
-0.14292409 -0.40229321 -0.71533883 175 157 173
-0.1433621 -0.40162262 -0.71577203 167 143 163
-0.14331678 -0.40272349 -0.71575981 168 144 169
-0.14434609 -0.40043479 -0.71675533 148 111 142
-0.14350075 -0.40232575 -0.71593809 164 138 165
0 0 0 1 0 0 0 1 0 0 0 1 0 0 0 0 0 656 1 0 0
