ply
format ascii 1.0
comment PCL generated
element vertex 394
property float x
property float y
property float z
property uchar red
property uchar green
property uchar blue
element camera 1
property float view_px
property float view_py
property float view_pz
property float x_axisx
property float x_axisy
property float x_axisz
property float y_axisx
property float y_axisy
property float y_axisz
property float z_axisx
property float z_axisy
property float z_axisz
property float focal
property float scalex
property float scaley
property float centerx
property float centery
property int viewportx
property int viewporty
property float k1
property float k2
end_header
-0.22533099 0.42139924 -0.84769195 191 179 160
-0.22514477 0.42095286 -0.84722817 194 182 163
-0.22525378 0.421269 -0.84752023 191 179 160
-0.2250952 0.42138118 -0.84731042 188 175 157
-0.22380872 0.42013237 -0.84521961 189 173 160
-0.22587383 0.41933697 -0.84785771 208 197 181
-0.22542161 0.41986886 -0.84726757 209 199 181
-0.22570838 0.41794416 -0.84725815 189 171 163
-0.22598509 0.41703704 -0.84747666 181 161 157
-0.22519916 0.41741219 -0.84625399 169 152 143
-0.22518726 0.41836783 -0.84651393 185 170 159
-0.22501004 0.41890362 -0.84637052 190 176 164
-0.22651467 0.41587764 -0.84803218 176 152 153
-0.22623418 0.41459462 -0.846883 167 145 145
-0.2264632 0.41476241 -0.84748048 174 153 152
-0.23050313 0.43267104 -0.85925466 150 124 119
-0.23014291 0.43394837 -0.85878164 143 114 116
-0.22999853 0.4330624 -0.85802883 146 121 120
-0.22984736 0.43324855 -0.85768938 145 120 121
-0.2299801 0.43211558 -0.85759681 151 129 124
-0.22960691 0.43240631 -0.85669076 148 127 125
-0.2298561 0.43493143 -0.85835218 145 116 121
-0.22972529 0.42808267 -0.85690117 159 132 128
-0.22995058 0.42822522 -0.85761142 158 129 127
-0.23051997 0.42929247 -0.85924464 157 125 124
-0.23039228 0.42878711 -0.85893923 157 125 125
-0.23009156 0.4292658 -0.85783821 158 132 126
-0.22942847 0.43110886 -0.85590476 152 134 129
-0.2303158 0.43154877 -0.8583281 155 132 124
-0.23026642 0.43131474 -0.85819775 155 132 124
-0.22965133 0.43003663 -0.85653907 156 134 128
-0.23015107 0.43060535 -0.85789692 156 133 125
-0.22133188 0.42904738 -0.85873801 169 143 139
-0.22238185 0.42938364 -0.85965282 166 139 140
-0.22234985 0.42882827 -0.85932636 165 138 137
-0.22207613 0.42914936 -0.85931176 167 140 139
-0.22098379 0.42803147 -0.85793936 168 143 135
-0.22110371 0.42867616 -0.85837591 169 144 137
-0.21970738 0.42915672 -0.85940838 147 119 118
-0.22001086 0.43035036 -0.8597492 156 130 129
-0.219836 0.42956555 -0.85949928 150 123 122
-0.21986468 0.42841291 -0.85883325 149 122 118
-0.2192608 0.428505 -0.85951632 135 106 105
-0.22954656 0.42419329 -0.85799682 185 169 153
-0.22985262 0.42519474 -0.85725158 171 146 140
-0.22997071 0.42563033 -0.85805607 170 143 139
-0.23028937 0.42676988 -0.85943174 164 132 134
-0.2302247 0.42656437 -0.85972452 168 137 137
-0.22968271 0.42465377 -0.85799742 180 160 149
-0.2299097 0.42616293 -0.85748023 166 138 135
-0.22967936 0.42687857 -0.85677034 163 137 133
-0.22982728 0.42694598 -0.85726267 163 134 132
-0.2295305 0.42712671 -0.85629672 163 137 132
-0.22997402 0.42743194 -0.8577801 160 128 129
-0.22942394 0.42596024 -0.85586464 169 147 138
-0.22470143 0.42504025 -0.85909075 158 122 137
-0.22463702 0.42433468 -0.85861272 158 120 137
-0.22484553 0.42592865 -0.85972542 160 127 138
-0.22157392 0.42751399 -0.85811114 166 139 134
-0.22325955 0.42727038 -0.85920006 161 131 134
-0.22355692 0.42495176 -0.85813612 160 125 136
-0.22271702 0.42646974 -0.85841316 163 132 135
-0.22459951 0.42616776 -0.85974497 158 123 136
-0.22442788 0.42536071 -0.8590979 158 123 136
-0.22365004 0.42542425 -0.858509 160 126 136
-0.22196528 0.42563841 -0.85795695 166 134 138
-0.22120352 0.42499414 -0.85807467 169 137 143
-0.22083569 0.42596447 -0.85790014 170 141 140
-0.22300276 0.42399541 -0.85825163 163 127 141
-0.22189718 0.42445177 -0.85817128 167 133 143
-0.21796361 0.42644981 -0.85973042 106 75 85
-0.21978375 0.42738086 -0.85833263 148 121 117
-0.21849854 0.42723444 -0.85959083 117 87 91
-0.21718092 0.42458081 -0.85938638 97 69 88
-0.21843056 0.42716244 -0.85961902 116 85 90
-0.21835452 0.42545313 -0.8586784 122 95 105
-0.21851397 0.4247807 -0.85870415 126 98 110
-0.22024502 0.42660457 -0.85790831 160 133 131
-0.21844329 0.42416298 -0.85883474 125 96 112
-0.21861859 0.42535132 -0.85857296 128 100 110
-0.219685 0.42667007 -0.85804749 148 123 121
-0.22046058 0.42536715 -0.85807359 166 136 139
-0.22862829 0.42175528 -0.85903156 199 184 169
-0.22879352 0.42092174 -0.85814792 200 187 171
-0.22945623 0.4214491 -0.85742611 201 192 171
-0.22911283 0.42183065 -0.85842329 199 188 169
-0.22945544 0.42290616 -0.85763198 193 181 162
-0.22946233 0.42236841 -0.85764253 196 186 165
-0.22944854 0.42350054 -0.85756785 189 175 157
-0.22949852 0.42100739 -0.85625815 199 189 169
-0.2294829 0.42239439 -0.85607058 189 175 158
-0.22945237 0.42286471 -0.85790306 194 183 163
-0.22786069 0.42287853 -0.85957557 191 171 161
-0.22791179 0.42304498 -0.85967237 191 171 161
-0.22706875 0.42281148 -0.85906279 183 159 156
-0.22563145 0.42300066 -0.85828418 169 136 146
-0.22653738 0.42193401 -0.85802454 179 152 154
-0.22586137 0.42288741 -0.85834301 171 140 147
-0.2277831 0.42110252 -0.85817063 192 173 165
-0.22658993 0.42036131 -0.85754329 183 160 157
-0.22516459 0.42139101 -0.85763246 169 137 144
-0.22496083 0.42248216 -0.85792887 164 129 141
-0.22464168 0.42098767 -0.85743034 166 132 140
-0.22638957 0.42053086 -0.85756332 181 156 155
-0.22635548 0.4205074 -0.85755092 181 156 155
-0.22156158 0.42076695 -0.85682422 145 127 125
-0.22247547 0.42027473 -0.85677809 149 128 128
-0.2214295 0.42074063 -0.85677779 143 126 124
-0.22095534 0.42177752 -0.85722828 150 129 131
-0.22159328 0.42031464 -0.85658509 139 125 121
-0.221754 0.42012575 -0.85652113 139 124 120
-0.22390333 0.42232376 -0.85782814 164 129 141
-0.22387893 0.42336297 -0.85814053 162 124 140
-0.22219263 0.42329538 -0.8581233 168 133 145
-0.22368623 0.42138588 -0.85754669 168 134 143
-0.22223662 0.42300892 -0.85803705 169 134 145
-0.21900645 0.42021561 -0.85758734 118 107 106
-0.21689555 0.42169803 -0.85933095 104 83 97
-0.21943191 0.42053214 -0.85721403 117 106 105
-0.21832681 0.42006317 -0.85817116 117 104 106
-0.21854064 0.41999891 -0.85799146 118 106 107
-0.21775232 0.42253751 -0.85857195 101 80 94
-0.21848433 0.42192307 -0.85797089 107 89 97
-0.2205798 0.4210231 -0.85678822 135 122 119
-0.21879466 0.42343765 -0.85858744 128 100 115
-0.21742071 0.42376989 -0.85913914 104 75 96
-0.21888903 0.423334 -0.85850543 129 101 115
-0.22048974 0.42054823 -0.85655332 128 118 112
-0.220441 0.42108676 -0.8568604 133 119 117
-0.21951298 0.42213488 -0.8576827 127 107 113
-0.22899875 0.41966483 -0.85671198 202 189 172
-0.22916946 0.41961852 -0.85637778 202 191 173
-0.22864771 0.41801 -0.85668021 198 177 165
-0.22487637 0.41710088 -0.85636371 173 140 147
-0.22507069 0.41711342 -0.85636842 174 141 147
-0.22754578 0.41629967 -0.85617179 189 159 154
-0.22491816 0.41856396 -0.85674948 172 139 145
-0.22708753 0.41611084 -0.85611874 186 156 153
-0.22731814 0.41720644 -0.85640901 187 157 152
-0.2280167 0.41938561 -0.85741138 196 177 166
-0.22554669 0.41925928 -0.85697764 175 145 146
-0.22827443 0.41921753 -0.85738218 197 180 168
-0.22722787 0.41960022 -0.85737765 189 168 161
-0.22619611 0.41897586 -0.85696161 180 152 150
-0.22191052 0.4180057 -0.85591739 139 118 121
-0.22131142 0.41905817 -0.85606164 132 119 115
-0.22143517 0.41909778 -0.85610443 133 121 117
-0.22433896 0.41717836 -0.85631645 168 137 144
-0.22230524 0.4195222 -0.85643882 143 126 123
-0.22349592 0.41937298 -0.85668939 157 132 133
-0.22345243 0.41746649 -0.85617656 158 132 136
-0.22358234 0.41741973 -0.85619587 159 133 138
-0.2245266 0.41898489 -0.85683811 169 137 143
-0.21900786 0.4166607 -0.8560335 94 66 80
-0.21895963 0.41671622 -0.8560642 93 67 80
-0.21928668 0.41790256 -0.85620588 102 86 88
-0.21951857 0.41850209 -0.85626835 105 93 92
-0.21886849 0.41969892 -0.85755861 116 105 104
-0.21804614 0.41945639 -0.85808814 111 98 100
-0.2190125 0.41889384 -0.85687083 106 95 93
-0.21703397 0.41668689 -0.8570053 70 53 60
-0.21915062 0.41866195 -0.85659057 103 92 90
-0.21937808 0.41962078 -0.85707009 117 107 104
-0.21847671 0.41964394 -0.85785341 114 103 103
-0.22525543 0.41550028 -0.85590887 167 134 142
-0.2277267 0.41550878 -0.85595417 188 158 154
-0.229893 0.43579683 -0.86057121 143 113 118
-0.22958794 0.4354443 -0.861206 142 111 116
-0.22864459 0.43292302 -0.86310059 111 84 86
-0.22895972 0.43396503 -0.86247659 124 97 99
-0.22853257 0.43410486 -0.86339152 132 107 106
-0.22883463 0.43326008 -0.86271131 114 87 89
-0.22998713 0.43448403 -0.86043203 129 96 102
-0.23006073 0.43438101 -0.86034274 131 99 104
-0.22928263 0.43308085 -0.86182296 111 81 85
-0.23045458 0.43173522 -0.86033505 145 120 112
-0.22987452 0.43208393 -0.86114269 129 102 98
-0.22637631 0.43281648 -0.86231101 127 105 101
-0.22691168 0.43272153 -0.86258602 118 96 94
-0.22691061 0.43241978 -0.8625502 117 94 92
-0.2268825 0.43397826 -0.86266643 133 113 109
-0.22674426 0.43359408 -0.86258548 127 107 103
-0.22843818 0.43179893 -0.8632881 93 67 69
-0.22829066 0.43449056 -0.86333984 139 116 113
-0.22660358 0.43383849 -0.86253136 131 112 107
-0.22197361 0.43209231 -0.86042905 163 139 135
-0.2210568 0.43301475 -0.86050725 164 139 138
-0.2213057 0.43231645 -0.86027747 166 142 140
-0.22044542 0.43245366 -0.86073554 163 136 137
-0.22911198 0.43094411 -0.86212116 116 88 88
-0.22955109 0.43002069 -0.86107212 140 111 108
-0.22900206 0.43020949 -0.86198801 122 93 94
-0.22958088 0.42971286 -0.86090046 144 115 112
-0.22883582 0.4292711 -0.86185741 129 98 100
-0.22963512 0.43130982 -0.86147207 126 100 96
-0.23054065 0.43096185 -0.86000639 154 128 119
-0.23050135 0.43103004 -0.86004823 154 128 119
-0.2301338 0.42853945 -0.86023313 152 117 121
-0.22991751 0.42908609 -0.86047447 150 118 118
-0.22555846 0.42845696 -0.8608858 151 121 125
-0.22485712 0.42786339 -0.86053091 155 125 132
-0.22839193 0.42779121 -0.86168671 139 106 110
-0.22468299 0.42930159 -0.86077029 153 126 127
-0.22808954 0.42904112 -0.86202371 129 98 101
-0.22652866 0.42993468 -0.8615557 141 113 111
-0.22799696 0.43007997 -0.86239994 117 89 90
-0.2273448 0.4305582 -0.86224741 121 94 93
-0.22806597 0.43141186 -0.86298263 100 73 75
-0.22802946 0.43012762 -0.86243683 116 87 89
-0.22767463 0.43139169 -0.86276519 106 80 80
-0.22407421 0.4280034 -0.86001968 157 128 132
-0.22275496 0.42962652 -0.85991544 163 137 137
-0.22266386 0.42948422 -0.85983795 164 137 138
-0.22189824 0.43042043 -0.85982466 168 143 142
-0.22370584 0.42888075 -0.8600567 158 130 131
-0.2220047 0.43096551 -0.86002862 166 142 139
-0.22364667 0.42815146 -0.85981572 159 130 133
-0.22932878 0.4276298 -0.86090297 147 112 117
-0.22910389 0.42757812 -0.86109591 145 111 116
-0.23000556 0.42745158 -0.86018956 154 118 124
-0.22969754 0.42668289 -0.86017638 161 129 131
-0.22870928 0.42386872 -0.86008292 189 171 156
-0.22594167 0.42546257 -0.85992634 169 142 144
-0.2247247 0.42696694 -0.86013705 158 127 136
-0.22683339 0.42499527 -0.86004692 176 153 148
-0.22798818 0.42431626 -0.86018056 183 163 152
-0.22627281 0.42749587 -0.86087835 152 121 127
-0.22749127 0.42529196 -0.86040568 174 150 144
-0.22723769 0.42572567 -0.86049414 170 145 141
-0.22838002 0.42563072 -0.86083466 166 140 135
-0.22773233 0.42501095 -0.8603738 176 154 146
-0.22718239 0.42607987 -0.86061662 165 139 137
-0.22889176 0.42353499 -0.85990816 194 179 162
-0.22850095 0.42254588 -0.85976851 198 181 167
-0.22570042 0.4331485 -0.8509686 150 130 130
-0.22577991 0.43295929 -0.8510409 148 127 127
-0.22566637 0.42387992 -0.84912103 167 148 135
-0.22572467 0.42431951 -0.8492716 156 136 124
-0.22609819 0.42412198 -0.84975624 168 148 138
-0.22522679 0.42463076 -0.8485952 145 125 112
-0.22732314 0.4206785 -0.85051513 208 201 182
-0.22762211 0.42031348 -0.85090226 207 202 180
-0.22815405 0.42086071 -0.8518942 204 198 178
-0.22738375 0.42074722 -0.85062981 208 200 182
-0.22803748 0.42104217 -0.85175318 204 197 179
-0.2270204 0.42199841 -0.85036397 209 193 185
-0.22760268 0.42029467 -0.85086632 207 202 180
-0.22591089 0.42270517 -0.84904987 185 169 156
-0.22609556 0.42146328 -0.84886181 202 189 174
-0.22613934 0.42298275 -0.8494646 186 168 157
-0.22666116 0.42334297 -0.8503142 191 171 165
-0.22598599 0.42190978 -0.8488698 195 181 167
-0.22573008 0.42262685 -0.84877211 183 167 152
-0.22700453 0.42335796 -0.8507939 197 176 172
-0.22804315 0.41691655 -0.85086578 175 165 145
-0.22808956 0.41709495 -0.85097909 177 168 147
-0.22850479 0.41834527 -0.85192722 186 184 156
-0.22723655 0.41754097 -0.8496058 186 172 162
-0.22717424 0.41732073 -0.84945631 184 169 160
-0.22637428 0.41696388 -0.8480798 185 165 161
-0.22664456 0.41863084 -0.84891999 200 188 174
-0.22622541 0.41921073 -0.84838909 207 197 181
-0.22750486 0.41828012 -0.85021448 192 182 167
-0.22806485 0.41941184 -0.85138881 200 197 174
-0.22703913 0.41909075 -0.84966511 202 194 176
-0.22831722 0.41498536 -0.85169888 166 148 135
-0.22658299 0.41571572 -0.8483777 175 150 153
-0.22805522 0.41527224 -0.85117459 167 151 137
-0.22728173 0.41273612 -0.85141176 176 138 155
-0.22754133 0.41478983 -0.85059106 171 148 145
-0.22728294 0.41497442 -0.85003436 172 148 147
-0.22731556 0.41439342 -0.85044837 173 146 149
-0.22725026 0.41254926 -0.85110557 179 142 158
-0.22678931 0.41174635 -0.85181516 170 131 150
-0.22486906 0.41051039 -0.85157639 147 111 128
-0.22528994 0.40872893 -0.85043967 127 87 108
-0.22474644 0.40891242 -0.85071862 122 79 104
-0.22205268 0.4115153 -0.85155165 134 101 114
-0.22305609 0.41121125 -0.85180736 141 106 121
-0.22442201 0.40977916 -0.85136884 131 91 113
-0.2244253 0.41028556 -0.85178941 139 100 120
-0.22217754 0.41070738 -0.85095078 123 87 104
-0.22447553 0.40895563 -0.85071599 120 76 102
-0.22131641 0.41089684 -0.85166979 125 94 104
-0.22267453 0.40916279 -0.85164839 114 79 93
-0.22119682 0.41143957 -0.85134679 126 94 105
-0.22234553 0.40980515 -0.85145521 117 83 97
-0.22390601 0.40883872 -0.85043663 113 69 95
-0.21795887 0.40954149 -0.85176575 176 156 154
-0.22025213 0.41203386 -0.85188663 131 106 110
-0.2197382 0.41042116 -0.85192764 151 125 129
-0.21932286 0.41070932 -0.85145158 154 129 133
-0.2196485 0.41061288 -0.85175651 151 125 129
-0.22528616 0.40769908 -0.84984869 129 90 110
-0.22476117 0.40767205 -0.84996307 123 79 105
-0.22535007 0.40814868 -0.84997374 121 80 102
-0.22477622 0.40645716 -0.84958136 147 108 129
-0.22187817 0.40739292 -0.85175782 147 109 121
-0.22304219 0.40738267 -0.85097831 132 94 110
-0.22442341 0.40767071 -0.85003275 122 77 104
-0.2245563 0.40733659 -0.84990406 128 84 110
-0.22892973 0.43203443 -0.85483783 148 128 127
-0.22741425 0.43318683 -0.85310686 147 124 128
-0.227896 0.43338701 -0.85361868 152 128 132
-0.22824147 0.43261427 -0.85376418 147 124 126
-0.2265629 0.43342623 -0.85221958 150 128 130
-0.22736758 0.43331236 -0.85308486 149 125 129
-0.22933584 0.43149343 -0.85567766 150 132 129
-0.22906071 0.43095994 -0.85505581 148 128 125
-0.22904785 0.43047994 -0.85503507 149 128 125
-0.22910488 0.42415512 -0.85480416 180 160 150
-0.22881138 0.42493215 -0.8540045 167 145 139
-0.22897457 0.42479992 -0.85448152 166 145 138
-0.22877814 0.42501462 -0.85391337 165 143 138
-0.22831759 0.42401952 -0.85275602 197 175 173
-0.22904995 0.42337942 -0.85458583 192 173 163
-0.22894788 0.42339104 -0.85427898 194 175 167
-0.22898115 0.42243755 -0.85434169 200 183 172
-0.22917454 0.42379674 -0.85497731 186 167 157
-0.22889982 0.4221366 -0.85405934 202 187 176
-0.22891533 0.42117852 -0.85395038 203 193 176
-0.22918341 0.42076433 -0.85482407 203 193 175
-0.22881214 0.42223313 -0.85376698 202 187 176
-0.22939129 0.42036691 -0.85548866 203 194 175
-0.22804211 0.42363486 -0.85233343 203 181 180
-0.22924185 0.41957641 -0.85481638 200 193 171
-0.22886012 0.41985524 -0.8535279 203 201 175
-0.22888048 0.41846904 -0.85331988 188 182 157
-0.22915499 0.41835487 -0.85426396 186 178 155
-0.22882676 0.41714406 -0.85286325 173 165 140
-0.2288781 0.41683099 -0.85520196 188 166 152
-0.22920482 0.41850287 -0.85477656 190 180 159
-0.22879805 0.41659987 -0.85385609 177 161 142
-0.22874664 0.41634533 -0.8538537 176 158 140
-0.22905509 0.4178651 -0.85392803 182 173 150
-0.22850972 0.41986385 -0.85230148 204 204 176
-0.22106628 0.41698712 -0.85493386 129 99 108
-0.22143334 0.4165127 -0.85483307 133 100 111
-0.22154582 0.41772872 -0.85563618 135 111 116
-0.22273682 0.41649684 -0.8554976 148 116 127
-0.22011077 0.41655853 -0.85511124 112 81 94
-0.22042595 0.41767627 -0.85546184 119 95 102
-0.22052398 0.4160867 -0.85438412 120 85 98
-0.22860365 0.4153873 -0.85492909 183 156 148
-0.22867821 0.41595191 -0.8539952 176 155 139
-0.22729871 0.41326064 -0.85222411 165 135 141
-0.22641529 0.41231033 -0.85243291 167 129 147
-0.22759096 0.41399372 -0.85224134 161 137 134
-0.22615716 0.41340494 -0.85294896 158 127 135
-0.22508605 0.41274208 -0.85332334 156 120 136
-0.22475319 0.41352308 -0.85423166 156 121 136
-0.22652733 0.41469026 -0.8536672 160 133 135
-0.22524394 0.41260904 -0.85308295 156 120 136
-0.22535327 0.41354665 -0.85374284 157 124 136
-0.2262814 0.41496977 -0.85409957 160 133 135
-0.22541626 0.41534504 -0.85583311 165 133 140
-0.22592735 0.41517636 -0.85477227 162 133 137
-0.22693186 0.41523176 -0.85569149 176 146 147
-0.22706422 0.41522253 -0.85568404 177 147 147
-0.22814338 0.41484946 -0.85331273 169 146 139
-0.22096521 0.41355348 -0.85257828 132 102 110
-0.22104982 0.41468975 -0.85336864 131 97 109
-0.22230496 0.41435117 -0.85372281 137 100 116
-0.2231127 0.41316271 -0.85325003 145 108 126
-0.22264427 0.41398168 -0.85361969 139 102 119
-0.22273035 0.41383219 -0.85355252 141 103 120
-0.22153203 0.41485763 -0.85371101 132 96 110
-0.22386317 0.41430074 -0.85448939 155 118 134
-0.22429721 0.41386497 -0.85438466 158 121 138
-0.22210939 0.41495684 -0.85407805 136 99 115
-0.2240849 0.41512254 -0.85522515 161 125 140
-0.22310506 0.41485763 -0.85451812 148 111 127
-0.22388034 0.41441807 -0.85458696 155 119 135
-0.22429489 0.41559568 -0.85575932 161 127 139
-0.21971788 0.41515043 -0.85461366 106 74 89
-0.22052144 0.41445059 -0.85329127 123 92 101
-0.2202391 0.41447905 -0.85360974 118 87 97
-0.21715422 0.41270152 -0.85584497 110 90 86
-0.21830739 0.41298363 -0.85475433 115 91 92
-0.21785407 0.41355586 -0.85562724 107 82 85
-0.22000282 0.41315198 -0.85299057 123 97 101
-0.22013022 0.41385999 -0.85331017 117 88 97
-0.21982768 0.41357058 -0.85345626 118 91 97
-0.21793674 0.41238406 -0.85477406 118 97 93
-0.21866387 0.4131549 -0.8544718 115 91 93
-0.22010675 0.41241542 -0.85237402 128 104 106
-0.2264557 0.4120914 -0.85236013 169 129 150
-0.22638427 0.41196349 -0.85229993 168 127 148
-0.22150509 0.41022182 -0.85196829 125 94 104
-0.22182131 0.40838364 -0.8522681 123 88 100
-0.22147372 0.4098022 -0.85206413 126 94 104
-0.22373876 0.41165686 -0.8524577 150 113 131
-0.22241957 0.41201872 -0.85206431 150 117 130
-0.22089212 0.40774682 -0.85228133 150 112 122
0 0 0 1 0 0 0 1 0 0 0 1 0 0 0 0 0 394 1 0 0
