ply
format ascii 1.0
comment PCL generated
element vertex 120
property float x
property float y
property float z
property uchar red
property uchar green
property uchar blue
element camera 1
property float view_px
property float view_py
property float view_pz
property float x_axisx
property float x_axisy
property float x_axisz
property float y_axisx
property float y_axisy
property float y_axisz
property float z_axisx
property float z_axisy
property float z_axisz
property float focal
property float scalex
property float scaley
property float centerx
property float centery
property int viewportx
property int viewporty
property float k1
property float k2
end_header
0.21615724 -0.078277834 -0.89865792 124 100 116
0.21706477 -0.079872653 -0.89749187 100 75 89
0.21661453 -0.080521621 -0.89601529 100 77 86
0.21738546 -0.080280602 -0.8973307 91 65 80
0.21682081 -0.081038907 -0.89561683 88 66 73
0.21776091 -0.081232958 -0.89656651 74 51 62
0.21775629 -0.080991395 -0.89688265 77 52 65
0.21777602 -0.081428632 -0.89632475 71 49 59
0.21809548 -0.08072757 -0.8976624 76 50 66
0.21233816 -0.082940236 -0.88652074 125 115 112
0.21266727 -0.083780222 -0.88563389 120 104 103
0.21268202 -0.084355325 -0.88465834 117 93 96
0.21255636 -0.084742896 -0.88374919 118 88 94
0.21362613 -0.084101364 -0.88663781 100 86 82
0.21382464 -0.085316263 -0.88476729 89 62 68
0.21384488 -0.084145345 -0.88690358 97 83 79
0.21407443 -0.084600821 -0.8864454 90 74 73
0.21380366 -0.084726155 -0.885795 93 73 74
0.21566673 -0.076134361 -0.90059537 122 88 110
0.21592945 -0.075841658 -0.90108311 111 72 97
0.2156194 -0.075191304 -0.9010973 110 72 95
0.21633868 -0.074819088 -0.90142536 88 54 81
0.21561605 -0.074213676 -0.90101773 97 68 91
0.21679126 -0.075236902 -0.90169054 83 45 74
0.21632202 -0.072872162 -0.90092313 72 59 84
0.21778014 -0.074500643 -0.90269202 65 39 68
0.21713203 -0.075572073 -0.90218091 82 42 71
0.21760322 -0.073875338 -0.9022823 64 47 75
0.21776019 -0.073549666 -0.90238172 60 48 75
0.21731246 -0.073514707 -0.90185243 64 49 76
0.21635722 -0.076929711 -0.90050322 109 73 96
0.2162106 -0.077335522 -0.89984542 117 86 106
0.21631186 -0.077344492 -0.89995635 114 82 102
0.21667714 -0.076855958 -0.90097511 100 59 84
0.216929 -0.076820396 -0.90133309 93 51 77
0.21726179 -0.077447586 -0.90102142 93 55 79
0.21863182 -0.078674227 -0.90134555 86 56 76
0.21776946 -0.077050544 -0.90215272 82 40 67
0.21784806 -0.078827187 -0.90014523 98 71 89
0.21758173 -0.078701317 -0.89994854 101 73 91
0.21810283 -0.077348106 -0.90223271 81 40 66
0.21767813 -0.077938877 -0.90097922 92 57 80
0.21843362 -0.079366319 -0.90018064 92 65 83
0.21868899 -0.079569049 -0.9002012 87 59 78
0.21818452 -0.07936345 -0.89982957 93 66 84
0.21271841 -0.082709529 -0.88750809 123 113 109
0.21455933 -0.083808705 -0.88861263 101 87 86
0.21339089 -0.083258152 -0.88767439 113 103 99
0.21580394 -0.08378122 -0.89060676 99 82 87
0.21431036 -0.083115309 -0.88928413 113 98 100
0.21382283 -0.081927009 -0.89024657 130 113 119
0.21310769 -0.082523599 -0.88829881 124 112 110
0.2152815 -0.083282791 -0.89052534 108 91 96
0.2136029 -0.082504794 -0.88908136 123 109 110
0.21474452 -0.082492918 -0.89084023 120 102 109
0.21671323 -0.084528565 -0.89088833 76 63 68
0.21561901 -0.084228866 -0.88955516 90 75 78
0.21485235 -0.084324926 -0.88816965 89 76 75
0.2155353 -0.084064923 -0.88971949 94 78 81
0.21760368 -0.074919492 -0.90411681 99 65 79
0.2179341 -0.076088168 -0.90394151 110 72 93
0.21794041 -0.074636623 -0.90507495 121 97 102
0.21900195 -0.075985663 -0.90636712 173 159 160
0.21854958 -0.074903063 -0.9062081 154 141 138
0.21865195 -0.075160518 -0.90623444 158 145 143
0.21781667 -0.07283587 -0.90566063 115 104 97
0.21821982 -0.072592124 -0.90308779 55 56 77
0.21804366 -0.072590835 -0.90440369 85 81 88
0.21787588 -0.073815621 -0.90347791 75 56 76
0.21777679 -0.073023707 -0.90562403 115 102 96
0.22027498 -0.078036793 -0.90508419 120 97 109
0.2203601 -0.077284202 -0.90652454 138 112 124
0.22058713 -0.078501739 -0.90476149 103 77 92
0.21807662 -0.076435611 -0.90366083 102 64 87
0.21944159 -0.077654354 -0.90421349 114 89 103
0.21832995 -0.076918565 -0.90324789 90 51 75
0.21883434 -0.076899841 -0.90439385 121 93 107
0.21906203 -0.076581642 -0.90553302 152 133 139
0.21974586 -0.077716254 -0.90475786 128 109 118
0.21814038 -0.076760456 -0.90314877 88 47 72
0.22153254 -0.078673586 -0.90585625 94 66 83
0.2208984 -0.0781608 -0.90582001 110 81 97
0.22146741 -0.078341678 -0.90633786 103 74 91
0.21909946 -0.073267244 -0.90767002 112 105 94
0.22043212 -0.075759679 -0.908243 150 137 131
0.22020376 -0.075268082 -0.90816706 141 129 123
0.2201698 -0.074962854 -0.90823585 130 119 113
0.22000493 -0.074032888 -0.90837926 101 93 87
0.21859892 -0.073356435 -0.90709895 138 130 116
0.21895209 -0.075257055 -0.90673512 169 159 154
0.21965431 -0.074917935 -0.90768683 149 138 129
0.22104262 -0.075523458 -0.90873373 115 105 102
0.22107041 -0.075668216 -0.90869349 120 109 107
0.22184446 -0.07560347 -0.9089849 88 80 80
0.21955898 -0.076454818 -0.90670002 170 155 157
0.22214611 -0.078658737 -0.9067654 91 65 81
0.22142874 -0.077434294 -0.90758449 121 101 108
0.22111651 -0.077652626 -0.90694582 120 93 107
0.22123025 -0.077350788 -0.90746641 125 103 111
0.22196569 -0.076752387 -0.90853918 110 99 100
0.21217033 -0.08522898 -0.88235074 117 85 93
0.21222036 -0.085232347 -0.88244182 116 83 91
0.21463826 -0.08078023 -0.89295477 124 104 111
0.21377468 -0.080642343 -0.89192706 137 117 126
0.21658292 -0.081432283 -0.89479005 86 66 70
0.2165505 -0.081957914 -0.89405435 86 66 71
0.21620472 -0.081394069 -0.89431036 91 72 77
0.21387361 -0.080767892 -0.89189851 135 115 124
0.21597303 -0.083523415 -0.89121473 100 82 88
0.21592967 -0.08183834 -0.89335048 98 78 84
0.2157325 -0.082262397 -0.8925249 102 83 89
0.21483071 -0.081237122 -0.89261234 117 98 105
0.21501338 -0.082555152 -0.89114767 116 98 105
0.21677506 -0.083961867 -0.89168417 78 63 66
0.21757302 -0.083445713 -0.89335144 69 51 56
0.21695411 -0.083597288 -0.89239031 76 60 63
0.2173577 -0.082101762 -0.89487928 73 53 58
0.21758768 -0.08305762 -0.89388686 70 50 56
0.21792519 -0.083611235 -0.89356261 65 46 52
0.21693426 -0.084405147 -0.8913548 74 60 65
0 0 0 1 0 0 0 1 0 0 0 1 0 0 0 0 0 120 1 0 0
