ply
format ascii 1.0
comment PCL generated
element vertex 1008
property float x
property float y
property float z
property uchar red
property uchar green
property uchar blue
element camera 1
property float view_px
property float view_py
property float view_pz
property float x_axisx
property float x_axisy
property float x_axisz
property float y_axisx
property float y_axisy
property float y_axisz
property float z_axisx
property float z_axisy
property float z_axisz
property float focal
property float scalex
property float scaley
property float centerx
property float centery
property int viewportx
property int viewporty
property float k1
property float k2
end_header
-0.22533476 0.16389316 -0.80887264 110 97 95
-0.22518714 0.16238222 -0.80799735 111 94 95
-0.22506465 0.163754 -0.80830997 106 92 91
-0.22571766 0.16213025 -0.80892408 126 110 109
-0.22503716 0.16302162 -0.80796313 106 90 91
-0.22424544 0.1633103 -0.80685157 93 74 81
-0.22375479 0.1628962 -0.80614859 93 68 82
-0.22445731 0.163434 -0.80713302 94 76 80
-0.22352129 0.16409603 -0.80635428 92 70 83
-0.22296487 0.16248782 -0.80510533 92 62 86
-0.22543107 0.16174592 -0.8081705 119 102 103
-0.22478312 0.16144559 -0.80675834 103 83 87
-0.22487976 0.16056995 -0.80648762 108 88 92
-0.22477084 0.15976937 -0.80585808 107 87 91
-0.22594173 0.16146666 -0.80894881 128 113 112
-0.22587702 0.15840271 -0.80709219 125 108 110
-0.2256532 0.15940057 -0.80726826 123 106 107
-0.22581136 0.15979411 -0.80776894 126 109 109
-0.22625549 0.15867317 -0.80790842 130 114 115
-0.22639364 0.15879473 -0.80821925 132 117 117
-0.22400811 0.16061771 -0.80530435 99 74 86
-0.2242606 0.15999606 -0.80524474 102 78 88
-0.22355686 0.16147026 -0.80527115 95 67 85
-0.22640295 0.15622273 -0.80725837 143 128 126
-0.22575158 0.15442303 -0.80551702 147 130 126
-0.2267987 0.15606409 -0.80799747 146 129 130
-0.22699635 0.15779449 -0.80882746 140 126 126
-0.2269118 0.15717962 -0.80850434 142 127 127
-0.22640041 0.15613231 -0.80723029 144 128 126
-0.22624946 0.15661836 -0.80709499 140 124 122
-0.22499396 0.15796205 -0.80535179 116 95 99
-0.22503927 0.15752292 -0.80528271 120 99 102
-0.22596374 0.15736869 -0.80684847 132 115 115
-0.22511588 0.15748504 -0.80540407 121 101 103
-0.22536571 0.15659691 -0.80554122 130 111 111
-0.22869758 0.15117976 -0.80854958 186 174 178
-0.22818948 0.15042597 -0.80724889 187 175 179
-0.22831339 0.1509067 -0.80773371 185 173 177
-0.2273809 0.15303187 -0.80796874 162 143 151
-0.22802034 0.15300706 -0.80877215 169 152 159
-0.22768177 0.15297359 -0.80831629 165 147 155
-0.2278333 0.15369375 -0.80898112 163 143 152
-0.22607474 0.15302794 -0.80552822 154 138 138
-0.22627172 0.15323518 -0.80601311 154 137 138
-0.22606477 0.15243901 -0.80523324 156 141 141
-0.22567984 0.15428649 -0.80533874 147 130 126
-0.22644621 0.15297711 -0.80623615 156 139 142
-0.22644946 0.15190925 -0.8057434 160 144 148
-0.22948226 0.14746052 -0.80875826 159 146 153
-0.22898957 0.1498988 -0.808465 186 175 178
-0.22904262 0.14814276 -0.80796582 173 161 166
-0.22896835 0.14653268 -0.8070448 176 165 171
-0.2291498 0.14691469 -0.80768406 169 158 164
-0.22858615 0.14883108 -0.80710566 189 178 183
-0.22882408 0.14755653 -0.80713868 181 170 175
-0.2284103 0.14917308 -0.80695802 191 180 184
-0.22746438 0.14925329 -0.80582017 180 168 172
-0.22816974 0.1488324 -0.80651754 189 178 182
-0.22822802 0.15010852 -0.80714929 188 176 180
-0.22812986 0.14906211 -0.80656826 188 177 181
-0.22999009 0.1434745 -0.80890483 176 161 167
-0.22903521 0.14561078 -0.80697918 184 173 179
-0.22894949 0.14554659 -0.80674314 188 178 183
-0.22940595 0.14619772 -0.80807602 164 151 158
-0.22979301 0.143703 -0.80845499 180 166 172
-0.22857586 0.14282465 -0.8055442 189 178 183
-0.22872011 0.14382577 -0.80599493 190 179 184
-0.22920386 0.14425471 -0.80714434 188 176 181
-0.22961284 0.14326212 -0.80794859 185 172 177
-0.2289131 0.14517604 -0.80659932 190 179 184
-0.2287219 0.14586256 -0.80625081 191 181 186
-0.22840913 0.14400613 -0.80542791 188 178 183
-0.22793603 0.14636958 -0.80517393 187 180 182
-0.22971889 0.14158368 -0.80794835 179 166 171
-0.22882487 0.13939482 -0.80557871 172 162 167
-0.22872898 0.14018942 -0.80548602 177 166 172
-0.22867709 0.13912527 -0.80520147 172 161 167
-0.22990489 0.14255083 -0.80852169 183 169 174
-0.22871129 0.14104019 -0.80557936 181 170 175
-0.23011829 0.13938047 -0.80827063 164 149 156
-0.22934091 0.14012791 -0.80683458 173 161 167
-0.22970256 0.14090633 -0.80776209 175 162 168
-0.22940119 0.14042193 -0.80702704 175 162 168
-0.22961934 0.14044817 -0.80748439 173 160 166
-0.22945258 0.13968177 -0.80696279 170 157 164
-0.22831644 0.14243233 -0.8051188 184 173 178
-0.22937548 0.13804966 -0.80631715 166 153 161
-0.22984633 0.1383816 -0.80742645 162 148 156
-0.22818808 0.17005694 -0.8170284 92 69 78
-0.22805473 0.17028829 -0.81697589 93 70 79
-0.22853658 0.16965871 -0.81723106 90 67 75
-0.22950536 0.16850649 -0.81856894 126 103 109
-0.22893576 0.1695542 -0.8180356 106 84 90
-0.22920375 0.16784379 -0.81745076 112 87 96
-0.22957036 0.167512 -0.81802928 126 101 109
-0.22917908 0.16815159 -0.81760788 112 88 96
-0.22995953 0.16818768 -0.81942034 136 115 120
-0.23031533 0.16603443 -0.81899887 121 96 106
-0.23004401 0.16829661 -0.81970936 137 117 121
-0.23058906 0.16663443 -0.82009053 126 105 111
-0.22964057 0.16684198 -0.81774265 125 99 109
-0.22978525 0.16776311 -0.81869859 133 109 116
-0.23093943 0.16295336 -0.81965214 123 107 111
-0.23069185 0.1646035 -0.81951535 129 112 117
-0.23064309 0.16271019 -0.81878978 129 116 119
-0.23016188 0.16265389 -0.81749594 141 131 132
-0.23129076 0.16256994 -0.82046306 114 96 102
-0.23108998 0.16450642 -0.82054043 119 100 106
-0.22963236 0.1654546 -0.81702054 123 97 108
-0.23071472 0.16592295 -0.82000059 122 100 108
-0.22999665 0.16413645 -0.81754386 132 115 120
-0.22972704 0.16486484 -0.81707621 127 105 113
-0.22976862 0.16428749 -0.81699717 131 111 118
-0.23175944 0.15820672 -0.81905532 144 124 136
-0.23145284 0.1589371 -0.81882888 129 110 120
-0.23224807 0.15879014 -0.82043093 153 133 144
-0.23151127 0.16064835 -0.81998348 121 102 110
-0.23112831 0.15954408 -0.81850445 117 97 106
-0.23166676 0.16125678 -0.82068044 122 103 111
-0.23028317 0.16193952 -0.81756061 137 127 128
-0.23131454 0.16164386 -0.82014662 112 94 100
-0.23014048 0.16121322 -0.81681633 138 127 129
-0.23099342 0.16157246 -0.81925917 119 103 108
-0.23008558 0.16206667 -0.81710076 142 134 134
-0.2310067 0.16113296 -0.81907296 117 100 106
-0.2325743 0.15463077 -0.81927055 188 174 179
-0.23295695 0.15478607 -0.82040137 189 176 180
-0.23274867 0.15491618 -0.81988335 187 173 178
-0.23221722 0.15703706 -0.81947267 169 150 160
-0.23197153 0.15479638 -0.81789261 179 163 170
-0.23234251 0.15636568 -0.81945455 175 158 166
-0.23184013 0.15688513 -0.81858557 159 141 150
-0.23213065 0.15758151 -0.81954563 162 142 153
-0.2316328 0.15538409 -0.81741256 167 150 158
-0.2317723 0.15679225 -0.81839532 158 140 149
-0.23198521 0.15727723 -0.81908649 160 141 151
-0.23315825 0.15098785 -0.81698632 198 188 191
-0.23270801 0.15249537 -0.81739527 192 181 185
-0.2330389 0.15218751 -0.81802446 195 185 188
-0.23316257 0.15176874 -0.81789422 197 186 190
-0.23300144 0.15206526 -0.81778258 195 185 188
-0.23388052 0.1505903 -0.81991059 194 183 184
-0.23353356 0.15077119 -0.81833535 197 187 189
-0.23367003 0.15110664 -0.8194598 195 184 186
-0.23346642 0.15121542 -0.81853867 197 186 189
-0.23348506 0.15249844 -0.82022852 194 183 184
-0.23186707 0.1539056 -0.81694347 181 166 172
-0.23402804 0.14860713 -0.81939417 190 179 178
-0.23408972 0.14966497 -0.82029927 190 180 179
-0.23406388 0.1480712 -0.81922132 187 177 176
-0.2341239 0.14730494 -0.81901169 183 173 172
-0.23397401 0.14733706 -0.81839281 188 178 177
-0.23420313 0.14700614 -0.81916767 180 171 169
-0.23380236 0.14747828 -0.81773788 193 182 182
-0.23365383 0.14791828 -0.81719691 195 185 185
-0.23395425 0.14959918 -0.81963235 193 182 183
-0.23375015 0.15005387 -0.81881094 195 185 186
-0.23357433 0.14981671 -0.81777507 197 187 189
-0.23389739 0.14941634 -0.81924206 194 183 183
-0.2345075 0.14545035 -0.81979156 166 156 153
-0.23437878 0.14352666 -0.81840718 165 153 151
-0.234842 0.14367339 -0.8197521 163 152 150
-0.23460153 0.14381492 -0.81917071 164 153 151
-0.23410828 0.14294727 -0.81735677 167 152 151
-0.23433834 0.1440935 -0.81860089 166 154 151
-0.23424415 0.14635222 -0.81898874 177 167 165
-0.23443326 0.14632618 -0.81978703 171 162 159
-0.23392676 0.14636575 -0.81764054 187 176 175
-0.23402514 0.14381129 -0.81734926 172 158 157
-0.23425925 0.14483374 -0.81863081 169 158 155
-0.23403586 0.14480957 -0.81767255 176 164 162
-0.23548217 0.14190099 -0.82061476 160 149 148
-0.23440757 0.13910425 -0.81704807 186 176 178
-0.23410399 0.14165284 -0.81689948 172 158 158
-0.23455106 0.14094265 -0.81793171 174 163 163
-0.23426093 0.14096001 -0.81714326 176 163 163
-0.23463285 0.14158118 -0.818326 170 158 157
-0.23430315 0.1410147 -0.81727332 175 162 163
-0.23478441 0.13774642 -0.81765538 178 166 168
-0.23490328 0.13815968 -0.81797612 178 165 168
-0.23109189 0.17822839 -0.83696955 63 38 47
-0.2311015 0.17800145 -0.83700007 61 36 46
-0.23257773 0.17641091 -0.83681566 74 42 57
-0.23270643 0.17689064 -0.83637178 79 48 62
-0.23275441 0.17564833 -0.83690631 79 49 62
-0.23252149 0.17687096 -0.83667976 73 41 56
-0.23342048 0.17379996 -0.83672792 99 75 82
-0.23291858 0.17382005 -0.83753794 81 54 65
-0.23264955 0.17107822 -0.83788401 68 59 60
-0.23315029 0.1713863 -0.83717078 87 76 77
-0.23323743 0.17190972 -0.83702111 91 77 79
-0.23361948 0.17029183 -0.83664393 105 95 96
-0.23247916 0.1685143 -0.83883804 72 63 66
-0.23286144 0.1680987 -0.83855116 90 77 83
-0.23286697 0.16934617 -0.83792579 80 73 74
-0.23243764 0.16812478 -0.83908457 73 63 68
-0.23407474 0.16676769 -0.83643174 101 91 89
-0.23382962 0.16881426 -0.83662987 110 99 100
-0.23414706 0.16620265 -0.83636695 98 89 86
-0.23268637 0.16658574 -0.83948159 94 76 87
-0.23326211 0.16618244 -0.83829528 94 80 85
-0.23357049 0.1666519 -0.8375476 98 85 88
-0.23303567 0.16583003 -0.83862579 90 77 83
-0.23260264 0.16299453 -0.83668166 54 68 60
-0.23277709 0.16538368 -0.83873397 84 73 79
-0.2325941 0.16461588 -0.83835053 74 70 73
-0.23265105 0.16406614 -0.83766711 67 70 69
-0.2328921 0.16343132 -0.83649665 61 72 64
-0.2369878 0.14712536 -0.83676291 68 52 58
-0.23672773 0.14721039 -0.83693552 58 43 49
-0.22177821 0.15670565 -0.80106133 122 113 105
-0.22161791 0.15595055 -0.80040282 117 106 103
-0.22176532 0.15495795 -0.80032021 122 111 111
-0.2217821 0.15475401 -0.80028552 123 112 113
-0.22474006 0.14749649 -0.80116135 164 152 151
-0.22458431 0.14678884 -0.80072188 171 161 156
-0.22375382 0.14664645 -0.7998516 165 154 148
-0.22423388 0.14652352 -0.80031431 171 162 155
-0.22454055 0.14737302 -0.80079246 163 152 149
-0.22493924 0.14551993 -0.80111867 172 161 160
-0.22487539 0.14374277 -0.80059171 158 146 152
-0.22463892 0.14602177 -0.80064487 173 163 158
-0.22454251 0.14582099 -0.800484 171 161 156
-0.22405364 0.14350875 -0.79951441 150 137 142
-0.22446576 0.14402869 -0.80004019 159 146 149
-0.22547689 0.14098698 -0.80091077 147 134 145
-0.22573219 0.13978571 -0.8009848 145 132 141
-0.22462283 0.14052458 -0.79939359 144 132 136
-0.22498257 0.14149264 -0.80020928 149 135 143
-0.22523135 0.13976149 -0.80016744 144 131 137
-0.22495501 0.13992999 -0.79977113 143 131 136
-0.22329065 0.13910407 -0.79779649 114 97 105
-0.2237788 0.13957042 -0.7983647 125 110 116
-0.22311747 0.13893853 -0.79759485 110 92 101
-0.22453384 0.13894568 -0.79890376 137 127 127
-0.22325306 0.14105876 -0.79819173 124 109 117
-0.22323844 0.14111975 -0.79818958 125 109 117
-0.22285227 0.14143936 -0.79786319 122 107 115
-0.22519076 0.13855706 -0.7997731 140 130 133
-0.22568744 0.13783437 -0.80021685 148 137 145
-0.22461973 0.13864653 -0.79890889 138 129 128
-0.22608857 0.13801256 -0.80095714 144 129 140
-0.22669296 0.13545561 -0.80079383 142 120 137
-0.22592258 0.13659541 -0.80003715 149 135 146
-0.22584364 0.1362669 -0.79975688 151 138 149
-0.22590293 0.13529491 -0.79941249 153 138 150
-0.2262634 0.13682333 -0.80070525 144 128 140
-0.22350596 0.13790846 -0.79750937 123 108 115
-0.2245609 0.13732094 -0.79819304 148 140 141
-0.22415337 0.13830166 -0.79830086 132 121 123
-0.22740158 0.13109322 -0.79970121 152 129 146
-0.22696234 0.13401279 -0.80062544 140 113 134
-0.2272121 0.13385218 -0.80083513 142 117 136
-0.2274164 0.13129072 -0.79979903 152 129 146
-0.22685711 0.13186097 -0.79943419 146 120 139
-0.22615002 0.13123876 -0.79830545 142 113 135
-0.22646284 0.13234204 -0.79921627 141 113 135
-0.22539888 0.13366316 -0.79802674 154 137 152
-0.22638138 0.13432084 -0.7998386 145 123 141
-0.22530945 0.13388132 -0.79794008 157 142 155
-0.22587998 0.13246082 -0.79848498 141 113 135
-0.22538552 0.13130496 -0.79734099 141 111 134
-0.22790362 0.17019148 -0.81670463 94 72 80
-0.22861014 0.16854772 -0.81663477 92 65 76
-0.22857939 0.167518 -0.8158583 97 70 83
-0.22886069 0.16671564 -0.81592417 105 77 91
-0.22829032 0.16824459 -0.81594831 91 64 76
-0.22753116 0.1661189 -0.81357408 98 71 87
-0.22825843 0.16687053 -0.81496423 98 71 85
-0.22788829 0.16854696 -0.81566358 92 67 79
-0.22725508 0.16906315 -0.81494808 98 74 84
-0.22740938 0.16823 -0.81476265 95 71 83
-0.22760583 0.16891338 -0.81547254 95 71 82
-0.22715895 0.16758996 -0.81398302 97 72 85
-0.22747721 0.16937208 -0.81549925 96 73 82
-0.22964773 0.16351229 -0.81648773 134 118 123
-0.2291542 0.16583067 -0.81603694 114 87 101
-0.22952616 0.16513093 -0.81666309 124 99 110
-0.22909814 0.16476852 -0.81562334 119 97 108
-0.22909476 0.16293228 -0.81497377 120 106 109
-0.22889322 0.16272625 -0.81440544 114 100 101
-0.2288563 0.16277879 -0.81433433 113 98 100
-0.22921531 0.1638553 -0.81560606 124 106 114
-0.22866519 0.16545522 -0.81484497 108 82 97
-0.22835639 0.16212593 -0.81305677 103 89 88
-0.22826284 0.16395684 -0.81361467 103 82 89
-0.22740488 0.16538046 -0.81311512 98 74 87
-0.22798637 0.16557819 -0.81388646 101 75 90
-0.22884712 0.16128264 -0.81363356 107 94 95
-0.22905146 0.16049981 -0.81372273 108 94 99
-0.22959901 0.16150773 -0.81559116 131 120 122
-0.2291543 0.16154803 -0.81452423 118 106 107
-0.22918545 0.16128828 -0.81446421 117 105 107
-0.23002636 0.16167326 -0.81674647 142 132 133
-0.22986041 0.16050564 -0.81573743 128 116 121
-0.22970374 0.15978616 -0.81497407 119 105 112
-0.22978942 0.15880817 -0.8147136 110 93 103
-0.2303952 0.15865874 -0.81621611 114 96 105
-0.23001145 0.16019367 -0.81597626 126 113 118
-0.23094615 0.15679935 -0.81659776 136 118 126
-0.23047188 0.15455666 -0.81407189 180 168 169
-0.23059279 0.15487573 -0.81456852 173 160 162
-0.23065948 0.15790296 -0.81650513 118 99 108
-0.23070753 0.15760411 -0.81645423 123 104 113
-0.23078579 0.15535016 -0.81534082 163 149 153
-0.22972386 0.15749155 -0.81383288 118 100 111
-0.22978291 0.15717903 -0.813806 125 108 117
-0.22990255 0.15803696 -0.81461293 108 89 101
-0.23030581 0.15682261 -0.8149609 137 121 127
-0.23066753 0.15799868 -0.81658155 116 97 106
-0.23056678 0.15747355 -0.81601602 126 108 116
-0.23257713 0.15234621 -0.81679118 191 179 184
-0.23296951 0.15101874 -0.81652063 195 185 189
-0.23223953 0.15095183 -0.81489086 187 175 181
-0.23170282 0.15101027 -0.81409013 182 169 175
-0.23143257 0.15172537 -0.814282 178 164 170
-0.23171446 0.1515314 -0.81457031 182 169 175
-0.23160997 0.15291768 -0.81561637 179 164 170
-0.23142877 0.15271044 -0.815099 178 163 169
-0.23141287 0.15215239 -0.81460834 178 163 169
-0.23030789 0.15426628 -0.81347466 186 175 174
-0.23154165 0.15405691 -0.8164742 177 161 167
-0.2312745 0.15362577 -0.81544065 179 164 169
-0.23120908 0.15224329 -0.81415826 179 166 170
-0.2330545 0.14879769 -0.81578296 192 181 184
-0.23314878 0.14896083 -0.81604177 193 183 186
-0.2325581 0.14998576 -0.81490189 189 177 183
-0.2329977 0.14723918 -0.81518471 192 182 184
-0.23276062 0.14743334 -0.81463999 191 182 184
-0.23274925 0.14878808 -0.81502402 190 179 183
-0.23325013 0.14766149 -0.81595647 192 181 183
-0.23237023 0.14743595 -0.813703 191 182 185
-0.23227003 0.14963263 -0.81421721 188 177 182
-0.23192601 0.14982793 -0.8137272 185 173 179
-0.23169489 0.14920728 -0.81317961 183 173 177
-0.23303819 0.14644335 -0.8150509 192 183 184
-0.23327151 0.14555933 -0.81549823 187 176 176
-0.23254453 0.1463 -0.81376958 190 183 185
-0.23352471 0.14378531 -0.81584817 175 162 162
-0.23367243 0.14353536 -0.81618291 174 159 159
-0.23293392 0.14339155 -0.8145318 174 162 164
-0.23248 0.1459595 -0.81360185 189 181 183
-0.23275369 0.14538558 -0.81418753 185 176 177
-0.23271573 0.14276081 -0.81403702 171 158 162
-0.23266202 0.14586669 -0.81399876 188 179 181
-0.23233183 0.14328213 -0.81328619 174 163 167
-0.23206164 0.14468379 -0.81293982 180 172 174
-0.23244511 0.14102575 -0.81297559 174 162 169
-0.23272854 0.14220844 -0.81394058 171 158 162
-0.23283756 0.13986981 -0.81342119 175 162 170
-0.23264685 0.14159662 -0.81356293 172 159 165
-0.23349611 0.14226568 -0.81564295 169 154 156
-0.23295254 0.1394337 -0.81353194 176 162 170
-0.23390615 0.14055029 -0.81613618 177 163 165
-0.23383082 0.1412558 -0.81612056 173 158 160
-0.23347354 0.13908254 -0.81471634 181 169 175
-0.23394798 0.13998815 -0.81610376 180 167 170
-0.23394485 0.14094891 -0.81632757 175 161 163
-0.2339831 0.14226101 -0.81673813 169 154 153
-0.23436105 0.13697603 -0.81652015 179 168 169
-0.23368245 0.13641673 -0.8143326 166 146 155
-0.2332812 0.13650407 -0.8133747 163 144 154
-0.23372515 0.13738483 -0.81478101 174 158 165
-0.23346949 0.13739403 -0.81415427 172 156 164
-0.23414147 0.13800748 -0.81602776 182 170 174
-0.23390004 0.13829109 -0.8155334 183 171 176
-0.23104417 0.18295284 -0.83220959 143 117 125
-0.23096938 0.17869276 -0.82949865 124 104 113
-0.2315755 0.1788065 -0.83152455 129 110 111
-0.23181604 0.178967 -0.83240044 132 112 110
-0.23134683 0.18017308 -0.83163881 131 107 113
-0.23172362 0.17828853 -0.83167946 129 111 110
-0.23170458 0.17788242 -0.83136493 128 111 109
-0.23055042 0.18099941 -0.82895809 144 128 127
-0.23084594 0.18073162 -0.83004534 137 117 121
-0.23085153 0.18046097 -0.82992893 136 115 120
-0.23086745 0.17824951 -0.82885426 123 105 114
-0.23111528 0.18022609 -0.83090138 130 106 115
-0.23101212 0.18046287 -0.83059579 133 110 117
-0.23252119 0.17459647 -0.82906127 128 103 107
-0.23273805 0.17496093 -0.83077937 128 107 107
-0.23273627 0.17386037 -0.82862741 127 100 106
-0.2328063 0.17472114 -0.83076793 128 106 108
-0.2326809 0.17540334 -0.83125877 128 109 108
-0.23288219 0.17454387 -0.83092904 127 106 108
-0.23198463 0.17731649 -0.83160037 128 112 109
-0.23173553 0.17737144 -0.83087265 127 110 110
-0.23192774 0.17596269 -0.82927471 126 105 109
-0.23241261 0.17499898 -0.82934749 128 104 108
-0.23234181 0.17469469 -0.82862043 127 102 108
-0.23198138 0.17570636 -0.82904172 126 104 109
-0.23187542 0.17698336 -0.83074278 127 110 110
-0.23140456 0.176791 -0.82885563 123 104 111
-0.23365812 0.17100893 -0.83241969 121 101 106
-0.23324248 0.17233074 -0.83103681 122 106 108
-0.23320723 0.17128493 -0.83015293 120 105 107
-0.23353644 0.17147158 -0.83206493 121 103 107
-0.23372185 0.16995233 -0.83206648 119 100 105
-0.2332174 0.17247239 -0.83097792 122 106 108
-0.23316592 0.17215827 -0.83045095 122 105 107
-0.23303251 0.17279668 -0.82993537 124 103 107
-0.2330841 0.17124091 -0.82936865 120 104 106
-0.23310362 0.17276628 -0.83039159 123 104 107
-0.23368876 0.16704883 -0.83177733 128 110 111
-0.23365724 0.16604169 -0.83158875 131 115 113
-0.23360458 0.16755202 -0.83100402 121 101 105
-0.23366247 0.16800308 -0.83146852 122 102 106
-0.23355554 0.16747662 -0.83058465 119 98 103
-0.23373912 0.16729152 -0.83219379 130 112 112
-0.23343483 0.16863355 -0.83007312 117 98 102
-0.23318858 0.16936405 -0.82897013 117 102 104
-0.23350765 0.16839595 -0.83039242 117 96 102
-0.23342493 0.16794953 -0.82979959 116 95 101
-0.23324202 0.16734126 -0.82861054 114 94 100
-0.23319408 0.16926333 -0.82896757 117 101 104
-0.2344088 0.16292456 -0.83125705 115 93 97
-0.23413594 0.16399978 -0.83147722 123 103 105
-0.23450112 0.1627509 -0.83142096 113 91 95
-0.23454633 0.16315822 -0.83211851 113 94 95
-0.23405297 0.16420846 -0.83139586 125 106 107
-0.2345954 0.16252351 -0.83152562 110 88 92
-0.23363897 0.16459346 -0.82925165 119 96 103
-0.23370394 0.16421546 -0.82923615 119 96 103
-0.23364525 0.16598852 -0.83144468 131 114 112
-0.23385847 0.1634903 -0.82946563 122 98 105
-0.23361072 0.16563489 -0.83060282 126 107 108
-0.23364484 0.16540535 -0.83054721 126 106 108
-0.2348603 0.16040906 -0.83227205 96 81 80
-0.23432124 0.1586424 -0.82974195 132 117 119
-0.23449688 0.15986159 -0.83047068 126 108 111
-0.2348357 0.15946332 -0.83228505 90 78 76
-0.2347399 0.15939699 -0.83179867 99 86 85
-0.2345764 0.16192347 -0.83091193 111 88 93
-0.2348689 0.16185106 -0.83211488 107 86 88
-0.23441398 0.16206105 -0.83025205 112 87 95
-0.23429029 0.16102156 -0.82965392 123 101 108
-0.23421913 0.15936853 -0.82922161 140 121 125
-0.23470818 0.16172211 -0.83143979 110 89 93
-0.23484312 0.15791193 -0.83220619 85 77 74
-0.23497941 0.1554582 -0.83047205 122 110 113
-0.23480284 0.15443921 -0.83224714 34 22 27
-0.23508696 0.1548201 -0.8292492 163 150 155
-0.23486258 0.15758112 -0.83196062 91 82 79
-0.23457538 0.1575169 -0.8301428 128 116 117
-0.23491774 0.15535605 -0.82882696 171 157 162
-0.23487508 0.1556882 -0.82908088 163 150 154
-0.23465711 0.15685281 -0.82961679 144 130 133
-0.23461908 0.15646401 -0.82886386 161 146 151
-0.23558523 0.15083435 -0.83119226 93 76 80
-0.23510492 0.15041123 -0.82941628 121 101 107
-0.23536782 0.15140942 -0.83115888 85 68 73
-0.23502511 0.15095806 -0.82974148 109 89 96
-0.23527174 0.15133393 -0.83081275 90 73 78
-0.23572294 0.15047072 -0.83121401 99 81 85
-0.23480211 0.15159784 -0.82959139 105 86 93
-0.23483513 0.15267009 -0.83028978 90 74 80
-0.23482424 0.15101033 -0.82877851 130 109 117
-0.23483454 0.15220888 -0.82984382 102 85 92
-0.23485707 0.15196957 -0.82936788 119 100 108
-0.23544171 0.14710987 -0.83045638 95 75 80
-0.23564936 0.14724906 -0.83130485 86 66 71
-0.23548014 0.14664829 -0.83079803 89 69 74
-0.23574364 0.14670855 -0.83191878 77 58 62
-0.23570995 0.1473134 -0.83154345 84 64 69
-0.2350453 0.14817277 -0.82899195 117 95 101
-0.23508781 0.14716686 -0.82900441 112 90 96
-0.23545487 0.14964753 -0.83030087 108 88 93
-0.23487514 0.14964028 -0.82866985 127 105 113
-0.23491888 0.14880215 -0.82870352 123 101 108
-0.23495144 0.14751428 -0.82865793 118 95 102
-0.23390712 0.14284182 -0.82947618 66 49 67
-0.23459356 0.14430259 -0.83085048 65 47 60
-0.23326996 0.14277098 -0.8307209 50 31 53
-0.23441866 0.14329049 -0.82924521 74 58 72
-0.23388214 0.14381441 -0.831438 53 34 51
-0.23308349 0.14327686 -0.83211809 39 18 40
-0.23396958 0.14354898 -0.83072752 59 40 57
-0.23472942 0.14450738 -0.82942277 84 66 77
-0.23529299 0.14573927 -0.83073395 82 63 70
-0.23522387 0.14527948 -0.83085752 76 58 66
-0.23480107 0.14519304 -0.82910216 95 75 85
-0.23497599 0.14591083 -0.82920015 101 80 88
-0.23462887 0.14449917 -0.82899398 89 70 82
-0.23246497 0.14216682 -0.83077002 31 11 35
-0.23275585 0.1422016 -0.83024997 39 19 42
-0.23271115 0.14169024 -0.8287046 36 19 39
-0.22180521 0.13161419 -0.79335177 83 63 78
-0.22176461 0.13157505 -0.79328787 83 63 78
-0.2215081 0.13191766 -0.79310191 80 60 77
-0.22175449 0.13079235 -0.79297429 87 64 80
-0.22215249 0.13034762 -0.79324955 92 71 85
-0.22190185 0.12966566 -0.79261535 97 73 91
-0.22296767 0.1277342 -0.79300535 116 99 110
-0.22167672 0.12935789 -0.79222745 96 71 92
-0.22085525 0.12919717 -0.79140753 78 52 77
-0.22114326 0.13008247 -0.79192066 88 60 85
-0.22173345 0.12895212 -0.79217064 96 72 92
-0.2219775 0.16395946 -0.80428749 86 58 81
-0.22139655 0.16244997 -0.8028149 66 41 58
-0.22187735 0.1632421 -0.80383807 80 52 73
-0.22205977 0.16216129 -0.80365074 75 48 67
-0.22235166 0.16216289 -0.80407214 80 51 73
-0.22247545 0.16012196 -0.80299687 85 64 71
-0.22391218 0.15861727 -0.80410409 110 90 92
-0.22272885 0.15896857 -0.80290556 105 89 88
-0.22298074 0.16206135 -0.80492532 90 60 83
-0.22224946 0.16071804 -0.80299038 78 55 65
-0.22293648 0.16194393 -0.80478454 89 59 82
-0.22231609 0.16111422 -0.80334616 79 54 68
-0.22239296 0.16205621 -0.80407459 80 52 73
-0.22298737 0.16154039 -0.80459332 90 62 81
-0.22461909 0.15558659 -0.80375862 133 117 112
-0.22510451 0.15565634 -0.80473655 135 117 114
-0.2246643 0.15608239 -0.80403751 130 113 109
-0.22373496 0.15451428 -0.80244654 134 121 115
-0.2243256 0.15715002 -0.80405331 121 103 102
-0.22438554 0.15635096 -0.80380708 127 110 107
-0.22417489 0.15570545 -0.80334699 130 114 110
-0.22382808 0.15707915 -0.8035056 120 103 102
-0.22266223 0.15472141 -0.80143344 126 116 112
-0.22301076 0.15542336 -0.80205196 124 112 109
-0.22190899 0.15699458 -0.80135 122 114 105
-0.22381985 0.15803611 -0.80381292 118 100 99
-0.22249907 0.15641309 -0.80181193 123 112 106
-0.22561002 0.15300542 -0.80460477 152 137 134
-0.22584395 0.15264934 -0.80489761 154 139 138
-0.22506222 0.15363219 -0.80382288 146 132 126
-0.22542976 0.15058891 -0.80316013 142 127 135
-0.22545399 0.15126151 -0.80350858 146 131 136
-0.22503027 0.15262356 -0.80330408 143 129 127
-0.22494063 0.1527929 -0.80320746 142 127 125
-0.22488619 0.15128127 -0.80242425 132 117 123
-0.22597671 0.15129106 -0.80452836 159 145 147
-0.22397783 0.15227741 -0.80170596 125 110 113
-0.22420622 0.15200499 -0.8018145 125 109 113
-0.22331448 0.15370484 -0.80167496 129 117 114
-0.22284903 0.1539526 -0.80131656 127 117 114
-0.22542343 0.148008 -0.80259329 173 161 160
-0.22496565 0.14911026 -0.80192733 147 133 138
-0.22590533 0.15034318 -0.80397755 153 139 146
-0.22565535 0.149777 -0.80338562 155 141 146
-0.22489069 0.14726028 -0.80142134 170 159 156
-0.22595564 0.14699957 -0.80285925 180 170 168
-0.22692703 0.14797382 -0.80456787 178 168 170
-0.22650658 0.1498196 -0.80486244 169 156 160
-0.2264338 0.14857695 -0.80420101 174 163 165
-0.22727647 0.14800517 -0.80503702 179 169 172
-0.22696394 0.14706434 -0.80420113 182 173 174
-0.22686437 0.14666013 -0.80388719 183 175 175
-0.22762379 0.14269848 -0.80423981 177 165 172
-0.22661014 0.14351156 -0.80300051 167 156 165
-0.22710922 0.14445262 -0.8038047 174 164 171
-0.22562508 0.14270657 -0.80156553 154 141 154
-0.22776024 0.14412312 -0.80462849 181 171 176
-0.22664917 0.14303546 -0.80298394 166 155 164
-0.22589327 0.14306021 -0.80197567 158 146 157
-0.22579132 0.14498971 -0.80215877 170 160 163
-0.2255864 0.14348085 -0.80163813 158 146 156
-0.22603597 0.14644039 -0.80272132 182 173 171
-0.22650869 0.14598332 -0.80325967 180 171 172
-0.22547401 0.14467698 -0.80169314 167 156 160
-0.22730322 0.14637601 -0.80435985 184 177 178
-0.22515108 0.14646722 -0.80157405 180 170 165
-0.2265192 0.13885169 -0.8019017 149 136 144
-0.22705442 0.1391322 -0.80272359 156 144 152
-0.22814348 0.13891335 -0.80427945 166 155 162
-0.22777165 0.14046565 -0.80398256 170 159 165
-0.22656697 0.13952835 -0.8020882 152 139 148
-0.22735427 0.14010735 -0.80331999 164 152 159
-0.22652805 0.14213733 -0.80265117 162 150 160
-0.22682959 0.1401186 -0.80257601 157 145 153
-0.2260087 0.14128967 -0.80175489 153 140 151
-0.22680368 0.14002292 -0.80251867 157 144 152
-0.22659934 0.13974488 -0.80217922 153 141 149
-0.22751696 0.14215197 -0.80397832 173 162 169
-0.2262934 0.14136156 -0.80215305 156 144 154
-0.22869022 0.13805032 -0.8048963 170 159 165
-0.22864567 0.13798305 -0.80476731 170 159 165
-0.22783484 0.13646589 -0.80288774 154 136 149
-0.22820944 0.13694341 -0.80358678 163 148 157
-0.22765519 0.13610858 -0.80249226 150 130 145
-0.22650915 0.13803627 -0.80160564 145 130 141
-0.22683488 0.13651741 -0.80147165 142 123 137
-0.2279315 0.13716206 -0.80332923 156 140 152
-0.22700213 0.13537249 -0.80125642 140 116 134
-0.22761343 0.13771939 -0.80308884 155 141 151
-0.22695838 0.13549681 -0.80124247 140 116 134
-0.23099658 0.17004226 -0.82424122 130 104 109
-0.23078638 0.17000343 -0.82346004 135 110 114
-0.23093574 0.17030001 -0.82419986 128 103 108
-0.23178598 0.16610308 -0.82279038 121 104 100
-0.23188172 0.16718347 -0.82400376 122 103 99
-0.23189129 0.16649526 -0.82340431 121 103 99
-0.23220111 0.16655968 -0.82422686 120 104 96
-0.23109037 0.16800927 -0.82279938 126 102 108
-0.23154978 0.16769522 -0.82364833 124 103 103
-0.23092611 0.16854817 -0.8227213 130 106 111
-0.23095293 0.16899477 -0.82320267 130 105 111
-0.23087311 0.16686967 -0.82108396 126 105 111
-0.23072691 0.1693709 -0.82271546 135 112 116
-0.2326725 0.16485398 -0.82457393 122 105 101
-0.23249482 0.16289474 -0.82332432 110 89 98
-0.23262216 0.16424838 -0.82418472 119 101 101
-0.23209929 0.16397227 -0.82282597 114 97 96
-0.23226142 0.16369076 -0.82307059 112 93 96
-0.23240472 0.16506679 -0.82389152 117 100 95
-0.23164481 0.16581717 -0.82230538 121 103 102
-0.2315819 0.16338871 -0.82143825 114 96 99
-0.23158495 0.16350643 -0.82148027 114 97 99
-0.23210421 0.16536273 -0.82330614 119 103 97
-0.23153815 0.16391984 -0.821486 116 98 100
-0.23248591 0.16074799 -0.82216603 127 106 119
-0.23260374 0.16045573 -0.82231539 135 113 127
-0.23326482 0.16008113 -0.82405663 148 130 140
-0.23265444 0.15886892 -0.82148659 159 139 151
-0.23295368 0.16121687 -0.82376999 133 111 125
-0.23315407 0.15834948 -0.82270819 168 152 160
-0.23272897 0.15820961 -0.8213293 168 149 159
-0.23302966 0.16035776 -0.82350045 144 124 136
-0.23181443 0.16123453 -0.82098478 122 103 111
-0.2317546 0.16195351 -0.82129472 111 92 100
-0.23230514 0.16076919 -0.82175827 126 105 118
-0.23354897 0.15443991 -0.82319105 171 157 166
-0.23363331 0.15663067 -0.82361591 176 164 168
-0.23332705 0.15469703 -0.82180601 185 172 177
-0.2333198 0.15475354 -0.82175857 186 173 177
-0.23368576 0.15509169 -0.82400894 166 152 162
-0.23287705 0.15691829 -0.821154 176 160 167
-0.23295315 0.15570615 -0.82079816 184 169 175
-0.23303191 0.15638952 -0.82137007 180 165 171
-0.23306842 0.15564236 -0.82111895 185 171 176
-0.23311619 0.15551296 -0.82120204 186 173 176
-0.23436803 0.15091315 -0.82383716 159 145 155
-0.23434629 0.15078959 -0.82346356 163 149 158
-0.23398183 0.1520863 -0.82265955 174 161 168
-0.23425703 0.15135744 -0.82367229 162 148 158
-0.23404521 0.1512672 -0.82183754 182 169 173
-0.23324782 0.1540776 -0.82100821 191 178 181
-0.23385306 0.15210277 -0.82182854 183 170 174
-0.23370585 0.15379019 -0.82341754 168 154 164
-0.23337799 0.15378989 -0.82138759 187 174 178
-0.23330286 0.1540865 -0.82136214 187 175 179
-0.23482066 0.14861338 -0.82433903 151 139 147
-0.23503648 0.14714429 -0.82418126 153 142 147
-0.23471759 0.14738217 -0.82225412 159 150 151
-0.23501241 0.14757723 -0.82449961 151 140 146
-0.23487581 0.14706698 -0.82299 157 147 149
-0.23467061 0.14752202 -0.82208741 160 150 151
-0.23460948 0.14668517 -0.8207044 167 159 155
-0.23421162 0.14997597 -0.82127261 183 172 174
-0.23448482 0.14880893 -0.82212412 166 155 158
-0.2344338 0.14907406 -0.82201874 169 158 161
-0.23416331 0.15035777 -0.82132143 185 174 176
-0.23439753 0.14959401 -0.82232052 169 157 162
-0.23551004 0.14389011 -0.82288593 155 143 142
-0.23548949 0.14329869 -0.82203776 156 146 144
-0.23556224 0.14337233 -0.82249898 156 144 141
-0.23574211 0.14280514 -0.82269657 155 142 137
-0.23524521 0.14573599 -0.82386661 153 143 146
-0.23512073 0.14483802 -0.82179999 159 150 149
-0.23501368 0.14599337 -0.82262391 158 149 149
-0.23479511 0.14642097 -0.82169819 162 153 151
-0.23520292 0.1438738 -0.8210631 160 151 149
-0.23524237 0.14456201 -0.82226366 156 147 147
-0.23522598 0.14603403 -0.82413876 152 143 146
-0.23644514 0.13964033 -0.8239426 157 138 138
-0.23636027 0.14027163 -0.82374716 158 138 136
-0.23631307 0.14157046 -0.82436997 157 138 131
-0.23618402 0.14078589 -0.8230741 157 138 135
-0.23585914 0.14251122 -0.82294577 155 140 134
-0.23594972 0.14178832 -0.82277745 156 139 135
-0.23557478 0.14171994 -0.82081866 159 147 147
-0.23599303 0.14190727 -0.82310003 155 138 133
-0.23132651 0.18234022 -0.83294415 135 109 117
-0.23130983 0.18222992 -0.83280891 135 109 117
-0.23189019 0.17920496 -0.83451343 105 89 86
-0.23204386 0.17875385 -0.83484679 98 78 80
-0.23213699 0.1785486 -0.83522201 91 68 74
-0.23211892 0.1785408 -0.83502823 94 72 76
-0.23157769 0.18037713 -0.83324718 123 102 104
-0.23185362 0.17891863 -0.83306891 124 107 103
-0.23140429 0.18133482 -0.83359754 120 98 102
-0.23194461 0.17842224 -0.83292085 125 109 104
-0.23184629 0.17887671 -0.83260536 130 111 108
-0.23315087 0.1745089 -0.83288246 119 99 103
-0.23313707 0.17457382 -0.83295101 118 98 102
-0.23262544 0.17675889 -0.83463001 96 70 79
-0.23298067 0.17525041 -0.83349782 111 89 94
-0.23282541 0.176098 -0.83466923 95 68 78
-0.23297858 0.17547601 -0.83426392 102 77 86
-0.23299302 0.17592603 -0.83594 91 63 74
-0.2327936 0.17649631 -0.83566147 87 58 70
-0.23260872 0.17712528 -0.8357411 81 50 64
-0.23313084 0.17483895 -0.83379698 110 87 94
-0.23293689 0.1758506 -0.83506632 95 68 79
-0.23230436 0.17722994 -0.83267736 127 110 105
-0.23374936 0.17172506 -0.83483529 114 94 98
-0.23373489 0.17203358 -0.83494288 113 92 97
-0.23382998 0.17048892 -0.83534431 115 100 104
-0.2336867 0.17348765 -0.83628178 109 87 92
-0.23376817 0.17093936 -0.83381152 116 96 101
-0.23368061 0.17326412 -0.83569783 110 88 93
-0.23368174 0.17202258 -0.83404106 116 95 99
-0.23362444 0.17303471 -0.83476973 114 92 97
-0.23371615 0.17215775 -0.83460242 113 92 97
-0.23371089 0.17202733 -0.83436894 114 93 98
-0.23359562 0.17178486 -0.83277124 120 101 105
-0.23379974 0.16684952 -0.83342588 130 116 114
-0.23408203 0.16657023 -0.83582133 105 95 93
-0.233817 0.16743793 -0.83399016 127 114 112
-0.23411162 0.16648348 -0.83603275 103 93 90
-0.23386912 0.16773511 -0.83467329 122 110 108
-0.23392844 0.16777782 -0.8352465 116 105 104
-0.2338251 0.16853692 -0.83439845 124 110 110
-0.23379618 0.16903836 -0.83299446 123 105 108
-0.23378447 0.16898952 -0.832528 123 105 108
-0.23380828 0.1679455 -0.83393919 127 113 112
-0.23377627 0.16788591 -0.8326332 128 111 111
-0.23327601 0.16326027 -0.83573395 69 75 67
-0.23458254 0.16247609 -0.83321595 96 81 81
-0.2344082 0.16469672 -0.83504975 99 86 85
-0.23318036 0.16318175 -0.83582205 66 74 66
-0.23319329 0.16283011 -0.83555371 65 73 65
-0.23429424 0.16325529 -0.83420062 92 81 80
-0.23338573 0.16259821 -0.83510047 69 73 67
-0.2343124 0.16532332 -0.83562487 99 88 85
-0.23409855 0.16498792 -0.83273137 125 109 106
-0.23434897 0.16494635 -0.83491176 103 90 88
-0.2348769 0.16241781 -0.83272064 103 83 85
-0.23469809 0.16311656 -0.83302426 106 87 88
-0.23442827 0.16458507 -0.83463418 102 89 87
-0.23322639 0.16071901 -0.83498108 62 51 58
-0.23303916 0.16132013 -0.83526772 59 59 58
-0.2324442 0.16076395 -0.83615655 44 47 48
-0.23277169 0.16003591 -0.83565801 50 39 49
-0.23355903 0.1610038 -0.83448386 70 58 63
-0.23295651 0.16095519 -0.8353886 56 53 55
-0.23414826 0.15862712 -0.83349675 71 56 61
-0.23459546 0.1615648 -0.83293128 95 73 78
-0.23356405 0.15877168 -0.83441329 62 41 54
-0.23392057 0.16037832 -0.83392966 77 53 65
-0.23429573 0.15848643 -0.83326072 73 59 63
-0.23388869 0.1604251 -0.83398139 77 52 65
-0.23364943 0.15718578 -0.8354401 42 22 39
-0.23485111 0.15706995 -0.83369333 60 51 52
-0.2345062 0.1573716 -0.83388418 60 48 52
-0.23409066 0.15649971 -0.8355431 37 20 34
-0.23486444 0.1568656 -0.8339088 57 47 49
-0.23378895 0.15788366 -0.83441448 58 40 51
-0.23312879 0.15799351 -0.83532071 49 25 44
-0.23506649 0.15499859 -0.8349005 29 19 26
-0.23481353 0.15479255 -0.83263284 31 20 24
-0.23500073 0.15479425 -0.83432525 27 17 24
-0.23503724 0.15529625 -0.83460778 34 24 30
-0.23499915 0.15606752 -0.83419031 46 37 40
-0.23544858 0.15325023 -0.8353737 33 21 30
-0.23561673 0.15245785 -0.83467597 45 32 39
-0.23541366 0.1515688 -0.83524609 34 22 28
-0.23564105 0.15119477 -0.83440542 49 36 41
-0.23570766 0.15130176 -0.8341912 53 40 45
-0.23587003 0.15042563 -0.83350104 66 51 54
-0.23583454 0.15158673 -0.83315331 65 51 55
-0.23543978 0.1531799 -0.83473229 37 25 32
-0.23553631 0.15285407 -0.83455235 42 30 37
-0.23546644 0.15279925 -0.83374345 45 32 38
-0.23575172 0.1519006 -0.83341891 60 46 50
-0.23552729 0.15235302 -0.83285153 54 40 44
-0.23673669 0.14763138 -0.83561176 62 47 52
-0.23642553 0.14761415 -0.83497792 57 41 45
-0.23758397 0.14669789 -0.83590025 95 77 83
-0.23662156 0.14730397 -0.83490652 66 50 54
-0.23642965 0.1440711 -0.83543599 30 23 25
-0.23687755 0.14605169 -0.83458245 78 61 65
-0.23705953 0.14554662 -0.83537948 71 57 61
-0.23644879 0.14429045 -0.83528191 35 26 29
-0.22231901 0.13901649 -0.79676414 101 83 92
-0.22177842 0.1393583 -0.79623187 97 82 90
-0.22222129 0.13928488 -0.7967248 103 87 95
-0.22178021 0.13943413 -0.79625481 98 83 91
-0.22303797 0.13560215 -0.79580867 123 113 123
-0.22282524 0.13839068 -0.79708755 106 88 97
-0.2237684 0.13646577 -0.79702884 136 124 132
-0.22453906 0.13515356 -0.79710865 162 154 160
-0.22464846 0.13153183 -0.79596061 137 113 134
-0.22472478 0.13130964 -0.79603738 135 111 132
-0.22508186 0.13140354 -0.79678363 139 112 134
-0.22457245 0.1337278 -0.79659885 154 141 153
-0.22442345 0.13270441 -0.79611635 143 126 141
-0.22325143 0.13266373 -0.79505557 123 108 118
-0.22415112 0.13345776 -0.7961303 145 132 142
-0.22419089 0.13410071 -0.79638535 151 141 149
-0.22224939 0.13337426 -0.79430026 97 83 97
-0.22335777 0.13384116 -0.79550678 128 116 127
-0.22210477 0.13152058 -0.79361451 90 71 84
-0.22307567 0.13375515 -0.79520941 120 108 120
-0.22264202 0.13457043 -0.79503143 110 99 113
-0.22539522 0.12970743 -0.79646558 141 118 135
-0.2250026 0.13066101 -0.7963087 134 107 130
-0.2246917 0.12987688 -0.79540992 136 113 131
-0.22501758 0.12817161 -0.79525566 146 130 138
-0.22524482 0.12890388 -0.79585791 143 125 137
-0.22523212 0.1286808 -0.795757 144 126 137
-0.22451924 0.13048232 -0.7954396 130 105 127
-0.22418128 0.12840426 -0.79439622 133 115 127
-0.22318795 0.1301298 -0.7941283 109 88 103
-0.22402927 0.13070579 -0.79508072 121 97 117
-0.22293048 0.12948468 -0.79367334 107 88 100
-0.22352792 0.12829012 -0.7937904 121 103 114
-0.22673343 0.16633967 -0.81253624 96 72 86
-0.22663504 0.1664978 -0.8124432 97 73 86
-0.22742729 0.16248722 -0.81180656 109 94 93
-0.22640856 0.16405913 -0.81096983 111 90 97
-0.22712234 0.16534756 -0.81272399 98 74 87
-0.22785597 0.16270348 -0.81258756 104 88 89
-0.22585718 0.16217183 -0.80917883 125 110 108
-0.22600839 0.1626198 -0.80963594 122 105 106
-0.22695403 0.16548018 -0.8125236 99 74 88
-0.22560367 0.16389443 -0.80937845 111 96 96
-0.225687 0.16294453 -0.80917597 119 104 103
-0.22562127 0.16367392 -0.80932808 113 98 98
-0.22594203 0.16362676 -0.8099224 114 97 99
-0.22859317 0.16008614 -0.81241268 100 84 89
-0.22856796 0.1583408 -0.81148851 104 86 97
-0.22822839 0.15867066 -0.81108588 110 94 101
-0.22789571 0.15901898 -0.81074262 117 102 105
-0.22830647 0.1598928 -0.81181329 106 90 94
-0.22798893 0.16069034 -0.81174546 111 98 97
-0.22746456 0.15954255 -0.81036109 126 112 111
-0.22671542 0.16065533 -0.80975556 126 112 111
-0.22716559 0.15887974 -0.80955529 133 120 119
-0.22700824 0.15950586 -0.80962807 131 117 116
-0.22790535 0.16172907 -0.81218022 109 95 93
-0.22633566 0.16063963 -0.80914927 130 116 114
-0.22727269 0.16002952 -0.81031293 125 111 110
-0.2291946 0.15771464 -0.81261855 110 93 104
-0.22935231 0.15687072 -0.81255013 130 114 122
-0.22910154 0.15759872 -0.8123439 114 97 108
-0.22917697 0.15497449 -0.81148207 166 152 156
-0.22915196 0.15481687 -0.811387 169 154 158
-0.22878562 0.15739003 -0.81153309 121 105 113
-0.22928482 0.15558515 -0.81187022 157 143 147
-0.22795428 0.15537032 -0.80979043 144 124 134
-0.22814412 0.15501273 -0.80988616 153 134 143
-0.22808908 0.1569351 -0.81038344 124 105 115
-0.22828218 0.15777718 -0.81085187 113 95 105
-0.22802173 0.15751815 -0.8103959 121 103 112
-0.22783571 0.15767939 -0.81013966 124 107 114
-0.22860932 0.15332997 -0.80968481 175 160 166
-0.2289959 0.15173233 -0.80944824 185 173 175
-0.22953357 0.15414549 -0.8118276 182 170 171
-0.22948581 0.15340963 -0.81131285 184 173 173
-0.22963503 0.15271072 -0.81117719 188 178 178
-0.23010167 0.15257016 -0.81195176 187 176 176
-0.23081888 0.15142857 -0.81261098 182 170 173
-0.23021089 0.15364283 -0.81277078 186 176 175
-0.2300586 0.15095064 -0.81093889 186 176 178
-0.23075254 0.1517998 -0.81270319 182 171 173
-0.22993526 0.15308294 -0.81194168 188 178 177
-0.22845258 0.15376538 -0.80970168 172 155 162
-0.23031923 0.14763185 -0.8103503 160 146 153
-0.2311395 0.14666571 -0.81145382 174 165 168
-0.23129746 0.14800565 -0.81214446 177 167 171
-0.23118265 0.14710777 -0.81166631 175 165 169
-0.23130491 0.14759289 -0.81202787 177 168 172
-0.23148267 0.1482219 -0.81252974 181 171 175
-0.23028246 0.14736909 -0.81020492 159 146 153
-0.22993498 0.14970347 -0.81020743 180 169 172
-0.22965708 0.14907308 -0.8095305 175 164 167
-0.22960678 0.14828703 -0.80923033 168 156 160
-0.22942008 0.15009648 -0.80936557 187 177 178
-0.23010896 0.15031599 -0.81068891 185 174 177
-0.23042418 0.14841257 -0.81076503 164 150 157
-0.23162669 0.14419611 -0.81207383 180 170 173
-0.23140287 0.14490162 -0.81163675 185 176 179
-0.23148964 0.1449865 -0.811813 185 176 179
-0.23193984 0.14459264 -0.81271172 180 171 174
-0.23202117 0.14317887 -0.81284845 172 162 165
-0.23181419 0.14361629 -0.81244016 176 166 169
-0.23053934 0.1439179 -0.8099457 181 168 173
-0.23074828 0.14444551 -0.81039077 181 169 173
-0.23065807 0.14529581 -0.81037599 173 162 167
-0.23105741 0.14525421 -0.81105381 181 171 174
-0.23034455 0.14576586 -0.8099159 165 152 158
-0.23006941 0.14603288 -0.80948812 158 145 151
-0.23206006 0.13906702 -0.81171185 170 156 165
-0.23219512 0.14036079 -0.81234109 172 159 167
-0.23167694 0.14094685 -0.81168485 166 154 159
-0.23094761 0.14022993 -0.81014967 163 148 155
-0.23134084 0.14184347 -0.8113029 169 156 161
-0.23101138 0.14082097 -0.8104105 166 152 158
-0.23137049 0.14121237 -0.81122112 165 152 158
-0.23100516 0.14007191 -0.81023014 161 147 154
-0.23107655 0.14097211 -0.81057554 166 152 158
-0.23293318 0.13738844 -0.81284356 168 151 162
-0.23279402 0.13673657 -0.81233472 163 143 154
-0.23120853 0.13717739 -0.8094576 163 148 151
-0.23168977 0.1385078 -0.81088102 167 152 161
-0.2323429 0.13835292 -0.81193298 173 159 168
-0.23123345 0.13732186 -0.80956525 163 148 152
-0.23216593 0.17427973 -0.82794809 123 98 104
-0.23149692 0.17536803 -0.82770187 119 98 105
-0.23145571 0.17552251 -0.82775676 119 99 105
-0.2315287 0.17504479 -0.82749665 118 97 103
-0.23244126 0.17092262 -0.82727081 115 94 97
-0.23243485 0.17197986 -0.82754922 118 94 98
-0.23225874 0.17240979 -0.82734424 121 96 100
-0.23162325 0.17119835 -0.82586497 126 99 105
-0.2322679 0.17043485 -0.82681161 116 94 98
-0.23208886 0.17038648 -0.82647628 118 95 99
-0.23129523 0.17120203 -0.82530802 124 98 104
-0.23143069 0.17139176 -0.8255952 125 98 104
-0.23097511 0.17101733 -0.82471365 121 97 102
-0.23118228 0.17036067 -0.82485008 128 100 106
-0.23248035 0.1667335 -0.82497829 120 104 94
-0.23268564 0.16864057 -0.82673448 117 102 99
-0.23254617 0.16773161 -0.82579589 118 102 96
-0.23256181 0.16747658 -0.82566482 119 103 96
-0.23303448 0.16724977 -0.8275339 116 99 99
-0.23286329 0.16785482 -0.82685393 119 104 100
-0.23302725 0.1671084 -0.8274557 116 99 98
-0.23260745 0.16623552 -0.8250882 121 106 95
-0.23282608 0.16813552 -0.82675046 119 106 100
-0.23326366 0.1660679 -0.82833391 113 91 97
-0.23174453 0.16896909 -0.82509941 123 100 101
-0.23231995 0.16917755 -0.82627136 115 96 96
-0.23241717 0.1682741 -0.82585001 116 98 95
-0.23185924 0.16831671 -0.82487518 123 102 100
-0.23359078 0.1636074 -0.82794106 116 92 102
-0.23324689 0.16345966 -0.82639503 119 96 107
-0.23339628 0.16448388 -0.82777512 116 92 101
-0.23317768 0.16230077 -0.82525057 122 99 113
-0.23328596 0.16425158 -0.82714278 117 93 104
-0.23347521 0.16454206 -0.82814789 115 91 100
-0.2331139 0.16331004 -0.8257125 120 98 110
-0.23256426 0.16574886 -0.82462305 122 107 96
-0.23275866 0.16485277 -0.82498544 121 104 101
-0.23293009 0.1630888 -0.82463783 123 102 110
-0.23316637 0.16471539 -0.82693881 117 94 103
-0.2339424 0.15956312 -0.82702202 148 130 136
-0.23403904 0.15900838 -0.82827204 147 128 133
-0.23401186 0.16106609 -0.82848322 127 103 113
-0.23386854 0.15950236 -0.82592338 155 138 144
-0.23401871 0.16062845 -0.82845414 131 108 117
-0.23375708 0.16083992 -0.82651603 137 115 125
-0.2332336 0.16171879 -0.82503086 128 106 119
-0.23349123 0.16016771 -0.8248679 148 130 139
-0.23367997 0.16102362 -0.82634056 135 113 123
-0.23379371 0.16201635 -0.82760918 120 94 107
-0.23317324 0.16157344 -0.82466251 130 109 122
-0.23415758 0.15555657 -0.82668114 162 146 155
-0.23467281 0.15490854 -0.82763839 174 159 167
-0.23409535 0.15522952 -0.82624722 161 145 156
-0.23408127 0.15659496 -0.82727957 157 141 148
-0.2344514 0.15580635 -0.82771343 167 151 159
-0.23406446 0.15589938 -0.82668543 159 143 152
-0.23391515 0.15797791 -0.82624447 164 149 154
-0.23387784 0.15779649 -0.82571745 166 152 156
-0.23391752 0.15696746 -0.82638496 159 143 150
-0.23383923 0.15636253 -0.82530278 162 147 156
-0.23379524 0.15490864 -0.8248117 159 143 156
-0.23471551 0.15102796 -0.8261317 152 135 146
-0.23500699 0.15314785 -0.82784981 173 158 166
-0.23492382 0.15268135 -0.82713562 170 155 164
-0.23467182 0.15043817 -0.82631493 143 125 136
-0.23479708 0.15185535 -0.82623315 162 147 158
-0.23493427 0.15269727 -0.82729453 169 154 163
-0.23468538 0.15233669 -0.82605994 164 149 160
-0.23404416 0.15354843 -0.82493621 158 143 156
-0.2347009 0.15213948 -0.82599002 163 148 159
-0.23430941 0.15316805 -0.82547098 161 146 158
-0.23447399 0.15165634 -0.8250649 155 140 153
-0.23447627 0.150906 -0.82463735 151 136 149
-0.23484971 0.14939372 -0.82822317 131 109 117
-0.2348489 0.14947864 -0.82818782 131 110 118
-0.2349848 0.14700766 -0.82756662 126 106 113
-0.23511866 0.14704578 -0.82557923 145 132 137
-0.23504472 0.14759307 -0.82636064 140 124 130
-0.23477443 0.14922798 -0.82486367 149 135 145
-0.23491402 0.14907704 -0.82689774 140 123 130
-0.23476769 0.14961718 -0.82586294 144 128 138
-0.23463702 0.15002958 -0.82473773 149 134 146
-0.2348638 0.14948119 -0.82717121 139 120 128
-0.23474653 0.15015918 -0.82704616 139 120 129
-0.234521 0.14275371 -0.82781082 90 74 86
-0.23543014 0.14478892 -0.82690799 129 108 109
-0.23552699 0.14432664 -0.8265391 132 111 111
-0.23468155 0.14344467 -0.82778454 98 80 90
-0.23475125 0.14503314 -0.82829052 104 84 93
-0.23477733 0.14400691 -0.82782906 103 84 93
-0.23558249 0.14456122 -0.82609254 138 119 117
-0.235577 0.14470871 -0.82563525 142 125 124
-0.2356481 0.14456642 -0.82511002 147 131 129
-0.23512325 0.14648135 -0.82583398 140 126 131
-0.23557565 0.14466742 -0.82580578 141 122 121
-0.23640496 0.14069737 -0.82480466 155 135 132
-0.23467013 0.14228474 -0.82663745 100 82 88
-0.23440501 0.14216241 -0.82679683 92 74 81
-0.23425201 0.14223582 -0.82729167 85 68 78
-0.23472767 0.14146787 -0.82654053 101 82 87
-0.23301165 0.1413113 -0.82809496 47 28 45
-0.23549424 0.14227849 -0.82537693 130 111 107
-0.23546937 0.14225958 -0.82540995 129 110 107
-0.23577145 0.14207144 -0.82527304 137 118 114
-0.23350152 0.1410843 -0.8278234 61 42 57
-0.2325666 0.14101583 -0.82814848 33 16 34
-0.23356578 0.14034992 -0.82778919 62 43 57
-0.23271658 0.14115703 -0.82832956 37 19 38
-0.2326629 0.14060627 -0.82777721 37 21 36
0 0 0 1 0 0 0 1 0 0 0 1 0 0 0 0 0 1008 1 0 0
