ply
format ascii 1.0
comment PCL generated
element vertex 738
property float x
property float y
property float z
property uchar red
property uchar green
property uchar blue
element camera 1
property float view_px
property float view_py
property float view_pz
property float x_axisx
property float x_axisy
property float x_axisz
property float y_axisx
property float y_axisy
property float y_axisz
property float z_axisx
property float z_axisy
property float z_axisz
property float focal
property float scalex
property float scaley
property float centerx
property float centery
property int viewportx
property int viewporty
property float k1
property float k2
end_header
-0.11366591 -0.39563772 -0.69172925 171 151 176
-0.11344276 -0.39537591 -0.69158328 170 151 174
-0.11338698 -0.39577001 -0.69156963 170 151 177
-0.11165121 -0.39483324 -0.69051909 174 159 177
-0.11167143 -0.39567477 -0.69058722 178 164 185
-0.11222546 -0.39557788 -0.69089478 175 158 181
-0.11161693 -0.39471048 -0.69049144 173 158 176
-0.10838392 -0.39524862 -0.68885922 178 156 174
-0.10743128 -0.39547262 -0.68836242 179 155 172
-0.10806295 -0.39596739 -0.68870938 182 160 179
-0.10864371 -0.39549452 -0.68900305 179 158 177
-0.1097222 -0.39577466 -0.68958002 181 163 183
-0.10699195 -0.39443201 -0.68816096 172 148 161
-0.10674787 -0.39469588 -0.68807256 173 149 163
-0.11277173 -0.39794573 -0.6913721 173 156 184
-0.11318237 -0.39879155 -0.69166654 169 150 179
-0.11321854 -0.39744508 -0.69158894 172 153 182
-0.11147296 -0.39657873 -0.69053608 183 170 194
-0.11142797 -0.39912227 -0.69069678 172 153 181
-0.11182317 -0.40029743 -0.69100654 166 146 175
-0.11181511 -0.39808223 -0.69083983 176 161 187
-0.1089085 -0.39937201 -0.68940306 174 153 178
-0.10912737 -0.39888701 -0.68947208 175 153 178
-0.10835783 -0.39866668 -0.68905824 177 156 179
-0.10911655 -0.39984599 -0.68955171 172 152 178
-0.1099604 -0.39981538 -0.68998128 170 149 177
-0.10932741 -0.39855847 -0.68954533 175 153 178
-0.10826613 -0.39708465 -0.6888746 182 160 181
-0.10958422 -0.39658305 -0.68953371 184 166 189
-0.10970081 -0.39836007 -0.68972534 175 154 180
-0.11112275 -0.39744186 -0.69040877 180 164 190
-0.10955166 -0.39739883 -0.68957621 180 161 184
-0.11114559 -0.39828804 -0.69048274 176 159 185
-0.10623953 -0.39974204 -0.68815422 162 140 168
-0.10583327 -0.39979416 -0.68798018 157 135 164
-0.10737184 -0.40027717 -0.6886999 175 155 179
-0.10646584 -0.39742649 -0.68807209 175 153 175
-0.11310056 -0.40228215 -0.69176525 166 152 170
-0.11273897 -0.40041614 -0.69153237 165 146 175
-0.11262682 -0.40082753 -0.69147509 165 147 174
-0.1119962 -0.4040451 -0.69119841 159 148 161
-0.11278787 -0.40398952 -0.69161958 167 155 164
-0.11138456 -0.40406889 -0.69087243 154 142 159
-0.10773716 -0.40087044 -0.68891251 173 154 176
-0.10999709 -0.40379801 -0.69017667 155 144 157
-0.10866334 -0.40280771 -0.68947399 161 148 161
-0.1084873 -0.40334147 -0.68942034 158 147 156
-0.10780539 -0.40229264 -0.68902916 164 151 163
-0.10830694 -0.40348649 -0.68934178 157 147 154
-0.10946454 -0.40187851 -0.68982255 165 149 170
-0.11090793 -0.40181574 -0.6905601 162 145 169
-0.11012176 -0.40161508 -0.69015145 165 147 171
-0.10953628 -0.40100771 -0.68983346 168 149 174
-0.10960487 -0.40053767 -0.68985468 169 149 176
-0.10590579 -0.40381461 -0.68833017 140 122 125
-0.10694704 -0.40125802 -0.68859404 166 146 164
-0.10683729 -0.40298617 -0.6886521 154 140 146
-0.10621282 -0.40220794 -0.68835777 153 131 144
-0.10603284 -0.40132064 -0.68820256 154 132 154
-0.10567563 -0.40239131 -0.68813932 145 123 136
-0.10713495 -0.40058172 -0.68862247 171 151 174
-0.11264892 -0.40632212 -0.69158691 159 147 158
-0.11220197 -0.40504417 -0.69132775 158 147 159
-0.11206941 -0.40512347 -0.69125819 157 145 158
-0.11145692 -0.40763268 -0.69096929 149 134 152
-0.11247662 -0.40718436 -0.69150853 155 142 156
-0.11204065 -0.40728274 -0.69127661 153 139 154
-0.10793505 -0.40790868 -0.68951923 157 144 145
-0.10895374 -0.40718177 -0.68985718 153 140 146
-0.10965594 -0.40783873 -0.69020277 152 138 148
-0.11055293 -0.4078632 -0.69056499 149 134 149
-0.10878143 -0.40738386 -0.68980771 153 141 146
-0.10746077 -0.40535444 -0.68908042 154 146 143
-0.10928255 -0.40462583 -0.68986589 152 143 149
-0.10997689 -0.40513355 -0.69020915 151 141 151
-0.11113553 -0.40455386 -0.69075996 152 141 156
-0.10930285 -0.40545186 -0.68988842 151 141 148
-0.1091483 -0.40515178 -0.68980908 151 142 148
-0.11025438 -0.40432701 -0.6903308 152 143 153
-0.10679501 -0.40809485 -0.68905169 159 143 142
-0.10533297 -0.40778115 -0.68836856 160 137 135
-0.10585683 -0.40763488 -0.68858814 160 139 137
-0.10665547 -0.40766755 -0.6889478 159 143 141
-0.10707247 -0.40735343 -0.68910336 158 144 143
-0.10462068 -0.40529999 -0.68790436 135 110 110
-0.10468696 -0.4070116 -0.6880284 155 129 127
-0.10484627 -0.40495756 -0.68797457 134 110 110
-0.10520782 -0.40673822 -0.68822008 157 135 132
-0.11214939 -0.40871996 -0.69137096 155 138 153
-0.11261346 -0.41054806 -0.69169748 169 142 156
-0.11247117 -0.41159853 -0.69166577 174 141 155
-0.11182225 -0.41139036 -0.69130403 163 127 150
-0.10972624 -0.41091609 -0.69035023 155 122 145
-0.10750366 -0.41085282 -0.68933392 147 122 149
-0.10941054 -0.41123864 -0.69020015 153 120 146
-0.10804379 -0.41138688 -0.68957204 146 118 149
-0.10812937 -0.40960202 -0.68964177 155 134 146
-0.11088945 -0.41177404 -0.69086796 156 115 145
-0.1107538 -0.40992612 -0.69074661 153 125 147
-0.10974997 -0.41012266 -0.69035161 156 128 145
-0.11008607 -0.40899661 -0.69044209 153 132 147
-0.11059293 -0.41107258 -0.69072723 156 120 145
-0.1082239 -0.40875596 -0.68968552 158 140 145
-0.10982354 -0.40997493 -0.69037533 156 128 145
-0.10561781 -0.41085836 -0.6884743 171 157 164
-0.10557891 -0.41112521 -0.68845195 170 155 164
-0.10684709 -0.40947863 -0.68905818 160 145 151
-0.10652675 -0.41054279 -0.68889391 160 142 156
-0.10668555 -0.41085529 -0.68896091 156 136 155
-0.10599717 -0.40988687 -0.68866491 169 155 157
-0.10460947 -0.41080445 -0.68802309 175 158 162
-0.10640053 -0.40950114 -0.68885434 166 153 155
-0.1059691 -0.40900064 -0.68867403 164 147 147
-0.1049016 -0.41058546 -0.68815881 173 157 161
-0.11208184 -0.41351658 -0.69143945 157 116 150
-0.11261786 -0.41463119 -0.69170433 157 117 153
-0.11164161 -0.41474354 -0.69118804 145 94 142
-0.11135354 -0.41319275 -0.69106072 151 103 142
-0.1113504 -0.41274002 -0.69106555 153 107 143
-0.10938912 -0.41589224 -0.69012219 136 77 146
-0.10756732 -0.41423398 -0.6893121 138 92 154
-0.10800408 -0.41421831 -0.68951201 138 92 151
-0.10964911 -0.41476664 -0.69025666 137 87 143
-0.10792948 -0.4155319 -0.68945974 137 80 154
-0.10961919 -0.41306236 -0.69026715 144 103 145
-0.10994986 -0.41302621 -0.69041902 146 103 145
-0.10957358 -0.41353878 -0.69023943 142 99 144
-0.1090239 -0.41247803 -0.69000298 145 108 148
-0.11012909 -0.41245431 -0.69050926 150 109 146
-0.11033168 -0.41389462 -0.69058132 143 95 142
-0.10724647 -0.41517159 -0.68915719 140 88 158
-0.10643863 -0.41538581 -0.68880671 151 107 166
-0.10730135 -0.41227382 -0.68922085 142 113 153
-0.10556021 -0.41518664 -0.68843168 164 133 175
-0.107278 -0.41436344 -0.68918192 140 95 156
-0.10478108 -0.41484356 -0.68808907 176 153 181
-0.10553193 -0.41417864 -0.68842697 166 141 173
-0.1065146 -0.41308892 -0.68886781 153 126 162
-0.10562071 -0.41414919 -0.6884672 164 139 172
-0.10529098 -0.41367704 -0.68831396 169 147 173
-0.11270308 -0.4167209 -0.69174284 149 107 150
-0.11279183 -0.41686875 -0.69179356 150 109 150
-0.11177199 -0.41854563 -0.69130999 137 87 132
-0.11190064 -0.41953582 -0.69140434 137 90 130
-0.10757776 -0.41883314 -0.68927848 137 84 142
-0.10773927 -0.41746864 -0.68936664 136 79 149
-0.10854367 -0.41963962 -0.68974596 134 82 134
-0.10972634 -0.4198072 -0.69032371 130 77 127
-0.10750315 -0.41775465 -0.6892491 137 81 148
-0.10880246 -0.41758355 -0.68988633 132 74 143
-0.11038367 -0.41884723 -0.69064766 127 72 129
-0.10849167 -0.41605255 -0.68971103 136 75 151
-0.10889217 -0.41710991 -0.6899212 133 74 145
-0.10923191 -0.41647047 -0.6900602 135 75 145
-0.11072265 -0.41635939 -0.69073898 135 75 138
-0.10925338 -0.4163914 -0.69006801 135 75 146
-0.1065091 -0.41932404 -0.68880206 146 104 149
-0.10708404 -0.41861397 -0.68905675 141 91 147
-0.10592286 -0.41935399 -0.68854696 152 116 154
-0.10738549 -0.4165495 -0.68920159 137 78 155
-0.1046214 -0.41717672 -0.68800443 173 147 179
-0.10620914 -0.41685745 -0.68869072 151 106 165
-0.10506608 -0.41782755 -0.68818909 164 134 171
-0.10465072 -0.41822663 -0.68800634 169 144 173
-0.10472424 -0.41888416 -0.6880312 165 141 168
-0.11189937 -0.42001563 -0.69141012 135 90 128
-0.11218835 -0.42138687 -0.69151467 141 101 138
-0.11143406 -0.42353123 -0.69102573 137 94 148
-0.11214848 -0.42275015 -0.69144189 143 105 146
-0.11151256 -0.42080569 -0.69117284 129 80 127
-0.10925832 -0.42213875 -0.69002783 143 100 147
-0.10743735 -0.42329973 -0.68924153 184 168 171
-0.10749777 -0.42179289 -0.68925035 163 131 156
-0.10980538 -0.42379382 -0.69028765 157 127 160
-0.10810544 -0.4216983 -0.68951613 153 115 151
-0.10768852 -0.42019805 -0.68931532 138 89 138
-0.11102395 -0.42018607 -0.69094801 126 73 123
-0.11083974 -0.42048538 -0.69084638 127 76 126
-0.11056051 -0.42221865 -0.69064307 134 88 141
-0.10945877 -0.42040107 -0.69017357 132 82 132
-0.11107638 -0.42220086 -0.69089633 132 85 138
-0.11115433 -0.42195556 -0.6909439 131 83 136
-0.10666811 -0.42232755 -0.68889672 169 141 159
-0.10701472 -0.4209176 -0.68903029 151 109 146
-0.1073014 -0.42180246 -0.68916488 164 132 156
-0.10658859 -0.42134452 -0.6888507 156 117 149
-0.10530705 -0.42033955 -0.68828082 159 131 157
-0.10456482 -0.42049587 -0.68796015 167 146 164
-0.10495603 -0.42212775 -0.68815148 171 143 160
-0.10458744 -0.42126539 -0.68798 170 148 164
-0.1124047 -0.42584559 -0.69142842 165 131 169
-0.11235884 -0.42574006 -0.69140947 164 129 168
-0.11247459 -0.4252058 -0.69150126 161 128 165
-0.11162235 -0.42682892 -0.69088131 179 151 189
-0.11164521 -0.42501241 -0.69104755 153 116 163
-0.11210696 -0.42663944 -0.6911875 176 146 182
-0.11048347 -0.42690784 -0.69032747 192 173 199
-0.10916565 -0.42604879 -0.68982446 197 182 197
-0.10989701 -0.42678905 -0.69008362 197 181 203
-0.11122385 -0.42548102 -0.69077241 161 128 173
-0.11088026 -0.42600456 -0.69057757 173 146 183
-0.10859262 -0.42454875 -0.68969476 185 169 179
-0.11042776 -0.42551374 -0.69041997 173 147 179
-0.11056081 -0.42421347 -0.69058758 153 118 160
-0.10940474 -0.42528382 -0.68998981 184 165 183
-0.11236717 -0.42897221 -0.69120097 197 172 202
-0.11200789 -0.42940047 -0.69098163 201 175 208
-0.11155724 -0.43015996 -0.69072497 213 179 217
-0.11004207 -0.43123946 -0.69000846 225 185 223
-0.11048984 -0.42954266 -0.69024545 218 190 224
-0.11057615 -0.43040913 -0.69027203 226 192 228
-0.11108069 -0.42968479 -0.69049841 213 181 219
-0.11034995 -0.42956948 -0.69018477 220 192 226
-0.11046708 -0.42778 -0.69025725 202 184 214
-0.12735993 -0.40815622 -0.70128846 191 171 172
-0.12648025 -0.40671223 -0.70059907 186 161 171
-0.1268712 -0.40794888 -0.700881 190 166 168
-0.12641989 -0.40664682 -0.70055509 186 160 171
-0.12682861 -0.40696612 -0.70085311 188 162 171
-0.12760991 -0.40889519 -0.70148003 188 165 168
-0.12752996 -0.40986717 -0.70140266 189 161 165
-0.12862657 -0.41185671 -0.7022922 184 152 163
-0.12753941 -0.4119902 -0.70139194 190 154 159
-0.12927951 -0.4115707 -0.70283473 181 151 165
-0.12585673 -0.41191611 -0.70008481 191 162 164
-0.12567236 -0.41148183 -0.69995022 191 164 166
-0.12557767 -0.41181245 -0.69987631 191 164 166
-0.12528703 -0.41035822 -0.6996842 189 165 165
-0.1263262 -0.40867919 -0.70047325 189 166 166
-0.12644027 -0.40868241 -0.70055664 190 167 167
-0.12799764 -0.41328931 -0.7017017 173 132 143
-0.12758282 -0.41231856 -0.7014147 187 150 155
-0.12844685 -0.41292551 -0.7020942 175 137 150
-0.12931156 -0.41283056 -0.70281482 172 136 154
-0.12991065 -0.41264787 -0.7033208 172 138 158
-0.12715739 -0.41520709 -0.7009567 172 156 153
-0.12739718 -0.41530237 -0.70114571 168 150 150
-0.128521 -0.41453812 -0.70207596 159 121 136
-0.12795514 -0.41456726 -0.70162064 166 135 143
-0.12874317 -0.41574323 -0.70221019 150 117 133
-0.12812075 -0.41345018 -0.70179439 171 129 141
-0.12638026 -0.41373268 -0.70043397 188 163 164
-0.1258913 -0.4159767 -0.69999963 178 170 171
-0.12614337 -0.41519737 -0.70020974 181 167 167
-0.12551282 -0.41428 -0.69977248 186 169 172
-0.125974 -0.41361076 -0.70013481 188 165 167
-0.12588595 -0.41263458 -0.70009232 190 162 165
-0.12833028 -0.41631818 -0.7018646 155 132 138
-0.12736803 -0.41872832 -0.70101154 151 140 136
-0.12807155 -0.41900188 -0.70158339 153 137 130
-0.12806165 -0.41979173 -0.70154768 147 130 125
-0.12741567 -0.41796204 -0.70107758 157 146 141
-0.12798251 -0.41872406 -0.70151949 155 139 133
-0.12881829 -0.41972467 -0.70217532 152 129 122
-0.12671483 -0.41904274 -0.70049208 147 134 137
-0.1265993 -0.41705459 -0.70048106 161 148 150
-0.12623397 -0.41698506 -0.70022053 165 151 156
-0.12595907 -0.41633108 -0.70003903 174 164 167
-0.12723608 -0.41997078 -0.70086014 142 131 129
-0.12864569 -0.42069262 -0.70201325 142 125 119
-0.12785158 -0.41993609 -0.70136935 145 130 126
-0.1275658 -0.42071006 -0.70111537 137 125 124
-0.12792738 -0.42188302 -0.70136094 127 108 110
-0.12685914 -0.4199408 -0.70056063 140 130 131
-0.12614705 -0.42037603 -0.70003885 135 111 127
-0.12614396 -0.4215014 -0.69996703 125 97 110
-0.094309144 -0.40583023 -0.683878 117 87 90
-0.09424679 -0.40640566 -0.68388206 116 83 88
-0.094152495 -0.407175 -0.68388385 115 79 84
-0.12188218 -0.39633399 -0.69672787 195 179 191
-0.12201443 -0.39500061 -0.69676739 205 193 199
-0.12152105 -0.39519775 -0.69646728 207 196 198
-0.12086194 -0.39499828 -0.69602466 207 196 195
-0.12111963 -0.39394784 -0.69611996 206 193 199
-0.12448687 -0.39761221 -0.69869465 191 170 188
-0.12417492 -0.39667067 -0.69840539 191 171 194
-0.12501223 -0.39896202 -0.69917476 191 169 181
-0.12474994 -0.39851117 -0.69894177 191 168 183
-0.12425256 -0.39958099 -0.69865268 180 152 166
-0.12436007 -0.39981729 -0.69875491 180 151 164
-0.12402403 -0.40015358 -0.69855553 173 141 155
-0.12439837 -0.39936671 -0.69873154 183 157 171
-0.12171716 -0.39969662 -0.69690889 177 149 165
-0.12222717 -0.40009859 -0.69730151 168 136 152
-0.12081376 -0.40036911 -0.6963684 182 156 168
-0.12216467 -0.39853206 -0.69708371 180 155 175
-0.12262169 -0.39884642 -0.69743037 173 144 164
-0.1201672 -0.39850539 -0.69579303 199 182 184
-0.12058894 -0.39720872 -0.69597459 201 187 187
-0.12095777 -0.39668798 -0.69617134 201 187 189
-0.1201756 -0.39731422 -0.69572443 204 192 187
-0.12354225 -0.40096009 -0.69826752 162 127 146
-0.12452771 -0.40274838 -0.6990416 168 138 163
-0.12492546 -0.4015713 -0.69927007 178 151 166
-0.12445865 -0.40245667 -0.69898003 168 138 161
-0.12397695 -0.40358278 -0.69862151 160 132 163
-0.12306332 -0.40192187 -0.69790506 155 121 147
-0.12329417 -0.40105203 -0.69808674 159 123 143
-0.12275486 -0.40191412 -0.69770139 158 126 148
-0.12151109 -0.40401912 -0.69688767 168 147 167
-0.12281202 -0.40253103 -0.69773841 156 125 152
-0.12301923 -0.40204227 -0.69787401 155 122 148
-0.12303793 -0.40334597 -0.69788551 152 123 156
-0.12035863 -0.40238613 -0.69610798 184 163 171
-0.12055269 -0.40314847 -0.69625831 181 160 167
-0.12035859 -0.40297431 -0.69612187 183 164 170
-0.12139024 -0.40132701 -0.69678599 174 147 159
-0.12012036 -0.4008092 -0.69590813 189 167 176
-0.12506054 -0.40793875 -0.69954592 184 162 162
-0.1244275 -0.40574268 -0.69900429 169 145 165
-0.12505148 -0.40697533 -0.69951928 180 157 165
-0.12500131 -0.40778914 -0.69949639 183 161 162
-0.12371207 -0.40591344 -0.69845027 164 140 162
-0.12406228 -0.40668276 -0.69874215 171 148 162
-0.12353931 -0.40612182 -0.69832492 165 142 162
-0.12223745 -0.40801561 -0.69746935 173 154 165
-0.12118091 -0.40749556 -0.6967485 167 140 166
-0.12169438 -0.4076328 -0.69709516 170 146 165
-0.12260157 -0.40717405 -0.69768536 169 149 164
-0.12273923 -0.40560097 -0.6977272 158 134 163
-0.12274803 -0.405013 -0.69771439 155 128 162
-0.12046245 -0.40548572 -0.69622612 173 150 171
-0.12116111 -0.40437835 -0.69666052 171 151 170
-0.12224276 -0.40504175 -0.69738036 156 127 164
-0.12129388 -0.40597713 -0.69677907 161 131 166
-0.12007423 -0.40624014 -0.69598752 174 147 171
-0.12200985 -0.40463129 -0.69722009 160 136 166
-0.12511863 -0.4109107 -0.69954908 189 164 166
-0.12389631 -0.40852636 -0.69865793 181 164 163
-0.12457983 -0.40938547 -0.69916469 185 164 164
-0.1247084 -0.41166767 -0.6992268 188 165 169
-0.1235147 -0.41131923 -0.69833809 184 167 174
-0.12356661 -0.4111214 -0.6983785 184 167 173
-0.12138057 -0.41067642 -0.69693798 189 170 185
-0.12156556 -0.41071561 -0.69705486 188 170 184
-0.12167604 -0.41140103 -0.69711912 189 171 186
-0.12221012 -0.41186002 -0.69745374 188 171 184
-0.12135968 -0.41121539 -0.69692022 190 171 187
-0.12188434 -0.40854853 -0.69724745 177 157 168
-0.11976942 -0.40954459 -0.69585925 180 149 180
-0.11982282 -0.41095975 -0.69592577 192 166 193
-0.12088211 -0.41014341 -0.69661415 188 166 184
-0.12128966 -0.40843391 -0.69684851 174 150 168
-0.12014084 -0.40835392 -0.69608086 171 139 169
-0.12472861 -0.41217151 -0.69923669 189 166 170
-0.12519614 -0.41261518 -0.69957525 189 166 169
-0.12492328 -0.41425309 -0.69933194 185 171 176
-0.12465369 -0.41537347 -0.69909698 184 175 182
-0.12344406 -0.41327256 -0.69824457 185 172 182
-0.12368132 -0.41411608 -0.69839609 186 174 185
-0.12387343 -0.41369271 -0.69855899 184 172 180
-0.12233872 -0.41552532 -0.69740385 198 188 205
-0.12172065 -0.4144195 -0.69704789 200 191 202
-0.12171081 -0.41442043 -0.69704151 200 191 202
-0.11988099 -0.41591474 -0.69581437 216 214 222
-0.12240058 -0.4132331 -0.69752681 192 180 190
-0.12183452 -0.41316074 -0.69716889 195 183 193
-0.12028397 -0.41504392 -0.6961062 210 205 214
-0.12018032 -0.41217974 -0.69616222 198 175 199
-0.11996627 -0.41260943 -0.69600832 201 180 203
-0.12200136 -0.41312316 -0.69727623 194 182 192
-0.12474842 -0.41869453 -0.69907421 156 130 157
-0.12492009 -0.41613108 -0.69927502 183 174 182
-0.12530789 -0.41801035 -0.69952214 161 140 158
-0.12457966 -0.41729686 -0.69898224 172 155 174
-0.12397601 -0.41907418 -0.69853735 147 107 153
-0.12378532 -0.41956696 -0.69841141 138 89 146
-0.12376722 -0.41883907 -0.69838762 150 110 157
-0.12361257 -0.41892713 -0.69828069 148 105 156
-0.12253368 -0.4192822 -0.69755316 148 101 157
-0.12141563 -0.41842824 -0.69680589 179 161 182
-0.12284413 -0.41805866 -0.69773817 164 128 173
-0.12276009 -0.41639128 -0.69765735 193 180 201
-0.12232051 -0.41756445 -0.6973868 180 159 187
-0.12016453 -0.41974315 -0.69600463 176 161 174
-0.12000124 -0.41706815 -0.69588983 206 201 209
-0.12003397 -0.41792393 -0.69591254 197 190 199
-0.12176108 -0.41629437 -0.6970163 201 192 208
-0.12002288 -0.41697243 -0.69590354 206 202 210
-0.1207566 -0.41642973 -0.69637275 206 201 212
-0.12359667 -0.42033121 -0.69825929 128 70 134
-0.1244012 -0.42052597 -0.6988104 129 81 130
-0.12519747 -0.42100799 -0.69933784 128 87 121
-0.12546444 -0.42026612 -0.69957101 135 101 131
-0.12555695 -0.42253569 -0.69949424 115 74 97
-0.12133968 -0.42199275 -0.69683301 123 64 130
-0.12011994 -0.42171821 -0.69603968 145 104 147
-0.12064443 -0.42203996 -0.6963951 131 78 137
-0.12142204 -0.42015135 -0.69684094 151 110 155
-0.12110316 -0.42068878 -0.69664997 147 104 151
-0.12099583 -0.42017257 -0.69656181 157 122 159
-0.11972269 -0.42150378 -0.69577152 154 122 154
-0.12049545 -0.42585555 -0.69616544 136 99 117
-0.11960468 -0.39238316 -0.69496262 195 176 194
-0.11980499 -0.39179885 -0.69509 195 178 194
-0.11748935 -0.39131358 -0.69361424 171 147 177
-0.1181627 -0.39182979 -0.6940341 180 158 184
-0.11756869 -0.39166373 -0.69369382 176 153 178
-0.11682656 -0.3907477 -0.69319493 162 135 171
-0.11752754 -0.38997227 -0.69357842 168 144 177
-0.11814287 -0.39144212 -0.69399458 178 155 183
-0.1189795 -0.39098552 -0.69451004 191 174 190
-0.12003872 -0.39498395 -0.6954568 203 189 191
-0.12009002 -0.39404973 -0.69541943 200 185 193
-0.12008188 -0.3930414 -0.69533491 197 179 195
-0.11929984 -0.39631379 -0.69512242 215 210 194
-0.11937863 -0.39512277 -0.69504881 207 197 192
-0.11762537 -0.39506108 -0.69406658 200 191 180
-0.11687579 -0.39589444 -0.69362849 188 171 179
-0.11618915 -0.39554998 -0.69319493 179 159 174
-0.11720685 -0.39544281 -0.69381952 193 180 179
-0.11663339 -0.39400595 -0.69342387 189 176 171
-0.11539583 -0.39426988 -0.6926682 171 150 165
-0.11703239 -0.39269516 -0.6935091 183 165 174
-0.11803245 -0.39500523 -0.69428903 203 194 184
-0.11650965 -0.3934837 -0.69330531 186 171 169
-0.11806761 -0.39433393 -0.69423956 199 187 184
-0.11808894 -0.39297092 -0.69411188 191 173 183
-0.11663485 -0.39274615 -0.6932981 182 164 170
-0.11473943 -0.39590746 -0.69234508 168 143 173
-0.11395328 -0.39554015 -0.69189668 171 152 176
-0.11383051 -0.39544383 -0.69181788 171 152 175
-0.11984182 -0.39972079 -0.69566703 196 177 182
-0.11945668 -0.39784604 -0.69531828 208 198 189
-0.11971865 -0.40009144 -0.69560713 195 175 182
-0.1163459 -0.39921018 -0.69346696 173 150 176
-0.11717304 -0.39888209 -0.69393599 180 155 179
-0.11655843 -0.40017128 -0.69365466 175 154 177
-0.1155808 -0.39901349 -0.69300097 167 143 173
-0.11893315 -0.40020531 -0.69506395 196 172 185
-0.11524192 -0.39761737 -0.69271052 164 137 172
-0.11708817 -0.39760351 -0.69382143 183 161 180
-0.11717431 -0.39763767 -0.69387591 184 162 180
-0.11649829 -0.39671105 -0.6934219 180 158 178
-0.11763808 -0.39685723 -0.69413084 195 180 185
-0.11862225 -0.39983612 -0.69485688 193 170 184
-0.11719045 -0.3981733 -0.69390726 182 157 179
-0.11474785 -0.39874521 -0.69251758 164 140 173
-0.11404284 -0.39952949 -0.69218987 164 143 174
-0.11487434 -0.39795384 -0.69253451 164 138 172
-0.11340467 -0.39925486 -0.69182533 166 147 177
-0.11371464 -0.39650047 -0.69180125 171 151 181
-0.11390142 -0.39722583 -0.69195473 169 147 178
-0.1196308 -0.40310308 -0.69562393 191 174 179
-0.11955199 -0.40396523 -0.69559413 190 175 179
-0.1157495 -0.40339509 -0.69322777 180 165 170
-0.11528174 -0.40254387 -0.69293171 175 158 170
-0.11754257 -0.40274408 -0.69432968 181 165 177
-0.11620394 -0.40305144 -0.69350553 179 164 172
-0.11722533 -0.40427783 -0.69414669 188 174 174
-0.11564926 -0.40244192 -0.69315779 175 158 171
-0.11907123 -0.40356076 -0.69526398 193 178 180
-0.11908209 -0.40247595 -0.695234 194 177 182
-0.11611168 -0.40085697 -0.69341969 171 151 175
-0.11760014 -0.40063888 -0.69429433 184 163 180
-0.11827473 -0.40074176 -0.6946975 190 168 182
-0.11854769 -0.40043196 -0.69484884 192 170 183
-0.11779044 -0.40143842 -0.69443387 184 165 179
-0.11513963 -0.40131116 -0.69284219 168 149 171
-0.11382537 -0.40366372 -0.69217134 170 157 166
-0.11448476 -0.40302259 -0.69251245 172 157 168
-0.11445848 -0.40233329 -0.69249284 168 152 169
-0.11391832 -0.40190879 -0.69220012 166 150 170
-0.11343028 -0.40348688 -0.69196093 168 155 166
-0.11372295 -0.40197241 -0.69209629 166 150 170
-0.1195877 -0.40472275 -0.69563782 187 171 177
-0.11771982 -0.40745956 -0.69452286 172 141 166
-0.11776638 -0.40779728 -0.69455963 171 140 166
-0.11868824 -0.4081443 -0.69513512 168 132 166
-0.11588253 -0.40606403 -0.69335884 178 160 166
-0.11630961 -0.40718901 -0.69364887 175 154 165
-0.11620329 -0.40765902 -0.69359493 174 154 165
-0.11836358 -0.40684411 -0.69490534 174 144 169
-0.11883585 -0.40716627 -0.69520402 173 141 169
-0.11860222 -0.40679312 -0.69505161 175 145 170
-0.11755833 -0.40448567 -0.69435668 188 173 174
-0.11716294 -0.40510046 -0.69412583 183 164 171
-0.11866141 -0.40445048 -0.69503719 190 176 178
-0.11427834 -0.40681222 -0.69246167 170 157 162
-0.11383075 -0.40798333 -0.69224823 164 151 159
-0.11466003 -0.40604427 -0.69264925 175 161 164
-0.11486182 -0.40533245 -0.69274104 178 164 165
-0.11453091 -0.40440446 -0.69254917 178 165 166
-0.11319837 -0.4052301 -0.69186181 167 155 162
-0.11364628 -0.40508798 -0.69209498 170 158 163
-0.11947693 -0.41041628 -0.6956836 187 157 188
-0.11933184 -0.41097793 -0.69559956 191 162 193
-0.11653315 -0.4109723 -0.69388258 200 182 182
-0.11539457 -0.40927106 -0.69314241 185 171 168
-0.11848854 -0.41177335 -0.69508702 201 177 199
-0.11544036 -0.41194001 -0.69325417 214 198 176
-0.11570583 -0.41086218 -0.69338024 201 186 175
-0.11575867 -0.40880507 -0.69334733 179 164 169
-0.11656614 -0.4102622 -0.69388014 192 174 180
-0.11626159 -0.4085705 -0.6936512 176 157 168
-0.1157093 -0.40851915 -0.6933105 176 161 167
-0.11801951 -0.40960917 -0.69475263 182 155 180
-0.11836394 -0.40931857 -0.69495881 179 148 177
-0.11785206 -0.40842009 -0.69462645 172 141 168
-0.1160004 -0.408317 -0.69348556 174 156 165
-0.11408933 -0.41193917 -0.69253117 198 174 166
-0.11383097 -0.41201505 -0.69239849 195 169 164
-0.1138579 -0.41094041 -0.6923787 183 158 162
-0.11509144 -0.40881914 -0.69295686 179 165 164
-0.11301925 -0.40837589 -0.69182241 158 144 156
-0.11345602 -0.40886497 -0.69207954 164 148 158
-0.11317387 -0.40960169 -0.69195873 167 146 157
-0.11391085 -0.40822577 -0.69229788 164 151 159
-0.11917942 -0.41455185 -0.69541818 215 205 220
-0.11598413 -0.41472661 -0.69350863 200 195 188
-0.11700088 -0.41592962 -0.6940763 200 200 202
-0.11672001 -0.41574472 -0.69391561 198 198 198
-0.11679214 -0.41590962 -0.69395381 198 198 199
-0.11695548 -0.41436508 -0.69409037 214 208 199
-0.1153594 -0.41578111 -0.69311303 183 182 182
-0.11647378 -0.41299552 -0.69384724 217 204 190
-0.11705059 -0.41304338 -0.69419312 215 201 194
-0.1189352 -0.41310662 -0.6953271 208 190 210
-0.11821108 -0.41266134 -0.6949082 209 189 201
-0.11794785 -0.41335937 -0.69472164 213 199 203
-0.11863883 -0.41501138 -0.69507229 219 215 219
-0.11410268 -0.41402313 -0.69249851 184 157 165
-0.11506745 -0.41529816 -0.69296539 184 179 178
-0.11402192 -0.41411167 -0.69245434 182 154 164
-0.11486777 -0.41417229 -0.69289124 192 179 174
-0.11293221 -0.41398028 -0.69188768 167 131 156
-0.11359252 -0.41296357 -0.69225675 185 156 162
-0.11401997 -0.41259718 -0.69248879 195 169 165
-0.11290359 -0.413957 -0.69187325 167 130 156
-0.11920357 -0.41635558 -0.69537592 219 219 224
-0.11915234 -0.417741 -0.69533736 206 203 208
-0.11646336 -0.41957101 -0.69383991 192 177 175
-0.11543778 -0.41866338 -0.69324315 191 178 174
-0.11659877 -0.41909981 -0.69389677 189 178 176
-0.11572912 -0.41740471 -0.69335634 184 179 178
-0.11634755 -0.41986069 -0.6937871 193 177 173
-0.11535157 -0.4192715 -0.69321841 193 177 172
-0.1187592 -0.41802523 -0.69510388 200 196 200
-0.11820516 -0.4176839 -0.69477844 197 194 197
-0.11707254 -0.41785052 -0.69411063 183 179 181
-0.11823312 -0.41604763 -0.69479996 212 213 217
-0.11603911 -0.41669551 -0.69350523 182 181 182
-0.11840879 -0.4178648 -0.69489789 197 194 198
-0.11518538 -0.41885263 -0.69311267 191 176 172
-0.11491371 -0.41878375 -0.69296694 186 170 169
-0.11501127 -0.41824916 -0.69299847 185 172 172
-0.11340841 -0.41963539 -0.69220507 163 133 149
-0.11442124 -0.41657799 -0.69262922 170 157 170
-0.11470743 -0.41645017 -0.69277358 173 165 173
-0.11370371 -0.41662058 -0.69225854 161 136 161
-0.11346504 -0.4168236 -0.69214118 158 129 158
-0.11967339 -0.42005545 -0.69568902 179 166 175
-0.11922526 -0.42111847 -0.69542426 166 142 165
-0.11756802 -0.42349905 -0.69451958 149 103 143
-0.11714413 -0.42335641 -0.69426101 156 115 147
-0.11768685 -0.42287689 -0.69461155 148 102 142
-0.11540729 -0.42123538 -0.69324672 190 168 166
-0.11679163 -0.4234032 -0.69404113 162 124 150
-0.1159638 -0.42076313 -0.69360566 182 154 161
-0.11883765 -0.4214679 -0.69522059 162 131 159
-0.11779661 -0.42187914 -0.69466609 157 118 150
-0.11857582 -0.4218446 -0.69509244 156 120 153
-0.11756169 -0.4202354 -0.69446892 185 168 173
-0.11827441 -0.42219913 -0.69494164 151 109 147
-0.11827854 -0.42197984 -0.69493484 154 115 150
-0.11445691 -0.42145628 -0.69271457 182 160 166
-0.11407457 -0.42226204 -0.69248503 175 151 164
-0.11336426 -0.42315227 -0.6920765 164 137 161
-0.11482672 -0.42307773 -0.69286591 183 161 165
-0.11495622 -0.42030305 -0.69301778 192 171 168
-0.11352067 -0.42221522 -0.69219196 167 140 159
-0.11279993 -0.42123616 -0.6918475 154 121 146
-0.11376561 -0.42089206 -0.69236892 171 143 156
-0.11939215 -0.42592981 -0.6955204 142 99 129
-0.11926036 -0.42532039 -0.69546932 137 88 129
-0.11684707 -0.42724293 -0.6939227 173 145 154
-0.11768363 -0.42690036 -0.6944086 171 144 147
-0.11615553 -0.42554563 -0.69355857 179 155 159
-0.11527617 -0.42572707 -0.69305116 182 157 167
-0.11721673 -0.42597565 -0.69415855 174 150 150
-0.11614758 -0.42476439 -0.69356883 181 158 158
-0.11613066 -0.42387775 -0.69361562 172 142 157
-0.11660812 -0.42466685 -0.6938597 173 145 154
-0.11723258 -0.42464972 -0.6942479 162 127 147
-0.11817938 -0.42620486 -0.69473249 163 132 141
-0.11790133 -0.42601123 -0.69457287 166 136 143
-0.1143534 -0.42654949 -0.69247484 186 160 176
-0.11449593 -0.42573011 -0.69257718 187 162 174
-0.11365929 -0.42703059 -0.69204271 190 163 182
-0.11474185 -0.42396322 -0.69279075 181 159 165
-0.11328661 -0.42433915 -0.69198692 165 138 163
-0.11329664 -0.42424372 -0.69199753 164 137 163
-0.11350442 -0.42566904 -0.69203156 178 151 173
-0.11739789 -0.4285416 -0.69417286 183 158 167
-0.11379029 -0.42794421 -0.69210047 188 160 183
-0.11348464 -0.42886895 -0.69187587 195 167 191
-0.11411296 -0.42828885 -0.6922828 188 159 182
-0.10623141 -0.39405593 -0.68781954 170 151 164
-0.10569875 -0.39537367 -0.6876322 176 158 176
-0.10549971 -0.39515811 -0.68753183 175 158 177
-0.10491933 -0.39612281 -0.68736607 176 159 175
-0.10538665 -0.39633027 -0.68756974 178 159 176
-0.10515693 -0.39941338 -0.68768525 157 136 163
-0.10581639 -0.39697111 -0.68778622 176 156 175
-0.10492909 -0.39663425 -0.68740982 176 157 173
-0.10515321 -0.39867038 -0.68763441 162 142 166
-0.10490173 -0.39979672 -0.6875962 152 131 159
-0.099609613 -0.39892352 -0.68545324 151 125 154
-0.10005161 -0.40033308 -0.68571019 154 132 158
-0.099975243 -0.39902517 -0.68559688 149 123 153
-0.099540614 -0.39984992 -0.68548578 154 131 157
-0.098202221 -0.40019685 -0.68497574 153 134 147
-0.098898068 -0.39763463 -0.68508667 145 116 141
-0.099306099 -0.39701179 -0.68520862 143 112 142
-0.097865641 -0.39930558 -0.68478411 149 128 140
-0.10488813 -0.40260255 -0.68781137 135 112 126
-0.10401956 -0.40164101 -0.68734449 133 110 132
-0.10487086 -0.40308174 -0.68784589 133 109 120
-0.10371715 -0.4012073 -0.68717504 132 110 135
-0.10363156 -0.40231934 -0.68724996 126 101 117
-0.10074948 -0.40315512 -0.68613166 127 87 117
-0.10023106 -0.4031359 -0.68589962 127 83 120
-0.099994972 -0.40192059 -0.68576151 140 106 138
-0.10001711 -0.40376109 -0.68582082 120 69 113
-0.10099653 -0.40306404 -0.68623954 128 91 117
-0.10053668 -0.40134501 -0.68598801 146 122 142
-0.10278811 -0.40128243 -0.6868279 134 110 134
-0.10245171 -0.40267223 -0.68683881 129 103 114
-0.10186857 -0.40103725 -0.68645895 140 117 141
-0.10140158 -0.40136647 -0.68631631 141 118 138
-0.10264873 -0.40268353 -0.68691373 128 102 113
-0.097388692 -0.40230405 -0.68472737 133 98 117
-0.097592086 -0.40276223 -0.68483323 129 91 114
-0.096880265 -0.40312544 -0.68461323 129 95 110
-0.098557211 -0.40429527 -0.68528664 117 66 106
-0.096409179 -0.4025273 -0.68440336 134 106 113
-0.097134963 -0.40219089 -0.68463033 134 102 117
-0.098923028 -0.40168145 -0.68530977 141 108 137
-0.098530002 -0.40128508 -0.68514276 145 116 139
-0.099480666 -0.40361011 -0.68558347 122 69 116
-0.098356858 -0.40239161 -0.6851036 133 94 123
-0.10427356 -0.40570971 -0.68778759 137 109 109
-0.10414224 -0.40617332 -0.68776125 140 112 111
-0.10369046 -0.4072012 -0.68762094 151 120 118
-0.099783219 -0.40645841 -0.68585891 128 85 110
-0.099940851 -0.40585506 -0.68589127 126 78 111
-0.10096853 -0.40573615 -0.68633181 132 82 115
-0.10204355 -0.40754244 -0.68690878 150 113 121
-0.10021397 -0.40559793 -0.68599474 126 76 112
-0.10069719 -0.40591654 -0.68622446 132 83 114
-0.10224593 -0.40643236 -0.68693572 142 101 116
-0.10319458 -0.40612599 -0.68734431 138 104 108
-0.10318371 -0.40485409 -0.68727696 122 89 94
-0.10222141 -0.40570736 -0.68688911 133 92 109
-0.10170612 -0.40637392 -0.68669176 141 96 119
-0.1017549 -0.40532413 -0.6866619 128 84 107
-0.096042521 -0.40530762 -0.68445057 125 93 97
-0.097901411 -0.4078784 -0.68522966 130 95 98
-0.097035423 -0.4069564 -0.68487448 127 93 96
-0.097895563 -0.40704754 -0.68520403 131 99 102
-0.097409651 -0.40758458 -0.68503445 128 93 96
-0.095733754 -0.40663832 -0.68437064 121 84 88
-0.097722761 -0.40607554 -0.68510318 130 98 105
-0.099216238 -0.4059847 -0.68561774 125 82 108
-0.09932182 -0.40458634 -0.68557042 117 61 108
-0.098912999 -0.40525284 -0.6854682 122 75 107
-0.098472677 -0.40592045 -0.68535501 127 88 106
-0.096677728 -0.40482533 -0.68466413 125 92 102
-0.09547244 -0.40611902 -0.68427467 121 86 90
-0.095543556 -0.40559155 -0.68428135 122 89 93
-0.094648577 -0.40720883 -0.68405575 116 79 85
-0.10396043 -0.40970972 -0.6877563 171 146 147
-0.10402739 -0.41107994 -0.68775249 179 162 164
-0.099715017 -0.41024542 -0.68601924 166 143 140
-0.10292402 -0.41206178 -0.68727279 191 185 180
-0.099775352 -0.41160202 -0.68610281 184 167 161
-0.10025385 -0.41167518 -0.68628073 186 170 164
-0.10282116 -0.41177598 -0.6872223 187 180 176
-0.1034228 -0.40842628 -0.68754369 165 134 131
-0.10163379 -0.40868372 -0.68675786 155 127 126
-0.10078481 -0.40882349 -0.6863845 150 124 124
-0.10004774 -0.40863907 -0.68606806 144 116 118
-0.10141115 -0.40927953 -0.68664575 157 134 133
-0.10350886 -0.40924037 -0.68756062 172 146 143
-0.099190176 -0.41174918 -0.68588895 184 166 159
-0.098766781 -0.4118976 -0.68572927 180 162 156
-0.097344965 -0.41200796 -0.68517917 164 146 141
-0.097063504 -0.41017172 -0.6850037 148 118 117
-0.097462729 -0.41030914 -0.68516421 154 125 123
-0.09959583 -0.41139042 -0.68602747 182 163 157
-0.097325988 -0.40944931 -0.68507653 144 110 110
-0.097702704 -0.40981582 -0.68523633 151 120 119
-0.097449958 -0.40955281 -0.68512833 146 113 113
-0.098002769 -0.40982231 -0.68535072 152 123 121
-0.096252665 -0.40854329 -0.68462741 126 86 89
-0.095381103 -0.40889257 -0.68432736 122 85 86
-0.094266787 -0.40937957 -0.68400615 121 90 91
-0.10392157 -0.41229224 -0.68767887 187 178 180
-0.10410833 -0.41585866 -0.68779045 185 164 190
-0.10203984 -0.41519207 -0.68698126 189 174 187
-0.10313425 -0.41598132 -0.6873877 192 178 195
-0.10085107 -0.41554204 -0.68655223 177 161 180
-0.10142656 -0.41572553 -0.68676353 180 164 184
-0.10032326 -0.41341758 -0.68633837 188 172 174
-0.10024277 -0.41390136 -0.68631405 184 168 174
-0.10257059 -0.41237345 -0.68714839 192 184 181
-0.10153944 -0.41383553 -0.68678546 193 179 182
-0.10139385 -0.41237551 -0.68671888 192 181 176
-0.10345695 -0.41582078 -0.68750364 194 182 197
-0.10215203 -0.41311696 -0.68700248 192 182 182
-0.098455295 -0.41566285 -0.68562031 166 150 167
-0.097466812 -0.41260678 -0.68523538 163 145 145
-0.098648325 -0.41428432 -0.68571299 165 147 160
-0.097769767 -0.41225439 -0.68534982 169 152 147
-0.099204004 -0.414231 -0.68592894 172 154 166
-0.098958939 -0.4136124 -0.68582714 173 156 162
-0.099495821 -0.4127019 -0.68602699 186 170 167
-0.10408656 -0.41843468 -0.68775642 176 160 178
-0.10384844 -0.4190028 -0.68764848 176 161 178
-0.10035053 -0.41717273 -0.68635696 165 149 172
-0.10261155 -0.4198069 -0.68715155 170 158 175
-0.10293122 -0.41960326 -0.68728083 173 160 176
-0.10193932 -0.41959929 -0.68689835 167 155 173
-0.1017015 -0.41871199 -0.68683279 168 154 174
-0.10307509 -0.41767338 -0.68735379 183 169 186
-0.10157952 -0.41760263 -0.68681002 171 156 177
-0.10304411 -0.41767746 -0.68734246 183 169 186
-0.10179604 -0.4169026 -0.68689418 177 161 182
-0.1004822 -0.41663697 -0.68641806 167 151 175
-0.10239412 -0.41714045 -0.68711007 180 166 185
-0.099214204 -0.41641334 -0.68592393 164 149 171
-0.10433285 -0.42024016 -0.68785596 168 149 167
-0.10379282 -0.42104992 -0.68763196 178 161 174
-0.10363013 -0.42147398 -0.68756682 179 162 173
-0.10226689 -0.42045763 -0.68702221 170 156 172
-0.10320186 -0.42037553 -0.68738174 175 161 175
-0.10215168 -0.42117926 -0.68698716 171 155 169
-0.10216387 -0.41996053 -0.68697596 168 156 173
0 0 0 1 0 0 0 1 0 0 0 1 0 0 0 0 0 738 1 0 0
