ply
format ascii 1.0
comment PCL generated
element vertex 810
property float x
property float y
property float z
property uchar red
property uchar green
property uchar blue
element camera 1
property float view_px
property float view_py
property float view_pz
property float x_axisx
property float x_axisy
property float x_axisz
property float y_axisx
property float y_axisy
property float y_axisz
property float z_axisx
property float z_axisy
property float z_axisz
property float focal
property float scalex
property float scaley
property float centerx
property float centery
property int viewportx
property int viewporty
property float k1
property float k2
end_header
-0.081961162 -0.32986167 -0.67600203 201 187 205
-0.080795281 -0.328574 -0.67612106 202 188 194
-0.080422416 -0.32836232 -0.67611718 205 193 195
-0.079236761 -0.32951763 -0.67575938 228 224 223
-0.08003889 -0.32920578 -0.67589247 223 218 216
-0.078982443 -0.32938516 -0.67576563 226 221 220
-0.076379746 -0.32758504 -0.67597193 200 189 213
-0.076879382 -0.32919687 -0.67563736 223 217 224
-0.077353194 -0.32889497 -0.67574143 219 211 218
-0.077593923 -0.32879022 -0.6757831 217 209 215
-0.077415146 -0.32711139 -0.67615652 193 180 202
-0.075408965 -0.32820848 -0.67579651 207 198 221
-0.075257204 -0.32914025 -0.67557871 221 214 230
-0.074143633 -0.32945466 -0.6754818 223 217 234
-0.07588315 -0.32961732 -0.67548269 229 224 233
-0.075170733 -0.32879627 -0.67565596 215 208 227
-0.073967896 -0.32835039 -0.67573339 209 201 225
-0.0749688 -0.32732224 -0.67599291 198 188 215
-0.075909212 -0.32665625 -0.676166 189 176 208
-0.072330318 -0.32649186 -0.67614299 216 216 222
-0.073014371 -0.32661524 -0.67612576 211 208 220
-0.070329502 -0.32958552 -0.6754185 226 223 236
-0.071708068 -0.32853186 -0.67566288 223 221 233
-0.071796671 -0.3273356 -0.67594445 219 219 226
-0.070298508 -0.32890767 -0.6755783 224 222 232
-0.070441239 -0.32977653 -0.6753732 226 224 237
-0.06873738 -0.3289445 -0.67558336 229 228 235
-0.069612406 -0.3285611 -0.6756658 225 224 231
-0.071082562 -0.32653457 -0.67614675 224 224 228
-0.069691882 -0.3287102 -0.67562771 224 222 230
-0.068716809 -0.32849088 -0.67569602 231 230 236
-0.064992093 -0.32974109 -0.67552763 204 208 209
-0.067089476 -0.32922035 -0.67557174 221 222 226
-0.067733452 -0.32872024 -0.67566967 228 228 233
-0.06717512 -0.3294436 -0.67551303 221 221 227
-0.066537492 -0.32783481 -0.67594463 226 228 228
-0.067083433 -0.32721221 -0.67607939 233 235 235
-0.064863428 -0.32930663 -0.67564821 208 211 212
-0.065777488 -0.32887435 -0.67571098 213 217 217
-0.062813625 -0.32941613 -0.67579877 190 189 192
-0.064378716 -0.32808968 -0.67600358 220 221 224
-0.063346945 -0.32843286 -0.67601031 207 205 208
-0.062721305 -0.32802275 -0.67617184 206 205 208
-0.084635369 -0.33283874 -0.67608333 212 199 223
-0.085154444 -0.33360296 -0.67609394 224 215 233
-0.08126431 -0.33024481 -0.67585272 219 211 221
-0.083501853 -0.33349067 -0.67587519 231 222 239
-0.08366292 -0.33267915 -0.67596281 215 202 226
-0.082857132 -0.33112639 -0.67598623 205 191 214
-0.08111988 -0.33062869 -0.67580247 227 222 228
-0.081894837 -0.33130822 -0.67584682 224 217 228
-0.081140436 -0.33382913 -0.67542851 238 234 242
-0.081462085 -0.33243552 -0.67565709 236 231 238
-0.081197672 -0.33299434 -0.67554218 237 233 240
-0.080512159 -0.33212253 -0.67553312 238 235 238
-0.08093556 -0.33208576 -0.6756103 237 233 238
-0.081095308 -0.33227909 -0.67561364 236 233 238
-0.076999463 -0.33130103 -0.67530161 236 231 237
-0.077985995 -0.33309063 -0.67516416 233 228 237
-0.076769926 -0.33257639 -0.67512703 228 221 234
-0.078035466 -0.33305374 -0.67517275 233 228 238
-0.07776504 -0.33336627 -0.67511231 230 224 236
-0.076949596 -0.33347824 -0.67503166 225 216 234
-0.078060411 -0.33069798 -0.6754654 237 235 236
-0.080053262 -0.33030072 -0.6756832 237 236 234
-0.079939671 -0.33114156 -0.675569 238 236 236
-0.080042705 -0.33261627 -0.67539424 240 238 239
-0.07962352 -0.33334294 -0.67526829 241 238 241
-0.072394758 -0.33031115 -0.67526954 226 223 241
-0.075959437 -0.33384061 -0.67491764 217 207 231
-0.072334692 -0.33303684 -0.67488682 201 199 219
-0.073830031 -0.3317979 -0.67511874 222 216 236
-0.072486363 -0.33117715 -0.67515236 219 216 235
-0.07468985 -0.33118507 -0.67521518 228 222 237
-0.076053619 -0.33166522 -0.67518657 229 222 234
-0.073574357 -0.33020309 -0.67531055 230 226 240
-0.076107971 -0.33022428 -0.67536372 236 231 236
-0.075184412 -0.33083865 -0.67526835 231 225 237
-0.070303008 -0.3334527 -0.67474961 196 190 209
-0.07127364 -0.33366641 -0.6747604 195 191 211
-0.069345303 -0.33273038 -0.67483962 203 195 212
-0.069387205 -0.33363739 -0.67466331 194 184 204
-0.069305882 -0.33144796 -0.6750899 214 211 225
-0.06999772 -0.33055446 -0.67523694 223 220 234
-0.07153748 -0.33024058 -0.67527634 226 223 240
-0.071531557 -0.33255008 -0.67495412 205 203 221
-0.07071574 -0.33155188 -0.67509568 214 212 228
-0.072224848 -0.33244374 -0.67496699 206 204 224
-0.064602889 -0.33122787 -0.67522687 192 193 195
-0.065237746 -0.33206767 -0.67503452 189 187 193
-0.067428559 -0.33311623 -0.67474705 192 182 198
-0.066215411 -0.33242393 -0.67492896 191 185 196
-0.06671764 -0.33267671 -0.67486054 192 184 197
-0.065034069 -0.33035946 -0.67538708 200 203 205
-0.067785442 -0.33273208 -0.67480868 198 188 204
-0.067593142 -0.33182687 -0.67499465 205 198 211
-0.067919895 -0.33160555 -0.67502499 209 203 216
-0.06761764 -0.33071876 -0.67521185 215 212 222
-0.068096399 -0.3329424 -0.67475474 198 187 205
-0.063185379 -0.33187386 -0.6752212 175 171 175
-0.06296052 -0.33053705 -0.6755147 181 181 183
-0.063603565 -0.3311809 -0.67532241 183 183 185
-0.06336043 -0.33028457 -0.67552805 187 188 190
-0.086757712 -0.33560884 -0.67616141 216 203 224
-0.08677607 -0.33553603 -0.67616975 217 204 225
-0.087252632 -0.33706415 -0.67611712 203 184 214
-0.086567089 -0.33704185 -0.67601818 205 187 216
-0.084502816 -0.33577007 -0.6758191 218 207 228
-0.084292941 -0.334571 -0.67589217 226 215 236
-0.084851488 -0.33488202 -0.67594898 223 210 233
-0.086780034 -0.33734143 -0.67602402 202 184 213
-0.087551624 -0.33771616 -0.67610723 198 177 209
-0.082897566 -0.33735481 -0.67542827 210 201 218
-0.080138959 -0.3352392 -0.67515355 226 221 232
-0.083209626 -0.33779708 -0.67544603 206 196 215
-0.080406487 -0.33548498 -0.67517751 224 218 230
-0.082137644 -0.33673817 -0.67535478 215 207 222
-0.080985688 -0.33753923 -0.67512929 200 190 213
-0.082882509 -0.33565509 -0.6755622 224 216 230
-0.082074471 -0.33527979 -0.67545635 228 222 233
-0.083404504 -0.33411118 -0.6757865 231 223 240
-0.082046531 -0.33592921 -0.67539489 225 218 229
-0.083868459 -0.33405113 -0.67587131 230 221 240
-0.076920159 -0.33753195 -0.67470044 187 174 205
-0.078545347 -0.33775023 -0.67483652 189 177 206
-0.077331766 -0.33582813 -0.67487174 204 192 219
-0.079590671 -0.33776408 -0.67493397 192 180 208
-0.076176681 -0.33735991 -0.6746437 187 174 205
-0.079029836 -0.33620822 -0.67499453 207 197 220
-0.079308145 -0.3347162 -0.67511559 227 222 234
-0.077776961 -0.33543786 -0.67494226 209 198 223
-0.078979097 -0.33590358 -0.67501038 210 201 222
-0.078209899 -0.33488426 -0.67501426 219 210 229
-0.077528976 -0.33471054 -0.67496973 217 207 228
-0.072401084 -0.33654246 -0.67448443 188 174 200
-0.07292632 -0.33700702 -0.67447084 187 172 199
-0.073847145 -0.33769834 -0.67446035 185 168 197
-0.073646627 -0.33702874 -0.67451882 186 172 200
-0.073583744 -0.33654132 -0.67456722 187 175 202
-0.073415577 -0.33426866 -0.67477518 197 192 215
-0.075830817 -0.33681509 -0.67467225 190 178 207
-0.075706467 -0.33481741 -0.67482281 207 196 222
-0.076148793 -0.33610478 -0.67474008 198 186 214
-0.076052964 -0.33478585 -0.67483896 210 198 224
-0.076087452 -0.33576488 -0.67476404 201 189 216
-0.068603836 -0.33742687 -0.6740405 193 184 192
-0.071457498 -0.33732328 -0.6743359 188 168 194
-0.070336059 -0.33705318 -0.67426693 189 174 194
-0.069298379 -0.33541059 -0.67441458 190 174 195
-0.068702362 -0.3358579 -0.67428827 191 179 194
-0.072255969 -0.33420992 -0.67472696 192 189 210
-0.071691521 -0.33414051 -0.67470372 192 187 209
-0.071609229 -0.33627513 -0.6744681 189 173 198
-0.070013039 -0.33424193 -0.67460126 191 180 202
-0.070184231 -0.3339937 -0.6746375 191 182 203
-0.064900406 -0.33753857 -0.67395252 202 189 191
-0.067603111 -0.33737189 -0.67403787 191 184 189
-0.064502746 -0.33523771 -0.67441553 183 175 179
-0.065058641 -0.33688322 -0.67408961 196 185 187
-0.064862952 -0.3362011 -0.67422533 190 181 184
-0.066900395 -0.33564925 -0.67433554 185 177 185
-0.06635426 -0.33434957 -0.67455131 182 172 184
-0.068061605 -0.33700818 -0.67409009 191 183 191
-0.065313011 -0.33459765 -0.6745488 177 171 177
-0.067130454 -0.33659452 -0.67418432 187 180 186
-0.063339397 -0.33770451 -0.67392761 207 193 194
-0.06290596 -0.33666858 -0.674182 196 176 183
-0.062365286 -0.33679399 -0.67415684 199 180 186
-0.064189456 -0.33627611 -0.67421454 192 180 183
-0.063687347 -0.33535263 -0.67442679 184 170 177
-0.063357167 -0.33478832 -0.67455757 179 164 173
-0.062990718 -0.3356995 -0.67438835 186 167 176
-0.063148342 -0.33592644 -0.67433459 188 169 178
-0.08806894 -0.33909354 -0.67614597 197 181 208
-0.08616437 -0.34109569 -0.67577577 207 202 215
-0.084488466 -0.33878368 -0.67560059 208 199 216
-0.08436434 -0.33830431 -0.67560035 207 198 215
-0.08404544 -0.3391366 -0.67551428 212 202 220
-0.084844008 -0.34089082 -0.67557073 214 205 222
-0.086142197 -0.34169397 -0.67574739 209 204 218
-0.087250218 -0.34051222 -0.67596823 200 194 209
-0.087129816 -0.33916637 -0.67599046 199 186 209
-0.087590255 -0.33955482 -0.67604798 198 186 209
-0.087201618 -0.33918491 -0.67600065 199 186 209
-0.087766565 -0.33840302 -0.67610896 196 178 208
-0.084892862 -0.33864832 -0.67566985 205 197 214
-0.080235288 -0.34122333 -0.67477328 207 203 196
-0.082137071 -0.34107286 -0.67511791 213 204 215
-0.081989355 -0.34120953 -0.67508274 213 205 213
-0.083290026 -0.34135485 -0.67530167 218 208 225
-0.080105267 -0.33843759 -0.67493796 194 184 206
-0.083581291 -0.33956134 -0.6754263 212 202 221
-0.083353452 -0.33791074 -0.67546058 205 195 214
-0.08338856 -0.33888039 -0.67542565 209 198 218
-0.083929971 -0.34170258 -0.67538983 222 211 229
-0.082836621 -0.34035918 -0.67528147 212 201 222
-0.0762721 -0.33955294 -0.6744855 177 154 186
-0.077267572 -0.33967435 -0.67457896 187 172 192
-0.078365952 -0.34068519 -0.6746152 195 184 190
-0.076623268 -0.34028649 -0.67446578 178 153 182
-0.076470248 -0.34130743 -0.67437214 172 140 171
-0.07756643 -0.3384597 -0.67469507 188 177 201
-0.079207137 -0.34062117 -0.67470407 202 196 195
-0.079108045 -0.33802095 -0.67486984 190 178 206
-0.07795047 -0.33912557 -0.67468637 192 182 199
-0.078638628 -0.33935443 -0.67473584 195 186 199
-0.073602296 -0.34125254 -0.67405081 181 161 193
-0.07407295 -0.34158167 -0.67406666 179 156 189
-0.073768802 -0.34144321 -0.67404652 180 160 192
-0.074563399 -0.34051642 -0.67427063 175 146 178
-0.072839268 -0.33935791 -0.67420638 184 164 193
-0.074912906 -0.34104764 -0.67424423 173 143 176
-0.074720882 -0.33796564 -0.67449486 184 167 197
-0.075431108 -0.33815023 -0.67453039 182 165 197
-0.072779365 -0.33839315 -0.67432654 184 161 190
-0.075225011 -0.33965695 -0.6744011 176 150 183
-0.074723318 -0.33958811 -0.67437124 177 150 182
-0.07483837 -0.34018308 -0.67433393 174 145 177
-0.068506502 -0.33904004 -0.67382294 198 189 197
-0.070348345 -0.34104386 -0.67373914 197 187 208
-0.068608463 -0.33816785 -0.67393404 193 186 193
-0.069861114 -0.34078914 -0.67372882 199 188 206
-0.070034035 -0.34062645 -0.67376232 197 187 206
-0.070728377 -0.3380557 -0.67415637 189 174 193
-0.069788732 -0.33886173 -0.67395693 192 183 197
-0.069646962 -0.33867264 -0.6739682 192 183 196
-0.071503468 -0.33996144 -0.67397863 189 178 203
-0.071295634 -0.33960536 -0.67400563 190 177 201
-0.064771242 -0.33995691 -0.67361009 215 195 208
-0.064620011 -0.33954999 -0.67365879 213 194 205
-0.066382818 -0.34159076 -0.67344791 217 198 216
-0.065136924 -0.3387174 -0.67378563 208 193 197
-0.065039821 -0.34085101 -0.67350107 218 197 214
-0.064829148 -0.3401885 -0.67358148 215 196 210
-0.06825915 -0.34006444 -0.67368817 204 193 203
-0.065651812 -0.33900702 -0.67376328 208 193 198
-0.064711474 -0.33794779 -0.67387021 206 191 193
-0.067932464 -0.33809441 -0.67391396 196 188 193
-0.066266038 -0.33832711 -0.67385501 203 190 194
-0.063057825 -0.3416968 -0.67334658 227 211 229
-0.062925115 -0.34151065 -0.67337394 227 211 228
-0.06154843 -0.34151158 -0.67334765 231 223 235
-0.060929097 -0.33901522 -0.67373604 222 212 213
-0.062796183 -0.34146768 -0.67337835 227 211 228
-0.064114764 -0.34156924 -0.67338705 223 200 223
-0.06298615 -0.33912942 -0.67372262 216 200 206
-0.062281542 -0.33826253 -0.67384356 214 201 202
-0.062387474 -0.33837539 -0.67382771 214 201 202
-0.063859612 -0.33931088 -0.67369044 214 196 205
-0.063756838 -0.33995762 -0.67360616 217 198 211
-0.058283374 -0.34083161 -0.67354113 230 219 229
-0.057758741 -0.34111926 -0.67351979 236 224 231
-0.058292478 -0.34146544 -0.6734401 238 229 236
-0.059399419 -0.34158313 -0.67337012 236 231 239
-0.058080066 -0.34166679 -0.67341799 241 232 238
-0.060429204 -0.34089303 -0.67343313 231 227 233
-0.059141792 -0.34007564 -0.67362183 221 211 222
-0.0585141 -0.33940253 -0.67375779 215 201 214
-0.05399758 -0.34046802 -0.67392099 234 230 234
-0.053483773 -0.34084606 -0.67390305 229 227 231
-0.055906706 -0.34110311 -0.67364538 245 234 238
-0.053701632 -0.34086359 -0.67388082 230 228 231
-0.055106595 -0.34099767 -0.67373395 240 232 236
-0.05550433 -0.33905602 -0.67400992 223 210 221
-0.055482585 -0.33890849 -0.67403543 222 208 220
-0.055890005 -0.34040061 -0.67375886 237 224 231
-0.05474741 -0.33986747 -0.6739549 240 234 239
-0.055865843 -0.34008944 -0.67381066 233 220 228
-0.088011608 -0.34269515 -0.67613387 203 198 211
-0.08788082 -0.34305477 -0.67613751 205 197 212
-0.087765984 -0.34226424 -0.67603707 201 198 210
-0.08534576 -0.34281641 -0.6756137 207 201 219
-0.084935464 -0.34352601 -0.675547 204 198 218
-0.085176528 -0.34305412 -0.67558628 206 200 219
-0.087063342 -0.34185055 -0.67589211 204 201 213
-0.084584266 -0.34215379 -0.67549092 216 207 225
-0.081505872 -0.34552008 -0.67500144 203 198 222
-0.08126349 -0.34299761 -0.67491519 205 201 199
-0.080290213 -0.34473968 -0.67479664 208 203 219
-0.081698552 -0.34389204 -0.67500031 203 198 206
-0.080195576 -0.34465724 -0.67478025 208 204 218
-0.083619706 -0.34211487 -0.67532974 219 209 225
-0.082841136 -0.34306467 -0.67519236 209 202 214
-0.082099184 -0.34314275 -0.67506182 206 201 206
-0.083632961 -0.34281614 -0.67533171 214 205 222
-0.083330519 -0.34182283 -0.67527902 220 211 223
-0.07790675 -0.34474123 -0.67449147 207 194 212
-0.078755409 -0.34479931 -0.67461151 202 189 213
-0.077633277 -0.3442052 -0.67446345 199 182 203
-0.076333173 -0.34366754 -0.67428869 199 177 194
-0.076569878 -0.34505475 -0.67429417 222 211 216
-0.079482391 -0.34288675 -0.67466646 203 194 198
-0.078325346 -0.34277344 -0.67454493 190 171 189
-0.078045778 -0.34229568 -0.6745069 187 166 182
-0.079922453 -0.34318712 -0.67471766 207 202 204
-0.079784401 -0.34458125 -0.67473012 206 199 216
-0.07962469 -0.34324756 -0.67468804 204 196 202
-0.072527178 -0.34339428 -0.67376488 212 206 224
-0.074572138 -0.34515488 -0.67399746 233 227 229
-0.073131435 -0.34519827 -0.67376459 237 233 236
-0.073676698 -0.34469602 -0.67387885 228 223 229
-0.073264837 -0.34360766 -0.67387146 213 207 222
-0.075970098 -0.34361127 -0.67424124 200 179 196
-0.073952265 -0.34303659 -0.67399728 202 191 211
-0.075268745 -0.3432349 -0.67416012 198 178 198
-0.074295744 -0.3421495 -0.67405897 184 163 193
-0.076110758 -0.34515181 -0.67422754 227 217 218
-0.069264889 -0.34291732 -0.67349935 222 211 221
-0.069022924 -0.34483364 -0.67336303 238 231 238
-0.068695739 -0.34313288 -0.67343587 224 212 223
-0.069858909 -0.34554359 -0.67339474 245 240 244
-0.070396259 -0.34425968 -0.67351943 234 227 232
-0.068932049 -0.34357533 -0.67343038 228 217 227
-0.070581369 -0.34327543 -0.67359018 221 212 224
-0.070012137 -0.34313083 -0.67355096 222 212 223
-0.07060802 -0.34202883 -0.67365944 203 192 213
-0.069889672 -0.3420884 -0.67359686 208 196 214
-0.070368633 -0.34311837 -0.67358106 220 210 223
-0.07066448 -0.3433097 -0.67359531 221 212 224
-0.064764664 -0.34219867 -0.67334235 226 203 226
-0.06601496 -0.34492919 -0.67320609 241 233 242
-0.064838253 -0.34241235 -0.67333072 227 205 227
-0.066240914 -0.34495699 -0.67321372 241 233 242
-0.065121152 -0.34334904 -0.67327768 232 215 233
-0.068260647 -0.34551921 -0.67325974 244 238 244
-0.066785157 -0.34268808 -0.67338061 224 207 224
-0.068338349 -0.34320498 -0.67340094 224 213 224
-0.067313582 -0.34186471 -0.67344743 216 198 215
-0.06753888 -0.34306571 -0.67338288 226 211 225
-0.060875218 -0.34437045 -0.67308885 233 228 238
-0.060772952 -0.34531358 -0.6730113 232 225 235
-0.061993431 -0.34479687 -0.67308718 237 233 241
-0.062826417 -0.34509659 -0.67308736 239 236 244
-0.060634948 -0.343743 -0.67313153 233 229 238
-0.060991075 -0.34410155 -0.67311341 234 230 239
-0.062994123 -0.34409595 -0.67316979 240 238 245
-0.062765732 -0.3419365 -0.67331535 229 216 233
-0.064162508 -0.34331781 -0.67324597 233 218 235
-0.063124597 -0.3440682 -0.67317426 240 236 244
-0.063804679 -0.34214836 -0.67332035 227 208 229
-0.062556192 -0.34326476 -0.6732192 237 233 242
-0.056913465 -0.34434515 -0.67320138 224 216 229
-0.05807342 -0.3442612 -0.67318076 231 222 232
-0.058986306 -0.34447172 -0.67313671 234 224 234
-0.057819054 -0.34547311 -0.67306548 217 212 227
-0.05664441 -0.34226692 -0.67341679 243 230 236
-0.058112063 -0.34482226 -0.67312348 226 218 230
-0.059090119 -0.34397587 -0.67317814 237 227 236
-0.060316872 -0.34445158 -0.6730836 233 226 236
-0.060539767 -0.34232655 -0.67324144 235 233 241
-0.060524039 -0.34357917 -0.67314303 233 229 238
-0.059687924 -0.34448054 -0.67311049 235 226 235
-0.054538429 -0.34537327 -0.67328 200 194 211
-0.054197263 -0.34534925 -0.67331058 198 192 209
-0.0557875 -0.3450951 -0.67320704 209 205 222
-0.055492021 -0.34563759 -0.67317337 203 197 216
-0.054620054 -0.34344441 -0.67347765 217 215 224
-0.055980176 -0.34354958 -0.67334664 225 218 229
-0.054536816 -0.3425186 -0.67357796 226 222 227
-0.056284785 -0.34365833 -0.67330873 226 219 230
-0.055242915 -0.34287193 -0.67347991 227 221 229
-0.084730126 -0.34649473 -0.67563713 194 185 212
-0.084288239 -0.34612131 -0.67549866 193 186 214
-0.083251424 -0.34941679 -0.67558801 191 190 205
-0.081107304 -0.34784001 -0.67508137 202 196 219
-0.081099801 -0.34763703 -0.67507154 202 196 219
-0.080089606 -0.34621 -0.67480499 208 202 227
-0.081021234 -0.34730035 -0.67504162 203 198 220
-0.080429532 -0.34954241 -0.67501086 201 189 218
-0.082995392 -0.34778214 -0.67542654 195 193 211
-0.082932621 -0.34721649 -0.67536533 196 193 214
-0.081954345 -0.34577724 -0.67508173 201 196 222
-0.08361043 -0.34889737 -0.67562401 191 191 205
-0.083835766 -0.34728798 -0.67551291 192 189 210
-0.083674699 -0.34578726 -0.67535132 195 189 216
-0.077408098 -0.34793568 -0.674456 223 214 229
-0.078763179 -0.34878042 -0.67470217 213 201 224
-0.076745532 -0.34678707 -0.6743319 230 223 228
-0.076303035 -0.34808514 -0.67425954 230 223 237
-0.076382354 -0.34617698 -0.67426401 234 227 227
-0.07935138 -0.34646752 -0.67470932 213 206 226
-0.078368835 -0.34595984 -0.67454827 220 214 227
-0.079151794 -0.34597409 -0.67466074 215 209 227
-0.077641673 -0.34692687 -0.67448378 224 216 224
-0.078274205 -0.34746122 -0.67459589 219 209 224
-0.07923086 -0.34759483 -0.67473799 212 202 224
-0.07229422 -0.34804699 -0.67366296 237 241 249
-0.074257165 -0.34938321 -0.67397106 229 229 248
-0.073075518 -0.34659386 -0.67373478 242 239 245
-0.07439106 -0.34813097 -0.67395765 234 230 245
-0.072283588 -0.34587643 -0.67360592 246 244 245
-0.074888192 -0.34606636 -0.67402041 239 234 234
-0.074134611 -0.34753984 -0.6739074 237 233 244
-0.073893964 -0.34629792 -0.67386252 241 237 240
-0.075852096 -0.34736767 -0.67418134 233 227 236
-0.073625818 -0.34608042 -0.67381853 242 239 240
-0.070133753 -0.34899783 -0.67349982 237 239 249
-0.069054261 -0.34895959 -0.67340696 240 240 249
-0.069138139 -0.34856731 -0.67340255 240 240 248
-0.069367774 -0.34906712 -0.67343676 239 240 249
-0.068804689 -0.34853277 -0.67337316 241 240 248
-0.071685724 -0.34861955 -0.67362213 234 239 250
-0.070494682 -0.34758925 -0.67348999 238 239 248
-0.072128817 -0.34846315 -0.67365754 235 240 249
-0.070384406 -0.34602857 -0.67344022 245 242 246
-0.069089748 -0.34641585 -0.67333513 243 239 247
-0.064477816 -0.34929684 -0.67307413 229 226 238
-0.065744407 -0.34901455 -0.67317116 234 233 242
-0.065257862 -0.34819058 -0.67313743 236 234 243
-0.065689802 -0.34856844 -0.67316872 236 234 243
-0.066143349 -0.34884301 -0.67320204 236 235 244
-0.066327125 -0.34633726 -0.67318428 244 241 248
-0.067758888 -0.34681597 -0.67325926 244 240 247
-0.067299083 -0.34771162 -0.67326611 243 241 248
-0.067264244 -0.34696749 -0.67324275 244 241 247
-0.06835261 -0.34923846 -0.67335582 241 240 248
-0.061165411 -0.34655392 -0.67298591 228 220 233
-0.062368348 -0.34835097 -0.67300695 221 215 230
-0.060851216 -0.3472448 -0.6729632 219 210 226
-0.061169416 -0.34668362 -0.67298412 227 219 232
-0.061944176 -0.34812933 -0.67299342 220 212 228
-0.06411539 -0.34858128 -0.67306525 231 228 238
-0.0635316 -0.34794688 -0.673051 231 227 238
-0.062501609 -0.34613559 -0.67302841 236 231 240
-0.061625268 -0.34578341 -0.67300457 234 228 237
-0.06305524 -0.346659 -0.67304224 235 231 240
-0.059344579 -0.3495312 -0.67293322 201 189 212
-0.058048479 -0.34794617 -0.67299289 205 197 217
-0.057280567 -0.34895095 -0.67297494 211 203 217
-0.058783188 -0.34934708 -0.67294526 204 193 214
-0.05778601 -0.34804386 -0.67299348 207 199 218
-0.058024459 -0.34742472 -0.67300749 204 197 218
-0.060447682 -0.34814906 -0.67294019 207 196 218
-0.059832428 -0.34585622 -0.67298967 225 218 231
-0.060123313 -0.34653851 -0.6729722 220 212 227
-0.058234874 -0.34607241 -0.6730265 214 208 225
-0.060217857 -0.34574857 -0.67298162 228 221 232
-0.059703305 -0.34614861 -0.67298853 222 214 229
-0.055620003 -0.34948149 -0.67303658 213 204 214
-0.056632947 -0.34877899 -0.67298841 214 207 219
-0.081033401 -0.35070345 -0.67523956 195 192 216
-0.080325246 -0.34992754 -0.67502159 200 189 219
-0.077094756 -0.35181618 -0.67460132 207 206 228
-0.077103414 -0.35083291 -0.67452091 215 213 236
-0.078545973 -0.34994683 -0.67469889 211 202 229
-0.078965828 -0.35132167 -0.67490119 203 202 227
-0.0796552 -0.35119027 -0.67501205 199 196 223
-0.077311352 -0.35040212 -0.67452073 216 212 238
-0.079341382 -0.35168365 -0.67500174 199 200 225
-0.079496421 -0.35042971 -0.67491329 203 195 224
-0.072464116 -0.35237744 -0.67393005 195 190 217
-0.073369317 -0.35093144 -0.67396098 218 222 237
-0.075423144 -0.35129431 -0.67428011 214 212 231
-0.075225197 -0.35099551 -0.6742276 217 215 234
-0.074902065 -0.34996852 -0.67409682 225 223 244
-0.074697733 -0.35053471 -0.6741156 221 221 239
-0.073450565 -0.3497391 -0.67387515 228 232 248
-0.073626377 -0.3506068 -0.67397207 221 225 240
-0.068542615 -0.35191062 -0.67349845 203 192 226
-0.068421312 -0.35182977 -0.67348123 205 193 227
-0.072123848 -0.3534281 -0.67396319 181 170 204
-0.072223537 -0.35076293 -0.67377931 216 218 237
-0.072236791 -0.3514775 -0.67383236 206 205 228
-0.070636593 -0.35095513 -0.67365837 217 215 233
-0.071350172 -0.35125178 -0.67374063 211 210 230
-0.07159999 -0.34973881 -0.67365181 231 237 249
-0.069979936 -0.3501814 -0.67354631 229 229 243
-0.064976625 -0.35144684 -0.67320263 216 211 227
-0.064477779 -0.35190699 -0.67318928 218 217 226
-0.066790804 -0.35203797 -0.67336589 197 184 221
-0.064570807 -0.35246003 -0.67322409 215 214 224
-0.068110071 -0.35071853 -0.67340183 222 216 237
-0.067542151 -0.34992316 -0.67332029 233 230 243
-0.066266328 -0.35032824 -0.67324328 222 216 235
-0.067839861 -0.3499662 -0.67334497 233 231 243
-0.067480057 -0.35125268 -0.67337996 211 202 230
-0.061145488 -0.35142556 -0.67299533 205 197 216
-0.06056999 -0.35005787 -0.6729269 197 186 211
-0.062299505 -0.35210812 -0.6730898 208 202 217
-0.06275405 -0.35279009 -0.67313564 211 208 219
-0.061788268 -0.35136876 -0.6730389 204 196 215
-0.061482593 -0.34975609 -0.67296058 202 191 215
-0.062108245 -0.34979042 -0.67298716 207 198 220
-0.063790567 -0.35150158 -0.67314065 215 211 224
-0.061865184 -0.34962231 -0.67296904 206 196 219
-0.062337223 -0.35031211 -0.67302269 207 199 219
-0.063502595 -0.35098511 -0.67310303 214 210 224
-0.057288125 -0.35325262 -0.67307842 224 220 230
-0.0574264 -0.35097659 -0.67299241 218 212 221
-0.058322527 -0.35204777 -0.67300612 220 215 223
-0.059526645 -0.3534106 -0.67302167 222 218 226
-0.060421526 -0.35349375 -0.67299974 221 218 225
-0.059386577 -0.3529045 -0.67300731 220 216 225
-0.059901383 -0.35066259 -0.67294592 205 196 215
-0.060506687 -0.3529329 -0.67298537 217 212 222
-0.057099443 -0.34976238 -0.67296243 214 206 217
-0.058595885 -0.35051259 -0.67295921 211 203 217
-0.060503583 -0.35310909 -0.67298913 218 214 223
-0.052793082 -0.35236609 -0.67326361 213 202 221
-0.054836385 -0.35289118 -0.67317837 220 212 227
-0.054102201 -0.35180935 -0.67319304 216 207 220
-0.054583989 -0.3522265 -0.6731782 218 210 223
-0.053969014 -0.35106674 -0.67318588 215 205 216
-0.054959759 -0.35197446 -0.67315626 219 211 222
-0.056423709 -0.3507542 -0.67302036 218 211 221
-0.056552097 -0.35047206 -0.67300183 218 210 221
-0.056639425 -0.35346279 -0.67310423 225 221 232
-0.05614318 -0.35030976 -0.67302239 217 209 219
-0.055901695 -0.34999406 -0.67302656 215 207 217
-0.056591194 -0.35140598 -0.67303306 220 214 224
-0.052020542 -0.35228062 -0.67332017 211 200 221
-0.064891383 -0.3553516 -0.67345208 192 184 208
-0.064878248 -0.35555047 -0.67346781 190 181 207
-0.065302856 -0.35488048 -0.67344022 195 191 207
-0.062352691 -0.35638648 -0.67334259 188 173 214
-0.061025027 -0.35586503 -0.67319107 195 184 222
-0.061268494 -0.35431451 -0.67311257 211 204 220
-0.0606145 -0.35583124 -0.67315239 196 185 225
-0.062171448 -0.3551771 -0.67324847 201 190 215
-0.060896013 -0.35364765 -0.67303234 218 215 223
-0.06404607 -0.35454938 -0.67332715 203 197 215
-0.062567823 -0.35519859 -0.67327863 200 189 214
-0.063985817 -0.35614347 -0.67345643 187 173 208
-0.063372657 -0.3560352 -0.67340463 190 175 209
-0.057758473 -0.35552719 -0.67319793 208 200 228
-0.059678614 -0.35666949 -0.67322379 189 176 227
-0.056923851 -0.3543762 -0.67314935 220 214 230
-0.05728922 -0.3559964 -0.67323434 209 202 226
-0.058087185 -0.35527605 -0.67317688 207 198 229
-0.059876576 -0.35657516 -0.67321306 189 176 227
-0.060020007 -0.35505411 -0.6731109 205 197 226
-0.058579028 -0.35437113 -0.67310709 214 208 229
-0.058378961 -0.35468397 -0.67313284 211 204 229
-0.059687451 -0.35500008 -0.67311674 206 198 227
-0.059509028 -0.35368893 -0.67303711 220 216 227
-0.053180527 -0.35615584 -0.67336202 203 200 215
-0.054356962 -0.35651222 -0.67334837 205 200 218
-0.053378876 -0.35709551 -0.67338789 199 198 211
-0.053131379 -0.35484076 -0.67332095 209 202 221
-0.052792065 -0.35648835 -0.67338091 200 198 212
-0.054912377 -0.35632464 -0.67333061 208 201 221
-0.055315599 -0.35493374 -0.67324835 215 208 226
-0.055372298 -0.35448053 -0.67321986 217 211 228
-0.05386731 -0.35356808 -0.6732375 217 209 228
-0.054953583 -0.35533661 -0.67328811 212 204 225
-0.055358212 -0.35477436 -0.67323726 216 209 227
-0.052494347 -0.35412055 -0.67332113 212 204 224
-0.061413504 -0.35958374 -0.67354274 163 133 194
-0.06100985 -0.36067387 -0.67364162 158 109 180
-0.06218449 -0.36081892 -0.6737268 152 118 176
-0.061477903 -0.35979041 -0.6735698 161 130 191
-0.062727846 -0.35911372 -0.67358178 162 149 196
-0.06157852 -0.3583639 -0.67341805 170 156 210
-0.062402405 -0.35749957 -0.67342019 176 158 213
-0.056715928 -0.35875741 -0.67342305 202 193 209
-0.056998719 -0.35962784 -0.67348963 196 182 199
-0.05773275 -0.35918647 -0.6734758 191 167 201
-0.058486991 -0.36082008 -0.67360598 177 142 183
-0.060145177 -0.36047581 -0.67360044 164 111 183
-0.058457691 -0.35781085 -0.67333549 192 176 218
-0.060071018 -0.3576555 -0.67328501 181 164 222
-0.059232868 -0.35997707 -0.67356312 173 129 189
-0.060439561 -0.35891259 -0.6734187 171 137 205
-0.059825867 -0.35861814 -0.6733982 177 148 208
-0.053614318 -0.35889843 -0.67348707 187 183 197
-0.053586822 -0.3593775 -0.67351383 180 175 192
-0.054290947 -0.36045563 -0.67356819 175 166 184
-0.052908845 -0.36102301 -0.67360979 149 139 173
-0.053528056 -0.36089793 -0.67359829 159 149 177
-0.053714465 -0.35811493 -0.67343909 196 194 204
-0.055955362 -0.35799873 -0.67338341 203 197 214
-0.053851075 -0.35815164 -0.67343873 196 194 205
-0.055167053 -0.35927278 -0.67348826 196 190 199
-0.055750828 -0.35763517 -0.67336261 204 199 216
-0.060913973 -0.36445528 -0.67403579 154 122 172
-0.061136801 -0.36271665 -0.67388934 151 99 166
-0.060560003 -0.36334014 -0.67388725 157 114 175
-0.06176661 -0.36167121 -0.67381084 149 100 166
-0.059987426 -0.36498648 -0.67403239 162 141 178
-0.060023502 -0.36260638 -0.67380172 162 118 176
-0.059915617 -0.36314464 -0.67385221 163 127 177
-0.059896581 -0.36169639 -0.67370945 162 111 174
-0.060511094 -0.36289641 -0.67384136 157 110 174
-0.059549734 -0.36304629 -0.6738342 167 134 178
-0.066507377 -0.31775469 -0.67903286 160 138 144
-0.065834478 -0.31791988 -0.67898327 160 137 146
-0.066926911 -0.31821734 -0.67886376 166 146 150
-0.081124708 -0.32116604 -0.67808074 145 118 126
-0.080293335 -0.32170504 -0.67781657 138 110 117
-0.08089257 -0.32213905 -0.67771393 145 119 126
-0.082398601 -0.32194638 -0.67791331 159 137 146
-0.081135236 -0.32127339 -0.67804337 145 119 127
-0.083016969 -0.32125539 -0.67821038 164 142 152
-0.083062343 -0.32074481 -0.67836124 162 140 149
-0.082097404 -0.31973734 -0.67863375 151 124 132
-0.081689365 -0.31896707 -0.67885 144 115 123
-0.07734438 -0.32139245 -0.67776048 153 127 140
-0.076509416 -0.32224041 -0.6774295 168 141 157
-0.076677404 -0.32087892 -0.6779027 153 129 143
-0.07778538 -0.32034126 -0.6781413 138 115 125
-0.078935005 -0.32075408 -0.67806292 135 109 118
-0.08002612 -0.32218635 -0.67762303 137 109 116
-0.079137899 -0.32085502 -0.67804003 135 109 117
-0.075266093 -0.32195345 -0.67751634 175 152 165
-0.07524024 -0.31980696 -0.67824548 153 133 144
-0.075685643 -0.32142907 -0.67769068 167 142 156
-0.075669318 -0.32022551 -0.67810172 155 133 146
-0.068666436 -0.3217212 -0.67769051 201 177 187
-0.068988547 -0.31931421 -0.67846978 179 163 162
-0.069736615 -0.32141754 -0.67776722 196 179 185
-0.069840938 -0.32146305 -0.67775017 197 180 185
-0.068439312 -0.31964284 -0.67837405 183 163 165
-0.065872796 -0.32077312 -0.67803138 196 175 185
-0.0652766 -0.32216096 -0.6775707 223 216 217
-0.067289323 -0.32178581 -0.67768526 205 181 193
-0.065831386 -0.32032838 -0.67818028 188 165 177
-0.065605521 -0.32025111 -0.67820734 188 166 178
-0.066710837 -0.32169476 -0.67771888 206 187 196
-0.065469764 -0.31903884 -0.67861074 171 145 159
-0.066714704 -0.31970945 -0.67837542 180 155 166
-0.067734674 -0.31959906 -0.67839813 181 159 165
-0.065995693 -0.31879538 -0.67868334 170 146 156
-0.068110533 -0.3206487 -0.67805046 191 168 176
-0.065937534 -0.3192417 -0.67853838 174 148 161
-0.063092634 -0.32090777 -0.6780867 209 193 204
-0.063752457 -0.32193917 -0.67770386 223 219 219
-0.062961176 -0.32161075 -0.67787606 217 209 211
-0.063733369 -0.32119671 -0.67794645 213 201 208
-0.084564723 -0.32469606 -0.67745566 177 160 174
-0.084591523 -0.32381704 -0.67765909 178 162 173
-0.084110826 -0.3249785 -0.67733532 174 156 173
-0.082369283 -0.32513121 -0.67711967 164 141 156
-0.082013108 -0.3244803 -0.67724973 158 134 147
-0.081502356 -0.3245813 -0.67715561 159 135 146
-0.08175125 -0.3259618 -0.67681354 173 151 162
-0.080616191 -0.32388699 -0.67722839 153 128 135
-0.080817007 -0.32309055 -0.67747074 145 119 127
-0.081703797 -0.32329717 -0.67750436 153 128 139
-0.082067013 -0.32385838 -0.67740816 156 132 145
-0.082728155 -0.32386959 -0.67746305 162 140 154
-0.082932554 -0.32357067 -0.67754883 164 143 156
-0.082957245 -0.32391664 -0.67747217 164 143 157
-0.077061124 -0.32478735 -0.67673886 176 155 177
-0.078032084 -0.32582262 -0.67650515 178 157 177
-0.076374568 -0.32445469 -0.67678958 176 155 182
-0.078242823 -0.32479462 -0.6768136 176 152 164
-0.078670539 -0.32478517 -0.67684412 175 150 159
-0.077425316 -0.32474676 -0.67677414 176 154 173
-0.078258127 -0.323394 -0.67720145 165 139 149
-0.078473628 -0.32237104 -0.67748982 153 125 135
-0.078671753 -0.32244021 -0.67748088 152 124 134
-0.079100095 -0.32468861 -0.67689192 171 146 152
-0.079041503 -0.32234654 -0.67752463 147 120 129
-0.073626548 -0.3245818 -0.67673773 197 189 204
-0.073766716 -0.32565939 -0.6764043 200 194 210
-0.074846856 -0.32588944 -0.67635036 191 181 207
-0.074188843 -0.3257477 -0.67638373 196 189 209
-0.073305242 -0.32563671 -0.67640382 204 200 212
-0.074771307 -0.32385558 -0.67696005 185 171 190
-0.075892136 -0.3234641 -0.67706281 176 154 177
-0.073355868 -0.32310396 -0.67718756 193 185 195
-0.073749587 -0.32342041 -0.67709351 191 181 195
-0.075094193 -0.32257396 -0.67732483 180 160 174
-0.074749805 -0.32355544 -0.6770463 184 169 187
-0.070781715 -0.32529077 -0.67652142 218 212 218
-0.06960775 -0.32484493 -0.67667973 222 213 219
-0.068902902 -0.32549012 -0.67648387 233 229 232
-0.069717541 -0.32523873 -0.67655271 225 219 224
-0.070711866 -0.32493055 -0.67663717 215 207 214
-0.068783358 -0.3225266 -0.6774289 207 183 194
-0.064651228 -0.32294154 -0.67734915 232 231 230
-0.065998957 -0.32482132 -0.67677122 239 238 239
-0.065216817 -0.32400525 -0.67703372 236 235 235
-0.065406598 -0.32614252 -0.67645568 243 242 245
-0.065536045 -0.32455716 -0.67686856 238 237 237
-0.064818487 -0.32378241 -0.67711627 235 234 234
-0.067667529 -0.32260188 -0.67741567 214 194 203
-0.068098098 -0.32388759 -0.67700356 223 210 216
-0.066203661 -0.32250956 -0.67745298 221 211 215
-0.066769511 -0.32444385 -0.67683339 236 236 235
-0.068089761 -0.32286265 -0.67733032 214 193 203
-0.064349748 -0.32384932 -0.67712897 235 233 234
-0.063625485 -0.32347792 -0.6772902 231 230 228
-0.063998885 -0.32296735 -0.67739326 230 230 227
-0.063988328 -0.32395327 -0.67713267 234 233 232
-0.080283068 -0.32660234 -0.6764732 180 158 162
-0.081122547 -0.32755554 -0.67638046 180 158 170
-0.081245236 -0.32627043 -0.67666948 176 153 162
-0.078362279 -0.32709187 -0.67623025 192 179 194
-0.078286573 -0.32670453 -0.67630798 186 170 188
-0.073967174 -0.32645795 -0.67617965 203 197 215
-0.075825296 -0.32642806 -0.67621833 187 173 206
-0.065082878 -0.3263104 -0.67643178 242 241 244
-0.068320647 -0.32636467 -0.67622924 243 244 244
-0.063850828 -0.32645863 -0.67647922 235 235 237
-0.06369023 -0.32657436 -0.67646223 233 233 234
-0.096273728 -0.33355722 -0.67819673 177 157 177
-0.095959783 -0.33386672 -0.67810822 175 158 174
-0.092411585 -0.33377576 -0.67738008 198 188 204
-0.092120752 -0.33357987 -0.67733902 199 190 206
-0.089658119 -0.33335876 -0.67687744 209 199 214
-0.088222519 -0.33293128 -0.67664039 213 203 217
-0.088408023 -0.33354694 -0.67660403 220 214 224
-0.090446234 -0.33322456 -0.67705166 202 190 208
-0.090091102 -0.3338421 -0.67690659 213 205 218
-0.090684921 -0.33281916 -0.67714697 195 181 202
-0.08970619 -0.33185157 -0.67706645 188 170 195
-0.085574947 -0.33233795 -0.67625654 205 190 214
-0.085877441 -0.33220747 -0.67630965 202 188 211
-0.087876573 -0.33242565 -0.67663175 208 196 212
-0.08706484 -0.33276811 -0.67644578 211 201 217
-0.087141432 -0.33214778 -0.67653364 203 189 209
-0.086272947 -0.33156037 -0.6764487 194 176 202
-0.087581642 -0.3319684 -0.67663372 201 186 206
-0.10013008 -0.3373591 -0.67903644 214 205 206
-0.10050869 -0.33730105 -0.67917514 212 203 206
-0.09758088 -0.33779278 -0.67834967 214 196 204
-0.098260731 -0.33679417 -0.67855078 205 196 197
-0.096043259 -0.33569372 -0.67805994 191 171 186
-0.097251199 -0.33686033 -0.67830586 204 188 197
-0.096105449 -0.33469191 -0.6781128 181 166 178
-0.098669849 -0.33663103 -0.67865193 206 196 197
-0.094036765 -0.33649844 -0.67758679 208 187 206
-0.093597136 -0.33629194 -0.67749053 207 188 207
-0.094799861 -0.33734268 -0.6777088 209 184 205
-0.093940035 -0.33711824 -0.67750394 207 187 207
-0.092868887 -0.33637798 -0.67729145 205 190 209
-0.093885653 -0.3343302 -0.6776526 191 177 193
-0.093979411 -0.33402368 -0.67768365 187 174 190
-0.093704417 -0.33457449 -0.67760569 195 180 196
-0.092285097 -0.3344146 -0.67731708 204 192 209
-0.094990678 -0.33496857 -0.67785782 189 171 187
-0.087975897 -0.33532104 -0.67635924 218 209 224
-0.088080458 -0.33714825 -0.6762358 203 184 212
-0.089536726 -0.33621356 -0.67658019 213 205 220
-0.089800857 -0.33691841 -0.67657423 207 196 216
-0.088624291 -0.33744368 -0.676314 201 183 211
-0.088950105 -0.33415127 -0.6766451 222 218 227
-0.091246873 -0.33465764 -0.67705917 207 198 214
-0.091701411 -0.33623713 -0.6770041 203 194 212
-0.091107205 -0.33633095 -0.67687613 207 199 216
-0.089164928 -0.33471176 -0.67663628 221 216 226
-0.087357767 -0.33590066 -0.67622298 213 200 221
-0.08771535 -0.33471131 -0.67636639 223 216 228
-0.10120735 -0.33808953 -0.67942226 213 209 210
-0.10196889 -0.33839393 -0.67971402 209 206 211
-0.10088905 -0.3392477 -0.6793679 211 203 209
-0.10022818 -0.34119022 -0.67921847 222 220 228
-0.10064848 -0.34036815 -0.6793344 215 209 217
-0.10066571 -0.3396259 -0.67930543 213 204 211
-0.099658705 -0.33815387 -0.67886388 219 214 209
-0.096757419 -0.3402698 -0.67820549 224 213 224
-0.09586814 -0.34008846 -0.67795342 224 210 222
-0.097762831 -0.34134746 -0.67849523 229 228 234
-0.095726423 -0.34137148 -0.67792034 231 227 234
-0.099120103 -0.34138745 -0.67887872 229 229 235
-0.096073709 -0.33874187 -0.67800426 216 193 210
-0.09820804 -0.33792835 -0.67849839 216 202 206
-0.098663695 -0.3405948 -0.67873472 225 220 228
-0.098710075 -0.33800283 -0.67862242 217 207 207
-0.098205462 -0.34022906 -0.67860729 223 215 224
-0.096677922 -0.33798468 -0.67813361 214 190 204
-0.097210847 -0.33873191 -0.6782971 217 198 211
-0.093154721 -0.33992743 -0.67723638 212 206 219
-0.09264753 -0.34001929 -0.67710304 207 201 213
-0.093016997 -0.3404648 -0.67720222 210 204 215
-0.093167484 -0.34072095 -0.67724299 212 206 216
-0.095346615 -0.34179494 -0.67782199 230 229 234
-0.094721749 -0.33833492 -0.67763984 211 190 209
-0.092896327 -0.33887696 -0.67716378 210 203 219
-0.095420413 -0.34117126 -0.67783844 229 225 233
-0.094821543 -0.33969966 -0.6776734 219 208 221
-0.095047235 -0.33919677 -0.67772996 217 201 216
-0.095585026 -0.34017587 -0.67787635 224 212 223
-0.091331728 -0.34011248 -0.67677653 200 193 205
-0.091009937 -0.3394146 -0.6767028 201 194 209
-0.08948385 -0.34140164 -0.6763745 200 197 206
-0.091165096 -0.34078798 -0.67674255 199 192 203
-0.09022525 -0.34137091 -0.67653781 199 195 204
-0.089265503 -0.33820063 -0.67639095 198 182 209
-0.088757537 -0.34098816 -0.67622876 199 196 208
-0.088537879 -0.34049162 -0.67619991 199 192 208
-0.090996325 -0.33854178 -0.67670506 201 193 211
-0.088829204 -0.3410657 -0.67624027 199 197 208
-0.089709438 -0.33846313 -0.67646724 199 186 210
-0.096231371 -0.34233865 -0.67809981 228 225 235
-0.095849492 -0.34333983 -0.67802292 225 223 232
-0.099157155 -0.34250548 -0.67893708 224 224 235
-0.096733086 -0.34220248 -0.67823303 229 227 236
-0.097314142 -0.34189513 -0.67837727 231 232 237
-0.09182398 -0.3428818 -0.67695624 204 199 204
-0.092247084 -0.34227958 -0.67702472 200 192 201
-0.092967741 -0.34567785 -0.67740065 217 221 222
-0.093917862 -0.34467295 -0.67757481 210 209 217
-0.095064834 -0.34509623 -0.67788088 210 209 220
-0.092399761 -0.34437761 -0.67718512 211 211 214
-0.095057577 -0.34333184 -0.67780745 219 218 226
-0.094316632 -0.34232494 -0.67757165 218 215 222
-0.094062693 -0.34333986 -0.67754549 211 207 216
-0.093995996 -0.34205145 -0.67747611 217 212 219
-0.094575338 -0.34314337 -0.67767274 216 213 221
-0.094304889 -0.34238821 -0.67757112 218 214 221
-0.088900708 -0.34251243 -0.67631292 202 196 208
-0.08861994 -0.34184986 -0.6761905 200 199 207
-0.09023305 -0.34248292 -0.67660373 202 192 204
-0.089232862 -0.34306318 -0.67643553 205 194 208
-0.091466263 -0.34254229 -0.67686677 202 193 202
-0.092349619 -0.34618247 -0.67729729 213 215 217
-0.093656763 -0.34617427 -0.67761713 211 211 218
-0.093915507 -0.34578055 -0.67764217 214 217 222
0 0 0 1 0 0 0 1 0 0 0 1 0 0 0 0 0 810 1 0 0
