ply
format ascii 1.0
comment PCL generated
element vertex 700
property float x
property float y
property float z
property uchar red
property uchar green
property uchar blue
element camera 1
property float view_px
property float view_py
property float view_pz
property float x_axisx
property float x_axisy
property float x_axisz
property float y_axisx
property float y_axisy
property float y_axisz
property float z_axisx
property float z_axisy
property float z_axisz
property float focal
property float scalex
property float scaley
property float centerx
property float centery
property int viewportx
property int viewporty
property float k1
property float k2
end_header
-0.11143872 -0.38661623 -0.68986183 169 145 161
-0.11156011 -0.38738981 -0.69001001 169 142 159
-0.10759014 -0.38612396 -0.68796039 173 165 161
-0.10867015 -0.38580614 -0.68843853 171 161 162
-0.10770538 -0.38767111 -0.6880697 174 180 159
-0.10839365 -0.38741615 -0.68837255 173 177 160
-0.10805691 -0.3871074 -0.68820834 173 174 160
-0.11108392 -0.38757268 -0.68977457 171 146 159
-0.10957213 -0.38822109 -0.68905342 173 164 158
-0.10948396 -0.38668102 -0.68884492 171 168 162
-0.10826568 -0.38799688 -0.68834746 174 180 159
-0.10951027 -0.3882978 -0.68902922 173 165 158
-0.11224441 -0.38880578 -0.69052351 164 133 157
-0.11330605 -0.39145893 -0.69131249 169 148 157
-0.11237765 -0.39192766 -0.69078177 167 148 157
-0.11232086 -0.39159241 -0.69073373 168 147 157
-0.1123553 -0.39042768 -0.69070476 170 146 157
-0.11172416 -0.39246407 -0.6904152 164 148 156
-0.10796867 -0.39165962 -0.68847483 166 150 150
-0.10964551 -0.39093113 -0.68923652 169 165 157
-0.10847864 -0.39073932 -0.68865263 169 164 154
-0.10783771 -0.38983521 -0.68827045 172 175 155
-0.10990834 -0.39207998 -0.68945324 165 150 154
-0.10846316 -0.38895059 -0.6885336 174 177 157
-0.1104987 -0.3906599 -0.68966937 169 155 157
-0.10965572 -0.39038515 -0.68921745 170 165 157
-0.109383 -0.38897523 -0.68901509 173 166 157
-0.1098012 -0.38998666 -0.68927646 171 162 157
-0.11041313 -0.39024985 -0.6896072 170 155 157
-0.10721757 -0.38986427 -0.68798137 172 175 156
-0.11191107 -0.39323425 -0.69056404 165 148 161
-0.10787263 -0.39346942 -0.68854105 168 143 155
-0.11126591 -0.3928203 -0.69017005 165 149 159
-0.10780684 -0.39273816 -0.68847746 164 138 148
-0.10907846 -0.39301753 -0.68911642 166 143 155
-0.10960289 -0.39301547 -0.68937212 166 145 156
-0.10952049 -0.39366323 -0.68937546 169 149 162
-0.10991449 -0.39303029 -0.68952501 166 146 157
-0.1066937 -0.39276016 -0.687971 165 143 153
-0.09728761 -0.38413629 -0.68342376 168 150 162
-0.096795291 -0.38450107 -0.68328935 170 153 166
-0.096910544 -0.38447601 -0.68332678 170 153 165
-0.096790805 -0.38432568 -0.68327069 170 153 165
-0.097015105 -0.38314462 -0.6832248 165 147 159
-0.094475836 -0.38362029 -0.68242282 170 154 169
-0.094980977 -0.38358322 -0.6825735 170 155 169
-0.095382981 -0.38319376 -0.68264741 169 154 168
-0.098400623 -0.38533589 -0.68391514 165 147 159
-0.097788043 -0.38502759 -0.68367904 168 150 162
-0.095799625 -0.38493457 -0.68298477 174 158 172
-0.097303621 -0.38554907 -0.6835531 168 151 166
-0.097671397 -0.38701931 -0.68379688 163 145 167
-0.096289605 -0.3874284 -0.68332678 166 148 176
-0.095930591 -0.38747472 -0.68319529 167 149 179
-0.097307034 -0.38802296 -0.68374574 162 144 171
-0.091905653 -0.38864544 -0.68193793 166 162 177
-0.093975902 -0.38839048 -0.68260098 165 151 179
-0.092778601 -0.38759387 -0.68215662 163 150 172
-0.09220168 -0.38838485 -0.68201828 166 159 175
-0.091938339 -0.3868874 -0.68183523 162 148 166
-0.093932882 -0.38588193 -0.68242604 163 143 167
-0.09420833 -0.38636252 -0.68254727 164 143 169
-0.095552795 -0.38680613 -0.68301803 169 151 177
-0.094569862 -0.38571799 -0.68262535 167 148 169
-0.094566412 -0.38508883 -0.68258429 168 150 168
-0.09054403 -0.38855025 -0.68159223 163 150 175
-0.088615887 -0.38550749 -0.68087274 171 154 186
-0.089627616 -0.38816094 -0.68133903 162 144 175
-0.09090665 -0.38789269 -0.68162429 167 159 179
-0.088135906 -0.38727689 -0.68090576 161 135 176
-0.089227289 -0.38861266 -0.68128055 158 136 172
-0.09123829 -0.38789022 -0.68170828 167 159 177
-0.090455994 -0.38528121 -0.6813364 163 143 168
-0.090315819 -0.38651139 -0.68137938 167 153 177
-0.090961069 -0.38706937 -0.68158317 166 154 174
-0.090529762 -0.38558677 -0.68137532 164 145 169
-0.091316901 -0.38693371 -0.68166697 164 152 170
-0.086008579 -0.38735545 -0.68039536 175 164 193
-0.086567059 -0.38680944 -0.68048543 173 159 190
-0.086952999 -0.38735864 -0.68062544 167 148 184
-0.086728252 -0.38740748 -0.68057489 169 151 186
-0.086009756 -0.38834143 -0.68047845 170 156 188
-0.086324826 -0.38596743 -0.68037313 179 165 193
-0.087512583 -0.38514143 -0.68057656 174 156 190
-0.085257083 -0.38633311 -0.68017226 185 174 195
-0.09649121 -0.38927779 -0.68353117 160 141 174
-0.097789586 -0.38872033 -0.6839717 158 140 169
-0.096982397 -0.39024088 -0.68379444 155 136 165
-0.097530007 -0.38977015 -0.68396086 155 136 165
-0.095793545 -0.39257237 -0.68351728 140 117 143
-0.09589415 -0.38957363 -0.68332976 160 140 175
-0.092115648 -0.39170706 -0.68222332 150 135 159
-0.091935903 -0.3898088 -0.68203014 160 152 170
-0.091933817 -0.39241737 -0.68221241 146 129 156
-0.094248787 -0.39171925 -0.68293625 146 128 152
-0.0922492 -0.3900061 -0.68214858 159 149 168
-0.091870978 -0.39041674 -0.68205106 157 147 167
-0.093667328 -0.38894868 -0.68253887 164 152 177
-0.095537499 -0.39011255 -0.68324083 155 136 168
-0.092900388 -0.38909432 -0.68229818 163 155 174
-0.095632002 -0.38926059 -0.68320733 161 141 177
-0.092377253 -0.38908622 -0.68212587 164 157 173
-0.095078431 -0.39102131 -0.68315905 150 131 158
-0.090472668 -0.39132243 -0.68177205 148 126 160
-0.088753037 -0.39246488 -0.68147129 154 137 159
-0.089723729 -0.39189181 -0.68164694 151 131 159
-0.088725194 -0.38985345 -0.68125165 152 125 165
-0.088773593 -0.39173409 -0.68141633 153 133 161
-0.090404376 -0.39150131 -0.68177098 149 127 159
-0.090418786 -0.38884932 -0.68158478 161 146 173
-0.090983547 -0.39136586 -0.68189722 149 131 160
-0.091015965 -0.38949257 -0.6817736 159 147 170
-0.091206618 -0.38888085 -0.68177658 163 154 174
-0.09179423 -0.39033747 -0.68202019 158 148 168
-0.08588279 -0.38874432 -0.68047929 169 155 187
-0.084294654 -0.38959122 -0.68013901 179 174 193
-0.084430479 -0.39018378 -0.68020642 175 165 186
-0.086964458 -0.38956225 -0.68078971 157 128 169
-0.085002638 -0.39137235 -0.68041623 165 143 170
-0.084010556 -0.39042586 -0.68011791 178 170 188
-0.086404003 -0.39128631 -0.68077981 160 137 166
-0.085745104 -0.39214507 -0.68067366 163 142 165
-0.087350816 -0.39033478 -0.68095529 156 130 166
-0.085340731 -0.39193264 -0.68054813 164 142 167
-0.084676132 -0.3925727 -0.68042272 166 147 167
-0.085663743 -0.39198443 -0.68063879 163 142 166
-0.083943777 -0.39110476 -0.6801427 175 164 182
-0.096571356 -0.39345255 -0.68388009 143 121 145
-0.09628275 -0.39317915 -0.6837489 142 119 144
-0.096104048 -0.39502236 -0.68379509 139 115 137
-0.092778713 -0.39506724 -0.68265969 142 124 144
-0.092088647 -0.39297619 -0.68229979 145 127 153
-0.092881471 -0.39437589 -0.68265069 142 124 146
-0.092839643 -0.39378729 -0.68260002 143 124 148
-0.091975883 -0.39445803 -0.68235487 143 127 148
-0.094654858 -0.39544815 -0.68330699 140 118 138
-0.094918512 -0.39506957 -0.6833719 139 117 138
-0.09466818 -0.39523104 -0.68329817 140 118 138
-0.093444481 -0.39288884 -0.68274695 143 123 149
-0.093438424 -0.39268452 -0.68273246 143 123 150
-0.095323823 -0.39520404 -0.68351543 139 116 136
-0.092811301 -0.3935025 -0.68257296 143 125 150
-0.088359334 -0.39506561 -0.68146247 141 119 144
-0.089017034 -0.39531976 -0.68164569 141 121 143
-0.089555532 -0.39636362 -0.68181348 135 115 137
-0.088178635 -0.39596781 -0.68143284 134 110 137
-0.088230297 -0.3942312 -0.6814099 146 126 149
-0.090235956 -0.39301923 -0.68184787 149 133 155
-0.089256182 -0.39307961 -0.68162715 152 136 156
-0.090220042 -0.39475483 -0.68195266 147 132 149
-0.091651097 -0.39263248 -0.68214798 146 129 155
-0.091011286 -0.39470452 -0.68213081 145 130 148
-0.08772523 -0.39631927 -0.68131822 131 105 135
-0.086755596 -0.39641783 -0.68110937 131 108 138
-0.084807396 -0.39646676 -0.6806798 133 114 145
-0.085662797 -0.39498982 -0.68077153 145 123 150
-0.086268924 -0.39584652 -0.68096322 137 114 143
-0.084925041 -0.39501303 -0.68060917 146 125 152
-0.087100774 -0.39373428 -0.6810962 151 131 154
-0.087731406 -0.39312047 -0.68125182 153 135 156
-0.085176937 -0.39307505 -0.68056762 161 141 162
-0.087589741 -0.3937583 -0.68122751 149 129 152
-0.086539015 -0.39452684 -0.6809628 147 125 150
-0.086674333 -0.39307415 -0.68096817 157 138 159
-0.083719604 -0.39432099 -0.68029612 155 136 160
-0.083409145 -0.39591885 -0.68033439 144 125 153
-0.083784826 -0.39634067 -0.68044478 137 119 150
-0.083292559 -0.39337325 -0.68014055 166 147 167
-0.095796116 -0.39733541 -0.68381774 140 118 130
-0.09414006 -0.39936966 -0.68336803 131 112 115
-0.093665645 -0.39978704 -0.68322909 128 109 111
-0.0953696 -0.39814487 -0.68371814 139 119 126
-0.09268593 -0.39964002 -0.68287152 118 97 103
-0.095462099 -0.40038383 -0.68390769 147 132 123
-0.09488865 -0.39833465 -0.68356091 135 115 122
-0.091905452 -0.3989771 -0.68257743 122 104 112
-0.093620881 -0.39701691 -0.68305355 135 116 130
-0.094538718 -0.39702159 -0.68335879 134 113 128
-0.093126491 -0.39830583 -0.68295097 126 106 116
-0.092983887 -0.39769554 -0.68287444 131 112 124
-0.093852602 -0.39738479 -0.68314821 132 112 125
-0.088429809 -0.39760384 -0.68156356 123 98 122
-0.089642085 -0.39985389 -0.68199575 110 88 100
-0.08977291 -0.39978954 -0.68202865 111 89 101
-0.089681357 -0.39951807 -0.68199146 113 90 104
-0.091505274 -0.40026608 -0.68252367 112 91 97
-0.089671679 -0.39974564 -0.68199903 111 89 101
-0.08950264 -0.39804354 -0.68187636 122 99 118
-0.091133423 -0.39840379 -0.68233448 124 106 117
-0.089087553 -0.39668292 -0.68169904 131 109 133
-0.091672048 -0.3993963 -0.6825276 119 100 107
-0.090934977 -0.39922282 -0.68232006 118 97 107
-0.091698781 -0.39670643 -0.68240613 139 125 138
-0.084631443 -0.39924356 -0.68077785 129 108 143
-0.08572606 -0.39990339 -0.68104804 120 98 127
-0.085992806 -0.39876914 -0.68104827 118 97 121
-0.084994823 -0.39942822 -0.68086582 126 105 138
-0.085429549 -0.40000048 -0.68098885 123 100 132
-0.086060904 -0.3996802 -0.68110919 117 95 122
-0.085964337 -0.39650902 -0.68093914 131 110 141
-0.085587285 -0.39729035 -0.68089032 126 106 134
-0.085326619 -0.39651519 -0.6807977 132 112 143
-0.086411901 -0.39803156 -0.68110669 120 99 124
-0.087261401 -0.39773914 -0.68128234 121 98 123
-0.085404634 -0.39739013 -0.6808542 126 106 134
-0.083134405 -0.40015388 -0.68049008 143 124 159
-0.083645321 -0.39884281 -0.6805402 137 118 154
-0.08326149 -0.39867958 -0.6804443 141 124 155
-0.083264172 -0.39873248 -0.68044758 141 124 155
-0.082924917 -0.39764774 -0.68031752 144 128 155
-0.082955256 -0.39755762 -0.68032014 143 127 154
-0.082548469 -0.39668554 -0.68019229 146 128 153
-0.094935805 -0.40282393 -0.68391061 130 108 106
-0.092664443 -0.4004806 -0.68292344 120 100 102
-0.094262771 -0.40284169 -0.68367344 123 100 101
-0.095012285 -0.40150517 -0.68383527 137 119 114
-0.094348222 -0.40148836 -0.68359858 131 111 109
-0.09216138 -0.40255332 -0.68292636 112 93 94
-0.092361182 -0.40340057 -0.68306994 113 93 94
-0.091906741 -0.40411225 -0.68297964 111 93 92
-0.093402125 -0.40365824 -0.68344605 117 94 95
-0.093685657 -0.4028486 -0.68346959 118 94 97
-0.089598946 -0.40406656 -0.68226528 105 86 97
-0.089155741 -0.40229052 -0.68203378 105 84 95
-0.089108728 -0.4030658 -0.6820603 105 84 96
-0.089177489 -0.40355819 -0.68210769 105 84 97
-0.088118292 -0.40255466 -0.6817261 102 80 98
-0.090075172 -0.40087062 -0.68218118 107 86 95
-0.091047086 -0.40215868 -0.68256241 109 90 93
-0.091740161 -0.40372276 -0.68289202 111 93 92
-0.091005698 -0.40271053 -0.6826005 109 90 93
-0.090964481 -0.40118682 -0.68245268 109 89 94
-0.090383701 -0.40039375 -0.68222284 108 87 95
-0.084052436 -0.40328687 -0.68075353 112 89 124
-0.085836425 -0.40253448 -0.68119878 117 95 127
-0.084644519 -0.40121663 -0.6808762 128 106 145
-0.084932081 -0.4022415 -0.68096375 120 97 133
-0.086420923 -0.40333495 -0.68135917 110 88 116
-0.085016958 -0.40414724 -0.6810118 105 82 112
-0.087334037 -0.40046 -0.6814242 107 83 103
-0.087068275 -0.40071273 -0.68138015 109 86 108
-0.086714014 -0.4028632 -0.68141741 112 90 117
-0.084948167 -0.40113387 -0.68094385 126 104 142
-0.087184079 -0.40245923 -0.68149775 108 86 109
-0.083769247 -0.40149924 -0.68066543 127 106 146
-0.083627753 -0.40235624 -0.68064708 121 100 138
-0.08310961 -0.40293074 -0.68054432 120 101 138
-0.083244003 -0.40375841 -0.68058449 113 93 127
-0.082281858 -0.40050957 -0.68031049 150 133 162
-0.080920897 -0.40411294 -0.68009222 123 115 148
-0.08142703 -0.40233096 -0.68016207 138 126 156
-0.081202745 -0.40321997 -0.68013364 130 120 152
-0.092696711 -0.40524623 -0.68330568 112 89 89
-0.092824042 -0.40606701 -0.68338889 111 84 87
-0.092049822 -0.40568709 -0.68312836 109 85 88
-0.092166223 -0.40668279 -0.68322998 108 78 86
-0.088965222 -0.40768391 -0.68230832 102 77 90
-0.088653088 -0.4067854 -0.6821512 102 78 93
-0.08831542 -0.40611318 -0.68200153 101 79 96
-0.090497382 -0.40808836 -0.68280935 103 71 85
-0.089152664 -0.40629208 -0.68227249 102 76 93
-0.089962728 -0.40667814 -0.68254906 103 73 91
-0.090085723 -0.40551955 -0.68250978 105 79 93
-0.090902217 -0.40724775 -0.68287796 104 70 87
-0.091407716 -0.40686509 -0.68300927 106 74 87
-0.09125945 -0.40656373 -0.68294322 106 76 88
-0.089139923 -0.40494385 -0.68217826 103 80 97
-0.090582758 -0.40531605 -0.68265039 106 82 92
-0.08446303 -0.407599 -0.68107802 103 79 93
-0.086126998 -0.40729949 -0.68149453 102 81 95
-0.084709182 -0.40779182 -0.68115425 102 79 92
-0.085185409 -0.40666422 -0.68120939 103 80 99
-0.084357649 -0.40621307 -0.68096536 103 80 101
-0.085325487 -0.40803659 -0.68133032 102 80 90
-0.087130368 -0.4068909 -0.68172836 101 81 97
-0.085924953 -0.40599558 -0.68136019 103 81 103
-0.086166896 -0.40470213 -0.68133485 103 81 106
-0.08768896 -0.4061245 -0.68181944 101 81 97
-0.086678095 -0.40558434 -0.68152481 102 81 102
-0.082090504 -0.40490249 -0.68037844 111 94 125
-0.081243671 -0.40598923 -0.68025661 110 91 117
-0.080912031 -0.40540034 -0.68015379 115 101 130
-0.080086 -0.40811557 -0.68012494 105 79 97
-0.082369588 -0.40584338 -0.68048918 105 80 107
-0.080513895 -0.40808994 -0.68021721 104 79 95
-0.083673514 -0.40464404 -0.68070281 104 80 112
-0.081319354 -0.40754431 -0.68036145 104 79 97
-0.082288019 -0.40775946 -0.68058842 104 79 94
-0.083584026 -0.40663797 -0.68080556 104 79 99
-0.079963364 -0.40803796 -0.68009049 107 81 100
-0.093419999 -0.41095692 -0.68379861 129 111 105
-0.092537552 -0.40888116 -0.6834653 112 78 88
-0.093140677 -0.40962812 -0.68367201 119 91 94
-0.093300715 -0.41089338 -0.6837604 128 109 105
-0.092443265 -0.40982378 -0.6834628 117 91 94
-0.092257142 -0.40936899 -0.68339288 114 84 91
-0.092126831 -0.41105625 -0.68339062 122 105 98
-0.089568175 -0.40997407 -0.6825707 112 97 95
-0.091423266 -0.41191676 -0.68318939 125 114 100
-0.088682055 -0.40999073 -0.68229419 111 91 89
-0.088479467 -0.40972742 -0.68222564 109 89 89
-0.090559624 -0.40867519 -0.68284732 106 77 87
-0.091780722 -0.40887788 -0.68322968 108 75 86
-0.08905454 -0.40927321 -0.68239582 108 91 93
-0.09158913 -0.40918425 -0.68317759 110 80 88
-0.089130484 -0.40834543 -0.68239766 103 79 89
-0.084484637 -0.41110846 -0.68125284 104 69 73
-0.084413297 -0.4093048 -0.68114495 104 77 83
-0.086226702 -0.41162601 -0.68168128 112 80 74
-0.085576393 -0.4103201 -0.68146497 109 81 80
-0.08518669 -0.4096497 -0.68134093 108 81 83
-0.085390784 -0.40981811 -0.68139666 109 82 83
-0.087257937 -0.41028282 -0.68188763 111 86 82
-0.086217247 -0.40897149 -0.68158913 105 82 87
-0.087363049 -0.41033506 -0.68191612 111 86 82
-0.085948654 -0.40956616 -0.68153095 108 83 84
-0.087080002 -0.41012907 -0.68183798 110 85 83
-0.083025686 -0.41151023 -0.6809389 102 64 72
-0.081462346 -0.41048932 -0.68053114 103 71 83
-0.080277197 -0.41095844 -0.68025994 104 74 88
-0.081015475 -0.41077378 -0.68043214 104 72 85
-0.081866853 -0.41045484 -0.68062752 103 70 81
-0.082773767 -0.41128904 -0.68087149 102 65 74
-0.082372889 -0.40957761 -0.68070412 103 72 83
-0.08283034 -0.41080391 -0.6808672 102 67 75
-0.083257012 -0.41081145 -0.68096179 102 66 74
-0.083500333 -0.40951729 -0.68094987 102 72 82
-0.083433285 -0.41033366 -0.68097645 102 69 77
-0.080006778 -0.40867791 -0.68012571 105 79 95
-0.079919487 -0.40860534 -0.68010187 106 80 97
-0.093920231 -0.41328916 -0.68397337 148 137 128
-0.093174882 -0.41223454 -0.68374783 135 126 111
-0.091518253 -0.41277441 -0.68322957 131 118 107
-0.081042819 -0.38470763 -0.67916596 177 156 175
-0.083428703 -0.3847481 -0.67970413 196 179 190
-0.083745711 -0.38462949 -0.67976618 197 181 191
-0.08265771 -0.38359708 -0.67944372 180 162 176
-0.08085449 -0.38459855 -0.67911541 174 153 173
-0.082362913 -0.38313383 -0.67934215 173 155 171
-0.077515811 -0.38355091 -0.67840117 169 154 174
-0.077470347 -0.38325202 -0.67837423 168 153 172
-0.078279167 -0.38424948 -0.67858672 171 154 175
-0.084409244 -0.38582316 -0.67997152 193 181 195
-0.084306598 -0.38744491 -0.68002963 187 183 199
-0.082428627 -0.38763076 -0.67964429 181 175 192
-0.08038047 -0.38839796 -0.67938703 184 174 182
-0.080394484 -0.38835016 -0.67938429 184 174 182
-0.081185929 -0.38796809 -0.67947465 182 174 185
-0.08099062 -0.38801098 -0.67944694 183 174 184
-0.080268666 -0.3868762 -0.67920804 178 163 177
-0.081774831 -0.38485509 -0.67933869 183 164 180
-0.081688613 -0.38613191 -0.67937851 177 164 183
-0.081798613 -0.38533926 -0.67936641 181 164 182
-0.083742283 -0.38782573 -0.67991757 186 185 201
-0.082297042 -0.38514021 -0.67946899 186 169 184
-0.08084289 -0.38520995 -0.67914617 174 155 175
-0.077831134 -0.3873364 -0.67877185 184 173 185
-0.078413174 -0.388026 -0.678949 185 175 184
-0.077568606 -0.38769567 -0.67873722 185 174 186
-0.078365043 -0.3859033 -0.67875469 178 164 181
-0.079087436 -0.38543019 -0.67883945 174 157 176
-0.078130044 -0.38543567 -0.67866158 176 162 181
-0.079787113 -0.38683221 -0.67911774 179 164 177
-0.078285247 -0.38656482 -0.67880964 181 169 183
-0.082374327 -0.39160785 -0.679847 177 169 189
-0.081930049 -0.39170969 -0.67976213 177 171 191
-0.082470886 -0.3913922 -0.67985457 177 171 190
-0.083013207 -0.3908377 -0.6799342 178 173 191
-0.081685871 -0.39174888 -0.6797145 178 172 192
-0.080642425 -0.38962948 -0.67947561 183 177 188
-0.080557689 -0.3911652 -0.67948794 180 176 193
-0.080780588 -0.39096582 -0.67952132 181 177 194
-0.080134921 -0.39033452 -0.6794039 182 175 187
-0.080618232 -0.38970673 -0.67947292 183 177 188
-0.077795796 -0.39197409 -0.6789366 191 184 211
-0.079369254 -0.39227849 -0.67927521 181 177 199
-0.078510426 -0.39214233 -0.67909133 186 181 206
-0.076338664 -0.3921361 -0.67863744 201 192 227
-0.07750833 -0.39167997 -0.67886698 191 184 210
-0.078507997 -0.38959354 -0.6790297 185 176 188
-0.079635419 -0.39127582 -0.67931139 181 175 192
-0.079881176 -0.38967738 -0.67933911 184 175 185
-0.078681692 -0.38954297 -0.67906773 185 176 187
-0.079488121 -0.39130411 -0.67927885 181 175 192
-0.074486047 -0.39195129 -0.67826533 218 210 237
-0.073771328 -0.39179713 -0.67811233 225 217 239
-0.073937051 -0.39113402 -0.67817253 219 209 235
-0.073262423 -0.39236623 -0.67797941 233 228 243
-0.073465794 -0.39112678 -0.67806828 224 215 237
-0.075704537 -0.39210552 -0.67852968 206 196 233
-0.072939962 -0.38887057 -0.67799914 217 203 226
-0.076129861 -0.39209056 -0.67859465 202 193 228
-0.073573202 -0.38966063 -0.67812228 214 202 228
-0.069703318 -0.39223453 -0.67736733 245 242 245
-0.071030878 -0.39189142 -0.67753434 242 238 244
-0.068574399 -0.39156023 -0.67716652 242 237 241
-0.070125774 -0.39230374 -0.6774314 245 242 245
-0.069703527 -0.39135629 -0.67731386 240 234 241
-0.070033476 -0.39240277 -0.67742431 246 243 246
-0.071939178 -0.38944772 -0.67778391 227 215 234
-0.072110385 -0.39131114 -0.67775875 238 231 242
-0.071001247 -0.39055189 -0.67752182 235 226 238
-0.071174599 -0.38931975 -0.67760658 227 215 233
-0.068082251 -0.39115116 -0.67708057 239 234 239
-0.067435466 -0.39130163 -0.67701852 238 234 240
-0.080413014 -0.39284742 -0.67951781 175 170 191
-0.082310162 -0.39481187 -0.68002498 160 142 164
-0.081514552 -0.39461169 -0.67985052 163 149 171
-0.081925996 -0.39372018 -0.67987978 167 154 174
-0.082452148 -0.39340484 -0.67996782 168 153 173
-0.080975115 -0.39549237 -0.67978966 162 147 167
-0.08083152 -0.39526537 -0.67974627 164 149 169
-0.076903954 -0.3941775 -0.67883146 190 173 211
-0.078391783 -0.39575529 -0.67922926 176 154 182
-0.076252259 -0.39390561 -0.67866671 193 176 219
-0.076867618 -0.39615521 -0.6788677 175 145 190
-0.079010472 -0.39590001 -0.6793831 174 153 176
-0.077890359 -0.39606744 -0.67911446 174 148 183
-0.078148872 -0.39316577 -0.67906356 189 180 209
-0.07785625 -0.39422756 -0.67906308 188 174 203
-0.079009138 -0.39530519 -0.67936546 178 161 182
-0.078853317 -0.39437976 -0.67927998 181 168 192
-0.078553222 -0.39382857 -0.67918587 184 174 199
-0.079340376 -0.39558169 -0.67945039 175 158 177
-0.073919959 -0.39594981 -0.67821604 201 189 221
-0.072605588 -0.39469603 -0.67789686 225 223 239
-0.072271213 -0.39550978 -0.67785567 222 226 242
-0.073184311 -0.39509451 -0.67803198 216 209 231
-0.074832924 -0.39527819 -0.67838329 197 173 210
-0.073298573 -0.39426327 -0.67802656 221 211 232
-0.075067356 -0.39302415 -0.67838228 212 202 233
-0.07533028 -0.39354843 -0.67845249 205 191 226
-0.07541319 -0.39446938 -0.67849183 197 177 216
-0.074707791 -0.39487636 -0.67834473 202 180 214
-0.074465998 -0.39267963 -0.67824107 221 214 239
-0.075374097 -0.39315844 -0.67845333 208 196 230
-0.068487003 -0.39410621 -0.67725289 247 245 245
-0.070439897 -0.39491618 -0.67757195 230 233 243
-0.069144145 -0.39596725 -0.67739683 242 241 244
-0.069206469 -0.39533722 -0.67739195 241 240 244
-0.069014147 -0.39407361 -0.67733324 242 242 245
-0.069224656 -0.39487991 -0.6773842 241 240 244
-0.072223112 -0.396274 -0.67787552 216 222 241
-0.069445707 -0.39282906 -0.67736071 245 244 246
-0.069842689 -0.39326906 -0.67743236 241 241 245
-0.070668362 -0.39381856 -0.67756867 236 237 244
-0.072101459 -0.39460176 -0.67779922 230 231 244
-0.067196622 -0.39573094 -0.67714393 239 234 238
-0.067313962 -0.39533028 -0.67714047 238 232 237
-0.067725934 -0.39380875 -0.67715311 241 238 240
-0.067780331 -0.39350823 -0.67715245 242 239 241
-0.081290387 -0.39892963 -0.68001813 159 144 163
-0.081449643 -0.39862451 -0.68003881 158 141 161
-0.081163831 -0.39921728 -0.68000364 160 145 164
-0.080555148 -0.39894873 -0.67985588 166 151 166
-0.080229498 -0.39961457 -0.67980176 170 159 168
-0.077351607 -0.39767748 -0.67903525 173 146 185
-0.076764286 -0.39877614 -0.67899656 175 153 185
-0.076520838 -0.39897475 -0.67896152 175 154 185
-0.078446075 -0.39981851 -0.67941719 174 160 177
-0.078438543 -0.39904475 -0.67935848 173 155 179
-0.078236878 -0.39659199 -0.67921203 170 144 176
-0.078212395 -0.39796674 -0.67925429 172 150 179
-0.079654589 -0.39713401 -0.6795758 169 149 166
-0.079189703 -0.39783165 -0.67948723 171 151 171
-0.078655556 -0.39683467 -0.67932236 170 146 173
-0.079805493 -0.39744374 -0.67962343 169 151 166
-0.073625833 -0.40018159 -0.67845351 189 174 206
-0.072551623 -0.39960149 -0.67818731 197 184 218
-0.074323028 -0.39921364 -0.67852306 191 182 206
-0.074277624 -0.39866284 -0.67847139 194 189 210
-0.073776111 -0.39923146 -0.67841154 193 184 211
-0.074273355 -0.39653629 -0.67831272 193 179 215
-0.07514675 -0.39913547 -0.67868769 186 176 199
-0.074363962 -0.39667648 -0.67834204 193 178 214
-0.07577531 -0.39754418 -0.6787014 178 153 194
-0.07508526 -0.39737841 -0.67854482 186 167 203
-0.068724521 -0.39768609 -0.67742282 237 233 241
-0.069869943 -0.39888382 -0.67769015 221 213 232
-0.068712197 -0.39961755 -0.67753738 224 220 236
-0.069029555 -0.39993173 -0.6776104 219 214 233
-0.071714088 -0.40036154 -0.67809325 198 183 218
-0.070947878 -0.39932242 -0.67790008 210 198 225
-0.071651265 -0.39716062 -0.67784643 216 217 237
-0.070610516 -0.39854872 -0.67779285 218 208 229
-0.071093 -0.39779499 -0.67780924 218 213 234
-0.072247177 -0.39670673 -0.67790318 213 218 239
-0.070167743 -0.39722472 -0.67762309 229 226 238
-0.071017861 -0.39655507 -0.67770243 225 228 242
-0.066747136 -0.39984462 -0.67728996 226 221 236
-0.067443296 -0.40011653 -0.67739165 223 220 236
-0.066674784 -0.40012947 -0.67728508 225 222 237
-0.068261132 -0.39664114 -0.677288 247 244 245
-0.06725657 -0.39670998 -0.67719495 244 237 242
-0.067968957 -0.39747167 -0.67730987 240 236 242
-0.080697492 -0.40275455 -0.6800034 140 132 156
-0.080621257 -0.40117991 -0.6799432 158 149 165
-0.080603756 -0.40411162 -0.68002379 125 118 151
-0.077236086 -0.40220037 -0.67925769 161 151 174
-0.076676771 -0.40132558 -0.67912066 169 157 179
-0.077989809 -0.40396205 -0.67945021 149 142 167
-0.076964244 -0.40262559 -0.67920262 163 153 175
-0.076597646 -0.40160576 -0.67910671 169 158 179
-0.077213436 -0.40084535 -0.67922282 170 158 178
-0.079120114 -0.40255052 -0.67966861 147 139 165
-0.079334967 -0.40306622 -0.67972958 140 133 163
-0.0796398 -0.40357074 -0.67980844 134 128 160
-0.0787386 -0.4023357 -0.67958355 150 141 167
-0.07395146 -0.40300989 -0.6785965 182 170 194
-0.075768486 -0.40403378 -0.67896479 172 163 179
-0.073654205 -0.40369225 -0.67856973 182 171 193
-0.072820537 -0.40187067 -0.67834741 189 174 206
-0.072861195 -0.40375733 -0.67842913 186 174 198
-0.07304766 -0.40091327 -0.67835736 189 174 208
-0.075808875 -0.40172175 -0.67893815 176 163 184
-0.075186707 -0.40047258 -0.67879283 181 166 191
-0.073881462 -0.40184918 -0.67854214 184 170 199
-0.075808547 -0.4017821 -0.67893887 176 163 184
-0.06899672 -0.4025301 -0.67768455 193 185 209
-0.068787999 -0.40288499 -0.67765093 187 177 204
-0.069202103 -0.40135947 -0.67770296 212 207 226
-0.070315436 -0.40305176 -0.67794669 194 185 208
-0.068537742 -0.40385056 -0.67762029 171 158 189
-0.071650416 -0.40297809 -0.67818624 194 183 208
-0.070476927 -0.40112841 -0.67791355 205 196 222
-0.070489429 -0.40195724 -0.67794836 203 196 218
-0.070155166 -0.40183407 -0.67788661 206 199 220
-0.071665831 -0.40329057 -0.67820114 193 183 207
-0.065407336 -0.40175426 -0.67715985 210 202 220
-0.067377388 -0.40338403 -0.67744488 180 167 196
-0.06524381 -0.40240112 -0.67719191 204 195 213
-0.064744011 -0.40157107 -0.67708993 216 209 224
-0.065928333 -0.40232298 -0.67724502 200 191 212
-0.067148238 -0.40376911 -0.67745262 177 164 192
-0.0664948 -0.40040913 -0.67726511 225 222 237
-0.068106882 -0.40393162 -0.6775524 169 156 188
-0.067763828 -0.40183973 -0.67746723 201 194 216
-0.065493032 -0.40106133 -0.67713761 218 212 229
-0.068010025 -0.40053353 -0.67747802 219 217 234
-0.062768489 -0.40319905 -0.67704904 204 192 210
-0.063136928 -0.4026852 -0.67706782 207 196 211
-0.064198099 -0.40273181 -0.67713279 205 196 211
-0.064362705 -0.40318379 -0.67717451 201 190 206
-0.08041022 -0.40453896 -0.68000281 122 115 148
-0.07761576 -0.40808231 -0.67952853 130 108 136
-0.077626273 -0.40774545 -0.67951339 132 111 141
-0.079898939 -0.4066003 -0.67999947 115 97 123
-0.077452585 -0.40719387 -0.67944288 137 119 152
-0.080030337 -0.40443465 -0.67991769 124 119 154
-0.077451795 -0.40466514 -0.67934757 152 144 167
-0.079593845 -0.40434712 -0.67981547 130 124 158
-0.076540552 -0.40464121 -0.67914283 163 154 172
-0.076782972 -0.40474394 -0.67920071 160 151 170
-0.076862015 -0.40730387 -0.67931014 142 125 157
-0.07511045 -0.40809411 -0.67900932 157 139 166
-0.074362427 -0.40686774 -0.67882186 165 149 175
-0.073105402 -0.40544817 -0.67854124 179 166 189
-0.07294222 -0.40448645 -0.6784718 183 172 194
-0.074552797 -0.40610614 -0.67882061 165 150 177
-0.075479224 -0.40718424 -0.67902648 154 136 166
-0.07498201 -0.40529832 -0.67886913 169 156 178
-0.073229894 -0.40510628 -0.67854595 178 165 190
-0.069692999 -0.40593615 -0.67793453 175 161 185
-0.069416292 -0.40732944 -0.67794025 185 165 187
-0.071880609 -0.40491888 -0.67830241 186 175 196
-0.071096979 -0.40564069 -0.67819077 182 170 191
-0.070155248 -0.40587834 -0.67802298 176 164 186
-0.071787186 -0.40522677 -0.67830092 186 174 195
-0.069342807 -0.40456921 -0.67779714 170 156 186
-0.064794935 -0.40471369 -0.67730457 189 175 193
-0.065652832 -0.40490803 -0.67738885 185 169 190
-0.067989789 -0.40547797 -0.67761433 174 155 185
-0.06773819 -0.4049311 -0.67756867 172 155 185
-0.06583783 -0.40520915 -0.67741799 186 169 190
-0.079551622 -0.40970999 -0.68004799 109 82 100
-0.078193136 -0.40975863 -0.6797232 123 98 121
-0.079545587 -0.41035375 -0.68006706 109 81 99
-0.079334363 -0.41192651 -0.68006653 110 81 98
-0.077580579 -0.4088766 -0.67954791 130 106 133
-0.077091418 -0.40939432 -0.67944723 134 111 139
-0.076417282 -0.40969798 -0.67930025 138 119 149
-0.077199467 -0.41061023 -0.67951703 130 108 135
-0.076181322 -0.41149545 -0.67931074 134 119 148
-0.076165631 -0.41179505 -0.67931849 134 119 147
-0.077073574 -0.4132179 -0.67955929 121 103 129
-0.077568911 -0.41292238 -0.67967093 119 98 122
-0.07856115 -0.41266164 -0.67989963 113 87 108
-0.076896332 -0.41430876 -0.67957652 110 84 113
-0.076259159 -0.41562453 -0.67952114 95 57 93
-0.076722413 -0.41461736 -0.67955893 106 77 108
-0.076875567 -0.4150613 -0.67960978 101 70 101
-0.075855017 -0.41477627 -0.6794138 109 78 110
-0.076528504 -0.41615602 -0.67959499 92 52 87
-0.10742959 -0.38457268 -0.68781114 171 152 161
-0.10574409 -0.38440257 -0.68698037 166 148 160
-0.10602783 -0.38651684 -0.68727601 171 158 165
-0.10717675 -0.38856176 -0.68786788 175 188 158
-0.10671445 -0.38824859 -0.68764931 174 181 160
-0.10602497 -0.38814771 -0.68733728 173 174 163
-0.10671696 -0.38549766 -0.68754494 172 154 164
-0.1055098 -0.38686344 -0.68705779 171 157 167
-0.1053725 -0.38572457 -0.68691635 168 151 164
-0.10680246 -0.3850995 -0.68755835 171 152 163
-0.10489002 -0.38528571 -0.6866532 165 149 162
-0.10446676 -0.38657016 -0.68654203 167 152 166
-0.10578993 -0.3854146 -0.68709463 168 151 163
-0.10416564 -0.38712567 -0.68643713 167 153 167
-0.10000684 -0.3881945 -0.68475646 155 137 158
-0.10037693 -0.38793093 -0.68488395 158 140 159
-0.10057086 -0.38730785 -0.68490672 160 143 159
-0.10087474 -0.3865912 -0.68496591 163 147 159
-0.10135458 -0.38866064 -0.68535042 160 144 163
-0.099799208 -0.38773236 -0.68462944 156 137 156
-0.10279373 -0.38682172 -0.68579394 165 151 165
-0.10256872 -0.38683251 -0.68569833 165 151 164
-0.10350648 -0.38715342 -0.68612307 165 152 167
-0.099314556 -0.38854104 -0.68451685 154 134 159
-0.099258967 -0.38772237 -0.68442202 156 137 158
-0.098434359 -0.38818955 -0.68416125 158 139 165
-0.098721966 -0.38504538 -0.6840027 165 147 157
-0.10577367 -0.38888705 -0.68726212 172 175 163
-0.1055102 -0.39098084 -0.68731034 167 151 160
-0.1054895 -0.38974452 -0.68720311 170 164 162
-0.10522847 -0.38869414 -0.68700314 172 172 165
-0.10488952 -0.3902446 -0.68697459 167 153 164
-0.10366408 -0.39198986 -0.68653905 164 157 179
-0.10424366 -0.3915875 -0.68677592 165 154 172
-0.1039549 -0.39186311 -0.68666321 164 155 176
-0.10430729 -0.39120364 -0.68677783 165 154 171
-0.10219595 -0.39249542 -0.68600106 162 152 176
-0.09994828 -0.39031985 -0.68492889 156 138 161
-0.09969724 -0.39071503 -0.68487203 157 138 161
-0.10026444 -0.39157489 -0.68517327 159 142 165
-0.099661119 -0.39044631 -0.6848318 157 137 160
-0.10094078 -0.39089301 -0.68536419 158 143 167
-0.10231217 -0.39035118 -0.68586242 161 150 171
-0.10206965 -0.3903195 -0.68576086 160 148 170
-0.10312764 -0.38962737 -0.68614483 165 155 172
-0.10182841 -0.38940269 -0.68559718 160 147 167
-0.10095756 -0.38876936 -0.68519586 158 141 162
-0.1024735 -0.38884482 -0.68582165 164 151 168
-0.098968811 -0.39011803 -0.68452722 152 132 156
-0.099428624 -0.39216936 -0.68491066 160 139 163
-0.099602669 -0.39147067 -0.68491036 159 139 162
-0.0981405 -0.39146399 -0.6843335 151 130 154
-0.097619109 -0.39123234 -0.68411213 149 129 154
-0.09871199 -0.38892597 -0.68432772 155 135 161
-0.10476432 -0.39260361 -0.68708557 163 152 170
-0.10364416 -0.39384145 -0.68666863 166 157 178
-0.10362557 -0.39463708 -0.68672705 168 157 176
-0.10298476 -0.39618108 -0.68660533 170 153 168
-0.1027631 -0.39617065 -0.68651718 168 150 166
-0.10056879 -0.39453718 -0.68553746 159 137 160
-0.10145953 -0.3946642 -0.68589771 166 147 166
-0.10271806 -0.39584118 -0.68647635 169 152 168
-0.10335278 -0.39286089 -0.68647414 163 157 180
-0.10345971 -0.39444268 -0.68664575 167 157 176
-0.10210288 -0.39295194 -0.68600464 163 152 174
-0.10145472 -0.39417395 -0.68585831 166 149 168
-0.10213428 -0.3942264 -0.686122 166 151 170
-0.10257469 -0.39543152 -0.68638974 170 153 169
-0.097772025 -0.39526439 -0.68447125 146 122 144
-0.097085811 -0.39564145 -0.68422168 143 119 140
-0.099017143 -0.39445201 -0.68491501 151 127 152
-0.098601751 -0.39510092 -0.68479341 148 122 148
-0.09933272 -0.3955569 -0.68511915 146 117 147
-0.097752109 -0.39306793 -0.68432122 150 129 153
-0.097607598 -0.39311019 -0.68426692 149 128 152
-0.097416878 -0.39415184 -0.68425769 147 125 147
-0.097160228 -0.39489627 -0.68420362 145 122 143
-0.10372216 -0.39967552 -0.68707132 143 122 151
-0.10367719 -0.39942545 -0.68704021 145 125 152
-0.10200654 -0.39890099 -0.68635046 137 111 144
-0.10119903 -0.39872909 -0.68603659 141 114 146
-0.10192829 -0.39950186 -0.68636006 140 116 147
-0.1033685 -0.3986043 -0.68687385 151 131 155
-0.10199286 -0.39656672 -0.68623894 160 137 158
-0.10301419 -0.39845672 -0.6867274 149 128 153
-0.10074872 -0.39702034 -0.68576878 145 116 147
-0.10243769 -0.39919433 -0.68653345 138 113 145
-0.10232949 -0.39846954 -0.68645799 144 120 149
-0.096914232 -0.39673257 -0.68422872 140 114 135
-0.096588306 -0.3993319 -0.68427646 147 128 129
-0.098013058 -0.39681056 -0.68467581 141 113 138
-0.09707655 -0.39663386 -0.68428719 140 113 135
-0.096954301 -0.4002862 -0.68448502 151 134 136
-0.096663184 -0.40071201 -0.68438464 148 129 130
-0.096541479 -0.40074882 -0.6843372 147 128 128
-0.095511921 -0.40159255 -0.68401915 141 123 117
-0.096046641 -0.41136432 -0.68465024 144 122 120
-0.095106713 -0.41086265 -0.68431234 135 111 107
-0.094680719 -0.41177163 -0.68421203 139 124 115
-0.095903814 -0.41346693 -0.68458956 157 143 139
-0.0960375 -0.4147096 -0.68461066 168 158 152
-0.09678705 -0.41447851 -0.68493903 162 149 151
-0.094497956 -0.41563386 -0.68411529 169 158 156
-0.094929762 -0.41484842 -0.68425465 165 153 150
-0.094995774 -0.4129132 -0.68431336 149 134 129
-0.095199101 -0.41300398 -0.68437576 151 134 132
-0.094422944 -0.41284591 -0.68413538 146 134 126
0 0 0 1 0 0 0 1 0 0 0 1 0 0 0 0 0 700 1 0 0
