ply
format ascii 1.0
comment PCL generated
element vertex 649
property float x
property float y
property float z
property uchar red
property uchar green
property uchar blue
element camera 1
property float view_px
property float view_py
property float view_pz
property float x_axisx
property float x_axisy
property float x_axisz
property float y_axisx
property float y_axisy
property float y_axisz
property float z_axisx
property float z_axisy
property float z_axisz
property float focal
property float scalex
property float scaley
property float centerx
property float centery
property int viewportx
property int viewporty
property float k1
property float k2
end_header
-0.14722441 -0.50570691 -0.72668618 130 115 123
-0.14703523 -0.50715792 -0.72668016 131 114 133
-0.14335056 -0.52518052 -0.7250489 227 217 229
-0.14279871 -0.52527696 -0.7247321 225 214 229
-0.14419276 -0.52525651 -0.72554338 232 225 232
-0.14418723 -0.52898395 -0.72583938 199 186 204
-0.14515711 -0.52700722 -0.72626346 222 214 220
-0.14550096 -0.52653384 -0.72642249 229 223 226
-0.14587195 -0.52638251 -0.72660768 234 229 231
-0.14394127 -0.52832931 -0.72568786 201 186 202
-0.14423844 -0.52780151 -0.72582078 207 194 207
-0.14612392 -0.5255993 -0.72669727 242 240 237
-0.14320755 -0.52762729 -0.72521287 203 187 204
-0.1444812 -0.52650589 -0.72583616 223 213 221
-0.14302912 -0.527771 -0.72512412 200 184 202
-0.144234 -0.52600676 -0.72563922 227 218 227
-0.14472263 -0.5258199 -0.72590417 232 225 230
-0.14466456 -0.5298683 -0.72615904 200 189 207
-0.14562806 -0.52998978 -0.72666818 209 203 219
-0.14484154 -0.53025198 -0.72629189 200 189 207
-0.14575282 -0.53164333 -0.72691238 205 196 210
-0.14453776 -0.52980834 -0.72608727 199 187 205
-0.14615791 -0.52937448 -0.72687393 217 215 230
-0.14503554 -0.53369594 -0.72681409 193 178 193
-0.14284056 -0.5385235 -0.72656542 174 156 188
-0.14370213 -0.53765023 -0.72680527 184 167 192
-0.1436407 -0.53873605 -0.7269327 182 165 192
-0.14176378 -0.54097247 -0.72647995 170 152 188
-0.14173536 -0.53882921 -0.72614712 175 159 189
-0.14240192 -0.53863013 -0.72640043 172 154 188
-0.14101557 -0.53927886 -0.72590756 178 163 191
-0.14107676 -0.53873932 -0.72585547 178 164 190
-0.14190258 -0.54189336 -0.72670823 169 150 187
-0.14193316 -0.54169154 -0.72668934 170 151 187
-0.16557898 -0.52087581 -0.74249405 153 136 156
-0.16548043 -0.52078116 -0.74242091 154 137 156
-0.16466831 -0.52013791 -0.74176085 157 140 159
-0.16507034 -0.52011687 -0.74222988 157 140 159
-0.16353786 -0.52063322 -0.74056453 156 139 159
-0.16312169 -0.52107042 -0.7400735 154 137 158
-0.16321295 -0.52147371 -0.74006885 153 136 156
-0.16473036 -0.52108067 -0.74158889 153 136 156
-0.16359586 -0.52113491 -0.74050635 154 137 157
-0.16304363 -0.52036464 -0.74015868 157 141 160
-0.16428447 -0.52092254 -0.74120378 154 137 157
-0.16167666 -0.51959491 -0.73907298 160 143 163
-0.16694492 -0.52464384 -0.74252737 141 120 144
-0.16698386 -0.52494335 -0.74246204 140 118 143
-0.16327749 -0.52379823 -0.73939979 144 124 149
-0.16589475 -0.52531689 -0.74130291 136 111 142
-0.16467136 -0.52507466 -0.74027765 138 115 143
-0.16360348 -0.5234192 -0.7398017 145 125 150
-0.16243613 -0.52204704 -0.73915452 151 133 155
-0.16429989 -0.52523923 -0.73989719 137 115 143
-0.16413656 -0.52345651 -0.74027091 144 123 149
-0.16493163 -0.52390003 -0.74087107 142 120 147
-0.1652796 -0.52247095 -0.74168259 147 128 151
-0.16540726 -0.52366316 -0.74139988 143 121 147
-0.16593058 -0.52402157 -0.74177247 141 119 146
-0.1638891 -0.52174228 -0.74061716 151 134 155
-0.16516392 -0.52277005 -0.7414723 146 127 150
-0.16818345 -0.52826422 -0.74228173 161 137 151
-0.16699745 -0.52668405 -0.74179697 147 122 146
-0.16711679 -0.52552634 -0.74238044 140 117 142
-0.16615772 -0.52688301 -0.74104482 144 122 146
-0.16640548 -0.5285669 -0.74072725 155 136 151
-0.16630392 -0.52783686 -0.7408697 150 130 149
-0.16748661 -0.528938 -0.74149936 162 141 152
-0.16666308 -0.52866656 -0.74090773 157 137 151
-0.1658949 -0.52667433 -0.74090302 143 120 145
-0.16522346 -0.52773798 -0.74007457 148 129 150
-0.16575319 -0.52872604 -0.74016303 154 136 152
-0.16469978 -0.52681643 -0.73988283 144 124 148
-0.16413578 -0.52848732 -0.73899269 152 136 154
-0.16540834 -0.52566743 -0.74078208 137 114 143
-0.16375625 -0.52561307 -0.73931509 138 117 144
-0.16351892 -0.52701759 -0.73877895 145 128 149
-0.1689 -0.53049141 -0.74217278 172 155 159
-0.1686085 -0.53075302 -0.74185151 171 156 160
-0.16932005 -0.53069776 -0.74245256 174 157 160
-0.16647702 -0.52931887 -0.74055326 159 142 153
-0.16694397 -0.53006899 -0.74069458 163 148 156
-0.16776939 -0.53097153 -0.74107438 168 155 160
-0.16653247 -0.53023422 -0.7403236 160 145 154
-0.16632596 -0.53078985 -0.74001718 157 143 153
-0.1669324 -0.53106034 -0.74040639 161 148 156
-0.16674455 -0.53122008 -0.74022043 159 146 155
-0.16744809 -0.53160882 -0.74065191 164 153 158
-0.16735657 -0.53265756 -0.74030054 161 151 157
-0.16601416 -0.53254688 -0.739308 150 139 150
-0.16528253 -0.53014815 -0.73941904 155 140 154
-0.1653161 -0.53299439 -0.7387172 148 138 151
-0.16537228 -0.53189003 -0.73904097 151 139 152
-0.16573943 -0.53356326 -0.73889309 147 135 148
-0.15831938 -0.51287001 -0.73716849 162 142 166
-0.15827088 -0.51285851 -0.73712361 162 141 166
-0.15695444 -0.51219261 -0.73598832 161 145 168
-0.15639669 -0.51295996 -0.73540258 156 142 164
-0.15684411 -0.51192117 -0.73591489 162 147 169
-0.15953332 -0.51447004 -0.73809075 163 144 166
-0.1588621 -0.51411933 -0.73751897 160 140 164
-0.15871049 -0.51431292 -0.73733824 159 139 163
-0.15976547 -0.51697278 -0.73784983 162 143 163
-0.1586711 -0.51447529 -0.73727119 159 138 163
-0.15931691 -0.51629025 -0.73755246 161 141 162
-0.15993996 -0.51712167 -0.73798603 162 143 163
-0.15860121 -0.51678509 -0.73679864 161 140 160
-0.15771139 -0.5160076 -0.73618573 159 139 161
-0.15773888 -0.51719224 -0.73599803 161 139 160
-0.15722239 -0.51616067 -0.73578155 159 139 162
-0.15601747 -0.51378161 -0.73497355 152 138 162
-0.15614681 -0.51440954 -0.73502511 154 139 162
-0.15774694 -0.51372272 -0.73655599 156 137 162
-0.15698858 -0.51567364 -0.73565865 158 139 163
-0.15705383 -0.51430142 -0.73586315 156 138 162
-0.1594097 -0.51779276 -0.73736459 162 142 161
-0.15986155 -0.51937258 -0.7374385 158 138 158
-0.15943898 -0.51815158 -0.73731309 161 141 160
-0.15944685 -0.5188657 -0.7371636 159 139 158
-0.15869763 -0.51782477 -0.73669446 161 140 159
-0.15906546 -0.52016038 -0.73663026 157 138 159
-0.15859026 -0.520051 -0.73623955 157 139 159
-0.15821077 -0.52125275 -0.73572928 156 139 159
-0.16134639 -0.52144575 -0.73838842 154 137 158
-0.16013381 -0.52090472 -0.73743182 155 138 158
-0.15883034 -0.51869798 -0.73665363 159 139 158
-0.15785648 -0.52119642 -0.73546106 157 141 162
-0.15723051 -0.52114898 -0.73498017 160 146 166
-0.15810809 -0.51872194 -0.73603797 160 140 159
-0.15695339 -0.51765573 -0.73531187 160 140 162
-0.15757741 -0.51807249 -0.73572809 161 141 161
-0.15708889 -0.52123678 -0.73485631 161 147 167
-0.16221437 -0.52465737 -0.73821294 142 124 147
-0.16014361 -0.52182096 -0.73725665 153 136 157
-0.1605354 -0.52163959 -0.73764348 154 137 158
-0.15855943 -0.5216828 -0.73593581 155 138 159
-0.16089892 -0.5224793 -0.73771834 150 133 155
-0.1609603 -0.52285099 -0.73766178 149 132 154
-0.1615632 -0.52308738 -0.73811197 148 131 153
-0.16095133 -0.52252895 -0.73774892 150 133 155
-0.16115157 -0.52507323 -0.73726624 142 123 147
-0.16126013 -0.52479595 -0.73738474 142 124 147
-0.15935621 -0.52458131 -0.73605496 147 126 152
-0.15934627 -0.52349067 -0.73620868 149 130 154
-0.15968806 -0.52388161 -0.73639542 148 129 152
-0.16032986 -0.52386212 -0.73685724 146 128 151
-0.15987544 -0.52493459 -0.7363742 145 124 150
-0.15812941 -0.5231213 -0.73538953 153 133 158
-0.15806025 -0.52227318 -0.735461 155 137 160
-0.15804216 -0.52169985 -0.7355302 156 139 160
-0.16314268 -0.52622187 -0.73862612 142 123 147
-0.16326492 -0.52719414 -0.73851347 147 130 150
-0.16287367 -0.52879965 -0.73791122 154 138 156
-0.162678 -0.52714294 -0.73804134 147 130 150
-0.16311908 -0.52749425 -0.73831707 149 133 152
-0.15905863 -0.52711344 -0.73542356 152 130 160
-0.16032538 -0.52887535 -0.73602754 156 137 165
-0.15857668 -0.52598512 -0.73527586 149 126 155
-0.15928707 -0.52927613 -0.73520178 159 139 174
-0.15845811 -0.52705938 -0.73499721 153 130 163
-0.15869187 -0.52626401 -0.73530948 150 127 157
-0.16179663 -0.52580476 -0.73761106 142 123 147
-0.15914568 -0.52594119 -0.73569256 148 125 153
-0.1591817 -0.5259124 -0.73572308 148 125 153
-0.16150384 -0.52546811 -0.73745829 141 122 146
-0.16209163 -0.52772027 -0.73749983 149 132 152
-0.16069227 -0.52753925 -0.73652959 151 132 155
-0.16046479 -0.52593267 -0.73663718 145 125 150
-0.15807018 -0.52610421 -0.73488182 151 128 160
-0.16232426 -0.52950883 -0.73735523 155 139 157
-0.16430798 -0.53076953 -0.73853266 153 140 155
-0.16360192 -0.52965528 -0.73828703 155 141 157
-0.16390759 -0.53110462 -0.7381413 152 139 154
-0.16321988 -0.53075576 -0.73772055 152 138 155
-0.16226089 -0.53056532 -0.73713362 150 133 155
-0.16184241 -0.53288525 -0.7364772 141 121 152
-0.16130657 -0.53120357 -0.73641241 153 134 160
-0.16065209 -0.53311121 -0.73567283 150 129 162
-0.16194952 -0.53013641 -0.73700434 153 135 157
-0.16118008 -0.53311974 -0.73601151 146 125 157
-0.16034308 -0.53007293 -0.73588175 158 139 168
-0.16009228 -0.5315758 -0.73553872 159 139 169
-0.15971956 -0.53154242 -0.73527169 160 139 171
-0.16043864 -0.52981293 -0.73597896 158 139 167
-0.15938768 -0.53121668 -0.73506558 160 139 173
-0.1600046 -0.531021 -0.73553443 159 139 170
-0.16170694 -0.53423566 -0.73623186 144 123 155
-0.16158816 -0.53474969 -0.73610497 147 126 158
-0.16005389 -0.53604221 -0.73497117 157 135 170
-0.15976846 -0.53442144 -0.73495919 158 136 171
-0.16126937 -0.53449786 -0.73591787 145 125 157
-0.16041026 -0.53347361 -0.7354731 152 131 164
-0.16144633 -0.53406447 -0.73607779 144 123 155
-0.16138595 -0.54037833 -0.73551375 167 156 171
-0.16165473 -0.53901327 -0.73579562 166 151 171
-0.16099913 -0.54095185 -0.73523587 167 158 171
-0.16068654 -0.53975123 -0.73515278 166 153 171
-0.16065881 -0.53792101 -0.73522538 163 143 172
-0.16108373 -0.53837693 -0.73548669 165 147 171
-0.1599914 -0.53778696 -0.73478597 160 140 172
-0.16420749 -0.54443699 -0.73679513 142 112 154
-0.16428865 -0.54437673 -0.73683643 142 111 153
-0.16267657 -0.54319787 -0.73608696 157 140 168
-0.16351186 -0.54435068 -0.73645908 148 123 160
-0.16472803 -0.54410601 -0.73705846 139 106 148
-0.16220245 -0.54459 -0.73581445 158 142 173
-0.16155013 -0.54287887 -0.73549145 167 157 176
-0.16093275 -0.54469353 -0.73507392 167 156 181
-0.16208327 -0.54214609 -0.73582703 164 154 173
-0.16085304 -0.54378033 -0.73505473 169 160 180
-0.16032743 -0.54264355 -0.73478591 169 159 177
-0.16114619 -0.5425483 -0.73526561 168 159 176
-0.16227823 -0.54604 -0.73575133 165 146 178
-0.16288899 -0.54502326 -0.73613596 153 131 168
-0.1618586 -0.54718965 -0.7354272 174 155 184
-0.16176863 -0.54655558 -0.73543853 170 152 182
-0.1606545 -0.54629093 -0.73481494 177 163 187
-0.16178174 -0.54588705 -0.73550415 166 149 180
-0.1611782 -0.54622787 -0.73512709 172 157 184
-0.15104517 -0.50379926 -0.73036385 143 115 144
-0.15079513 -0.50436378 -0.73017728 137 106 138
-0.15121828 -0.50541347 -0.73070067 134 98 137
-0.15016191 -0.50482696 -0.72961652 128 97 129
-0.15012217 -0.50556701 -0.72966403 123 87 124
-0.15088825 -0.50744671 -0.73046613 123 89 126
-0.1507038 -0.50588459 -0.7302705 124 84 126
-0.15071946 -0.50745595 -0.73031044 121 87 124
-0.14901648 -0.50918847 -0.72882801 124 99 133
-0.14992152 -0.50735956 -0.72959673 121 87 125
-0.14968278 -0.50829697 -0.72940999 121 92 127
-0.14901893 -0.50878239 -0.72881591 124 98 134
-0.14944567 -0.50929517 -0.72922695 122 96 129
-0.14806303 -0.50761348 -0.72780806 128 106 136
-0.1476545 -0.50705528 -0.72731334 130 112 132
-0.14814806 -0.50790703 -0.72793442 128 104 138
-0.15090945 -0.51017475 -0.73055935 124 99 127
-0.15100011 -0.51118255 -0.73065203 132 112 132
-0.15071015 -0.51273841 -0.73044771 146 131 139
-0.15101069 -0.51316828 -0.73069715 149 135 142
-0.14945199 -0.5112021 -0.72928673 135 111 129
-0.15007216 -0.51019591 -0.72983152 123 96 123
-0.14938864 -0.51209444 -0.7292527 144 123 135
-0.1499095 -0.51295209 -0.72975689 151 136 140
-0.14829394 -0.51306927 -0.7282691 157 137 141
-0.14993787 -0.51251149 -0.72977102 147 130 137
-0.14856759 -0.51147366 -0.72847855 140 116 134
-0.14997093 -0.51005763 -0.7297346 122 96 124
-0.1479248 -0.51159084 -0.72788966 144 122 140
-0.14891343 -0.51067615 -0.72877669 132 108 132
-0.15102014 -0.51552898 -0.73064506 165 154 161
-0.15068188 -0.51385009 -0.73044389 157 146 146
-0.15105309 -0.51684886 -0.73061538 173 161 174
-0.15028204 -0.51483214 -0.73007685 165 154 157
-0.148231 -0.51401991 -0.72823972 167 150 150
-0.14915112 -0.51417947 -0.72909445 166 153 151
-0.1483191 -0.51397347 -0.72831941 166 150 149
-0.15130897 -0.51974767 -0.73054993 188 174 196
-0.15141009 -0.51856869 -0.73076302 181 168 187
-0.15125996 -0.52059948 -0.73042446 194 180 204
-0.15106885 -0.52093536 -0.7302407 199 183 209
-0.15050164 -0.52088314 -0.72979993 205 188 215
-0.15018862 -0.52146608 -0.72950953 211 193 221
-0.1518732 -0.52172637 -0.7307862 196 180 207
-0.15162762 -0.52179617 -0.73058391 199 182 210
-0.15199462 -0.52372926 -0.73061687 203 184 217
-0.15089153 -0.52273011 -0.72988749 211 194 223
-0.15066534 -0.52505994 -0.72944611 226 220 240
-0.1520202 -0.52528942 -0.73044538 210 194 226
-0.15097979 -0.52309978 -0.72991145 212 195 225
-0.15008551 -0.52477974 -0.72909003 229 224 241
-0.14822209 -0.52523375 -0.72793472 239 236 241
-0.14912905 -0.523081 -0.72872102 224 213 230
-0.15033835 -0.52359378 -0.72937721 222 212 234
-0.1477184 -0.52486533 -0.72767937 239 235 239
-0.14867441 -0.52341676 -0.72841305 227 218 231
-0.1477257 -0.52404237 -0.72775656 234 227 234
-0.14767165 -0.52405369 -0.72771788 234 228 234
-0.15128279 -0.52605838 -0.72982854 223 214 237
-0.15108518 -0.52590609 -0.7296896 225 217 238
-0.15242243 -0.52734149 -0.73060167 213 199 228
-0.15166512 -0.52722669 -0.73003626 223 214 236
-0.15091886 -0.52647501 -0.729541 229 223 241
-0.1523622 -0.52901548 -0.73047674 220 208 231
-0.15159294 -0.52903932 -0.72996747 228 219 236
-0.15059763 -0.52626044 -0.72933006 232 227 243
-0.14810139 -0.52581769 -0.72786063 237 236 241
-0.14807519 -0.52550697 -0.72783381 239 238 242
-0.14760852 -0.52611411 -0.72757977 237 236 240
-0.14696229 -0.52816266 -0.72727299 226 226 237
-0.1487122 -0.52693069 -0.72826332 228 226 240
-0.14909057 -0.52623731 -0.7284615 231 229 242
-0.14738622 -0.52877253 -0.72752976 224 224 237
-0.15014285 -0.52779084 -0.72904581 236 232 243
-0.15001774 -0.52902722 -0.72896785 239 234 243
-0.14829066 -0.52795416 -0.72803092 227 226 239
-0.14937453 -0.52714097 -0.7286303 231 228 242
-0.14873067 -0.52829647 -0.7282691 230 228 240
-0.15268125 -0.53153795 -0.73059118 212 200 221
-0.15305881 -0.53174126 -0.73083252 208 194 218
-0.15298508 -0.53196353 -0.73077434 208 195 217
-0.15249027 -0.53172249 -0.73045701 214 202 221
-0.15120476 -0.53312445 -0.72980338 208 194 216
-0.15102032 -0.53123808 -0.72960579 224 214 229
-0.15082379 -0.53291249 -0.72959059 210 197 218
-0.15243986 -0.5330736 -0.73045415 206 192 214
-0.1467125 -0.53315526 -0.72749066 208 194 209
-0.14825274 -0.53275692 -0.72824347 209 197 215
-0.14737879 -0.53142709 -0.72767854 214 206 222
-0.14656506 -0.53152502 -0.72727084 213 206 220
-0.14950289 -0.53289139 -0.72889501 209 197 217
-0.14696358 -0.53068894 -0.72740072 216 212 226
-0.14870268 -0.52998769 -0.72828269 227 222 235
-0.14927609 -0.53187603 -0.72869653 214 204 223
-0.14963232 -0.53136307 -0.72886431 220 211 227
-0.14971171 -0.52981609 -0.72882581 233 228 238
-0.15025553 -0.53042054 -0.72915542 231 223 235
-0.1487328 -0.53098512 -0.72835207 218 212 228
-0.14639273 -0.53279924 -0.72730273 208 195 210
-0.1460173 -0.53099859 -0.72697788 210 204 218
-0.15158243 -0.53412014 -0.73005992 204 187 212
-0.15221687 -0.53351378 -0.73036087 204 189 212
-0.15148962 -0.53379655 -0.72999227 205 189 213
-0.15172972 -0.5335865 -0.73010725 205 190 213
-0.15174013 -0.53383768 -0.73012716 204 188 212
-0.15232748 -0.53671455 -0.73060328 197 174 205
-0.15052792 -0.53574497 -0.7295987 218 206 217
-0.15097702 -0.53466159 -0.72977138 207 190 213
-0.15064958 -0.53484452 -0.72960979 212 198 216
-0.14746259 -0.53661883 -0.72823703 213 196 206
-0.1481944 -0.53556639 -0.72843444 216 203 212
-0.14769763 -0.53479856 -0.72811753 213 200 211
-0.14684825 -0.53395122 -0.72763324 209 195 209
-0.14805262 -0.535487 -0.72836125 215 202 211
-0.14854991 -0.53551435 -0.72858697 217 205 214
-0.14976054 -0.535155 -0.72916937 217 205 217
-0.14677563 -0.53341979 -0.72753996 209 195 209
-0.14811386 -0.53453076 -0.72829008 214 201 213
-0.14806783 -0.53360492 -0.72821206 210 196 212
-0.15036786 -0.53605205 -0.7295329 221 211 219
-0.14826097 -0.5346486 -0.72837228 214 202 213
-0.14635915 -0.53446174 -0.72748297 207 191 206
-0.14630112 -0.53453094 -0.72746813 206 191 205
-0.14620017 -0.53590113 -0.72759652 206 188 202
-0.14578071 -0.53426766 -0.72722322 202 187 203
-0.15103394 -0.53809428 -0.72997534 219 206 215
-0.15216935 -0.54015249 -0.73063552 209 188 208
-0.15189333 -0.53854126 -0.73044139 209 189 209
-0.15056297 -0.53726906 -0.72970235 224 213 218
-0.15065116 -0.53895968 -0.72987968 228 220 223
-0.15113781 -0.54010683 -0.73018593 225 214 221
-0.15116343 -0.54028285 -0.73021221 225 214 221
-0.14752507 -0.53839225 -0.72844291 216 200 209
-0.14721045 -0.53806978 -0.72827363 214 196 206
-0.14835867 -0.53967458 -0.72893667 221 207 215
-0.14690517 -0.54056865 -0.72840816 203 174 197
-0.1481649 -0.5404498 -0.72893596 217 199 211
-0.15011024 -0.53950727 -0.72969264 233 227 227
-0.14770731 -0.53746688 -0.7284385 215 199 208
-0.14848095 -0.5378108 -0.72881472 220 207 213
-0.14987683 -0.54036009 -0.72966337 235 230 229
-0.14888947 -0.53713834 -0.72893816 219 206 212
-0.15026823 -0.54005677 -0.72981167 236 231 229
-0.14576238 -0.53919214 -0.72781324 197 173 196
-0.1458683 -0.53802168 -0.72772825 202 181 198
-0.14407329 -0.54083741 -0.72736055 181 157 192
-0.14616041 -0.538849 -0.72792464 201 176 196
-0.14602272 -0.538629 -0.72785008 201 177 197
-0.14476794 -0.53815961 -0.72731012 193 174 196
-0.1442347 -0.53841597 -0.72712982 188 170 194
-0.14325501 -0.54003572 -0.72695369 177 158 192
-0.15067105 -0.54153401 -0.73007989 237 235 233
-0.15181884 -0.54193693 -0.73057234 221 210 220
-0.15150258 -0.54122347 -0.73042411 223 211 220
-0.14817625 -0.54326445 -0.72911602 211 195 210
-0.14694707 -0.5416497 -0.72850686 200 172 197
-0.14686936 -0.54217917 -0.72852725 200 175 198
-0.14661099 -0.54176813 -0.72839248 198 169 195
-0.14983669 -0.54265094 -0.72977436 229 223 226
-0.15033728 -0.54102856 -0.72992849 239 236 233
-0.14918667 -0.54192257 -0.72946829 224 212 220
-0.1494642 -0.54386544 -0.72965991 221 213 221
-0.15007608 -0.5411405 -0.72982055 236 231 230
-0.14995664 -0.54201919 -0.72980219 232 227 228
-0.14416708 -0.54140311 -0.72747082 180 154 190
-0.1441109 -0.54149997 -0.72746408 179 153 190
-0.14429981 -0.54228646 -0.72765291 179 151 188
-0.14469966 -0.54276454 -0.72787398 181 151 186
-0.1437871 -0.54360718 -0.72766107 173 146 184
-0.14548686 -0.54128009 -0.7279433 189 158 191
-0.1442281 -0.54276061 -0.72769773 177 150 186
-0.14498712 -0.54415995 -0.72809666 184 165 192
-0.14639671 -0.54261386 -0.72839648 197 173 195
-0.14518243 -0.54322064 -0.72807056 186 161 190
-0.14507996 -0.54322839 -0.72803909 185 159 189
-0.14593758 -0.54291791 -0.72828013 193 169 194
-0.16853739 -0.51991206 -0.74615145 158 131 157
-0.16884381 -0.51995057 -0.74647969 159 132 157
-0.16893017 -0.52040404 -0.74640012 155 127 154
-0.16854218 -0.52092224 -0.74576372 150 122 152
-0.16662875 -0.52103919 -0.74357319 152 132 154
-0.16997766 -0.52474201 -0.74560261 137 109 137
-0.17017922 -0.52512157 -0.74558216 137 110 136
-0.16622546 -0.52169502 -0.74284756 150 132 153
-0.16645232 -0.52209985 -0.74293083 148 130 151
-0.16812328 -0.52502626 -0.74356365 139 116 140
-0.16844615 -0.52424604 -0.74416333 141 118 142
-0.16752891 -0.52487713 -0.7430222 140 118 142
-0.16883694 -0.52405864 -0.74465048 141 116 141
-0.1675996 -0.52171934 -0.74437624 148 125 150
-0.16884306 -0.52231842 -0.74548513 145 118 146
-0.16878504 -0.52358842 -0.74481595 142 117 143
-0.16876183 -0.52419627 -0.74450076 141 117 141
-0.16758496 -0.52208352 -0.74418658 147 125 149
-0.16807453 -0.52314311 -0.74423134 144 121 145
-0.16978785 -0.52372831 -0.74588895 140 111 140
-0.17169152 -0.52645892 -0.74624699 143 120 141
-0.17226249 -0.52795219 -0.74607325 153 132 148
-0.1701759 -0.52750766 -0.74447727 154 129 146
-0.17121685 -0.5292111 -0.74459136 166 145 154
-0.1702221 -0.52832115 -0.74414259 161 137 150
-0.17003159 -0.52817714 -0.74404436 160 136 149
-0.17036761 -0.52846062 -0.74420387 161 138 150
-0.17029302 -0.52826983 -0.74422741 160 136 150
-0.1693974 -0.52865022 -0.743276 164 140 151
-0.16773012 -0.52624762 -0.74267495 146 124 144
-0.16817492 -0.52601933 -0.74321729 144 120 142
-0.16972966 -0.52587867 -0.74483216 141 114 138
-0.16853297 -0.52684152 -0.74322385 150 126 145
-0.16831873 -0.52755964 -0.74270254 156 133 148
-0.16996925 -0.53008401 -0.74320352 172 152 157
-0.17072894 -0.53056353 -0.74357373 173 152 159
-0.17163303 -0.53035116 -0.7443881 170 150 159
-0.17191686 -0.52970171 -0.74495536 167 147 156
-0.1719337 -0.53013813 -0.74475336 169 149 158
-0.17131373 -0.52940685 -0.74458098 167 146 155
-0.16925701 -0.52953202 -0.742778 170 148 155
-0.16955763 -0.5304656 -0.74272877 174 156 159
-0.15302207 -0.50532949 -0.73248041 156 126 158
-0.15245354 -0.50546825 -0.73193264 148 115 150
-0.15287043 -0.50440979 -0.73226231 157 128 156
-0.15189379 -0.50900424 -0.73145777 133 108 138
-0.15249357 -0.50825399 -0.7320348 142 118 147
-0.15308595 -0.50824666 -0.7325927 152 129 155
-0.15302262 -0.50922805 -0.732517 150 131 152
-0.15351212 -0.5097363 -0.73296952 158 143 157
-0.15217473 -0.50824147 -0.73172367 138 112 143
-0.15136653 -0.50609905 -0.73089838 132 94 136
-0.15263453 -0.50588101 -0.73214006 150 117 153
-0.15256861 -0.50651091 -0.73208469 147 116 151
-0.15312061 -0.50609618 -0.73262054 155 126 159
-0.15279646 -0.50761259 -0.73232478 148 122 152
-0.15555865 -0.51242334 -0.73467529 158 145 164
-0.15493323 -0.51251298 -0.73407423 155 142 162
-0.15436117 -0.5125705 -0.73353529 151 139 160
-0.15301749 -0.51194942 -0.7324844 159 147 157
-0.1537229 -0.51086229 -0.73314929 165 153 162
-0.15245381 -0.51262772 -0.73196882 157 145 153
-0.15331644 -0.51193744 -0.73272896 158 146 158
-0.1521387 -0.51315963 -0.73166794 154 142 150
-0.15154606 -0.51185721 -0.73115474 144 127 142
-0.15142834 -0.51079965 -0.73102528 134 113 135
-0.15196121 -0.51166093 -0.73154217 149 133 146
-0.15255606 -0.51138484 -0.73209739 156 142 152
-0.15327081 -0.51000023 -0.73274595 156 141 155
-0.15320574 -0.51072711 -0.73269749 161 148 158
-0.15481523 -0.5140152 -0.73383075 146 133 158
-0.15577111 -0.51647758 -0.73445666 155 138 162
-0.15575102 -0.51638806 -0.7344476 155 138 162
-0.15514322 -0.51543677 -0.73398697 150 135 160
-0.15601826 -0.51719427 -0.734613 158 139 163
-0.15466076 -0.51447392 -0.73364162 146 132 158
-0.15403804 -0.51655728 -0.73306531 154 137 163
-0.15409091 -0.51645613 -0.73311239 153 136 163
-0.15336607 -0.51650989 -0.73251611 158 143 167
-0.15423262 -0.51445937 -0.73330224 146 132 158
-0.15428397 -0.51691699 -0.73325372 153 135 162
-0.15216208 -0.5164513 -0.73153144 166 154 173
-0.15282023 -0.51403499 -0.73216599 150 138 154
-0.15231477 -0.51371169 -0.7317673 150 138 150
-0.15128729 -0.51487851 -0.73088264 160 148 156
-0.15337707 -0.51402527 -0.73262012 148 136 156
-0.15299505 -0.51429266 -0.73229796 151 139 157
-0.15557322 -0.51846027 -0.7341063 158 140 164
-0.15510629 -0.51783758 -0.73383737 157 138 164
-0.15620494 -0.51910025 -0.73450255 159 142 165
-0.15513735 -0.52055383 -0.73343807 164 151 173
-0.15453248 -0.51802301 -0.73335534 156 137 164
-0.15445991 -0.51926035 -0.73310828 161 146 171
-0.15481165 -0.5198428 -0.73329329 162 148 172
-0.15391603 -0.51966894 -0.7326324 167 152 177
-0.15259564 -0.52105665 -0.73142797 186 171 196
-0.15419422 -0.52034259 -0.73273748 167 155 178
-0.15353176 -0.52082962 -0.73216546 176 163 186
-0.15371875 -0.51803696 -0.73271465 162 143 170
-0.15240331 -0.51788318 -0.73165327 170 155 176
-0.15250938 -0.51892382 -0.73162401 176 160 183
-0.15201083 -0.52012974 -0.73108059 186 171 194
-0.15242304 -0.51848197 -0.73160261 174 158 180
-0.15583812 -0.52212781 -0.73374832 164 151 174
-0.15684821 -0.52376372 -0.73429877 159 140 167
-0.15716119 -0.52303642 -0.73464888 158 141 166
-0.15467994 -0.52189445 -0.73287821 169 158 180
-0.15445141 -0.52414548 -0.73244262 180 159 198
-0.15530887 -0.52529532 -0.73294973 176 151 194
-0.15482716 -0.52226675 -0.73294419 169 156 180
-0.15434134 -0.52508533 -0.73225003 185 159 206
-0.1564943 -0.52471966 -0.73390466 163 141 173
-0.15495734 -0.52517647 -0.73270053 179 154 198
-0.15406244 -0.52321076 -0.73225576 180 164 196
-0.15376487 -0.52308607 -0.732041 182 168 197
-0.15374981 -0.5245294 -0.73186016 188 168 207
-0.15280196 -0.52436274 -0.73115379 197 179 213
-0.15272668 -0.52168512 -0.73143518 187 173 198
-0.15266289 -0.52204394 -0.73134208 189 175 201
-0.15259711 -0.52435935 -0.73100048 199 181 215
-0.15699498 -0.52624518 -0.7340501 163 139 176
-0.15590872 -0.52569193 -0.73333448 172 146 188
-0.15655941 -0.52629071 -0.73371595 167 143 183
-0.15719251 -0.52721357 -0.73402447 163 140 180
-0.15658338 -0.52686232 -0.73363078 168 144 186
-0.15647314 -0.52655017 -0.73360503 168 144 186
-0.15789625 -0.527834 -0.73444003 158 136 174
-0.15446255 -0.52559847 -0.73227066 186 159 207
-0.15668833 -0.52808338 -0.73350865 171 149 190
-0.15569949 -0.52706569 -0.73294926 178 154 198
-0.15509869 -0.5292722 -0.73230278 194 176 212
-0.15452687 -0.52662426 -0.73220283 189 165 210
-0.15563692 -0.52859616 -0.7327407 185 165 204
-0.15529719 -0.52699071 -0.73268497 182 158 202
-0.15325697 -0.52917641 -0.73108029 211 196 226
-0.15422587 -0.52620232 -0.73204577 190 166 211
-0.15267453 -0.52584404 -0.73089802 204 185 221
-0.15322275 -0.52844769 -0.73113513 209 192 223
-0.15293185 -0.52597868 -0.73108679 202 182 219
-0.15895884 -0.53134018 -0.73474044 161 139 175
-0.15843256 -0.53058922 -0.73444647 161 140 177
-0.15831277 -0.53110808 -0.73433155 164 141 178
-0.15458357 -0.53038871 -0.73186696 200 183 215
-0.15647383 -0.53309685 -0.73293823 185 165 193
-0.15658 -0.53300148 -0.7330175 184 164 193
-0.15662307 -0.53252608 -0.73308325 183 163 194
-0.1545967 -0.53157592 -0.73178434 200 184 212
-0.15616582 -0.53303868 -0.73273414 187 168 196
-0.15510665 -0.53155726 -0.73213106 196 179 208
-0.15709405 -0.53012317 -0.73358792 174 154 190
-0.15587352 -0.52999091 -0.73277134 187 168 203
-0.15754813 -0.53038663 -0.73387516 170 149 185
-0.15646385 -0.53066856 -0.73311883 183 162 197
-0.15593275 -0.53015155 -0.73279899 187 168 203
-0.15790969 -0.52934068 -0.73420095 163 142 181
-0.15689664 -0.53100729 -0.7333858 179 158 193
-0.1537437 -0.53197718 -0.73125148 203 188 214
-0.15417378 -0.53256375 -0.7314387 203 188 212
-0.15318699 -0.53110576 -0.73094434 208 194 219
-0.15313403 -0.53029156 -0.73094362 211 196 223
-0.15927733 -0.53387576 -0.73470271 162 140 174
-0.1591889 -0.53340167 -0.73469621 162 140 174
-0.1594318 -0.53639185 -0.73454112 161 138 174
-0.15836562 -0.53367275 -0.7341544 169 145 179
-0.1586715 -0.53529882 -0.73417979 165 141 176
-0.15453757 -0.53560197 -0.73171449 184 160 198
-0.15763578 -0.5369125 -0.73339987 164 139 176
-0.15617184 -0.53574634 -0.73257315 177 155 189
-0.15607253 -0.53620499 -0.73254687 174 150 188
-0.15476763 -0.53466362 -0.73178214 190 171 201
-0.15478531 -0.53553236 -0.73183954 184 161 197
-0.1580862 -0.53425241 -0.73391575 169 145 179
-0.15698047 -0.53489727 -0.73310179 176 155 186
-0.15596572 -0.53454179 -0.7324506 185 167 195
-0.15780011 -0.53337204 -0.73381108 173 150 182
-0.15534972 -0.53351706 -0.73213708 193 176 202
-0.15739217 -0.53398699 -0.73347265 175 153 185
-0.15814587 -0.53347844 -0.73403448 170 146 179
-0.15363657 -0.53615141 -0.73126799 189 164 201
-0.15406652 -0.53677994 -0.73153192 179 151 195
-0.15327063 -0.53439689 -0.73097134 200 182 208
-0.15949801 -0.53734255 -0.73449892 160 138 172
-0.15991384 -0.54009628 -0.73462969 166 152 172
-0.16007566 -0.54022181 -0.73472428 166 153 172
-0.15882765 -0.54038072 -0.73397213 170 158 174
-0.15969418 -0.54096162 -0.73446697 169 159 172
-0.15869555 -0.53976035 -0.73391354 168 153 174
-0.15540221 -0.54096425 -0.73217309 179 146 184
-0.15456431 -0.54080999 -0.73175353 181 141 187
-0.155002 -0.54061878 -0.73197663 179 144 186
-0.15536156 -0.5405407 -0.73215878 179 146 185
-0.15542397 -0.54060489 -0.7321893 179 147 185
-0.15605921 -0.53938651 -0.73252678 175 152 184
-0.15665916 -0.53917289 -0.73283696 173 154 182
-0.1552971 -0.53750437 -0.73218101 172 144 188
-0.15575276 -0.53742403 -0.73242074 170 143 185
-0.1580901 -0.5387978 -0.73359364 167 148 174
-0.15750915 -0.53795618 -0.73331797 166 143 177
-0.15792263 -0.53921002 -0.73349339 169 152 176
-0.15342283 -0.54006761 -0.73125237 192 162 198
-0.15380272 -0.54068619 -0.73140734 188 151 193
-0.15418151 -0.5396238 -0.73158646 180 143 190
-0.1536952 -0.53715473 -0.73135382 181 153 196
-0.15279357 -0.53767151 -0.73088932 194 168 202
-0.16034184 -0.54388845 -0.73475343 170 160 180
-0.15925507 -0.54257375 -0.73415345 172 162 178
-0.1587384 -0.5413565 -0.73388785 173 163 176
-0.15907741 -0.54126441 -0.73409164 172 162 175
-0.15946093 -0.54358417 -0.73424828 173 163 182
-0.15873368 -0.54381943 -0.7338376 179 168 187
-0.1595754 -0.54479396 -0.73429441 176 165 188
-0.15578766 -0.54360622 -0.73235041 194 173 202
-0.15781425 -0.54464155 -0.73333478 186 172 197
-0.15454859 -0.54215682 -0.73174393 190 158 197
-0.15478209 -0.54242247 -0.73185819 191 161 198
-0.15599735 -0.54398638 -0.73245376 196 178 204
-0.15538029 -0.54209948 -0.73214519 183 148 190
-0.15741789 -0.54396772 -0.73314303 184 166 194
-0.15747954 -0.54284316 -0.73319077 181 164 188
-0.15797132 -0.54244614 -0.73344415 179 166 184
-0.15648697 -0.54278618 -0.73269206 183 157 190
-0.15575136 -0.5414052 -0.73234224 180 149 185
-0.15786272 -0.54180628 -0.73339897 177 164 181
-0.1536859 -0.54320151 -0.73138374 204 184 210
-0.154194 -0.54131407 -0.7315765 185 145 191
-0.15426858 -0.5419116 -0.7316097 190 156 197
-0.15288097 -0.54104477 -0.73100513 202 174 202
-0.15260829 -0.54187304 -0.73090506 209 189 209
-0.15949632 -0.54633433 -0.73416138 185 170 194
-0.15993352 -0.54694468 -0.73436862 185 170 193
-0.1597756 -0.54500973 -0.7343992 175 165 188
-0.15942751 -0.54521966 -0.73419142 179 167 190
-0.15887924 -0.54593194 -0.73384142 187 173 196
-0.15882279 -0.54706454 -0.73382241 194 181 201
-0.17000093 -0.52138484 -0.74722344 148 118 147
-0.16964494 -0.52088457 -0.74706012 152 123 151
-0.16916919 -0.5202933 -0.74674004 156 129 155
-0.16998789 -0.52218038 -0.74684352 143 113 144
-0.1711963 -0.52385122 -0.74705803 142 116 141
-0.17206651 -0.52390373 -0.74781168 146 122 141
-0.1709273 -0.52300441 -0.74724191 145 118 143
-0.17253664 -0.52457702 -0.74789506 145 122 139
-0.17148879 -0.52465278 -0.7469179 140 115 139
-0.17253394 -0.52245271 -0.74903286 151 121 150
-0.17139816 -0.52211201 -0.74815005 149 119 148
-0.17299326 -0.5227747 -0.7492891 151 122 150
-0.17115086 -0.52199227 -0.7479828 148 119 148
-0.17127377 -0.52277422 -0.74767083 147 120 144
-0.1729978 -0.52308619 -0.74912298 150 122 148
-0.17303334 -0.5224461 -0.74950653 152 121 152
-0.17177622 -0.52587456 -0.74657905 140 117 139
-0.17272842 -0.52707988 -0.74686909 149 129 144
-0.17192033 -0.5257923 -0.74674666 140 118 138
-0.17221214 -0.52615571 -0.74683833 143 121 140
0 0 0 1 0 0 0 1 0 0 0 1 0 0 0 0 0 649 1 0 0
