ply
format ascii 1.0
comment PCL generated
element vertex 782
property float x
property float y
property float z
property uchar red
property uchar green
property uchar blue
element camera 1
property float view_px
property float view_py
property float view_pz
property float x_axisx
property float x_axisy
property float x_axisz
property float y_axisx
property float y_axisy
property float y_axisz
property float z_axisx
property float z_axisy
property float z_axisz
property float focal
property float scalex
property float scaley
property float centerx
property float centery
property int viewportx
property int viewporty
property float k1
property float k2
end_header
0.13681196 -0.087702438 -0.78622842 23 24 52
0.13700549 -0.087525934 -0.78591138 28 31 62
0.1381702 -0.087389611 -0.78735816 31 33 65
0.13725874 -0.087700933 -0.78696746 23 23 51
0.13733838 -0.087833881 -0.78760612 20 18 43
0.14138676 -0.085993908 -0.78802931 90 99 138
0.14101614 -0.086395361 -0.78856301 72 80 116
0.14037801 -0.086678244 -0.78863442 62 67 100
0.14176716 -0.086031221 -0.78841418 86 97 136
0.14119609 -0.08590363 -0.7876879 95 103 142
0.14003879 -0.086116195 -0.78652811 83 91 132
0.13869552 -0.087698966 -0.78936595 22 19 45
0.13972242 -0.086348876 -0.78668886 73 80 120
0.14025092 -0.086001016 -0.78656828 89 97 138
0.13942292 -0.086957686 -0.78824884 52 53 85
0.14031345 -0.085920222 -0.78641039 92 101 142
0.13889077 -0.08692684 -0.78698939 47 52 90
0.13298814 -0.088465348 -0.78770322 77 81 81
0.13411273 -0.08854188 -0.78906459 75 75 71
0.13339819 -0.088412762 -0.78732318 67 70 74
0.13303572 -0.088321619 -0.78652906 63 67 76
0.13264687 -0.088254452 -0.78591686 62 67 79
0.13447581 -0.088340536 -0.78699744 48 49 58
0.13463928 -0.088231988 -0.78618413 37 37 53
0.13719167 -0.088052154 -0.78891522 33 30 44
0.13736242 -0.087977096 -0.78861147 28 24 42
0.13755508 -0.088028625 -0.78935772 32 28 42
0.13620207 -0.087993711 -0.78673083 27 26 46
0.13577437 -0.088349611 -0.78883356 52 50 54
0.13504159 -0.088279791 -0.7870366 43 42 53
0.14564498 -0.08425016 -0.80843782 38 41 61
0.14602064 -0.084227301 -0.80892754 40 42 63
0.14618328 -0.086440392 -0.80566382 50 54 77
0.14611931 -0.085892677 -0.80638295 47 51 74
0.14487845 -0.084524617 -0.80707377 36 39 60
0.14476666 -0.084509633 -0.80698097 35 38 59
0.14394023 -0.084468201 -0.80619544 31 34 55
0.14570889 -0.08434096 -0.80818588 39 41 62
0.14586967 -0.08633934 -0.80548787 48 52 75
0.14753637 -0.084991001 -0.80812198 44 44 73
0.14979079 -0.086570852 -0.80861151 52 55 79
0.14705399 -0.084710456 -0.80876839 44 46 68
0.14896676 -0.085904561 -0.8072722 47 45 82
0.14930934 -0.08612936 -0.80714703 48 46 84
0.14928997 -0.086050399 -0.80628878 46 41 87
0.14890122 -0.086398698 -0.80571812 48 44 88
0.14812486 -0.086278036 -0.80599141 48 47 84
0.14721902 -0.085655592 -0.80700022 47 48 77
0.14894411 -0.08635167 -0.80577993 48 44 88
0.14842826 -0.086844139 -0.80514133 50 49 89
0.14733763 -0.08690609 -0.80519372 52 54 85
0.14747082 -0.085077494 -0.80779564 44 44 74
0.15401748 -0.085792311 -0.80767858 68 73 118
0.15314177 -0.085891269 -0.80689895 69 76 123
0.15316385 -0.08618582 -0.80858564 62 67 102
0.15335773 -0.085712023 -0.8062222 72 80 132
0.15245748 -0.086425692 -0.808855 60 64 94
0.15349735 -0.085899159 -0.80748528 67 73 117
0.15120591 -0.086596645 -0.80755794 58 62 97
0.15100296 -0.086572148 -0.80624819 54 53 100
0.152643 -0.085963577 -0.80629534 68 73 123
0.15184519 -0.086257055 -0.80623895 61 63 112
0.15169966 -0.086375818 -0.80708075 61 66 107
0.15160921 -0.086306356 -0.80573237 58 58 111
0.15622367 -0.084840499 -0.80617034 97 106 172
0.15624693 -0.084825188 -0.8061434 98 107 173
0.15548848 -0.085607216 -0.80894375 75 80 124
0.15521279 -0.085504577 -0.80793327 76 82 132
0.1547263 -0.085479662 -0.80702662 75 82 135
0.15514494 -0.085296944 -0.80666107 81 88 147
0.15517989 -0.085675731 -0.80884194 73 77 120
0.15607132 -0.085152425 -0.80731016 87 95 155
0.14640963 -0.082876161 -0.81921679 28 32 48
0.1461504 -0.082845874 -0.81836283 29 32 49
0.14623527 -0.082716085 -0.81778038 30 33 52
0.14952248 -0.082168877 -0.81955224 55 55 82
0.1501876 -0.08182586 -0.81985325 59 58 88
0.14927652 -0.08201617 -0.82052743 49 50 75
0.1490241 -0.082086429 -0.82064605 47 48 72
0.14756736 -0.082839787 -0.81997877 38 40 59
0.1486627 -0.082268335 -0.8204999 45 46 69
0.14716019 -0.082981035 -0.81997198 34 37 55
0.14939383 -0.08251515 -0.81682205 62 62 90
0.14766604 -0.082652658 -0.81788343 43 45 67
0.14655437 -0.082919993 -0.81966996 29 32 48
0.14936581 -0.082565211 -0.81713444 61 61 89
0.14917879 -0.082541436 -0.8170107 59 59 87
0.15313372 -0.083702534 -0.81706637 66 64 98
0.15342371 -0.083310686 -0.81828356 70 67 104
0.15305005 -0.083383575 -0.81771016 69 66 102
0.15202232 -0.082790866 -0.81796509 72 70 105
0.15384096 -0.083145611 -0.81911707 72 68 108
0.15050395 -0.082384266 -0.81749618 70 68 100
0.15042961 -0.082362995 -0.81749403 69 68 99
0.15096512 -0.082246318 -0.81855869 68 66 99
0.15186216 -0.081963122 -0.82068312 65 62 97
0.15091947 -0.081861936 -0.82000053 63 61 93
0.1516726 -0.082314819 -0.81909996 69 67 102
0.15631624 -0.08356221 -0.8199411 91 95 126
0.15711211 -0.083766565 -0.81997824 98 105 132
0.15487197 -0.083149932 -0.8199693 79 77 116
0.15501948 -0.083301902 -0.8197127 79 78 116
0.15617476 -0.083234943 -0.82054877 91 94 128
0.15772988 -0.084932409 -0.8178817 101 106 131
0.158114 -0.084799938 -0.81840473 105 112 136
0.1571739 -0.084435694 -0.8185696 95 102 128
0.15816122 -0.084595114 -0.8188647 106 114 138
0.15552351 -0.084572114 -0.81723064 76 78 108
0.15510394 -0.084003322 -0.81815112 74 74 108
0.15484814 -0.084227063 -0.81752193 70 71 103
0.15825078 -0.084543347 -0.81904978 107 115 139
0.16023704 -0.084967449 -0.82026631 103 104 141
0.15884137 -0.08484567 -0.81903863 105 110 138
0.16104804 -0.085388355 -0.82024699 102 98 141
0.15924434 -0.085124739 -0.81888276 104 107 138
0.16091499 -0.085140593 -0.82062405 102 100 142
0.160117 -0.08534044 -0.81935835 103 102 139
0.16480143 -0.085009269 -0.82030463 111 106 170
0.16250925 -0.08550933 -0.81978494 98 90 145
0.16308258 -0.085207522 -0.81832796 93 86 149
0.16371225 -0.085201316 -0.8196485 102 97 158
0.16309111 -0.085336737 -0.81950688 99 92 151
0.16444933 -0.085122801 -0.82055449 111 106 166
0.15767147 -0.073739983 -0.8364085 56 72 115
0.15736301 -0.07261385 -0.83653247 42 46 79
0.15885043 -0.072836973 -0.83867705 38 43 69
0.15841955 -0.07455308 -0.83709443 64 89 136
0.15833929 -0.074346669 -0.83700657 62 85 131
0.15974376 -0.072614431 -0.84013402 27 24 39
0.15943822 -0.075006552 -0.83767879 59 81 123
0.15862016 -0.075219892 -0.83679229 70 100 152
0.15914948 -0.074704938 -0.83771211 59 80 121
0.15962164 -0.07490132 -0.83793026 56 75 115
0.1594774 -0.072539523 -0.83997798 29 27 43
0.15986438 -0.075527549 -0.83774877 63 85 127
0.15829012 -0.075338751 -0.83640921 75 109 165
0.16196358 -0.075031139 -0.83962417 37 35 53
0.16204245 -0.0759914 -0.8381837 55 51 72
0.16186097 -0.075647369 -0.83862805 50 49 70
0.16182716 -0.075838916 -0.83831757 53 53 75
0.16291885 -0.075974151 -0.83902431 52 45 70
0.16371866 -0.075843044 -0.8399992 49 38 68
0.1640819 -0.076106891 -0.83994448 53 41 75
0.16060814 -0.077031076 -0.83660829 88 105 144
0.15928496 -0.076329872 -0.83650029 82 113 165
0.16114344 -0.076484516 -0.83725727 72 80 112
0.16205901 -0.07633882 -0.83779198 62 59 80
0.16211636 -0.077830203 -0.83673525 94 95 121
0.16338986 -0.076193467 -0.83915967 56 46 76
0.16392282 -0.07656958 -0.83940065 63 53 87
0.16494387 -0.077384949 -0.83967453 81 71 113
0.16458049 -0.077375598 -0.83935517 81 72 112
0.16558868 -0.077788629 -0.83993089 90 79 126
0.16508876 -0.077443875 -0.83975756 82 72 115
0.16494474 -0.079331502 -0.83640707 90 92 134
0.16557808 -0.079227209 -0.837093 88 87 132
0.16563937 -0.078451574 -0.83877307 91 85 131
0.16585669 -0.078170069 -0.83952641 91 82 130
0.16503806 -0.078352116 -0.8385402 94 88 132
0.16388923 -0.078303143 -0.837798 99 96 134
0.16637856 -0.079842336 -0.83673424 86 87 133
0.16605681 -0.079387993 -0.83715069 86 85 132
0.16672564 -0.078635313 -0.83995503 92 86 132
0.16625036 -0.078281425 -0.83983564 91 83 131
0.16729318 -0.079821549 -0.83848792 91 92 135
0.16675663 -0.07959003 -0.83799905 89 89 134
0.16967288 -0.082562722 -0.83768994 109 113 148
0.16891733 -0.08096832 -0.83925027 101 104 141
0.16963674 -0.083013877 -0.83673775 111 115 150
0.16779993 -0.080827236 -0.8373546 95 96 138
0.16731362 -0.080198713 -0.83761251 90 91 135
0.16820762 -0.081185684 -0.83745974 98 100 140
0.16807307 -0.081176557 -0.83721679 97 99 140
0.16682242 -0.080265172 -0.83653498 88 88 134
0.16803502 -0.080220252 -0.83896774 94 96 137
0.17069198 -0.083667867 -0.83662832 117 121 155
0.1704126 -0.08342734 -0.83673948 115 119 154
0.17167228 -0.083168723 -0.83782846 118 121 156
0.17157118 -0.082898818 -0.83818001 116 120 155
0.17050676 -0.082176372 -0.83919823 109 112 148
0.17211975 -0.082737528 -0.83870792 117 120 156
0.1712348 -0.082810387 -0.83822584 115 118 154
0.17023598 -0.083270781 -0.83693576 114 118 152
0.17147031 -0.082630642 -0.83867049 115 118 153
0.17189902 -0.084360741 -0.83635569 121 126 159
0.16350108 -0.072372258 -0.84416479 29 27 53
0.1644212 -0.072965451 -0.84449047 52 50 84
0.17162685 -0.079723798 -0.84440279 102 106 143
0.17185467 -0.079985321 -0.84426957 103 108 143
0.17196281 -0.079514503 -0.84503359 104 107 145
0.17283368 -0.079832725 -0.84546822 109 113 148
0.17256846 -0.080018684 -0.84494144 108 112 147
0.17258008 -0.080517069 -0.84417045 110 115 148
0.17301871 -0.080663837 -0.84437764 113 118 151
0.13422519 -0.087835498 -0.78275836 29 29 56
0.13613278 -0.087693334 -0.78503877 24 26 55
0.13640018 -0.087588854 -0.78510922 27 29 60
0.13737081 -0.086943023 -0.78435862 46 52 93
0.13620329 -0.087410405 -0.78408635 33 36 70
0.13746481 -0.087017596 -0.7847997 43 50 89
0.13765539 -0.086457737 -0.78365409 69 76 118
0.13747193 -0.086207695 -0.78284371 83 90 131
0.13688922 -0.086432502 -0.78250474 75 80 120
0.13501249 -0.087264955 -0.78165072 42 43 78
0.13649105 -0.086969338 -0.78311354 49 53 92
0.13711977 -0.086708225 -0.78343862 59 65 105
0.13883565 -0.085953996 -0.7842145 89 99 143
0.13898218 -0.086410061 -0.78540599 65 75 119
0.13884538 -0.086228698 -0.78482968 75 85 129
0.13938037 -0.08612182 -0.78529364 79 89 134
0.1392031 -0.085753165 -0.78425378 98 109 153
0.13997576 -0.085368238 -0.78441823 116 127 173
0.12778157 -0.088076413 -0.78254622 66 56 81
0.12876864 -0.088075958 -0.78220284 68 61 84
0.12908033 -0.088136606 -0.78330463 71 69 88
0.13018553 -0.088152245 -0.78362179 76 78 94
0.13011093 -0.088109158 -0.78284365 73 74 92
0.12941992 -0.088114798 -0.78292292 71 69 89
0.1297735 -0.088155098 -0.7836597 74 75 92
0.13475206 -0.087997153 -0.7842775 24 23 47
0.1334933 -0.087926641 -0.78268147 38 38 62
0.13316219 -0.088017896 -0.7832002 45 45 66
0.13203239 -0.088025294 -0.78240126 58 59 79
0.13310499 -0.088136055 -0.7845006 48 51 69
0.13190965 -0.08813107 -0.78379947 63 67 83
0.1310921 -0.088143475 -0.7836048 74 80 94
0.1318209 -0.088146619 -0.78403407 65 70 85
0.131836 -0.088105917 -0.78330904 63 66 83
0.13156272 -0.088097401 -0.78301603 66 69 86
0.1353828 -0.087903395 -0.7845819 20 19 46
0.13329707 -0.083890408 -0.79745942 54 41 43
0.13445295 -0.083095223 -0.79974979 37 23 38
0.13461827 -0.083222792 -0.79927725 31 19 36
0.1383031 -0.08397641 -0.80074602 11 8 32
0.13739717 -0.083813302 -0.80026352 15 10 33
0.13635939 -0.083448365 -0.80029482 22 13 34
0.13535166 -0.083626732 -0.79855877 22 13 33
0.13560693 -0.083707035 -0.79858249 21 12 32
0.13737036 -0.083769657 -0.80037779 16 11 33
0.13703346 -0.08422371 -0.79851687 14 9 32
0.13807562 -0.084801033 -0.79791999 12 7 34
0.13591276 -0.084106408 -0.79759485 17 10 31
0.13634413 -0.084351808 -0.79732782 16 9 32
0.13759053 -0.084574506 -0.79806674 13 8 33
0.13926113 -0.084563069 -0.80050087 13 12 36
0.13979705 -0.084997125 -0.80020845 16 16 40
0.14162721 -0.08606346 -0.80050063 24 29 50
0.13919339 -0.084894933 -0.7993378 13 11 37
0.14139234 -0.085886419 -0.80058789 22 27 48
0.14056344 -0.085562997 -0.79996055 19 21 44
0.14242642 -0.08688584 -0.79981464 29 36 54
0.13935678 -0.085550502 -0.79768884 15 12 39
0.14199233 -0.086881422 -0.79905379 28 33 52
0.14103279 -0.086149067 -0.79917532 22 25 47
0.14208248 -0.086298034 -0.80067015 25 32 52
0.14136134 -0.087012686 -0.79760402 27 30 50
0.14274292 -0.086886294 -0.79995364 30 38 57
0.14322363 -0.087141037 -0.79896832 34 40 63
0.14354679 -0.087064937 -0.79893011 36 41 67
0.1432991 -0.087429523 -0.79818666 36 41 64
0.14313473 -0.087063245 -0.79922795 33 40 62
0.14313675 -0.087653354 -0.79773754 36 41 62
0.14359501 -0.086884648 -0.80100232 42 48 68
0.14298713 -0.086520977 -0.80083025 31 38 60
0.14507797 -0.086775705 -0.79878515 45 47 86
0.14361897 -0.086826392 -0.80084407 41 46 68
0.14614874 -0.08725547 -0.79870397 61 61 99
0.14598885 -0.082915366 -0.81321681 34 37 55
0.14623952 -0.082539394 -0.81614673 32 35 55
0.15016283 -0.083929613 -0.81397343 65 62 98
0.14783682 -0.083166704 -0.81355828 47 48 72
0.14835766 -0.083255954 -0.81380486 52 52 78
0.14992189 -0.083029136 -0.81548113 66 65 96
0.14763561 -0.083062463 -0.81359482 46 47 70
0.14789781 -0.082658455 -0.81540132 48 50 73
0.14884299 -0.082576327 -0.81619662 57 57 84
0.14784627 -0.082495287 -0.81667817 46 48 72
0.14703752 -0.082541272 -0.81618887 39 41 63
0.14679435 -0.082663447 -0.81518853 37 40 60
0.14793865 -0.082697213 -0.81510252 49 50 74
0.15051073 -0.083454683 -0.81515712 68 66 101
0.15147178 -0.083223023 -0.81644887 68 67 99
0.15190856 -0.083677888 -0.81597698 67 64 98
0.15120223 -0.083091952 -0.81645721 69 68 100
0.15031454 -0.084273778 -0.81356043 61 59 96
0.15165989 -0.084368631 -0.81459683 60 58 94
0.15145414 -0.084336527 -0.81446254 61 58 95
0.15325932 -0.084165744 -0.81630659 63 61 95
0.15400292 -0.084629819 -0.81601214 64 65 99
0.15285088 -0.084979467 -0.8142457 65 66 102
0.15271814 -0.084761158 -0.81468385 62 62 98
0.15068528 -0.084785342 -0.81303787 57 54 93
0.15340823 -0.084638059 -0.81552774 63 63 97
0.1536203 -0.085297063 -0.81405783 71 74 110
0.15504688 -0.084632978 -0.81671786 71 71 103
0.15455909 -0.084484287 -0.81667852 65 65 98
0.15442725 -0.085802317 -0.8132962 80 86 121
0.15454797 -0.084624857 -0.816185 67 67 101
0.15256967 -0.078919232 -0.82892054 61 61 86
0.15225242 -0.079341069 -0.82875794 57 57 83
0.15231387 -0.078581013 -0.82963413 46 46 67
0.15319382 -0.077769302 -0.82957917 61 62 83
0.15178564 -0.079543307 -0.83039343 42 42 66
0.15175079 -0.079708494 -0.83161265 41 42 66
0.15168644 -0.079942353 -0.82966965 46 45 72
0.15456675 -0.076196268 -0.83065516 64 68 85
0.15491506 -0.076925658 -0.83043098 70 76 102
0.15537812 -0.077046089 -0.83092034 65 74 101
0.15699945 -0.07754302 -0.83240581 60 74 108
0.15622993 -0.077973507 -0.83088744 86 95 132
0.15577477 -0.07693857 -0.83156341 56 67 94
0.15602399 -0.076779991 -0.83207858 47 60 86
0.15663716 -0.07833422 -0.83097255 93 102 143
0.15662512 -0.079566665 -0.82935113 86 94 133
0.15703605 -0.07876014 -0.83094639 92 102 145
0.15675561 -0.07934387 -0.82981402 88 97 137
0.15602028 -0.079136223 -0.82912165 92 98 136
0.15651451 -0.079032511 -0.82990563 91 99 139
0.15800637 -0.079043768 -0.83182383 88 101 146
0.15842338 -0.07918489 -0.83200288 88 100 144
0.15960474 -0.079792038 -0.83201122 89 95 134
0.16023293 -0.080051944 -0.83211392 90 92 129
0.15115432 -0.081381738 -0.82853138 49 49 71
0.15163282 -0.080456428 -0.83185148 42 43 69
0.15162952 -0.080366299 -0.82931089 47 46 72
0.15783288 -0.080277488 -0.82969129 86 95 133
0.15790825 -0.080303602 -0.82973361 86 96 133
0.1587227 -0.080095388 -0.83082318 87 95 133
0.15910506 -0.080444999 -0.83056515 88 96 133
0.16035168 -0.080736615 -0.8312332 91 95 130
0.15949531 -0.080648959 -0.8305527 89 95 132
0.15861571 -0.081085183 -0.82913691 88 98 135
0.16102763 -0.081834123 -0.82957286 96 103 135
0.15961948 -0.081718273 -0.82862103 93 103 137
0.15897691 -0.081526533 -0.82853109 90 101 137
0.16204798 -0.081535965 -0.8312102 97 100 131
0.16154128 -0.08138717 -0.83113337 96 99 131
0.16136567 -0.082279705 -0.82876533 99 107 137
0.16498412 -0.083901018 -0.82870424 100 107 136
0.16583967 -0.083114408 -0.83121455 97 100 136
0.16517311 -0.083513357 -0.82987392 98 102 134
0.16415831 -0.08292602 -0.82995635 99 104 137
0.16571945 -0.083633468 -0.83017808 97 101 133
0.1635066 -0.082194611 -0.8309257 99 103 136
0.16371986 -0.082564197 -0.83020675 100 105 138
0.16480863 -0.082409769 -0.83159882 98 101 137
0.16436167 -0.082489334 -0.83098727 99 103 138
0.16364534 -0.082391098 -0.830567 99 104 137
0.16539235 -0.082354613 -0.83227652 97 100 137
0.16678444 -0.083147809 -0.83241463 98 101 137
0.16633023 -0.083341748 -0.83142424 97 101 135
0.16593914 -0.084385619 -0.82856613 99 105 134
0.16707277 -0.084019311 -0.83123571 98 103 134
0.16743471 -0.084235415 -0.83106172 101 105 136
0.16736907 -0.084314063 -0.83071494 101 106 137
0.1682611 -0.084299758 -0.83194184 103 107 139
0.16971797 -0.084837042 -0.83155334 110 113 150
0.16934088 -0.08494442 -0.82865125 108 107 155
0.1683965 -0.084718212 -0.83005553 106 109 145
0.16713767 -0.084600449 -0.82870883 102 106 140
0.16767947 -0.084634118 -0.82958651 104 108 142
0.16947941 -0.084966838 -0.82863384 108 107 156
0.17213167 -0.084609881 -0.82926828 118 121 174
0.17206307 -0.084821522 -0.83010346 119 119 167
0.17217581 -0.084935315 -0.83073014 120 118 163
0.17231637 -0.084732726 -0.83001959 119 121 170
0.17185143 -0.084558554 -0.82871324 116 120 176
0.17031743 -0.084914424 -0.83084637 112 113 155
0.17251016 -0.084866926 -0.83220923 122 122 160
0.17006491 -0.08492697 -0.83056539 111 112 154
0.17154531 -0.084858835 -0.83211726 117 119 156
0.17166032 -0.084868923 -0.83196849 118 119 157
0.13202612 -0.086708099 -0.79090041 79 77 89
0.13202702 -0.086443543 -0.791201 76 72 81
0.13262457 -0.086131111 -0.79190797 68 60 68
0.13299772 -0.085490718 -0.79285449 59 44 48
0.13381568 -0.086021177 -0.79273558 58 47 57
0.13198817 -0.086215399 -0.79143679 74 68 75
0.13292596 -0.085879751 -0.79237092 64 53 59
0.13329338 -0.086793043 -0.7915796 70 67 78
0.13416892 -0.086589664 -0.79229254 61 53 62
0.13426898 -0.086476192 -0.79248214 59 50 60
0.13315713 -0.087525912 -0.79063278 80 78 84
0.13595729 -0.08729621 -0.79120076 49 39 48
0.13518927 -0.086552873 -0.79245245 51 40 49
0.13533847 -0.086839713 -0.7920351 52 41 49
0.13613331 -0.087356895 -0.79104799 47 38 47
0.13784574 -0.087429956 -0.79019618 27 21 43
0.13764827 -0.087722011 -0.79248041 42 33 47
0.1355183 -0.086470544 -0.79333508 50 38 49
0.13761283 -0.087762877 -0.79276884 45 35 49
0.13527557 -0.086258233 -0.79312265 48 36 48
0.13791153 -0.087509699 -0.79074293 27 21 40
0.14092126 -0.087710813 -0.79262996 36 36 57
0.14190823 -0.087437443 -0.79283309 39 43 70
0.13899311 -0.087716095 -0.78982812 22 20 45
0.14256369 -0.086679153 -0.79104739 60 71 107
0.14171687 -0.086890504 -0.79063481 52 60 94
0.14149231 -0.087346584 -0.79191929 39 43 72
0.14204057 -0.087311849 -0.7925421 42 47 76
0.1399785 -0.087233938 -0.78947288 38 41 71
0.1426686 -0.087004691 -0.79235399 51 60 92
0.14636727 -0.085483596 -0.79329646 92 108 180
0.13323906 -0.088162579 -0.78966975 84 85 87
0.13819276 -0.088037141 -0.79262269 41 32 47
0.1365712 -0.088055052 -0.78986222 47 41 48
0.13615917 -0.088192023 -0.78976452 53 48 52
0.13953234 -0.088123292 -0.793051 38 33 48
0.1389142 -0.087932117 -0.79079318 25 20 40
0.1347606 -0.08269114 -0.80154043 38 22 38
0.13841407 -0.083910294 -0.80158299 14 11 33
0.13481508 -0.082681559 -0.80136549 36 21 38
0.13572937 -0.083087787 -0.80203849 35 22 37
0.13587868 -0.083103672 -0.80178338 33 20 37
0.13538058 -0.083066113 -0.80274594 43 28 39
0.13650021 -0.083387598 -0.80229712 33 22 37
0.13539211 -0.082958288 -0.8019374 37 23 38
0.13893291 -0.083925463 -0.80228537 12 9 31
0.13873103 -0.083902456 -0.8021546 11 8 31
0.13982172 -0.084333047 -0.80231202 15 15 36
0.1395504 -0.084468722 -0.80136192 14 14 37
0.14443181 -0.087380208 -0.80118066 57 61 80
0.14447886 -0.086926885 -0.80251044 46 52 73
0.14433627 -0.086973682 -0.80214918 47 53 73
0.14621204 -0.087228023 -0.80415291 58 63 86
0.14410125 -0.086835347 -0.80223447 42 49 69
0.14458999 -0.086759523 -0.80319613 41 47 69
0.14375909 -0.085197531 -0.80493701 33 37 59
0.14355217 -0.086368687 -0.80256742 34 40 61
0.14284346 -0.085222699 -0.80371755 27 32 53
0.14302389 -0.085087724 -0.80419141 28 33 54
0.14417955 -0.085608117 -0.80473852 36 41 63
0.14422722 -0.086025298 -0.80405009 37 43 64
0.14421855 -0.085640818 -0.80472976 36 41 63
0.147816 -0.086771183 -0.80343252 59 63 102
0.14717232 -0.086931355 -0.80416381 57 61 93
0.14874707 -0.086676754 -0.80415684 53 53 100
0.14914528 -0.0866469 -0.80418772 52 51 101
0.14944698 -0.086768612 -0.8049385 49 45 94
0.14776179 -0.086864971 -0.8046568 53 55 91
0.14719909 -0.086954974 -0.80485421 53 56 87
0.14796974 -0.086757742 -0.80421108 54 57 96
0.14818054 -0.082429104 -0.82252842 42 44 62
0.14902857 -0.082302764 -0.82380283 49 49 70
0.150126 -0.081524424 -0.82422811 61 59 83
0.14857893 -0.082241111 -0.8209793 44 45 67
0.14827235 -0.082331359 -0.82203507 43 44 63
0.1493303 -0.081930615 -0.82132334 50 50 75
0.15013967 -0.081614964 -0.82107669 56 55 84
0.14794134 -0.082489505 -0.82118231 39 41 60
0.15425408 -0.081764966 -0.8227635 74 69 114
0.15197989 -0.081844144 -0.82319576 69 65 98
0.15360634 -0.082276493 -0.8217833 74 69 110
0.15155195 -0.081502721 -0.82408112 67 64 94
0.15402046 -0.081033155 -0.82447755 71 66 112
0.15168558 -0.081595615 -0.82383561 67 64 95
0.15081526 -0.08157181 -0.82328856 64 61 89
0.15125702 -0.081772856 -0.82094747 62 60 93
0.15182348 -0.081912398 -0.82182699 66 63 97
0.15316638 -0.08232338 -0.82128137 72 68 107
0.15050445 -0.081518918 -0.82202899 60 59 87
0.15204482 -0.082000129 -0.82108092 66 63 99
0.1576421 -0.082660571 -0.823232 97 103 132
0.15803245 -0.082822181 -0.82320404 99 107 133
0.15505345 -0.081308365 -0.82437348 77 75 117
0.15686101 -0.082145296 -0.82394201 90 94 126
0.15707465 -0.082697369 -0.82234657 95 100 132
0.15815789 -0.083516516 -0.82100552 105 114 141
0.15461935 -0.082069539 -0.8222416 77 73 117
0.15519512 -0.082863294 -0.82076657 83 82 122
0.15570927 -0.082407646 -0.82207686 85 86 125
0.156202 -0.082960196 -0.82110047 90 92 128
0.15559891 -0.082939416 -0.8208164 86 86 124
0.15562662 -0.082300246 -0.82227385 84 84 124
0.15896916 -0.083899766 -0.82108295 104 113 141
0.1617378 -0.083818525 -0.8239606 96 98 135
0.16095375 -0.083458833 -0.82391489 97 101 136
0.15929775 -0.083549522 -0.82200903 102 110 140
0.15987793 -0.082995825 -0.82445562 97 102 133
0.15861326 -0.083177395 -0.82261735 101 110 137
0.1589375 -0.083593532 -0.82151169 103 112 141
0.15952787 -0.083059654 -0.82390058 98 104 134
0.16047965 -0.084641367 -0.82118082 102 104 141
0.16180763 -0.084434293 -0.82293147 98 97 137
0.15944716 -0.084112003 -0.82119119 104 111 140
0.16002287 -0.084006645 -0.82198113 102 108 139
0.15962231 -0.084316336 -0.82096189 104 110 141
0.16213565 -0.085190229 -0.8217541 99 94 140
0.16320549 -0.084454127 -0.82400692 99 99 141
0.16456285 -0.084984437 -0.82392102 101 101 147
0.16259961 -0.084779218 -0.82291937 99 97 140
0.16525079 -0.084908105 -0.82456911 101 103 148
0.16496992 -0.085082747 -0.82401693 102 102 148
0.16558683 -0.085056424 -0.82257366 109 108 163
0.16589764 -0.085097119 -0.82369578 106 106 158
0.16484678 -0.085114092 -0.82139248 110 107 165
0.16432863 -0.085268617 -0.82166648 107 103 158
0.1647687 -0.08506228 -0.82070953 113 108 170
0.16642793 -0.084967524 -0.8235212 107 109 162
0.16658026 -0.084954746 -0.82369286 107 109 162
0.16820006 -0.084610596 -0.82350928 110 113 172
0.1579123 -0.077829935 -0.83333701 80 101 149
0.15684246 -0.076850414 -0.83312863 55 75 110
0.15786445 -0.078327827 -0.83258212 80 95 139
0.15698783 -0.076451421 -0.83388937 57 83 122
0.15719871 -0.076687559 -0.83387119 62 88 130
0.15845415 -0.07705614 -0.83497858 85 116 170
0.15883152 -0.077368818 -0.8348701 88 113 164
0.15986504 -0.077246495 -0.83591747 92 115 161
0.15916517 -0.078664936 -0.83342803 93 104 147
0.16022758 -0.077814557 -0.83547056 95 111 152
0.15991341 -0.078297071 -0.83455855 95 107 148
0.15863791 -0.078254104 -0.83352441 89 107 154
0.15949087 -0.077745542 -0.83493215 92 111 156
0.16116731 -0.079378016 -0.83395511 96 98 132
0.16111161 -0.078869604 -0.83472019 99 103 136
0.1603813 -0.079871044 -0.83251834 91 93 131
0.16104096 -0.078622259 -0.83505636 100 106 139
0.16208918 -0.078940831 -0.83551812 103 107 134
0.16196233 -0.079710744 -0.8343035 99 103 131
0.16261196 -0.079209901 -0.83538115 101 104 134
0.16298316 -0.0788147 -0.83609849 101 104 136
0.16262811 -0.079073712 -0.83557945 101 104 134
0.16476297 -0.079546422 -0.8358494 93 95 134
0.16261414 -0.078596987 -0.83624387 103 106 136
0.16113609 -0.080326132 -0.83253801 92 94 128
0.16489519 -0.081857398 -0.83275503 95 98 135
0.165985 -0.082011819 -0.8330881 94 97 137
0.16554722 -0.081132457 -0.83403105 91 94 135
0.16532268 -0.081169128 -0.8338722 92 94 134
0.16497813 -0.08117082 -0.83370036 92 94 134
0.16335829 -0.080303282 -0.83414292 94 97 131
0.16380996 -0.080217972 -0.83447134 93 96 131
0.16513018 -0.08010824 -0.83521712 89 92 133
0.16627285 -0.080565766 -0.8353461 88 89 134
0.16639313 -0.082030512 -0.83357942 95 98 138
0.16814207 -0.082475558 -0.83532548 103 106 144
0.16655256 -0.080418505 -0.83590949 87 88 134
0.16691996 -0.081079081 -0.83553129 92 93 137
0.16863035 -0.08297921 -0.83531451 107 111 147
0.16895278 -0.082893215 -0.83585715 108 111 148
0.16877127 -0.082464106 -0.83617896 105 108 146
0.16852392 -0.08332859 -0.83462888 107 111 146
0.16744536 -0.082933478 -0.83377355 103 106 143
0.16747218 -0.08349745 -0.8327812 100 104 138
0.16878946 -0.083918415 -0.83394182 106 111 143
0.16892548 -0.084256053 -0.83302474 106 111 143
0.16859457 -0.084125586 -0.83301765 104 109 141
0.17036852 -0.084162287 -0.83534545 115 120 153
0.17078167 -0.084150977 -0.83586341 117 122 155
0.17097561 -0.084544562 -0.83464473 116 121 154
0.17041834 -0.08469592 -0.83344638 113 118 151
0.17158094 -0.08436507 -0.83600169 120 124 158
0.17028622 -0.084712029 -0.83323479 113 117 151
0.17249563 -0.084877044 -0.83321249 122 124 159
0.17101723 -0.084856078 -0.83319396 115 119 153
0.17162184 -0.084860437 -0.83305329 118 121 156
0.12974767 -0.087452233 -0.77957565 61 56 81
0.12897342 -0.087446652 -0.77951062 63 57 83
0.1289307 -0.087594546 -0.77990139 66 60 84
0.13075307 -0.087091193 -0.77868015 52 47 76
0.13000304 -0.087662339 -0.78015119 64 60 81
0.12869237 -0.087304898 -0.77893239 67 62 88
0.12895672 -0.087096818 -0.77805918 72 71 94
0.13120465 -0.087865993 -0.78092569 63 62 78
0.13327223 -0.087479845 -0.78100371 45 44 73
0.13265763 -0.0876524 -0.78113616 51 51 75
0.13240939 -0.087685972 -0.78109348 53 53 76
0.13429092 -0.087427981 -0.78140706 38 38 71
0.13127747 -0.087324545 -0.77953023 53 50 76
0.13424529 -0.086120389 -0.77852654 83 87 128
0.13360721 -0.086387828 -0.77870333 70 72 111
0.13464853 -0.086214371 -0.77897906 81 86 127
0.13412923 -0.08599963 -0.7781952 87 92 133
0.13421385 -0.08633621 -0.77897 75 78 118
0.13470113 -0.08611472 -0.77879798 85 90 132
0.13537654 -0.086639635 -0.78081739 67 70 109
0.13532467 -0.086123444 -0.7796374 87 92 133
0.13523835 -0.086851351 -0.78107864 59 61 98
0.13484128 -0.086208165 -0.77914399 82 87 128
0.1361206 -0.086336888 -0.78120714 81 85 125
0.12772851 -0.088005997 -0.78136194 67 57 82
0.12861566 -0.088019997 -0.78146899 68 61 85
0.12943821 -0.08797621 -0.78119218 73 72 91
0.13170035 -0.087923788 -0.78140318 59 59 79
0.13309748 -0.083892971 -0.79600054 44 27 32
0.13226205 -0.083932355 -0.79538137 55 34 32
0.13373022 -0.083970219 -0.79597354 31 17 26
0.13485454 -0.08387167 -0.79720759 21 12 31
0.13081959 -0.08422219 -0.79635221 98 78 60
0.13016081 -0.084110484 -0.79546189 93 78 64
0.13355552 -0.084279463 -0.79525214 37 22 29
0.13469712 -0.085037448 -0.79495841 36 25 39
0.13417789 -0.084157705 -0.79605055 29 16 28
0.13317904 -0.084138893 -0.79515302 39 22 27
0.13430162 -0.084918723 -0.79480243 39 26 37
0.13120189 -0.084215328 -0.79680878 95 77 61
0.13239537 -0.084006391 -0.7966848 66 50 44
0.13477613 -0.084594533 -0.79582292 29 19 34
0.13733599 -0.085306577 -0.79624629 22 15 38
0.13548204 -0.084454864 -0.79654515 24 15 34
0.13554426 -0.084947102 -0.79570323 30 21 38
0.13682501 -0.084902965 -0.79663163 20 13 36
0.13534148 -0.084212393 -0.79688704 21 13 32
0.13591404 -0.085217081 -0.79546398 31 22 40
0.13663772 -0.085767612 -0.79505402 33 24 43
0.13736306 -0.086993814 -0.79420531 42 32 48
0.13721374 -0.087235264 -0.79380941 46 35 49
0.13797094 -0.086227067 -0.79556721 28 21 42
0.13785897 -0.086385749 -0.79529625 31 23 43
0.13780087 -0.086177364 -0.79549152 29 21 42
0.13861977 -0.086885951 -0.79530907 26 18 38
0.13813162 -0.086742103 -0.79509747 33 24 44
0.13951945 -0.0870746 -0.79481077 29 24 43
0.14079238 -0.087866999 -0.79341161 39 36 52
0.139645 -0.087266438 -0.794541 31 26 44
0.13957687 -0.085822895 -0.79624093 19 17 45
0.14085473 -0.08680921 -0.79461694 32 32 57
0.1408406 -0.087497942 -0.79382211 37 35 54
0.14150104 -0.08723186 -0.79717571 28 32 51
0.14037697 -0.086282335 -0.79631972 23 23 49
0.14158311 -0.087123424 -0.79621631 31 34 55
0.14224201 -0.087384656 -0.79501539 37 42 65
0.14150369 -0.086952582 -0.7955566 32 34 59
0.14175721 -0.087291874 -0.79647297 31 35 54
0.14186026 -0.087059677 -0.79470897 35 39 65
0.14404228 -0.087578349 -0.79722512 41 45 73
0.14299886 -0.08756531 -0.79537284 40 45 70
0.14314134 -0.0872816 -0.79397064 44 49 80
0.14458613 -0.08726465 -0.79626173 46 48 85
0.14542061 -0.087076746 -0.79655689 49 50 94
0.14452507 -0.087135404 -0.79541463 47 50 89
0.1460893 -0.086093836 -0.79459208 75 85 147
0.1452236 -0.086707488 -0.79511571 59 64 113
0.1448676 -0.086457938 -0.79397863 66 75 126
0.14561923 -0.086017832 -0.79377377 78 90 151
0.14415064 -0.086623855 -0.79348999 62 71 117
0.14442077 -0.086606964 -0.79379702 62 71 118
0.13840942 -0.087999284 -0.79378492 39 30 44
0.14499503 -0.083836675 -0.80921894 34 36 56
0.14568087 -0.083035499 -0.81203878 33 36 55
0.14452033 -0.083211355 -0.8106553 29 32 51
0.14611447 -0.083769098 -0.81016856 39 41 61
0.1455463 -0.083258443 -0.8112734 34 37 55
0.14601009 -0.082983688 -0.81251019 35 38 56
0.14487974 -0.08300893 -0.81240433 29 33 49
0.14771396 -0.083539151 -0.81284648 43 44 69
0.14688644 -0.083356559 -0.81223595 40 42 62
0.14809507 -0.083707824 -0.81287509 45 45 72
0.14831522 -0.084352456 -0.81133103 48 48 77
0.14907469 -0.084328681 -0.81239134 50 49 81
0.14836009 -0.084239848 -0.81171399 48 48 77
0.15018862 -0.085763633 -0.81090105 54 55 85
0.14998987 -0.085686371 -0.81079942 54 55 84
0.14822787 -0.085099995 -0.80972815 48 50 74
0.14905503 -0.085884362 -0.80935013 50 54 76
0.14886491 -0.085142002 -0.81040961 50 51 78
0.14844607 -0.085607491 -0.80910832 49 52 73
0.14758301 -0.084951892 -0.80922103 46 48 70
0.15334776 -0.085664988 -0.81080061 66 68 105
0.15169844 -0.085153975 -0.81174779 59 58 96
0.15201126 -0.085248835 -0.81130815 59 59 97
0.15343696 -0.085701473 -0.81186432 71 75 111
0.15378489 -0.085802302 -0.81078595 68 72 109
0.1521163 -0.085287862 -0.81206495 63 64 101
0.15143463 -0.085643187 -0.81085849 57 58 92
0.15228669 -0.085755333 -0.81026393 59 61 95
0.15155318 -0.085240953 -0.81149876 58 57 94
0.15205435 -0.086330719 -0.80937755 58 62 91
0.15090069 -0.085061073 -0.81211668 56 55 92
0.15126388 -0.085362978 -0.81142354 57 57 92
0.15435381 -0.085945636 -0.81056988 71 76 113
0.15429299 -0.07975807 -0.8261342 76 70 118
0.15330359 -0.079285331 -0.82777536 76 74 110
0.15366264 -0.080018505 -0.82646894 66 61 105
0.15523839 -0.07937891 -0.82780308 87 89 129
0.15442383 -0.079667635 -0.82640523 78 74 120
0.15505409 -0.079849288 -0.82697409 78 77 121
0.1560003 -0.08003135 -0.82794297 80 85 124
0.15261339 -0.080216914 -0.82744354 57 54 89
0.15142946 -0.081368908 -0.82822704 52 51 75
0.1537827 -0.08080171 -0.82571703 68 63 107
0.15378925 -0.080693498 -0.82584506 68 63 107
0.15330392 -0.081176721 -0.82609552 66 61 101
0.15245034 -0.0814806 -0.82524437 66 63 97
0.15290207 -0.081502736 -0.8253957 66 63 99
0.15544935 -0.080405645 -0.82676238 77 78 120
0.15451378 -0.080322444 -0.82568401 72 67 115
0.15647937 -0.08078368 -0.82733959 81 86 126
0.15676969 -0.081000663 -0.82731354 82 88 128
0.15643381 -0.08096011 -0.82699949 80 85 126
0.15811808 -0.08126758 -0.82837832 87 99 136
0.15593591 -0.081248805 -0.82568997 80 81 122
0.15773526 -0.081619523 -0.82676816 89 98 131
0.15774554 -0.081950516 -0.82572025 92 99 130
0.15723982 -0.081750222 -0.8257252 88 94 128
0.15797567 -0.081622966 -0.82705992 90 99 133
0.16149731 -0.083122201 -0.82562011 94 98 136
0.16028352 -0.082227714 -0.8275519 94 102 137
0.16177812 -0.083238997 -0.82554859 95 99 136
0.16001692 -0.082275458 -0.82695901 91 99 136
0.1604268 -0.082545087 -0.82644171 92 98 136
0.16144609 -0.08285746 -0.8266471 96 102 137
0.15964401 -0.082687497 -0.82524091 95 101 133
0.15944101 -0.082636803 -0.82521933 95 102 132
0.16005026 -0.082825169 -0.82516801 95 100 133
0.15978312 -0.082203135 -0.8269195 90 98 136
0.15869218 -0.08220356 -0.82592893 94 102 133
0.15917313 -0.082197696 -0.82638383 92 101 134
0.16234481 -0.083719864 -0.82464617 96 98 136
0.16339508 -0.083340265 -0.82807922 101 107 137
0.16234407 -0.08339747 -0.82582784 97 100 136
0.16226457 -0.082896903 -0.82776058 101 107 138
0.16224982 -0.08289519 -0.82773948 101 107 138
0.16262828 -0.083604418 -0.8255102 96 99 136
0.16559641 -0.084527105 -0.82700199 101 106 142
0.1629871 -0.08403746 -0.82478851 98 100 138
0.16354941 -0.084251486 -0.82473111 99 101 141
0.16483314 -0.084035031 -0.8279497 100 107 137
0.16566552 -0.08486443 -0.8254295 102 105 148
0.1650988 -0.084592856 -0.82575279 101 104 144
0.16880481 -0.084714741 -0.82760555 106 108 155
0.16948609 -0.08489044 -0.8280201 108 107 158
0.16879916 -0.084800541 -0.8281163 106 107 153
0.1674307 -0.084494963 -0.82756251 103 107 146
0.16784899 -0.084526882 -0.82736945 104 108 150
0.16798306 -0.084563799 -0.82571042 104 110 157
0.16690269 -0.084589824 -0.82673877 102 107 146
0.16739869 -0.084780164 -0.82517648 104 108 156
0.16766059 -0.08479134 -0.82483298 104 109 159
0.16792516 -0.084712431 -0.82497203 105 109 160
0.16685697 -0.084876113 -0.82524538 103 107 153
0.17088194 -0.084611565 -0.82768238 112 114 171
0.17299472 -0.084091239 -0.82797605 120 129 190
0.17102982 -0.084457375 -0.82711583 112 115 173
0.17140663 -0.084478676 -0.82773697 114 117 175
0.17173995 -0.084414989 -0.82787502 115 120 178
0.17005484 -0.08472655 -0.82696629 109 110 165
0.17000422 -0.084795363 -0.82725406 109 109 164
0.1620346 -0.073817126 -0.84123141 25 22 35
0.16165814 -0.07319209 -0.84158224 23 20 32
0.16016752 -0.072350271 -0.84091866 24 20 32
0.16207765 -0.072947092 -0.84237468 20 18 28
0.16302949 -0.072544008 -0.84355205 25 22 44
0.16238914 -0.073041275 -0.84248567 23 20 34
0.16422406 -0.07453461 -0.84277791 60 58 94
0.16352282 -0.073552385 -0.84298915 40 38 65
0.16527548 -0.074696101 -0.8438037 77 77 122
0.16324499 -0.074226461 -0.84198427 42 40 65
0.16398044 -0.07466495 -0.84236842 57 56 89
0.1626844 -0.074338757 -0.84123421 35 32 52
0.16339345 -0.075292751 -0.84062177 45 38 65
0.16399474 -0.075464897 -0.84103429 53 46 79
0.16396779 -0.074989378 -0.84195405 59 56 89
0.16356273 -0.075569913 -0.84027922 44 35 63
0.16549347 -0.075497948 -0.84285682 79 76 123
0.16541666 -0.076097652 -0.84190995 78 70 115
0.16538419 -0.076490164 -0.84127587 77 67 111
0.16583465 -0.076241218 -0.84241372 90 82 131
0.16605185 -0.077201433 -0.84130901 93 84 133
0.16623381 -0.077269219 -0.84139228 93 84 134
0.16770244 -0.077955522 -0.84228098 93 88 135
0.16715601 -0.078598067 -0.84065104 93 87 133
0.16784057 -0.078294545 -0.84199989 93 87 134
0.16844712 -0.079447269 -0.84105206 95 96 136
0.16868764 -0.079575546 -0.84117192 95 97 137
0.16605872 -0.077912003 -0.84025639 92 81 130
0.16970319 -0.079976313 -0.84214997 96 99 137
0.17131802 -0.07981436 -0.84398019 101 105 141
0.16995491 -0.079388939 -0.84326321 95 97 138
0.16953255 -0.080910295 -0.840545 100 103 141
0.16982806 -0.08125259 -0.84050411 102 105 142
0.17116426 -0.08013498 -0.84342164 101 106 141
0.17099051 -0.080418549 -0.8428486 102 106 141
0.17272662 -0.080845505 -0.84382391 112 117 150
0.17129834 -0.080589473 -0.84288317 104 108 143
0.17184855 -0.080843113 -0.84301955 108 113 147
0.17171295 -0.081701353 -0.84097254 111 114 150
0.17184341 -0.081691004 -0.84111571 112 115 151
0.17260891 -0.081967384 -0.84060121 115 118 154
0.17234349 -0.081931069 -0.84054041 114 117 153
0.17167933 -0.081730366 -0.84082973 111 114 150
0 0 0 1 0 0 0 1 0 0 0 1 0 0 0 0 0 782 1 0 0
